%FSLAX23Y23*%
%MOIN*%
G70*
G01*
G75*
G04 Layer_Color=8388736*
%ADD10C,0.008*%
%ADD11R,0.043X0.045*%
%ADD12R,0.045X0.043*%
%ADD13R,0.020X0.020*%
%ADD14R,0.060X0.124*%
%ADD15R,0.055X0.138*%
%ADD16R,0.069X0.043*%
%ADD17R,0.020X0.049*%
%ADD18R,0.059X0.057*%
%ADD19R,0.014X0.035*%
%ADD20R,0.051X0.108*%
%ADD21R,0.040X0.040*%
%ADD22R,0.050X0.040*%
%ADD23O,0.024X0.073*%
%ADD24R,0.124X0.060*%
%ADD25R,0.057X0.016*%
%ADD26R,0.066X0.124*%
%ADD27R,0.071X0.071*%
%ADD28O,0.010X0.031*%
%ADD29O,0.031X0.010*%
%ADD30R,0.028X0.035*%
%ADD31O,0.028X0.010*%
%ADD32R,0.024X0.024*%
%ADD33R,0.059X0.169*%
%ADD34R,0.043X0.069*%
%ADD35R,0.055X0.035*%
%ADD36R,0.055X0.087*%
%ADD37R,0.016X0.024*%
%ADD38R,0.033X0.051*%
%ADD39R,0.057X0.059*%
G04:AMPARAMS|DCode=40|XSize=65mil|YSize=220mil|CornerRadius=16mil|HoleSize=0mil|Usage=FLASHONLY|Rotation=180.000|XOffset=0mil|YOffset=0mil|HoleType=Round|Shape=RoundedRectangle|*
%AMROUNDEDRECTD40*
21,1,0.065,0.188,0,0,180.0*
21,1,0.033,0.220,0,0,180.0*
1,1,0.033,-0.016,0.094*
1,1,0.033,0.016,0.094*
1,1,0.033,0.016,-0.094*
1,1,0.033,-0.016,-0.094*
%
%ADD40ROUNDEDRECTD40*%
G04:AMPARAMS|DCode=41|XSize=65mil|YSize=200mil|CornerRadius=16mil|HoleSize=0mil|Usage=FLASHONLY|Rotation=180.000|XOffset=0mil|YOffset=0mil|HoleType=Round|Shape=RoundedRectangle|*
%AMROUNDEDRECTD41*
21,1,0.065,0.168,0,0,180.0*
21,1,0.033,0.200,0,0,180.0*
1,1,0.033,-0.016,0.084*
1,1,0.033,0.016,0.084*
1,1,0.033,0.016,-0.084*
1,1,0.033,-0.016,-0.084*
%
%ADD41ROUNDEDRECTD41*%
%ADD42R,0.014X0.067*%
%ADD43R,0.051X0.033*%
%ADD44R,0.037X0.039*%
%ADD45R,0.024X0.045*%
%ADD46C,0.012*%
%ADD47C,0.010*%
%ADD48C,0.025*%
%ADD49C,0.015*%
%ADD50C,0.020*%
%ADD51C,0.050*%
%ADD52C,0.030*%
%ADD53C,0.040*%
%ADD54R,0.050X0.050*%
%ADD55C,0.050*%
%ADD56O,0.075X0.150*%
%ADD57R,0.059X0.059*%
%ADD58C,0.059*%
%ADD59C,0.090*%
%ADD60C,0.060*%
%ADD61R,0.060X0.060*%
%ADD62C,0.052*%
G04:AMPARAMS|DCode=63|XSize=354mil|YSize=79mil|CornerRadius=20mil|HoleSize=0mil|Usage=FLASHONLY|Rotation=270.000|XOffset=0mil|YOffset=0mil|HoleType=Round|Shape=RoundedRectangle|*
%AMROUNDEDRECTD63*
21,1,0.354,0.039,0,0,270.0*
21,1,0.315,0.079,0,0,270.0*
1,1,0.039,-0.020,-0.157*
1,1,0.039,-0.020,0.157*
1,1,0.039,0.020,0.157*
1,1,0.039,0.020,-0.157*
%
%ADD63ROUNDEDRECTD63*%
G04:AMPARAMS|DCode=64|XSize=394mil|YSize=79mil|CornerRadius=20mil|HoleSize=0mil|Usage=FLASHONLY|Rotation=270.000|XOffset=0mil|YOffset=0mil|HoleType=Round|Shape=RoundedRectangle|*
%AMROUNDEDRECTD64*
21,1,0.394,0.039,0,0,270.0*
21,1,0.354,0.079,0,0,270.0*
1,1,0.039,-0.020,-0.177*
1,1,0.039,-0.020,0.177*
1,1,0.039,0.020,0.177*
1,1,0.039,0.020,-0.177*
%
%ADD64ROUNDEDRECTD64*%
%ADD65O,0.276X0.079*%
%ADD66C,0.125*%
%ADD67O,0.173X0.059*%
%ADD68O,0.070X0.125*%
%ADD69R,0.079X0.335*%
%ADD70C,0.157*%
%ADD71C,0.030*%
%ADD72C,0.028*%
%ADD73C,0.040*%
%ADD74C,0.024*%
%ADD75C,0.080*%
%ADD76C,0.100*%
%ADD77C,0.060*%
G04:AMPARAMS|DCode=78|XSize=90mil|YSize=90mil|CornerRadius=0mil|HoleSize=0mil|Usage=FLASHONLY|Rotation=0.000|XOffset=0mil|YOffset=0mil|HoleType=Round|Shape=Relief|Width=20mil|Gap=10mil|Entries=4|*
%AMTHD78*
7,0,0,0.090,0.070,0.020,45*
%
%ADD78THD78*%
%ADD79C,0.070*%
%ADD80O,0.115X0.190*%
G04:AMPARAMS|DCode=81|XSize=95.433mil|YSize=95.433mil|CornerRadius=0mil|HoleSize=0mil|Usage=FLASHONLY|Rotation=0.000|XOffset=0mil|YOffset=0mil|HoleType=Round|Shape=Relief|Width=20mil|Gap=10mil|Entries=4|*
%AMTHD81*
7,0,0,0.095,0.075,0.020,45*
%
%ADD81THD81*%
%ADD82C,0.075*%
G04:AMPARAMS|DCode=83|XSize=117mil|YSize=117mil|CornerRadius=0mil|HoleSize=0mil|Usage=FLASHONLY|Rotation=0.000|XOffset=0mil|YOffset=0mil|HoleType=Round|Shape=Relief|Width=20mil|Gap=10mil|Entries=4|*
%AMTHD83*
7,0,0,0.117,0.097,0.020,45*
%
%ADD83THD83*%
%ADD84C,0.097*%
G04:AMPARAMS|DCode=85|XSize=102.126mil|YSize=102.126mil|CornerRadius=0mil|HoleSize=0mil|Usage=FLASHONLY|Rotation=0.000|XOffset=0mil|YOffset=0mil|HoleType=Round|Shape=Relief|Width=20mil|Gap=10mil|Entries=4|*
%AMTHD85*
7,0,0,0.102,0.082,0.020,45*
%
%ADD85THD85*%
%ADD86C,0.082*%
%ADD87C,0.092*%
%AMTHOVALD88*
21,1,0.267,0.088,0,0,270.0*
1,1,0.088,0.000,0.134*
1,1,0.088,0.000,-0.134*
21,0,0.267,0.068,0,0,270.0*
1,0,0.068,0.000,0.134*
1,0,0.068,0.000,-0.134*
4,0,4,-0.007,0.127,-0.038,0.158,-0.024,0.172,0.007,0.141,-0.007,0.127,0.0*
4,0,4,-0.007,-0.141,0.024,-0.172,0.038,-0.158,0.007,-0.127,-0.007,-0.141,0.0*
4,0,4,-0.007,0.141,0.024,0.172,0.038,0.158,0.007,0.127,-0.007,0.141,0.0*
4,0,4,-0.007,-0.127,-0.038,-0.158,-0.024,-0.172,0.007,-0.141,-0.007,-0.127,0.0*
%
%ADD88THOVALD88*%

%ADD89O,0.068X0.335*%
%ADD90O,0.316X0.119*%
G04:AMPARAMS|DCode=91|XSize=88mil|YSize=88mil|CornerRadius=0mil|HoleSize=0mil|Usage=FLASHONLY|Rotation=0.000|XOffset=0mil|YOffset=0mil|HoleType=Round|Shape=Relief|Width=20mil|Gap=10mil|Entries=4|*
%AMTHD91*
7,0,0,0.088,0.068,0.020,45*
%
%ADD91THD91*%
%ADD92C,0.112*%
%ADD93O,0.215X0.110*%
%ADD94O,0.068X0.112*%
%ADD95O,0.068X0.365*%
G04:AMPARAMS|DCode=96|XSize=132mil|YSize=132mil|CornerRadius=0mil|HoleSize=0mil|Usage=FLASHONLY|Rotation=0.000|XOffset=0mil|YOffset=0mil|HoleType=Round|Shape=Relief|Width=20mil|Gap=10mil|Entries=4|*
%AMTHD96*
7,0,0,0.132,0.112,0.020,45*
%
%ADD96THD96*%
%AMTHOVALD97*
21,1,0.044,0.088,0,0,270.0*
1,1,0.088,0.000,0.022*
1,1,0.088,0.000,-0.022*
21,0,0.044,0.068,0,0,270.0*
1,0,0.068,0.000,0.022*
1,0,0.068,0.000,-0.022*
4,0,4,-0.007,0.015,-0.038,0.046,-0.024,0.060,0.007,0.029,-0.007,0.015,0.0*
4,0,4,-0.007,-0.029,0.024,-0.060,0.038,-0.046,0.007,-0.015,-0.007,-0.029,0.0*
4,0,4,-0.007,0.029,0.024,0.060,0.038,0.046,0.007,0.015,-0.007,0.029,0.0*
4,0,4,-0.007,-0.015,-0.038,-0.046,-0.024,-0.060,0.007,-0.029,-0.007,-0.015,0.0*
%
%ADD97THOVALD97*%

%AMTHOVALD98*
21,1,0.297,0.088,0,0,270.0*
1,1,0.088,0.000,0.148*
1,1,0.088,0.000,-0.148*
21,0,0.297,0.068,0,0,270.0*
1,0,0.068,0.000,0.148*
1,0,0.068,0.000,-0.148*
4,0,4,-0.007,0.141,-0.038,0.172,-0.024,0.187,0.007,0.155,-0.007,0.141,0.0*
4,0,4,-0.007,-0.155,0.024,-0.187,0.038,-0.172,0.007,-0.141,-0.007,-0.155,0.0*
4,0,4,-0.007,0.155,0.024,0.187,0.038,0.172,0.007,0.141,-0.007,0.155,0.0*
4,0,4,-0.007,-0.141,-0.038,-0.172,-0.024,-0.187,0.007,-0.155,-0.007,-0.141,0.0*
%
%ADD98THOVALD98*%

G04:AMPARAMS|DCode=99|XSize=210mil|YSize=210mil|CornerRadius=0mil|HoleSize=0mil|Usage=FLASHONLY|Rotation=0.000|XOffset=0mil|YOffset=0mil|HoleType=Round|Shape=Relief|Width=20mil|Gap=10mil|Entries=4|*
%AMTHD99*
7,0,0,0.210,0.190,0.020,45*
%
%ADD99THD99*%
%ADD100C,0.052*%
G04:AMPARAMS|DCode=101|XSize=72mil|YSize=72mil|CornerRadius=0mil|HoleSize=0mil|Usage=FLASHONLY|Rotation=0.000|XOffset=0mil|YOffset=0mil|HoleType=Round|Shape=Relief|Width=20mil|Gap=10mil|Entries=4|*
%AMTHD101*
7,0,0,0.072,0.052,0.020,45*
%
%ADD101THD101*%
%ADD102C,0.051*%
G04:AMPARAMS|DCode=103|XSize=71mil|YSize=71mil|CornerRadius=0mil|HoleSize=0mil|Usage=FLASHONLY|Rotation=0.000|XOffset=0mil|YOffset=0mil|HoleType=Round|Shape=Relief|Width=20mil|Gap=10mil|Entries=4|*
%AMTHD103*
7,0,0,0.071,0.051,0.020,45*
%
%ADD103THD103*%
%ADD104C,0.068*%
G04:AMPARAMS|DCode=105|XSize=80mil|YSize=80mil|CornerRadius=0mil|HoleSize=0mil|Usage=FLASHONLY|Rotation=0.000|XOffset=0mil|YOffset=0mil|HoleType=Round|Shape=Relief|Width=20mil|Gap=10mil|Entries=4|*
%AMTHD105*
7,0,0,0.080,0.060,0.020,45*
%
%ADD105THD105*%
G04:AMPARAMS|DCode=106|XSize=84mil|YSize=84mil|CornerRadius=0mil|HoleSize=0mil|Usage=FLASHONLY|Rotation=0.000|XOffset=0mil|YOffset=0mil|HoleType=Round|Shape=Relief|Width=20mil|Gap=10mil|Entries=4|*
%AMTHD106*
7,0,0,0.084,0.064,0.020,45*
%
%ADD106THD106*%
%AMTHOVALD107*
21,1,0.044,0.088,0,0,450.0*
1,1,0.088,0.000,-0.022*
1,1,0.088,0.000,0.022*
21,0,0.044,0.068,0,0,450.0*
1,0,0.068,0.000,-0.022*
1,0,0.068,0.000,0.022*
4,0,4,0.007,-0.015,0.038,-0.046,0.024,-0.060,-0.007,-0.029,0.007,-0.015,0.0*
4,0,4,0.007,0.029,-0.024,0.060,-0.038,0.046,-0.007,0.015,0.007,0.029,0.0*
4,0,4,0.007,-0.029,-0.024,-0.060,-0.038,-0.046,-0.007,-0.015,0.007,-0.029,0.0*
4,0,4,0.007,0.015,0.038,0.046,0.024,0.060,-0.007,0.029,0.007,0.015,0.0*
%
%ADD107THOVALD107*%

%ADD108C,0.190*%
%ADD109C,0.064*%
%ADD110R,0.092X0.051*%
%ADD111R,0.024X0.016*%
%ADD112R,0.035X0.014*%
%ADD113C,0.010*%
%ADD114C,0.024*%
%ADD115C,0.005*%
%ADD116C,0.004*%
%ADD117C,0.007*%
%ADD118C,0.008*%
%ADD119C,0.004*%
%ADD120C,0.001*%
%ADD121C,0.002*%
%ADD122R,0.051X0.053*%
%ADD123R,0.053X0.051*%
%ADD124R,0.068X0.132*%
%ADD125R,0.063X0.146*%
%ADD126R,0.077X0.051*%
%ADD127R,0.028X0.057*%
%ADD128R,0.067X0.065*%
%ADD129R,0.022X0.043*%
%ADD130R,0.059X0.116*%
%ADD131R,0.048X0.048*%
%ADD132R,0.058X0.048*%
%ADD133O,0.032X0.081*%
%ADD134R,0.132X0.068*%
%ADD135R,0.065X0.024*%
%ADD136R,0.074X0.132*%
%ADD137R,0.079X0.079*%
%ADD138O,0.018X0.039*%
%ADD139O,0.039X0.018*%
%ADD140R,0.036X0.043*%
%ADD141O,0.036X0.018*%
%ADD142R,0.032X0.032*%
%ADD143R,0.067X0.177*%
%ADD144R,0.051X0.077*%
%ADD145R,0.063X0.043*%
%ADD146R,0.063X0.095*%
%ADD147R,0.024X0.032*%
%ADD148R,0.041X0.059*%
%ADD149R,0.065X0.067*%
G04:AMPARAMS|DCode=150|XSize=73mil|YSize=228mil|CornerRadius=20mil|HoleSize=0mil|Usage=FLASHONLY|Rotation=180.000|XOffset=0mil|YOffset=0mil|HoleType=Round|Shape=RoundedRectangle|*
%AMROUNDEDRECTD150*
21,1,0.073,0.188,0,0,180.0*
21,1,0.033,0.228,0,0,180.0*
1,1,0.041,-0.016,0.094*
1,1,0.041,0.016,0.094*
1,1,0.041,0.016,-0.094*
1,1,0.041,-0.016,-0.094*
%
%ADD150ROUNDEDRECTD150*%
G04:AMPARAMS|DCode=151|XSize=73mil|YSize=208mil|CornerRadius=20mil|HoleSize=0mil|Usage=FLASHONLY|Rotation=180.000|XOffset=0mil|YOffset=0mil|HoleType=Round|Shape=RoundedRectangle|*
%AMROUNDEDRECTD151*
21,1,0.073,0.168,0,0,180.0*
21,1,0.033,0.208,0,0,180.0*
1,1,0.041,-0.016,0.084*
1,1,0.041,0.016,0.084*
1,1,0.041,0.016,-0.084*
1,1,0.041,-0.016,-0.084*
%
%ADD151ROUNDEDRECTD151*%
%ADD152R,0.022X0.075*%
%ADD153R,0.059X0.041*%
%ADD154R,0.045X0.047*%
%ADD155R,0.032X0.053*%
%ADD156R,0.058X0.058*%
%ADD157C,0.058*%
%ADD158O,0.083X0.158*%
%ADD159R,0.067X0.067*%
%ADD160C,0.067*%
%ADD161C,0.098*%
%ADD162R,0.068X0.068*%
%ADD163C,0.060*%
G04:AMPARAMS|DCode=164|XSize=362mil|YSize=87mil|CornerRadius=24mil|HoleSize=0mil|Usage=FLASHONLY|Rotation=270.000|XOffset=0mil|YOffset=0mil|HoleType=Round|Shape=RoundedRectangle|*
%AMROUNDEDRECTD164*
21,1,0.362,0.039,0,0,270.0*
21,1,0.315,0.087,0,0,270.0*
1,1,0.047,-0.020,-0.157*
1,1,0.047,-0.020,0.157*
1,1,0.047,0.020,0.157*
1,1,0.047,0.020,-0.157*
%
%ADD164ROUNDEDRECTD164*%
G04:AMPARAMS|DCode=165|XSize=402mil|YSize=87mil|CornerRadius=24mil|HoleSize=0mil|Usage=FLASHONLY|Rotation=270.000|XOffset=0mil|YOffset=0mil|HoleType=Round|Shape=RoundedRectangle|*
%AMROUNDEDRECTD165*
21,1,0.402,0.039,0,0,270.0*
21,1,0.354,0.087,0,0,270.0*
1,1,0.047,-0.020,-0.177*
1,1,0.047,-0.020,0.177*
1,1,0.047,0.020,0.177*
1,1,0.047,0.020,-0.177*
%
%ADD165ROUNDEDRECTD165*%
%ADD166C,0.103*%
%ADD167O,0.284X0.087*%
%ADD168C,0.133*%
%ADD169O,0.181X0.067*%
%ADD170O,0.078X0.133*%
%ADD171R,0.087X0.343*%
%ADD172C,0.165*%
%ADD173C,0.036*%
G36*
X810Y3807D02*
X711D01*
Y3917D01*
X810D01*
Y3807D01*
D02*
G37*
G36*
X860Y330D02*
X650D01*
Y640D01*
X860D01*
Y330D01*
D02*
G37*
G36*
X961Y3807D02*
X861D01*
Y3917D01*
X961D01*
Y3807D01*
D02*
G37*
G36*
X3186Y3810D02*
X3087D01*
Y3920D01*
X3186D01*
Y3810D01*
D02*
G37*
G36*
X3036D02*
X2936D01*
Y3920D01*
X3036D01*
Y3810D01*
D02*
G37*
G36*
X2363Y3348D02*
X2363Y3348D01*
X2363Y3348D01*
X2363Y3348D01*
X2364Y3348D01*
X2364Y3348D01*
X2364Y3348D01*
X2364Y3348D01*
X2364Y3347D01*
X2364Y3347D01*
X2364Y3347D01*
X2364Y3347D01*
X2366Y3347D01*
X2366Y3347D01*
X2366Y3346D01*
X2366Y3346D01*
D01*
X2367Y3346D01*
X2367Y3346D01*
X2367Y3346D01*
X2367Y3346D01*
X2367Y3346D01*
X2367Y3346D01*
X2368Y3345D01*
X2368Y3345D01*
D01*
X2368Y3345D01*
X2368Y3345D01*
X2368Y3345D01*
X2368Y3344D01*
X2368Y3344D01*
X2368Y3344D01*
X2369Y3344D01*
X2369Y3344D01*
X2370Y3339D01*
X2378Y3330D01*
X2388Y3322D01*
X2399Y3317D01*
X2411Y3316D01*
X2424Y3317D01*
X2435Y3322D01*
X2445Y3330D01*
X2453Y3339D01*
X2454Y3343D01*
X2454Y3344D01*
X2455Y3344D01*
X2455Y3345D01*
X2455Y3345D01*
X2455Y3345D01*
X2455Y3345D01*
X2455Y3345D01*
X2455Y3345D01*
X2455Y3345D01*
X2455Y3345D01*
X2455Y3345D01*
X2455Y3345D01*
X2455Y3345D01*
X2455Y3345D01*
X2456Y3346D01*
X2456Y3346D01*
X2456Y3346D01*
X2456Y3346D01*
X2456Y3346D01*
X2456Y3346D01*
X2456Y3346D01*
X2456Y3346D01*
X2456Y3346D01*
X2456Y3346D01*
X2457Y3346D01*
X2457Y3346D01*
X2457Y3347D01*
X2457Y3347D01*
X2457Y3347D01*
X2457Y3347D01*
X2457Y3347D01*
X2457Y3347D01*
X2457Y3347D01*
X2457Y3347D01*
X2457Y3347D01*
X2459Y3347D01*
X2459Y3348D01*
X2460Y3348D01*
X2460Y3348D01*
X2460D01*
D01*
X2461Y3348D01*
X2461Y3348D01*
X2461Y3347D01*
X2496Y3348D01*
X2496Y3348D01*
X2496Y3348D01*
X2496Y3348D01*
X2497Y3348D01*
X2497Y3348D01*
X2497Y3348D01*
X2497Y3348D01*
X2497Y3348D01*
X2497Y3348D01*
X2497Y3348D01*
X2497Y3347D01*
X2498Y3347D01*
X2498Y3347D01*
X2498Y3347D01*
X2499Y3347D01*
X2499Y3347D01*
X2500Y3346D01*
X2500Y3346D01*
X2500Y3346D01*
X2500Y3346D01*
X2500Y3346D01*
X2501Y3345D01*
X2501Y3345D01*
X2501Y3345D01*
X2502Y3343D01*
X2502Y3342D01*
X2502Y3342D01*
X2502Y3341D01*
X2502Y3341D01*
X2502Y3340D01*
X2502Y3340D01*
X2502Y3279D01*
X2502Y3279D01*
X2502Y3279D01*
X2502Y3278D01*
Y3278D01*
Y3278D01*
X2502Y3278D01*
X2502Y3278D01*
X2502Y3278D01*
Y3278D01*
X2502Y3278D01*
X2502Y3277D01*
X2502Y3277D01*
D01*
X2502Y3277D01*
X2502Y3277D01*
X2501Y3275D01*
X2501Y3275D01*
X2501Y3275D01*
X2501Y3275D01*
X2501Y3275D01*
X2501Y3274D01*
X2501Y3274D01*
X2500Y3274D01*
X2500Y3273D01*
X2499Y3273D01*
X2498Y3273D01*
X2497Y3272D01*
X2497Y3272D01*
X2496Y3272D01*
X2496Y3272D01*
X2495Y3272D01*
X2495Y3272D01*
X2327Y3272D01*
X2327Y3272D01*
X2327Y3272D01*
X2327Y3272D01*
X2326Y3272D01*
X2326Y3272D01*
X2326Y3272D01*
X2326Y3272D01*
X2326Y3272D01*
X2326Y3272D01*
X2326Y3272D01*
X2326Y3273D01*
X2325Y3273D01*
X2325Y3273D01*
X2325Y3273D01*
X2324Y3273D01*
X2323Y3273D01*
X2323Y3274D01*
X2322Y3274D01*
X2322Y3274D01*
X2322Y3274D01*
X2322Y3274D01*
X2322Y3274D01*
X2322Y3274D01*
X2322Y3275D01*
X2322Y3275D01*
X2322Y3275D01*
X2322Y3275D01*
X2322Y3275D01*
X2322Y3275D01*
D01*
X2322Y3275D01*
X2322Y3275D01*
X2322Y3275D01*
D01*
D01*
X2321Y3277D01*
X2321Y3277D01*
X2321Y3278D01*
X2321Y3279D01*
X2321Y3279D01*
X2321Y3280D01*
X2321Y3280D01*
X2321Y3341D01*
X2321Y3341D01*
X2321Y3341D01*
X2321Y3342D01*
X2321Y3342D01*
X2321Y3342D01*
X2321Y3342D01*
X2321Y3342D01*
X2321Y3342D01*
X2321Y3343D01*
X2321Y3343D01*
X2321Y3343D01*
X2321Y3343D01*
X2321Y3343D01*
X2321Y3343D01*
X2322Y3345D01*
X2322Y3345D01*
X2322Y3345D01*
X2322Y3345D01*
X2322Y3345D01*
X2322Y3346D01*
X2322Y3346D01*
X2323Y3346D01*
X2323Y3346D01*
X2324Y3347D01*
X2325Y3347D01*
X2326Y3348D01*
X2326Y3348D01*
X2327Y3348D01*
X2327Y3348D01*
X2328Y3348D01*
X2328Y3347D01*
X2363Y3348D01*
X2363Y3348D01*
X2363Y3348D01*
X2363Y3348D01*
D02*
G37*
G36*
X2496Y3454D02*
X2496Y3454D01*
X2496Y3454D01*
X2496Y3454D01*
X2497Y3454D01*
X2497Y3454D01*
X2497Y3454D01*
X2497Y3454D01*
X2497Y3454D01*
X2497Y3454D01*
X2497Y3454D01*
X2497Y3454D01*
X2499Y3453D01*
X2499Y3453D01*
X2499Y3453D01*
X2500Y3453D01*
X2500Y3453D01*
X2500Y3453D01*
X2500Y3452D01*
X2501Y3452D01*
X2501Y3452D01*
X2501Y3451D01*
X2502Y3450D01*
X2502Y3449D01*
X2502Y3449D01*
D01*
X2502Y3449D01*
X2502Y3449D01*
X2502Y3449D01*
Y3449D01*
X2502Y3449D01*
X2502Y3448D01*
X2502Y3448D01*
Y3448D01*
Y3448D01*
X2502Y3448D01*
X2502Y3447D01*
X2502Y3447D01*
Y3447D01*
X2502Y3447D01*
X2502Y3447D01*
X2502Y3385D01*
X2502Y3385D01*
X2502Y3385D01*
X2502Y3385D01*
X2502Y3385D01*
X2502Y3385D01*
X2502Y3385D01*
X2502Y3384D01*
X2502Y3384D01*
X2502Y3384D01*
X2502Y3384D01*
X2502Y3384D01*
X2502Y3384D01*
X2502Y3384D01*
X2502Y3383D01*
X2501Y3382D01*
X2501Y3382D01*
X2501Y3381D01*
X2501Y3381D01*
X2501Y3381D01*
X2500Y3381D01*
X2500Y3381D01*
X2500Y3380D01*
X2499Y3380D01*
X2499Y3380D01*
X2497Y3379D01*
X2497Y3379D01*
X2496Y3379D01*
X2496Y3379D01*
X2495Y3379D01*
X2495Y3379D01*
X2495Y3379D01*
X2460Y3379D01*
X2460Y3379D01*
X2460Y3379D01*
X2460Y3379D01*
X2459Y3379D01*
X2459Y3379D01*
X2459Y3379D01*
X2459Y3379D01*
X2459Y3379D01*
X2459Y3379D01*
X2459Y3379D01*
X2459Y3379D01*
X2458Y3379D01*
X2458Y3379D01*
X2458Y3379D01*
X2457Y3380D01*
X2457Y3380D01*
X2457Y3380D01*
X2457Y3380D01*
X2457Y3380D01*
X2457Y3380D01*
X2457Y3380D01*
X2456Y3380D01*
X2456Y3380D01*
X2456Y3380D01*
X2456Y3380D01*
X2456Y3380D01*
X2456Y3380D01*
X2456Y3380D01*
X2456Y3380D01*
X2456Y3380D01*
X2456Y3381D01*
X2455Y3381D01*
X2455Y3381D01*
X2455Y3381D01*
X2455Y3381D01*
X2455Y3381D01*
X2455Y3381D01*
X2455Y3381D01*
X2455Y3381D01*
X2455Y3381D01*
X2455Y3381D01*
X2455Y3381D01*
X2455Y3382D01*
X2455Y3382D01*
X2455Y3382D01*
X2455Y3382D01*
X2455Y3382D01*
X2454Y3383D01*
X2454Y3383D01*
X2454Y3383D01*
X2452Y3387D01*
X2445Y3397D01*
X2435Y3405D01*
X2424Y3409D01*
X2411Y3411D01*
X2399Y3409D01*
X2387Y3405D01*
X2378Y3397D01*
X2370Y3387D01*
X2368Y3383D01*
X2368Y3383D01*
X2368Y3383D01*
X2368Y3383D01*
X2368Y3383D01*
X2368Y3382D01*
X2368Y3382D01*
X2368Y3381D01*
X2368Y3381D01*
X2367Y3381D01*
X2367Y3381D01*
X2367Y3381D01*
X2367Y3380D01*
X2366Y3380D01*
X2366Y3380D01*
X2364Y3379D01*
X2364Y3379D01*
X2363Y3379D01*
X2363Y3379D01*
X2362Y3379D01*
X2362Y3379D01*
X2362Y3379D01*
X2327Y3379D01*
X2327Y3379D01*
X2327Y3379D01*
X2326Y3379D01*
X2326Y3379D01*
X2326Y3379D01*
X2326Y3379D01*
X2326Y3379D01*
X2326Y3379D01*
X2326Y3379D01*
X2326Y3379D01*
X2325Y3379D01*
X2325Y3379D01*
X2325Y3379D01*
X2325Y3379D01*
X2324Y3380D01*
X2323Y3380D01*
X2323Y3380D01*
X2323Y3380D01*
X2323Y3380D01*
X2322Y3380D01*
X2322Y3381D01*
X2322Y3381D01*
X2322Y3381D01*
X2321Y3382D01*
X2321Y3383D01*
X2321Y3384D01*
X2320Y3384D01*
X2320Y3385D01*
X2320Y3386D01*
X2321Y3386D01*
X2321Y3386D01*
X2320Y3448D01*
X2320Y3448D01*
X2320Y3448D01*
X2320Y3448D01*
X2320Y3448D01*
X2320Y3448D01*
X2320Y3448D01*
X2320Y3449D01*
X2321Y3449D01*
X2321Y3449D01*
X2321Y3449D01*
X2321Y3449D01*
X2321Y3449D01*
X2321Y3449D01*
X2321Y3450D01*
X2321Y3451D01*
X2321Y3451D01*
X2321Y3451D01*
X2321Y3451D01*
X2322Y3452D01*
X2322Y3452D01*
X2322Y3452D01*
X2322Y3452D01*
X2322Y3452D01*
X2322Y3452D01*
X2322Y3452D01*
X2322Y3452D01*
X2322Y3452D01*
X2322Y3452D01*
X2322Y3452D01*
X2322Y3452D01*
X2322Y3452D01*
X2322Y3452D01*
X2322Y3453D01*
X2323Y3453D01*
X2323Y3453D01*
X2323Y3453D01*
X2323Y3453D01*
X2323Y3453D01*
X2323Y3453D01*
X2323Y3453D01*
X2323Y3453D01*
X2324Y3453D01*
X2324Y3453D01*
X2324Y3453D01*
X2324Y3453D01*
X2325Y3454D01*
X2326Y3454D01*
X2326Y3454D01*
X2327Y3454D01*
X2327Y3454D01*
X2328Y3454D01*
X2328Y3454D01*
X2496Y3454D01*
X2496Y3454D01*
X2496Y3454D01*
X2496Y3454D01*
D02*
G37*
D104*
X3191Y3260D02*
D03*
D122*
X2314Y2697D02*
D03*
Y2624D02*
D03*
X2315Y2354D02*
D03*
Y2426D02*
D03*
X2240Y2354D02*
D03*
Y2426D02*
D03*
X2162Y2426D02*
D03*
Y2354D02*
D03*
X2084Y2426D02*
D03*
Y2354D02*
D03*
X1560Y2507D02*
D03*
Y2580D02*
D03*
X1670Y2504D02*
D03*
Y2576D02*
D03*
X1760Y746D02*
D03*
Y674D02*
D03*
X391Y3180D02*
D03*
Y3253D02*
D03*
X1290Y1906D02*
D03*
Y1834D02*
D03*
X1215Y1834D02*
D03*
Y1906D02*
D03*
X1920Y3764D02*
D03*
Y3836D02*
D03*
X2100Y4164D02*
D03*
Y4236D02*
D03*
X1760Y3964D02*
D03*
Y4036D02*
D03*
X1876Y4164D02*
D03*
Y4236D02*
D03*
X2026Y4236D02*
D03*
Y4164D02*
D03*
X1800Y4236D02*
D03*
Y4164D02*
D03*
X1950Y4236D02*
D03*
Y4164D02*
D03*
D123*
X1737Y3198D02*
D03*
X1664D02*
D03*
X1977Y3009D02*
D03*
X2050D02*
D03*
X1494Y1975D02*
D03*
X1421D02*
D03*
X1336Y2915D02*
D03*
X1264D02*
D03*
X1112Y3606D02*
D03*
X1185D02*
D03*
X1112Y3685D02*
D03*
X1185D02*
D03*
X621Y3147D02*
D03*
X694D02*
D03*
X636Y3025D02*
D03*
X564D02*
D03*
X1454Y2995D02*
D03*
X1526D02*
D03*
X1336Y3080D02*
D03*
X1264D02*
D03*
X1454D02*
D03*
X1526D02*
D03*
X1336Y2832D02*
D03*
X1264D02*
D03*
X564Y2921D02*
D03*
X636D02*
D03*
X779Y2922D02*
D03*
X851D02*
D03*
X1264Y2997D02*
D03*
X1336D02*
D03*
X2050Y3090D02*
D03*
X1977D02*
D03*
Y3159D02*
D03*
X2050D02*
D03*
X1264Y3162D02*
D03*
X1336D02*
D03*
X2689Y3764D02*
D03*
X2761D02*
D03*
X2689Y3684D02*
D03*
X2761D02*
D03*
X2446Y3932D02*
D03*
X2374D02*
D03*
X2375Y4317D02*
D03*
X2448D02*
D03*
X2375Y4238D02*
D03*
X2448D02*
D03*
X2446Y4080D02*
D03*
X2374D02*
D03*
X2375Y4396D02*
D03*
X2448D02*
D03*
D124*
X1110Y2340D02*
D03*
X1270D02*
D03*
D125*
X1244Y2700D02*
D03*
X1016D02*
D03*
D126*
X2725Y4359D02*
D03*
Y4241D02*
D03*
X2970Y3449D02*
D03*
Y3331D02*
D03*
D127*
X1440Y2563D02*
D03*
X1415Y2632D02*
D03*
X1466D02*
D03*
D128*
X1458Y1598D02*
D03*
Y1675D02*
D03*
X2775Y3260D02*
D03*
Y3183D02*
D03*
X2875Y3440D02*
D03*
Y3363D02*
D03*
X1120Y3281D02*
D03*
Y3358D02*
D03*
X2775Y3440D02*
D03*
Y3363D02*
D03*
D129*
X1399Y1887D02*
D03*
X1425D02*
D03*
X1451D02*
D03*
Y1813D02*
D03*
X1425D02*
D03*
X1399D02*
D03*
X1824Y3198D02*
D03*
X1850D02*
D03*
X1876D02*
D03*
Y3272D02*
D03*
X1850D02*
D03*
X1824D02*
D03*
D130*
X2090Y2906D02*
D03*
X1972D02*
D03*
D131*
X2050Y2720D02*
D03*
Y2800D02*
D03*
D132*
X1970Y2760D02*
D03*
D133*
X1788Y2442D02*
D03*
X1838D02*
D03*
X1888D02*
D03*
X1938D02*
D03*
X1788Y2638D02*
D03*
X1838D02*
D03*
X1888D02*
D03*
X1938D02*
D03*
D134*
X551Y3600D02*
D03*
Y3760D02*
D03*
D135*
X247Y3418D02*
D03*
X327D02*
D03*
D136*
X2944Y2982D02*
D03*
X2756D02*
D03*
D137*
X1089Y3100D02*
D03*
D138*
X1059Y3159D02*
D03*
X1079D02*
D03*
X1099D02*
D03*
X1118D02*
D03*
Y3040D02*
D03*
X1099D02*
D03*
X1079D02*
D03*
X1059D02*
D03*
D139*
X1148Y3129D02*
D03*
Y3109D02*
D03*
Y3090D02*
D03*
Y3070D02*
D03*
X1030D02*
D03*
Y3090D02*
D03*
Y3109D02*
D03*
Y3129D02*
D03*
D140*
X2591Y3363D02*
D03*
D141*
X2631Y3383D02*
D03*
Y3363D02*
D03*
Y3343D02*
D03*
X2552D02*
D03*
Y3363D02*
D03*
Y3383D02*
D03*
D142*
X2411Y3289D02*
D03*
X2411Y3435D02*
D03*
D143*
X798Y3320D02*
D03*
X1035D02*
D03*
D144*
X3293Y3600D02*
D03*
X3175D02*
D03*
X2634Y3015D02*
D03*
X2516D02*
D03*
X691Y3587D02*
D03*
X809D02*
D03*
X2098Y3250D02*
D03*
X1980D02*
D03*
D145*
X326Y2928D02*
D03*
D146*
Y3028D02*
D03*
D147*
X481Y3251D02*
D03*
Y3202D02*
D03*
D148*
X288Y3617D02*
D03*
X326Y3530D02*
D03*
X251Y3530D02*
D03*
X1088Y3757D02*
D03*
X1162Y3757D02*
D03*
X1125Y3843D02*
D03*
X2698Y3882D02*
D03*
X2772Y3882D02*
D03*
X2735Y3968D02*
D03*
X2344Y3767D02*
D03*
X2419Y3767D02*
D03*
X2382Y3853D02*
D03*
D149*
X623Y3330D02*
D03*
X699D02*
D03*
X2493Y3210D02*
D03*
X2416D02*
D03*
X858Y3025D02*
D03*
X781D02*
D03*
D150*
X1858Y60D02*
D03*
X1358D02*
D03*
D151*
X1758D02*
D03*
X1658D02*
D03*
X1558D02*
D03*
X1458D02*
D03*
D152*
X2137Y2528D02*
D03*
X2162D02*
D03*
X2188D02*
D03*
X2213D02*
D03*
X2137Y2752D02*
D03*
X2162D02*
D03*
X2188D02*
D03*
X2213D02*
D03*
D153*
X2177Y4162D02*
D03*
X2177Y4088D02*
D03*
X2263Y4125D02*
D03*
D154*
X1882Y3416D02*
D03*
X1818D02*
D03*
D155*
X1854Y3944D02*
D03*
X1891D02*
D03*
X1929D02*
D03*
Y4036D02*
D03*
X1891D02*
D03*
X1854D02*
D03*
D156*
X2573Y4473D02*
D03*
X1345D02*
D03*
D157*
X2573Y4395D02*
D03*
Y4316D02*
D03*
Y4237D02*
D03*
Y4158D02*
D03*
Y4080D02*
D03*
Y4001D02*
D03*
Y3922D02*
D03*
Y3844D02*
D03*
Y3765D02*
D03*
Y3686D02*
D03*
Y3607D02*
D03*
X1345Y4395D02*
D03*
Y4316D02*
D03*
Y4237D02*
D03*
Y4158D02*
D03*
Y4080D02*
D03*
Y4001D02*
D03*
Y3922D02*
D03*
Y3844D02*
D03*
Y3765D02*
D03*
Y3686D02*
D03*
Y3607D02*
D03*
X1270Y2470D02*
D03*
X3049Y3331D02*
D03*
X1145Y4005D02*
D03*
Y4105D02*
D03*
Y4206D02*
D03*
X1146Y4315D02*
D03*
X2850Y4200D02*
D03*
X2750Y3600D02*
D03*
X550Y3450D02*
D03*
X1200Y3300D02*
D03*
X2750Y3095D02*
D03*
X3300Y3775D02*
D03*
X1550Y2100D02*
D03*
X1919Y2275D02*
D03*
X2750Y4150D02*
D03*
X2275Y2925D02*
D03*
X2200Y3000D02*
D03*
X1650Y2950D02*
D03*
X300Y2750D02*
D03*
X1850Y4350D02*
D03*
Y3700D02*
D03*
X1600Y4200D02*
D03*
Y4400D02*
D03*
X1575Y4000D02*
D03*
X1600Y3650D02*
D03*
X1500D02*
D03*
X950Y2700D02*
D03*
X1109Y2570D02*
D03*
X2771Y3511D02*
D03*
X1609Y252D02*
D03*
X1825D02*
D03*
X426Y3750D02*
D03*
X2634Y2950D02*
D03*
X2565Y3210D02*
D03*
X2340Y3210D02*
D03*
X1406Y250D02*
D03*
X2875Y3510D02*
D03*
X2970D02*
D03*
X2725Y4460D02*
D03*
X1200Y3400D02*
D03*
X1595Y4317D02*
D03*
X1600Y4120D02*
D03*
D158*
X808Y4220D02*
D03*
X2940D02*
D03*
D159*
X1458Y3193D02*
D03*
X1185Y850D02*
D03*
X1300Y3468D02*
D03*
D160*
X1558Y3193D02*
D03*
X1085Y850D02*
D03*
X1600Y3468D02*
D03*
X1500D02*
D03*
X1400D02*
D03*
D161*
X1782Y1412D02*
D03*
X1582D02*
D03*
X1382D02*
D03*
D162*
X3191Y3142D02*
D03*
D163*
X3268Y3378D02*
D03*
Y3024D02*
D03*
D164*
X137Y204D02*
D03*
X137Y3511D02*
D03*
D165*
Y2755D02*
D03*
D166*
X3241Y3472D02*
D03*
X426Y375D02*
D03*
Y3472D02*
D03*
D167*
X610Y2117D02*
D03*
X3165D02*
D03*
D168*
X2614Y2630D02*
D03*
Y2430D02*
D03*
X787Y2630D02*
D03*
Y2430D02*
D03*
D169*
X2433Y2835D02*
D03*
X1700Y2835D02*
D03*
X2429Y2227D02*
D03*
X1696Y2227D02*
D03*
X965Y2835D02*
D03*
X961Y2227D02*
D03*
D170*
X2914Y2530D02*
D03*
X487D02*
D03*
D171*
X2986D02*
D03*
X415Y2530D02*
D03*
D172*
X760Y529D02*
D03*
D173*
X2052Y4068D02*
D03*
M02*
