%FSLAX23Y23*%
%MOIN*%
G70*
G01*
G75*
G04 Layer_Color=2752767*
%ADD10C,0.008*%
%ADD11R,0.043X0.045*%
%ADD12R,0.045X0.043*%
%ADD13R,0.020X0.020*%
%ADD14R,0.060X0.124*%
%ADD15R,0.055X0.138*%
%ADD16R,0.069X0.043*%
%ADD17R,0.020X0.049*%
%ADD18R,0.059X0.057*%
%ADD19R,0.014X0.035*%
%ADD20R,0.051X0.108*%
%ADD21R,0.040X0.040*%
%ADD22R,0.050X0.040*%
%ADD23O,0.024X0.073*%
%ADD24R,0.124X0.060*%
%ADD25R,0.057X0.016*%
%ADD26R,0.066X0.124*%
%ADD27R,0.071X0.071*%
%ADD28O,0.010X0.031*%
%ADD29O,0.031X0.010*%
%ADD30R,0.028X0.035*%
%ADD31O,0.028X0.010*%
%ADD32R,0.024X0.024*%
%ADD33R,0.059X0.169*%
%ADD34R,0.043X0.069*%
%ADD35R,0.055X0.035*%
%ADD36R,0.055X0.087*%
%ADD37R,0.016X0.024*%
%ADD38R,0.033X0.051*%
%ADD39R,0.057X0.059*%
G04:AMPARAMS|DCode=40|XSize=65mil|YSize=220mil|CornerRadius=16mil|HoleSize=0mil|Usage=FLASHONLY|Rotation=180.000|XOffset=0mil|YOffset=0mil|HoleType=Round|Shape=RoundedRectangle|*
%AMROUNDEDRECTD40*
21,1,0.065,0.188,0,0,180.0*
21,1,0.033,0.220,0,0,180.0*
1,1,0.033,-0.016,0.094*
1,1,0.033,0.016,0.094*
1,1,0.033,0.016,-0.094*
1,1,0.033,-0.016,-0.094*
%
%ADD40ROUNDEDRECTD40*%
G04:AMPARAMS|DCode=41|XSize=65mil|YSize=200mil|CornerRadius=16mil|HoleSize=0mil|Usage=FLASHONLY|Rotation=180.000|XOffset=0mil|YOffset=0mil|HoleType=Round|Shape=RoundedRectangle|*
%AMROUNDEDRECTD41*
21,1,0.065,0.168,0,0,180.0*
21,1,0.033,0.200,0,0,180.0*
1,1,0.033,-0.016,0.084*
1,1,0.033,0.016,0.084*
1,1,0.033,0.016,-0.084*
1,1,0.033,-0.016,-0.084*
%
%ADD41ROUNDEDRECTD41*%
%ADD42R,0.014X0.067*%
%ADD43R,0.051X0.033*%
%ADD44R,0.037X0.039*%
%ADD45R,0.024X0.045*%
%ADD46C,0.012*%
%ADD47C,0.010*%
%ADD48C,0.025*%
%ADD49C,0.015*%
%ADD50C,0.020*%
%ADD51C,0.050*%
%ADD52C,0.030*%
%ADD53C,0.040*%
%ADD54R,0.050X0.050*%
%ADD55C,0.050*%
%ADD56O,0.075X0.150*%
%ADD57R,0.059X0.059*%
%ADD58C,0.059*%
%ADD59C,0.090*%
%ADD60C,0.060*%
%ADD61R,0.060X0.060*%
%ADD62C,0.052*%
G04:AMPARAMS|DCode=63|XSize=354mil|YSize=79mil|CornerRadius=20mil|HoleSize=0mil|Usage=FLASHONLY|Rotation=270.000|XOffset=0mil|YOffset=0mil|HoleType=Round|Shape=RoundedRectangle|*
%AMROUNDEDRECTD63*
21,1,0.354,0.039,0,0,270.0*
21,1,0.315,0.079,0,0,270.0*
1,1,0.039,-0.020,-0.157*
1,1,0.039,-0.020,0.157*
1,1,0.039,0.020,0.157*
1,1,0.039,0.020,-0.157*
%
%ADD63ROUNDEDRECTD63*%
G04:AMPARAMS|DCode=64|XSize=394mil|YSize=79mil|CornerRadius=20mil|HoleSize=0mil|Usage=FLASHONLY|Rotation=270.000|XOffset=0mil|YOffset=0mil|HoleType=Round|Shape=RoundedRectangle|*
%AMROUNDEDRECTD64*
21,1,0.394,0.039,0,0,270.0*
21,1,0.354,0.079,0,0,270.0*
1,1,0.039,-0.020,-0.177*
1,1,0.039,-0.020,0.177*
1,1,0.039,0.020,0.177*
1,1,0.039,0.020,-0.177*
%
%ADD64ROUNDEDRECTD64*%
%ADD65O,0.276X0.079*%
%ADD66C,0.125*%
%ADD67O,0.173X0.059*%
%ADD68O,0.070X0.125*%
%ADD69R,0.079X0.335*%
%ADD70C,0.157*%
%ADD71C,0.030*%
%ADD72C,0.028*%
%ADD73C,0.040*%
%ADD74C,0.024*%
%ADD75C,0.080*%
%ADD76C,0.100*%
%ADD77C,0.060*%
G04:AMPARAMS|DCode=78|XSize=90mil|YSize=90mil|CornerRadius=0mil|HoleSize=0mil|Usage=FLASHONLY|Rotation=0.000|XOffset=0mil|YOffset=0mil|HoleType=Round|Shape=Relief|Width=20mil|Gap=10mil|Entries=4|*
%AMTHD78*
7,0,0,0.090,0.070,0.020,45*
%
%ADD78THD78*%
%ADD79C,0.070*%
%ADD80O,0.115X0.190*%
G04:AMPARAMS|DCode=81|XSize=95.433mil|YSize=95.433mil|CornerRadius=0mil|HoleSize=0mil|Usage=FLASHONLY|Rotation=0.000|XOffset=0mil|YOffset=0mil|HoleType=Round|Shape=Relief|Width=20mil|Gap=10mil|Entries=4|*
%AMTHD81*
7,0,0,0.095,0.075,0.020,45*
%
%ADD81THD81*%
%ADD82C,0.075*%
G04:AMPARAMS|DCode=83|XSize=117mil|YSize=117mil|CornerRadius=0mil|HoleSize=0mil|Usage=FLASHONLY|Rotation=0.000|XOffset=0mil|YOffset=0mil|HoleType=Round|Shape=Relief|Width=20mil|Gap=10mil|Entries=4|*
%AMTHD83*
7,0,0,0.117,0.097,0.020,45*
%
%ADD83THD83*%
%ADD84C,0.097*%
G04:AMPARAMS|DCode=85|XSize=102.126mil|YSize=102.126mil|CornerRadius=0mil|HoleSize=0mil|Usage=FLASHONLY|Rotation=0.000|XOffset=0mil|YOffset=0mil|HoleType=Round|Shape=Relief|Width=20mil|Gap=10mil|Entries=4|*
%AMTHD85*
7,0,0,0.102,0.082,0.020,45*
%
%ADD85THD85*%
%ADD86C,0.082*%
%ADD87C,0.092*%
%AMTHOVALD88*
21,1,0.267,0.088,0,0,270.0*
1,1,0.088,0.000,0.134*
1,1,0.088,0.000,-0.134*
21,0,0.267,0.068,0,0,270.0*
1,0,0.068,0.000,0.134*
1,0,0.068,0.000,-0.134*
4,0,4,-0.007,0.127,-0.038,0.158,-0.024,0.172,0.007,0.141,-0.007,0.127,0.0*
4,0,4,-0.007,-0.141,0.024,-0.172,0.038,-0.158,0.007,-0.127,-0.007,-0.141,0.0*
4,0,4,-0.007,0.141,0.024,0.172,0.038,0.158,0.007,0.127,-0.007,0.141,0.0*
4,0,4,-0.007,-0.127,-0.038,-0.158,-0.024,-0.172,0.007,-0.141,-0.007,-0.127,0.0*
%
%ADD88THOVALD88*%

%ADD89O,0.068X0.335*%
%ADD90O,0.316X0.119*%
G04:AMPARAMS|DCode=91|XSize=88mil|YSize=88mil|CornerRadius=0mil|HoleSize=0mil|Usage=FLASHONLY|Rotation=0.000|XOffset=0mil|YOffset=0mil|HoleType=Round|Shape=Relief|Width=20mil|Gap=10mil|Entries=4|*
%AMTHD91*
7,0,0,0.088,0.068,0.020,45*
%
%ADD91THD91*%
%ADD92C,0.112*%
%ADD93O,0.215X0.110*%
%ADD94O,0.068X0.112*%
%ADD95O,0.068X0.365*%
G04:AMPARAMS|DCode=96|XSize=132mil|YSize=132mil|CornerRadius=0mil|HoleSize=0mil|Usage=FLASHONLY|Rotation=0.000|XOffset=0mil|YOffset=0mil|HoleType=Round|Shape=Relief|Width=20mil|Gap=10mil|Entries=4|*
%AMTHD96*
7,0,0,0.132,0.112,0.020,45*
%
%ADD96THD96*%
%AMTHOVALD97*
21,1,0.044,0.088,0,0,270.0*
1,1,0.088,0.000,0.022*
1,1,0.088,0.000,-0.022*
21,0,0.044,0.068,0,0,270.0*
1,0,0.068,0.000,0.022*
1,0,0.068,0.000,-0.022*
4,0,4,-0.007,0.015,-0.038,0.046,-0.024,0.060,0.007,0.029,-0.007,0.015,0.0*
4,0,4,-0.007,-0.029,0.024,-0.060,0.038,-0.046,0.007,-0.015,-0.007,-0.029,0.0*
4,0,4,-0.007,0.029,0.024,0.060,0.038,0.046,0.007,0.015,-0.007,0.029,0.0*
4,0,4,-0.007,-0.015,-0.038,-0.046,-0.024,-0.060,0.007,-0.029,-0.007,-0.015,0.0*
%
%ADD97THOVALD97*%

%AMTHOVALD98*
21,1,0.297,0.088,0,0,270.0*
1,1,0.088,0.000,0.148*
1,1,0.088,0.000,-0.148*
21,0,0.297,0.068,0,0,270.0*
1,0,0.068,0.000,0.148*
1,0,0.068,0.000,-0.148*
4,0,4,-0.007,0.141,-0.038,0.172,-0.024,0.187,0.007,0.155,-0.007,0.141,0.0*
4,0,4,-0.007,-0.155,0.024,-0.187,0.038,-0.172,0.007,-0.141,-0.007,-0.155,0.0*
4,0,4,-0.007,0.155,0.024,0.187,0.038,0.172,0.007,0.141,-0.007,0.155,0.0*
4,0,4,-0.007,-0.141,-0.038,-0.172,-0.024,-0.187,0.007,-0.155,-0.007,-0.141,0.0*
%
%ADD98THOVALD98*%

G04:AMPARAMS|DCode=99|XSize=210mil|YSize=210mil|CornerRadius=0mil|HoleSize=0mil|Usage=FLASHONLY|Rotation=0.000|XOffset=0mil|YOffset=0mil|HoleType=Round|Shape=Relief|Width=20mil|Gap=10mil|Entries=4|*
%AMTHD99*
7,0,0,0.210,0.190,0.020,45*
%
%ADD99THD99*%
%ADD100C,0.052*%
G04:AMPARAMS|DCode=101|XSize=72mil|YSize=72mil|CornerRadius=0mil|HoleSize=0mil|Usage=FLASHONLY|Rotation=0.000|XOffset=0mil|YOffset=0mil|HoleType=Round|Shape=Relief|Width=20mil|Gap=10mil|Entries=4|*
%AMTHD101*
7,0,0,0.072,0.052,0.020,45*
%
%ADD101THD101*%
%ADD102C,0.051*%
G04:AMPARAMS|DCode=103|XSize=71mil|YSize=71mil|CornerRadius=0mil|HoleSize=0mil|Usage=FLASHONLY|Rotation=0.000|XOffset=0mil|YOffset=0mil|HoleType=Round|Shape=Relief|Width=20mil|Gap=10mil|Entries=4|*
%AMTHD103*
7,0,0,0.071,0.051,0.020,45*
%
%ADD103THD103*%
%ADD104C,0.068*%
G04:AMPARAMS|DCode=105|XSize=80mil|YSize=80mil|CornerRadius=0mil|HoleSize=0mil|Usage=FLASHONLY|Rotation=0.000|XOffset=0mil|YOffset=0mil|HoleType=Round|Shape=Relief|Width=20mil|Gap=10mil|Entries=4|*
%AMTHD105*
7,0,0,0.080,0.060,0.020,45*
%
%ADD105THD105*%
G04:AMPARAMS|DCode=106|XSize=84mil|YSize=84mil|CornerRadius=0mil|HoleSize=0mil|Usage=FLASHONLY|Rotation=0.000|XOffset=0mil|YOffset=0mil|HoleType=Round|Shape=Relief|Width=20mil|Gap=10mil|Entries=4|*
%AMTHD106*
7,0,0,0.084,0.064,0.020,45*
%
%ADD106THD106*%
%AMTHOVALD107*
21,1,0.044,0.088,0,0,450.0*
1,1,0.088,0.000,-0.022*
1,1,0.088,0.000,0.022*
21,0,0.044,0.068,0,0,450.0*
1,0,0.068,0.000,-0.022*
1,0,0.068,0.000,0.022*
4,0,4,0.007,-0.015,0.038,-0.046,0.024,-0.060,-0.007,-0.029,0.007,-0.015,0.0*
4,0,4,0.007,0.029,-0.024,0.060,-0.038,0.046,-0.007,0.015,0.007,0.029,0.0*
4,0,4,0.007,-0.029,-0.024,-0.060,-0.038,-0.046,-0.007,-0.015,0.007,-0.029,0.0*
4,0,4,0.007,0.015,0.038,0.046,0.024,0.060,-0.007,0.029,0.007,0.015,0.0*
%
%ADD107THOVALD107*%

%ADD108C,0.190*%
%ADD109C,0.064*%
%ADD110R,0.092X0.051*%
%ADD111R,0.024X0.016*%
%ADD112R,0.035X0.014*%
%ADD113C,0.010*%
%ADD114C,0.024*%
%ADD115C,0.005*%
%ADD116C,0.004*%
%ADD117C,0.007*%
%ADD118C,0.008*%
%ADD119C,0.004*%
%ADD120C,0.001*%
%ADD121C,0.002*%
%ADD122R,0.051X0.053*%
%ADD123R,0.053X0.051*%
%ADD124R,0.068X0.132*%
%ADD125R,0.063X0.146*%
%ADD126R,0.077X0.051*%
%ADD127R,0.028X0.057*%
%ADD128R,0.067X0.065*%
%ADD129R,0.022X0.043*%
%ADD130R,0.059X0.116*%
%ADD131R,0.048X0.048*%
%ADD132R,0.058X0.048*%
%ADD133O,0.032X0.081*%
%ADD134R,0.132X0.068*%
%ADD135R,0.065X0.024*%
%ADD136R,0.074X0.132*%
%ADD137R,0.079X0.079*%
%ADD138O,0.018X0.039*%
%ADD139O,0.039X0.018*%
%ADD140R,0.036X0.043*%
%ADD141O,0.036X0.018*%
%ADD142R,0.032X0.032*%
%ADD143R,0.067X0.177*%
%ADD144R,0.051X0.077*%
%ADD145R,0.063X0.043*%
%ADD146R,0.063X0.095*%
%ADD147R,0.024X0.032*%
%ADD148R,0.041X0.059*%
%ADD149R,0.065X0.067*%
G04:AMPARAMS|DCode=150|XSize=73mil|YSize=228mil|CornerRadius=20mil|HoleSize=0mil|Usage=FLASHONLY|Rotation=180.000|XOffset=0mil|YOffset=0mil|HoleType=Round|Shape=RoundedRectangle|*
%AMROUNDEDRECTD150*
21,1,0.073,0.188,0,0,180.0*
21,1,0.033,0.228,0,0,180.0*
1,1,0.041,-0.016,0.094*
1,1,0.041,0.016,0.094*
1,1,0.041,0.016,-0.094*
1,1,0.041,-0.016,-0.094*
%
%ADD150ROUNDEDRECTD150*%
G04:AMPARAMS|DCode=151|XSize=73mil|YSize=208mil|CornerRadius=20mil|HoleSize=0mil|Usage=FLASHONLY|Rotation=180.000|XOffset=0mil|YOffset=0mil|HoleType=Round|Shape=RoundedRectangle|*
%AMROUNDEDRECTD151*
21,1,0.073,0.168,0,0,180.0*
21,1,0.033,0.208,0,0,180.0*
1,1,0.041,-0.016,0.084*
1,1,0.041,0.016,0.084*
1,1,0.041,0.016,-0.084*
1,1,0.041,-0.016,-0.084*
%
%ADD151ROUNDEDRECTD151*%
%ADD152R,0.022X0.075*%
%ADD153R,0.059X0.041*%
%ADD154R,0.045X0.047*%
%ADD155R,0.032X0.053*%
%ADD156R,0.058X0.058*%
%ADD157C,0.058*%
%ADD158O,0.083X0.158*%
%ADD159R,0.067X0.067*%
%ADD160C,0.067*%
%ADD161C,0.098*%
%ADD162R,0.068X0.068*%
%ADD163C,0.060*%
G04:AMPARAMS|DCode=164|XSize=362mil|YSize=87mil|CornerRadius=24mil|HoleSize=0mil|Usage=FLASHONLY|Rotation=270.000|XOffset=0mil|YOffset=0mil|HoleType=Round|Shape=RoundedRectangle|*
%AMROUNDEDRECTD164*
21,1,0.362,0.039,0,0,270.0*
21,1,0.315,0.087,0,0,270.0*
1,1,0.047,-0.020,-0.157*
1,1,0.047,-0.020,0.157*
1,1,0.047,0.020,0.157*
1,1,0.047,0.020,-0.157*
%
%ADD164ROUNDEDRECTD164*%
G04:AMPARAMS|DCode=165|XSize=402mil|YSize=87mil|CornerRadius=24mil|HoleSize=0mil|Usage=FLASHONLY|Rotation=270.000|XOffset=0mil|YOffset=0mil|HoleType=Round|Shape=RoundedRectangle|*
%AMROUNDEDRECTD165*
21,1,0.402,0.039,0,0,270.0*
21,1,0.354,0.087,0,0,270.0*
1,1,0.047,-0.020,-0.177*
1,1,0.047,-0.020,0.177*
1,1,0.047,0.020,0.177*
1,1,0.047,0.020,-0.177*
%
%ADD165ROUNDEDRECTD165*%
%ADD166C,0.103*%
%ADD167O,0.284X0.087*%
%ADD168C,0.133*%
%ADD169O,0.181X0.067*%
%ADD170O,0.078X0.133*%
%ADD171R,0.087X0.343*%
%ADD172C,0.165*%
%ADD173C,0.036*%
%ADD174R,0.100X0.059*%
%ADD175R,0.032X0.024*%
%ADD176R,0.043X0.022*%
%ADD177C,0.006*%
%ADD178C,0.004*%
%ADD179C,0.007*%
%ADD180C,0.016*%
%ADD181C,0.005*%
%ADD182C,0.014*%
D10*
X12288Y1030D02*
G03*
X12288Y1030I-24J0D01*
G01*
Y310D02*
G03*
X12288Y310I-24J0D01*
G01*
D47*
X12264Y2200D02*
Y2240D01*
X12284Y2260D01*
X12304Y2240D01*
Y2200D01*
Y2230D01*
X12264D01*
X12744Y2250D02*
X12754Y2260D01*
X12774D01*
X12784Y2250D01*
Y2240D01*
X12774Y2230D01*
X12764D01*
X12774D01*
X12784Y2220D01*
Y2210D01*
X12774Y2200D01*
X12754D01*
X12744Y2210D01*
X12804Y2250D02*
X12814Y2260D01*
X12834D01*
X12844Y2250D01*
Y2210D01*
X12834Y2200D01*
X12814D01*
X12804Y2210D01*
Y2250D01*
X13440Y2200D02*
X13460D01*
X13450D01*
Y2260D01*
X13440Y2250D01*
X13490Y2200D02*
X13510D01*
X13500D01*
Y2260D01*
X13490Y2250D01*
X13540Y2200D02*
Y2240D01*
X13550D01*
X13560Y2230D01*
Y2200D01*
Y2230D01*
X13570Y2240D01*
X13580Y2230D01*
Y2200D01*
X13600D02*
X13620D01*
X13610D01*
Y2240D01*
X13600D01*
X13650Y2200D02*
X13670D01*
X13660D01*
Y2260D01*
X13650D01*
X13780Y2200D02*
X13760Y2220D01*
Y2240D01*
X13780Y2260D01*
X13810Y2250D02*
X13820Y2260D01*
X13840D01*
X13850Y2250D01*
Y2210D01*
X13840Y2200D01*
X13820D01*
X13810Y2210D01*
Y2250D01*
X13870Y2200D02*
Y2210D01*
X13880D01*
Y2200D01*
X13870D01*
X13960D02*
X13920D01*
X13960Y2240D01*
Y2250D01*
X13950Y2260D01*
X13930D01*
X13920Y2250D01*
X13980Y2260D02*
X14020D01*
Y2250D01*
X13980Y2210D01*
Y2200D01*
X14039Y2210D02*
X14049Y2200D01*
X14069D01*
X14079Y2210D01*
Y2250D01*
X14069Y2260D01*
X14049D01*
X14039Y2250D01*
Y2240D01*
X14049Y2230D01*
X14079D01*
X14129Y2200D02*
Y2260D01*
X14099Y2230D01*
X14139D01*
X14159Y2200D02*
Y2240D01*
X14169D01*
X14179Y2230D01*
Y2200D01*
Y2230D01*
X14189Y2240D01*
X14199Y2230D01*
Y2200D01*
X14219D02*
Y2240D01*
X14229D01*
X14239Y2230D01*
Y2200D01*
Y2230D01*
X14249Y2240D01*
X14259Y2230D01*
Y2200D01*
X14279D02*
X14299Y2220D01*
Y2240D01*
X14279Y2260D01*
X17135Y2200D02*
Y2260D01*
X17165D01*
X17175Y2250D01*
Y2230D01*
X17165Y2220D01*
X17135D01*
X17195Y2260D02*
X17235D01*
X17215D01*
Y2200D01*
X17255Y2260D02*
Y2200D01*
Y2230D01*
X17295D01*
Y2260D01*
Y2200D01*
X17638D02*
Y2260D01*
X17668D01*
X17678Y2250D01*
Y2230D01*
X17668Y2220D01*
X17638D01*
X17658D02*
X17678Y2200D01*
X17708D02*
X17728D01*
X17738Y2210D01*
Y2230D01*
X17728Y2240D01*
X17708D01*
X17698Y2230D01*
Y2210D01*
X17708Y2200D01*
X17758Y2240D02*
Y2210D01*
X17768Y2200D01*
X17798D01*
Y2240D01*
X17818Y2200D02*
Y2240D01*
X17848D01*
X17858Y2230D01*
Y2200D01*
X17918Y2260D02*
Y2200D01*
X17888D01*
X17878Y2210D01*
Y2230D01*
X17888Y2240D01*
X17918D01*
X12744Y2080D02*
X12764D01*
X12754D01*
Y2140D01*
X12744Y2130D01*
X12834Y2080D02*
X12794D01*
X12834Y2120D01*
Y2130D01*
X12824Y2140D01*
X12804D01*
X12794Y2130D01*
X12894Y2140D02*
X12854D01*
Y2110D01*
X12874Y2120D01*
X12884D01*
X12894Y2110D01*
Y2090D01*
X12884Y2080D01*
X12864D01*
X12854Y2090D01*
X13440Y2080D02*
X13460D01*
X13450D01*
Y2140D01*
X13440Y2130D01*
X13530Y2080D02*
X13490D01*
X13530Y2120D01*
Y2130D01*
X13520Y2140D01*
X13500D01*
X13490Y2130D01*
X13550Y2080D02*
Y2120D01*
X13560D01*
X13570Y2110D01*
Y2080D01*
Y2110D01*
X13580Y2120D01*
X13590Y2110D01*
Y2080D01*
X13610D02*
X13630D01*
X13620D01*
Y2120D01*
X13610D01*
X13660Y2080D02*
X13680D01*
X13670D01*
Y2140D01*
X13660D01*
X13790Y2080D02*
X13770Y2100D01*
Y2120D01*
X13790Y2140D01*
X13820Y2130D02*
X13830Y2140D01*
X13850D01*
X13860Y2130D01*
Y2090D01*
X13850Y2080D01*
X13830D01*
X13820Y2090D01*
Y2130D01*
X13880Y2080D02*
Y2090D01*
X13890D01*
Y2080D01*
X13880D01*
X13930Y2130D02*
X13940Y2140D01*
X13960D01*
X13970Y2130D01*
Y2120D01*
X13960Y2110D01*
X13950D01*
X13960D01*
X13970Y2100D01*
Y2090D01*
X13960Y2080D01*
X13940D01*
X13930Y2090D01*
X13990Y2130D02*
X14000Y2140D01*
X14020D01*
X14029Y2130D01*
Y2090D01*
X14020Y2080D01*
X14000D01*
X13990Y2090D01*
Y2130D01*
X14079Y2080D02*
Y2140D01*
X14049Y2110D01*
X14089D01*
X14109Y2130D02*
X14119Y2140D01*
X14139D01*
X14149Y2130D01*
Y2120D01*
X14139Y2110D01*
X14149Y2100D01*
Y2090D01*
X14139Y2080D01*
X14119D01*
X14109Y2090D01*
Y2100D01*
X14119Y2110D01*
X14109Y2120D01*
Y2130D01*
X14119Y2110D02*
X14139D01*
X14169Y2080D02*
Y2120D01*
X14179D01*
X14189Y2110D01*
Y2080D01*
Y2110D01*
X14199Y2120D01*
X14209Y2110D01*
Y2080D01*
X14229D02*
Y2120D01*
X14239D01*
X14249Y2110D01*
Y2080D01*
Y2110D01*
X14259Y2120D01*
X14269Y2110D01*
Y2080D01*
X14289D02*
X14309Y2100D01*
Y2120D01*
X14289Y2140D01*
X17135Y2080D02*
Y2140D01*
X17165D01*
X17175Y2130D01*
Y2110D01*
X17165Y2100D01*
X17135D01*
X17195Y2140D02*
X17235D01*
X17215D01*
Y2080D01*
X17255Y2140D02*
Y2080D01*
Y2110D01*
X17295D01*
Y2140D01*
Y2080D01*
X17638D02*
Y2140D01*
X17668D01*
X17678Y2130D01*
Y2110D01*
X17668Y2100D01*
X17638D01*
X17658D02*
X17678Y2080D01*
X17708D02*
X17728D01*
X17738Y2090D01*
Y2110D01*
X17728Y2120D01*
X17708D01*
X17698Y2110D01*
Y2090D01*
X17708Y2080D01*
X17758Y2120D02*
Y2090D01*
X17768Y2080D01*
X17798D01*
Y2120D01*
X17818Y2080D02*
Y2120D01*
X17848D01*
X17858Y2110D01*
Y2080D01*
X17918Y2140D02*
Y2080D01*
X17888D01*
X17878Y2090D01*
Y2110D01*
X17888Y2120D01*
X17918D01*
X12264Y2020D02*
Y1960D01*
X12294D01*
X12304Y1970D01*
Y1980D01*
X12294Y1990D01*
X12264D01*
X12294D01*
X12304Y2000D01*
Y2010D01*
X12294Y2020D01*
X12264D01*
X12744Y1960D02*
X12764D01*
X12754D01*
Y2020D01*
X12744Y2010D01*
X12794D02*
X12804Y2020D01*
X12824D01*
X12834Y2010D01*
Y1970D01*
X12824Y1960D01*
X12804D01*
X12794Y1970D01*
Y2010D01*
X13480Y1960D02*
X13440D01*
X13480Y2000D01*
Y2010D01*
X13470Y2020D01*
X13450D01*
X13440Y2010D01*
X13500D02*
X13510Y2020D01*
X13530D01*
X13540Y2010D01*
Y1970D01*
X13530Y1960D01*
X13510D01*
X13500Y1970D01*
Y2010D01*
X13560Y1960D02*
Y2000D01*
X13570D01*
X13580Y1990D01*
Y1960D01*
Y1990D01*
X13590Y2000D01*
X13600Y1990D01*
Y1960D01*
X13620D02*
X13640D01*
X13630D01*
Y2000D01*
X13620D01*
X13670Y1960D02*
X13690D01*
X13680D01*
Y2020D01*
X13670D01*
X13800Y1960D02*
X13780Y1980D01*
Y2000D01*
X13800Y2020D01*
X13830Y2010D02*
X13840Y2020D01*
X13860D01*
X13870Y2010D01*
Y1970D01*
X13860Y1960D01*
X13840D01*
X13830Y1970D01*
Y2010D01*
X13890Y1960D02*
Y1970D01*
X13900D01*
Y1960D01*
X13890D01*
X13980Y2020D02*
X13940D01*
Y1990D01*
X13960Y2000D01*
X13970D01*
X13980Y1990D01*
Y1970D01*
X13970Y1960D01*
X13950D01*
X13940Y1970D01*
X14000Y2010D02*
X14010Y2020D01*
X14029D01*
X14039Y2010D01*
Y1970D01*
X14029Y1960D01*
X14010D01*
X14000Y1970D01*
Y2010D01*
X14059D02*
X14069Y2020D01*
X14089D01*
X14099Y2010D01*
Y2000D01*
X14089Y1990D01*
X14099Y1980D01*
Y1970D01*
X14089Y1960D01*
X14069D01*
X14059Y1970D01*
Y1980D01*
X14069Y1990D01*
X14059Y2000D01*
Y2010D01*
X14069Y1990D02*
X14089D01*
X14119Y1960D02*
Y2000D01*
X14129D01*
X14139Y1990D01*
Y1960D01*
Y1990D01*
X14149Y2000D01*
X14159Y1990D01*
Y1960D01*
X14179D02*
Y2000D01*
X14189D01*
X14199Y1990D01*
Y1960D01*
Y1990D01*
X14209Y2000D01*
X14219Y1990D01*
Y1960D01*
X14239D02*
X14259Y1980D01*
Y2000D01*
X14239Y2020D01*
X17135Y1960D02*
Y2020D01*
X17165D01*
X17175Y2010D01*
Y1990D01*
X17165Y1980D01*
X17135D01*
X17195Y2020D02*
X17235D01*
X17215D01*
Y1960D01*
X17255Y2020D02*
Y1960D01*
Y1990D01*
X17295D01*
Y2020D01*
Y1960D01*
X17638D02*
Y2020D01*
X17668D01*
X17678Y2010D01*
Y1990D01*
X17668Y1980D01*
X17638D01*
X17658D02*
X17678Y1960D01*
X17708D02*
X17728D01*
X17738Y1970D01*
Y1990D01*
X17728Y2000D01*
X17708D01*
X17698Y1990D01*
Y1970D01*
X17708Y1960D01*
X17758Y2000D02*
Y1970D01*
X17768Y1960D01*
X17798D01*
Y2000D01*
X17818Y1960D02*
Y2000D01*
X17848D01*
X17858Y1990D01*
Y1960D01*
X17918Y2020D02*
Y1960D01*
X17888D01*
X17878Y1970D01*
Y1990D01*
X17888Y2000D01*
X17918D01*
X12304Y1890D02*
X12294Y1900D01*
X12274D01*
X12264Y1890D01*
Y1850D01*
X12274Y1840D01*
X12294D01*
X12304Y1850D01*
X12744Y1840D02*
X12764D01*
X12754D01*
Y1900D01*
X12744Y1890D01*
X13480Y1840D02*
X13440D01*
X13480Y1880D01*
Y1890D01*
X13470Y1900D01*
X13450D01*
X13440Y1890D01*
X13530Y1840D02*
Y1900D01*
X13500Y1870D01*
X13540D01*
X13560Y1840D02*
Y1880D01*
X13570D01*
X13580Y1870D01*
Y1840D01*
Y1870D01*
X13590Y1880D01*
X13600Y1870D01*
Y1840D01*
X13620D02*
X13640D01*
X13630D01*
Y1880D01*
X13620D01*
X13670Y1840D02*
X13690D01*
X13680D01*
Y1900D01*
X13670D01*
X13800Y1840D02*
X13780Y1860D01*
Y1880D01*
X13800Y1900D01*
X13830Y1890D02*
X13840Y1900D01*
X13860D01*
X13870Y1890D01*
Y1850D01*
X13860Y1840D01*
X13840D01*
X13830Y1850D01*
Y1890D01*
X13890Y1840D02*
Y1850D01*
X13900D01*
Y1840D01*
X13890D01*
X13980Y1900D02*
X13960Y1890D01*
X13940Y1870D01*
Y1850D01*
X13950Y1840D01*
X13970D01*
X13980Y1850D01*
Y1860D01*
X13970Y1870D01*
X13940D01*
X14000Y1890D02*
X14010Y1900D01*
X14029D01*
X14039Y1890D01*
Y1850D01*
X14029Y1840D01*
X14010D01*
X14000Y1850D01*
Y1890D01*
X14059Y1850D02*
X14069Y1840D01*
X14089D01*
X14099Y1850D01*
Y1890D01*
X14089Y1900D01*
X14069D01*
X14059Y1890D01*
Y1880D01*
X14069Y1870D01*
X14099D01*
X14159Y1900D02*
X14139Y1890D01*
X14119Y1870D01*
Y1850D01*
X14129Y1840D01*
X14149D01*
X14159Y1850D01*
Y1860D01*
X14149Y1870D01*
X14119D01*
X14179Y1840D02*
Y1880D01*
X14189D01*
X14199Y1870D01*
Y1840D01*
Y1870D01*
X14209Y1880D01*
X14219Y1870D01*
Y1840D01*
X14239D02*
Y1880D01*
X14249D01*
X14259Y1870D01*
Y1840D01*
Y1870D01*
X14269Y1880D01*
X14279Y1870D01*
Y1840D01*
X14299D02*
X14319Y1860D01*
Y1880D01*
X14299Y1900D01*
X17135Y1840D02*
Y1900D01*
X17165D01*
X17175Y1890D01*
Y1870D01*
X17165Y1860D01*
X17135D01*
X17195Y1900D02*
X17235D01*
X17215D01*
Y1840D01*
X17255Y1900D02*
Y1840D01*
Y1870D01*
X17295D01*
Y1900D01*
Y1840D01*
X17638D02*
Y1900D01*
X17668D01*
X17678Y1890D01*
Y1870D01*
X17668Y1860D01*
X17638D01*
X17658D02*
X17678Y1840D01*
X17708D02*
X17728D01*
X17738Y1850D01*
Y1870D01*
X17728Y1880D01*
X17708D01*
X17698Y1870D01*
Y1850D01*
X17708Y1840D01*
X17758Y1880D02*
Y1850D01*
X17768Y1840D01*
X17798D01*
Y1880D01*
X17818Y1840D02*
Y1880D01*
X17848D01*
X17858Y1870D01*
Y1840D01*
X17918Y1900D02*
Y1840D01*
X17888D01*
X17878Y1850D01*
Y1870D01*
X17888Y1880D01*
X17918D01*
X12744Y1720D02*
X12764D01*
X12754D01*
Y1780D01*
X12744Y1770D01*
X12794Y1720D02*
X12814D01*
X12804D01*
Y1780D01*
X12794Y1770D01*
X13480Y1720D02*
X13440D01*
X13480Y1760D01*
Y1770D01*
X13470Y1780D01*
X13450D01*
X13440Y1770D01*
X13500D02*
X13510Y1780D01*
X13530D01*
X13540Y1770D01*
Y1760D01*
X13530Y1750D01*
X13540Y1740D01*
Y1730D01*
X13530Y1720D01*
X13510D01*
X13500Y1730D01*
Y1740D01*
X13510Y1750D01*
X13500Y1760D01*
Y1770D01*
X13510Y1750D02*
X13530D01*
X13560Y1720D02*
Y1760D01*
X13570D01*
X13580Y1750D01*
Y1720D01*
Y1750D01*
X13590Y1760D01*
X13600Y1750D01*
Y1720D01*
X13620D02*
X13640D01*
X13630D01*
Y1760D01*
X13620D01*
X13670Y1720D02*
X13690D01*
X13680D01*
Y1780D01*
X13670D01*
X13800Y1720D02*
X13780Y1740D01*
Y1760D01*
X13800Y1780D01*
X13830Y1770D02*
X13840Y1780D01*
X13860D01*
X13870Y1770D01*
Y1730D01*
X13860Y1720D01*
X13840D01*
X13830Y1730D01*
Y1770D01*
X13890Y1720D02*
Y1730D01*
X13900D01*
Y1720D01*
X13890D01*
X13940Y1780D02*
X13980D01*
Y1770D01*
X13940Y1730D01*
Y1720D01*
X14000D02*
X14020D01*
X14010D01*
Y1780D01*
X14000Y1770D01*
X14049Y1720D02*
X14069D01*
X14059D01*
Y1780D01*
X14049Y1770D01*
X14139Y1720D02*
X14099D01*
X14139Y1760D01*
Y1770D01*
X14129Y1780D01*
X14109D01*
X14099Y1770D01*
X14159Y1720D02*
Y1760D01*
X14169D01*
X14179Y1750D01*
Y1720D01*
Y1750D01*
X14189Y1760D01*
X14199Y1750D01*
Y1720D01*
X14219D02*
Y1760D01*
X14229D01*
X14239Y1750D01*
Y1720D01*
Y1750D01*
X14249Y1760D01*
X14259Y1750D01*
Y1720D01*
X14279D02*
X14299Y1740D01*
Y1760D01*
X14279Y1780D01*
X17135Y1720D02*
Y1780D01*
X17165D01*
X17175Y1770D01*
Y1750D01*
X17165Y1740D01*
X17135D01*
X17195Y1780D02*
X17235D01*
X17215D01*
Y1720D01*
X17255Y1780D02*
Y1720D01*
Y1750D01*
X17295D01*
Y1780D01*
Y1720D01*
X17638D02*
Y1780D01*
X17668D01*
X17678Y1770D01*
Y1750D01*
X17668Y1740D01*
X17638D01*
X17658D02*
X17678Y1720D01*
X17708D02*
X17728D01*
X17738Y1730D01*
Y1750D01*
X17728Y1760D01*
X17708D01*
X17698Y1750D01*
Y1730D01*
X17708Y1720D01*
X17758Y1760D02*
Y1730D01*
X17768Y1720D01*
X17798D01*
Y1760D01*
X17818Y1720D02*
Y1760D01*
X17848D01*
X17858Y1750D01*
Y1720D01*
X17918Y1780D02*
Y1720D01*
X17888D01*
X17878Y1730D01*
Y1750D01*
X17888Y1760D01*
X17918D01*
X12784Y1660D02*
X12744D01*
Y1630D01*
X12764Y1640D01*
X12774D01*
X12784Y1630D01*
Y1610D01*
X12774Y1600D01*
X12754D01*
X12744Y1610D01*
X12844Y1660D02*
X12804D01*
Y1630D01*
X12824Y1640D01*
X12834D01*
X12844Y1630D01*
Y1610D01*
X12834Y1600D01*
X12814D01*
X12804Y1610D01*
X13440Y1650D02*
X13450Y1660D01*
X13470D01*
X13480Y1650D01*
Y1640D01*
X13470Y1630D01*
X13460D01*
X13470D01*
X13480Y1620D01*
Y1610D01*
X13470Y1600D01*
X13450D01*
X13440Y1610D01*
X13500Y1650D02*
X13510Y1660D01*
X13530D01*
X13540Y1650D01*
Y1610D01*
X13530Y1600D01*
X13510D01*
X13500Y1610D01*
Y1650D01*
X13560Y1600D02*
Y1640D01*
X13570D01*
X13580Y1630D01*
Y1600D01*
Y1630D01*
X13590Y1640D01*
X13600Y1630D01*
Y1600D01*
X13620D02*
X13640D01*
X13630D01*
Y1640D01*
X13620D01*
X13670Y1600D02*
X13690D01*
X13680D01*
Y1660D01*
X13670D01*
X13800Y1600D02*
X13780Y1620D01*
Y1640D01*
X13800Y1660D01*
X13830Y1650D02*
X13840Y1660D01*
X13860D01*
X13870Y1650D01*
Y1610D01*
X13860Y1600D01*
X13840D01*
X13830Y1610D01*
Y1650D01*
X13890Y1600D02*
Y1610D01*
X13900D01*
Y1600D01*
X13890D01*
X13940Y1660D02*
X13980D01*
Y1650D01*
X13940Y1610D01*
Y1600D01*
X14039Y1660D02*
X14020Y1650D01*
X14000Y1630D01*
Y1610D01*
X14010Y1600D01*
X14029D01*
X14039Y1610D01*
Y1620D01*
X14029Y1630D01*
X14000D01*
X14099Y1600D02*
X14059D01*
X14099Y1640D01*
Y1650D01*
X14089Y1660D01*
X14069D01*
X14059Y1650D01*
X14119Y1600D02*
Y1640D01*
X14129D01*
X14139Y1630D01*
Y1600D01*
Y1630D01*
X14149Y1640D01*
X14159Y1630D01*
Y1600D01*
X14179D02*
Y1640D01*
X14189D01*
X14199Y1630D01*
Y1600D01*
Y1630D01*
X14209Y1640D01*
X14219Y1630D01*
Y1600D01*
X14239D02*
X14259Y1620D01*
Y1640D01*
X14239Y1660D01*
X17135Y1600D02*
Y1660D01*
X17165D01*
X17175Y1650D01*
Y1630D01*
X17165Y1620D01*
X17135D01*
X17195Y1660D02*
X17235D01*
X17215D01*
Y1600D01*
X17255Y1660D02*
Y1600D01*
Y1630D01*
X17295D01*
Y1660D01*
Y1600D01*
X17638D02*
Y1660D01*
X17668D01*
X17678Y1650D01*
Y1630D01*
X17668Y1620D01*
X17638D01*
X17658D02*
X17678Y1600D01*
X17708D02*
X17728D01*
X17738Y1610D01*
Y1630D01*
X17728Y1640D01*
X17708D01*
X17698Y1630D01*
Y1610D01*
X17708Y1600D01*
X17758Y1640D02*
Y1610D01*
X17768Y1600D01*
X17798D01*
Y1640D01*
X17818Y1600D02*
Y1640D01*
X17848D01*
X17858Y1630D01*
Y1600D01*
X17918Y1660D02*
Y1600D01*
X17888D01*
X17878Y1610D01*
Y1630D01*
X17888Y1640D01*
X17918D01*
X12744Y1530D02*
X12754Y1540D01*
X12774D01*
X12784Y1530D01*
Y1520D01*
X12774Y1510D01*
X12784Y1500D01*
Y1490D01*
X12774Y1480D01*
X12754D01*
X12744Y1490D01*
Y1500D01*
X12754Y1510D01*
X12744Y1520D01*
Y1530D01*
X12754Y1510D02*
X12774D01*
X13440Y1530D02*
X13450Y1540D01*
X13470D01*
X13480Y1530D01*
Y1520D01*
X13470Y1510D01*
X13460D01*
X13470D01*
X13480Y1500D01*
Y1490D01*
X13470Y1480D01*
X13450D01*
X13440Y1490D01*
X13540Y1540D02*
X13500D01*
Y1510D01*
X13520Y1520D01*
X13530D01*
X13540Y1510D01*
Y1490D01*
X13530Y1480D01*
X13510D01*
X13500Y1490D01*
X13560Y1480D02*
Y1490D01*
X13570D01*
Y1480D01*
X13560D01*
X13640D02*
Y1540D01*
X13610Y1510D01*
X13650D01*
X13670Y1530D02*
X13680Y1540D01*
X13700D01*
X13710Y1530D01*
Y1520D01*
X13700Y1510D01*
X13690D01*
X13700D01*
X13710Y1500D01*
Y1490D01*
X13700Y1480D01*
X13680D01*
X13670Y1490D01*
X13730Y1530D02*
X13740Y1540D01*
X13760D01*
X13770Y1530D01*
Y1520D01*
X13760Y1510D01*
X13750D01*
X13760D01*
X13770Y1500D01*
Y1490D01*
X13760Y1480D01*
X13740D01*
X13730Y1490D01*
X13790Y1480D02*
Y1520D01*
X13800D01*
X13810Y1510D01*
Y1480D01*
Y1510D01*
X13820Y1520D01*
X13830Y1510D01*
Y1480D01*
X13850D02*
X13870D01*
X13860D01*
Y1520D01*
X13850D01*
X13900Y1480D02*
X13920D01*
X13910D01*
Y1540D01*
X13900D01*
X14029Y1480D02*
X14010Y1500D01*
Y1520D01*
X14029Y1540D01*
X14059Y1530D02*
X14069Y1540D01*
X14089D01*
X14099Y1530D01*
Y1490D01*
X14089Y1480D01*
X14069D01*
X14059Y1490D01*
Y1530D01*
X14119Y1480D02*
Y1490D01*
X14129D01*
Y1480D01*
X14119D01*
X14169Y1490D02*
X14179Y1480D01*
X14199D01*
X14209Y1490D01*
Y1530D01*
X14199Y1540D01*
X14179D01*
X14169Y1530D01*
Y1520D01*
X14179Y1510D01*
X14209D01*
X14229Y1480D02*
Y1520D01*
X14239D01*
X14249Y1510D01*
Y1480D01*
Y1510D01*
X14259Y1520D01*
X14269Y1510D01*
Y1480D01*
X14289D02*
Y1520D01*
X14299D01*
X14309Y1510D01*
Y1480D01*
Y1510D01*
X14319Y1520D01*
X14329Y1510D01*
Y1480D01*
X14349D02*
X14369Y1500D01*
Y1520D01*
X14349Y1540D01*
X17135Y1480D02*
Y1540D01*
X17165D01*
X17175Y1530D01*
Y1510D01*
X17165Y1500D01*
X17135D01*
X17195Y1540D02*
X17235D01*
X17215D01*
Y1480D01*
X17255Y1540D02*
Y1480D01*
Y1510D01*
X17295D01*
Y1540D01*
Y1480D01*
X17638D02*
Y1540D01*
X17668D01*
X17678Y1530D01*
Y1510D01*
X17668Y1500D01*
X17638D01*
X17658D02*
X17678Y1480D01*
X17708D02*
X17728D01*
X17738Y1490D01*
Y1510D01*
X17728Y1520D01*
X17708D01*
X17698Y1510D01*
Y1490D01*
X17708Y1480D01*
X17758Y1520D02*
Y1490D01*
X17768Y1480D01*
X17798D01*
Y1520D01*
X17818Y1480D02*
Y1520D01*
X17848D01*
X17858Y1510D01*
Y1480D01*
X17918Y1540D02*
Y1480D01*
X17888D01*
X17878Y1490D01*
Y1510D01*
X17888Y1520D01*
X17918D01*
X12784Y1360D02*
X12744D01*
X12784Y1400D01*
Y1410D01*
X12774Y1420D01*
X12754D01*
X12744Y1410D01*
X13470Y1360D02*
Y1420D01*
X13440Y1390D01*
X13480D01*
X13540Y1360D02*
X13500D01*
X13540Y1400D01*
Y1410D01*
X13530Y1420D01*
X13510D01*
X13500Y1410D01*
X13560Y1360D02*
Y1370D01*
X13570D01*
Y1360D01*
X13560D01*
X13610D02*
X13630D01*
X13620D01*
Y1420D01*
X13610Y1410D01*
X13700Y1360D02*
X13660D01*
X13700Y1400D01*
Y1410D01*
X13690Y1420D01*
X13670D01*
X13660Y1410D01*
X13760Y1420D02*
X13740Y1410D01*
X13720Y1390D01*
Y1370D01*
X13730Y1360D01*
X13750D01*
X13760Y1370D01*
Y1380D01*
X13750Y1390D01*
X13720D01*
X13780Y1360D02*
Y1400D01*
X13790D01*
X13800Y1390D01*
Y1360D01*
Y1390D01*
X13810Y1400D01*
X13820Y1390D01*
Y1360D01*
X13840D02*
X13860D01*
X13850D01*
Y1400D01*
X13840D01*
X13890Y1360D02*
X13910D01*
X13900D01*
Y1420D01*
X13890D01*
X14020Y1360D02*
X14000Y1380D01*
Y1400D01*
X14020Y1420D01*
X14049Y1360D02*
X14069D01*
X14059D01*
Y1420D01*
X14049Y1410D01*
X14099Y1360D02*
Y1370D01*
X14109D01*
Y1360D01*
X14099D01*
X14149Y1410D02*
X14159Y1420D01*
X14179D01*
X14189Y1410D01*
Y1370D01*
X14179Y1360D01*
X14159D01*
X14149Y1370D01*
Y1410D01*
X14209Y1420D02*
X14249D01*
Y1410D01*
X14209Y1370D01*
Y1360D01*
X14269D02*
Y1400D01*
X14279D01*
X14289Y1390D01*
Y1360D01*
Y1390D01*
X14299Y1400D01*
X14309Y1390D01*
Y1360D01*
X14329D02*
Y1400D01*
X14339D01*
X14349Y1390D01*
Y1360D01*
Y1390D01*
X14359Y1400D01*
X14369Y1390D01*
Y1360D01*
X14389D02*
X14409Y1380D01*
Y1400D01*
X14389Y1420D01*
X17135Y1360D02*
Y1420D01*
X17165D01*
X17175Y1410D01*
Y1390D01*
X17165Y1380D01*
X17135D01*
X17195Y1420D02*
X17235D01*
X17215D01*
Y1360D01*
X17255Y1420D02*
Y1360D01*
Y1390D01*
X17295D01*
Y1420D01*
Y1360D01*
X17638D02*
Y1420D01*
X17668D01*
X17678Y1410D01*
Y1390D01*
X17668Y1380D01*
X17638D01*
X17658D02*
X17678Y1360D01*
X17708D02*
X17728D01*
X17738Y1370D01*
Y1390D01*
X17728Y1400D01*
X17708D01*
X17698Y1390D01*
Y1370D01*
X17708Y1360D01*
X17758Y1400D02*
Y1370D01*
X17768Y1360D01*
X17798D01*
Y1400D01*
X17818Y1360D02*
Y1400D01*
X17848D01*
X17858Y1390D01*
Y1360D01*
X17918Y1420D02*
Y1360D01*
X17888D01*
X17878Y1370D01*
Y1390D01*
X17888Y1400D01*
X17918D01*
X12784Y1240D02*
X12744D01*
X12784Y1280D01*
Y1290D01*
X12774Y1300D01*
X12754D01*
X12744Y1290D01*
X13480Y1300D02*
X13440D01*
Y1270D01*
X13460Y1280D01*
X13470D01*
X13480Y1270D01*
Y1250D01*
X13470Y1240D01*
X13450D01*
X13440Y1250D01*
X13500Y1240D02*
X13520D01*
X13510D01*
Y1300D01*
X13500Y1290D01*
X13550Y1240D02*
Y1250D01*
X13560D01*
Y1240D01*
X13550D01*
X13600Y1250D02*
X13610Y1240D01*
X13630D01*
X13640Y1250D01*
Y1290D01*
X13630Y1300D01*
X13610D01*
X13600Y1290D01*
Y1280D01*
X13610Y1270D01*
X13640D01*
X13700Y1300D02*
X13680Y1290D01*
X13660Y1270D01*
Y1250D01*
X13670Y1240D01*
X13690D01*
X13700Y1250D01*
Y1260D01*
X13690Y1270D01*
X13660D01*
X13720Y1290D02*
X13730Y1300D01*
X13750D01*
X13760Y1290D01*
Y1280D01*
X13750Y1270D01*
X13760Y1260D01*
Y1250D01*
X13750Y1240D01*
X13730D01*
X13720Y1250D01*
Y1260D01*
X13730Y1270D01*
X13720Y1280D01*
Y1290D01*
X13730Y1270D02*
X13750D01*
X13780Y1240D02*
Y1280D01*
X13790D01*
X13800Y1270D01*
Y1240D01*
Y1270D01*
X13810Y1280D01*
X13820Y1270D01*
Y1240D01*
X13840D02*
X13860D01*
X13850D01*
Y1280D01*
X13840D01*
X13890Y1240D02*
X13910D01*
X13900D01*
Y1300D01*
X13890D01*
X14020Y1240D02*
X14000Y1260D01*
Y1280D01*
X14020Y1300D01*
X14049Y1240D02*
X14069D01*
X14059D01*
Y1300D01*
X14049Y1290D01*
X14099Y1240D02*
Y1250D01*
X14109D01*
Y1240D01*
X14099D01*
X14149Y1290D02*
X14159Y1300D01*
X14179D01*
X14189Y1290D01*
Y1280D01*
X14179Y1270D01*
X14169D01*
X14179D01*
X14189Y1260D01*
Y1250D01*
X14179Y1240D01*
X14159D01*
X14149Y1250D01*
X14249Y1240D02*
X14209D01*
X14249Y1280D01*
Y1290D01*
X14239Y1300D01*
X14219D01*
X14209Y1290D01*
X14269Y1240D02*
Y1280D01*
X14279D01*
X14289Y1270D01*
Y1240D01*
Y1270D01*
X14299Y1280D01*
X14309Y1270D01*
Y1240D01*
X14329D02*
Y1280D01*
X14339D01*
X14349Y1270D01*
Y1240D01*
Y1270D01*
X14359Y1280D01*
X14369Y1270D01*
Y1240D01*
X14389D02*
X14409Y1260D01*
Y1280D01*
X14389Y1300D01*
X17135Y1240D02*
Y1300D01*
X17175Y1240D01*
Y1300D01*
X17195Y1240D02*
Y1300D01*
X17225D01*
X17235Y1290D01*
Y1270D01*
X17225Y1260D01*
X17195D01*
X17255Y1300D02*
X17295D01*
X17275D01*
Y1240D01*
X17315Y1300D02*
Y1240D01*
Y1270D01*
X17355D01*
Y1300D01*
Y1240D01*
X17638D02*
Y1300D01*
X17668D01*
X17678Y1290D01*
Y1270D01*
X17668Y1260D01*
X17638D01*
X17658D02*
X17678Y1240D01*
X17708D02*
X17728D01*
X17738Y1250D01*
Y1270D01*
X17728Y1280D01*
X17708D01*
X17698Y1270D01*
Y1250D01*
X17708Y1240D01*
X17758Y1280D02*
Y1250D01*
X17768Y1240D01*
X17798D01*
Y1280D01*
X17818Y1240D02*
Y1280D01*
X17848D01*
X17858Y1270D01*
Y1240D01*
X17918Y1300D02*
Y1240D01*
X17888D01*
X17878Y1250D01*
Y1270D01*
X17888Y1280D01*
X17918D01*
X12744Y1170D02*
X12754Y1180D01*
X12774D01*
X12784Y1170D01*
Y1160D01*
X12774Y1150D01*
X12764D01*
X12774D01*
X12784Y1140D01*
Y1130D01*
X12774Y1120D01*
X12754D01*
X12744Y1130D01*
X13480Y1180D02*
X13440D01*
Y1150D01*
X13460Y1160D01*
X13470D01*
X13480Y1150D01*
Y1130D01*
X13470Y1120D01*
X13450D01*
X13440Y1130D01*
X13500Y1180D02*
X13540D01*
Y1170D01*
X13500Y1130D01*
Y1120D01*
X13560D02*
Y1160D01*
X13570D01*
X13580Y1150D01*
Y1120D01*
Y1150D01*
X13590Y1160D01*
X13600Y1150D01*
Y1120D01*
X13620D02*
X13640D01*
X13630D01*
Y1160D01*
X13620D01*
X13670Y1120D02*
X13690D01*
X13680D01*
Y1180D01*
X13670D01*
X13800Y1120D02*
X13780Y1140D01*
Y1160D01*
X13800Y1180D01*
X13830Y1120D02*
X13850D01*
X13840D01*
Y1180D01*
X13830Y1170D01*
X13880Y1120D02*
Y1130D01*
X13890D01*
Y1120D01*
X13880D01*
X13960D02*
Y1180D01*
X13930Y1150D01*
X13970D01*
X14020Y1120D02*
Y1180D01*
X13990Y1150D01*
X14029D01*
X14049Y1180D02*
X14089D01*
Y1170D01*
X14049Y1130D01*
Y1120D01*
X14109Y1170D02*
X14119Y1180D01*
X14139D01*
X14149Y1170D01*
Y1160D01*
X14139Y1150D01*
X14149Y1140D01*
Y1130D01*
X14139Y1120D01*
X14119D01*
X14109Y1130D01*
Y1140D01*
X14119Y1150D01*
X14109Y1160D01*
Y1170D01*
X14119Y1150D02*
X14139D01*
X14169Y1120D02*
Y1160D01*
X14179D01*
X14189Y1150D01*
Y1120D01*
Y1150D01*
X14199Y1160D01*
X14209Y1150D01*
Y1120D01*
X14229D02*
Y1160D01*
X14239D01*
X14249Y1150D01*
Y1120D01*
Y1150D01*
X14259Y1160D01*
X14269Y1150D01*
Y1120D01*
X14289D02*
X14309Y1140D01*
Y1160D01*
X14289Y1180D01*
X17135Y1120D02*
Y1180D01*
X17165D01*
X17175Y1170D01*
Y1150D01*
X17165Y1140D01*
X17135D01*
X17195Y1180D02*
X17235D01*
X17215D01*
Y1120D01*
X17255Y1180D02*
Y1120D01*
Y1150D01*
X17295D01*
Y1180D01*
Y1120D01*
X17638D02*
Y1180D01*
X17668D01*
X17678Y1170D01*
Y1150D01*
X17668Y1140D01*
X17638D01*
X17658D02*
X17678Y1120D01*
X17708D02*
X17728D01*
X17738Y1130D01*
Y1150D01*
X17728Y1160D01*
X17708D01*
X17698Y1150D01*
Y1130D01*
X17708Y1120D01*
X17758Y1160D02*
Y1130D01*
X17768Y1120D01*
X17798D01*
Y1160D01*
X17818Y1120D02*
Y1160D01*
X17848D01*
X17858Y1150D01*
Y1120D01*
X17918Y1180D02*
Y1120D01*
X17888D01*
X17878Y1130D01*
Y1150D01*
X17888Y1160D01*
X17918D01*
X12774Y1000D02*
Y1060D01*
X12744Y1030D01*
X12784D01*
X13440Y1060D02*
X13480D01*
Y1050D01*
X13440Y1010D01*
Y1000D01*
X13540D02*
X13500D01*
X13540Y1040D01*
Y1050D01*
X13530Y1060D01*
X13510D01*
X13500Y1050D01*
X13560Y1000D02*
Y1040D01*
X13570D01*
X13580Y1030D01*
Y1000D01*
Y1030D01*
X13590Y1040D01*
X13600Y1030D01*
Y1000D01*
X13620D02*
X13640D01*
X13630D01*
Y1040D01*
X13620D01*
X13670Y1000D02*
X13690D01*
X13680D01*
Y1060D01*
X13670D01*
X13800Y1000D02*
X13780Y1020D01*
Y1040D01*
X13800Y1060D01*
X13830Y1000D02*
X13850D01*
X13840D01*
Y1060D01*
X13830Y1050D01*
X13880Y1000D02*
Y1010D01*
X13890D01*
Y1000D01*
X13880D01*
X13930Y1050D02*
X13940Y1060D01*
X13960D01*
X13970Y1050D01*
Y1040D01*
X13960Y1030D01*
X13970Y1020D01*
Y1010D01*
X13960Y1000D01*
X13940D01*
X13930Y1010D01*
Y1020D01*
X13940Y1030D01*
X13930Y1040D01*
Y1050D01*
X13940Y1030D02*
X13960D01*
X14029Y1000D02*
X13990D01*
X14029Y1040D01*
Y1050D01*
X14020Y1060D01*
X14000D01*
X13990Y1050D01*
X14049D02*
X14059Y1060D01*
X14079D01*
X14089Y1050D01*
Y1040D01*
X14079Y1030D01*
X14089Y1020D01*
Y1010D01*
X14079Y1000D01*
X14059D01*
X14049Y1010D01*
Y1020D01*
X14059Y1030D01*
X14049Y1040D01*
Y1050D01*
X14059Y1030D02*
X14079D01*
X14109Y1050D02*
X14119Y1060D01*
X14139D01*
X14149Y1050D01*
Y1040D01*
X14139Y1030D01*
X14149Y1020D01*
Y1010D01*
X14139Y1000D01*
X14119D01*
X14109Y1010D01*
Y1020D01*
X14119Y1030D01*
X14109Y1040D01*
Y1050D01*
X14119Y1030D02*
X14139D01*
X14169Y1000D02*
Y1040D01*
X14179D01*
X14189Y1030D01*
Y1000D01*
Y1030D01*
X14199Y1040D01*
X14209Y1030D01*
Y1000D01*
X14229D02*
Y1040D01*
X14239D01*
X14249Y1030D01*
Y1000D01*
Y1030D01*
X14259Y1040D01*
X14269Y1030D01*
Y1000D01*
X14289D02*
X14309Y1020D01*
Y1040D01*
X14289Y1060D01*
X17135Y1000D02*
Y1060D01*
X17165D01*
X17175Y1050D01*
Y1030D01*
X17165Y1020D01*
X17135D01*
X17195Y1060D02*
X17235D01*
X17215D01*
Y1000D01*
X17255Y1060D02*
Y1000D01*
Y1030D01*
X17295D01*
Y1060D01*
Y1000D01*
X17638D02*
Y1060D01*
X17668D01*
X17678Y1050D01*
Y1030D01*
X17668Y1020D01*
X17638D01*
X17658D02*
X17678Y1000D01*
X17708D02*
X17728D01*
X17738Y1010D01*
Y1030D01*
X17728Y1040D01*
X17708D01*
X17698Y1030D01*
Y1010D01*
X17708Y1000D01*
X17758Y1040D02*
Y1010D01*
X17768Y1000D01*
X17798D01*
Y1040D01*
X17818Y1000D02*
Y1040D01*
X17848D01*
X17858Y1030D01*
Y1000D01*
X17918Y1060D02*
Y1000D01*
X17888D01*
X17878Y1010D01*
Y1030D01*
X17888Y1040D01*
X17918D01*
X12744Y880D02*
X12764D01*
X12754D01*
Y940D01*
X12744Y930D01*
X13440Y880D02*
X13460D01*
X13450D01*
Y940D01*
X13440Y930D01*
X13530Y940D02*
X13490D01*
Y910D01*
X13510Y920D01*
X13520D01*
X13530Y910D01*
Y890D01*
X13520Y880D01*
X13500D01*
X13490Y890D01*
X13550Y930D02*
X13560Y940D01*
X13580D01*
X13590Y930D01*
Y890D01*
X13580Y880D01*
X13560D01*
X13550Y890D01*
Y930D01*
X13610Y880D02*
Y920D01*
X13620D01*
X13630Y910D01*
Y880D01*
Y910D01*
X13640Y920D01*
X13650Y910D01*
Y880D01*
X13670D02*
X13690D01*
X13680D01*
Y920D01*
X13670D01*
X13720Y880D02*
X13740D01*
X13730D01*
Y940D01*
X13720D01*
X13850Y880D02*
X13830Y900D01*
Y920D01*
X13850Y940D01*
X13880Y930D02*
X13890Y940D01*
X13910D01*
X13920Y930D01*
Y920D01*
X13910Y910D01*
X13900D01*
X13910D01*
X13920Y900D01*
Y890D01*
X13910Y880D01*
X13890D01*
X13880Y890D01*
X13940Y880D02*
Y890D01*
X13950D01*
Y880D01*
X13940D01*
X13990Y930D02*
X14000Y940D01*
X14020D01*
X14029Y930D01*
Y920D01*
X14020Y910D01*
X14029Y900D01*
Y890D01*
X14020Y880D01*
X14000D01*
X13990Y890D01*
Y900D01*
X14000Y910D01*
X13990Y920D01*
Y930D01*
X14000Y910D02*
X14020D01*
X14049Y880D02*
X14069D01*
X14059D01*
Y940D01*
X14049Y930D01*
X14099Y880D02*
Y920D01*
X14109D01*
X14119Y910D01*
Y880D01*
Y910D01*
X14129Y920D01*
X14139Y910D01*
Y880D01*
X14159D02*
Y920D01*
X14169D01*
X14179Y910D01*
Y880D01*
Y910D01*
X14189Y920D01*
X14199Y910D01*
Y880D01*
X14219D02*
X14239Y900D01*
Y920D01*
X14219Y940D01*
X17135Y880D02*
Y940D01*
X17165D01*
X17175Y930D01*
Y910D01*
X17165Y900D01*
X17135D01*
X17195Y940D02*
X17235D01*
X17215D01*
Y880D01*
X17255Y940D02*
Y880D01*
Y910D01*
X17295D01*
Y940D01*
Y880D01*
X17638D02*
Y940D01*
X17668D01*
X17678Y930D01*
Y910D01*
X17668Y900D01*
X17638D01*
X17658D02*
X17678Y880D01*
X17708D02*
X17728D01*
X17738Y890D01*
Y910D01*
X17728Y920D01*
X17708D01*
X17698Y910D01*
Y890D01*
X17708Y880D01*
X17758Y920D02*
Y890D01*
X17768Y880D01*
X17798D01*
Y920D01*
X17818Y880D02*
Y920D01*
X17848D01*
X17858Y910D01*
Y880D01*
X17918Y940D02*
Y880D01*
X17888D01*
X17878Y890D01*
Y910D01*
X17888Y920D01*
X17918D01*
X12784Y760D02*
X12744D01*
X12784Y800D01*
Y810D01*
X12774Y820D01*
X12754D01*
X12744Y810D01*
X13480Y760D02*
X13440D01*
X13480Y800D01*
Y810D01*
X13470Y820D01*
X13450D01*
X13440Y810D01*
X13500D02*
X13510Y820D01*
X13530D01*
X13540Y810D01*
Y800D01*
X13530Y790D01*
X13540Y780D01*
Y770D01*
X13530Y760D01*
X13510D01*
X13500Y770D01*
Y780D01*
X13510Y790D01*
X13500Y800D01*
Y810D01*
X13510Y790D02*
X13530D01*
X13560Y760D02*
Y800D01*
X13570D01*
X13580Y790D01*
Y760D01*
Y790D01*
X13590Y800D01*
X13600Y790D01*
Y760D01*
X13620D02*
X13640D01*
X13630D01*
Y800D01*
X13620D01*
X13670Y760D02*
X13690D01*
X13680D01*
Y820D01*
X13670D01*
X13800Y760D02*
X13780Y780D01*
Y800D01*
X13800Y820D01*
X13830Y810D02*
X13840Y820D01*
X13860D01*
X13870Y810D01*
Y770D01*
X13860Y760D01*
X13840D01*
X13830Y770D01*
Y810D01*
X13890Y760D02*
Y770D01*
X13900D01*
Y760D01*
X13890D01*
X13940Y820D02*
X13980D01*
Y810D01*
X13940Y770D01*
Y760D01*
X14000D02*
X14020D01*
X14010D01*
Y820D01*
X14000Y810D01*
X14049Y760D02*
X14069D01*
X14059D01*
Y820D01*
X14049Y810D01*
X14139Y760D02*
X14099D01*
X14139Y800D01*
Y810D01*
X14129Y820D01*
X14109D01*
X14099Y810D01*
X14159Y760D02*
Y800D01*
X14169D01*
X14179Y790D01*
Y760D01*
Y790D01*
X14189Y800D01*
X14199Y790D01*
Y760D01*
X14219D02*
Y800D01*
X14229D01*
X14239Y790D01*
Y760D01*
Y790D01*
X14249Y800D01*
X14259Y790D01*
Y760D01*
X14279D02*
X14299Y780D01*
Y800D01*
X14279Y820D01*
X14783D02*
X14823D01*
Y810D01*
X14783Y770D01*
Y760D01*
X14883D02*
X14843D01*
X14883Y800D01*
Y810D01*
X14873Y820D01*
X14853D01*
X14843Y810D01*
X14903Y760D02*
Y800D01*
X14913D01*
X14923Y790D01*
Y760D01*
Y790D01*
X14933Y800D01*
X14943Y790D01*
Y760D01*
X14963D02*
X14983D01*
X14973D01*
Y800D01*
X14963D01*
X15013Y760D02*
X15033D01*
X15023D01*
Y820D01*
X15013D01*
X15143Y760D02*
X15123Y780D01*
Y800D01*
X15143Y820D01*
X15173Y760D02*
X15193D01*
X15183D01*
Y820D01*
X15173Y810D01*
X15223Y760D02*
Y770D01*
X15233D01*
Y760D01*
X15223D01*
X15273Y810D02*
X15283Y820D01*
X15303D01*
X15313Y810D01*
Y800D01*
X15303Y790D01*
X15313Y780D01*
Y770D01*
X15303Y760D01*
X15283D01*
X15273Y770D01*
Y780D01*
X15283Y790D01*
X15273Y800D01*
Y810D01*
X15283Y790D02*
X15303D01*
X15373Y760D02*
X15333D01*
X15373Y800D01*
Y810D01*
X15363Y820D01*
X15343D01*
X15333Y810D01*
X15393D02*
X15403Y820D01*
X15423D01*
X15433Y810D01*
Y800D01*
X15423Y790D01*
X15433Y780D01*
Y770D01*
X15423Y760D01*
X15403D01*
X15393Y770D01*
Y780D01*
X15403Y790D01*
X15393Y800D01*
Y810D01*
X15403Y790D02*
X15423D01*
X15453Y810D02*
X15463Y820D01*
X15483D01*
X15493Y810D01*
Y800D01*
X15483Y790D01*
X15493Y780D01*
Y770D01*
X15483Y760D01*
X15463D01*
X15453Y770D01*
Y780D01*
X15463Y790D01*
X15453Y800D01*
Y810D01*
X15463Y790D02*
X15483D01*
X15513Y760D02*
Y800D01*
X15523D01*
X15533Y790D01*
Y760D01*
Y790D01*
X15543Y800D01*
X15553Y790D01*
Y760D01*
X15573D02*
Y800D01*
X15583D01*
X15593Y790D01*
Y760D01*
Y790D01*
X15603Y800D01*
X15613Y790D01*
Y760D01*
X15633D02*
X15653Y780D01*
Y800D01*
X15633Y820D01*
X15953Y760D02*
Y820D01*
X15923Y790D01*
X15963D01*
X16013Y760D02*
Y820D01*
X15983Y790D01*
X16023D01*
X16043Y760D02*
Y800D01*
X16053D01*
X16063Y790D01*
Y760D01*
Y790D01*
X16073Y800D01*
X16083Y790D01*
Y760D01*
X16103D02*
X16123D01*
X16113D01*
Y800D01*
X16103D01*
X16153Y760D02*
X16173D01*
X16163D01*
Y820D01*
X16153D01*
X16283Y760D02*
X16263Y780D01*
Y800D01*
X16283Y820D01*
X16313Y760D02*
X16333D01*
X16323D01*
Y820D01*
X16313Y810D01*
X16363Y760D02*
Y770D01*
X16373D01*
Y760D01*
X16363D01*
X16413D02*
X16433D01*
X16423D01*
Y820D01*
X16413Y810D01*
X16463Y760D02*
X16483D01*
X16473D01*
Y820D01*
X16463Y810D01*
X16513Y820D02*
X16553D01*
Y810D01*
X16513Y770D01*
Y760D01*
X16613Y820D02*
X16593Y810D01*
X16573Y790D01*
Y770D01*
X16583Y760D01*
X16603D01*
X16613Y770D01*
Y780D01*
X16603Y790D01*
X16573D01*
X16633Y760D02*
Y800D01*
X16643D01*
X16653Y790D01*
Y760D01*
Y790D01*
X16663Y800D01*
X16673Y790D01*
Y760D01*
X16693D02*
Y800D01*
X16703D01*
X16713Y790D01*
Y760D01*
Y790D01*
X16723Y800D01*
X16733Y790D01*
Y760D01*
X16753D02*
X16773Y780D01*
Y800D01*
X16753Y820D01*
X17135Y760D02*
Y820D01*
X17165D01*
X17175Y810D01*
Y790D01*
X17165Y780D01*
X17135D01*
X17195Y820D02*
X17235D01*
X17215D01*
Y760D01*
X17255Y820D02*
Y760D01*
Y790D01*
X17295D01*
Y820D01*
Y760D01*
X17678Y810D02*
X17668Y820D01*
X17648D01*
X17638Y810D01*
Y800D01*
X17648Y790D01*
X17668D01*
X17678Y780D01*
Y770D01*
X17668Y760D01*
X17648D01*
X17638Y770D01*
X17698Y760D02*
X17718D01*
X17708D01*
Y820D01*
X17698D01*
X17758Y760D02*
X17778D01*
X17788Y770D01*
Y790D01*
X17778Y800D01*
X17758D01*
X17748Y790D01*
Y770D01*
X17758Y760D01*
X17818Y810D02*
Y800D01*
X17808D01*
X17828D01*
X17818D01*
Y770D01*
X17828Y760D01*
X12744Y690D02*
X12754Y700D01*
X12774D01*
X12784Y690D01*
Y680D01*
X12774Y670D01*
X12764D01*
X12774D01*
X12784Y660D01*
Y650D01*
X12774Y640D01*
X12754D01*
X12744Y650D01*
X13480Y640D02*
X13440D01*
X13480Y680D01*
Y690D01*
X13470Y700D01*
X13450D01*
X13440Y690D01*
X13500D02*
X13510Y700D01*
X13530D01*
X13540Y690D01*
Y680D01*
X13530Y670D01*
X13540Y660D01*
Y650D01*
X13530Y640D01*
X13510D01*
X13500Y650D01*
Y660D01*
X13510Y670D01*
X13500Y680D01*
Y690D01*
X13510Y670D02*
X13530D01*
X13560Y640D02*
Y680D01*
X13570D01*
X13580Y670D01*
Y640D01*
Y670D01*
X13590Y680D01*
X13600Y670D01*
Y640D01*
X13620D02*
X13640D01*
X13630D01*
Y680D01*
X13620D01*
X13670Y640D02*
X13690D01*
X13680D01*
Y700D01*
X13670D01*
X13800Y640D02*
X13780Y660D01*
Y680D01*
X13800Y700D01*
X13830Y690D02*
X13840Y700D01*
X13860D01*
X13870Y690D01*
Y650D01*
X13860Y640D01*
X13840D01*
X13830Y650D01*
Y690D01*
X13890Y640D02*
Y650D01*
X13900D01*
Y640D01*
X13890D01*
X13940Y700D02*
X13980D01*
Y690D01*
X13940Y650D01*
Y640D01*
X14000D02*
X14020D01*
X14010D01*
Y700D01*
X14000Y690D01*
X14049Y640D02*
X14069D01*
X14059D01*
Y700D01*
X14049Y690D01*
X14139Y640D02*
X14099D01*
X14139Y680D01*
Y690D01*
X14129Y700D01*
X14109D01*
X14099Y690D01*
X14159Y640D02*
Y680D01*
X14169D01*
X14179Y670D01*
Y640D01*
Y670D01*
X14189Y680D01*
X14199Y670D01*
Y640D01*
X14219D02*
Y680D01*
X14229D01*
X14239Y670D01*
Y640D01*
Y670D01*
X14249Y680D01*
X14259Y670D01*
Y640D01*
X14279D02*
X14299Y660D01*
Y680D01*
X14279Y700D01*
X14823Y640D02*
X14783D01*
X14823Y680D01*
Y690D01*
X14813Y700D01*
X14793D01*
X14783Y690D01*
X14843Y650D02*
X14853Y640D01*
X14873D01*
X14883Y650D01*
Y690D01*
X14873Y700D01*
X14853D01*
X14843Y690D01*
Y680D01*
X14853Y670D01*
X14883D01*
X14943Y700D02*
X14903D01*
Y670D01*
X14923Y680D01*
X14933D01*
X14943Y670D01*
Y650D01*
X14933Y640D01*
X14913D01*
X14903Y650D01*
X14963Y640D02*
Y650D01*
X14973D01*
Y640D01*
X14963D01*
X15053D02*
X15013D01*
X15053Y680D01*
Y690D01*
X15043Y700D01*
X15023D01*
X15013Y690D01*
X15073Y700D02*
X15113D01*
Y690D01*
X15073Y650D01*
Y640D01*
X15173Y700D02*
X15153Y690D01*
X15133Y670D01*
Y650D01*
X15143Y640D01*
X15163D01*
X15173Y650D01*
Y660D01*
X15163Y670D01*
X15133D01*
X15193Y640D02*
Y680D01*
X15203D01*
X15213Y670D01*
Y640D01*
Y670D01*
X15223Y680D01*
X15233Y670D01*
Y640D01*
X15253D02*
X15273D01*
X15263D01*
Y680D01*
X15253D01*
X15303Y640D02*
X15323D01*
X15313D01*
Y700D01*
X15303D01*
X15433Y640D02*
X15413Y660D01*
Y680D01*
X15433Y700D01*
X15463D02*
X15503D01*
Y690D01*
X15463Y650D01*
Y640D01*
X15523D02*
Y650D01*
X15533D01*
Y640D01*
X15523D01*
X15613Y700D02*
X15573D01*
Y670D01*
X15593Y680D01*
X15603D01*
X15613Y670D01*
Y650D01*
X15603Y640D01*
X15583D01*
X15573Y650D01*
X15633Y640D02*
Y680D01*
X15643D01*
X15653Y670D01*
Y640D01*
Y670D01*
X15663Y680D01*
X15673Y670D01*
Y640D01*
X15693D02*
Y680D01*
X15703D01*
X15713Y670D01*
Y640D01*
Y670D01*
X15723Y680D01*
X15733Y670D01*
Y640D01*
X15753D02*
X15773Y660D01*
Y680D01*
X15753Y700D01*
X15963Y640D02*
X15923D01*
X15963Y680D01*
Y690D01*
X15953Y700D01*
X15933D01*
X15923Y690D01*
X16023Y700D02*
X16003Y690D01*
X15983Y670D01*
Y650D01*
X15993Y640D01*
X16013D01*
X16023Y650D01*
Y660D01*
X16013Y670D01*
X15983D01*
X16043Y700D02*
X16083D01*
Y690D01*
X16043Y650D01*
Y640D01*
X16103D02*
Y650D01*
X16113D01*
Y640D01*
X16103D01*
X16193D02*
X16153D01*
X16193Y680D01*
Y690D01*
X16183Y700D01*
X16163D01*
X16153Y690D01*
X16213Y700D02*
X16253D01*
Y690D01*
X16213Y650D01*
Y640D01*
X16313Y700D02*
X16293Y690D01*
X16273Y670D01*
Y650D01*
X16283Y640D01*
X16303D01*
X16313Y650D01*
Y660D01*
X16303Y670D01*
X16273D01*
X16333Y640D02*
Y680D01*
X16343D01*
X16353Y670D01*
Y640D01*
Y670D01*
X16363Y680D01*
X16373Y670D01*
Y640D01*
X16393D02*
X16413D01*
X16403D01*
Y680D01*
X16393D01*
X16443Y640D02*
X16463D01*
X16453D01*
Y700D01*
X16443D01*
X16573Y640D02*
X16553Y660D01*
Y680D01*
X16573Y700D01*
X16643D02*
X16623Y690D01*
X16603Y670D01*
Y650D01*
X16613Y640D01*
X16633D01*
X16643Y650D01*
Y660D01*
X16633Y670D01*
X16603D01*
X16663Y640D02*
Y650D01*
X16673D01*
Y640D01*
X16663D01*
X16713Y700D02*
X16753D01*
Y690D01*
X16713Y650D01*
Y640D01*
X16773Y690D02*
X16783Y700D01*
X16803D01*
X16813Y690D01*
Y680D01*
X16803Y670D01*
X16813Y660D01*
Y650D01*
X16803Y640D01*
X16783D01*
X16773Y650D01*
Y660D01*
X16783Y670D01*
X16773Y680D01*
Y690D01*
X16783Y670D02*
X16803D01*
X16833Y690D02*
X16843Y700D01*
X16863D01*
X16873Y690D01*
Y680D01*
X16863Y670D01*
X16873Y660D01*
Y650D01*
X16863Y640D01*
X16843D01*
X16833Y650D01*
Y660D01*
X16843Y670D01*
X16833Y680D01*
Y690D01*
X16843Y670D02*
X16863D01*
X16893Y690D02*
X16903Y700D01*
X16923D01*
X16933Y690D01*
Y680D01*
X16923Y670D01*
X16933Y660D01*
Y650D01*
X16923Y640D01*
X16903D01*
X16893Y650D01*
Y660D01*
X16903Y670D01*
X16893Y680D01*
Y690D01*
X16903Y670D02*
X16923D01*
X16953Y640D02*
Y680D01*
X16963D01*
X16973Y670D01*
Y640D01*
Y670D01*
X16983Y680D01*
X16993Y670D01*
Y640D01*
X17013D02*
Y680D01*
X17023D01*
X17033Y670D01*
Y640D01*
Y670D01*
X17043Y680D01*
X17053Y670D01*
Y640D01*
X17073D02*
X17093Y660D01*
Y680D01*
X17073Y700D01*
X17135Y640D02*
Y700D01*
X17165D01*
X17175Y690D01*
Y670D01*
X17165Y660D01*
X17135D01*
X17195Y700D02*
X17235D01*
X17215D01*
Y640D01*
X17255Y700D02*
Y640D01*
Y670D01*
X17295D01*
Y700D01*
Y640D01*
X17678Y690D02*
X17668Y700D01*
X17648D01*
X17638Y690D01*
Y680D01*
X17648Y670D01*
X17668D01*
X17678Y660D01*
Y650D01*
X17668Y640D01*
X17648D01*
X17638Y650D01*
X17698Y640D02*
X17718D01*
X17708D01*
Y700D01*
X17698D01*
X17758Y640D02*
X17778D01*
X17788Y650D01*
Y670D01*
X17778Y680D01*
X17758D01*
X17748Y670D01*
Y650D01*
X17758Y640D01*
X17818Y690D02*
Y680D01*
X17808D01*
X17828D01*
X17818D01*
Y650D01*
X17828Y640D01*
X12784Y520D02*
X12744D01*
X12784Y560D01*
Y570D01*
X12774Y580D01*
X12754D01*
X12744Y570D01*
X13480Y520D02*
X13440D01*
X13480Y560D01*
Y570D01*
X13470Y580D01*
X13450D01*
X13440Y570D01*
X13500D02*
X13510Y580D01*
X13530D01*
X13540Y570D01*
Y560D01*
X13530Y550D01*
X13540Y540D01*
Y530D01*
X13530Y520D01*
X13510D01*
X13500Y530D01*
Y540D01*
X13510Y550D01*
X13500Y560D01*
Y570D01*
X13510Y550D02*
X13530D01*
X13560Y520D02*
Y560D01*
X13570D01*
X13580Y550D01*
Y520D01*
Y550D01*
X13590Y560D01*
X13600Y550D01*
Y520D01*
X13620D02*
X13640D01*
X13630D01*
Y560D01*
X13620D01*
X13670Y520D02*
X13690D01*
X13680D01*
Y580D01*
X13670D01*
X13800Y520D02*
X13780Y540D01*
Y560D01*
X13800Y580D01*
X13830Y570D02*
X13840Y580D01*
X13860D01*
X13870Y570D01*
Y530D01*
X13860Y520D01*
X13840D01*
X13830Y530D01*
Y570D01*
X13890Y520D02*
Y530D01*
X13900D01*
Y520D01*
X13890D01*
X13940Y580D02*
X13980D01*
Y570D01*
X13940Y530D01*
Y520D01*
X14000D02*
X14020D01*
X14010D01*
Y580D01*
X14000Y570D01*
X14049Y520D02*
X14069D01*
X14059D01*
Y580D01*
X14049Y570D01*
X14139Y520D02*
X14099D01*
X14139Y560D01*
Y570D01*
X14129Y580D01*
X14109D01*
X14099Y570D01*
X14159Y520D02*
Y560D01*
X14169D01*
X14179Y550D01*
Y520D01*
Y550D01*
X14189Y560D01*
X14199Y550D01*
Y520D01*
X14219D02*
Y560D01*
X14229D01*
X14239Y550D01*
Y520D01*
Y550D01*
X14249Y560D01*
X14259Y550D01*
Y520D01*
X14279D02*
X14299Y540D01*
Y560D01*
X14279Y580D01*
X14783Y570D02*
X14793Y580D01*
X14813D01*
X14823Y570D01*
Y560D01*
X14813Y550D01*
X14803D01*
X14813D01*
X14823Y540D01*
Y530D01*
X14813Y520D01*
X14793D01*
X14783Y530D01*
X14883Y520D02*
X14843D01*
X14883Y560D01*
Y570D01*
X14873Y580D01*
X14853D01*
X14843Y570D01*
X14933Y520D02*
Y580D01*
X14903Y550D01*
X14943D01*
X14963Y520D02*
Y530D01*
X14973D01*
Y520D01*
X14963D01*
X15013Y570D02*
X15023Y580D01*
X15043D01*
X15053Y570D01*
Y560D01*
X15043Y550D01*
X15053Y540D01*
Y530D01*
X15043Y520D01*
X15023D01*
X15013Y530D01*
Y540D01*
X15023Y550D01*
X15013Y560D01*
Y570D01*
X15023Y550D02*
X15043D01*
X15073Y570D02*
X15083Y580D01*
X15103D01*
X15113Y570D01*
Y530D01*
X15103Y520D01*
X15083D01*
X15073Y530D01*
Y570D01*
X15133D02*
X15143Y580D01*
X15163D01*
X15173Y570D01*
Y560D01*
X15163Y550D01*
X15153D01*
X15163D01*
X15173Y540D01*
Y530D01*
X15163Y520D01*
X15143D01*
X15133Y530D01*
X15193Y520D02*
Y560D01*
X15203D01*
X15213Y550D01*
Y520D01*
Y550D01*
X15223Y560D01*
X15233Y550D01*
Y520D01*
X15253D02*
X15273D01*
X15263D01*
Y560D01*
X15253D01*
X15303Y520D02*
X15323D01*
X15313D01*
Y580D01*
X15303D01*
X15433Y520D02*
X15413Y540D01*
Y560D01*
X15433Y580D01*
X15463Y570D02*
X15473Y580D01*
X15493D01*
X15503Y570D01*
Y560D01*
X15493Y550D01*
X15503Y540D01*
Y530D01*
X15493Y520D01*
X15473D01*
X15463Y530D01*
Y540D01*
X15473Y550D01*
X15463Y560D01*
Y570D01*
X15473Y550D02*
X15493D01*
X15523Y520D02*
Y530D01*
X15533D01*
Y520D01*
X15523D01*
X15613D02*
X15573D01*
X15613Y560D01*
Y570D01*
X15603Y580D01*
X15583D01*
X15573Y570D01*
X15673Y580D02*
X15633D01*
Y550D01*
X15653Y560D01*
X15663D01*
X15673Y550D01*
Y530D01*
X15663Y520D01*
X15643D01*
X15633Y530D01*
X15693Y520D02*
Y560D01*
X15703D01*
X15713Y550D01*
Y520D01*
Y550D01*
X15723Y560D01*
X15733Y550D01*
Y520D01*
X15753D02*
Y560D01*
X15763D01*
X15773Y550D01*
Y520D01*
Y550D01*
X15783Y560D01*
X15793Y550D01*
Y520D01*
X15813D02*
X15833Y540D01*
Y560D01*
X15813Y580D01*
X15963Y520D02*
X15923D01*
X15963Y560D01*
Y570D01*
X15953Y580D01*
X15933D01*
X15923Y570D01*
X15983Y530D02*
X15993Y520D01*
X16013D01*
X16023Y530D01*
Y570D01*
X16013Y580D01*
X15993D01*
X15983Y570D01*
Y560D01*
X15993Y550D01*
X16023D01*
X16083Y580D02*
X16063Y570D01*
X16043Y550D01*
Y530D01*
X16053Y520D01*
X16073D01*
X16083Y530D01*
Y540D01*
X16073Y550D01*
X16043D01*
X16103Y520D02*
Y530D01*
X16113D01*
Y520D01*
X16103D01*
X16153Y570D02*
X16163Y580D01*
X16183D01*
X16193Y570D01*
Y560D01*
X16183Y550D01*
X16193Y540D01*
Y530D01*
X16183Y520D01*
X16163D01*
X16153Y530D01*
Y540D01*
X16163Y550D01*
X16153Y560D01*
Y570D01*
X16163Y550D02*
X16183D01*
X16213Y570D02*
X16223Y580D01*
X16243D01*
X16253Y570D01*
Y530D01*
X16243Y520D01*
X16223D01*
X16213Y530D01*
Y570D01*
X16273D02*
X16283Y580D01*
X16303D01*
X16313Y570D01*
Y560D01*
X16303Y550D01*
X16293D01*
X16303D01*
X16313Y540D01*
Y530D01*
X16303Y520D01*
X16283D01*
X16273Y530D01*
X16333Y520D02*
Y560D01*
X16343D01*
X16353Y550D01*
Y520D01*
Y550D01*
X16363Y560D01*
X16373Y550D01*
Y520D01*
X16393D02*
X16413D01*
X16403D01*
Y560D01*
X16393D01*
X16443Y520D02*
X16463D01*
X16453D01*
Y580D01*
X16443D01*
X16573Y520D02*
X16553Y540D01*
Y560D01*
X16573Y580D01*
X16603D02*
X16643D01*
Y570D01*
X16603Y530D01*
Y520D01*
X16663D02*
Y530D01*
X16673D01*
Y520D01*
X16663D01*
X16753Y580D02*
X16713D01*
Y550D01*
X16733Y560D01*
X16743D01*
X16753Y550D01*
Y530D01*
X16743Y520D01*
X16723D01*
X16713Y530D01*
X16773Y570D02*
X16783Y580D01*
X16803D01*
X16813Y570D01*
Y560D01*
X16803Y550D01*
X16793D01*
X16803D01*
X16813Y540D01*
Y530D01*
X16803Y520D01*
X16783D01*
X16773Y530D01*
X16833Y570D02*
X16843Y580D01*
X16863D01*
X16873Y570D01*
Y560D01*
X16863Y550D01*
X16873Y540D01*
Y530D01*
X16863Y520D01*
X16843D01*
X16833Y530D01*
Y540D01*
X16843Y550D01*
X16833Y560D01*
Y570D01*
X16843Y550D02*
X16863D01*
X16893Y570D02*
X16903Y580D01*
X16923D01*
X16933Y570D01*
Y560D01*
X16923Y550D01*
X16933Y540D01*
Y530D01*
X16923Y520D01*
X16903D01*
X16893Y530D01*
Y540D01*
X16903Y550D01*
X16893Y560D01*
Y570D01*
X16903Y550D02*
X16923D01*
X16953Y520D02*
Y560D01*
X16963D01*
X16973Y550D01*
Y520D01*
Y550D01*
X16983Y560D01*
X16993Y550D01*
Y520D01*
X17013D02*
Y560D01*
X17023D01*
X17033Y550D01*
Y520D01*
Y550D01*
X17043Y560D01*
X17053Y550D01*
Y520D01*
X17073D02*
X17093Y540D01*
Y560D01*
X17073Y580D01*
X17135Y520D02*
Y580D01*
X17165D01*
X17175Y570D01*
Y550D01*
X17165Y540D01*
X17135D01*
X17195Y580D02*
X17235D01*
X17215D01*
Y520D01*
X17255Y580D02*
Y520D01*
Y550D01*
X17295D01*
Y580D01*
Y520D01*
X17678Y570D02*
X17668Y580D01*
X17648D01*
X17638Y570D01*
Y560D01*
X17648Y550D01*
X17668D01*
X17678Y540D01*
Y530D01*
X17668Y520D01*
X17648D01*
X17638Y530D01*
X17698Y520D02*
X17718D01*
X17708D01*
Y580D01*
X17698D01*
X17758Y520D02*
X17778D01*
X17788Y530D01*
Y550D01*
X17778Y560D01*
X17758D01*
X17748Y550D01*
Y530D01*
X17758Y520D01*
X17818Y570D02*
Y560D01*
X17808D01*
X17828D01*
X17818D01*
Y530D01*
X17828Y520D01*
X12784Y460D02*
X12764Y450D01*
X12744Y430D01*
Y410D01*
X12754Y400D01*
X12774D01*
X12784Y410D01*
Y420D01*
X12774Y430D01*
X12744D01*
X13440Y460D02*
X13480D01*
Y450D01*
X13440Y410D01*
Y400D01*
X13500Y450D02*
X13510Y460D01*
X13530D01*
X13540Y450D01*
Y410D01*
X13530Y400D01*
X13510D01*
X13500Y410D01*
Y450D01*
X13560Y400D02*
Y440D01*
X13570D01*
X13580Y430D01*
Y400D01*
Y430D01*
X13590Y440D01*
X13600Y430D01*
Y400D01*
X13620D02*
X13640D01*
X13630D01*
Y440D01*
X13620D01*
X13670Y400D02*
X13690D01*
X13680D01*
Y460D01*
X13670D01*
X13800Y400D02*
X13780Y420D01*
Y440D01*
X13800Y460D01*
X13830Y400D02*
X13850D01*
X13840D01*
Y460D01*
X13830Y450D01*
X13880Y400D02*
Y410D01*
X13890D01*
Y400D01*
X13880D01*
X13930Y460D02*
X13970D01*
Y450D01*
X13930Y410D01*
Y400D01*
X13990Y460D02*
X14029D01*
Y450D01*
X13990Y410D01*
Y400D01*
X14049Y450D02*
X14059Y460D01*
X14079D01*
X14089Y450D01*
Y440D01*
X14079Y430D01*
X14089Y420D01*
Y410D01*
X14079Y400D01*
X14059D01*
X14049Y410D01*
Y420D01*
X14059Y430D01*
X14049Y440D01*
Y450D01*
X14059Y430D02*
X14079D01*
X14109Y400D02*
Y440D01*
X14119D01*
X14129Y430D01*
Y400D01*
Y430D01*
X14139Y440D01*
X14149Y430D01*
Y400D01*
X14169D02*
Y440D01*
X14179D01*
X14189Y430D01*
Y400D01*
Y430D01*
X14199Y440D01*
X14209Y430D01*
Y400D01*
X14229D02*
X14249Y420D01*
Y440D01*
X14229Y460D01*
X14783Y400D02*
X14803D01*
X14793D01*
Y460D01*
X14783Y450D01*
X14833Y460D02*
X14873D01*
Y450D01*
X14833Y410D01*
Y400D01*
X14933Y460D02*
X14893D01*
Y430D01*
X14913Y440D01*
X14923D01*
X14933Y430D01*
Y410D01*
X14923Y400D01*
X14903D01*
X14893Y410D01*
X14953Y400D02*
Y440D01*
X14963D01*
X14973Y430D01*
Y400D01*
Y430D01*
X14983Y440D01*
X14993Y430D01*
Y400D01*
X15013D02*
X15033D01*
X15023D01*
Y440D01*
X15013D01*
X15063Y400D02*
X15083D01*
X15073D01*
Y460D01*
X15063D01*
X15193Y400D02*
X15173Y420D01*
Y440D01*
X15193Y460D01*
X15253Y400D02*
Y460D01*
X15223Y430D01*
X15263D01*
X15283Y400D02*
Y410D01*
X15293D01*
Y400D01*
X15283D01*
X15363D02*
Y460D01*
X15333Y430D01*
X15373D01*
X15423Y400D02*
Y460D01*
X15393Y430D01*
X15433D01*
X15493Y460D02*
X15453D01*
Y430D01*
X15473Y440D01*
X15483D01*
X15493Y430D01*
Y410D01*
X15483Y400D01*
X15463D01*
X15453Y410D01*
X15513Y400D02*
Y440D01*
X15523D01*
X15533Y430D01*
Y400D01*
Y430D01*
X15543Y440D01*
X15553Y430D01*
Y400D01*
X15573D02*
Y440D01*
X15583D01*
X15593Y430D01*
Y400D01*
Y430D01*
X15603Y440D01*
X15613Y430D01*
Y400D01*
X15633D02*
X15653Y420D01*
Y440D01*
X15633Y460D01*
X15923Y400D02*
X15943D01*
X15933D01*
Y460D01*
X15923Y450D01*
X15973D02*
X15983Y460D01*
X16003D01*
X16013Y450D01*
Y410D01*
X16003Y400D01*
X15983D01*
X15973Y410D01*
Y450D01*
X16073Y460D02*
X16033D01*
Y430D01*
X16053Y440D01*
X16063D01*
X16073Y430D01*
Y410D01*
X16063Y400D01*
X16043D01*
X16033Y410D01*
X16093Y400D02*
Y440D01*
X16103D01*
X16113Y430D01*
Y400D01*
Y430D01*
X16123Y440D01*
X16133Y430D01*
Y400D01*
X16153D02*
X16173D01*
X16163D01*
Y440D01*
X16153D01*
X16203Y400D02*
X16223D01*
X16213D01*
Y460D01*
X16203D01*
X16333Y400D02*
X16313Y420D01*
Y440D01*
X16333Y460D01*
X16403Y400D02*
X16363D01*
X16403Y440D01*
Y450D01*
X16393Y460D01*
X16373D01*
X16363Y450D01*
X16423Y400D02*
Y410D01*
X16433D01*
Y400D01*
X16423D01*
X16513Y460D02*
X16493Y450D01*
X16473Y430D01*
Y410D01*
X16483Y400D01*
X16503D01*
X16513Y410D01*
Y420D01*
X16503Y430D01*
X16473D01*
X16573Y460D02*
X16553Y450D01*
X16533Y430D01*
Y410D01*
X16543Y400D01*
X16563D01*
X16573Y410D01*
Y420D01*
X16563Y430D01*
X16533D01*
X16593Y460D02*
X16633D01*
Y450D01*
X16593Y410D01*
Y400D01*
X16653D02*
Y440D01*
X16663D01*
X16673Y430D01*
Y400D01*
Y430D01*
X16683Y440D01*
X16693Y430D01*
Y400D01*
X16713D02*
Y440D01*
X16723D01*
X16733Y430D01*
Y400D01*
Y430D01*
X16743Y440D01*
X16753Y430D01*
Y400D01*
X16773D02*
X16793Y420D01*
Y440D01*
X16773Y460D01*
X17135Y400D02*
Y460D01*
X17175Y400D01*
Y460D01*
X17195Y400D02*
Y460D01*
X17225D01*
X17235Y450D01*
Y430D01*
X17225Y420D01*
X17195D01*
X17255Y460D02*
X17295D01*
X17275D01*
Y400D01*
X17315Y460D02*
Y400D01*
Y430D01*
X17355D01*
Y460D01*
Y400D01*
X17678Y450D02*
X17668Y460D01*
X17648D01*
X17638Y450D01*
Y440D01*
X17648Y430D01*
X17668D01*
X17678Y420D01*
Y410D01*
X17668Y400D01*
X17648D01*
X17638Y410D01*
X17698Y400D02*
X17718D01*
X17708D01*
Y460D01*
X17698D01*
X17758Y400D02*
X17778D01*
X17788Y410D01*
Y430D01*
X17778Y440D01*
X17758D01*
X17748Y430D01*
Y410D01*
X17758Y400D01*
X17818Y450D02*
Y440D01*
X17808D01*
X17828D01*
X17818D01*
Y410D01*
X17828Y400D01*
X12784Y280D02*
X12744D01*
X12784Y320D01*
Y330D01*
X12774Y340D01*
X12754D01*
X12744Y330D01*
X13440Y340D02*
X13480D01*
Y330D01*
X13440Y290D01*
Y280D01*
X13540Y340D02*
X13500D01*
Y310D01*
X13520Y320D01*
X13530D01*
X13540Y310D01*
Y290D01*
X13530Y280D01*
X13510D01*
X13500Y290D01*
X13560Y280D02*
Y320D01*
X13570D01*
X13580Y310D01*
Y280D01*
Y310D01*
X13590Y320D01*
X13600Y310D01*
Y280D01*
X13620D02*
X13640D01*
X13630D01*
Y320D01*
X13620D01*
X13670Y280D02*
X13690D01*
X13680D01*
Y340D01*
X13670D01*
X13800Y280D02*
X13780Y300D01*
Y320D01*
X13800Y340D01*
X13830Y280D02*
X13850D01*
X13840D01*
Y340D01*
X13830Y330D01*
X13880Y280D02*
Y290D01*
X13890D01*
Y280D01*
X13880D01*
X13930Y290D02*
X13940Y280D01*
X13960D01*
X13970Y290D01*
Y330D01*
X13960Y340D01*
X13940D01*
X13930Y330D01*
Y320D01*
X13940Y310D01*
X13970D01*
X13990Y330D02*
X14000Y340D01*
X14020D01*
X14029Y330D01*
Y290D01*
X14020Y280D01*
X14000D01*
X13990Y290D01*
Y330D01*
X14089Y340D02*
X14049D01*
Y310D01*
X14069Y320D01*
X14079D01*
X14089Y310D01*
Y290D01*
X14079Y280D01*
X14059D01*
X14049Y290D01*
X14109Y280D02*
Y320D01*
X14119D01*
X14129Y310D01*
Y280D01*
Y310D01*
X14139Y320D01*
X14149Y310D01*
Y280D01*
X14169D02*
Y320D01*
X14179D01*
X14189Y310D01*
Y280D01*
Y310D01*
X14199Y320D01*
X14209Y310D01*
Y280D01*
X14229D02*
X14249Y300D01*
Y320D01*
X14229Y340D01*
X14783Y280D02*
X14803D01*
X14793D01*
Y340D01*
X14783Y330D01*
X14873Y340D02*
X14833D01*
Y310D01*
X14853Y320D01*
X14863D01*
X14873Y310D01*
Y290D01*
X14863Y280D01*
X14843D01*
X14833Y290D01*
X14893Y330D02*
X14903Y340D01*
X14923D01*
X14933Y330D01*
Y290D01*
X14923Y280D01*
X14903D01*
X14893Y290D01*
Y330D01*
X14953Y280D02*
Y320D01*
X14963D01*
X14973Y310D01*
Y280D01*
Y310D01*
X14983Y320D01*
X14993Y310D01*
Y280D01*
X15013D02*
X15033D01*
X15023D01*
Y320D01*
X15013D01*
X15063Y280D02*
X15083D01*
X15073D01*
Y340D01*
X15063D01*
X15193Y280D02*
X15173Y300D01*
Y320D01*
X15193Y340D01*
X15223Y330D02*
X15233Y340D01*
X15253D01*
X15263Y330D01*
Y320D01*
X15253Y310D01*
X15243D01*
X15253D01*
X15263Y300D01*
Y290D01*
X15253Y280D01*
X15233D01*
X15223Y290D01*
X15283Y280D02*
Y290D01*
X15293D01*
Y280D01*
X15283D01*
X15333Y330D02*
X15343Y340D01*
X15363D01*
X15373Y330D01*
Y320D01*
X15363Y310D01*
X15373Y300D01*
Y290D01*
X15363Y280D01*
X15343D01*
X15333Y290D01*
Y300D01*
X15343Y310D01*
X15333Y320D01*
Y330D01*
X15343Y310D02*
X15363D01*
X15393Y280D02*
X15413D01*
X15403D01*
Y340D01*
X15393Y330D01*
X15443Y280D02*
Y320D01*
X15453D01*
X15463Y310D01*
Y280D01*
Y310D01*
X15473Y320D01*
X15483Y310D01*
Y280D01*
X15503D02*
Y320D01*
X15513D01*
X15523Y310D01*
Y280D01*
Y310D01*
X15533Y320D01*
X15543Y310D01*
Y280D01*
X15563D02*
X15583Y300D01*
Y320D01*
X15563Y340D01*
X15923D02*
X15963D01*
Y330D01*
X15923Y290D01*
Y280D01*
X16023Y340D02*
X15983D01*
Y310D01*
X16003Y320D01*
X16013D01*
X16023Y310D01*
Y290D01*
X16013Y280D01*
X15993D01*
X15983Y290D01*
X16043Y280D02*
Y320D01*
X16053D01*
X16063Y310D01*
Y280D01*
Y310D01*
X16073Y320D01*
X16083Y310D01*
Y280D01*
X16103D02*
X16123D01*
X16113D01*
Y320D01*
X16103D01*
X16153Y280D02*
X16173D01*
X16163D01*
Y340D01*
X16153D01*
X16283Y280D02*
X16263Y300D01*
Y320D01*
X16283Y340D01*
X16313Y280D02*
X16333D01*
X16323D01*
Y340D01*
X16313Y330D01*
X16363Y280D02*
Y290D01*
X16373D01*
Y280D01*
X16363D01*
X16413Y290D02*
X16423Y280D01*
X16443D01*
X16453Y290D01*
Y330D01*
X16443Y340D01*
X16423D01*
X16413Y330D01*
Y320D01*
X16423Y310D01*
X16453D01*
X16473Y330D02*
X16483Y340D01*
X16503D01*
X16513Y330D01*
Y290D01*
X16503Y280D01*
X16483D01*
X16473Y290D01*
Y330D01*
X16573Y340D02*
X16533D01*
Y310D01*
X16553Y320D01*
X16563D01*
X16573Y310D01*
Y290D01*
X16563Y280D01*
X16543D01*
X16533Y290D01*
X16593Y280D02*
Y320D01*
X16603D01*
X16613Y310D01*
Y280D01*
Y310D01*
X16623Y320D01*
X16633Y310D01*
Y280D01*
X16653D02*
Y320D01*
X16663D01*
X16673Y310D01*
Y280D01*
Y310D01*
X16683Y320D01*
X16693Y310D01*
Y280D01*
X16713D02*
X16733Y300D01*
Y320D01*
X16713Y340D01*
X17135Y280D02*
Y340D01*
X17165D01*
X17175Y330D01*
Y310D01*
X17165Y300D01*
X17135D01*
X17195Y340D02*
X17235D01*
X17215D01*
Y280D01*
X17255Y340D02*
Y280D01*
Y310D01*
X17295D01*
Y340D01*
Y280D01*
X17678Y330D02*
X17668Y340D01*
X17648D01*
X17638Y330D01*
Y320D01*
X17648Y310D01*
X17668D01*
X17678Y300D01*
Y290D01*
X17668Y280D01*
X17648D01*
X17638Y290D01*
X17698Y280D02*
X17718D01*
X17708D01*
Y340D01*
X17698D01*
X17758Y280D02*
X17778D01*
X17788Y290D01*
Y310D01*
X17778Y320D01*
X17758D01*
X17748Y310D01*
Y290D01*
X17758Y280D01*
X17818Y330D02*
Y320D01*
X17808D01*
X17828D01*
X17818D01*
Y290D01*
X17828Y280D01*
X12784Y160D02*
X12744D01*
X12784Y200D01*
Y210D01*
X12774Y220D01*
X12754D01*
X12744Y210D01*
X13440Y220D02*
X13480D01*
Y210D01*
X13440Y170D01*
Y160D01*
X13500Y210D02*
X13510Y220D01*
X13530D01*
X13540Y210D01*
Y200D01*
X13530Y190D01*
X13540Y180D01*
Y170D01*
X13530Y160D01*
X13510D01*
X13500Y170D01*
Y180D01*
X13510Y190D01*
X13500Y200D01*
Y210D01*
X13510Y190D02*
X13530D01*
X13560Y160D02*
Y170D01*
X13570D01*
Y160D01*
X13560D01*
X13610Y220D02*
X13650D01*
Y210D01*
X13610Y170D01*
Y160D01*
X13700D02*
Y220D01*
X13670Y190D01*
X13710D01*
X13730Y160D02*
Y200D01*
X13740D01*
X13750Y190D01*
Y160D01*
Y190D01*
X13760Y200D01*
X13770Y190D01*
Y160D01*
X13790D02*
X13810D01*
X13800D01*
Y200D01*
X13790D01*
X13840Y160D02*
X13860D01*
X13850D01*
Y220D01*
X13840D01*
X13970Y160D02*
X13950Y180D01*
Y200D01*
X13970Y220D01*
X14039Y160D02*
X14000D01*
X14039Y200D01*
Y210D01*
X14029Y220D01*
X14010D01*
X14000Y210D01*
X14059Y160D02*
Y200D01*
X14069D01*
X14079Y190D01*
Y160D01*
Y190D01*
X14089Y200D01*
X14099Y190D01*
Y160D01*
X14119D02*
Y200D01*
X14129D01*
X14139Y190D01*
Y160D01*
Y190D01*
X14149Y200D01*
X14159Y190D01*
Y160D01*
X14179D02*
X14199Y180D01*
Y200D01*
X14179Y220D01*
X14823Y160D02*
X14783D01*
X14823Y200D01*
Y210D01*
X14813Y220D01*
X14793D01*
X14783Y210D01*
X14843Y220D02*
X14883D01*
Y210D01*
X14843Y170D01*
Y160D01*
X14943Y220D02*
X14903D01*
Y190D01*
X14923Y200D01*
X14933D01*
X14943Y190D01*
Y170D01*
X14933Y160D01*
X14913D01*
X14903Y170D01*
X14963Y160D02*
Y170D01*
X14973D01*
Y160D01*
X14963D01*
X15053Y220D02*
X15013D01*
Y190D01*
X15033Y200D01*
X15043D01*
X15053Y190D01*
Y170D01*
X15043Y160D01*
X15023D01*
X15013Y170D01*
X15073D02*
X15083Y160D01*
X15103D01*
X15113Y170D01*
Y210D01*
X15103Y220D01*
X15083D01*
X15073Y210D01*
Y200D01*
X15083Y190D01*
X15113D01*
X15133Y160D02*
X15153D01*
X15143D01*
Y220D01*
X15133Y210D01*
X15183Y160D02*
Y200D01*
X15193D01*
X15203Y190D01*
Y160D01*
Y190D01*
X15213Y200D01*
X15223Y190D01*
Y160D01*
X15243D02*
X15263D01*
X15253D01*
Y200D01*
X15243D01*
X15293Y160D02*
X15313D01*
X15303D01*
Y220D01*
X15293D01*
X15423Y160D02*
X15403Y180D01*
Y200D01*
X15423Y220D01*
X15453D02*
X15493D01*
Y210D01*
X15453Y170D01*
Y160D01*
X15513D02*
Y200D01*
X15523D01*
X15533Y190D01*
Y160D01*
Y190D01*
X15543Y200D01*
X15553Y190D01*
Y160D01*
X15573D02*
Y200D01*
X15583D01*
X15593Y190D01*
Y160D01*
Y190D01*
X15603Y200D01*
X15613Y190D01*
Y160D01*
X15633D02*
X15653Y180D01*
Y200D01*
X15633Y220D01*
X15923Y160D02*
X15943D01*
X15933D01*
Y220D01*
X15923Y210D01*
X15973Y170D02*
X15983Y160D01*
X16003D01*
X16013Y170D01*
Y210D01*
X16003Y220D01*
X15983D01*
X15973Y210D01*
Y200D01*
X15983Y190D01*
X16013D01*
X16073Y220D02*
X16053Y210D01*
X16033Y190D01*
Y170D01*
X16043Y160D01*
X16063D01*
X16073Y170D01*
Y180D01*
X16063Y190D01*
X16033D01*
X16093Y160D02*
Y170D01*
X16103D01*
Y160D01*
X16093D01*
X16143Y210D02*
X16153Y220D01*
X16173D01*
X16183Y210D01*
Y200D01*
X16173Y190D01*
X16183Y180D01*
Y170D01*
X16173Y160D01*
X16153D01*
X16143Y170D01*
Y180D01*
X16153Y190D01*
X16143Y200D01*
Y210D01*
X16153Y190D02*
X16173D01*
X16243Y220D02*
X16203D01*
Y190D01*
X16223Y200D01*
X16233D01*
X16243Y190D01*
Y170D01*
X16233Y160D01*
X16213D01*
X16203Y170D01*
X16263Y160D02*
Y200D01*
X16273D01*
X16283Y190D01*
Y160D01*
Y190D01*
X16293Y200D01*
X16303Y190D01*
Y160D01*
X16323D02*
X16343D01*
X16333D01*
Y200D01*
X16323D01*
X16373Y160D02*
X16393D01*
X16383D01*
Y220D01*
X16373D01*
X16503Y160D02*
X16483Y180D01*
Y200D01*
X16503Y220D01*
X16573D02*
X16533D01*
Y190D01*
X16553Y200D01*
X16563D01*
X16573Y190D01*
Y170D01*
X16563Y160D01*
X16543D01*
X16533Y170D01*
X16593Y160D02*
Y200D01*
X16603D01*
X16613Y190D01*
Y160D01*
Y190D01*
X16623Y200D01*
X16633Y190D01*
Y160D01*
X16653D02*
Y200D01*
X16663D01*
X16673Y190D01*
Y160D01*
Y190D01*
X16683Y200D01*
X16693Y190D01*
Y160D01*
X16713D02*
X16733Y180D01*
Y200D01*
X16713Y220D01*
X17135Y160D02*
Y220D01*
X17175Y160D01*
Y220D01*
X17195Y160D02*
Y220D01*
X17225D01*
X17235Y210D01*
Y190D01*
X17225Y180D01*
X17195D01*
X17255Y220D02*
X17295D01*
X17275D01*
Y160D01*
X17315Y220D02*
Y160D01*
Y190D01*
X17355D01*
Y220D01*
Y160D01*
X17678Y210D02*
X17668Y220D01*
X17648D01*
X17638Y210D01*
Y200D01*
X17648Y190D01*
X17668D01*
X17678Y180D01*
Y170D01*
X17668Y160D01*
X17648D01*
X17638Y170D01*
X17698Y160D02*
X17718D01*
X17708D01*
Y220D01*
X17698D01*
X17758Y160D02*
X17778D01*
X17788Y170D01*
Y190D01*
X17778Y200D01*
X17758D01*
X17748Y190D01*
Y170D01*
X17758Y160D01*
X17818Y210D02*
Y200D01*
X17808D01*
X17828D01*
X17818D01*
Y170D01*
X17828Y160D01*
X12784Y40D02*
X12744D01*
X12784Y80D01*
Y90D01*
X12774Y100D01*
X12754D01*
X12744Y90D01*
X12844Y100D02*
X12824Y90D01*
X12804Y70D01*
Y50D01*
X12814Y40D01*
X12834D01*
X12844Y50D01*
Y60D01*
X12834Y70D01*
X12804D01*
X12864Y50D02*
X12874Y40D01*
X12894D01*
X12904Y50D01*
Y90D01*
X12894Y100D01*
X12874D01*
X12864Y90D01*
Y80D01*
X12874Y70D01*
X12904D01*
X13012Y100D02*
X13052D01*
X13032D01*
Y40D01*
X13082D02*
X13102D01*
X13112Y50D01*
Y70D01*
X13102Y80D01*
X13082D01*
X13072Y70D01*
Y50D01*
X13082Y40D01*
X13142Y90D02*
Y80D01*
X13132D01*
X13152D01*
X13142D01*
Y50D01*
X13152Y40D01*
X13192Y80D02*
X13212D01*
X13222Y70D01*
Y40D01*
X13192D01*
X13182Y50D01*
X13192Y60D01*
X13222D01*
X13242Y40D02*
X13262D01*
X13252D01*
Y100D01*
X13242D01*
X14313Y-60D02*
X14353D01*
X14313Y-40D02*
X14353D01*
X14473Y-30D02*
X14463Y-20D01*
X14443D01*
X14433Y-30D01*
Y-70D01*
X14443Y-80D01*
X14463D01*
X14473Y-70D01*
X14503Y-40D02*
X14523D01*
X14533Y-50D01*
Y-80D01*
X14503D01*
X14493Y-70D01*
X14503Y-60D01*
X14533D01*
X14553Y-80D02*
X14573D01*
X14563D01*
Y-20D01*
X14553D01*
X14643Y-40D02*
X14613D01*
X14603Y-50D01*
Y-70D01*
X14613Y-80D01*
X14643D01*
X14663Y-40D02*
Y-70D01*
X14673Y-80D01*
X14703D01*
Y-40D01*
X14723Y-80D02*
X14743D01*
X14733D01*
Y-20D01*
X14723D01*
X14783Y-40D02*
X14803D01*
X14813Y-50D01*
Y-80D01*
X14783D01*
X14773Y-70D01*
X14783Y-60D01*
X14813D01*
X14843Y-30D02*
Y-40D01*
X14833D01*
X14853D01*
X14843D01*
Y-70D01*
X14853Y-80D01*
X14913D02*
X14893D01*
X14883Y-70D01*
Y-50D01*
X14893Y-40D01*
X14913D01*
X14923Y-50D01*
Y-60D01*
X14883D01*
X14983Y-20D02*
Y-80D01*
X14953D01*
X14943Y-70D01*
Y-50D01*
X14953Y-40D01*
X14983D01*
X15073Y-80D02*
Y-30D01*
Y-50D01*
X15063D01*
X15083D01*
X15073D01*
Y-30D01*
X15083Y-20D01*
X15113Y-40D02*
Y-80D01*
Y-60D01*
X15123Y-50D01*
X15133Y-40D01*
X15143D01*
X15183Y-80D02*
X15203D01*
X15213Y-70D01*
Y-50D01*
X15203Y-40D01*
X15183D01*
X15173Y-50D01*
Y-70D01*
X15183Y-80D01*
X15233D02*
Y-40D01*
X15243D01*
X15253Y-50D01*
Y-80D01*
Y-50D01*
X15263Y-40D01*
X15273Y-50D01*
Y-80D01*
X15363Y-30D02*
Y-40D01*
X15353D01*
X15373D01*
X15363D01*
Y-70D01*
X15373Y-80D01*
X15413D02*
X15433D01*
X15443Y-70D01*
Y-50D01*
X15433Y-40D01*
X15413D01*
X15403Y-50D01*
Y-70D01*
X15413Y-80D01*
X15473D02*
X15493D01*
X15503Y-70D01*
Y-50D01*
X15493Y-40D01*
X15473D01*
X15463Y-50D01*
Y-70D01*
X15473Y-80D01*
X15523D02*
X15543D01*
X15533D01*
Y-20D01*
X15523D01*
X15633Y-80D02*
X15663D01*
X15673Y-70D01*
X15663Y-60D01*
X15643D01*
X15633Y-50D01*
X15643Y-40D01*
X15673D01*
X15703Y-30D02*
Y-40D01*
X15693D01*
X15713D01*
X15703D01*
Y-70D01*
X15713Y-80D01*
X15753Y-40D02*
X15773D01*
X15783Y-50D01*
Y-80D01*
X15753D01*
X15743Y-70D01*
X15753Y-60D01*
X15783D01*
X15803Y-40D02*
Y-80D01*
Y-60D01*
X15813Y-50D01*
X15823Y-40D01*
X15833D01*
X15873Y-30D02*
Y-40D01*
X15863D01*
X15883D01*
X15873D01*
Y-70D01*
X15883Y-80D01*
X16013Y-40D02*
X15983D01*
X15973Y-50D01*
Y-70D01*
X15983Y-80D01*
X16013D01*
X16063D02*
X16043D01*
X16033Y-70D01*
Y-50D01*
X16043Y-40D01*
X16063D01*
X16073Y-50D01*
Y-60D01*
X16033D01*
X16093Y-80D02*
Y-40D01*
X16123D01*
X16133Y-50D01*
Y-80D01*
X16163Y-30D02*
Y-40D01*
X16153D01*
X16173D01*
X16163D01*
Y-70D01*
X16173Y-80D01*
X16203Y-40D02*
Y-80D01*
Y-60D01*
X16213Y-50D01*
X16223Y-40D01*
X16233D01*
X16293Y-80D02*
X16273D01*
X16263Y-70D01*
Y-50D01*
X16273Y-40D01*
X16293D01*
X16303Y-50D01*
Y-60D01*
X16263D01*
X16383Y-100D02*
Y-40D01*
X16413D01*
X16423Y-50D01*
Y-70D01*
X16413Y-80D01*
X16383D01*
X16453D02*
X16473D01*
X16483Y-70D01*
Y-50D01*
X16473Y-40D01*
X16453D01*
X16443Y-50D01*
Y-70D01*
X16453Y-80D01*
X16503D02*
X16533D01*
X16543Y-70D01*
X16533Y-60D01*
X16513D01*
X16503Y-50D01*
X16513Y-40D01*
X16543D01*
X16563Y-80D02*
X16583D01*
X16573D01*
Y-40D01*
X16563D01*
X16623Y-30D02*
Y-40D01*
X16613D01*
X16633D01*
X16623D01*
Y-70D01*
X16633Y-80D01*
X16663D02*
X16683D01*
X16673D01*
Y-40D01*
X16663D01*
X16723Y-80D02*
X16743D01*
X16753Y-70D01*
Y-50D01*
X16743Y-40D01*
X16723D01*
X16713Y-50D01*
Y-70D01*
X16723Y-80D01*
X16773D02*
Y-40D01*
X16803D01*
X16813Y-50D01*
Y-80D01*
X16903Y-30D02*
Y-40D01*
X16893D01*
X16913D01*
X16903D01*
Y-70D01*
X16913Y-80D01*
X16953D02*
X16973D01*
X16983Y-70D01*
Y-50D01*
X16973Y-40D01*
X16953D01*
X16943Y-50D01*
Y-70D01*
X16953Y-80D01*
X17072Y-30D02*
Y-40D01*
X17062D01*
X17082D01*
X17072D01*
Y-70D01*
X17082Y-80D01*
X17122D02*
X17142D01*
X17152Y-70D01*
Y-50D01*
X17142Y-40D01*
X17122D01*
X17112Y-50D01*
Y-70D01*
X17122Y-80D01*
X17182D02*
X17202D01*
X17212Y-70D01*
Y-50D01*
X17202Y-40D01*
X17182D01*
X17172Y-50D01*
Y-70D01*
X17182Y-80D01*
X17232D02*
X17252D01*
X17242D01*
Y-20D01*
X17232D01*
X17372Y-80D02*
X17352D01*
X17342Y-70D01*
Y-50D01*
X17352Y-40D01*
X17372D01*
X17382Y-50D01*
Y-60D01*
X17342D01*
X17402Y-80D02*
Y-40D01*
X17432D01*
X17442Y-50D01*
Y-80D01*
X17502Y-20D02*
Y-80D01*
X17472D01*
X17462Y-70D01*
Y-50D01*
X17472Y-40D01*
X17502D01*
X17622D02*
X17592D01*
X17582Y-50D01*
Y-70D01*
X17592Y-80D01*
X17622D01*
X17672D02*
X17652D01*
X17642Y-70D01*
Y-50D01*
X17652Y-40D01*
X17672D01*
X17682Y-50D01*
Y-60D01*
X17642D01*
X17702Y-80D02*
Y-40D01*
X17732D01*
X17742Y-50D01*
Y-80D01*
X17772Y-30D02*
Y-40D01*
X17762D01*
X17782D01*
X17772D01*
Y-70D01*
X17782Y-80D01*
X17812Y-40D02*
Y-80D01*
Y-60D01*
X17822Y-50D01*
X17832Y-40D01*
X17842D01*
X17902Y-80D02*
X17882D01*
X17872Y-70D01*
Y-50D01*
X17882Y-40D01*
X17902D01*
X17912Y-50D01*
Y-60D01*
X17872D01*
X17992Y-100D02*
Y-40D01*
X18022D01*
X18032Y-50D01*
Y-70D01*
X18022Y-80D01*
X17992D01*
X18062D02*
X18082D01*
X18092Y-70D01*
Y-50D01*
X18082Y-40D01*
X18062D01*
X18052Y-50D01*
Y-70D01*
X18062Y-80D01*
X18112D02*
X18142D01*
X18152Y-70D01*
X18142Y-60D01*
X18122D01*
X18112Y-50D01*
X18122Y-40D01*
X18152D01*
X18172Y-80D02*
X18192D01*
X18182D01*
Y-40D01*
X18172D01*
X18232Y-30D02*
Y-40D01*
X18222D01*
X18242D01*
X18232D01*
Y-70D01*
X18242Y-80D01*
X18272D02*
X18292D01*
X18282D01*
Y-40D01*
X18272D01*
X18332Y-80D02*
X18352D01*
X18362Y-70D01*
Y-50D01*
X18352Y-40D01*
X18332D01*
X18322Y-50D01*
Y-70D01*
X18332Y-80D01*
X18382D02*
Y-40D01*
X18412D01*
X18422Y-50D01*
Y-80D01*
X18442D02*
Y-70D01*
X18452D01*
Y-80D01*
X18442D01*
X14313Y-180D02*
X14353D01*
X14313Y-160D02*
X14353D01*
X14433Y-200D02*
Y-140D01*
X14463D01*
X14473Y-150D01*
Y-170D01*
X14463Y-180D01*
X14433D01*
X14453D02*
X14473Y-200D01*
X14503D02*
X14523D01*
X14533Y-190D01*
Y-170D01*
X14523Y-160D01*
X14503D01*
X14493Y-170D01*
Y-190D01*
X14503Y-200D01*
X14553Y-160D02*
Y-190D01*
X14563Y-200D01*
X14593D01*
Y-160D01*
X14623Y-150D02*
Y-160D01*
X14613D01*
X14633D01*
X14623D01*
Y-190D01*
X14633Y-200D01*
X14723D02*
Y-140D01*
X14753D01*
X14763Y-150D01*
Y-170D01*
X14753Y-180D01*
X14723D01*
X14793Y-160D02*
X14813D01*
X14823Y-170D01*
Y-200D01*
X14793D01*
X14783Y-190D01*
X14793Y-180D01*
X14823D01*
X14853Y-150D02*
Y-160D01*
X14843D01*
X14863D01*
X14853D01*
Y-190D01*
X14863Y-200D01*
X14893Y-140D02*
Y-200D01*
Y-170D01*
X14903Y-160D01*
X14923D01*
X14933Y-170D01*
Y-200D01*
X15013Y-140D02*
Y-200D01*
X15053D01*
X15103D02*
X15083D01*
X15073Y-190D01*
Y-170D01*
X15083Y-160D01*
X15103D01*
X15113Y-170D01*
Y-180D01*
X15073D01*
X15133Y-200D02*
Y-160D01*
X15163D01*
X15173Y-170D01*
Y-200D01*
X15213Y-220D02*
X15223D01*
X15233Y-210D01*
Y-160D01*
X15203D01*
X15193Y-170D01*
Y-190D01*
X15203Y-200D01*
X15233D01*
X15263Y-150D02*
Y-160D01*
X15253D01*
X15273D01*
X15263D01*
Y-190D01*
X15273Y-200D01*
X15303Y-140D02*
Y-200D01*
Y-170D01*
X15313Y-160D01*
X15333D01*
X15343Y-170D01*
Y-200D01*
X15423Y-170D02*
X15463D01*
X15443Y-150D02*
Y-190D01*
X15543Y-140D02*
X15583D01*
X15563D01*
Y-200D01*
X15613D02*
X15633D01*
X15643Y-190D01*
Y-170D01*
X15633Y-160D01*
X15613D01*
X15603Y-170D01*
Y-190D01*
X15613Y-200D01*
X15673D02*
X15693D01*
X15703Y-190D01*
Y-170D01*
X15693Y-160D01*
X15673D01*
X15663Y-170D01*
Y-190D01*
X15673Y-200D01*
X15723D02*
X15743D01*
X15733D01*
Y-140D01*
X15723D01*
X15873Y-150D02*
X15863Y-140D01*
X15843D01*
X15833Y-150D01*
Y-160D01*
X15843Y-170D01*
X15863D01*
X15873Y-180D01*
Y-190D01*
X15863Y-200D01*
X15843D01*
X15833Y-190D01*
X15893Y-200D02*
X15913D01*
X15903D01*
Y-160D01*
X15893D01*
X15943D02*
X15983D01*
X15943Y-200D01*
X15983D01*
X16033D02*
X16013D01*
X16003Y-190D01*
Y-170D01*
X16013Y-160D01*
X16033D01*
X16043Y-170D01*
Y-180D01*
X16003D01*
X16123D02*
X16163D01*
X16123Y-160D02*
X16163D01*
X16283Y-150D02*
X16273Y-140D01*
X16253D01*
X16243Y-150D01*
Y-160D01*
X16253Y-170D01*
X16273D01*
X16283Y-180D01*
Y-190D01*
X16273Y-200D01*
X16253D01*
X16243Y-190D01*
X16303Y-200D02*
X16323D01*
X16313D01*
Y-140D01*
X16303D01*
X16363Y-200D02*
X16383D01*
X16393Y-190D01*
Y-170D01*
X16383Y-160D01*
X16363D01*
X16353Y-170D01*
Y-190D01*
X16363Y-200D01*
X16423Y-150D02*
Y-160D01*
X16413D01*
X16433D01*
X16423D01*
Y-190D01*
X16433Y-200D01*
X16523D02*
X16543D01*
X16533D01*
Y-140D01*
X16523D01*
X16603Y-200D02*
X16583D01*
X16573Y-190D01*
Y-170D01*
X16583Y-160D01*
X16603D01*
X16613Y-170D01*
Y-180D01*
X16573D01*
X16633Y-200D02*
Y-160D01*
X16663D01*
X16673Y-170D01*
Y-200D01*
X16713Y-220D02*
X16723D01*
X16733Y-210D01*
Y-160D01*
X16703D01*
X16693Y-170D01*
Y-190D01*
X16703Y-200D01*
X16733D01*
X16763Y-150D02*
Y-160D01*
X16753D01*
X16773D01*
X16763D01*
Y-190D01*
X16773Y-200D01*
X16803Y-140D02*
Y-200D01*
Y-170D01*
X16813Y-160D01*
X16833D01*
X16843Y-170D01*
Y-200D01*
X16933Y-160D02*
X16953D01*
X16963Y-170D01*
Y-200D01*
X16933D01*
X16923Y-190D01*
X16933Y-180D01*
X16963D01*
X16983Y-200D02*
X17013D01*
X17022Y-190D01*
X17013Y-180D01*
X16993D01*
X16983Y-170D01*
X16993Y-160D01*
X17022D01*
X17142Y-140D02*
Y-200D01*
X17112D01*
X17102Y-190D01*
Y-170D01*
X17112Y-160D01*
X17142D01*
X17192Y-200D02*
X17172D01*
X17162Y-190D01*
Y-170D01*
X17172Y-160D01*
X17192D01*
X17202Y-170D01*
Y-180D01*
X17162D01*
X17232Y-200D02*
Y-150D01*
Y-170D01*
X17222D01*
X17242D01*
X17232D01*
Y-150D01*
X17242Y-140D01*
X17272Y-200D02*
X17292D01*
X17282D01*
Y-160D01*
X17272D01*
X17322Y-200D02*
Y-160D01*
X17352D01*
X17362Y-170D01*
Y-200D01*
X17412D02*
X17392D01*
X17382Y-190D01*
Y-170D01*
X17392Y-160D01*
X17412D01*
X17422Y-170D01*
Y-180D01*
X17382D01*
X17482Y-140D02*
Y-200D01*
X17452D01*
X17442Y-190D01*
Y-170D01*
X17452Y-160D01*
X17482D01*
X17562Y-200D02*
X17582D01*
X17572D01*
Y-160D01*
X17562D01*
X17612Y-200D02*
Y-160D01*
X17642D01*
X17652Y-170D01*
Y-200D01*
X17742Y-150D02*
Y-160D01*
X17732D01*
X17752D01*
X17742D01*
Y-190D01*
X17752Y-200D01*
X17782Y-140D02*
Y-200D01*
Y-170D01*
X17792Y-160D01*
X17812D01*
X17822Y-170D01*
Y-200D01*
X17872D02*
X17852D01*
X17842Y-190D01*
Y-170D01*
X17852Y-160D01*
X17872D01*
X17882Y-170D01*
Y-180D01*
X17842D01*
X17962Y-200D02*
Y-140D01*
X17992D01*
X18002Y-150D01*
Y-170D01*
X17992Y-180D01*
X17962D01*
X18062Y-150D02*
X18052Y-140D01*
X18032D01*
X18022Y-150D01*
Y-190D01*
X18032Y-200D01*
X18052D01*
X18062Y-190D01*
X18082Y-140D02*
Y-200D01*
X18112D01*
X18122Y-190D01*
Y-180D01*
X18112Y-170D01*
X18082D01*
X18112D01*
X18122Y-160D01*
Y-150D01*
X18112Y-140D01*
X18082D01*
X18202Y-200D02*
X18222D01*
X18212D01*
Y-140D01*
X18202D01*
X18262Y-160D02*
X18282D01*
X18292Y-170D01*
Y-200D01*
X18262D01*
X18252Y-190D01*
X18262Y-180D01*
X18292D01*
X18312Y-160D02*
Y-190D01*
X18322Y-200D01*
X18352D01*
Y-210D01*
X18342Y-220D01*
X18332D01*
X18352Y-200D02*
Y-160D01*
X18382Y-200D02*
X18402D01*
X18412Y-190D01*
Y-170D01*
X18402Y-160D01*
X18382D01*
X18372Y-170D01*
Y-190D01*
X18382Y-200D01*
X18432Y-160D02*
Y-190D01*
X18442Y-200D01*
X18472D01*
Y-160D01*
X18502Y-150D02*
Y-160D01*
X18492D01*
X18512D01*
X18502D01*
Y-190D01*
X18512Y-200D01*
D115*
X2553Y4453D02*
Y4493D01*
X2593D01*
Y4453D01*
X2553D01*
Y4375D02*
Y4415D01*
X2593D01*
Y4375D01*
X2553D01*
Y4296D02*
Y4336D01*
X2593D01*
Y4296D01*
X2553D01*
Y4217D02*
Y4257D01*
X2593D01*
Y4217D01*
X2553D01*
Y4138D02*
Y4178D01*
X2593D01*
Y4138D01*
X2553D01*
Y4060D02*
Y4100D01*
X2593D01*
Y4060D01*
X2553D01*
Y3981D02*
Y4021D01*
X2593D01*
Y3981D01*
X2553D01*
Y3902D02*
Y3942D01*
X2593D01*
Y3902D01*
X2553D01*
Y3824D02*
Y3864D01*
X2593D01*
Y3824D01*
X2553D01*
Y3745D02*
Y3785D01*
X2593D01*
Y3745D01*
X2553D01*
Y3666D02*
Y3706D01*
X2593D01*
Y3666D01*
X2553D01*
Y3587D02*
Y3627D01*
X2593D01*
Y3587D01*
X2553D01*
X1325Y4453D02*
Y4493D01*
X1365D01*
Y4453D01*
X1325D01*
Y4375D02*
Y4415D01*
X1365D01*
Y4375D01*
X1325D01*
Y4296D02*
Y4336D01*
X1365D01*
Y4296D01*
X1325D01*
Y4217D02*
Y4257D01*
X1365D01*
Y4217D01*
X1325D01*
Y4138D02*
Y4178D01*
X1365D01*
Y4138D01*
X1325D01*
Y4060D02*
Y4100D01*
X1365D01*
Y4060D01*
X1325D01*
Y3981D02*
Y4021D01*
X1365D01*
Y3981D01*
X1325D01*
Y3902D02*
Y3942D01*
X1365D01*
Y3902D01*
X1325D01*
Y3824D02*
Y3864D01*
X1365D01*
Y3824D01*
X1325D01*
Y3745D02*
Y3785D01*
X1365D01*
Y3745D01*
X1325D01*
Y3666D02*
Y3706D01*
X1365D01*
Y3666D01*
X1325D01*
Y3587D02*
Y3627D01*
X1365D01*
Y3587D01*
X1325D01*
X1458Y3173D02*
X1438Y3213D01*
X1478D01*
X1458Y3173D01*
X1558D02*
X1538Y3213D01*
X1578D01*
X1558Y3173D01*
X1250Y2450D02*
Y2490D01*
X1290D01*
Y2450D01*
X1250D01*
X1782Y1392D02*
X1792Y1402D01*
X1802D01*
X1792Y1412D01*
X1802Y1422D01*
X1792D01*
X1782Y1432D01*
X1772Y1422D01*
X1762D01*
X1772Y1412D01*
X1762Y1402D01*
X1772D01*
X1782Y1392D01*
X1582D02*
X1592Y1402D01*
X1602D01*
X1592Y1412D01*
X1602Y1422D01*
X1592D01*
X1582Y1432D01*
X1572Y1422D01*
X1562D01*
X1572Y1412D01*
X1562Y1402D01*
X1572D01*
X1582Y1392D01*
X1382D02*
X1392Y1402D01*
X1402D01*
X1392Y1412D01*
X1402Y1422D01*
X1392D01*
X1382Y1432D01*
X1372Y1422D01*
X1362D01*
X1372Y1412D01*
X1362Y1402D01*
X1372D01*
X1382Y1392D01*
X1185Y830D02*
X1165Y870D01*
X1205D01*
X1185Y830D01*
X1085D02*
X1065Y870D01*
X1105D01*
X1085Y830D01*
X3171Y3240D02*
X3181Y3260D01*
X3171Y3280D01*
X3191Y3270D01*
X3211Y3280D01*
X3201Y3260D01*
X3211Y3240D01*
X3191Y3250D01*
X3171Y3240D01*
X3171Y3122D02*
X3181Y3142D01*
X3171Y3162D01*
X3191Y3152D01*
X3211Y3162D01*
X3201Y3142D01*
X3211Y3122D01*
X3191Y3132D01*
X3171Y3122D01*
X3258Y3368D02*
Y3358D01*
X3278D01*
Y3368D01*
X3288D01*
Y3388D01*
X3278D01*
Y3398D01*
X3258D01*
Y3388D01*
X3248D01*
Y3368D01*
X3258D01*
Y3014D02*
Y3004D01*
X3278D01*
Y3014D01*
X3288D01*
Y3034D01*
X3278D01*
Y3044D01*
X3258D01*
Y3034D01*
X3248D01*
Y3014D01*
X3258D01*
X117Y184D02*
X127D01*
X137Y194D01*
X147Y184D01*
X157D01*
Y194D01*
X147Y204D01*
X157Y214D01*
Y224D01*
X147D01*
X137Y214D01*
X127Y224D01*
X117D01*
Y214D01*
X127Y204D01*
X117Y194D01*
Y184D01*
X117Y2735D02*
X127D01*
X137Y2745D01*
X147Y2735D01*
X157D01*
Y2745D01*
X147Y2755D01*
X157Y2765D01*
Y2775D01*
X147D01*
X137Y2765D01*
X127Y2775D01*
X117D01*
Y2765D01*
X127Y2755D01*
X117Y2745D01*
Y2735D01*
Y3491D02*
X127D01*
X137Y3501D01*
X147Y3491D01*
X157D01*
Y3501D01*
X147Y3511D01*
X157Y3521D01*
Y3531D01*
X147D01*
X137Y3521D01*
X127Y3531D01*
X117D01*
Y3521D01*
X127Y3511D01*
X117Y3501D01*
Y3491D01*
X590Y2117D02*
X610Y2137D01*
X630Y2117D01*
X610Y2097D01*
X590Y2117D01*
X3145D02*
X3165Y2137D01*
X3185Y2117D01*
X3165Y2097D01*
X3145Y2117D01*
X3029Y3311D02*
Y3351D01*
X3069D01*
Y3311D01*
X3029D01*
X3037Y3319D02*
Y3343D01*
X3061D01*
Y3319D01*
X3037D01*
X1125Y3985D02*
Y4025D01*
X1165D01*
Y3985D01*
X1125D01*
Y4085D02*
Y4125D01*
X1165D01*
Y4085D01*
X1125D01*
Y4186D02*
Y4226D01*
X1165D01*
Y4186D01*
X1125D01*
X1126Y4295D02*
Y4335D01*
X1166D01*
Y4295D01*
X1126D01*
X2830Y4180D02*
Y4220D01*
X2870D01*
Y4180D01*
X2830D01*
X2730Y3580D02*
Y3620D01*
X2770D01*
Y3580D01*
X2730D01*
X530Y3430D02*
Y3470D01*
X570D01*
Y3430D01*
X530D01*
X1180Y3280D02*
Y3320D01*
X1220D01*
Y3280D01*
X1180D01*
X2730Y3075D02*
Y3115D01*
X2770D01*
Y3075D01*
X2730D01*
X3280Y3755D02*
Y3795D01*
X3320D01*
Y3755D01*
X3280D01*
X1530Y2080D02*
Y2120D01*
X1570D01*
Y2080D01*
X1530D01*
X1899Y2255D02*
Y2295D01*
X1939D01*
Y2255D01*
X1899D01*
X2730Y4130D02*
Y4170D01*
X2770D01*
Y4130D01*
X2730D01*
X2255Y2905D02*
Y2945D01*
X2295D01*
Y2905D01*
X2255D01*
X2180Y2980D02*
Y3020D01*
X2220D01*
Y2980D01*
X2180D01*
X1630Y2930D02*
Y2970D01*
X1670D01*
Y2930D01*
X1630D01*
X280Y2730D02*
Y2770D01*
X320D01*
Y2730D01*
X280D01*
X2433Y2815D02*
X2413Y2855D01*
X2453D01*
X2433Y2815D01*
Y2823D02*
X2421Y2847D01*
X2445D01*
X2433Y2823D01*
X1700Y2815D02*
X1680Y2855D01*
X1720D01*
X1700Y2815D01*
Y2823D02*
X1688Y2847D01*
X1712D01*
X1700Y2823D01*
X2914Y2510D02*
X2924Y2520D01*
X2934D01*
X2924Y2530D01*
X2934Y2540D01*
X2924D01*
X2914Y2550D01*
X2904Y2540D01*
X2894D01*
X2904Y2530D01*
X2894Y2520D01*
X2904D01*
X2914Y2510D01*
Y2518D02*
X2920Y2524D01*
X2926D01*
X2920Y2530D01*
X2926Y2536D01*
X2920D01*
X2914Y2542D01*
X2908Y2536D01*
X2902D01*
X2908Y2530D01*
X2902Y2524D01*
X2908D01*
X2914Y2518D01*
X2966Y2510D02*
X2976Y2530D01*
X2966Y2550D01*
X2986Y2540D01*
X3006Y2550D01*
X2996Y2530D01*
X3006Y2510D01*
X2986Y2520D01*
X2966Y2510D01*
X2974Y2518D02*
X2980Y2530D01*
X2974Y2542D01*
X2986Y2536D01*
X2998Y2542D01*
X2992Y2530D01*
X2998Y2518D01*
X2986Y2524D01*
X2974Y2518D01*
X2429Y2207D02*
X2409Y2247D01*
X2449D01*
X2429Y2207D01*
Y2215D02*
X2417Y2239D01*
X2441D01*
X2429Y2215D01*
X1696Y2207D02*
X1676Y2247D01*
X1716D01*
X1696Y2207D01*
Y2215D02*
X1684Y2239D01*
X1708D01*
X1696Y2215D01*
X965Y2815D02*
X945Y2855D01*
X985D01*
X965Y2815D01*
Y2823D02*
X953Y2847D01*
X977D01*
X965Y2823D01*
X961Y2207D02*
X941Y2247D01*
X981D01*
X961Y2207D01*
Y2215D02*
X949Y2239D01*
X973D01*
X961Y2215D01*
X487Y2510D02*
X497Y2520D01*
X507D01*
X497Y2530D01*
X507Y2540D01*
X497D01*
X487Y2550D01*
X477Y2540D01*
X467D01*
X477Y2530D01*
X467Y2520D01*
X477D01*
X487Y2510D01*
Y2518D02*
X493Y2524D01*
X499D01*
X493Y2530D01*
X499Y2536D01*
X493D01*
X487Y2542D01*
X481Y2536D01*
X475D01*
X481Y2530D01*
X475Y2524D01*
X481D01*
X487Y2518D01*
X395Y2510D02*
X405Y2530D01*
X395Y2550D01*
X415Y2540D01*
X435Y2550D01*
X425Y2530D01*
X435Y2510D01*
X415Y2520D01*
X395Y2510D01*
X403Y2518D02*
X409Y2530D01*
X403Y2542D01*
X415Y2536D01*
X427Y2542D01*
X421Y2530D01*
X427Y2518D01*
X415Y2524D01*
X403Y2518D01*
X750Y519D02*
Y509D01*
X770D01*
Y519D01*
X780D01*
Y539D01*
X770D01*
Y549D01*
X750D01*
Y539D01*
X740D01*
Y519D01*
X750D01*
X754Y523D02*
Y517D01*
X766D01*
Y523D01*
X772D01*
Y535D01*
X766D01*
Y541D01*
X754D01*
Y535D01*
X748D01*
Y523D01*
X754D01*
X1830Y4330D02*
Y4370D01*
X1870D01*
Y4330D01*
X1830D01*
Y3680D02*
Y3720D01*
X1870D01*
Y3680D01*
X1830D01*
X1580Y4180D02*
Y4220D01*
X1620D01*
Y4180D01*
X1580D01*
Y4380D02*
Y4420D01*
X1620D01*
Y4380D01*
X1580D01*
X1555Y3980D02*
Y4020D01*
X1595D01*
Y3980D01*
X1555D01*
X1600Y3448D02*
X1580Y3488D01*
X1620D01*
X1600Y3448D01*
X1500D02*
X1480Y3488D01*
X1520D01*
X1500Y3448D01*
X1400D02*
X1380Y3488D01*
X1420D01*
X1400Y3448D01*
X1300D02*
X1280Y3488D01*
X1320D01*
X1300Y3448D01*
X1580Y3630D02*
Y3670D01*
X1620D01*
Y3630D01*
X1580D01*
X1480D02*
Y3670D01*
X1520D01*
Y3630D01*
X1480D01*
X2118Y2789D02*
X2128D01*
X2138Y2799D01*
X2148Y2789D01*
X2158D01*
Y2799D01*
X2148Y2809D01*
X2158Y2819D01*
Y2829D01*
X2148D01*
X2138Y2819D01*
X2128Y2829D01*
X2118D01*
Y2819D01*
X2128Y2809D01*
X2118Y2799D01*
Y2789D01*
X2126Y2797D02*
X2132D01*
X2138Y2803D01*
X2144Y2797D01*
X2150D01*
Y2803D01*
X2144Y2809D01*
X2150Y2815D01*
Y2821D01*
X2144D01*
X2138Y2815D01*
X2132Y2821D01*
X2126D01*
Y2815D01*
X2132Y2809D01*
X2126Y2803D01*
Y2797D01*
X2360Y2334D02*
X2370D01*
X2380Y2344D01*
X2390Y2334D01*
X2400D01*
Y2344D01*
X2390Y2354D01*
X2400Y2364D01*
Y2374D01*
X2390D01*
X2380Y2364D01*
X2370Y2374D01*
X2360D01*
Y2364D01*
X2370Y2354D01*
X2360Y2344D01*
Y2334D01*
X2368Y2342D02*
X2374D01*
X2380Y2348D01*
X2386Y2342D01*
X2392D01*
Y2348D01*
X2386Y2354D01*
X2392Y2360D01*
Y2366D01*
X2386D01*
X2380Y2360D01*
X2374Y2366D01*
X2368D01*
Y2360D01*
X2374Y2354D01*
X2368Y2348D01*
Y2342D01*
X2026Y2350D02*
Y2383D01*
X2043Y2400D01*
X2059Y2383D01*
Y2350D01*
Y2375D01*
X2026D01*
X2255Y2810D02*
X2265D01*
X2275Y2820D01*
X2285Y2810D01*
X2295D01*
Y2820D01*
X2285Y2830D01*
X2295Y2840D01*
Y2850D01*
X2285D01*
X2275Y2840D01*
X2265Y2850D01*
X2255D01*
Y2840D01*
X2265Y2830D01*
X2255Y2820D01*
Y2810D01*
X2263Y2818D02*
X2269D01*
X2275Y2824D01*
X2281Y2818D01*
X2287D01*
Y2824D01*
X2281Y2830D01*
X2287Y2836D01*
Y2842D01*
X2281D01*
X2275Y2836D01*
X2269Y2842D01*
X2263D01*
Y2836D01*
X2269Y2830D01*
X2263Y2824D01*
Y2818D01*
X2151Y2867D02*
Y2900D01*
X2168Y2917D01*
X2185Y2900D01*
Y2867D01*
Y2892D01*
X2151D01*
X1888Y2390D02*
Y2423D01*
X1904Y2440D01*
X1921Y2423D01*
Y2390D01*
Y2415D01*
X1888D01*
X1788Y2390D02*
Y2423D01*
X1804Y2440D01*
X1821Y2423D01*
Y2390D01*
Y2415D01*
X1788D01*
X1670Y2450D02*
Y2483D01*
X1687Y2500D01*
X1703Y2483D01*
Y2450D01*
Y2475D01*
X1670D01*
Y2624D02*
Y2657D01*
X1687Y2674D01*
X1703Y2657D01*
Y2624D01*
Y2649D01*
X1670D01*
X1938Y2530D02*
Y2563D01*
X1954Y2580D01*
X1971Y2563D01*
Y2530D01*
Y2555D01*
X1938D01*
X2060Y2640D02*
Y2673D01*
X2077Y2690D01*
X2093Y2673D01*
Y2640D01*
Y2665D01*
X2060D01*
X1838Y2700D02*
Y2733D01*
X1854Y2750D01*
X1871Y2733D01*
Y2700D01*
Y2725D01*
X1838D01*
X2371Y2696D02*
Y2729D01*
X2387Y2746D01*
X2404Y2729D01*
Y2696D01*
Y2721D01*
X2371D01*
X1480Y2722D02*
X1490D01*
X1500Y2732D01*
X1510Y2722D01*
X1520D01*
Y2732D01*
X1510Y2742D01*
X1520Y2752D01*
Y2762D01*
X1510D01*
X1500Y2752D01*
X1490Y2762D01*
X1480D01*
Y2752D01*
X1490Y2742D01*
X1480Y2732D01*
Y2722D01*
X1488Y2730D02*
X1494D01*
X1500Y2736D01*
X1506Y2730D01*
X1512D01*
Y2736D01*
X1506Y2742D01*
X1512Y2748D01*
Y2754D01*
X1506D01*
X1500Y2748D01*
X1494Y2754D01*
X1488D01*
Y2748D01*
X1494Y2742D01*
X1488Y2736D01*
Y2730D01*
X1880Y2100D02*
X1890D01*
X1900Y2110D01*
X1910Y2100D01*
X1920D01*
Y2110D01*
X1910Y2120D01*
X1920Y2130D01*
Y2140D01*
X1910D01*
X1900Y2130D01*
X1890Y2140D01*
X1880D01*
Y2130D01*
X1890Y2120D01*
X1880Y2110D01*
Y2100D01*
X1888Y2108D02*
X1894D01*
X1900Y2114D01*
X1906Y2108D01*
X1912D01*
Y2114D01*
X1906Y2120D01*
X1912Y2126D01*
Y2132D01*
X1906D01*
X1900Y2126D01*
X1894Y2132D01*
X1888D01*
Y2126D01*
X1894Y2120D01*
X1888Y2114D01*
Y2108D01*
X1410Y2106D02*
X1420D01*
X1430Y2116D01*
X1440Y2106D01*
X1450D01*
Y2116D01*
X1440Y2126D01*
X1450Y2136D01*
Y2146D01*
X1440D01*
X1430Y2136D01*
X1420Y2146D01*
X1410D01*
Y2136D01*
X1420Y2126D01*
X1410Y2116D01*
Y2106D01*
X1418Y2114D02*
X1424D01*
X1430Y2120D01*
X1436Y2114D01*
X1442D01*
Y2120D01*
X1436Y2126D01*
X1442Y2132D01*
Y2138D01*
X1436D01*
X1430Y2132D01*
X1424Y2138D01*
X1418D01*
Y2132D01*
X1424Y2126D01*
X1418Y2120D01*
Y2114D01*
X1760Y810D02*
Y843D01*
X1777Y860D01*
X1793Y843D01*
Y810D01*
Y835D01*
X1760D01*
X1736Y3260D02*
Y3293D01*
X1752Y3310D01*
X1769Y3293D01*
Y3260D01*
Y3285D01*
X1736D01*
X1270Y3308D02*
Y3342D01*
X1287Y3358D01*
X1303Y3342D01*
Y3308D01*
Y3333D01*
X1270D01*
X1750Y3117D02*
Y3150D01*
X1767Y3167D01*
X1783Y3150D01*
Y3117D01*
Y3142D01*
X1750D01*
X1379Y3125D02*
X1389D01*
X1399Y3135D01*
X1409Y3125D01*
X1419D01*
Y3135D01*
X1409Y3145D01*
X1419Y3155D01*
Y3165D01*
X1409D01*
X1399Y3155D01*
X1389Y3165D01*
X1379D01*
Y3155D01*
X1389Y3145D01*
X1379Y3135D01*
Y3125D01*
X1387Y3133D02*
X1393D01*
X1399Y3139D01*
X1405Y3133D01*
X1411D01*
Y3139D01*
X1405Y3145D01*
X1411Y3151D01*
Y3157D01*
X1405D01*
X1399Y3151D01*
X1393Y3157D01*
X1387D01*
Y3151D01*
X1393Y3145D01*
X1387Y3139D01*
Y3133D01*
X2090Y2990D02*
X2100D01*
X2110Y3000D01*
X2120Y2990D01*
X2130D01*
Y3000D01*
X2120Y3010D01*
X2130Y3020D01*
Y3030D01*
X2120D01*
X2110Y3020D01*
X2100Y3030D01*
X2090D01*
Y3020D01*
X2100Y3010D01*
X2090Y3000D01*
Y2990D01*
X2098Y2998D02*
X2104D01*
X2110Y3004D01*
X2116Y2998D01*
X2122D01*
Y3004D01*
X2116Y3010D01*
X2122Y3016D01*
Y3022D01*
X2116D01*
X2110Y3016D01*
X2104Y3022D01*
X2098D01*
Y3016D01*
X2104Y3010D01*
X2098Y3004D01*
Y2998D01*
X930Y2680D02*
Y2720D01*
X970D01*
Y2680D01*
X930D01*
X938Y2688D02*
Y2712D01*
X962D01*
Y2688D01*
X938D01*
X710Y3050D02*
Y3000D01*
X735D01*
X743Y3008D01*
Y3017D01*
X735Y3025D01*
X710D01*
X735D01*
X743Y3033D01*
Y3042D01*
X735Y3050D01*
X710D01*
X1089Y2550D02*
Y2590D01*
X1129D01*
Y2550D01*
X1089D01*
X1362Y1680D02*
X1372D01*
X1382Y1690D01*
X1392Y1680D01*
X1402D01*
Y1690D01*
X1392Y1700D01*
X1402Y1710D01*
Y1720D01*
X1392D01*
X1382Y1710D01*
X1372Y1720D01*
X1362D01*
Y1710D01*
X1372Y1700D01*
X1362Y1690D01*
Y1680D01*
X1370Y1688D02*
X1376D01*
X1382Y1694D01*
X1388Y1688D01*
X1394D01*
Y1694D01*
X1388Y1700D01*
X1394Y1706D01*
Y1712D01*
X1388D01*
X1382Y1706D01*
X1376Y1712D01*
X1370D01*
Y1706D01*
X1376Y1700D01*
X1370Y1694D01*
Y1688D01*
X1723Y3328D02*
X1733D01*
X1743Y3338D01*
X1753Y3328D01*
X1763D01*
Y3338D01*
X1753Y3348D01*
X1763Y3358D01*
Y3368D01*
X1753D01*
X1743Y3358D01*
X1733Y3368D01*
X1723D01*
Y3358D01*
X1733Y3348D01*
X1723Y3338D01*
Y3328D01*
X1731Y3336D02*
X1737D01*
X1743Y3342D01*
X1749Y3336D01*
X1755D01*
Y3342D01*
X1749Y3348D01*
X1755Y3354D01*
Y3360D01*
X1749D01*
X1743Y3354D01*
X1737Y3360D01*
X1731D01*
Y3354D01*
X1737Y3348D01*
X1731Y3342D01*
Y3336D01*
X3273Y3655D02*
X3283D01*
X3293Y3665D01*
X3303Y3655D01*
X3313D01*
Y3665D01*
X3303Y3675D01*
X3313Y3685D01*
Y3695D01*
X3303D01*
X3293Y3685D01*
X3283Y3695D01*
X3273D01*
Y3685D01*
X3283Y3675D01*
X3273Y3665D01*
Y3655D01*
X3281Y3663D02*
X3287D01*
X3293Y3669D01*
X3299Y3663D01*
X3305D01*
Y3669D01*
X3299Y3675D01*
X3305Y3681D01*
Y3687D01*
X3299D01*
X3293Y3681D01*
X3287Y3687D01*
X3281D01*
Y3681D01*
X3287Y3675D01*
X3281Y3669D01*
Y3663D01*
X2751Y3491D02*
Y3531D01*
X2791D01*
Y3491D01*
X2751D01*
X2759Y3499D02*
Y3523D01*
X2783D01*
Y3499D01*
X2759D01*
X2080Y3070D02*
X2090D01*
X2100Y3080D01*
X2110Y3070D01*
X2120D01*
Y3080D01*
X2110Y3090D01*
X2120Y3100D01*
Y3110D01*
X2110D01*
X2100Y3100D01*
X2090Y3110D01*
X2080D01*
Y3100D01*
X2090Y3090D01*
X2080Y3080D01*
Y3070D01*
X2088Y3078D02*
X2094D01*
X2100Y3084D01*
X2106Y3078D01*
X2112D01*
Y3084D01*
X2106Y3090D01*
X2112Y3096D01*
Y3102D01*
X2106D01*
X2100Y3096D01*
X2094Y3102D01*
X2088D01*
Y3096D01*
X2094Y3090D01*
X2088Y3084D01*
Y3078D01*
X1405Y1730D02*
X1415D01*
X1425Y1740D01*
X1435Y1730D01*
X1445D01*
Y1740D01*
X1435Y1750D01*
X1445Y1760D01*
Y1770D01*
X1435D01*
X1425Y1760D01*
X1415Y1770D01*
X1405D01*
Y1760D01*
X1415Y1750D01*
X1405Y1740D01*
Y1730D01*
X1413Y1738D02*
X1419D01*
X1425Y1744D01*
X1431Y1738D01*
X1437D01*
Y1744D01*
X1431Y1750D01*
X1437Y1756D01*
Y1762D01*
X1431D01*
X1425Y1756D01*
X1419Y1762D01*
X1413D01*
Y1756D01*
X1419Y1750D01*
X1413Y1744D01*
Y1738D01*
X1438Y1505D02*
X1448D01*
X1458Y1515D01*
X1468Y1505D01*
X1478D01*
Y1515D01*
X1468Y1525D01*
X1478Y1535D01*
Y1545D01*
X1468D01*
X1458Y1535D01*
X1448Y1545D01*
X1438D01*
Y1535D01*
X1448Y1525D01*
X1438Y1515D01*
Y1505D01*
X1446Y1513D02*
X1452D01*
X1458Y1519D01*
X1464Y1513D01*
X1470D01*
Y1519D01*
X1464Y1525D01*
X1470Y1531D01*
Y1537D01*
X1464D01*
X1458Y1531D01*
X1452Y1537D01*
X1446D01*
Y1531D01*
X1452Y1525D01*
X1446Y1519D01*
Y1513D01*
X1089Y3100D02*
Y3133D01*
X1105Y3149D01*
X1122Y3133D01*
Y3100D01*
Y3125D01*
X1089D01*
X2591Y3363D02*
Y3396D01*
X2608Y3413D01*
X2625Y3396D01*
Y3363D01*
Y3388D01*
X2591D01*
X391Y3117D02*
Y3150D01*
X408Y3167D01*
X425Y3150D01*
Y3117D01*
Y3142D01*
X391D01*
X204Y3157D02*
X214D01*
X224Y3167D01*
X234Y3157D01*
X244D01*
Y3167D01*
X234Y3177D01*
X244Y3187D01*
Y3197D01*
X234D01*
X224Y3187D01*
X214Y3197D01*
X204D01*
Y3187D01*
X214Y3177D01*
X204Y3167D01*
Y3157D01*
X212Y3165D02*
X218D01*
X224Y3171D01*
X230Y3165D01*
X236D01*
Y3171D01*
X230Y3177D01*
X236Y3183D01*
Y3189D01*
X230D01*
X224Y3183D01*
X218Y3189D01*
X212D01*
Y3183D01*
X218Y3177D01*
X212Y3171D01*
Y3165D01*
X707Y2971D02*
Y2921D01*
X732D01*
X740Y2929D01*
Y2937D01*
X732Y2946D01*
X707D01*
X732D01*
X740Y2954D01*
Y2962D01*
X732Y2971D01*
X707D01*
X999Y3160D02*
Y3193D01*
X1016Y3210D01*
X1032Y3193D01*
Y3160D01*
Y3185D01*
X999D01*
X1589Y232D02*
Y272D01*
X1629D01*
Y232D01*
X1589D01*
X2805Y3745D02*
X2815D01*
X2825Y3755D01*
X2835Y3745D01*
X2845D01*
Y3755D01*
X2835Y3765D01*
X2845Y3775D01*
Y3785D01*
X2835D01*
X2825Y3775D01*
X2815Y3785D01*
X2805D01*
Y3775D01*
X2815Y3765D01*
X2805Y3755D01*
Y3745D01*
X2813Y3753D02*
X2819D01*
X2825Y3759D01*
X2831Y3753D01*
X2837D01*
Y3759D01*
X2831Y3765D01*
X2837Y3771D01*
Y3777D01*
X2831D01*
X2825Y3771D01*
X2819Y3777D01*
X2813D01*
Y3771D01*
X2819Y3765D01*
X2813Y3759D01*
Y3753D01*
X1805Y232D02*
Y272D01*
X1845D01*
Y232D01*
X1805D01*
X406Y3730D02*
Y3770D01*
X446D01*
Y3730D01*
X406D01*
X414Y3738D02*
Y3762D01*
X438D01*
Y3738D01*
X414D01*
X1936Y3312D02*
X1946D01*
X1956Y3322D01*
X1966Y3312D01*
X1976D01*
Y3322D01*
X1966Y3332D01*
X1976Y3342D01*
Y3352D01*
X1966D01*
X1956Y3342D01*
X1946Y3352D01*
X1936D01*
Y3342D01*
X1946Y3332D01*
X1936Y3322D01*
Y3312D01*
X1944Y3320D02*
X1950D01*
X1956Y3326D01*
X1962Y3320D01*
X1968D01*
Y3326D01*
X1962Y3332D01*
X1968Y3338D01*
Y3344D01*
X1962D01*
X1956Y3338D01*
X1950Y3344D01*
X1944D01*
Y3338D01*
X1950Y3332D01*
X1944Y3326D01*
Y3320D01*
X2614Y2930D02*
Y2970D01*
X2654D01*
Y2930D01*
X2614D01*
X2622Y2938D02*
Y2962D01*
X2646D01*
Y2938D01*
X2622D01*
X1375Y2975D02*
X1385D01*
X1395Y2985D01*
X1405Y2975D01*
X1415D01*
Y2985D01*
X1405Y2995D01*
X1415Y3005D01*
Y3015D01*
X1405D01*
X1395Y3005D01*
X1385Y3015D01*
X1375D01*
Y3005D01*
X1385Y2995D01*
X1375Y2985D01*
Y2975D01*
X1383Y2983D02*
X1389D01*
X1395Y2989D01*
X1401Y2983D01*
X1407D01*
Y2989D01*
X1401Y2995D01*
X1407Y3001D01*
Y3007D01*
X1401D01*
X1395Y3001D01*
X1389Y3007D01*
X1383D01*
Y3001D01*
X1389Y2995D01*
X1383Y2989D01*
Y2983D01*
X2665Y3305D02*
X2675D01*
X2685Y3315D01*
X2695Y3305D01*
X2705D01*
Y3315D01*
X2695Y3325D01*
X2705Y3335D01*
Y3345D01*
X2695D01*
X2685Y3335D01*
X2675Y3345D01*
X2665D01*
Y3335D01*
X2675Y3325D01*
X2665Y3315D01*
Y3305D01*
X2673Y3313D02*
X2679D01*
X2685Y3319D01*
X2691Y3313D01*
X2697D01*
Y3319D01*
X2691Y3325D01*
X2697Y3331D01*
Y3337D01*
X2691D01*
X2685Y3331D01*
X2679Y3337D01*
X2673D01*
Y3331D01*
X2679Y3325D01*
X2673Y3319D01*
Y3313D01*
X2006Y3310D02*
X2016D01*
X2026Y3320D01*
X2036Y3310D01*
X2046D01*
Y3320D01*
X2036Y3330D01*
X2046Y3340D01*
Y3350D01*
X2036D01*
X2026Y3340D01*
X2016Y3350D01*
X2006D01*
Y3340D01*
X2016Y3330D01*
X2006Y3320D01*
Y3310D01*
X2014Y3318D02*
X2020D01*
X2026Y3324D01*
X2032Y3318D01*
X2038D01*
Y3324D01*
X2032Y3330D01*
X2038Y3336D01*
Y3342D01*
X2032D01*
X2026Y3336D01*
X2020Y3342D01*
X2014D01*
Y3336D01*
X2020Y3330D01*
X2014Y3324D01*
Y3318D01*
X2097Y3162D02*
X2107D01*
X2117Y3172D01*
X2127Y3162D01*
X2137D01*
Y3172D01*
X2127Y3182D01*
X2137Y3192D01*
Y3202D01*
X2127D01*
X2117Y3192D01*
X2107Y3202D01*
X2097D01*
Y3192D01*
X2107Y3182D01*
X2097Y3172D01*
Y3162D01*
X2105Y3170D02*
X2111D01*
X2117Y3176D01*
X2123Y3170D01*
X2129D01*
Y3176D01*
X2123Y3182D01*
X2129Y3188D01*
Y3194D01*
X2123D01*
X2117Y3188D01*
X2111Y3194D01*
X2105D01*
Y3188D01*
X2111Y3182D01*
X2105Y3176D01*
Y3170D01*
X2545Y3190D02*
Y3230D01*
X2585D01*
Y3190D01*
X2545D01*
X2553Y3198D02*
Y3222D01*
X2577D01*
Y3198D01*
X2553D01*
X2320Y3190D02*
Y3230D01*
X2360D01*
Y3190D01*
X2320D01*
X2328Y3198D02*
Y3222D01*
X2352D01*
Y3198D01*
X2328D01*
X889Y3637D02*
Y3587D01*
X914D01*
X922Y3595D01*
Y3603D01*
X914Y3612D01*
X889D01*
X914D01*
X922Y3620D01*
Y3628D01*
X914Y3637D01*
X889D01*
X1362Y2060D02*
X1372D01*
X1382Y2070D01*
X1392Y2060D01*
X1402D01*
Y2070D01*
X1392Y2080D01*
X1402Y2090D01*
Y2100D01*
X1392D01*
X1382Y2090D01*
X1372Y2100D01*
X1362D01*
Y2090D01*
X1372Y2080D01*
X1362Y2070D01*
Y2060D01*
X1370Y2068D02*
X1376D01*
X1382Y2074D01*
X1388Y2068D01*
X1394D01*
Y2074D01*
X1388Y2080D01*
X1394Y2086D01*
Y2092D01*
X1388D01*
X1382Y2086D01*
X1376Y2092D01*
X1370D01*
Y2086D01*
X1376Y2080D01*
X1370Y2074D01*
Y2068D01*
X1625Y3315D02*
X1635D01*
X1645Y3325D01*
X1655Y3315D01*
X1665D01*
Y3325D01*
X1655Y3335D01*
X1665Y3345D01*
Y3355D01*
X1655D01*
X1645Y3345D01*
X1635Y3355D01*
X1625D01*
Y3345D01*
X1635Y3335D01*
X1625Y3325D01*
Y3315D01*
X1633Y3323D02*
X1639D01*
X1645Y3329D01*
X1651Y3323D01*
X1657D01*
Y3329D01*
X1651Y3335D01*
X1657Y3341D01*
Y3347D01*
X1651D01*
X1645Y3341D01*
X1639Y3347D01*
X1633D01*
Y3341D01*
X1639Y3335D01*
X1633Y3329D01*
Y3323D01*
X1027Y3773D02*
X1037D01*
X1047Y3783D01*
X1057Y3773D01*
X1067D01*
Y3783D01*
X1057Y3793D01*
X1067Y3803D01*
Y3813D01*
X1057D01*
X1047Y3803D01*
X1037Y3813D01*
X1027D01*
Y3803D01*
X1037Y3793D01*
X1027Y3783D01*
Y3773D01*
X1035Y3781D02*
X1041D01*
X1047Y3787D01*
X1053Y3781D01*
X1059D01*
Y3787D01*
X1053Y3793D01*
X1059Y3799D01*
Y3805D01*
X1053D01*
X1047Y3799D01*
X1041Y3805D01*
X1035D01*
Y3799D01*
X1041Y3793D01*
X1035Y3787D01*
Y3781D01*
X930Y2950D02*
X940D01*
X950Y2960D01*
X960Y2950D01*
X970D01*
Y2960D01*
X960Y2970D01*
X970Y2980D01*
Y2990D01*
X960D01*
X950Y2980D01*
X940Y2990D01*
X930D01*
Y2980D01*
X940Y2970D01*
X930Y2960D01*
Y2950D01*
X938Y2958D02*
X944D01*
X950Y2964D01*
X956Y2958D01*
X962D01*
Y2964D01*
X956Y2970D01*
X962Y2976D01*
Y2982D01*
X956D01*
X950Y2976D01*
X944Y2982D01*
X938D01*
Y2976D01*
X944Y2970D01*
X938Y2964D01*
Y2958D01*
X2580Y3111D02*
X2590D01*
X2600Y3121D01*
X2610Y3111D01*
X2620D01*
Y3121D01*
X2610Y3131D01*
X2620Y3141D01*
Y3151D01*
X2610D01*
X2600Y3141D01*
X2590Y3151D01*
X2580D01*
Y3141D01*
X2590Y3131D01*
X2580Y3121D01*
Y3111D01*
X2588Y3119D02*
X2594D01*
X2600Y3125D01*
X2606Y3119D01*
X2612D01*
Y3125D01*
X2606Y3131D01*
X2612Y3137D01*
Y3143D01*
X2606D01*
X2600Y3137D01*
X2594Y3143D01*
X2588D01*
Y3137D01*
X2594Y3131D01*
X2588Y3125D01*
Y3119D01*
X2505Y3110D02*
X2515D01*
X2525Y3120D01*
X2535Y3110D01*
X2545D01*
Y3120D01*
X2535Y3130D01*
X2545Y3140D01*
Y3150D01*
X2535D01*
X2525Y3140D01*
X2515Y3150D01*
X2505D01*
Y3140D01*
X2515Y3130D01*
X2505Y3120D01*
Y3110D01*
X2513Y3118D02*
X2519D01*
X2525Y3124D01*
X2531Y3118D01*
X2537D01*
Y3124D01*
X2531Y3130D01*
X2537Y3136D01*
Y3142D01*
X2531D01*
X2525Y3136D01*
X2519Y3142D01*
X2513D01*
Y3136D01*
X2519Y3130D01*
X2513Y3124D01*
Y3118D01*
X2650Y3111D02*
X2660D01*
X2670Y3121D01*
X2680Y3111D01*
X2690D01*
Y3121D01*
X2680Y3131D01*
X2690Y3141D01*
Y3151D01*
X2680D01*
X2670Y3141D01*
X2660Y3151D01*
X2650D01*
Y3141D01*
X2660Y3131D01*
X2650Y3121D01*
Y3111D01*
X2658Y3119D02*
X2664D01*
X2670Y3125D01*
X2676Y3119D01*
X2682D01*
Y3125D01*
X2676Y3131D01*
X2682Y3137D01*
Y3143D01*
X2676D01*
X2670Y3137D01*
X2664Y3143D01*
X2658D01*
Y3137D01*
X2664Y3131D01*
X2658Y3125D01*
Y3119D01*
X2650Y3210D02*
X2660D01*
X2670Y3220D01*
X2680Y3210D01*
X2690D01*
Y3220D01*
X2680Y3230D01*
X2690Y3240D01*
Y3250D01*
X2680D01*
X2670Y3240D01*
X2660Y3250D01*
X2650D01*
Y3240D01*
X2660Y3230D01*
X2650Y3220D01*
Y3210D01*
X2658Y3218D02*
X2664D01*
X2670Y3224D01*
X2676Y3218D01*
X2682D01*
Y3224D01*
X2676Y3230D01*
X2682Y3236D01*
Y3242D01*
X2676D01*
X2670Y3236D01*
X2664Y3242D01*
X2658D01*
Y3236D01*
X2664Y3230D01*
X2658Y3224D01*
Y3218D01*
X1830Y3322D02*
X1840D01*
X1850Y3332D01*
X1860Y3322D01*
X1870D01*
Y3332D01*
X1860Y3342D01*
X1870Y3352D01*
Y3362D01*
X1860D01*
X1850Y3352D01*
X1840Y3362D01*
X1830D01*
Y3352D01*
X1840Y3342D01*
X1830Y3332D01*
Y3322D01*
X1838Y3330D02*
X1844D01*
X1850Y3336D01*
X1856Y3330D01*
X1862D01*
Y3336D01*
X1856Y3342D01*
X1862Y3348D01*
Y3354D01*
X1856D01*
X1850Y3348D01*
X1844Y3354D01*
X1838D01*
Y3348D01*
X1844Y3342D01*
X1838Y3336D01*
Y3330D01*
X1562Y3061D02*
X1572D01*
X1582Y3071D01*
X1592Y3061D01*
X1602D01*
Y3071D01*
X1592Y3081D01*
X1602Y3091D01*
Y3101D01*
X1592D01*
X1582Y3091D01*
X1572Y3101D01*
X1562D01*
Y3091D01*
X1572Y3081D01*
X1562Y3071D01*
Y3061D01*
X1570Y3069D02*
X1576D01*
X1582Y3075D01*
X1588Y3069D01*
X1594D01*
Y3075D01*
X1588Y3081D01*
X1594Y3087D01*
Y3093D01*
X1588D01*
X1582Y3087D01*
X1576Y3093D01*
X1570D01*
Y3087D01*
X1576Y3081D01*
X1570Y3075D01*
Y3069D01*
X1386Y230D02*
Y270D01*
X1426D01*
Y230D01*
X1386D01*
X1805Y1680D02*
X1815D01*
X1825Y1690D01*
X1835Y1680D01*
X1845D01*
Y1690D01*
X1835Y1700D01*
X1845Y1710D01*
Y1720D01*
X1835D01*
X1825Y1710D01*
X1815Y1720D01*
X1805D01*
Y1710D01*
X1815Y1700D01*
X1805Y1690D01*
Y1680D01*
X1813Y1688D02*
X1819D01*
X1825Y1694D01*
X1831Y1688D01*
X1837D01*
Y1694D01*
X1831Y1700D01*
X1837Y1706D01*
Y1712D01*
X1831D01*
X1825Y1706D01*
X1819Y1712D01*
X1813D01*
Y1706D01*
X1819Y1700D01*
X1813Y1694D01*
Y1688D01*
X1696Y1700D02*
Y1650D01*
X1721D01*
X1730Y1658D01*
Y1667D01*
X1721Y1675D01*
X1696D01*
X1721D01*
X1730Y1683D01*
Y1692D01*
X1721Y1700D01*
X1696D01*
X1720Y1610D02*
Y1560D01*
X1745D01*
X1753Y1568D01*
Y1577D01*
X1745Y1585D01*
X1720D01*
X1745D01*
X1753Y1593D01*
Y1602D01*
X1745Y1610D01*
X1720D01*
X1640Y509D02*
X1650D01*
X1660Y519D01*
X1670Y509D01*
X1680D01*
Y519D01*
X1670Y529D01*
X1680Y539D01*
Y549D01*
X1670D01*
X1660Y539D01*
X1650Y549D01*
X1640D01*
Y539D01*
X1650Y529D01*
X1640Y519D01*
Y509D01*
X1648Y517D02*
X1654D01*
X1660Y523D01*
X1666Y517D01*
X1672D01*
Y523D01*
X1666Y529D01*
X1672Y535D01*
Y541D01*
X1666D01*
X1660Y535D01*
X1654Y541D01*
X1648D01*
Y535D01*
X1654Y529D01*
X1648Y523D01*
Y517D01*
X1176Y3260D02*
Y3210D01*
X1201D01*
X1210Y3218D01*
Y3227D01*
X1201Y3235D01*
X1176D01*
X1201D01*
X1210Y3243D01*
Y3252D01*
X1201Y3260D01*
X1176D01*
X2855Y3490D02*
Y3530D01*
X2895D01*
Y3490D01*
X2855D01*
X2863Y3498D02*
Y3522D01*
X2887D01*
Y3498D01*
X2863D01*
X2950Y3490D02*
Y3530D01*
X2990D01*
Y3490D01*
X2950D01*
X2958Y3498D02*
Y3522D01*
X2982D01*
Y3498D01*
X2958D01*
X1149Y3164D02*
Y3197D01*
X1166Y3214D01*
X1182Y3197D01*
Y3164D01*
Y3189D01*
X1149D01*
X1198Y3164D02*
Y3197D01*
X1215Y3214D01*
X1231Y3197D01*
Y3164D01*
Y3189D01*
X1198D01*
X978Y2983D02*
X988D01*
X998Y2993D01*
X1008Y2983D01*
X1018D01*
Y2993D01*
X1008Y3003D01*
X1018Y3013D01*
Y3023D01*
X1008D01*
X998Y3013D01*
X988Y3023D01*
X978D01*
Y3013D01*
X988Y3003D01*
X978Y2993D01*
Y2983D01*
X986Y2991D02*
X992D01*
X998Y2997D01*
X1004Y2991D01*
X1010D01*
Y2997D01*
X1004Y3003D01*
X1010Y3009D01*
Y3015D01*
X1004D01*
X998Y3009D01*
X992Y3015D01*
X986D01*
Y3009D01*
X992Y3003D01*
X986Y2997D01*
Y2991D01*
X942Y3384D02*
X952D01*
X962Y3394D01*
X972Y3384D01*
X982D01*
Y3394D01*
X972Y3404D01*
X982Y3414D01*
Y3424D01*
X972D01*
X962Y3414D01*
X952Y3424D01*
X942D01*
Y3414D01*
X952Y3404D01*
X942Y3394D01*
Y3384D01*
X950Y3392D02*
X956D01*
X962Y3398D01*
X968Y3392D01*
X974D01*
Y3398D01*
X968Y3404D01*
X974Y3410D01*
Y3416D01*
X968D01*
X962Y3410D01*
X956Y3416D01*
X950D01*
Y3410D01*
X956Y3404D01*
X950Y3398D01*
Y3392D01*
X942Y3308D02*
X952D01*
X962Y3318D01*
X972Y3308D01*
X982D01*
Y3318D01*
X972Y3328D01*
X982Y3338D01*
Y3348D01*
X972D01*
X962Y3338D01*
X952Y3348D01*
X942D01*
Y3338D01*
X952Y3328D01*
X942Y3318D01*
Y3308D01*
X950Y3316D02*
X956D01*
X962Y3322D01*
X968Y3316D01*
X974D01*
Y3322D01*
X968Y3328D01*
X974Y3334D01*
Y3340D01*
X968D01*
X962Y3334D01*
X956Y3340D01*
X950D01*
Y3334D01*
X956Y3328D01*
X950Y3322D01*
Y3316D01*
X2705Y4440D02*
Y4480D01*
X2745D01*
Y4440D01*
X2705D01*
X1405Y2010D02*
X1415D01*
X1425Y2020D01*
X1435Y2010D01*
X1445D01*
Y2020D01*
X1435Y2030D01*
X1445Y2040D01*
Y2050D01*
X1435D01*
X1425Y2040D01*
X1415Y2050D01*
X1405D01*
Y2040D01*
X1415Y2030D01*
X1405Y2020D01*
Y2010D01*
X1413Y2018D02*
X1419D01*
X1425Y2024D01*
X1431Y2018D01*
X1437D01*
Y2024D01*
X1431Y2030D01*
X1437Y2036D01*
Y2042D01*
X1431D01*
X1425Y2036D01*
X1419Y2042D01*
X1413D01*
Y2036D01*
X1419Y2030D01*
X1413Y2024D01*
Y2018D01*
X110Y463D02*
X120D01*
X130Y473D01*
X140Y463D01*
X150D01*
Y473D01*
X140Y483D01*
X150Y493D01*
Y503D01*
X140D01*
X130Y493D01*
X120Y503D01*
X110D01*
Y493D01*
X120Y483D01*
X110Y473D01*
Y463D01*
X118Y471D02*
X124D01*
X130Y477D01*
X136Y471D01*
X142D01*
Y477D01*
X136Y483D01*
X142Y489D01*
Y495D01*
X136D01*
X130Y489D01*
X124Y495D01*
X118D01*
Y489D01*
X124Y483D01*
X118Y477D01*
Y471D01*
X110Y713D02*
X120D01*
X130Y723D01*
X140Y713D01*
X150D01*
Y723D01*
X140Y733D01*
X150Y743D01*
Y753D01*
X140D01*
X130Y743D01*
X120Y753D01*
X110D01*
Y743D01*
X120Y733D01*
X110Y723D01*
Y713D01*
X118Y721D02*
X124D01*
X130Y727D01*
X136Y721D01*
X142D01*
Y727D01*
X136Y733D01*
X142Y739D01*
Y745D01*
X136D01*
X130Y739D01*
X124Y745D01*
X118D01*
Y739D01*
X124Y733D01*
X118Y727D01*
Y721D01*
X110Y963D02*
X120D01*
X130Y973D01*
X140Y963D01*
X150D01*
Y973D01*
X140Y983D01*
X150Y993D01*
Y1003D01*
X140D01*
X130Y993D01*
X120Y1003D01*
X110D01*
Y993D01*
X120Y983D01*
X110Y973D01*
Y963D01*
X118Y971D02*
X124D01*
X130Y977D01*
X136Y971D01*
X142D01*
Y977D01*
X136Y983D01*
X142Y989D01*
Y995D01*
X136D01*
X130Y989D01*
X124Y995D01*
X118D01*
Y989D01*
X124Y983D01*
X118Y977D01*
Y971D01*
X110Y1213D02*
X120D01*
X130Y1223D01*
X140Y1213D01*
X150D01*
Y1223D01*
X140Y1233D01*
X150Y1243D01*
Y1253D01*
X140D01*
X130Y1243D01*
X120Y1253D01*
X110D01*
Y1243D01*
X120Y1233D01*
X110Y1223D01*
Y1213D01*
X118Y1221D02*
X124D01*
X130Y1227D01*
X136Y1221D01*
X142D01*
Y1227D01*
X136Y1233D01*
X142Y1239D01*
Y1245D01*
X136D01*
X130Y1239D01*
X124Y1245D01*
X118D01*
Y1239D01*
X124Y1233D01*
X118Y1227D01*
Y1221D01*
X110Y1463D02*
X120D01*
X130Y1473D01*
X140Y1463D01*
X150D01*
Y1473D01*
X140Y1483D01*
X150Y1493D01*
Y1503D01*
X140D01*
X130Y1493D01*
X120Y1503D01*
X110D01*
Y1493D01*
X120Y1483D01*
X110Y1473D01*
Y1463D01*
X118Y1471D02*
X124D01*
X130Y1477D01*
X136Y1471D01*
X142D01*
Y1477D01*
X136Y1483D01*
X142Y1489D01*
Y1495D01*
X136D01*
X130Y1489D01*
X124Y1495D01*
X118D01*
Y1489D01*
X124Y1483D01*
X118Y1477D01*
Y1471D01*
X110Y1713D02*
X120D01*
X130Y1723D01*
X140Y1713D01*
X150D01*
Y1723D01*
X140Y1733D01*
X150Y1743D01*
Y1753D01*
X140D01*
X130Y1743D01*
X120Y1753D01*
X110D01*
Y1743D01*
X120Y1733D01*
X110Y1723D01*
Y1713D01*
X118Y1721D02*
X124D01*
X130Y1727D01*
X136Y1721D01*
X142D01*
Y1727D01*
X136Y1733D01*
X142Y1739D01*
Y1745D01*
X136D01*
X130Y1739D01*
X124Y1745D01*
X118D01*
Y1739D01*
X124Y1733D01*
X118Y1727D01*
Y1721D01*
X110Y1963D02*
X120D01*
X130Y1973D01*
X140Y1963D01*
X150D01*
Y1973D01*
X140Y1983D01*
X150Y1993D01*
Y2003D01*
X140D01*
X130Y1993D01*
X120Y2003D01*
X110D01*
Y1993D01*
X120Y1983D01*
X110Y1973D01*
Y1963D01*
X118Y1971D02*
X124D01*
X130Y1977D01*
X136Y1971D01*
X142D01*
Y1977D01*
X136Y1983D01*
X142Y1989D01*
Y1995D01*
X136D01*
X130Y1989D01*
X124Y1995D01*
X118D01*
Y1989D01*
X124Y1983D01*
X118Y1977D01*
Y1971D01*
X110Y2213D02*
X120D01*
X130Y2223D01*
X140Y2213D01*
X150D01*
Y2223D01*
X140Y2233D01*
X150Y2243D01*
Y2253D01*
X140D01*
X130Y2243D01*
X120Y2253D01*
X110D01*
Y2243D01*
X120Y2233D01*
X110Y2223D01*
Y2213D01*
X118Y2221D02*
X124D01*
X130Y2227D01*
X136Y2221D01*
X142D01*
Y2227D01*
X136Y2233D01*
X142Y2239D01*
Y2245D01*
X136D01*
X130Y2239D01*
X124Y2245D01*
X118D01*
Y2239D01*
X124Y2233D01*
X118Y2227D01*
Y2221D01*
X110Y2463D02*
X120D01*
X130Y2473D01*
X140Y2463D01*
X150D01*
Y2473D01*
X140Y2483D01*
X150Y2493D01*
Y2503D01*
X140D01*
X130Y2493D01*
X120Y2503D01*
X110D01*
Y2493D01*
X120Y2483D01*
X110Y2473D01*
Y2463D01*
X118Y2471D02*
X124D01*
X130Y2477D01*
X136Y2471D01*
X142D01*
Y2477D01*
X136Y2483D01*
X142Y2489D01*
Y2495D01*
X136D01*
X130Y2489D01*
X124Y2495D01*
X118D01*
Y2489D01*
X124Y2483D01*
X118Y2477D01*
Y2471D01*
X110Y3213D02*
X120D01*
X130Y3223D01*
X140Y3213D01*
X150D01*
Y3223D01*
X140Y3233D01*
X150Y3243D01*
Y3253D01*
X140D01*
X130Y3243D01*
X120Y3253D01*
X110D01*
Y3243D01*
X120Y3233D01*
X110Y3223D01*
Y3213D01*
X118Y3221D02*
X124D01*
X130Y3227D01*
X136Y3221D01*
X142D01*
Y3227D01*
X136Y3233D01*
X142Y3239D01*
Y3245D01*
X136D01*
X130Y3239D01*
X124Y3245D01*
X118D01*
Y3239D01*
X124Y3233D01*
X118Y3227D01*
Y3221D01*
X360Y463D02*
X370D01*
X380Y473D01*
X390Y463D01*
X400D01*
Y473D01*
X390Y483D01*
X400Y493D01*
Y503D01*
X390D01*
X380Y493D01*
X370Y503D01*
X360D01*
Y493D01*
X370Y483D01*
X360Y473D01*
Y463D01*
X368Y471D02*
X374D01*
X380Y477D01*
X386Y471D01*
X392D01*
Y477D01*
X386Y483D01*
X392Y489D01*
Y495D01*
X386D01*
X380Y489D01*
X374Y495D01*
X368D01*
Y489D01*
X374Y483D01*
X368Y477D01*
Y471D01*
X360Y713D02*
X370D01*
X380Y723D01*
X390Y713D01*
X400D01*
Y723D01*
X390Y733D01*
X400Y743D01*
Y753D01*
X390D01*
X380Y743D01*
X370Y753D01*
X360D01*
Y743D01*
X370Y733D01*
X360Y723D01*
Y713D01*
X368Y721D02*
X374D01*
X380Y727D01*
X386Y721D01*
X392D01*
Y727D01*
X386Y733D01*
X392Y739D01*
Y745D01*
X386D01*
X380Y739D01*
X374Y745D01*
X368D01*
Y739D01*
X374Y733D01*
X368Y727D01*
Y721D01*
X360Y963D02*
X370D01*
X380Y973D01*
X390Y963D01*
X400D01*
Y973D01*
X390Y983D01*
X400Y993D01*
Y1003D01*
X390D01*
X380Y993D01*
X370Y1003D01*
X360D01*
Y993D01*
X370Y983D01*
X360Y973D01*
Y963D01*
X368Y971D02*
X374D01*
X380Y977D01*
X386Y971D01*
X392D01*
Y977D01*
X386Y983D01*
X392Y989D01*
Y995D01*
X386D01*
X380Y989D01*
X374Y995D01*
X368D01*
Y989D01*
X374Y983D01*
X368Y977D01*
Y971D01*
X360Y1213D02*
X370D01*
X380Y1223D01*
X390Y1213D01*
X400D01*
Y1223D01*
X390Y1233D01*
X400Y1243D01*
Y1253D01*
X390D01*
X380Y1243D01*
X370Y1253D01*
X360D01*
Y1243D01*
X370Y1233D01*
X360Y1223D01*
Y1213D01*
X368Y1221D02*
X374D01*
X380Y1227D01*
X386Y1221D01*
X392D01*
Y1227D01*
X386Y1233D01*
X392Y1239D01*
Y1245D01*
X386D01*
X380Y1239D01*
X374Y1245D01*
X368D01*
Y1239D01*
X374Y1233D01*
X368Y1227D01*
Y1221D01*
X360Y1463D02*
X370D01*
X380Y1473D01*
X390Y1463D01*
X400D01*
Y1473D01*
X390Y1483D01*
X400Y1493D01*
Y1503D01*
X390D01*
X380Y1493D01*
X370Y1503D01*
X360D01*
Y1493D01*
X370Y1483D01*
X360Y1473D01*
Y1463D01*
X368Y1471D02*
X374D01*
X380Y1477D01*
X386Y1471D01*
X392D01*
Y1477D01*
X386Y1483D01*
X392Y1489D01*
Y1495D01*
X386D01*
X380Y1489D01*
X374Y1495D01*
X368D01*
Y1489D01*
X374Y1483D01*
X368Y1477D01*
Y1471D01*
X360Y1713D02*
X370D01*
X380Y1723D01*
X390Y1713D01*
X400D01*
Y1723D01*
X390Y1733D01*
X400Y1743D01*
Y1753D01*
X390D01*
X380Y1743D01*
X370Y1753D01*
X360D01*
Y1743D01*
X370Y1733D01*
X360Y1723D01*
Y1713D01*
X368Y1721D02*
X374D01*
X380Y1727D01*
X386Y1721D01*
X392D01*
Y1727D01*
X386Y1733D01*
X392Y1739D01*
Y1745D01*
X386D01*
X380Y1739D01*
X374Y1745D01*
X368D01*
Y1739D01*
X374Y1733D01*
X368Y1727D01*
Y1721D01*
X360Y1963D02*
X370D01*
X380Y1973D01*
X390Y1963D01*
X400D01*
Y1973D01*
X390Y1983D01*
X400Y1993D01*
Y2003D01*
X390D01*
X380Y1993D01*
X370Y2003D01*
X360D01*
Y1993D01*
X370Y1983D01*
X360Y1973D01*
Y1963D01*
X368Y1971D02*
X374D01*
X380Y1977D01*
X386Y1971D01*
X392D01*
Y1977D01*
X386Y1983D01*
X392Y1989D01*
Y1995D01*
X386D01*
X380Y1989D01*
X374Y1995D01*
X368D01*
Y1989D01*
X374Y1983D01*
X368Y1977D01*
Y1971D01*
X360Y2213D02*
X370D01*
X380Y2223D01*
X390Y2213D01*
X400D01*
Y2223D01*
X390Y2233D01*
X400Y2243D01*
Y2253D01*
X390D01*
X380Y2243D01*
X370Y2253D01*
X360D01*
Y2243D01*
X370Y2233D01*
X360Y2223D01*
Y2213D01*
X368Y2221D02*
X374D01*
X380Y2227D01*
X386Y2221D01*
X392D01*
Y2227D01*
X386Y2233D01*
X392Y2239D01*
Y2245D01*
X386D01*
X380Y2239D01*
X374Y2245D01*
X368D01*
Y2239D01*
X374Y2233D01*
X368Y2227D01*
Y2221D01*
X360Y2963D02*
X370D01*
X380Y2973D01*
X390Y2963D01*
X400D01*
Y2973D01*
X390Y2983D01*
X400Y2993D01*
Y3003D01*
X390D01*
X380Y2993D01*
X370Y3003D01*
X360D01*
Y2993D01*
X370Y2983D01*
X360Y2973D01*
Y2963D01*
X368Y2971D02*
X374D01*
X380Y2977D01*
X386Y2971D01*
X392D01*
Y2977D01*
X386Y2983D01*
X392Y2989D01*
Y2995D01*
X386D01*
X380Y2989D01*
X374Y2995D01*
X368D01*
Y2989D01*
X374Y2983D01*
X368Y2977D01*
Y2971D01*
X360Y3713D02*
X370D01*
X380Y3723D01*
X390Y3713D01*
X400D01*
Y3723D01*
X390Y3733D01*
X400Y3743D01*
Y3753D01*
X390D01*
X380Y3743D01*
X370Y3753D01*
X360D01*
Y3743D01*
X370Y3733D01*
X360Y3723D01*
Y3713D01*
X368Y3721D02*
X374D01*
X380Y3727D01*
X386Y3721D01*
X392D01*
Y3727D01*
X386Y3733D01*
X392Y3739D01*
Y3745D01*
X386D01*
X380Y3739D01*
X374Y3745D01*
X368D01*
Y3739D01*
X374Y3733D01*
X368Y3727D01*
Y3721D01*
X610Y463D02*
X620D01*
X630Y473D01*
X640Y463D01*
X650D01*
Y473D01*
X640Y483D01*
X650Y493D01*
Y503D01*
X640D01*
X630Y493D01*
X620Y503D01*
X610D01*
Y493D01*
X620Y483D01*
X610Y473D01*
Y463D01*
X618Y471D02*
X624D01*
X630Y477D01*
X636Y471D01*
X642D01*
Y477D01*
X636Y483D01*
X642Y489D01*
Y495D01*
X636D01*
X630Y489D01*
X624Y495D01*
X618D01*
Y489D01*
X624Y483D01*
X618Y477D01*
Y471D01*
X610Y713D02*
X620D01*
X630Y723D01*
X640Y713D01*
X650D01*
Y723D01*
X640Y733D01*
X650Y743D01*
Y753D01*
X640D01*
X630Y743D01*
X620Y753D01*
X610D01*
Y743D01*
X620Y733D01*
X610Y723D01*
Y713D01*
X618Y721D02*
X624D01*
X630Y727D01*
X636Y721D01*
X642D01*
Y727D01*
X636Y733D01*
X642Y739D01*
Y745D01*
X636D01*
X630Y739D01*
X624Y745D01*
X618D01*
Y739D01*
X624Y733D01*
X618Y727D01*
Y721D01*
X610Y963D02*
X620D01*
X630Y973D01*
X640Y963D01*
X650D01*
Y973D01*
X640Y983D01*
X650Y993D01*
Y1003D01*
X640D01*
X630Y993D01*
X620Y1003D01*
X610D01*
Y993D01*
X620Y983D01*
X610Y973D01*
Y963D01*
X618Y971D02*
X624D01*
X630Y977D01*
X636Y971D01*
X642D01*
Y977D01*
X636Y983D01*
X642Y989D01*
Y995D01*
X636D01*
X630Y989D01*
X624Y995D01*
X618D01*
Y989D01*
X624Y983D01*
X618Y977D01*
Y971D01*
X610Y1213D02*
X620D01*
X630Y1223D01*
X640Y1213D01*
X650D01*
Y1223D01*
X640Y1233D01*
X650Y1243D01*
Y1253D01*
X640D01*
X630Y1243D01*
X620Y1253D01*
X610D01*
Y1243D01*
X620Y1233D01*
X610Y1223D01*
Y1213D01*
X618Y1221D02*
X624D01*
X630Y1227D01*
X636Y1221D01*
X642D01*
Y1227D01*
X636Y1233D01*
X642Y1239D01*
Y1245D01*
X636D01*
X630Y1239D01*
X624Y1245D01*
X618D01*
Y1239D01*
X624Y1233D01*
X618Y1227D01*
Y1221D01*
X610Y1463D02*
X620D01*
X630Y1473D01*
X640Y1463D01*
X650D01*
Y1473D01*
X640Y1483D01*
X650Y1493D01*
Y1503D01*
X640D01*
X630Y1493D01*
X620Y1503D01*
X610D01*
Y1493D01*
X620Y1483D01*
X610Y1473D01*
Y1463D01*
X618Y1471D02*
X624D01*
X630Y1477D01*
X636Y1471D01*
X642D01*
Y1477D01*
X636Y1483D01*
X642Y1489D01*
Y1495D01*
X636D01*
X630Y1489D01*
X624Y1495D01*
X618D01*
Y1489D01*
X624Y1483D01*
X618Y1477D01*
Y1471D01*
X610Y1713D02*
X620D01*
X630Y1723D01*
X640Y1713D01*
X650D01*
Y1723D01*
X640Y1733D01*
X650Y1743D01*
Y1753D01*
X640D01*
X630Y1743D01*
X620Y1753D01*
X610D01*
Y1743D01*
X620Y1733D01*
X610Y1723D01*
Y1713D01*
X618Y1721D02*
X624D01*
X630Y1727D01*
X636Y1721D01*
X642D01*
Y1727D01*
X636Y1733D01*
X642Y1739D01*
Y1745D01*
X636D01*
X630Y1739D01*
X624Y1745D01*
X618D01*
Y1739D01*
X624Y1733D01*
X618Y1727D01*
Y1721D01*
X610Y1963D02*
X620D01*
X630Y1973D01*
X640Y1963D01*
X650D01*
Y1973D01*
X640Y1983D01*
X650Y1993D01*
Y2003D01*
X640D01*
X630Y1993D01*
X620Y2003D01*
X610D01*
Y1993D01*
X620Y1983D01*
X610Y1973D01*
Y1963D01*
X618Y1971D02*
X624D01*
X630Y1977D01*
X636Y1971D01*
X642D01*
Y1977D01*
X636Y1983D01*
X642Y1989D01*
Y1995D01*
X636D01*
X630Y1989D01*
X624Y1995D01*
X618D01*
Y1989D01*
X624Y1983D01*
X618Y1977D01*
Y1971D01*
X610Y2213D02*
X620D01*
X630Y2223D01*
X640Y2213D01*
X650D01*
Y2223D01*
X640Y2233D01*
X650Y2243D01*
Y2253D01*
X640D01*
X630Y2243D01*
X620Y2253D01*
X610D01*
Y2243D01*
X620Y2233D01*
X610Y2223D01*
Y2213D01*
X618Y2221D02*
X624D01*
X630Y2227D01*
X636Y2221D01*
X642D01*
Y2227D01*
X636Y2233D01*
X642Y2239D01*
Y2245D01*
X636D01*
X630Y2239D01*
X624Y2245D01*
X618D01*
Y2239D01*
X624Y2233D01*
X618Y2227D01*
Y2221D01*
X610Y2463D02*
X620D01*
X630Y2473D01*
X640Y2463D01*
X650D01*
Y2473D01*
X640Y2483D01*
X650Y2493D01*
Y2503D01*
X640D01*
X630Y2493D01*
X620Y2503D01*
X610D01*
Y2493D01*
X620Y2483D01*
X610Y2473D01*
Y2463D01*
X618Y2471D02*
X624D01*
X630Y2477D01*
X636Y2471D01*
X642D01*
Y2477D01*
X636Y2483D01*
X642Y2489D01*
Y2495D01*
X636D01*
X630Y2489D01*
X624Y2495D01*
X618D01*
Y2489D01*
X624Y2483D01*
X618Y2477D01*
Y2471D01*
X860Y463D02*
X870D01*
X880Y473D01*
X890Y463D01*
X900D01*
Y473D01*
X890Y483D01*
X900Y493D01*
Y503D01*
X890D01*
X880Y493D01*
X870Y503D01*
X860D01*
Y493D01*
X870Y483D01*
X860Y473D01*
Y463D01*
X868Y471D02*
X874D01*
X880Y477D01*
X886Y471D01*
X892D01*
Y477D01*
X886Y483D01*
X892Y489D01*
Y495D01*
X886D01*
X880Y489D01*
X874Y495D01*
X868D01*
Y489D01*
X874Y483D01*
X868Y477D01*
Y471D01*
X860Y713D02*
X870D01*
X880Y723D01*
X890Y713D01*
X900D01*
Y723D01*
X890Y733D01*
X900Y743D01*
Y753D01*
X890D01*
X880Y743D01*
X870Y753D01*
X860D01*
Y743D01*
X870Y733D01*
X860Y723D01*
Y713D01*
X868Y721D02*
X874D01*
X880Y727D01*
X886Y721D01*
X892D01*
Y727D01*
X886Y733D01*
X892Y739D01*
Y745D01*
X886D01*
X880Y739D01*
X874Y745D01*
X868D01*
Y739D01*
X874Y733D01*
X868Y727D01*
Y721D01*
X860Y963D02*
X870D01*
X880Y973D01*
X890Y963D01*
X900D01*
Y973D01*
X890Y983D01*
X900Y993D01*
Y1003D01*
X890D01*
X880Y993D01*
X870Y1003D01*
X860D01*
Y993D01*
X870Y983D01*
X860Y973D01*
Y963D01*
X868Y971D02*
X874D01*
X880Y977D01*
X886Y971D01*
X892D01*
Y977D01*
X886Y983D01*
X892Y989D01*
Y995D01*
X886D01*
X880Y989D01*
X874Y995D01*
X868D01*
Y989D01*
X874Y983D01*
X868Y977D01*
Y971D01*
X860Y1213D02*
X870D01*
X880Y1223D01*
X890Y1213D01*
X900D01*
Y1223D01*
X890Y1233D01*
X900Y1243D01*
Y1253D01*
X890D01*
X880Y1243D01*
X870Y1253D01*
X860D01*
Y1243D01*
X870Y1233D01*
X860Y1223D01*
Y1213D01*
X868Y1221D02*
X874D01*
X880Y1227D01*
X886Y1221D01*
X892D01*
Y1227D01*
X886Y1233D01*
X892Y1239D01*
Y1245D01*
X886D01*
X880Y1239D01*
X874Y1245D01*
X868D01*
Y1239D01*
X874Y1233D01*
X868Y1227D01*
Y1221D01*
X860Y1463D02*
X870D01*
X880Y1473D01*
X890Y1463D01*
X900D01*
Y1473D01*
X890Y1483D01*
X900Y1493D01*
Y1503D01*
X890D01*
X880Y1493D01*
X870Y1503D01*
X860D01*
Y1493D01*
X870Y1483D01*
X860Y1473D01*
Y1463D01*
X868Y1471D02*
X874D01*
X880Y1477D01*
X886Y1471D01*
X892D01*
Y1477D01*
X886Y1483D01*
X892Y1489D01*
Y1495D01*
X886D01*
X880Y1489D01*
X874Y1495D01*
X868D01*
Y1489D01*
X874Y1483D01*
X868Y1477D01*
Y1471D01*
X860Y1713D02*
X870D01*
X880Y1723D01*
X890Y1713D01*
X900D01*
Y1723D01*
X890Y1733D01*
X900Y1743D01*
Y1753D01*
X890D01*
X880Y1743D01*
X870Y1753D01*
X860D01*
Y1743D01*
X870Y1733D01*
X860Y1723D01*
Y1713D01*
X868Y1721D02*
X874D01*
X880Y1727D01*
X886Y1721D01*
X892D01*
Y1727D01*
X886Y1733D01*
X892Y1739D01*
Y1745D01*
X886D01*
X880Y1739D01*
X874Y1745D01*
X868D01*
Y1739D01*
X874Y1733D01*
X868Y1727D01*
Y1721D01*
X860Y1963D02*
X870D01*
X880Y1973D01*
X890Y1963D01*
X900D01*
Y1973D01*
X890Y1983D01*
X900Y1993D01*
Y2003D01*
X890D01*
X880Y1993D01*
X870Y2003D01*
X860D01*
Y1993D01*
X870Y1983D01*
X860Y1973D01*
Y1963D01*
X868Y1971D02*
X874D01*
X880Y1977D01*
X886Y1971D01*
X892D01*
Y1977D01*
X886Y1983D01*
X892Y1989D01*
Y1995D01*
X886D01*
X880Y1989D01*
X874Y1995D01*
X868D01*
Y1989D01*
X874Y1983D01*
X868Y1977D01*
Y1971D01*
X860Y4213D02*
X870D01*
X880Y4223D01*
X890Y4213D01*
X900D01*
Y4223D01*
X890Y4233D01*
X900Y4243D01*
Y4253D01*
X890D01*
X880Y4243D01*
X870Y4253D01*
X860D01*
Y4243D01*
X870Y4233D01*
X860Y4223D01*
Y4213D01*
X868Y4221D02*
X874D01*
X880Y4227D01*
X886Y4221D01*
X892D01*
Y4227D01*
X886Y4233D01*
X892Y4239D01*
Y4245D01*
X886D01*
X880Y4239D01*
X874Y4245D01*
X868D01*
Y4239D01*
X874Y4233D01*
X868Y4227D01*
Y4221D01*
X1110Y463D02*
X1120D01*
X1130Y473D01*
X1140Y463D01*
X1150D01*
Y473D01*
X1140Y483D01*
X1150Y493D01*
Y503D01*
X1140D01*
X1130Y493D01*
X1120Y503D01*
X1110D01*
Y493D01*
X1120Y483D01*
X1110Y473D01*
Y463D01*
X1118Y471D02*
X1124D01*
X1130Y477D01*
X1136Y471D01*
X1142D01*
Y477D01*
X1136Y483D01*
X1142Y489D01*
Y495D01*
X1136D01*
X1130Y489D01*
X1124Y495D01*
X1118D01*
Y489D01*
X1124Y483D01*
X1118Y477D01*
Y471D01*
X1110Y713D02*
X1120D01*
X1130Y723D01*
X1140Y713D01*
X1150D01*
Y723D01*
X1140Y733D01*
X1150Y743D01*
Y753D01*
X1140D01*
X1130Y743D01*
X1120Y753D01*
X1110D01*
Y743D01*
X1120Y733D01*
X1110Y723D01*
Y713D01*
X1118Y721D02*
X1124D01*
X1130Y727D01*
X1136Y721D01*
X1142D01*
Y727D01*
X1136Y733D01*
X1142Y739D01*
Y745D01*
X1136D01*
X1130Y739D01*
X1124Y745D01*
X1118D01*
Y739D01*
X1124Y733D01*
X1118Y727D01*
Y721D01*
X1110Y963D02*
X1120D01*
X1130Y973D01*
X1140Y963D01*
X1150D01*
Y973D01*
X1140Y983D01*
X1150Y993D01*
Y1003D01*
X1140D01*
X1130Y993D01*
X1120Y1003D01*
X1110D01*
Y993D01*
X1120Y983D01*
X1110Y973D01*
Y963D01*
X1118Y971D02*
X1124D01*
X1130Y977D01*
X1136Y971D01*
X1142D01*
Y977D01*
X1136Y983D01*
X1142Y989D01*
Y995D01*
X1136D01*
X1130Y989D01*
X1124Y995D01*
X1118D01*
Y989D01*
X1124Y983D01*
X1118Y977D01*
Y971D01*
X1110Y1213D02*
X1120D01*
X1130Y1223D01*
X1140Y1213D01*
X1150D01*
Y1223D01*
X1140Y1233D01*
X1150Y1243D01*
Y1253D01*
X1140D01*
X1130Y1243D01*
X1120Y1253D01*
X1110D01*
Y1243D01*
X1120Y1233D01*
X1110Y1223D01*
Y1213D01*
X1118Y1221D02*
X1124D01*
X1130Y1227D01*
X1136Y1221D01*
X1142D01*
Y1227D01*
X1136Y1233D01*
X1142Y1239D01*
Y1245D01*
X1136D01*
X1130Y1239D01*
X1124Y1245D01*
X1118D01*
Y1239D01*
X1124Y1233D01*
X1118Y1227D01*
Y1221D01*
X1110Y1463D02*
X1120D01*
X1130Y1473D01*
X1140Y1463D01*
X1150D01*
Y1473D01*
X1140Y1483D01*
X1150Y1493D01*
Y1503D01*
X1140D01*
X1130Y1493D01*
X1120Y1503D01*
X1110D01*
Y1493D01*
X1120Y1483D01*
X1110Y1473D01*
Y1463D01*
X1118Y1471D02*
X1124D01*
X1130Y1477D01*
X1136Y1471D01*
X1142D01*
Y1477D01*
X1136Y1483D01*
X1142Y1489D01*
Y1495D01*
X1136D01*
X1130Y1489D01*
X1124Y1495D01*
X1118D01*
Y1489D01*
X1124Y1483D01*
X1118Y1477D01*
Y1471D01*
X1110Y2213D02*
X1120D01*
X1130Y2223D01*
X1140Y2213D01*
X1150D01*
Y2223D01*
X1140Y2233D01*
X1150Y2243D01*
Y2253D01*
X1140D01*
X1130Y2243D01*
X1120Y2253D01*
X1110D01*
Y2243D01*
X1120Y2233D01*
X1110Y2223D01*
Y2213D01*
X1118Y2221D02*
X1124D01*
X1130Y2227D01*
X1136Y2221D01*
X1142D01*
Y2227D01*
X1136Y2233D01*
X1142Y2239D01*
Y2245D01*
X1136D01*
X1130Y2239D01*
X1124Y2245D01*
X1118D01*
Y2239D01*
X1124Y2233D01*
X1118Y2227D01*
Y2221D01*
X1610Y713D02*
X1620D01*
X1630Y723D01*
X1640Y713D01*
X1650D01*
Y723D01*
X1640Y733D01*
X1650Y743D01*
Y753D01*
X1640D01*
X1630Y743D01*
X1620Y753D01*
X1610D01*
Y743D01*
X1620Y733D01*
X1610Y723D01*
Y713D01*
X1618Y721D02*
X1624D01*
X1630Y727D01*
X1636Y721D01*
X1642D01*
Y727D01*
X1636Y733D01*
X1642Y739D01*
Y745D01*
X1636D01*
X1630Y739D01*
X1624Y745D01*
X1618D01*
Y739D01*
X1624Y733D01*
X1618Y727D01*
Y721D01*
X1610Y1213D02*
X1620D01*
X1630Y1223D01*
X1640Y1213D01*
X1650D01*
Y1223D01*
X1640Y1233D01*
X1650Y1243D01*
Y1253D01*
X1640D01*
X1630Y1243D01*
X1620Y1253D01*
X1610D01*
Y1243D01*
X1620Y1233D01*
X1610Y1223D01*
Y1213D01*
X1618Y1221D02*
X1624D01*
X1630Y1227D01*
X1636Y1221D01*
X1642D01*
Y1227D01*
X1636Y1233D01*
X1642Y1239D01*
Y1245D01*
X1636D01*
X1630Y1239D01*
X1624Y1245D01*
X1618D01*
Y1239D01*
X1624Y1233D01*
X1618Y1227D01*
Y1221D01*
X1610Y1463D02*
X1620D01*
X1630Y1473D01*
X1640Y1463D01*
X1650D01*
Y1473D01*
X1640Y1483D01*
X1650Y1493D01*
Y1503D01*
X1640D01*
X1630Y1493D01*
X1620Y1503D01*
X1610D01*
Y1493D01*
X1620Y1483D01*
X1610Y1473D01*
Y1463D01*
X1618Y1471D02*
X1624D01*
X1630Y1477D01*
X1636Y1471D01*
X1642D01*
Y1477D01*
X1636Y1483D01*
X1642Y1489D01*
Y1495D01*
X1636D01*
X1630Y1489D01*
X1624Y1495D01*
X1618D01*
Y1489D01*
X1624Y1483D01*
X1618Y1477D01*
Y1471D01*
X1610Y1713D02*
X1620D01*
X1630Y1723D01*
X1640Y1713D01*
X1650D01*
Y1723D01*
X1640Y1733D01*
X1650Y1743D01*
Y1753D01*
X1640D01*
X1630Y1743D01*
X1620Y1753D01*
X1610D01*
Y1743D01*
X1620Y1733D01*
X1610Y1723D01*
Y1713D01*
X1618Y1721D02*
X1624D01*
X1630Y1727D01*
X1636Y1721D01*
X1642D01*
Y1727D01*
X1636Y1733D01*
X1642Y1739D01*
Y1745D01*
X1636D01*
X1630Y1739D01*
X1624Y1745D01*
X1618D01*
Y1739D01*
X1624Y1733D01*
X1618Y1727D01*
Y1721D01*
X2610Y2213D02*
X2620D01*
X2630Y2223D01*
X2640Y2213D01*
X2650D01*
Y2223D01*
X2640Y2233D01*
X2650Y2243D01*
Y2253D01*
X2640D01*
X2630Y2243D01*
X2620Y2253D01*
X2610D01*
Y2243D01*
X2620Y2233D01*
X2610Y2223D01*
Y2213D01*
X2618Y2221D02*
X2624D01*
X2630Y2227D01*
X2636Y2221D01*
X2642D01*
Y2227D01*
X2636Y2233D01*
X2642Y2239D01*
Y2245D01*
X2636D01*
X2630Y2239D01*
X2624Y2245D01*
X2618D01*
Y2239D01*
X2624Y2233D01*
X2618Y2227D01*
Y2221D01*
X2610Y3213D02*
X2620D01*
X2630Y3223D01*
X2640Y3213D01*
X2650D01*
Y3223D01*
X2640Y3233D01*
X2650Y3243D01*
Y3253D01*
X2640D01*
X2630Y3243D01*
X2620Y3253D01*
X2610D01*
Y3243D01*
X2620Y3233D01*
X2610Y3223D01*
Y3213D01*
X2618Y3221D02*
X2624D01*
X2630Y3227D01*
X2636Y3221D01*
X2642D01*
Y3227D01*
X2636Y3233D01*
X2642Y3239D01*
Y3245D01*
X2636D01*
X2630Y3239D01*
X2624Y3245D01*
X2618D01*
Y3239D01*
X2624Y3233D01*
X2618Y3227D01*
Y3221D01*
X2860Y2213D02*
X2870D01*
X2880Y2223D01*
X2890Y2213D01*
X2900D01*
Y2223D01*
X2890Y2233D01*
X2900Y2243D01*
Y2253D01*
X2890D01*
X2880Y2243D01*
X2870Y2253D01*
X2860D01*
Y2243D01*
X2870Y2233D01*
X2860Y2223D01*
Y2213D01*
X2868Y2221D02*
X2874D01*
X2880Y2227D01*
X2886Y2221D01*
X2892D01*
Y2227D01*
X2886Y2233D01*
X2892Y2239D01*
Y2245D01*
X2886D01*
X2880Y2239D01*
X2874Y2245D01*
X2868D01*
Y2239D01*
X2874Y2233D01*
X2868Y2227D01*
Y2221D01*
X2860Y3213D02*
X2870D01*
X2880Y3223D01*
X2890Y3213D01*
X2900D01*
Y3223D01*
X2890Y3233D01*
X2900Y3243D01*
Y3253D01*
X2890D01*
X2880Y3243D01*
X2870Y3253D01*
X2860D01*
Y3243D01*
X2870Y3233D01*
X2860Y3223D01*
Y3213D01*
X2868Y3221D02*
X2874D01*
X2880Y3227D01*
X2886Y3221D01*
X2892D01*
Y3227D01*
X2886Y3233D01*
X2892Y3239D01*
Y3245D01*
X2886D01*
X2880Y3239D01*
X2874Y3245D01*
X2868D01*
Y3239D01*
X2874Y3233D01*
X2868Y3227D01*
Y3221D01*
X3110Y2213D02*
X3120D01*
X3130Y2223D01*
X3140Y2213D01*
X3150D01*
Y2223D01*
X3140Y2233D01*
X3150Y2243D01*
Y2253D01*
X3140D01*
X3130Y2243D01*
X3120Y2253D01*
X3110D01*
Y2243D01*
X3120Y2233D01*
X3110Y2223D01*
Y2213D01*
X3118Y2221D02*
X3124D01*
X3130Y2227D01*
X3136Y2221D01*
X3142D01*
Y2227D01*
X3136Y2233D01*
X3142Y2239D01*
Y2245D01*
X3136D01*
X3130Y2239D01*
X3124Y2245D01*
X3118D01*
Y2239D01*
X3124Y2233D01*
X3118Y2227D01*
Y2221D01*
X3110Y2463D02*
X3120D01*
X3130Y2473D01*
X3140Y2463D01*
X3150D01*
Y2473D01*
X3140Y2483D01*
X3150Y2493D01*
Y2503D01*
X3140D01*
X3130Y2493D01*
X3120Y2503D01*
X3110D01*
Y2493D01*
X3120Y2483D01*
X3110Y2473D01*
Y2463D01*
X3118Y2471D02*
X3124D01*
X3130Y2477D01*
X3136Y2471D01*
X3142D01*
Y2477D01*
X3136Y2483D01*
X3142Y2489D01*
Y2495D01*
X3136D01*
X3130Y2489D01*
X3124Y2495D01*
X3118D01*
Y2489D01*
X3124Y2483D01*
X3118Y2477D01*
Y2471D01*
X3110Y2713D02*
X3120D01*
X3130Y2723D01*
X3140Y2713D01*
X3150D01*
Y2723D01*
X3140Y2733D01*
X3150Y2743D01*
Y2753D01*
X3140D01*
X3130Y2743D01*
X3120Y2753D01*
X3110D01*
Y2743D01*
X3120Y2733D01*
X3110Y2723D01*
Y2713D01*
X3118Y2721D02*
X3124D01*
X3130Y2727D01*
X3136Y2721D01*
X3142D01*
Y2727D01*
X3136Y2733D01*
X3142Y2739D01*
Y2745D01*
X3136D01*
X3130Y2739D01*
X3124Y2745D01*
X3118D01*
Y2739D01*
X3124Y2733D01*
X3118Y2727D01*
Y2721D01*
X2213Y3186D02*
Y3219D01*
X2230Y3236D01*
X2246Y3219D01*
Y3186D01*
Y3211D01*
X2213D01*
X1620Y2720D02*
Y2670D01*
X1645D01*
X1653Y2678D01*
Y2687D01*
X1645Y2695D01*
X1620D01*
X1645D01*
X1653Y2703D01*
Y2712D01*
X1645Y2720D01*
X1620D01*
X1474Y2360D02*
X1484D01*
X1494Y2370D01*
X1504Y2360D01*
X1514D01*
Y2370D01*
X1504Y2380D01*
X1514Y2390D01*
Y2400D01*
X1504D01*
X1494Y2390D01*
X1484Y2400D01*
X1474D01*
Y2390D01*
X1484Y2380D01*
X1474Y2370D01*
Y2360D01*
X1482Y2368D02*
X1488D01*
X1494Y2374D01*
X1500Y2368D01*
X1506D01*
Y2374D01*
X1500Y2380D01*
X1506Y2386D01*
Y2392D01*
X1500D01*
X1494Y2386D01*
X1488Y2392D01*
X1482D01*
Y2386D01*
X1488Y2380D01*
X1482Y2374D01*
Y2368D01*
X1215Y1971D02*
Y2004D01*
X1232Y2021D01*
X1248Y2004D01*
Y1971D01*
Y1996D01*
X1215D01*
X1915Y2960D02*
Y2910D01*
X1940D01*
X1948Y2918D01*
Y2927D01*
X1940Y2935D01*
X1915D01*
X1940D01*
X1948Y2943D01*
Y2952D01*
X1940Y2960D01*
X1915D01*
X531Y3310D02*
Y3350D01*
X571D01*
Y3310D01*
X531D01*
X1960Y3640D02*
X1970D01*
X1980Y3650D01*
X1990Y3640D01*
X2000D01*
Y3650D01*
X1990Y3660D01*
X2000Y3670D01*
Y3680D01*
X1990D01*
X1980Y3670D01*
X1970Y3680D01*
X1960D01*
Y3670D01*
X1970Y3660D01*
X1960Y3650D01*
Y3640D01*
X1968Y3648D02*
X1974D01*
X1980Y3654D01*
X1986Y3648D01*
X1992D01*
Y3654D01*
X1986Y3660D01*
X1992Y3666D01*
Y3672D01*
X1986D01*
X1980Y3666D01*
X1974Y3672D01*
X1968D01*
Y3666D01*
X1974Y3660D01*
X1968Y3654D01*
Y3648D01*
X1710Y3550D02*
X1720D01*
X1730Y3560D01*
X1740Y3550D01*
X1750D01*
Y3560D01*
X1740Y3570D01*
X1750Y3580D01*
Y3590D01*
X1740D01*
X1730Y3580D01*
X1720Y3590D01*
X1710D01*
Y3580D01*
X1720Y3570D01*
X1710Y3560D01*
Y3550D01*
X1718Y3558D02*
X1724D01*
X1730Y3564D01*
X1736Y3558D01*
X1742D01*
Y3564D01*
X1736Y3570D01*
X1742Y3576D01*
Y3582D01*
X1736D01*
X1730Y3576D01*
X1724Y3582D01*
X1718D01*
Y3576D01*
X1724Y3570D01*
X1718Y3564D01*
Y3558D01*
X1740Y3880D02*
X1750D01*
X1760Y3890D01*
X1770Y3880D01*
X1780D01*
Y3890D01*
X1770Y3900D01*
X1780Y3910D01*
Y3920D01*
X1770D01*
X1760Y3910D01*
X1750Y3920D01*
X1740D01*
Y3910D01*
X1750Y3900D01*
X1740Y3890D01*
Y3880D01*
X1748Y3888D02*
X1754D01*
X1760Y3894D01*
X1766Y3888D01*
X1772D01*
Y3894D01*
X1766Y3900D01*
X1772Y3906D01*
Y3912D01*
X1766D01*
X1760Y3906D01*
X1754Y3912D01*
X1748D01*
Y3906D01*
X1754Y3900D01*
X1748Y3894D01*
Y3888D01*
X1700Y4070D02*
X1710D01*
X1720Y4080D01*
X1730Y4070D01*
X1740D01*
Y4080D01*
X1730Y4090D01*
X1740Y4100D01*
Y4110D01*
X1730D01*
X1720Y4100D01*
X1710Y4110D01*
X1700D01*
Y4100D01*
X1710Y4090D01*
X1700Y4080D01*
Y4070D01*
X1708Y4078D02*
X1714D01*
X1720Y4084D01*
X1726Y4078D01*
X1732D01*
Y4084D01*
X1726Y4090D01*
X1732Y4096D01*
Y4102D01*
X1726D01*
X1720Y4096D01*
X1714Y4102D01*
X1708D01*
Y4096D01*
X1714Y4090D01*
X1708Y4084D01*
Y4078D01*
X1680Y3980D02*
X1690D01*
X1700Y3990D01*
X1710Y3980D01*
X1720D01*
Y3990D01*
X1710Y4000D01*
X1720Y4010D01*
Y4020D01*
X1710D01*
X1700Y4010D01*
X1690Y4020D01*
X1680D01*
Y4010D01*
X1690Y4000D01*
X1680Y3990D01*
Y3980D01*
X1688Y3988D02*
X1694D01*
X1700Y3994D01*
X1706Y3988D01*
X1712D01*
Y3994D01*
X1706Y4000D01*
X1712Y4006D01*
Y4012D01*
X1706D01*
X1700Y4006D01*
X1694Y4012D01*
X1688D01*
Y4006D01*
X1694Y4000D01*
X1688Y3994D01*
Y3988D01*
X1660Y3939D02*
X1670D01*
X1680Y3949D01*
X1690Y3939D01*
X1700D01*
Y3949D01*
X1690Y3959D01*
X1700Y3969D01*
Y3979D01*
X1690D01*
X1680Y3969D01*
X1670Y3979D01*
X1660D01*
Y3969D01*
X1670Y3959D01*
X1660Y3949D01*
Y3939D01*
X1668Y3947D02*
X1674D01*
X1680Y3953D01*
X1686Y3947D01*
X1692D01*
Y3953D01*
X1686Y3959D01*
X1692Y3965D01*
Y3971D01*
X1686D01*
X1680Y3965D01*
X1674Y3971D01*
X1668D01*
Y3965D01*
X1674Y3959D01*
X1668Y3953D01*
Y3947D01*
X1920Y3710D02*
Y3743D01*
X1937Y3760D01*
X1953Y3743D01*
Y3710D01*
Y3735D01*
X1920D01*
X2080Y4048D02*
X2090D01*
X2100Y4058D01*
X2110Y4048D01*
X2120D01*
Y4058D01*
X2110Y4068D01*
X2120Y4078D01*
Y4088D01*
X2110D01*
X2100Y4078D01*
X2090Y4088D01*
X2080D01*
Y4078D01*
X2090Y4068D01*
X2080Y4058D01*
Y4048D01*
X2088Y4056D02*
X2094D01*
X2100Y4062D01*
X2106Y4056D01*
X2112D01*
Y4062D01*
X2106Y4068D01*
X2112Y4074D01*
Y4080D01*
X2106D01*
X2100Y4074D01*
X2094Y4080D01*
X2088D01*
Y4074D01*
X2094Y4068D01*
X2088Y4062D01*
Y4056D01*
X1843Y4090D02*
Y4123D01*
X1859Y4140D01*
X1876Y4123D01*
Y4090D01*
Y4115D01*
X1843D01*
X2170Y4236D02*
Y4270D01*
X2187Y4286D01*
X2203Y4270D01*
Y4236D01*
Y4261D01*
X2170D01*
X1743Y4236D02*
Y4270D01*
X1760Y4286D01*
X1776Y4270D01*
Y4236D01*
Y4261D01*
X1743D01*
X2363Y4155D02*
Y4188D01*
X2380Y4205D01*
X2396Y4188D01*
Y4155D01*
Y4180D01*
X2363D01*
X2064Y4364D02*
X2074D01*
X2084Y4374D01*
X2094Y4364D01*
X2104D01*
Y4374D01*
X2094Y4384D01*
X2104Y4394D01*
Y4404D01*
X2094D01*
X2084Y4394D01*
X2074Y4404D01*
X2064D01*
Y4394D01*
X2074Y4384D01*
X2064Y4374D01*
Y4364D01*
X2072Y4372D02*
X2078D01*
X2084Y4378D01*
X2090Y4372D01*
X2096D01*
Y4378D01*
X2090Y4384D01*
X2096Y4390D01*
Y4396D01*
X2090D01*
X2084Y4390D01*
X2078Y4396D01*
X2072D01*
Y4390D01*
X2078Y4384D01*
X2072Y4378D01*
Y4372D01*
X1165Y3534D02*
X1175D01*
X1185Y3544D01*
X1195Y3534D01*
X1205D01*
Y3544D01*
X1195Y3554D01*
X1205Y3564D01*
Y3574D01*
X1195D01*
X1185Y3564D01*
X1175Y3574D01*
X1165D01*
Y3564D01*
X1175Y3554D01*
X1165Y3544D01*
Y3534D01*
X1173Y3542D02*
X1179D01*
X1185Y3548D01*
X1191Y3542D01*
X1197D01*
Y3548D01*
X1191Y3554D01*
X1197Y3560D01*
Y3566D01*
X1191D01*
X1185Y3560D01*
X1179Y3566D01*
X1173D01*
Y3560D01*
X1179Y3554D01*
X1173Y3548D01*
Y3542D01*
X2657Y3805D02*
X2667D01*
X2677Y3815D01*
X2687Y3805D01*
X2697D01*
Y3815D01*
X2687Y3825D01*
X2697Y3835D01*
Y3845D01*
X2687D01*
X2677Y3835D01*
X2667Y3845D01*
X2657D01*
Y3835D01*
X2667Y3825D01*
X2657Y3815D01*
Y3805D01*
X2665Y3813D02*
X2671D01*
X2677Y3819D01*
X2683Y3813D01*
X2689D01*
Y3819D01*
X2683Y3825D01*
X2689Y3831D01*
Y3837D01*
X2683D01*
X2677Y3831D01*
X2671Y3837D01*
X2665D01*
Y3831D01*
X2671Y3825D01*
X2665Y3819D01*
Y3813D01*
X2243Y3830D02*
X2253D01*
X2263Y3840D01*
X2273Y3830D01*
X2283D01*
Y3840D01*
X2273Y3850D01*
X2283Y3860D01*
Y3870D01*
X2273D01*
X2263Y3860D01*
X2253Y3870D01*
X2243D01*
Y3860D01*
X2253Y3850D01*
X2243Y3840D01*
Y3830D01*
X2251Y3838D02*
X2257D01*
X2263Y3844D01*
X2269Y3838D01*
X2275D01*
Y3844D01*
X2269Y3850D01*
X2275Y3856D01*
Y3862D01*
X2269D01*
X2263Y3856D01*
X2257Y3862D01*
X2251D01*
Y3856D01*
X2257Y3850D01*
X2251Y3844D01*
Y3838D01*
X2115Y4005D02*
X2125D01*
X2135Y4015D01*
X2145Y4005D01*
X2155D01*
Y4015D01*
X2145Y4025D01*
X2155Y4035D01*
Y4045D01*
X2145D01*
X2135Y4035D01*
X2125Y4045D01*
X2115D01*
Y4035D01*
X2125Y4025D01*
X2115Y4015D01*
Y4005D01*
X2123Y4013D02*
X2129D01*
X2135Y4019D01*
X2141Y4013D01*
X2147D01*
Y4019D01*
X2141Y4025D01*
X2147Y4031D01*
Y4037D01*
X2141D01*
X2135Y4031D01*
X2129Y4037D01*
X2123D01*
Y4031D01*
X2129Y4025D01*
X2123Y4019D01*
Y4013D01*
X1305Y3380D02*
X1315D01*
X1325Y3390D01*
X1335Y3380D01*
X1345D01*
Y3390D01*
X1335Y3400D01*
X1345Y3410D01*
Y3420D01*
X1335D01*
X1325Y3410D01*
X1315Y3420D01*
X1305D01*
Y3410D01*
X1315Y3400D01*
X1305Y3390D01*
Y3380D01*
X1313Y3388D02*
X1319D01*
X1325Y3394D01*
X1331Y3388D01*
X1337D01*
Y3394D01*
X1331Y3400D01*
X1337Y3406D01*
Y3412D01*
X1331D01*
X1325Y3406D01*
X1319Y3412D01*
X1313D01*
Y3406D01*
X1319Y3400D01*
X1313Y3394D01*
Y3388D01*
X1233Y3442D02*
X1225Y3450D01*
X1208D01*
X1200Y3442D01*
Y3408D01*
X1208Y3400D01*
X1225D01*
X1233Y3408D01*
X2456Y3794D02*
X2466D01*
X2476Y3804D01*
X2486Y3794D01*
X2496D01*
Y3804D01*
X2486Y3814D01*
X2496Y3824D01*
Y3834D01*
X2486D01*
X2476Y3824D01*
X2466Y3834D01*
X2456D01*
Y3824D01*
X2466Y3814D01*
X2456Y3804D01*
Y3794D01*
X2464Y3802D02*
X2470D01*
X2476Y3808D01*
X2482Y3802D01*
X2488D01*
Y3808D01*
X2482Y3814D01*
X2488Y3820D01*
Y3826D01*
X2482D01*
X2476Y3820D01*
X2470Y3826D01*
X2464D01*
Y3820D01*
X2470Y3814D01*
X2464Y3808D01*
Y3802D01*
X2455Y3842D02*
X2465D01*
X2475Y3852D01*
X2485Y3842D01*
X2495D01*
Y3852D01*
X2485Y3862D01*
X2495Y3872D01*
Y3882D01*
X2485D01*
X2475Y3872D01*
X2465Y3882D01*
X2455D01*
Y3872D01*
X2465Y3862D01*
X2455Y3852D01*
Y3842D01*
X2463Y3850D02*
X2469D01*
X2475Y3856D01*
X2481Y3850D01*
X2487D01*
Y3856D01*
X2481Y3862D01*
X2487Y3868D01*
Y3874D01*
X2481D01*
X2475Y3868D01*
X2469Y3874D01*
X2463D01*
Y3868D01*
X2469Y3862D01*
X2463Y3856D01*
Y3850D01*
X1534Y3823D02*
X1544D01*
X1554Y3833D01*
X1564Y3823D01*
X1574D01*
Y3833D01*
X1564Y3843D01*
X1574Y3853D01*
Y3863D01*
X1564D01*
X1554Y3853D01*
X1544Y3863D01*
X1534D01*
Y3853D01*
X1544Y3843D01*
X1534Y3833D01*
Y3823D01*
X1542Y3831D02*
X1548D01*
X1554Y3837D01*
X1560Y3831D01*
X1566D01*
Y3837D01*
X1560Y3843D01*
X1566Y3849D01*
Y3855D01*
X1560D01*
X1554Y3849D01*
X1548Y3855D01*
X1542D01*
Y3849D01*
X1548Y3843D01*
X1542Y3837D01*
Y3831D01*
X1530Y3744D02*
X1540D01*
X1550Y3754D01*
X1560Y3744D01*
X1570D01*
Y3754D01*
X1560Y3764D01*
X1570Y3774D01*
Y3784D01*
X1560D01*
X1550Y3774D01*
X1540Y3784D01*
X1530D01*
Y3774D01*
X1540Y3764D01*
X1530Y3754D01*
Y3744D01*
X1538Y3752D02*
X1544D01*
X1550Y3758D01*
X1556Y3752D01*
X1562D01*
Y3758D01*
X1556Y3764D01*
X1562Y3770D01*
Y3776D01*
X1556D01*
X1550Y3770D01*
X1544Y3776D01*
X1538D01*
Y3770D01*
X1544Y3764D01*
X1538Y3758D01*
Y3752D01*
X2193Y4255D02*
X2203D01*
X2213Y4265D01*
X2223Y4255D01*
X2233D01*
Y4265D01*
X2223Y4275D01*
X2233Y4285D01*
Y4295D01*
X2223D01*
X2213Y4285D01*
X2203Y4295D01*
X2193D01*
Y4285D01*
X2203Y4275D01*
X2193Y4265D01*
Y4255D01*
X2201Y4263D02*
X2207D01*
X2213Y4269D01*
X2219Y4263D01*
X2225D01*
Y4269D01*
X2219Y4275D01*
X2225Y4281D01*
Y4287D01*
X2219D01*
X2213Y4281D01*
X2207Y4287D01*
X2201D01*
Y4281D01*
X2207Y4275D01*
X2201Y4269D01*
Y4263D01*
X2291Y3670D02*
X2301D01*
X2311Y3680D01*
X2321Y3670D01*
X2331D01*
Y3680D01*
X2321Y3690D01*
X2331Y3700D01*
Y3710D01*
X2321D01*
X2311Y3700D01*
X2301Y3710D01*
X2291D01*
Y3700D01*
X2301Y3690D01*
X2291Y3680D01*
Y3670D01*
X2299Y3678D02*
X2305D01*
X2311Y3684D01*
X2317Y3678D01*
X2323D01*
Y3684D01*
X2317Y3690D01*
X2323Y3696D01*
Y3702D01*
X2317D01*
X2311Y3696D01*
X2305Y3702D01*
X2299D01*
Y3696D01*
X2305Y3690D01*
X2299Y3684D01*
Y3678D01*
X2293Y3585D02*
X2303D01*
X2313Y3595D01*
X2323Y3585D01*
X2333D01*
Y3595D01*
X2323Y3605D01*
X2333Y3615D01*
Y3625D01*
X2323D01*
X2313Y3615D01*
X2303Y3625D01*
X2293D01*
Y3615D01*
X2303Y3605D01*
X2293Y3595D01*
Y3585D01*
X2301Y3593D02*
X2307D01*
X2313Y3599D01*
X2319Y3593D01*
X2325D01*
Y3599D01*
X2319Y3605D01*
X2325Y3611D01*
Y3617D01*
X2319D01*
X2313Y3611D01*
X2307Y3617D01*
X2301D01*
Y3611D01*
X2307Y3605D01*
X2301Y3599D01*
Y3593D01*
X2580Y3500D02*
X2590D01*
X2600Y3510D01*
X2610Y3500D01*
X2620D01*
Y3510D01*
X2610Y3520D01*
X2620Y3530D01*
Y3540D01*
X2610D01*
X2600Y3530D01*
X2590Y3540D01*
X2580D01*
Y3530D01*
X2590Y3520D01*
X2580Y3510D01*
Y3500D01*
X2588Y3508D02*
X2594D01*
X2600Y3514D01*
X2606Y3508D01*
X2612D01*
Y3514D01*
X2606Y3520D01*
X2612Y3526D01*
Y3532D01*
X2606D01*
X2600Y3526D01*
X2594Y3532D01*
X2588D01*
Y3526D01*
X2594Y3520D01*
X2588Y3514D01*
Y3508D01*
X2510Y3500D02*
X2520D01*
X2530Y3510D01*
X2540Y3500D01*
X2550D01*
Y3510D01*
X2540Y3520D01*
X2550Y3530D01*
Y3540D01*
X2540D01*
X2530Y3530D01*
X2520Y3540D01*
X2510D01*
Y3530D01*
X2520Y3520D01*
X2510Y3510D01*
Y3500D01*
X2518Y3508D02*
X2524D01*
X2530Y3514D01*
X2536Y3508D01*
X2542D01*
Y3514D01*
X2536Y3520D01*
X2542Y3526D01*
Y3532D01*
X2536D01*
X2530Y3526D01*
X2524Y3532D01*
X2518D01*
Y3526D01*
X2524Y3520D01*
X2518Y3514D01*
Y3508D01*
X2440Y3500D02*
X2450D01*
X2460Y3510D01*
X2470Y3500D01*
X2480D01*
Y3510D01*
X2470Y3520D01*
X2480Y3530D01*
Y3540D01*
X2470D01*
X2460Y3530D01*
X2450Y3540D01*
X2440D01*
Y3530D01*
X2450Y3520D01*
X2440Y3510D01*
Y3500D01*
X2448Y3508D02*
X2454D01*
X2460Y3514D01*
X2466Y3508D01*
X2472D01*
Y3514D01*
X2466Y3520D01*
X2472Y3526D01*
Y3532D01*
X2466D01*
X2460Y3526D01*
X2454Y3532D01*
X2448D01*
Y3526D01*
X2454Y3520D01*
X2448Y3514D01*
Y3508D01*
X1460Y3370D02*
X1470D01*
X1480Y3380D01*
X1490Y3370D01*
X1500D01*
Y3380D01*
X1490Y3390D01*
X1500Y3400D01*
Y3410D01*
X1490D01*
X1480Y3400D01*
X1470Y3410D01*
X1460D01*
Y3400D01*
X1470Y3390D01*
X1460Y3380D01*
Y3370D01*
X1468Y3378D02*
X1474D01*
X1480Y3384D01*
X1486Y3378D01*
X1492D01*
Y3384D01*
X1486Y3390D01*
X1492Y3396D01*
Y3402D01*
X1486D01*
X1480Y3396D01*
X1474Y3402D01*
X1468D01*
Y3396D01*
X1474Y3390D01*
X1468Y3384D01*
Y3378D01*
X2651Y3500D02*
X2661D01*
X2671Y3510D01*
X2681Y3500D01*
X2691D01*
Y3510D01*
X2681Y3520D01*
X2691Y3530D01*
Y3540D01*
X2681D01*
X2671Y3530D01*
X2661Y3540D01*
X2651D01*
Y3530D01*
X2661Y3520D01*
X2651Y3510D01*
Y3500D01*
X2659Y3508D02*
X2665D01*
X2671Y3514D01*
X2677Y3508D01*
X2683D01*
Y3514D01*
X2677Y3520D01*
X2683Y3526D01*
Y3532D01*
X2677D01*
X2671Y3526D01*
X2665Y3532D01*
X2659D01*
Y3526D01*
X2665Y3520D01*
X2659Y3514D01*
Y3508D01*
X2650Y4405D02*
X2660D01*
X2670Y4415D01*
X2680Y4405D01*
X2690D01*
Y4415D01*
X2680Y4425D01*
X2690Y4435D01*
Y4445D01*
X2680D01*
X2670Y4435D01*
X2660Y4445D01*
X2650D01*
Y4435D01*
X2660Y4425D01*
X2650Y4415D01*
Y4405D01*
X2658Y4413D02*
X2664D01*
X2670Y4419D01*
X2676Y4413D01*
X2682D01*
Y4419D01*
X2676Y4425D01*
X2682Y4431D01*
Y4437D01*
X2676D01*
X2670Y4431D01*
X2664Y4437D01*
X2658D01*
Y4431D01*
X2664Y4425D01*
X2658Y4419D01*
Y4413D01*
X1225Y3807D02*
Y3757D01*
X1250D01*
X1258Y3765D01*
Y3773D01*
X1250Y3782D01*
X1225D01*
X1250D01*
X1258Y3790D01*
Y3798D01*
X1250Y3807D01*
X1225D01*
X1575Y4297D02*
Y4337D01*
X1615D01*
Y4297D01*
X1575D01*
X1583Y4305D02*
Y4329D01*
X1607D01*
Y4305D01*
X1583D01*
X1580Y4100D02*
Y4140D01*
X1620D01*
Y4100D01*
X1580D01*
X1588Y4108D02*
Y4132D01*
X1612D01*
Y4108D01*
X1588D01*
X1550Y3900D02*
X1560D01*
X1570Y3910D01*
X1580Y3900D01*
X1590D01*
Y3910D01*
X1580Y3920D01*
X1590Y3930D01*
Y3940D01*
X1580D01*
X1570Y3930D01*
X1560Y3940D01*
X1550D01*
Y3930D01*
X1560Y3920D01*
X1550Y3910D01*
Y3900D01*
X1558Y3908D02*
X1564D01*
X1570Y3914D01*
X1576Y3908D01*
X1582D01*
Y3914D01*
X1576Y3920D01*
X1582Y3926D01*
Y3932D01*
X1576D01*
X1570Y3926D01*
X1564Y3932D01*
X1558D01*
Y3926D01*
X1564Y3920D01*
X1558Y3914D01*
Y3908D01*
X1530Y3550D02*
X1540D01*
X1550Y3560D01*
X1560Y3550D01*
X1570D01*
Y3560D01*
X1560Y3570D01*
X1570Y3580D01*
Y3590D01*
X1560D01*
X1550Y3580D01*
X1540Y3590D01*
X1530D01*
Y3580D01*
X1540Y3570D01*
X1530Y3560D01*
Y3550D01*
X1538Y3558D02*
X1544D01*
X1550Y3564D01*
X1556Y3558D01*
X1562D01*
Y3564D01*
X1556Y3570D01*
X1562Y3576D01*
Y3582D01*
X1556D01*
X1550Y3576D01*
X1544Y3582D01*
X1538D01*
Y3576D01*
X1544Y3570D01*
X1538Y3564D01*
Y3558D01*
X2360Y3463D02*
X2370D01*
X2380Y3473D01*
X2390Y3463D01*
X2400D01*
Y3473D01*
X2390Y3483D01*
X2400Y3493D01*
Y3503D01*
X2390D01*
X2380Y3493D01*
X2370Y3503D01*
X2360D01*
Y3493D01*
X2370Y3483D01*
X2360Y3473D01*
Y3463D01*
X2368Y3471D02*
X2374D01*
X2380Y3477D01*
X2386Y3471D01*
X2392D01*
Y3477D01*
X2386Y3483D01*
X2392Y3489D01*
Y3495D01*
X2386D01*
X2380Y3489D01*
X2374Y3495D01*
X2368D01*
Y3489D01*
X2374Y3483D01*
X2368Y3477D01*
Y3471D01*
X2610Y3463D02*
X2620D01*
X2630Y3473D01*
X2640Y3463D01*
X2650D01*
Y3473D01*
X2640Y3483D01*
X2650Y3493D01*
Y3503D01*
X2640D01*
X2630Y3493D01*
X2620Y3503D01*
X2610D01*
Y3493D01*
X2620Y3483D01*
X2610Y3473D01*
Y3463D01*
X2618Y3471D02*
X2624D01*
X2630Y3477D01*
X2636Y3471D01*
X2642D01*
Y3477D01*
X2636Y3483D01*
X2642Y3489D01*
Y3495D01*
X2636D01*
X2630Y3489D01*
X2624Y3495D01*
X2618D01*
Y3489D01*
X2624Y3483D01*
X2618Y3477D01*
Y3471D01*
X1696Y3765D02*
Y3798D01*
X1713Y3815D01*
X1730Y3798D01*
Y3765D01*
Y3790D01*
X1696D01*
Y3611D02*
Y3644D01*
X1713Y3661D01*
X1730Y3644D01*
Y3611D01*
Y3636D01*
X1696D01*
X1800Y3600D02*
X1810D01*
X1820Y3610D01*
X1830Y3600D01*
X1840D01*
Y3610D01*
X1830Y3620D01*
X1840Y3630D01*
Y3640D01*
X1830D01*
X1820Y3630D01*
X1810Y3640D01*
X1800D01*
Y3630D01*
X1810Y3620D01*
X1800Y3610D01*
Y3600D01*
X1808Y3608D02*
X1814D01*
X1820Y3614D01*
X1826Y3608D01*
X1832D01*
Y3614D01*
X1826Y3620D01*
X1832Y3626D01*
Y3632D01*
X1826D01*
X1820Y3626D01*
X1814Y3632D01*
X1808D01*
Y3626D01*
X1814Y3620D01*
X1808Y3614D01*
Y3608D01*
X1905Y3604D02*
Y3554D01*
X1930D01*
X1938Y3563D01*
Y3571D01*
X1930Y3579D01*
X1905D01*
X1930D01*
X1938Y3588D01*
Y3596D01*
X1930Y3604D01*
X1905D01*
X1798Y3535D02*
X1808D01*
X1818Y3545D01*
X1828Y3535D01*
X1838D01*
Y3545D01*
X1828Y3555D01*
X1838Y3565D01*
Y3575D01*
X1828D01*
X1818Y3565D01*
X1808Y3575D01*
X1798D01*
Y3565D01*
X1808Y3555D01*
X1798Y3545D01*
Y3535D01*
X1806Y3543D02*
X1812D01*
X1818Y3549D01*
X1824Y3543D01*
X1830D01*
Y3549D01*
X1824Y3555D01*
X1830Y3561D01*
Y3567D01*
X1824D01*
X1818Y3561D01*
X1812Y3567D01*
X1806D01*
Y3561D01*
X1812Y3555D01*
X1806Y3549D01*
Y3543D01*
X1438Y3555D02*
X1448D01*
X1458Y3565D01*
X1468Y3555D01*
X1478D01*
Y3565D01*
X1468Y3575D01*
X1478Y3585D01*
Y3595D01*
X1468D01*
X1458Y3585D01*
X1448Y3595D01*
X1438D01*
Y3585D01*
X1448Y3575D01*
X1438Y3565D01*
Y3555D01*
X1446Y3563D02*
X1452D01*
X1458Y3569D01*
X1464Y3563D01*
X1470D01*
Y3569D01*
X1464Y3575D01*
X1470Y3581D01*
Y3587D01*
X1464D01*
X1458Y3581D01*
X1452Y3587D01*
X1446D01*
Y3581D01*
X1452Y3575D01*
X1446Y3569D01*
Y3563D01*
X2052Y4068D02*
Y4101D01*
X2069Y4118D01*
X2085Y4101D01*
Y4068D01*
Y4093D01*
X2052D01*
X12240Y2086D02*
X12252D01*
X12264Y2098D01*
X12276Y2086D01*
X12288D01*
Y2098D01*
X12276Y2110D01*
X12288Y2122D01*
Y2134D01*
X12276D01*
X12264Y2122D01*
X12252Y2134D01*
X12240D01*
Y2122D01*
X12252Y2110D01*
X12240Y2098D01*
Y2086D01*
X12250Y2096D02*
X12257D01*
X12264Y2103D01*
X12271Y2096D01*
X12278D01*
Y2103D01*
X12271Y2110D01*
X12278Y2117D01*
Y2124D01*
X12271D01*
X12264Y2117D01*
X12257Y2124D01*
X12250D01*
Y2117D01*
X12257Y2110D01*
X12250Y2103D01*
Y2096D01*
X12240Y1726D02*
Y1774D01*
X12288D01*
Y1726D01*
X12240D01*
X12250Y1736D02*
Y1764D01*
X12278D01*
Y1736D01*
X12250D01*
X12240Y1606D02*
Y1654D01*
X12288D01*
Y1606D01*
X12240D01*
X12264Y1486D02*
X12240Y1534D01*
X12288D01*
X12264Y1486D01*
X12240Y1366D02*
X12252Y1390D01*
X12240Y1414D01*
X12264Y1402D01*
X12288Y1414D01*
X12276Y1390D01*
X12288Y1366D01*
X12264Y1378D01*
X12240Y1366D01*
X12252Y1258D02*
Y1246D01*
X12276D01*
Y1258D01*
X12288D01*
Y1282D01*
X12276D01*
Y1294D01*
X12252D01*
Y1282D01*
X12240D01*
Y1258D01*
X12252D01*
X12264Y1126D02*
X12276Y1138D01*
X12288D01*
X12276Y1150D01*
X12288Y1162D01*
X12276D01*
X12264Y1174D01*
X12252Y1162D01*
X12240D01*
X12252Y1150D01*
X12240Y1138D01*
X12252D01*
X12264Y1126D01*
X12252Y898D02*
Y886D01*
X12276D01*
Y898D01*
X12288D01*
Y922D01*
X12276D01*
Y934D01*
X12252D01*
Y922D01*
X12240D01*
Y898D01*
X12252D01*
X12257Y903D02*
Y896D01*
X12271D01*
Y903D01*
X12278D01*
Y917D01*
X12271D01*
Y924D01*
X12257D01*
Y917D01*
X12250D01*
Y903D01*
X12257D01*
X12264Y766D02*
X12276Y778D01*
X12288D01*
X12276Y790D01*
X12288Y802D01*
X12276D01*
X12264Y814D01*
X12252Y802D01*
X12240D01*
X12252Y790D01*
X12240Y778D01*
X12252D01*
X12264Y766D01*
Y776D02*
X12271Y783D01*
X12278D01*
X12271Y790D01*
X12278Y797D01*
X12271D01*
X12264Y804D01*
X12257Y797D01*
X12250D01*
X12257Y790D01*
X12250Y783D01*
X12257D01*
X12264Y776D01*
X12240Y646D02*
X12252D01*
X12264Y658D01*
X12276Y646D01*
X12288D01*
Y658D01*
X12276Y670D01*
X12288Y682D01*
Y694D01*
X12276D01*
X12264Y682D01*
X12252Y694D01*
X12240D01*
Y682D01*
X12252Y670D01*
X12240Y658D01*
Y646D01*
Y526D02*
X12252Y550D01*
X12240Y574D01*
X12264Y562D01*
X12288Y574D01*
X12276Y550D01*
X12288Y526D01*
X12264Y538D01*
X12240Y526D01*
X12250Y536D02*
X12257Y550D01*
X12250Y564D01*
X12264Y557D01*
X12278Y564D01*
X12271Y550D01*
X12278Y536D01*
X12264Y543D01*
X12250Y536D01*
X12264Y406D02*
X12240Y454D01*
X12288D01*
X12264Y406D01*
Y416D02*
X12250Y444D01*
X12278D01*
X12264Y416D01*
X12240Y190D02*
X12264Y214D01*
X12288Y190D01*
X12264Y166D01*
X12240Y190D01*
D116*
X2626Y2630D02*
G03*
X2626Y2630I-12J0D01*
G01*
Y2430D02*
G03*
X2626Y2430I-12J0D01*
G01*
X799Y2630D02*
G03*
X799Y2630I-12J0D01*
G01*
Y2430D02*
G03*
X799Y2430I-12J0D01*
G01*
D179*
X828Y4220D02*
G03*
X828Y4220I-20J0D01*
G01*
X2960D02*
G03*
X2960Y4220I-20J0D01*
G01*
X2634Y2630D02*
G03*
X2634Y2630I-20J0D01*
G01*
Y2430D02*
G03*
X2634Y2430I-20J0D01*
G01*
X807Y2630D02*
G03*
X807Y2630I-20J0D01*
G01*
Y2430D02*
G03*
X807Y2430I-20J0D01*
G01*
D180*
X12288Y2404D02*
X12276Y2416D01*
X12252D01*
X12240Y2404D01*
Y2392D01*
X12252Y2380D01*
X12276D01*
X12288Y2368D01*
Y2356D01*
X12276Y2344D01*
X12252D01*
X12240Y2356D01*
X12312Y2392D02*
Y2356D01*
X12324Y2344D01*
X12360D01*
Y2332D01*
X12348Y2320D01*
X12336D01*
X12360Y2344D02*
Y2392D01*
X12384Y2344D02*
Y2392D01*
X12396D01*
X12408Y2380D01*
Y2344D01*
Y2380D01*
X12420Y2392D01*
X12432Y2380D01*
Y2344D01*
X12456Y2416D02*
Y2344D01*
X12492D01*
X12504Y2356D01*
Y2368D01*
Y2380D01*
X12492Y2392D01*
X12456D01*
X12540Y2344D02*
X12564D01*
X12576Y2356D01*
Y2380D01*
X12564Y2392D01*
X12540D01*
X12528Y2380D01*
Y2356D01*
X12540Y2344D01*
X12600D02*
X12624D01*
X12612D01*
Y2416D01*
X12600D01*
X12744D02*
Y2344D01*
Y2380D01*
X12792D01*
Y2416D01*
Y2344D01*
X12816D02*
X12840D01*
X12828D01*
Y2392D01*
X12816D01*
X12888Y2404D02*
Y2392D01*
X12876D01*
X12900D01*
X12888D01*
Y2356D01*
X12900Y2344D01*
X13056Y2404D02*
X13044Y2416D01*
X13020D01*
X13008Y2404D01*
Y2356D01*
X13020Y2344D01*
X13044D01*
X13056Y2356D01*
X13092Y2344D02*
X13116D01*
X13128Y2356D01*
Y2380D01*
X13116Y2392D01*
X13092D01*
X13080Y2380D01*
Y2356D01*
X13092Y2344D01*
X13152Y2392D02*
Y2356D01*
X13164Y2344D01*
X13200D01*
Y2392D01*
X13224Y2344D02*
Y2392D01*
X13260D01*
X13272Y2380D01*
Y2344D01*
X13308Y2404D02*
Y2392D01*
X13296D01*
X13320D01*
X13308D01*
Y2356D01*
X13320Y2344D01*
X13488Y2416D02*
X13440D01*
Y2380D01*
X13464D01*
X13440D01*
Y2344D01*
X13512D02*
X13536D01*
X13524D01*
Y2392D01*
X13512D01*
X13572Y2344D02*
Y2392D01*
X13608D01*
X13620Y2380D01*
Y2344D01*
X13644D02*
X13668D01*
X13656D01*
Y2392D01*
X13644D01*
X13704Y2344D02*
X13740D01*
X13752Y2356D01*
X13740Y2368D01*
X13716D01*
X13704Y2380D01*
X13716Y2392D01*
X13752D01*
X13776Y2416D02*
Y2344D01*
Y2380D01*
X13788Y2392D01*
X13812D01*
X13824Y2380D01*
Y2344D01*
X13884D02*
X13860D01*
X13848Y2356D01*
Y2380D01*
X13860Y2392D01*
X13884D01*
X13896Y2380D01*
Y2368D01*
X13848D01*
X13968Y2416D02*
Y2344D01*
X13932D01*
X13920Y2356D01*
Y2380D01*
X13932Y2392D01*
X13968D01*
X14063Y2416D02*
Y2344D01*
Y2380D01*
X14111D01*
Y2416D01*
Y2344D01*
X14147D02*
X14171D01*
X14183Y2356D01*
Y2380D01*
X14171Y2392D01*
X14147D01*
X14135Y2380D01*
Y2356D01*
X14147Y2344D01*
X14207D02*
X14231D01*
X14219D01*
Y2416D01*
X14207D01*
X14303Y2344D02*
X14279D01*
X14267Y2356D01*
Y2380D01*
X14279Y2392D01*
X14303D01*
X14315Y2380D01*
Y2368D01*
X14267D01*
X14459Y2404D02*
X14447Y2416D01*
X14423D01*
X14411Y2404D01*
Y2392D01*
X14423Y2380D01*
X14447D01*
X14459Y2368D01*
Y2356D01*
X14447Y2344D01*
X14423D01*
X14411Y2356D01*
X14483Y2344D02*
X14507D01*
X14495D01*
Y2392D01*
X14483D01*
X14543D02*
X14591D01*
X14543Y2344D01*
X14591D01*
X14651D02*
X14627D01*
X14615Y2356D01*
Y2380D01*
X14627Y2392D01*
X14651D01*
X14663Y2380D01*
Y2368D01*
X14615D01*
X14783Y2344D02*
Y2416D01*
X14819D01*
X14831Y2404D01*
Y2380D01*
X14819Y2368D01*
X14783D01*
X14855Y2416D02*
Y2344D01*
Y2380D01*
X14867Y2392D01*
X14891D01*
X14903Y2380D01*
Y2344D01*
X14927Y2392D02*
Y2356D01*
X14939Y2344D01*
X14975D01*
Y2332D01*
X14963Y2320D01*
X14951D01*
X14975Y2344D02*
Y2392D01*
X14999Y2344D02*
X15035D01*
X15047Y2356D01*
X15035Y2368D01*
X15011D01*
X14999Y2380D01*
X15011Y2392D01*
X15047D01*
X15071Y2344D02*
X15095D01*
X15083D01*
Y2392D01*
X15071D01*
X15179D02*
X15143D01*
X15131Y2380D01*
Y2356D01*
X15143Y2344D01*
X15179D01*
X15215Y2392D02*
X15239D01*
X15251Y2380D01*
Y2344D01*
X15215D01*
X15203Y2356D01*
X15215Y2368D01*
X15251D01*
X15275Y2344D02*
X15299D01*
X15287D01*
Y2416D01*
X15275D01*
X15407D02*
Y2344D01*
X15455D01*
X15515D02*
X15491D01*
X15479Y2356D01*
Y2380D01*
X15491Y2392D01*
X15515D01*
X15527Y2380D01*
Y2368D01*
X15479D01*
X15551Y2344D02*
Y2392D01*
X15587D01*
X15599Y2380D01*
Y2344D01*
X15647Y2320D02*
X15659D01*
X15671Y2332D01*
Y2392D01*
X15635D01*
X15623Y2380D01*
Y2356D01*
X15635Y2344D01*
X15671D01*
X15707Y2404D02*
Y2392D01*
X15695D01*
X15719D01*
X15707D01*
Y2356D01*
X15719Y2344D01*
X15755Y2416D02*
Y2344D01*
Y2380D01*
X15767Y2392D01*
X15791D01*
X15803Y2380D01*
Y2344D01*
X15923D02*
Y2416D01*
X15959D01*
X15971Y2404D01*
Y2380D01*
X15959Y2368D01*
X15923D01*
X15947D02*
X15971Y2344D01*
X16007D02*
X16031D01*
X16043Y2356D01*
Y2380D01*
X16031Y2392D01*
X16007D01*
X15995Y2380D01*
Y2356D01*
X16007Y2344D01*
X16067Y2392D02*
Y2356D01*
X16079Y2344D01*
X16115D01*
Y2392D01*
X16151Y2404D02*
Y2392D01*
X16139D01*
X16163D01*
X16151D01*
Y2356D01*
X16163Y2344D01*
X16271D02*
Y2416D01*
X16307D01*
X16319Y2404D01*
Y2380D01*
X16307Y2368D01*
X16271D01*
X16355Y2392D02*
X16379D01*
X16391Y2380D01*
Y2344D01*
X16355D01*
X16343Y2356D01*
X16355Y2368D01*
X16391D01*
X16427Y2404D02*
Y2392D01*
X16415D01*
X16439D01*
X16427D01*
Y2356D01*
X16439Y2344D01*
X16475Y2416D02*
Y2344D01*
Y2380D01*
X16487Y2392D01*
X16511D01*
X16523Y2380D01*
Y2344D01*
X16619Y2416D02*
Y2344D01*
X16667D01*
X16727D02*
X16703D01*
X16691Y2356D01*
Y2380D01*
X16703Y2392D01*
X16727D01*
X16739Y2380D01*
Y2368D01*
X16691D01*
X16763Y2344D02*
Y2392D01*
X16799D01*
X16811Y2380D01*
Y2344D01*
X16859Y2320D02*
X16871D01*
X16883Y2332D01*
Y2392D01*
X16847D01*
X16835Y2380D01*
Y2356D01*
X16847Y2344D01*
X16883D01*
X16919Y2404D02*
Y2392D01*
X16907D01*
X16931D01*
X16919D01*
Y2356D01*
X16931Y2344D01*
X16967Y2416D02*
Y2344D01*
Y2380D01*
X16979Y2392D01*
X17003D01*
X17015Y2380D01*
Y2344D01*
X17135D02*
Y2416D01*
X17171D01*
X17183Y2404D01*
Y2380D01*
X17171Y2368D01*
X17135D01*
X17207Y2344D02*
X17231D01*
X17219D01*
Y2416D01*
X17207D01*
X17279Y2392D02*
X17303D01*
X17315Y2380D01*
Y2344D01*
X17279D01*
X17267Y2356D01*
X17279Y2368D01*
X17315D01*
X17351Y2404D02*
Y2392D01*
X17339D01*
X17363D01*
X17351D01*
Y2356D01*
X17363Y2344D01*
X17435D02*
X17411D01*
X17399Y2356D01*
Y2380D01*
X17411Y2392D01*
X17435D01*
X17447Y2380D01*
Y2368D01*
X17399D01*
X17518Y2416D02*
Y2344D01*
X17482D01*
X17471Y2356D01*
Y2380D01*
X17482Y2392D01*
X17518D01*
X17638Y2416D02*
Y2344D01*
Y2380D01*
X17686D01*
Y2416D01*
Y2344D01*
X17722D02*
X17746D01*
X17758Y2356D01*
Y2380D01*
X17746Y2392D01*
X17722D01*
X17710Y2380D01*
Y2356D01*
X17722Y2344D01*
X17782D02*
X17806D01*
X17794D01*
Y2416D01*
X17782D01*
X17878Y2344D02*
X17854D01*
X17842Y2356D01*
Y2380D01*
X17854Y2392D01*
X17878D01*
X17890Y2380D01*
Y2368D01*
X17842D01*
X17986Y2416D02*
X18034D01*
X18010D01*
Y2344D01*
X18058Y2392D02*
Y2356D01*
X18070Y2344D01*
X18106D01*
Y2332D01*
X18094Y2320D01*
X18082D01*
X18106Y2344D02*
Y2392D01*
X18130Y2320D02*
Y2392D01*
X18166D01*
X18178Y2380D01*
Y2356D01*
X18166Y2344D01*
X18130D01*
X18238D02*
X18214D01*
X18202Y2356D01*
Y2380D01*
X18214Y2392D01*
X18238D01*
X18250Y2380D01*
Y2368D01*
X18202D01*
X12152Y2452D02*
X18370D01*
X12152Y2290D02*
X18370D01*
X12152Y2452D02*
Y10D01*
X18370Y2452D02*
Y10D01*
X12700Y2452D02*
Y10D01*
X13396Y2452D02*
Y10D01*
X14739Y2452D02*
Y10D01*
X15879Y2452D02*
Y10D01*
X17091Y2452D02*
Y10D01*
X17594Y2452D02*
Y10D01*
X12152Y130D02*
X18370D01*
X12152Y10D02*
X18370D01*
D181*
X12278Y1030D02*
G03*
X12278Y1030I-14J0D01*
G01*
D182*
X12280Y-30D02*
X12270Y-20D01*
X12250D01*
X12240Y-30D01*
Y-40D01*
X12250Y-50D01*
X12270D01*
X12280Y-60D01*
Y-70D01*
X12270Y-80D01*
X12250D01*
X12240Y-70D01*
X12300Y-80D02*
X12320D01*
X12310D01*
Y-20D01*
X12300D01*
X12360Y-80D02*
X12380D01*
X12390Y-70D01*
Y-50D01*
X12380Y-40D01*
X12360D01*
X12350Y-50D01*
Y-70D01*
X12360Y-80D01*
X12420Y-30D02*
Y-40D01*
X12410D01*
X12430D01*
X12420D01*
Y-70D01*
X12430Y-80D01*
X12560Y-20D02*
Y-80D01*
X12530D01*
X12520Y-70D01*
Y-50D01*
X12530Y-40D01*
X12560D01*
X12610Y-80D02*
X12590D01*
X12580Y-70D01*
Y-50D01*
X12590Y-40D01*
X12610D01*
X12620Y-50D01*
Y-60D01*
X12580D01*
X12650Y-80D02*
Y-30D01*
Y-50D01*
X12640D01*
X12660D01*
X12650D01*
Y-30D01*
X12660Y-20D01*
X12690Y-80D02*
X12710D01*
X12700D01*
Y-40D01*
X12690D01*
X12740Y-80D02*
Y-40D01*
X12770D01*
X12780Y-50D01*
Y-80D01*
X12800D02*
X12820D01*
X12810D01*
Y-40D01*
X12800D01*
X12860Y-30D02*
Y-40D01*
X12850D01*
X12870D01*
X12860D01*
Y-70D01*
X12870Y-80D01*
X12900D02*
X12920D01*
X12910D01*
Y-40D01*
X12900D01*
X12960Y-80D02*
X12980D01*
X12990Y-70D01*
Y-50D01*
X12980Y-40D01*
X12960D01*
X12950Y-50D01*
Y-70D01*
X12960Y-80D01*
X13010D02*
Y-40D01*
X13040D01*
X13050Y-50D01*
Y-80D01*
X13070D02*
X13100D01*
X13110Y-70D01*
X13100Y-60D01*
X13080D01*
X13070Y-50D01*
X13080Y-40D01*
X13110D01*
X13190D02*
X13200D01*
Y-50D01*
X13190D01*
Y-40D01*
Y-70D02*
X13200D01*
Y-80D01*
X13190D01*
Y-70D01*
X13316Y-80D02*
Y-20D01*
X13346D01*
X13356Y-30D01*
Y-50D01*
X13346Y-60D01*
X13316D01*
X13336D02*
X13356Y-80D01*
X13386D02*
X13406D01*
X13416Y-70D01*
Y-50D01*
X13406Y-40D01*
X13386D01*
X13376Y-50D01*
Y-70D01*
X13386Y-80D01*
X13436Y-40D02*
Y-70D01*
X13446Y-80D01*
X13476D01*
Y-40D01*
X13506Y-30D02*
Y-40D01*
X13496D01*
X13516D01*
X13506D01*
Y-70D01*
X13516Y-80D01*
X13606D02*
Y-20D01*
X13636D01*
X13646Y-30D01*
Y-50D01*
X13636Y-60D01*
X13606D01*
X13676Y-40D02*
X13696D01*
X13706Y-50D01*
Y-80D01*
X13676D01*
X13666Y-70D01*
X13676Y-60D01*
X13706D01*
X13736Y-30D02*
Y-40D01*
X13726D01*
X13746D01*
X13736D01*
Y-70D01*
X13746Y-80D01*
X13776Y-20D02*
Y-80D01*
Y-50D01*
X13786Y-40D01*
X13806D01*
X13816Y-50D01*
Y-80D01*
X13896Y-20D02*
Y-80D01*
X13935D01*
X13985D02*
X13965D01*
X13955Y-70D01*
Y-50D01*
X13965Y-40D01*
X13985D01*
X13995Y-50D01*
Y-60D01*
X13955D01*
X14015Y-80D02*
Y-40D01*
X14045D01*
X14055Y-50D01*
Y-80D01*
X14095Y-100D02*
X14105D01*
X14115Y-90D01*
Y-40D01*
X14085D01*
X14075Y-50D01*
Y-70D01*
X14085Y-80D01*
X14115D01*
X14145Y-30D02*
Y-40D01*
X14135D01*
X14155D01*
X14145D01*
Y-70D01*
X14155Y-80D01*
X14185Y-20D02*
Y-80D01*
Y-50D01*
X14195Y-40D01*
X14215D01*
X14225Y-50D01*
Y-80D01*
X13316Y-200D02*
Y-140D01*
X13346D01*
X13356Y-150D01*
Y-170D01*
X13346Y-180D01*
X13316D01*
X13376Y-140D02*
Y-200D01*
Y-170D01*
X13386Y-160D01*
X13406D01*
X13416Y-170D01*
Y-200D01*
X13436Y-160D02*
Y-190D01*
X13446Y-200D01*
X13476D01*
Y-210D01*
X13466Y-220D01*
X13456D01*
X13476Y-200D02*
Y-160D01*
X13496Y-200D02*
X13526D01*
X13536Y-190D01*
X13526Y-180D01*
X13506D01*
X13496Y-170D01*
X13506Y-160D01*
X13536D01*
X13556Y-200D02*
X13576D01*
X13566D01*
Y-160D01*
X13556D01*
X13646D02*
X13616D01*
X13606Y-170D01*
Y-190D01*
X13616Y-200D01*
X13646D01*
X13676Y-160D02*
X13696D01*
X13706Y-170D01*
Y-200D01*
X13676D01*
X13666Y-190D01*
X13676Y-180D01*
X13706D01*
X13726Y-200D02*
X13746D01*
X13736D01*
Y-140D01*
X13726D01*
X13836D02*
Y-200D01*
X13876D01*
X13925D02*
X13905D01*
X13896Y-190D01*
Y-170D01*
X13905Y-160D01*
X13925D01*
X13935Y-170D01*
Y-180D01*
X13896D01*
X13955Y-200D02*
Y-160D01*
X13985D01*
X13995Y-170D01*
Y-200D01*
X14035Y-220D02*
X14045D01*
X14055Y-210D01*
Y-160D01*
X14025D01*
X14015Y-170D01*
Y-190D01*
X14025Y-200D01*
X14055D01*
X14085Y-150D02*
Y-160D01*
X14075D01*
X14095D01*
X14085D01*
Y-190D01*
X14095Y-200D01*
X14125Y-140D02*
Y-200D01*
Y-170D01*
X14135Y-160D01*
X14155D01*
X14165Y-170D01*
Y-200D01*
M02*
