%FSLAX23Y23*%
%MOIN*%
G70*
G01*
G75*
G04 Layer_Color=8421504*
%ADD10C,0.008*%
%ADD11C,0.010*%
%ADD12C,0.009*%
%ADD13C,0.020*%
%ADD14C,0.015*%
%ADD15C,0.030*%
%ADD16C,0.025*%
%ADD17C,0.080*%
%ADD18R,0.080X0.080*%
%ADD19C,0.260*%
%ADD20C,0.270*%
%ADD21R,0.060X0.060*%
%ADD22C,0.060*%
%ADD23C,0.059*%
%ADD24R,0.059X0.059*%
%ADD25C,0.260*%
%ADD26C,0.197*%
%ADD27C,0.315*%
%ADD28C,0.028*%
%ADD29C,0.050*%
%ADD30C,0.030*%
%ADD31C,0.040*%
%ADD32C,0.040*%
%ADD33C,0.100*%
G04:AMPARAMS|DCode=34|XSize=98mil|YSize=98mil|CornerRadius=0mil|HoleSize=0mil|Usage=FLASHONLY|Rotation=0.000|XOffset=0mil|YOffset=0mil|HoleType=Round|Shape=Relief|Width=20mil|Gap=10mil|Entries=4|*
%AMTHD34*
7,0,0,0.098,0.078,0.020,45*
%
%ADD34THD34*%
%ADD35C,0.078*%
G04:AMPARAMS|DCode=36|XSize=210mil|YSize=210mil|CornerRadius=0mil|HoleSize=0mil|Usage=FLASHONLY|Rotation=0.000|XOffset=0mil|YOffset=0mil|HoleType=Round|Shape=Relief|Width=20mil|Gap=10mil|Entries=4|*
%AMTHD36*
7,0,0,0.210,0.190,0.020,45*
%
%ADD36THD36*%
%ADD37C,0.075*%
G04:AMPARAMS|DCode=38|XSize=95mil|YSize=95mil|CornerRadius=0mil|HoleSize=0mil|Usage=FLASHONLY|Rotation=0.000|XOffset=0mil|YOffset=0mil|HoleType=Round|Shape=Relief|Width=20mil|Gap=10mil|Entries=4|*
%AMTHD38*
7,0,0,0.095,0.075,0.020,45*
%
%ADD38THD38*%
%ADD39C,0.075*%
G04:AMPARAMS|DCode=40|XSize=95.433mil|YSize=95.433mil|CornerRadius=0mil|HoleSize=0mil|Usage=FLASHONLY|Rotation=0.000|XOffset=0mil|YOffset=0mil|HoleType=Round|Shape=Relief|Width=20mil|Gap=10mil|Entries=4|*
%AMTHD40*
7,0,0,0.095,0.075,0.020,45*
%
%ADD40THD40*%
%ADD41C,0.070*%
G04:AMPARAMS|DCode=42|XSize=90mil|YSize=90mil|CornerRadius=0mil|HoleSize=0mil|Usage=FLASHONLY|Rotation=0.000|XOffset=0mil|YOffset=0mil|HoleType=Round|Shape=Relief|Width=20mil|Gap=10mil|Entries=4|*
%AMTHD42*
7,0,0,0.090,0.070,0.020,45*
%
%ADD42THD42*%
%ADD43C,0.300*%
%ADD44C,0.237*%
%ADD45C,0.355*%
%ADD46C,0.051*%
%ADD47C,0.068*%
%ADD48C,0.052*%
%ADD49C,0.007*%
%ADD50C,0.190*%
%ADD51R,0.014X0.067*%
%ADD52R,0.035X0.014*%
%ADD53R,0.020X0.049*%
%ADD54R,0.040X0.050*%
%ADD55R,0.040X0.040*%
%ADD56R,0.039X0.094*%
%ADD57R,0.130X0.094*%
%ADD58O,0.087X0.024*%
%ADD59O,0.073X0.024*%
%ADD60R,0.024X0.016*%
%ADD61R,0.055X0.138*%
%ADD62R,0.059X0.057*%
%ADD63R,0.043X0.045*%
%ADD64R,0.035X0.055*%
%ADD65R,0.087X0.055*%
%ADD66R,0.118X0.098*%
%ADD67O,0.012X0.069*%
%ADD68O,0.069X0.012*%
%ADD69R,0.075X0.043*%
%ADD70R,0.033X0.021*%
%ADD71R,0.033X0.010*%
%ADD72R,0.045X0.043*%
%ADD73R,0.055X0.035*%
%ADD74R,0.055X0.087*%
%ADD75R,0.014X0.035*%
%ADD76R,0.057X0.059*%
%ADD77R,0.050X0.040*%
%ADD78R,0.040X0.040*%
%ADD79R,0.021X0.033*%
%ADD80R,0.010X0.033*%
%ADD81C,0.012*%
%ADD82C,0.004*%
%ADD83C,0.008*%
%ADD84C,0.001*%
%ADD85C,0.006*%
G36*
X3360Y-1483D02*
X3362Y-1483D01*
X3362D01*
X3363Y-1483D01*
X3363Y-1483D01*
X3364Y-1483D01*
X3365Y-1483D01*
X3367Y-1484D01*
X3367D01*
X3368Y-1484D01*
X3369Y-1484D01*
X3369Y-1484D01*
X3370Y-1484D01*
X3371Y-1485D01*
X3374Y-1486D01*
X3374Y-1486D01*
X3374Y-1486D01*
X3375Y-1487D01*
X3376Y-1487D01*
X3377Y-1489D01*
X3379Y-1491D01*
X3379Y-1491D01*
X3380Y-1491D01*
X3380Y-1492D01*
X3381Y-1493D01*
X3381Y-1494D01*
X3382Y-1495D01*
X3383Y-1497D01*
Y-1497D01*
X3383Y-1498D01*
X3383Y-1499D01*
X3384Y-1500D01*
X3384Y-1501D01*
X3384Y-1502D01*
X3384Y-1505D01*
Y-1505D01*
Y-1506D01*
X3384Y-1507D01*
X3384Y-1509D01*
X3384Y-1510D01*
X3383Y-1512D01*
X3383Y-1514D01*
X3382Y-1516D01*
X3382Y-1516D01*
X3382Y-1517D01*
X3381Y-1517D01*
X3381Y-1518D01*
X3380Y-1520D01*
X3379Y-1521D01*
X3378Y-1523D01*
X3377Y-1524D01*
X3376Y-1524D01*
X3376Y-1524D01*
X3375Y-1525D01*
X3374Y-1526D01*
X3373Y-1527D01*
X3371Y-1527D01*
X3370Y-1528D01*
X3368Y-1529D01*
X3367D01*
X3367Y-1529D01*
X3366Y-1529D01*
X3364Y-1530D01*
X3362Y-1530D01*
X3360Y-1530D01*
X3358Y-1530D01*
X3355Y-1531D01*
X3347D01*
Y-1559D01*
Y-1559D01*
X3346Y-1559D01*
X3346Y-1560D01*
X3346Y-1560D01*
X3345Y-1560D01*
X3345D01*
X3345Y-1560D01*
X3345D01*
X3344Y-1560D01*
X3344D01*
X3343Y-1560D01*
X3342Y-1560D01*
X3341D01*
X3340Y-1560D01*
X3339Y-1560D01*
X3339D01*
X3338Y-1560D01*
X3337Y-1560D01*
X3337D01*
X3337Y-1560D01*
X3337Y-1559D01*
Y-1559D01*
Y-1559D01*
X3336Y-1559D01*
Y-1487D01*
Y-1487D01*
Y-1486D01*
X3337Y-1486D01*
X3337Y-1484D01*
X3338Y-1484D01*
X3338Y-1483D01*
X3338Y-1483D01*
X3339Y-1483D01*
X3340Y-1482D01*
X3359D01*
X3360Y-1483D01*
D02*
G37*
G36*
X3167Y-1483D02*
X3167D01*
X3167Y-1483D01*
X3167Y-1484D01*
Y-1484D01*
X3168Y-1484D01*
X3168Y-1484D01*
X3168Y-1485D01*
Y-1485D01*
X3168Y-1485D01*
Y-1486D01*
Y-1487D01*
Y-1487D01*
Y-1488D01*
Y-1488D01*
X3168Y-1489D01*
Y-1489D01*
X3168Y-1489D01*
X3167Y-1490D01*
X3167Y-1491D01*
X3167Y-1491D01*
X3166D01*
X3166Y-1491D01*
X3144D01*
Y-1559D01*
Y-1559D01*
X3144Y-1559D01*
X3144Y-1560D01*
X3143Y-1560D01*
X3143Y-1560D01*
X3143D01*
X3142Y-1560D01*
X3142D01*
X3141Y-1560D01*
X3141D01*
X3141Y-1560D01*
X3140Y-1560D01*
X3138D01*
X3137Y-1560D01*
X3137Y-1560D01*
X3136D01*
X3136Y-1560D01*
X3135Y-1560D01*
X3135D01*
X3135Y-1560D01*
X3134Y-1559D01*
Y-1559D01*
Y-1559D01*
X3134Y-1559D01*
Y-1491D01*
X3112D01*
X3111Y-1491D01*
X3111Y-1491D01*
X3110Y-1490D01*
Y-1490D01*
X3110Y-1490D01*
Y-1489D01*
X3110Y-1489D01*
Y-1489D01*
Y-1488D01*
X3110Y-1488D01*
Y-1487D01*
Y-1487D01*
Y-1486D01*
Y-1486D01*
X3110Y-1485D01*
Y-1485D01*
X3110Y-1484D01*
X3110Y-1484D01*
Y-1483D01*
X3111Y-1483D01*
X3111Y-1483D01*
X3111D01*
X3111Y-1483D01*
X3112Y-1482D01*
X3166D01*
X3167Y-1483D01*
D02*
G37*
G36*
X3515Y-1488D02*
X3515D01*
X3516Y-1489D01*
X3516Y-1489D01*
X3517Y-1489D01*
X3517D01*
X3517Y-1489D01*
X3518Y-1489D01*
X3518Y-1490D01*
X3518Y-1490D01*
Y-1503D01*
X3532D01*
X3532Y-1503D01*
X3533D01*
X3533Y-1503D01*
X3533Y-1504D01*
Y-1504D01*
X3533Y-1504D01*
X3533Y-1505D01*
X3533Y-1505D01*
Y-1505D01*
X3534Y-1506D01*
Y-1506D01*
Y-1507D01*
Y-1507D01*
Y-1508D01*
Y-1508D01*
X3533Y-1509D01*
X3533Y-1510D01*
X3533Y-1510D01*
X3533Y-1511D01*
X3532Y-1511D01*
X3532Y-1511D01*
X3518D01*
Y-1541D01*
Y-1542D01*
Y-1542D01*
X3518Y-1543D01*
Y-1544D01*
X3518Y-1547D01*
X3519Y-1548D01*
X3519Y-1550D01*
X3519Y-1550D01*
X3520Y-1550D01*
X3520Y-1551D01*
X3521Y-1551D01*
X3522Y-1552D01*
X3523Y-1552D01*
X3524Y-1552D01*
X3525Y-1553D01*
X3527D01*
X3528Y-1552D01*
X3528D01*
X3528Y-1552D01*
X3529Y-1552D01*
X3530Y-1552D01*
X3530Y-1552D01*
X3530Y-1552D01*
X3531Y-1551D01*
X3531D01*
X3531Y-1551D01*
X3532Y-1551D01*
X3532D01*
X3533Y-1551D01*
X3533Y-1551D01*
X3533Y-1552D01*
Y-1552D01*
X3533Y-1552D01*
X3533Y-1553D01*
Y-1553D01*
X3534Y-1553D01*
Y-1554D01*
Y-1555D01*
Y-1555D01*
Y-1556D01*
X3533Y-1556D01*
X3533Y-1557D01*
Y-1558D01*
X3533Y-1558D01*
X3533Y-1558D01*
X3533Y-1559D01*
X3532D01*
X3532Y-1559D01*
X3532Y-1559D01*
X3531Y-1560D01*
X3531D01*
X3530Y-1560D01*
X3530Y-1560D01*
X3529Y-1560D01*
X3529D01*
X3528Y-1560D01*
X3527Y-1561D01*
X3526Y-1561D01*
X3526D01*
X3526Y-1561D01*
X3525Y-1561D01*
X3522D01*
X3521Y-1561D01*
X3520Y-1561D01*
X3519Y-1561D01*
X3516Y-1560D01*
X3516D01*
X3516Y-1560D01*
X3515Y-1560D01*
X3515Y-1559D01*
X3513Y-1558D01*
X3512Y-1557D01*
X3511Y-1557D01*
X3511Y-1556D01*
X3511Y-1556D01*
X3510Y-1555D01*
X3510Y-1554D01*
X3510Y-1553D01*
X3509Y-1551D01*
Y-1551D01*
X3509Y-1550D01*
X3508Y-1549D01*
X3508Y-1548D01*
X3508Y-1547D01*
X3508Y-1546D01*
X3508Y-1544D01*
Y-1543D01*
Y-1511D01*
X3500D01*
X3500Y-1511D01*
X3499Y-1511D01*
X3499Y-1510D01*
Y-1510D01*
X3499Y-1509D01*
X3499Y-1509D01*
X3498Y-1507D01*
Y-1507D01*
Y-1506D01*
Y-1506D01*
X3499Y-1505D01*
Y-1505D01*
X3499Y-1505D01*
Y-1504D01*
X3499Y-1504D01*
Y-1504D01*
X3499Y-1504D01*
X3499Y-1503D01*
X3500D01*
X3500Y-1503D01*
X3500Y-1503D01*
X3508D01*
Y-1490D01*
Y-1490D01*
Y-1490D01*
X3508Y-1489D01*
Y-1489D01*
X3508Y-1489D01*
X3509Y-1489D01*
X3509D01*
X3509Y-1489D01*
X3510Y-1489D01*
X3510Y-1488D01*
X3510D01*
X3511Y-1488D01*
X3514D01*
X3515Y-1488D01*
D02*
G37*
G36*
X3710Y-1502D02*
X3711Y-1502D01*
X3713Y-1502D01*
X3715Y-1503D01*
X3716Y-1503D01*
X3716D01*
X3717Y-1504D01*
X3718Y-1504D01*
X3719Y-1504D01*
X3721Y-1505D01*
X3722Y-1506D01*
X3723Y-1507D01*
X3723Y-1507D01*
X3723Y-1508D01*
X3724Y-1508D01*
X3724Y-1509D01*
X3725Y-1510D01*
X3726Y-1511D01*
X3726Y-1512D01*
X3727Y-1514D01*
Y-1514D01*
X3727Y-1514D01*
X3727Y-1515D01*
X3727Y-1516D01*
X3727Y-1517D01*
X3728Y-1519D01*
X3728Y-1520D01*
Y-1522D01*
Y-1559D01*
Y-1559D01*
Y-1559D01*
X3728Y-1559D01*
X3727Y-1560D01*
X3727D01*
X3727Y-1560D01*
X3727Y-1560D01*
X3726Y-1560D01*
X3726D01*
X3725Y-1560D01*
X3724Y-1560D01*
X3723D01*
X3722Y-1560D01*
X3721Y-1560D01*
X3721D01*
X3720Y-1560D01*
X3720Y-1560D01*
X3720Y-1560D01*
X3719Y-1559D01*
X3719Y-1559D01*
X3719Y-1559D01*
Y-1553D01*
X3719Y-1553D01*
X3719Y-1554D01*
X3718Y-1555D01*
X3717Y-1555D01*
X3716Y-1556D01*
X3714Y-1557D01*
X3713Y-1558D01*
X3711Y-1559D01*
X3711Y-1559D01*
X3711Y-1559D01*
X3710Y-1560D01*
X3709Y-1560D01*
X3707Y-1561D01*
X3706Y-1561D01*
X3704Y-1561D01*
X3702Y-1561D01*
X3701D01*
X3699Y-1561D01*
X3698Y-1561D01*
X3697Y-1561D01*
X3694Y-1560D01*
X3694D01*
X3694Y-1560D01*
X3693Y-1560D01*
X3692Y-1559D01*
X3690Y-1558D01*
X3689Y-1557D01*
X3688Y-1557D01*
X3688Y-1557D01*
X3688Y-1556D01*
X3687Y-1555D01*
X3687Y-1555D01*
X3686Y-1554D01*
X3685Y-1552D01*
Y-1552D01*
X3685Y-1551D01*
X3684Y-1551D01*
X3684Y-1550D01*
X3684Y-1549D01*
X3684Y-1548D01*
X3684Y-1545D01*
Y-1545D01*
Y-1544D01*
X3684Y-1543D01*
X3684Y-1542D01*
X3684Y-1541D01*
X3684Y-1540D01*
X3685Y-1538D01*
X3685Y-1537D01*
X3685Y-1537D01*
X3686Y-1536D01*
X3686Y-1536D01*
X3687Y-1535D01*
X3687Y-1534D01*
X3688Y-1533D01*
X3689Y-1532D01*
X3691Y-1531D01*
X3691Y-1531D01*
X3691Y-1531D01*
X3692Y-1530D01*
X3693Y-1530D01*
X3694Y-1529D01*
X3696Y-1529D01*
X3697Y-1528D01*
X3699Y-1528D01*
X3699D01*
X3700Y-1528D01*
X3701Y-1528D01*
X3702Y-1527D01*
X3704Y-1527D01*
X3706Y-1527D01*
X3708Y-1527D01*
X3718D01*
Y-1523D01*
Y-1523D01*
Y-1522D01*
Y-1522D01*
X3718Y-1521D01*
X3718Y-1519D01*
X3717Y-1517D01*
Y-1517D01*
X3717Y-1517D01*
X3717Y-1516D01*
X3717Y-1516D01*
X3716Y-1514D01*
X3715Y-1513D01*
Y-1513D01*
X3715Y-1513D01*
X3714Y-1512D01*
X3713Y-1511D01*
X3711Y-1511D01*
X3711D01*
X3711Y-1511D01*
X3710Y-1510D01*
X3710Y-1510D01*
X3709Y-1510D01*
X3708Y-1510D01*
X3706Y-1510D01*
X3704D01*
X3703Y-1510D01*
X3701Y-1510D01*
X3699Y-1511D01*
X3699D01*
X3699Y-1511D01*
X3698Y-1511D01*
X3697Y-1511D01*
X3696Y-1512D01*
X3694Y-1513D01*
X3694D01*
X3694Y-1513D01*
X3693Y-1513D01*
X3693Y-1513D01*
X3691Y-1514D01*
X3690Y-1515D01*
X3690Y-1515D01*
X3689Y-1515D01*
X3689Y-1515D01*
X3688Y-1515D01*
X3688D01*
X3687Y-1515D01*
X3687Y-1515D01*
X3687Y-1515D01*
Y-1514D01*
X3686Y-1514D01*
X3686Y-1513D01*
Y-1513D01*
Y-1513D01*
Y-1512D01*
Y-1512D01*
Y-1512D01*
Y-1511D01*
Y-1511D01*
Y-1510D01*
X3686Y-1509D01*
Y-1509D01*
X3687Y-1509D01*
X3687Y-1508D01*
X3687Y-1508D01*
X3687Y-1508D01*
X3688Y-1507D01*
X3689Y-1507D01*
X3690Y-1506D01*
X3690D01*
X3690Y-1506D01*
X3691Y-1505D01*
X3691Y-1505D01*
X3693Y-1505D01*
X3695Y-1504D01*
X3695D01*
X3695Y-1504D01*
X3696Y-1504D01*
X3696Y-1503D01*
X3697Y-1503D01*
X3698Y-1503D01*
X3700Y-1503D01*
X3700D01*
X3701Y-1502D01*
X3701Y-1502D01*
X3702Y-1502D01*
X3703D01*
X3704Y-1502D01*
X3706Y-1502D01*
X3709D01*
X3710Y-1502D01*
D02*
G37*
G36*
X3643Y-1482D02*
X3644Y-1482D01*
X3644D01*
X3645Y-1482D01*
X3645Y-1483D01*
X3646Y-1483D01*
X3646D01*
X3646Y-1483D01*
X3646Y-1483D01*
X3647Y-1483D01*
X3647Y-1483D01*
X3647Y-1484D01*
Y-1551D01*
X3675D01*
X3676Y-1551D01*
X3676D01*
X3676Y-1552D01*
X3676Y-1552D01*
Y-1552D01*
X3676Y-1553D01*
X3677Y-1553D01*
X3677Y-1554D01*
Y-1554D01*
X3677Y-1554D01*
Y-1555D01*
Y-1556D01*
Y-1556D01*
Y-1556D01*
Y-1557D01*
X3677Y-1558D01*
Y-1558D01*
X3677Y-1558D01*
X3676Y-1559D01*
Y-1559D01*
X3676Y-1559D01*
X3676Y-1560D01*
X3675D01*
X3675Y-1560D01*
X3640D01*
X3640Y-1560D01*
X3639Y-1560D01*
X3638Y-1559D01*
X3638Y-1559D01*
X3637Y-1558D01*
X3637Y-1557D01*
X3637Y-1556D01*
Y-1484D01*
Y-1484D01*
Y-1484D01*
X3637Y-1483D01*
Y-1483D01*
X3637Y-1483D01*
X3638Y-1483D01*
X3638D01*
X3638Y-1483D01*
X3639Y-1482D01*
X3639Y-1482D01*
X3639D01*
X3640Y-1482D01*
X3641Y-1482D01*
X3643D01*
X3643Y-1482D01*
D02*
G37*
G36*
X3421Y-1502D02*
X3423Y-1502D01*
X3425Y-1502D01*
X3426Y-1503D01*
X3428Y-1503D01*
X3428D01*
X3429Y-1504D01*
X3429Y-1504D01*
X3430Y-1504D01*
X3432Y-1505D01*
X3434Y-1506D01*
X3435Y-1507D01*
X3435Y-1507D01*
X3435Y-1508D01*
X3435Y-1508D01*
X3436Y-1509D01*
X3436Y-1510D01*
X3437Y-1511D01*
X3438Y-1512D01*
X3438Y-1514D01*
Y-1514D01*
X3438Y-1514D01*
X3439Y-1515D01*
X3439Y-1516D01*
X3439Y-1517D01*
X3439Y-1519D01*
X3439Y-1520D01*
Y-1522D01*
Y-1559D01*
Y-1559D01*
Y-1559D01*
X3439Y-1559D01*
X3439Y-1560D01*
X3439D01*
X3439Y-1560D01*
X3438Y-1560D01*
X3437Y-1560D01*
X3437D01*
X3437Y-1560D01*
X3436Y-1560D01*
X3434D01*
X3433Y-1560D01*
X3433Y-1560D01*
X3432D01*
X3432Y-1560D01*
X3432Y-1560D01*
X3431Y-1560D01*
X3431Y-1559D01*
X3431Y-1559D01*
X3431Y-1559D01*
Y-1553D01*
X3431Y-1553D01*
X3430Y-1554D01*
X3429Y-1555D01*
X3429Y-1555D01*
X3427Y-1556D01*
X3426Y-1557D01*
X3425Y-1558D01*
X3423Y-1559D01*
X3423Y-1559D01*
X3422Y-1559D01*
X3421Y-1560D01*
X3420Y-1560D01*
X3419Y-1561D01*
X3417Y-1561D01*
X3415Y-1561D01*
X3414Y-1561D01*
X3412D01*
X3411Y-1561D01*
X3410Y-1561D01*
X3409Y-1561D01*
X3406Y-1560D01*
X3406D01*
X3405Y-1560D01*
X3405Y-1560D01*
X3404Y-1559D01*
X3402Y-1558D01*
X3400Y-1557D01*
X3400Y-1557D01*
X3400Y-1557D01*
X3399Y-1556D01*
X3399Y-1555D01*
X3398Y-1555D01*
X3397Y-1554D01*
X3396Y-1552D01*
Y-1552D01*
X3396Y-1551D01*
X3396Y-1551D01*
X3396Y-1550D01*
X3396Y-1549D01*
X3395Y-1548D01*
X3395Y-1545D01*
Y-1545D01*
Y-1544D01*
X3395Y-1543D01*
X3395Y-1542D01*
X3396Y-1541D01*
X3396Y-1540D01*
X3396Y-1538D01*
X3397Y-1537D01*
X3397Y-1537D01*
X3397Y-1536D01*
X3398Y-1536D01*
X3398Y-1535D01*
X3399Y-1534D01*
X3400Y-1533D01*
X3401Y-1532D01*
X3402Y-1531D01*
X3402Y-1531D01*
X3403Y-1531D01*
X3404Y-1530D01*
X3405Y-1530D01*
X3406Y-1529D01*
X3407Y-1529D01*
X3409Y-1528D01*
X3411Y-1528D01*
X3411D01*
X3412Y-1528D01*
X3413Y-1528D01*
X3414Y-1527D01*
X3416Y-1527D01*
X3418Y-1527D01*
X3420Y-1527D01*
X3430D01*
Y-1523D01*
Y-1523D01*
Y-1522D01*
Y-1522D01*
X3429Y-1521D01*
X3429Y-1519D01*
X3429Y-1517D01*
Y-1517D01*
X3429Y-1517D01*
X3429Y-1516D01*
X3428Y-1516D01*
X3428Y-1514D01*
X3427Y-1513D01*
Y-1513D01*
X3426Y-1513D01*
X3426Y-1512D01*
X3424Y-1511D01*
X3423Y-1511D01*
X3423D01*
X3422Y-1511D01*
X3422Y-1510D01*
X3421Y-1510D01*
X3420Y-1510D01*
X3420Y-1510D01*
X3417Y-1510D01*
X3416D01*
X3415Y-1510D01*
X3413Y-1510D01*
X3411Y-1511D01*
X3410D01*
X3410Y-1511D01*
X3410Y-1511D01*
X3409Y-1511D01*
X3407Y-1512D01*
X3406Y-1513D01*
X3405D01*
X3405Y-1513D01*
X3405Y-1513D01*
X3404Y-1513D01*
X3403Y-1514D01*
X3402Y-1515D01*
X3401Y-1515D01*
X3401Y-1515D01*
X3400Y-1515D01*
X3400Y-1515D01*
X3399D01*
X3399Y-1515D01*
X3399Y-1515D01*
X3398Y-1515D01*
Y-1514D01*
X3398Y-1514D01*
X3398Y-1513D01*
Y-1513D01*
Y-1513D01*
Y-1512D01*
Y-1512D01*
Y-1512D01*
Y-1511D01*
Y-1511D01*
Y-1510D01*
X3398Y-1509D01*
Y-1509D01*
X3398Y-1509D01*
X3398Y-1508D01*
X3399Y-1508D01*
X3399Y-1508D01*
X3400Y-1507D01*
X3400Y-1507D01*
X3402Y-1506D01*
X3402D01*
X3402Y-1506D01*
X3402Y-1505D01*
X3403Y-1505D01*
X3404Y-1505D01*
X3406Y-1504D01*
X3406D01*
X3407Y-1504D01*
X3407Y-1504D01*
X3408Y-1503D01*
X3409Y-1503D01*
X3410Y-1503D01*
X3412Y-1503D01*
X3412D01*
X3412Y-1502D01*
X3413Y-1502D01*
X3414Y-1502D01*
X3415D01*
X3416Y-1502D01*
X3418Y-1502D01*
X3420D01*
X3421Y-1502D01*
D02*
G37*
G36*
X3787Y-1503D02*
X3788Y-1503D01*
X3788D01*
X3789Y-1503D01*
X3789Y-1503D01*
X3790Y-1504D01*
X3790Y-1504D01*
X3790Y-1504D01*
X3790Y-1504D01*
X3790Y-1505D01*
Y-1505D01*
Y-1505D01*
X3790Y-1506D01*
X3790Y-1506D01*
X3771Y-1560D01*
X3763Y-1580D01*
X3763Y-1580D01*
X3763Y-1580D01*
X3762Y-1581D01*
X3761Y-1581D01*
X3761Y-1581D01*
X3760Y-1582D01*
X3760Y-1582D01*
X3759D01*
X3758Y-1582D01*
X3756D01*
X3755Y-1582D01*
X3754Y-1582D01*
X3754D01*
X3754Y-1581D01*
X3753Y-1581D01*
X3753D01*
X3753Y-1581D01*
X3753Y-1581D01*
X3752Y-1580D01*
Y-1580D01*
Y-1580D01*
X3753Y-1579D01*
X3753Y-1579D01*
X3760Y-1560D01*
X3760Y-1560D01*
X3760Y-1560D01*
X3759Y-1559D01*
Y-1559D01*
X3759Y-1559D01*
X3758Y-1558D01*
X3739Y-1507D01*
X3739Y-1506D01*
X3739Y-1506D01*
X3739Y-1505D01*
X3739Y-1505D01*
Y-1504D01*
Y-1504D01*
X3739Y-1504D01*
X3739Y-1504D01*
X3739Y-1503D01*
X3740Y-1503D01*
X3740Y-1503D01*
X3741Y-1503D01*
X3741D01*
X3742Y-1503D01*
X3743Y-1503D01*
X3746D01*
X3747Y-1503D01*
X3747D01*
X3747Y-1503D01*
X3748Y-1503D01*
X3748Y-1503D01*
X3748D01*
X3748Y-1503D01*
X3749Y-1504D01*
X3749Y-1504D01*
Y-1504D01*
X3749Y-1504D01*
X3750Y-1505D01*
X3765Y-1548D01*
X3765D01*
X3780Y-1505D01*
Y-1505D01*
X3780Y-1504D01*
X3781Y-1504D01*
X3781Y-1503D01*
X3781D01*
X3781Y-1503D01*
X3782Y-1503D01*
X3782Y-1503D01*
X3783D01*
X3783Y-1503D01*
X3784Y-1503D01*
X3786D01*
X3787Y-1503D01*
D02*
G37*
G36*
X3477Y-1502D02*
X3478Y-1502D01*
X3479D01*
X3479Y-1502D01*
X3480Y-1503D01*
X3481Y-1503D01*
X3482Y-1503D01*
X3482D01*
X3483Y-1503D01*
X3483Y-1504D01*
X3484Y-1504D01*
X3485Y-1504D01*
X3486Y-1504D01*
X3486Y-1505D01*
X3487Y-1505D01*
X3487Y-1505D01*
X3487D01*
X3488Y-1506D01*
X3488Y-1506D01*
X3488Y-1506D01*
X3488Y-1507D01*
X3488Y-1507D01*
Y-1507D01*
X3488Y-1507D01*
X3489Y-1508D01*
Y-1508D01*
X3489Y-1509D01*
Y-1509D01*
Y-1510D01*
Y-1510D01*
Y-1510D01*
Y-1511D01*
X3489Y-1512D01*
Y-1512D01*
X3488Y-1512D01*
X3488Y-1513D01*
X3488Y-1513D01*
X3488Y-1514D01*
X3488D01*
X3487Y-1514D01*
X3487D01*
X3487Y-1514D01*
X3486Y-1513D01*
X3485Y-1513D01*
X3485Y-1513D01*
X3485Y-1513D01*
X3484Y-1512D01*
X3483Y-1512D01*
X3483Y-1512D01*
X3482Y-1511D01*
X3481Y-1511D01*
X3479Y-1510D01*
X3479D01*
X3479Y-1510D01*
X3478Y-1510D01*
X3478Y-1510D01*
X3476Y-1510D01*
X3474Y-1509D01*
X3473D01*
X3473Y-1510D01*
X3471Y-1510D01*
X3470Y-1510D01*
X3469D01*
X3469Y-1510D01*
X3469Y-1511D01*
X3467Y-1511D01*
X3466Y-1512D01*
X3466Y-1512D01*
X3466Y-1513D01*
X3465Y-1513D01*
X3465Y-1514D01*
X3464Y-1515D01*
X3464Y-1515D01*
X3464Y-1516D01*
X3464Y-1517D01*
Y-1518D01*
Y-1518D01*
Y-1518D01*
X3464Y-1519D01*
X3464Y-1520D01*
X3465Y-1521D01*
X3465Y-1522D01*
X3466Y-1522D01*
X3467Y-1523D01*
X3468Y-1524D01*
X3468D01*
X3469Y-1524D01*
X3469Y-1525D01*
X3469Y-1525D01*
X3471Y-1526D01*
X3473Y-1526D01*
X3473D01*
X3473Y-1526D01*
X3474Y-1527D01*
X3474Y-1527D01*
X3476Y-1528D01*
X3478Y-1528D01*
X3478D01*
X3478Y-1528D01*
X3479Y-1529D01*
X3479Y-1529D01*
X3481Y-1530D01*
X3483Y-1531D01*
X3483D01*
X3483Y-1531D01*
X3484Y-1531D01*
X3484Y-1531D01*
X3486Y-1532D01*
X3487Y-1534D01*
X3487Y-1534D01*
X3487Y-1534D01*
X3488Y-1534D01*
X3488Y-1535D01*
X3489Y-1536D01*
X3490Y-1538D01*
Y-1538D01*
X3490Y-1538D01*
X3491Y-1539D01*
X3491Y-1540D01*
X3491Y-1540D01*
X3491Y-1542D01*
X3491Y-1544D01*
Y-1544D01*
Y-1545D01*
X3491Y-1545D01*
Y-1546D01*
X3491Y-1548D01*
X3491Y-1549D01*
X3490Y-1550D01*
X3490Y-1551D01*
Y-1551D01*
X3489Y-1552D01*
X3489Y-1552D01*
X3489Y-1553D01*
X3487Y-1555D01*
X3485Y-1557D01*
X3485Y-1557D01*
X3485Y-1557D01*
X3484Y-1557D01*
X3484Y-1558D01*
X3483Y-1558D01*
X3481Y-1559D01*
X3480Y-1560D01*
X3479Y-1560D01*
X3479D01*
X3478Y-1560D01*
X3477Y-1560D01*
X3476Y-1561D01*
X3475Y-1561D01*
X3474Y-1561D01*
X3472Y-1561D01*
X3469D01*
X3468Y-1561D01*
X3467Y-1561D01*
X3465Y-1561D01*
X3464D01*
X3464Y-1560D01*
X3464D01*
X3463Y-1560D01*
X3462Y-1560D01*
X3460Y-1560D01*
X3460D01*
X3460Y-1559D01*
X3459Y-1559D01*
X3458Y-1559D01*
X3456Y-1558D01*
X3456Y-1558D01*
X3456Y-1558D01*
X3455Y-1557D01*
X3454Y-1557D01*
X3454Y-1557D01*
X3454Y-1556D01*
X3454Y-1556D01*
X3454Y-1555D01*
Y-1555D01*
X3453Y-1554D01*
X3453Y-1553D01*
Y-1552D01*
Y-1552D01*
Y-1552D01*
Y-1551D01*
Y-1550D01*
Y-1550D01*
X3453Y-1550D01*
Y-1549D01*
X3454Y-1549D01*
Y-1549D01*
X3454Y-1549D01*
X3454Y-1548D01*
X3454Y-1548D01*
X3454D01*
X3454Y-1548D01*
X3455Y-1548D01*
X3455D01*
X3455Y-1548D01*
X3456Y-1548D01*
X3457Y-1549D01*
X3457Y-1549D01*
X3458Y-1549D01*
X3459Y-1550D01*
X3460Y-1551D01*
X3460D01*
X3460Y-1551D01*
X3461Y-1551D01*
X3461Y-1551D01*
X3463Y-1552D01*
X3464Y-1553D01*
X3464D01*
X3465Y-1553D01*
X3465Y-1553D01*
X3466D01*
X3467Y-1553D01*
X3468Y-1553D01*
X3470Y-1553D01*
X3472D01*
X3473Y-1553D01*
X3475Y-1553D01*
X3475D01*
X3475Y-1553D01*
X3476Y-1552D01*
X3477Y-1552D01*
X3479Y-1551D01*
X3479D01*
X3479Y-1551D01*
X3479Y-1550D01*
X3480Y-1550D01*
X3481Y-1548D01*
Y-1548D01*
X3481Y-1548D01*
X3481Y-1547D01*
X3482Y-1546D01*
X3482Y-1545D01*
Y-1544D01*
Y-1544D01*
Y-1544D01*
X3482Y-1543D01*
X3481Y-1542D01*
X3480Y-1541D01*
Y-1541D01*
X3480Y-1541D01*
X3480Y-1540D01*
X3479Y-1539D01*
X3477Y-1538D01*
X3477D01*
X3477Y-1538D01*
X3477Y-1538D01*
X3476Y-1537D01*
X3475Y-1537D01*
X3473Y-1536D01*
X3473D01*
X3473Y-1536D01*
X3472Y-1536D01*
X3472Y-1535D01*
X3470Y-1535D01*
X3468Y-1534D01*
X3468D01*
X3468Y-1534D01*
X3467Y-1534D01*
X3467Y-1533D01*
X3465Y-1533D01*
X3463Y-1532D01*
X3463D01*
X3463Y-1531D01*
X3462Y-1531D01*
X3462Y-1531D01*
X3460Y-1530D01*
X3459Y-1529D01*
X3459Y-1528D01*
X3459Y-1528D01*
X3458Y-1528D01*
X3458Y-1527D01*
X3457Y-1526D01*
X3456Y-1524D01*
Y-1524D01*
X3456Y-1524D01*
X3455Y-1523D01*
X3455Y-1522D01*
X3455Y-1522D01*
X3455Y-1520D01*
X3455Y-1518D01*
Y-1518D01*
Y-1517D01*
Y-1517D01*
X3455Y-1516D01*
X3455Y-1514D01*
X3456Y-1512D01*
Y-1512D01*
X3456Y-1511D01*
X3456Y-1511D01*
X3457Y-1510D01*
X3458Y-1508D01*
X3459Y-1507D01*
X3459Y-1507D01*
X3460Y-1506D01*
X3460Y-1506D01*
X3461Y-1505D01*
X3462Y-1505D01*
X3463Y-1504D01*
X3465Y-1503D01*
X3466D01*
X3466Y-1503D01*
X3467Y-1503D01*
X3468Y-1503D01*
X3469Y-1502D01*
X3471Y-1502D01*
X3472Y-1502D01*
X3475D01*
X3477Y-1502D01*
D02*
G37*
G36*
X3888D02*
X3888D01*
X3889Y-1502D01*
X3889Y-1502D01*
X3890Y-1502D01*
X3890D01*
X3891Y-1503D01*
X3891Y-1503D01*
X3892Y-1503D01*
X3892D01*
X3893Y-1503D01*
X3893Y-1503D01*
X3893Y-1504D01*
X3893D01*
X3894Y-1504D01*
X3894Y-1504D01*
X3894Y-1504D01*
Y-1505D01*
Y-1505D01*
X3894Y-1505D01*
Y-1505D01*
Y-1506D01*
Y-1506D01*
X3894Y-1507D01*
Y-1507D01*
Y-1508D01*
Y-1508D01*
Y-1509D01*
Y-1510D01*
X3894Y-1510D01*
Y-1510D01*
Y-1511D01*
X3894Y-1512D01*
Y-1512D01*
X3894Y-1512D01*
X3893Y-1513D01*
X3893Y-1513D01*
X3893Y-1513D01*
X3892D01*
X3891Y-1513D01*
X3891D01*
X3891Y-1512D01*
X3890Y-1512D01*
X3890Y-1512D01*
X3890D01*
X3889Y-1512D01*
X3889Y-1512D01*
X3888Y-1511D01*
X3888D01*
X3887Y-1511D01*
X3886Y-1511D01*
X3885D01*
X3885Y-1511D01*
X3884Y-1511D01*
X3883Y-1512D01*
X3882Y-1512D01*
X3882Y-1512D01*
X3881Y-1513D01*
X3880Y-1514D01*
X3879Y-1514D01*
X3879Y-1515D01*
X3878Y-1516D01*
X3876Y-1518D01*
X3876Y-1518D01*
X3876Y-1518D01*
X3876Y-1518D01*
X3875Y-1519D01*
X3875Y-1520D01*
X3874Y-1521D01*
X3873Y-1523D01*
Y-1559D01*
Y-1559D01*
Y-1559D01*
X3872Y-1559D01*
X3872Y-1560D01*
X3871Y-1560D01*
X3871D01*
X3871Y-1560D01*
X3871D01*
X3870Y-1560D01*
X3869D01*
X3869Y-1560D01*
X3866D01*
X3865Y-1560D01*
X3865D01*
X3865Y-1560D01*
X3864Y-1560D01*
X3864D01*
X3863Y-1560D01*
X3863Y-1559D01*
Y-1559D01*
X3863Y-1559D01*
Y-1505D01*
Y-1504D01*
Y-1504D01*
X3863Y-1504D01*
X3863Y-1504D01*
X3863Y-1503D01*
X3864Y-1503D01*
X3864D01*
X3864Y-1503D01*
X3864Y-1503D01*
X3865Y-1503D01*
X3865D01*
X3865Y-1503D01*
X3869D01*
X3869Y-1503D01*
X3869D01*
X3870Y-1503D01*
X3870Y-1503D01*
X3871Y-1503D01*
X3871D01*
X3871Y-1503D01*
X3871Y-1504D01*
X3871Y-1504D01*
X3871Y-1504D01*
X3872Y-1505D01*
Y-1513D01*
X3872Y-1512D01*
X3872Y-1512D01*
X3872Y-1511D01*
X3873Y-1511D01*
X3874Y-1509D01*
X3876Y-1507D01*
X3876Y-1507D01*
X3876Y-1507D01*
X3877Y-1506D01*
X3878Y-1505D01*
X3879Y-1504D01*
X3880D01*
X3880Y-1504D01*
X3880Y-1503D01*
X3882Y-1503D01*
X3883Y-1502D01*
X3883D01*
X3883Y-1502D01*
X3884Y-1502D01*
X3885Y-1502D01*
X3886Y-1502D01*
X3887D01*
X3888Y-1502D01*
D02*
G37*
G36*
X3273D02*
X3274Y-1502D01*
X3276Y-1502D01*
X3278Y-1503D01*
X3279Y-1503D01*
X3281Y-1504D01*
X3281Y-1504D01*
X3282Y-1505D01*
X3282Y-1505D01*
X3283Y-1506D01*
X3284Y-1507D01*
X3285Y-1508D01*
X3287Y-1509D01*
X3288Y-1510D01*
X3288Y-1511D01*
X3288Y-1511D01*
X3288Y-1512D01*
X3289Y-1513D01*
X3290Y-1514D01*
X3290Y-1516D01*
X3291Y-1518D01*
X3291Y-1520D01*
Y-1520D01*
X3292Y-1521D01*
X3292Y-1522D01*
X3292Y-1523D01*
X3292Y-1525D01*
X3293Y-1527D01*
X3293Y-1528D01*
Y-1531D01*
Y-1531D01*
Y-1531D01*
Y-1531D01*
Y-1532D01*
X3293Y-1533D01*
Y-1535D01*
X3292Y-1537D01*
X3292Y-1539D01*
X3292Y-1541D01*
X3291Y-1543D01*
Y-1544D01*
X3291Y-1544D01*
X3290Y-1545D01*
X3290Y-1547D01*
X3289Y-1548D01*
X3288Y-1550D01*
X3288Y-1552D01*
X3287Y-1553D01*
X3286Y-1553D01*
X3286Y-1554D01*
X3285Y-1554D01*
X3285Y-1555D01*
X3283Y-1556D01*
X3282Y-1557D01*
X3281Y-1558D01*
X3279Y-1559D01*
X3279Y-1559D01*
X3278Y-1559D01*
X3278Y-1560D01*
X3276Y-1560D01*
X3275Y-1560D01*
X3273Y-1561D01*
X3271Y-1561D01*
X3269Y-1561D01*
X3268D01*
X3268Y-1561D01*
X3266Y-1561D01*
X3265Y-1561D01*
X3264D01*
X3264Y-1560D01*
X3263Y-1560D01*
X3262Y-1560D01*
X3261Y-1559D01*
X3261D01*
X3260Y-1559D01*
X3259Y-1558D01*
X3258Y-1558D01*
X3257Y-1557D01*
X3257Y-1557D01*
X3257Y-1556D01*
X3256Y-1556D01*
X3256Y-1556D01*
X3254Y-1554D01*
X3253Y-1553D01*
Y-1580D01*
Y-1580D01*
X3253Y-1581D01*
X3252Y-1581D01*
X3252Y-1581D01*
X3252D01*
X3251Y-1581D01*
X3251Y-1582D01*
X3250Y-1582D01*
X3250D01*
X3249Y-1582D01*
X3246D01*
X3245Y-1582D01*
X3245D01*
X3245Y-1582D01*
X3244Y-1581D01*
X3244D01*
X3244Y-1581D01*
X3243Y-1581D01*
Y-1580D01*
X3243Y-1580D01*
Y-1505D01*
Y-1504D01*
Y-1504D01*
X3243Y-1504D01*
Y-1504D01*
X3243Y-1504D01*
X3244Y-1503D01*
X3244Y-1503D01*
X3244D01*
X3244Y-1503D01*
X3245Y-1503D01*
X3245Y-1503D01*
X3245D01*
X3246Y-1503D01*
X3249D01*
X3249Y-1503D01*
X3249D01*
X3250Y-1503D01*
X3251Y-1503D01*
X3251D01*
X3251Y-1503D01*
X3251Y-1504D01*
X3251Y-1504D01*
X3251Y-1504D01*
X3252Y-1505D01*
Y-1512D01*
X3252Y-1512D01*
X3252Y-1511D01*
X3253Y-1511D01*
X3253Y-1510D01*
X3255Y-1509D01*
X3256Y-1508D01*
X3256Y-1507D01*
X3257Y-1507D01*
X3257Y-1507D01*
X3258Y-1506D01*
X3259Y-1505D01*
X3261Y-1504D01*
X3261D01*
X3261Y-1504D01*
X3262Y-1504D01*
X3262Y-1504D01*
X3264Y-1503D01*
X3266Y-1503D01*
X3266D01*
X3266Y-1502D01*
X3267Y-1502D01*
X3267Y-1502D01*
X3269Y-1502D01*
X3271Y-1502D01*
X3272D01*
X3273Y-1502D01*
D02*
G37*
G36*
X3826D02*
X3828Y-1502D01*
X3829Y-1502D01*
X3831Y-1503D01*
X3833Y-1503D01*
X3835Y-1504D01*
X3835Y-1504D01*
X3836Y-1504D01*
X3836Y-1505D01*
X3837Y-1505D01*
X3838Y-1506D01*
X3840Y-1507D01*
X3841Y-1508D01*
X3842Y-1509D01*
X3842Y-1510D01*
X3842Y-1510D01*
X3843Y-1511D01*
X3844Y-1512D01*
X3844Y-1513D01*
X3845Y-1514D01*
X3846Y-1516D01*
X3846Y-1518D01*
Y-1518D01*
X3847Y-1518D01*
X3847Y-1519D01*
X3847Y-1520D01*
X3847Y-1522D01*
X3847Y-1524D01*
X3848Y-1525D01*
Y-1527D01*
Y-1529D01*
Y-1529D01*
Y-1530D01*
X3848Y-1530D01*
X3847Y-1532D01*
X3846Y-1533D01*
X3846Y-1533D01*
X3846Y-1533D01*
X3845Y-1533D01*
X3844Y-1533D01*
X3808D01*
Y-1534D01*
Y-1534D01*
Y-1535D01*
X3808Y-1536D01*
Y-1538D01*
X3809Y-1539D01*
X3809Y-1542D01*
Y-1542D01*
X3809Y-1542D01*
X3810Y-1543D01*
X3810Y-1544D01*
X3811Y-1546D01*
X3812Y-1548D01*
X3812Y-1548D01*
X3813Y-1548D01*
X3813Y-1549D01*
X3814Y-1549D01*
X3814Y-1550D01*
X3815Y-1551D01*
X3818Y-1552D01*
X3818D01*
X3818Y-1552D01*
X3819Y-1552D01*
X3820Y-1552D01*
X3821Y-1553D01*
X3823Y-1553D01*
X3824Y-1553D01*
X3827D01*
X3828Y-1553D01*
X3831Y-1553D01*
X3833Y-1553D01*
X3833D01*
X3833Y-1552D01*
X3834Y-1552D01*
X3835Y-1552D01*
X3836Y-1552D01*
X3838Y-1551D01*
X3838D01*
X3838Y-1551D01*
X3839Y-1551D01*
X3841Y-1550D01*
X3842Y-1550D01*
X3842D01*
X3842Y-1550D01*
X3842Y-1549D01*
X3843Y-1549D01*
X3844Y-1549D01*
X3844D01*
X3845Y-1549D01*
X3845D01*
X3845Y-1549D01*
X3845Y-1550D01*
Y-1550D01*
X3845Y-1550D01*
X3845Y-1551D01*
Y-1551D01*
X3846Y-1552D01*
Y-1552D01*
Y-1553D01*
Y-1553D01*
Y-1553D01*
X3845Y-1554D01*
Y-1554D01*
Y-1555D01*
X3845Y-1555D01*
X3845Y-1556D01*
X3845Y-1556D01*
X3845Y-1556D01*
X3844Y-1557D01*
X3844Y-1557D01*
X3843Y-1557D01*
X3842Y-1558D01*
X3842D01*
X3842Y-1558D01*
X3842Y-1558D01*
X3841Y-1558D01*
X3840Y-1559D01*
X3838Y-1559D01*
X3838D01*
X3838Y-1559D01*
X3837Y-1560D01*
X3836Y-1560D01*
X3836Y-1560D01*
X3835Y-1560D01*
X3832Y-1561D01*
X3832D01*
X3832Y-1561D01*
X3831D01*
X3830Y-1561D01*
X3829Y-1561D01*
X3828D01*
X3825Y-1561D01*
X3824D01*
X3823Y-1561D01*
X3821Y-1561D01*
X3819Y-1561D01*
X3817Y-1560D01*
X3815Y-1560D01*
X3813Y-1559D01*
X3813Y-1559D01*
X3812Y-1559D01*
X3811Y-1558D01*
X3810Y-1558D01*
X3809Y-1557D01*
X3808Y-1556D01*
X3806Y-1555D01*
X3805Y-1554D01*
X3805Y-1554D01*
X3804Y-1553D01*
X3804Y-1552D01*
X3803Y-1551D01*
X3802Y-1550D01*
X3801Y-1548D01*
X3800Y-1547D01*
X3800Y-1545D01*
Y-1544D01*
X3799Y-1544D01*
X3799Y-1543D01*
X3799Y-1541D01*
X3799Y-1539D01*
X3798Y-1537D01*
X3798Y-1534D01*
X3798Y-1532D01*
Y-1532D01*
Y-1532D01*
Y-1531D01*
X3798Y-1529D01*
X3798Y-1528D01*
X3798Y-1526D01*
X3799Y-1524D01*
X3799Y-1521D01*
X3800Y-1519D01*
X3800Y-1519D01*
X3800Y-1518D01*
X3800Y-1517D01*
X3801Y-1516D01*
X3802Y-1515D01*
X3803Y-1513D01*
X3804Y-1511D01*
X3805Y-1510D01*
X3805Y-1510D01*
X3805Y-1509D01*
X3806Y-1509D01*
X3807Y-1508D01*
X3808Y-1507D01*
X3810Y-1506D01*
X3811Y-1505D01*
X3813Y-1504D01*
X3813Y-1504D01*
X3814Y-1504D01*
X3815Y-1503D01*
X3816Y-1503D01*
X3818Y-1503D01*
X3820Y-1502D01*
X3822Y-1502D01*
X3824Y-1502D01*
X3825D01*
X3826Y-1502D01*
D02*
G37*
G36*
X3571D02*
X3573Y-1502D01*
X3574Y-1502D01*
X3576Y-1503D01*
X3578Y-1503D01*
X3580Y-1504D01*
X3580Y-1504D01*
X3581Y-1504D01*
X3581Y-1505D01*
X3582Y-1505D01*
X3583Y-1506D01*
X3585Y-1507D01*
X3586Y-1508D01*
X3587Y-1509D01*
X3587Y-1510D01*
X3587Y-1510D01*
X3588Y-1511D01*
X3589Y-1512D01*
X3589Y-1513D01*
X3590Y-1514D01*
X3591Y-1516D01*
X3591Y-1518D01*
Y-1518D01*
X3592Y-1518D01*
X3592Y-1519D01*
X3592Y-1520D01*
X3592Y-1522D01*
X3592Y-1524D01*
X3593Y-1525D01*
Y-1527D01*
Y-1529D01*
Y-1529D01*
Y-1530D01*
X3593Y-1530D01*
X3592Y-1532D01*
X3591Y-1533D01*
X3591Y-1533D01*
X3591Y-1533D01*
X3590Y-1533D01*
X3589Y-1533D01*
X3553D01*
Y-1534D01*
Y-1534D01*
Y-1535D01*
X3553Y-1536D01*
Y-1538D01*
X3554Y-1539D01*
X3554Y-1542D01*
Y-1542D01*
X3554Y-1542D01*
X3555Y-1543D01*
X3555Y-1544D01*
X3556Y-1546D01*
X3557Y-1548D01*
X3557Y-1548D01*
X3558Y-1548D01*
X3558Y-1549D01*
X3559Y-1549D01*
X3559Y-1550D01*
X3560Y-1551D01*
X3563Y-1552D01*
X3563D01*
X3563Y-1552D01*
X3564Y-1552D01*
X3565Y-1552D01*
X3566Y-1553D01*
X3568Y-1553D01*
X3569Y-1553D01*
X3572D01*
X3573Y-1553D01*
X3576Y-1553D01*
X3578Y-1553D01*
X3578D01*
X3578Y-1552D01*
X3579Y-1552D01*
X3580Y-1552D01*
X3581Y-1552D01*
X3583Y-1551D01*
X3583D01*
X3583Y-1551D01*
X3584Y-1551D01*
X3586Y-1550D01*
X3587Y-1550D01*
X3587D01*
X3587Y-1550D01*
X3587Y-1549D01*
X3588Y-1549D01*
X3589Y-1549D01*
X3589D01*
X3590Y-1549D01*
X3590D01*
X3590Y-1549D01*
X3590Y-1550D01*
Y-1550D01*
X3590Y-1550D01*
X3590Y-1551D01*
Y-1551D01*
X3591Y-1552D01*
Y-1552D01*
Y-1553D01*
Y-1553D01*
Y-1553D01*
X3590Y-1554D01*
Y-1554D01*
Y-1555D01*
X3590Y-1555D01*
X3590Y-1556D01*
X3590Y-1556D01*
X3590Y-1556D01*
X3589Y-1557D01*
X3589Y-1557D01*
X3588Y-1557D01*
X3587Y-1558D01*
X3587D01*
X3587Y-1558D01*
X3587Y-1558D01*
X3586Y-1558D01*
X3585Y-1559D01*
X3583Y-1559D01*
X3583D01*
X3583Y-1559D01*
X3582Y-1560D01*
X3582Y-1560D01*
X3581Y-1560D01*
X3580Y-1560D01*
X3577Y-1561D01*
X3577D01*
X3577Y-1561D01*
X3576D01*
X3575Y-1561D01*
X3574Y-1561D01*
X3573D01*
X3570Y-1561D01*
X3569D01*
X3568Y-1561D01*
X3566Y-1561D01*
X3564Y-1561D01*
X3562Y-1560D01*
X3560Y-1560D01*
X3558Y-1559D01*
X3558Y-1559D01*
X3557Y-1559D01*
X3557Y-1558D01*
X3555Y-1558D01*
X3554Y-1557D01*
X3553Y-1556D01*
X3551Y-1555D01*
X3550Y-1554D01*
X3550Y-1554D01*
X3549Y-1553D01*
X3549Y-1552D01*
X3548Y-1551D01*
X3547Y-1550D01*
X3546Y-1548D01*
X3545Y-1547D01*
X3545Y-1545D01*
Y-1544D01*
X3544Y-1544D01*
X3544Y-1543D01*
X3544Y-1541D01*
X3544Y-1539D01*
X3543Y-1537D01*
X3543Y-1534D01*
X3543Y-1532D01*
Y-1532D01*
Y-1532D01*
Y-1531D01*
X3543Y-1529D01*
X3543Y-1528D01*
X3543Y-1526D01*
X3544Y-1524D01*
X3544Y-1521D01*
X3545Y-1519D01*
X3545Y-1519D01*
X3545Y-1518D01*
X3545Y-1517D01*
X3546Y-1516D01*
X3547Y-1515D01*
X3548Y-1513D01*
X3549Y-1511D01*
X3550Y-1510D01*
X3550Y-1510D01*
X3550Y-1509D01*
X3551Y-1509D01*
X3552Y-1508D01*
X3553Y-1507D01*
X3555Y-1506D01*
X3556Y-1505D01*
X3558Y-1504D01*
X3558Y-1504D01*
X3559Y-1504D01*
X3560Y-1503D01*
X3561Y-1503D01*
X3563Y-1503D01*
X3565Y-1502D01*
X3567Y-1502D01*
X3569Y-1502D01*
X3570D01*
X3571Y-1502D01*
D02*
G37*
G36*
X3204D02*
X3206Y-1502D01*
X3208Y-1502D01*
X3210Y-1503D01*
X3211Y-1503D01*
X3213Y-1504D01*
X3214Y-1504D01*
X3214Y-1504D01*
X3215Y-1505D01*
X3216Y-1505D01*
X3218Y-1506D01*
X3219Y-1507D01*
X3220Y-1508D01*
X3222Y-1510D01*
X3222Y-1510D01*
X3222Y-1510D01*
X3223Y-1511D01*
X3224Y-1512D01*
X3224Y-1514D01*
X3225Y-1515D01*
X3226Y-1517D01*
X3227Y-1519D01*
X3227Y-1519D01*
X3227Y-1520D01*
X3227Y-1521D01*
X3228Y-1522D01*
X3228Y-1524D01*
X3228Y-1526D01*
X3228Y-1528D01*
Y-1531D01*
Y-1531D01*
Y-1531D01*
Y-1532D01*
X3228Y-1533D01*
X3228Y-1535D01*
X3228Y-1537D01*
X3228Y-1539D01*
X3227Y-1541D01*
X3227Y-1543D01*
X3226Y-1543D01*
X3226Y-1544D01*
X3226Y-1545D01*
X3225Y-1546D01*
X3225Y-1548D01*
X3224Y-1549D01*
X3223Y-1551D01*
X3221Y-1553D01*
X3221Y-1553D01*
X3221Y-1553D01*
X3220Y-1554D01*
X3219Y-1555D01*
X3218Y-1556D01*
X3216Y-1557D01*
X3215Y-1558D01*
X3213Y-1559D01*
X3212Y-1559D01*
X3212Y-1559D01*
X3211Y-1560D01*
X3209Y-1560D01*
X3208Y-1560D01*
X3205Y-1561D01*
X3203Y-1561D01*
X3201Y-1561D01*
X3200D01*
X3198Y-1561D01*
X3197Y-1561D01*
X3195Y-1561D01*
X3193Y-1560D01*
X3191Y-1560D01*
X3189Y-1559D01*
X3189Y-1559D01*
X3188Y-1559D01*
X3187Y-1558D01*
X3186Y-1558D01*
X3185Y-1557D01*
X3184Y-1556D01*
X3182Y-1555D01*
X3181Y-1553D01*
X3181Y-1553D01*
X3180Y-1553D01*
X3180Y-1552D01*
X3179Y-1551D01*
X3178Y-1550D01*
X3177Y-1548D01*
X3177Y-1546D01*
X3176Y-1544D01*
Y-1544D01*
X3176Y-1543D01*
X3176Y-1542D01*
X3175Y-1541D01*
X3175Y-1539D01*
X3175Y-1537D01*
X3175Y-1535D01*
X3174Y-1532D01*
Y-1532D01*
Y-1532D01*
Y-1531D01*
X3175Y-1530D01*
X3175Y-1528D01*
X3175Y-1526D01*
X3175Y-1524D01*
X3176Y-1522D01*
X3176Y-1520D01*
X3176Y-1520D01*
X3176Y-1519D01*
X3177Y-1518D01*
X3177Y-1517D01*
X3178Y-1515D01*
X3179Y-1514D01*
X3180Y-1512D01*
X3181Y-1510D01*
X3181Y-1510D01*
X3182Y-1510D01*
X3183Y-1509D01*
X3184Y-1508D01*
X3185Y-1507D01*
X3186Y-1506D01*
X3188Y-1505D01*
X3190Y-1504D01*
X3190Y-1504D01*
X3191Y-1504D01*
X3192Y-1503D01*
X3193Y-1503D01*
X3195Y-1503D01*
X3197Y-1502D01*
X3199Y-1502D01*
X3202Y-1502D01*
X3203D01*
X3204Y-1502D01*
D02*
G37*
%LPC*%
G36*
X3568Y-1510D02*
X3567D01*
X3566Y-1510D01*
X3564Y-1510D01*
X3562Y-1511D01*
X3562D01*
X3562Y-1511D01*
X3561Y-1512D01*
X3560Y-1512D01*
X3559Y-1513D01*
X3557Y-1515D01*
X3557Y-1515D01*
X3557Y-1515D01*
X3557Y-1516D01*
X3556Y-1516D01*
X3556Y-1517D01*
X3555Y-1518D01*
X3554Y-1520D01*
Y-1520D01*
X3554Y-1521D01*
X3554Y-1521D01*
X3554Y-1522D01*
X3554Y-1523D01*
X3553Y-1524D01*
X3553Y-1526D01*
X3583D01*
Y-1526D01*
Y-1526D01*
Y-1526D01*
Y-1525D01*
X3583Y-1524D01*
X3582Y-1522D01*
X3582Y-1520D01*
X3581Y-1518D01*
X3580Y-1516D01*
X3579Y-1514D01*
X3579Y-1514D01*
X3578Y-1513D01*
X3578Y-1513D01*
X3577Y-1512D01*
X3575Y-1511D01*
X3573Y-1510D01*
X3571Y-1510D01*
X3568Y-1510D01*
D02*
G37*
G36*
X3823D02*
X3822D01*
X3821Y-1510D01*
X3819Y-1510D01*
X3817Y-1511D01*
X3817D01*
X3816Y-1511D01*
X3816Y-1512D01*
X3815Y-1512D01*
X3814Y-1513D01*
X3812Y-1515D01*
X3812Y-1515D01*
X3812Y-1515D01*
X3811Y-1516D01*
X3811Y-1516D01*
X3811Y-1517D01*
X3810Y-1518D01*
X3809Y-1520D01*
Y-1520D01*
X3809Y-1521D01*
X3809Y-1521D01*
X3809Y-1522D01*
X3809Y-1523D01*
X3808Y-1524D01*
X3808Y-1526D01*
X3838D01*
Y-1526D01*
Y-1526D01*
Y-1526D01*
Y-1525D01*
X3838Y-1524D01*
X3837Y-1522D01*
X3837Y-1520D01*
X3836Y-1518D01*
X3835Y-1516D01*
X3834Y-1514D01*
X3834Y-1514D01*
X3833Y-1513D01*
X3833Y-1513D01*
X3831Y-1512D01*
X3830Y-1511D01*
X3828Y-1510D01*
X3826Y-1510D01*
X3823Y-1510D01*
D02*
G37*
G36*
X3356Y-1491D02*
X3347D01*
Y-1522D01*
X3358D01*
X3359Y-1522D01*
X3360Y-1522D01*
X3361Y-1522D01*
X3362Y-1521D01*
X3364Y-1521D01*
X3364D01*
X3364Y-1521D01*
X3365Y-1520D01*
X3366Y-1520D01*
X3367Y-1519D01*
X3369Y-1518D01*
X3369Y-1518D01*
X3369Y-1517D01*
X3370Y-1517D01*
X3370Y-1516D01*
X3371Y-1515D01*
X3372Y-1513D01*
Y-1512D01*
X3372Y-1512D01*
X3373Y-1511D01*
X3373Y-1511D01*
X3373Y-1510D01*
X3373Y-1509D01*
X3373Y-1506D01*
Y-1506D01*
Y-1505D01*
X3373Y-1504D01*
X3373Y-1503D01*
X3373Y-1502D01*
X3373Y-1501D01*
X3372Y-1499D01*
X3371Y-1498D01*
X3371Y-1498D01*
X3371Y-1498D01*
X3371Y-1497D01*
X3370Y-1496D01*
X3369Y-1495D01*
X3368Y-1494D01*
X3367Y-1493D01*
X3367Y-1493D01*
X3367Y-1493D01*
X3366Y-1493D01*
X3365Y-1493D01*
X3364Y-1492D01*
X3362Y-1491D01*
X3362D01*
X3361Y-1491D01*
X3361D01*
X3360Y-1491D01*
X3358Y-1491D01*
X3356Y-1491D01*
D02*
G37*
G36*
X3269Y-1510D02*
X3269D01*
X3268Y-1510D01*
X3266Y-1511D01*
X3265Y-1511D01*
X3265D01*
X3265Y-1511D01*
X3264Y-1511D01*
X3263Y-1512D01*
X3261Y-1513D01*
X3261D01*
X3261Y-1513D01*
X3261Y-1513D01*
X3260Y-1514D01*
X3259Y-1515D01*
X3257Y-1516D01*
X3257Y-1516D01*
X3257Y-1516D01*
X3256Y-1517D01*
X3256Y-1518D01*
X3254Y-1519D01*
X3253Y-1521D01*
Y-1542D01*
X3253Y-1543D01*
X3254Y-1543D01*
X3254Y-1544D01*
X3255Y-1545D01*
X3256Y-1546D01*
X3258Y-1548D01*
X3259Y-1549D01*
X3260Y-1550D01*
X3261Y-1550D01*
X3261Y-1550D01*
X3262Y-1551D01*
X3263Y-1551D01*
X3264Y-1552D01*
X3265Y-1552D01*
X3267Y-1553D01*
X3268Y-1553D01*
X3269D01*
X3270Y-1553D01*
X3270Y-1552D01*
X3273Y-1552D01*
X3274Y-1552D01*
X3275Y-1551D01*
X3275Y-1551D01*
X3275Y-1551D01*
X3276Y-1550D01*
X3276Y-1550D01*
X3277Y-1549D01*
X3278Y-1548D01*
X3279Y-1546D01*
X3279Y-1546D01*
X3279Y-1546D01*
X3280Y-1545D01*
X3280Y-1544D01*
X3280Y-1543D01*
X3281Y-1542D01*
X3282Y-1539D01*
Y-1539D01*
X3282Y-1539D01*
X3282Y-1538D01*
X3282Y-1537D01*
X3282Y-1536D01*
X3282Y-1535D01*
X3282Y-1532D01*
Y-1532D01*
Y-1531D01*
Y-1530D01*
X3282Y-1529D01*
Y-1528D01*
X3282Y-1527D01*
X3282Y-1524D01*
Y-1524D01*
X3282Y-1523D01*
X3281Y-1523D01*
X3281Y-1522D01*
X3281Y-1520D01*
X3280Y-1519D01*
X3279Y-1517D01*
Y-1517D01*
X3279Y-1516D01*
X3279Y-1516D01*
X3278Y-1515D01*
X3277Y-1514D01*
X3275Y-1512D01*
X3275Y-1512D01*
X3275Y-1512D01*
X3274Y-1512D01*
X3274Y-1511D01*
X3273Y-1511D01*
X3272Y-1511D01*
X3270Y-1510D01*
X3269Y-1510D01*
D02*
G37*
G36*
X3430Y-1534D02*
X3420D01*
X3419Y-1534D01*
X3417D01*
X3416Y-1534D01*
X3414Y-1535D01*
X3414D01*
X3413Y-1535D01*
X3413Y-1535D01*
X3412Y-1535D01*
X3411Y-1536D01*
X3409Y-1537D01*
X3409D01*
X3409Y-1537D01*
X3408Y-1538D01*
X3407Y-1539D01*
X3406Y-1540D01*
Y-1540D01*
X3406Y-1540D01*
X3406Y-1541D01*
X3406Y-1541D01*
X3405Y-1543D01*
X3405Y-1544D01*
Y-1544D01*
Y-1545D01*
X3405Y-1546D01*
X3406Y-1547D01*
X3406Y-1548D01*
X3406Y-1549D01*
X3407Y-1550D01*
X3408Y-1551D01*
X3408Y-1551D01*
X3408Y-1551D01*
X3409Y-1552D01*
X3410Y-1552D01*
X3411Y-1553D01*
X3412Y-1553D01*
X3414Y-1553D01*
X3415Y-1553D01*
X3416D01*
X3417Y-1553D01*
X3418Y-1553D01*
X3419Y-1553D01*
X3420Y-1553D01*
X3421Y-1552D01*
X3422Y-1551D01*
X3423Y-1551D01*
X3423Y-1551D01*
X3424Y-1551D01*
X3425Y-1550D01*
X3426Y-1549D01*
X3427Y-1548D01*
X3428Y-1547D01*
X3430Y-1545D01*
Y-1534D01*
D02*
G37*
G36*
X3718D02*
X3708D01*
X3707Y-1534D01*
X3706D01*
X3705Y-1534D01*
X3702Y-1535D01*
X3702D01*
X3702Y-1535D01*
X3701Y-1535D01*
X3701Y-1535D01*
X3699Y-1536D01*
X3697Y-1537D01*
X3697D01*
X3697Y-1537D01*
X3696Y-1538D01*
X3695Y-1539D01*
X3694Y-1540D01*
Y-1540D01*
X3694Y-1540D01*
X3694Y-1541D01*
X3694Y-1541D01*
X3694Y-1543D01*
X3694Y-1544D01*
Y-1544D01*
Y-1545D01*
X3694Y-1546D01*
X3694Y-1547D01*
X3694Y-1548D01*
X3695Y-1549D01*
X3695Y-1550D01*
X3696Y-1551D01*
X3696Y-1551D01*
X3697Y-1551D01*
X3697Y-1552D01*
X3698Y-1552D01*
X3699Y-1553D01*
X3700Y-1553D01*
X3702Y-1553D01*
X3704Y-1553D01*
X3704D01*
X3705Y-1553D01*
X3706Y-1553D01*
X3707Y-1553D01*
X3708Y-1553D01*
X3710Y-1552D01*
X3711Y-1551D01*
X3711Y-1551D01*
X3711Y-1551D01*
X3712Y-1551D01*
X3713Y-1550D01*
X3714Y-1549D01*
X3715Y-1548D01*
X3717Y-1547D01*
X3718Y-1545D01*
Y-1534D01*
D02*
G37*
G36*
X3201Y-1510D02*
X3201D01*
X3200Y-1510D01*
X3199D01*
X3198Y-1511D01*
X3196Y-1511D01*
X3195Y-1511D01*
X3194Y-1512D01*
X3194D01*
X3193Y-1512D01*
X3193Y-1513D01*
X3192Y-1513D01*
X3190Y-1514D01*
X3189Y-1516D01*
X3189Y-1516D01*
X3188Y-1517D01*
X3188Y-1517D01*
X3188Y-1518D01*
X3187Y-1519D01*
X3186Y-1520D01*
X3186Y-1522D01*
X3186Y-1523D01*
Y-1523D01*
X3186Y-1524D01*
X3185Y-1524D01*
X3185Y-1525D01*
X3185Y-1527D01*
X3185Y-1528D01*
X3185Y-1530D01*
Y-1531D01*
Y-1532D01*
Y-1532D01*
Y-1533D01*
X3185Y-1534D01*
Y-1535D01*
X3185Y-1537D01*
X3185Y-1540D01*
Y-1540D01*
X3186Y-1540D01*
X3186Y-1541D01*
X3186Y-1542D01*
X3187Y-1544D01*
X3188Y-1547D01*
X3188Y-1547D01*
X3189Y-1547D01*
X3189Y-1548D01*
X3190Y-1548D01*
X3190Y-1549D01*
X3191Y-1550D01*
X3193Y-1551D01*
X3193D01*
X3194Y-1551D01*
X3195Y-1552D01*
X3196Y-1552D01*
X3197Y-1552D01*
X3198Y-1553D01*
X3200Y-1553D01*
X3201Y-1553D01*
X3202D01*
X3203Y-1553D01*
X3204D01*
X3205Y-1552D01*
X3206Y-1552D01*
X3208Y-1552D01*
X3209Y-1551D01*
X3209Y-1551D01*
X3209Y-1551D01*
X3210Y-1551D01*
X3211Y-1550D01*
X3212Y-1549D01*
X3214Y-1547D01*
X3214Y-1547D01*
X3214Y-1546D01*
X3215Y-1546D01*
X3215Y-1545D01*
X3216Y-1544D01*
X3216Y-1543D01*
X3217Y-1542D01*
X3217Y-1540D01*
Y-1540D01*
X3217Y-1540D01*
X3217Y-1539D01*
X3218Y-1538D01*
X3218Y-1536D01*
X3218Y-1535D01*
X3218Y-1532D01*
Y-1532D01*
Y-1531D01*
Y-1530D01*
X3218Y-1529D01*
Y-1528D01*
X3218Y-1526D01*
X3217Y-1523D01*
Y-1523D01*
X3217Y-1523D01*
X3217Y-1522D01*
X3217Y-1521D01*
X3216Y-1519D01*
X3215Y-1517D01*
X3214Y-1516D01*
X3214Y-1516D01*
X3214Y-1516D01*
X3213Y-1515D01*
X3213Y-1514D01*
X3212Y-1513D01*
X3211Y-1513D01*
X3210Y-1512D01*
X3209Y-1512D01*
X3209Y-1512D01*
X3208Y-1511D01*
X3207Y-1511D01*
X3206Y-1511D01*
X3205Y-1510D01*
X3203Y-1510D01*
X3201Y-1510D01*
D02*
G37*
%LPD*%
M02*
