M48
;Layer_Color=9474304
;FILE_FORMAT=2:3
INCH,LZ
;TYPE=PLATED
T1F00S00C0.011
T2F00S00C0.012
T3F00S00C0.020
T4F00S00C0.024
T5F00S00C0.028
T7F00S00C0.030
T8F00S00C0.035
T9F00S00C0.042
T10F00S00C0.057
T11F00S00C0.072
T13F00S00C0.150
;TYPE=NON_PLATED
T14F00S00C0.052
%
T01
X0176Y0081
X01215Y01971
X01198Y03164
X01149
X01089Y031
X00999Y0316
X0127Y03308
X00391Y03117
X0175
X01736Y0326
X02213Y03186
X02151Y02867
X0206Y0264
X01938Y0253
X01888Y0239
X01788
X0167Y0245
Y02624
X01838Y027
X02371Y02696
X02026Y0235
X02591Y03363
X0192Y0371
X01696Y03765
Y03611
X01843Y0409
X02052Y04068
X0217Y04236
X02363Y04155
X01743Y04236
T02
X0166Y00529
X0163Y00733
Y01233
Y01483
Y01733
X01825Y017
X01382
X01425Y0175
X01458Y01525
X0113Y01483
X0088
X0063
X0038
X0013
Y01233
Y00983
Y00733
Y00483
X0038
Y00733
Y00983
Y01233
X0063
Y00983
Y00733
Y00483
X0088
Y00733
Y00983
Y01233
X0113
Y00983
Y00733
Y00483
X0088Y01733
X0063
X0038
X0013
Y01983
Y02233
Y02483
X0038Y02233
Y01983
X0063
Y02233
Y02483
X0038Y02983
X00224Y03177
X0013Y03233
X00962Y03328
Y03404
X01325Y034
X0148Y0339
X01399Y03145
X01395Y02995
X015Y02742
X01494Y0238
X0143Y02126
X01382Y0208
X01425Y0203
X0113Y02233
X0088Y01983
X0095Y0297
X00998Y03003
X01582Y03081
X01645Y03335
X01743Y03348
X0185Y03342
X01956Y03332
X02026Y0333
X02117Y03182
X021Y0309
X0211Y0301
X02138Y02809
X02275Y0283
X02525Y0313
X026Y03131
X0267
Y0323
X0263Y03233
X02685Y03325
X0288Y03233
Y02233
X0263
X0238Y02354
X019Y0212
X0313Y02233
Y02483
Y02733
X03293Y03675
X02825Y03765
X02677Y03825
X02476Y03814
X02475Y03862
X02263Y0385
X02311Y0369
X02313Y03605
X0238Y03483
X0246Y0352
X0253
X026
X0263Y03483
X02671Y0352
X0198Y0366
X0182Y0362
X01818Y03555
X0173Y0357
X0155
Y03764
X01554Y03843
X0157Y0392
X0168Y03959
X017Y04
X0172Y0409
X0176Y039
X02135Y04025
X021Y04068
X02213Y04275
X02084Y04384
X0267Y04425
X0088Y04233
X01047Y03793
X01185Y03554
X01458Y03575
X0038Y03733
T03
X0172Y0156
X01696Y0165
X01176Y0321
X0071Y03
X00707Y02921
X0162Y0267
X01915Y0291
X01905Y03554
X01225Y03757
X00889Y03587
T04
X012Y034
T05
X0095Y027
X0234Y0321
X02565Y0321
X02634Y0295
X03049Y03331
X0297Y0351
X02875
X02771Y03511
X016Y0412
X01595Y04317
X00426Y0375
T07
X01406Y0025
X01609Y00252
X01825
X0127Y0247
X01109Y0257
X012Y033
X00551Y0333
X003Y0275
X0165Y0295
X022Y03
X02275Y02925
X0275Y03095
X01919Y02275
X0155Y021
X033Y03775
X0275Y036
X02573Y03607
Y03686
Y03765
Y03844
Y03922
Y04001
Y0408
Y04158
Y04237
Y04316
Y04395
Y04473
X02725Y0446
X0275Y0415
X0285Y042
X0185Y0435
X016Y044
Y042
X01575Y04
X016Y0365
X0185Y037
X015Y0365
X01345Y03686
Y03607
Y03765
Y03844
Y03922
Y04001
Y0408
Y04158
Y04237
Y04316
Y04395
Y04473
X01146Y04315
X01145Y04206
Y04105
Y04005
X0055Y0345
T08
X01085Y0085
X01185
X01458Y03193
X01558
X016Y03468
X015
X014
X013
T09
X03191Y03142
X03191Y0326
T10
X01582Y01412
X01782
X01382
T11
X00787Y0243
Y0263
X02614
Y0243
T13
X0076Y00529
T14
X03268Y03024
Y03378
M30
