%TF.GenerationSoftware,Altium Limited,Altium Designer,21.6.4 (81)*%
G04 Layer_Physical_Order=2*
G04 Layer_Color=32768*
%FSLAX26Y26*%
%MOIN*%
%TF.SameCoordinates,BD845C9F-3E28-4BEA-89B7-7B09B8E8D9D1*%
%TF.FilePolarity,Negative*%
%TF.FileFunction,Copper,L2,Inr,Plane*%
%TF.Part,Single*%
G01*
G75*
%TA.AperFunction,NonConductor*%
%ADD79C,0.040000*%
%ADD80C,0.100000*%
%ADD81C,0.060000*%
%ADD82C,0.010000*%
%ADD83C,0.080000*%
%TA.AperFunction,ComponentPad*%
%ADD84C,0.070000*%
G04:AMPARAMS|DCode=85|XSize=90mil|YSize=90mil|CornerRadius=0mil|HoleSize=0mil|Usage=FLASHONLY|Rotation=0.000|XOffset=0mil|YOffset=0mil|HoleType=Round|Shape=Relief|Width=20mil|Gap=10mil|Entries=4|*
%AMTHD85*
7,0,0,0.090000,0.070000,0.020000,45*
%
%ADD85THD85*%
%AMTHOVALD86*
21,1,0.267276,0.088000,0,0,270.0*
1,1,0.088000,0.000000,0.133638*
1,1,0.088000,0.000000,-0.133638*
21,0,0.267276,0.068000,0,0,270.0*
1,0,0.068000,0.000000,0.133638*
1,0,0.068000,0.000000,-0.133638*
4,0,4,-0.007071,0.126567,-0.038184,0.157679,-0.024042,0.171822,0.007071,0.140709,-0.007071,0.126567,0.0*
4,0,4,-0.007071,-0.140709,0.024042,-0.171822,0.038184,-0.157679,0.007071,-0.126567,-0.007071,-0.140709,0.0*
4,0,4,-0.007071,0.140709,0.024042,0.171822,0.038184,0.157679,0.007071,0.126567,-0.007071,0.140709,0.0*
4,0,4,-0.007071,-0.126567,-0.038184,-0.157679,-0.024042,-0.171822,0.007071,-0.140709,-0.007071,-0.126567,0.0*
%
%ADD86THOVALD86*%

%ADD87O,0.068000X0.335276*%
%ADD88C,0.097000*%
G04:AMPARAMS|DCode=89|XSize=117mil|YSize=117mil|CornerRadius=0mil|HoleSize=0mil|Usage=FLASHONLY|Rotation=0.000|XOffset=0mil|YOffset=0mil|HoleType=Round|Shape=Relief|Width=20mil|Gap=10mil|Entries=4|*
%AMTHD89*
7,0,0,0.117000,0.097000,0.020000,45*
%
%ADD89THD89*%
%ADD90O,0.115000X0.190000*%
G04:AMPARAMS|DCode=91|XSize=210mil|YSize=210mil|CornerRadius=0mil|HoleSize=0mil|Usage=FLASHONLY|Rotation=0.000|XOffset=0mil|YOffset=0mil|HoleType=Round|Shape=Relief|Width=20mil|Gap=10mil|Entries=4|*
%AMTHD91*
7,0,0,0.210000,0.190000,0.020000,45*
%
%ADD91THD91*%
G04:AMPARAMS|DCode=92|XSize=95.433mil|YSize=95.433mil|CornerRadius=0mil|HoleSize=0mil|Usage=FLASHONLY|Rotation=0.000|XOffset=0mil|YOffset=0mil|HoleType=Round|Shape=Relief|Width=20mil|Gap=10mil|Entries=4|*
%AMTHD92*
7,0,0,0.095433,0.075433,0.020000,45*
%
%ADD92THD92*%
%ADD93C,0.075433*%
G04:AMPARAMS|DCode=94|XSize=102.126mil|YSize=102.126mil|CornerRadius=0mil|HoleSize=0mil|Usage=FLASHONLY|Rotation=0.000|XOffset=0mil|YOffset=0mil|HoleType=Round|Shape=Relief|Width=20mil|Gap=10mil|Entries=4|*
%AMTHD94*
7,0,0,0.102126,0.082126,0.020000,45*
%
%ADD94THD94*%
%ADD95C,0.082126*%
%ADD96C,0.091969*%
%ADD97C,0.112000*%
%ADD98O,0.215000X0.110000*%
%ADD99O,0.068000X0.112000*%
%ADD100O,0.068000X0.364803*%
G04:AMPARAMS|DCode=101|XSize=132mil|YSize=132mil|CornerRadius=0mil|HoleSize=0mil|Usage=FLASHONLY|Rotation=0.000|XOffset=0mil|YOffset=0mil|HoleType=Round|Shape=Relief|Width=20mil|Gap=10mil|Entries=4|*
%AMTHD101*
7,0,0,0.132000,0.112000,0.020000,45*
%
%ADD101THD101*%
%AMTHOVALD102*
21,1,0.044000,0.088000,0,0,270.0*
1,1,0.088000,0.000000,0.022000*
1,1,0.088000,0.000000,-0.022000*
21,0,0.044000,0.068000,0,0,270.0*
1,0,0.068000,0.000000,0.022000*
1,0,0.068000,0.000000,-0.022000*
4,0,4,-0.007071,0.014929,-0.038184,0.046042,-0.024042,0.060184,0.007071,0.029071,-0.007071,0.014929,0.0*
4,0,4,-0.007071,-0.029071,0.024042,-0.060184,0.038184,-0.046042,0.007071,-0.014929,-0.007071,-0.029071,0.0*
4,0,4,-0.007071,0.029071,0.024042,0.060184,0.038184,0.046042,0.007071,0.014929,-0.007071,0.029071,0.0*
4,0,4,-0.007071,-0.014929,-0.038184,-0.046042,-0.024042,-0.060184,0.007071,-0.029071,-0.007071,-0.014929,0.0*
%
%ADD102THOVALD102*%

%AMTHOVALD103*
21,1,0.296803,0.088000,0,0,270.0*
1,1,0.088000,0.000000,0.148401*
1,1,0.088000,0.000000,-0.148401*
21,0,0.296803,0.068000,0,0,270.0*
1,0,0.068000,0.000000,0.148401*
1,0,0.068000,0.000000,-0.148401*
4,0,4,-0.007071,0.141330,-0.038184,0.172443,-0.024042,0.186585,0.007071,0.155473,-0.007071,0.141330,0.0*
4,0,4,-0.007071,-0.155473,0.024042,-0.186585,0.038184,-0.172443,0.007071,-0.141330,-0.007071,-0.155473,0.0*
4,0,4,-0.007071,0.155473,0.024042,0.186585,0.038184,0.172443,0.007071,0.141330,-0.007071,0.155473,0.0*
4,0,4,-0.007071,-0.141330,-0.038184,-0.172443,-0.024042,-0.186585,0.007071,-0.155473,-0.007071,-0.141330,0.0*
%
%ADD103THOVALD103*%

%TA.AperFunction,ViaPad*%
G04:AMPARAMS|DCode=104|XSize=88mil|YSize=88mil|CornerRadius=0mil|HoleSize=0mil|Usage=FLASHONLY|Rotation=0.000|XOffset=0mil|YOffset=0mil|HoleType=Round|Shape=Relief|Width=20mil|Gap=10mil|Entries=4|*
%AMTHD104*
7,0,0,0.088000,0.068000,0.020000,45*
%
%ADD104THD104*%
%TA.AperFunction,WasherPad*%
%ADD105O,0.315591X0.118740*%
%TA.AperFunction,ViaPad*%
%ADD106C,0.070000*%
G04:AMPARAMS|DCode=107|XSize=71mil|YSize=71mil|CornerRadius=0mil|HoleSize=0mil|Usage=FLASHONLY|Rotation=0.000|XOffset=0mil|YOffset=0mil|HoleType=Round|Shape=Relief|Width=20mil|Gap=10mil|Entries=4|*
%AMTHD107*
7,0,0,0.071000,0.051000,0.020000,45*
%
%ADD107THD107*%
%ADD108C,0.052000*%
%ADD109C,0.060000*%
%ADD110C,0.051000*%
G04:AMPARAMS|DCode=111|XSize=72mil|YSize=72mil|CornerRadius=0mil|HoleSize=0mil|Usage=FLASHONLY|Rotation=0.000|XOffset=0mil|YOffset=0mil|HoleType=Round|Shape=Relief|Width=20mil|Gap=10mil|Entries=4|*
%AMTHD111*
7,0,0,0.072000,0.052000,0.020000,45*
%
%ADD111THD111*%
G04:AMPARAMS|DCode=112|XSize=80mil|YSize=80mil|CornerRadius=0mil|HoleSize=0mil|Usage=FLASHONLY|Rotation=0.000|XOffset=0mil|YOffset=0mil|HoleType=Round|Shape=Relief|Width=20mil|Gap=10mil|Entries=4|*
%AMTHD112*
7,0,0,0.080000,0.060000,0.020000,45*
%
%ADD112THD112*%
G04:AMPARAMS|DCode=113|XSize=84mil|YSize=84mil|CornerRadius=0mil|HoleSize=0mil|Usage=FLASHONLY|Rotation=0.000|XOffset=0mil|YOffset=0mil|HoleType=Round|Shape=Relief|Width=20mil|Gap=10mil|Entries=4|*
%AMTHD113*
7,0,0,0.084000,0.064000,0.020000,45*
%
%ADD113THD113*%
G04:AMPARAMS|DCode=114|XSize=90mil|YSize=90mil|CornerRadius=0mil|HoleSize=0mil|Usage=FLASHONLY|Rotation=0.000|XOffset=0mil|YOffset=0mil|HoleType=Round|Shape=Relief|Width=20mil|Gap=10mil|Entries=4|*
%AMTHD114*
7,0,0,0.090000,0.070000,0.020000,45*
%
%ADD114THD114*%
%ADD115C,0.068000*%
G36*
X1276194Y195662D02*
X1944882D01*
Y-53509D01*
X1942554Y-51181D01*
X1279528D01*
X1276194Y195662D01*
D02*
G37*
G36*
X4845822Y6058561D02*
X4846932D01*
X4848181Y6058422D01*
X4849639Y6058283D01*
X4851096Y6058075D01*
X4852553Y6057798D01*
X4852762D01*
X4852900Y6057728D01*
X4853178Y6057659D01*
X4853941Y6057520D01*
X4854913Y6057312D01*
X4855954Y6057034D01*
X4857134Y6056687D01*
X4858314Y6056340D01*
X4859493Y6055993D01*
X4859563D01*
X4859632Y6055924D01*
X4859979Y6055785D01*
X4860534Y6055577D01*
X4861298Y6055299D01*
X4862061Y6054952D01*
X4862894Y6054605D01*
X4863796Y6054189D01*
X4864560Y6053703D01*
X4864629Y6053634D01*
X4864907Y6053495D01*
X4865254Y6053287D01*
X4865670Y6053009D01*
X4866642Y6052384D01*
X4867058Y6052037D01*
X4867405Y6051760D01*
X4867474D01*
X4867544Y6051621D01*
X4867891Y6051274D01*
X4868238Y6050649D01*
X4868515Y6049955D01*
Y6049886D01*
X4868585Y6049747D01*
X4868654Y6049539D01*
X4868724Y6049192D01*
Y6048776D01*
X4868793Y6048290D01*
X4868862Y6047665D01*
Y6046971D01*
Y6046902D01*
Y6046763D01*
Y6046555D01*
Y6046277D01*
X4868793Y6045653D01*
X4868724Y6044959D01*
Y6044889D01*
Y6044820D01*
X4868654Y6044473D01*
X4868515Y6043987D01*
X4868307Y6043501D01*
X4868238Y6043432D01*
X4868168Y6043224D01*
X4867960Y6042946D01*
X4867752Y6042738D01*
X4867683D01*
X4867544Y6042668D01*
X4867266Y6042599D01*
X4866989Y6042530D01*
X4866850D01*
X4866642Y6042599D01*
X4866433Y6042668D01*
X4866086Y6042807D01*
X4865670Y6043015D01*
X4865115Y6043293D01*
X4864560Y6043640D01*
X4864490Y6043709D01*
X4864282Y6043848D01*
X4863866Y6044056D01*
X4863380Y6044403D01*
X4862755Y6044750D01*
X4861922Y6045167D01*
X4861090Y6045653D01*
X4860049Y6046138D01*
X4859910Y6046208D01*
X4859563Y6046347D01*
X4858938Y6046624D01*
X4858175Y6046971D01*
X4857203Y6047388D01*
X4856023Y6047804D01*
X4854774Y6048220D01*
X4853317Y6048637D01*
X4853247D01*
X4853109Y6048706D01*
X4852900Y6048776D01*
X4852623Y6048845D01*
X4852206Y6048914D01*
X4851790Y6048984D01*
X4851235Y6049123D01*
X4850680Y6049261D01*
X4849292Y6049470D01*
X4847695Y6049608D01*
X4845960Y6049747D01*
X4844017Y6049817D01*
X4842907D01*
X4842352Y6049747D01*
X4841727Y6049678D01*
X4840964Y6049608D01*
X4840131Y6049539D01*
X4838326Y6049261D01*
X4836383Y6048845D01*
X4834371Y6048220D01*
X4832427Y6047457D01*
X4832358D01*
X4832219Y6047318D01*
X4831942Y6047179D01*
X4831595Y6047041D01*
X4831178Y6046763D01*
X4830623Y6046485D01*
X4829443Y6045791D01*
X4828125Y6044820D01*
X4826667Y6043709D01*
X4825210Y6042391D01*
X4823822Y6040933D01*
X4823752Y6040864D01*
X4823683Y6040725D01*
X4823475Y6040517D01*
X4823267Y6040239D01*
X4822920Y6039823D01*
X4822573Y6039337D01*
X4822226Y6038782D01*
X4821809Y6038157D01*
X4820976Y6036769D01*
X4820074Y6035104D01*
X4819172Y6033230D01*
X4818409Y6031148D01*
Y6031079D01*
X4818339Y6030870D01*
X4818270Y6030593D01*
X4818131Y6030176D01*
X4817992Y6029621D01*
X4817784Y6028997D01*
X4817645Y6028302D01*
X4817506Y6027470D01*
X4817298Y6026568D01*
X4817159Y6025665D01*
X4816812Y6023514D01*
X4816604Y6021224D01*
X4816535Y6018795D01*
Y6018725D01*
Y6018448D01*
Y6018101D01*
Y6017546D01*
X4816604Y6016921D01*
X4816674Y6016158D01*
Y6015325D01*
X4816812Y6014353D01*
X4817021Y6012341D01*
X4817368Y6010120D01*
X4817853Y6007829D01*
X4818547Y6005609D01*
Y6005539D01*
X4818617Y6005331D01*
X4818756Y6005054D01*
X4818964Y6004637D01*
X4819172Y6004151D01*
X4819380Y6003596D01*
X4820074Y6002208D01*
X4820838Y6000681D01*
X4821809Y5999085D01*
X4822989Y5997420D01*
X4824238Y5995893D01*
X4824308Y5995823D01*
X4824377Y5995754D01*
X4824585Y5995546D01*
X4824863Y5995268D01*
X4825279Y5994921D01*
X4825696Y5994505D01*
X4826737Y5993672D01*
X4827986Y5992700D01*
X4829513Y5991729D01*
X4831178Y5990757D01*
X4832983Y5989924D01*
X4833052D01*
X4833191Y5989855D01*
X4833468Y5989716D01*
X4833885Y5989647D01*
X4834371Y5989439D01*
X4834926Y5989300D01*
X4835550Y5989092D01*
X4836314Y5988953D01*
X4837077Y5988745D01*
X4837910Y5988536D01*
X4839853Y5988259D01*
X4841935Y5987981D01*
X4844156Y5987912D01*
X4844781D01*
X4845475Y5987981D01*
X4846377Y5988051D01*
X4847487Y5988120D01*
X4848667Y5988259D01*
X4849986Y5988467D01*
X4851374Y5988745D01*
X4851443D01*
X4851512Y5988814D01*
X4851721D01*
X4851998Y5988883D01*
X4852762Y5989092D01*
X4853664Y5989439D01*
X4854705Y5989786D01*
X4855885Y5990271D01*
X4857134Y5990757D01*
X4858314Y5991382D01*
Y6013937D01*
X4840200D01*
X4839784Y6014076D01*
X4839229Y6014353D01*
X4839020Y6014561D01*
X4838812Y6014908D01*
Y6014978D01*
X4838743Y6015117D01*
X4838673Y6015325D01*
X4838604Y6015672D01*
X4838465Y6016158D01*
X4838396Y6016713D01*
X4838326Y6017337D01*
Y6018101D01*
Y6018170D01*
Y6018309D01*
Y6018517D01*
Y6018795D01*
Y6019419D01*
X4838396Y6020044D01*
Y6020113D01*
Y6020183D01*
X4838535Y6020530D01*
X4838604Y6020946D01*
X4838812Y6021363D01*
X4838882Y6021432D01*
X4839020Y6021640D01*
X4839229Y6021918D01*
X4839437Y6022126D01*
X4839506Y6022195D01*
X4839714Y6022265D01*
X4839992Y6022334D01*
X4840339Y6022404D01*
X4865392D01*
X4865739Y6022265D01*
X4866225Y6022126D01*
X4866364Y6022057D01*
X4866642Y6021987D01*
X4867058Y6021779D01*
X4867474Y6021432D01*
X4867544Y6021363D01*
X4867821Y6021085D01*
X4868030Y6020669D01*
X4868307Y6020113D01*
Y6020044D01*
X4868377Y6019975D01*
X4868515Y6019558D01*
X4868585Y6018934D01*
X4868654Y6018170D01*
Y5988606D01*
Y5988536D01*
Y5988328D01*
Y5988051D01*
X4868585Y5987704D01*
X4868446Y5986801D01*
X4868099Y5985899D01*
Y5985830D01*
X4867960Y5985691D01*
X4867821Y5985483D01*
X4867613Y5985205D01*
X4867266Y5984928D01*
X4866919Y5984581D01*
X4866433Y5984234D01*
X4865809Y5983887D01*
X4865739Y5983817D01*
X4865531Y5983748D01*
X4865115Y5983540D01*
X4864629Y5983331D01*
X4863935Y5983054D01*
X4863172Y5982776D01*
X4862269Y5982360D01*
X4861298Y5982013D01*
X4861159Y5981943D01*
X4860812Y5981874D01*
X4860257Y5981666D01*
X4859563Y5981458D01*
X4858661Y5981180D01*
X4857758Y5980902D01*
X4856717Y5980625D01*
X4855607Y5980347D01*
X4855468D01*
X4855121Y5980208D01*
X4854497Y5980139D01*
X4853803Y5979931D01*
X4852900Y5979792D01*
X4851859Y5979584D01*
X4850749Y5979445D01*
X4849639Y5979306D01*
X4849500D01*
X4849153Y5979237D01*
X4848528Y5979167D01*
X4847765Y5979098D01*
X4846863Y5979029D01*
X4845891Y5978959D01*
X4843740Y5978890D01*
X4842837D01*
X4842213Y5978959D01*
X4841449D01*
X4840547Y5979029D01*
X4839506Y5979098D01*
X4838326Y5979237D01*
X4837147Y5979376D01*
X4835828Y5979584D01*
X4833121Y5980070D01*
X4830345Y5980764D01*
X4827639Y5981666D01*
X4827569D01*
X4827361Y5981805D01*
X4826945Y5981943D01*
X4826459Y5982152D01*
X4825834Y5982499D01*
X4825140Y5982846D01*
X4824377Y5983193D01*
X4823544Y5983678D01*
X4821670Y5984789D01*
X4819658Y5986177D01*
X4817645Y5987773D01*
X4815702Y5989577D01*
X4815633Y5989647D01*
X4815494Y5989785D01*
X4815216Y5990132D01*
X4814939Y5990480D01*
X4814522Y5990965D01*
X4814036Y5991590D01*
X4813481Y5992284D01*
X4812926Y5993047D01*
X4812371Y5993880D01*
X4811746Y5994852D01*
X4811122Y5995893D01*
X4810497Y5996934D01*
X4809317Y5999363D01*
X4808276Y6001931D01*
Y6002000D01*
X4808137Y6002278D01*
X4808068Y6002624D01*
X4807860Y6003180D01*
X4807652Y6003874D01*
X4807443Y6004707D01*
X4807235Y6005609D01*
X4807027Y6006650D01*
X4806749Y6007829D01*
X4806541Y6009009D01*
X4806333Y6010397D01*
X4806125Y6011785D01*
X4805917Y6013243D01*
X4805847Y6014770D01*
X4805708Y6018031D01*
Y6018170D01*
Y6018448D01*
Y6018934D01*
X4805778Y6019627D01*
Y6020391D01*
X4805847Y6021363D01*
X4805917Y6022404D01*
X4806055Y6023583D01*
X4806194Y6024833D01*
X4806402Y6026151D01*
X4806888Y6028997D01*
X4807582Y6031911D01*
X4808484Y6034757D01*
Y6034826D01*
X4808623Y6035104D01*
X4808762Y6035451D01*
X4808970Y6036006D01*
X4809317Y6036631D01*
X4809664Y6037394D01*
X4810011Y6038227D01*
X4810497Y6039198D01*
X4811607Y6041141D01*
X4812995Y6043293D01*
X4814522Y6045444D01*
X4816327Y6047526D01*
X4816396Y6047596D01*
X4816535Y6047734D01*
X4816812Y6048012D01*
X4817229Y6048428D01*
X4817715Y6048845D01*
X4818339Y6049331D01*
X4818964Y6049886D01*
X4819727Y6050511D01*
X4820560Y6051205D01*
X4821532Y6051829D01*
X4822503Y6052523D01*
X4823614Y6053217D01*
X4825904Y6054536D01*
X4828472Y6055716D01*
X4828541Y6055785D01*
X4828819Y6055854D01*
X4829166Y6055993D01*
X4829721Y6056201D01*
X4830415Y6056410D01*
X4831178Y6056618D01*
X4832080Y6056895D01*
X4833121Y6057173D01*
X4834232Y6057451D01*
X4835481Y6057728D01*
X4836730Y6057936D01*
X4838118Y6058145D01*
X4841102Y6058492D01*
X4844225Y6058630D01*
X4845405D01*
X4845822Y6058561D01*
D02*
G37*
G36*
X4557395Y6038088D02*
X4557950D01*
X4559200Y6037949D01*
X4560588Y6037672D01*
X4562114Y6037394D01*
X4563641Y6036908D01*
X4565099Y6036283D01*
X4565168D01*
X4565237Y6036214D01*
X4565446Y6036075D01*
X4565723Y6035936D01*
X4566417Y6035520D01*
X4567250Y6035034D01*
X4568152Y6034340D01*
X4569193Y6033507D01*
X4570165Y6032536D01*
X4571067Y6031426D01*
X4571136Y6031287D01*
X4571414Y6030870D01*
X4571830Y6030246D01*
X4572316Y6029413D01*
X4572871Y6028302D01*
X4573427Y6027123D01*
X4573912Y6025735D01*
X4574329Y6024208D01*
Y6024139D01*
X4574398Y6024000D01*
Y6023792D01*
X4574468Y6023514D01*
X4574606Y6023097D01*
X4574676Y6022612D01*
X4574745Y6022056D01*
X4574884Y6021432D01*
X4575023Y6019975D01*
X4575231Y6018309D01*
X4575300Y6016435D01*
X4575370Y6014353D01*
Y5981458D01*
Y5981388D01*
Y5981180D01*
X4575231Y5980902D01*
X4575092Y5980625D01*
X4575023Y5980555D01*
X4574953Y5980486D01*
X4574676Y5980278D01*
X4574329Y5980139D01*
X4574259D01*
X4573912Y5980000D01*
X4573427Y5979931D01*
X4572802Y5979792D01*
X4572663D01*
X4572386Y5979722D01*
X4572108D01*
X4571345Y5979653D01*
X4569540D01*
X4568707Y5979722D01*
X4567944Y5979792D01*
X4567805D01*
X4567389Y5979861D01*
X4566903Y5980000D01*
X4566417Y5980139D01*
X4566348Y5980208D01*
X4566140Y5980278D01*
X4565862Y5980417D01*
X4565654Y5980625D01*
Y5980694D01*
X4565584Y5980833D01*
X4565515Y5981110D01*
X4565446Y5981458D01*
Y6013034D01*
Y6013104D01*
Y6013243D01*
Y6013451D01*
Y6013798D01*
Y6014214D01*
X4565376Y6014631D01*
Y6015741D01*
X4565237Y6016921D01*
X4565099Y6018101D01*
X4564960Y6019350D01*
X4564682Y6020460D01*
Y6020599D01*
X4564543Y6020946D01*
X4564405Y6021501D01*
X4564196Y6022126D01*
X4563849Y6022889D01*
X4563502Y6023722D01*
X4563086Y6024555D01*
X4562600Y6025318D01*
X4562531Y6025388D01*
X4562323Y6025665D01*
X4562045Y6026012D01*
X4561629Y6026498D01*
X4561143Y6026984D01*
X4560518Y6027470D01*
X4559755Y6028025D01*
X4558991Y6028441D01*
X4558922Y6028511D01*
X4558644Y6028650D01*
X4558159Y6028788D01*
X4557534Y6028997D01*
X4556840Y6029205D01*
X4556007Y6029413D01*
X4555036Y6029482D01*
X4553995Y6029552D01*
X4553648D01*
X4553370Y6029482D01*
X4552607Y6029413D01*
X4551635Y6029205D01*
X4550525Y6028927D01*
X4549275Y6028441D01*
X4547887Y6027817D01*
X4546499Y6026914D01*
X4546430D01*
X4546361Y6026776D01*
X4546152Y6026637D01*
X4545875Y6026429D01*
X4545111Y6025804D01*
X4544140Y6024971D01*
X4543029Y6023861D01*
X4541711Y6022542D01*
X4540253Y6020946D01*
X4538796Y6019142D01*
Y5981458D01*
Y5981388D01*
Y5981180D01*
X4538657Y5980902D01*
X4538518Y5980625D01*
X4538449Y5980555D01*
X4538380Y5980486D01*
X4538102Y5980278D01*
X4537755Y5980139D01*
X4537686D01*
X4537339Y5980000D01*
X4536853Y5979931D01*
X4536228Y5979792D01*
X4536089D01*
X4535812Y5979722D01*
X4535534D01*
X4534771Y5979653D01*
X4532966D01*
X4532134Y5979722D01*
X4531370Y5979792D01*
X4531231D01*
X4530815Y5979861D01*
X4530329Y5980000D01*
X4529843Y5980139D01*
X4529774Y5980208D01*
X4529566Y5980278D01*
X4529288Y5980417D01*
X4529080Y5980625D01*
Y5980694D01*
X4529011Y5980833D01*
X4528941Y5981110D01*
X4528872Y5981458D01*
Y6035451D01*
Y6035520D01*
Y6035728D01*
X4528941Y6036006D01*
X4529011Y6036214D01*
X4529080Y6036283D01*
X4529149Y6036422D01*
X4529427Y6036631D01*
X4529705Y6036839D01*
X4529774Y6036908D01*
X4530121Y6036977D01*
X4530537Y6037116D01*
X4531093Y6037186D01*
X4531231D01*
X4531440Y6037255D01*
X4531717D01*
X4532411Y6037324D01*
X4534146D01*
X4534840Y6037255D01*
X4535534Y6037186D01*
X4535673D01*
X4536020Y6037116D01*
X4536506Y6037047D01*
X4536922Y6036839D01*
X4536992Y6036769D01*
X4537200Y6036631D01*
X4537408Y6036492D01*
X4537616Y6036214D01*
X4537686Y6036145D01*
X4537755Y6036006D01*
X4537824Y6035798D01*
Y6035451D01*
Y6028302D01*
X4537894Y6028372D01*
X4538033Y6028511D01*
X4538241Y6028788D01*
X4538588Y6029135D01*
X4539004Y6029552D01*
X4539490Y6030038D01*
X4540670Y6031148D01*
X4541988Y6032328D01*
X4543515Y6033577D01*
X4545181Y6034757D01*
X4546846Y6035728D01*
X4546916D01*
X4547055Y6035867D01*
X4547332Y6035936D01*
X4547610Y6036145D01*
X4548026Y6036283D01*
X4548512Y6036492D01*
X4549692Y6036977D01*
X4551080Y6037394D01*
X4552676Y6037810D01*
X4554272Y6038088D01*
X4556007Y6038157D01*
X4556909D01*
X4557395Y6038088D01*
D02*
G37*
G36*
X4227815Y6038088D02*
X4228370D01*
X4229619Y6037949D01*
X4231007Y6037671D01*
X4232534Y6037394D01*
X4234061Y6036908D01*
X4235518Y6036283D01*
X4235587D01*
X4235657Y6036214D01*
X4235865Y6036075D01*
X4236143Y6035936D01*
X4236837Y6035520D01*
X4237669Y6035034D01*
X4238572Y6034340D01*
X4239613Y6033507D01*
X4240584Y6032536D01*
X4241486Y6031425D01*
X4241556Y6031287D01*
X4241833Y6030870D01*
X4242250Y6030246D01*
X4242736Y6029413D01*
X4243291Y6028302D01*
X4243846Y6027123D01*
X4244332Y6025735D01*
X4244748Y6024208D01*
Y6024138D01*
X4244818Y6024000D01*
Y6023791D01*
X4244887Y6023514D01*
X4245026Y6023097D01*
X4245095Y6022612D01*
X4245165Y6022056D01*
X4245303Y6021432D01*
X4245442Y6019974D01*
X4245650Y6018309D01*
X4245720Y6016435D01*
X4245789Y6014353D01*
Y5981457D01*
Y5981388D01*
Y5981180D01*
X4245650Y5980902D01*
X4245512Y5980625D01*
X4245442Y5980555D01*
X4245373Y5980486D01*
X4245095Y5980278D01*
X4244748Y5980139D01*
X4244679D01*
X4244332Y5980000D01*
X4243846Y5979931D01*
X4243221Y5979792D01*
X4243083D01*
X4242805Y5979722D01*
X4242527D01*
X4241764Y5979653D01*
X4239960D01*
X4239127Y5979722D01*
X4238363Y5979792D01*
X4238225D01*
X4237808Y5979861D01*
X4237322Y5980000D01*
X4236837Y5980139D01*
X4236767Y5980208D01*
X4236559Y5980278D01*
X4236281Y5980416D01*
X4236073Y5980625D01*
Y5980694D01*
X4236004Y5980833D01*
X4235934Y5981110D01*
X4235865Y5981457D01*
Y6013034D01*
Y6013104D01*
Y6013243D01*
Y6013451D01*
Y6013798D01*
Y6014214D01*
X4235796Y6014631D01*
Y6015741D01*
X4235657Y6016921D01*
X4235518Y6018101D01*
X4235379Y6019350D01*
X4235102Y6020460D01*
Y6020599D01*
X4234963Y6020946D01*
X4234824Y6021501D01*
X4234616Y6022126D01*
X4234269Y6022889D01*
X4233922Y6023722D01*
X4233505Y6024555D01*
X4233020Y6025318D01*
X4232950Y6025388D01*
X4232742Y6025665D01*
X4232464Y6026012D01*
X4232048Y6026498D01*
X4231562Y6026984D01*
X4230938Y6027470D01*
X4230174Y6028025D01*
X4229411Y6028441D01*
X4229341Y6028511D01*
X4229064Y6028649D01*
X4228578Y6028788D01*
X4227953Y6028996D01*
X4227259Y6029205D01*
X4226427Y6029413D01*
X4225455Y6029482D01*
X4224414Y6029552D01*
X4224067D01*
X4223789Y6029482D01*
X4223026Y6029413D01*
X4222054Y6029205D01*
X4220944Y6028927D01*
X4219695Y6028441D01*
X4218307Y6027817D01*
X4216919Y6026914D01*
X4216849D01*
X4216780Y6026776D01*
X4216572Y6026637D01*
X4216294Y6026429D01*
X4215531Y6025804D01*
X4214559Y6024971D01*
X4213449Y6023861D01*
X4212130Y6022542D01*
X4210673Y6020946D01*
X4209215Y6019142D01*
Y5981457D01*
Y5981388D01*
Y5981180D01*
X4209077Y5980902D01*
X4208938Y5980625D01*
X4208868Y5980555D01*
X4208799Y5980486D01*
X4208521Y5980278D01*
X4208174Y5980139D01*
X4208105D01*
X4207758Y5980000D01*
X4207272Y5979931D01*
X4206648Y5979792D01*
X4206509D01*
X4206231Y5979722D01*
X4205954D01*
X4205190Y5979653D01*
X4203386D01*
X4202553Y5979722D01*
X4201790Y5979792D01*
X4201651D01*
X4201234Y5979861D01*
X4200749Y5980000D01*
X4200263Y5980139D01*
X4200193Y5980208D01*
X4199985Y5980278D01*
X4199708Y5980416D01*
X4199499Y5980625D01*
Y5980694D01*
X4199430Y5980833D01*
X4199361Y5981110D01*
X4199291Y5981457D01*
Y6035451D01*
Y6035520D01*
Y6035728D01*
X4199361Y6036006D01*
X4199430Y6036214D01*
X4199499Y6036283D01*
X4199569Y6036422D01*
X4199846Y6036630D01*
X4200124Y6036839D01*
X4200193Y6036908D01*
X4200540Y6036977D01*
X4200957Y6037116D01*
X4201512Y6037186D01*
X4201651D01*
X4201859Y6037255D01*
X4202137D01*
X4202831Y6037324D01*
X4204566D01*
X4205260Y6037255D01*
X4205954Y6037186D01*
X4206092D01*
X4206439Y6037116D01*
X4206925Y6037047D01*
X4207342Y6036839D01*
X4207411Y6036769D01*
X4207619Y6036630D01*
X4207827Y6036492D01*
X4208036Y6036214D01*
X4208105Y6036145D01*
X4208174Y6036006D01*
X4208244Y6035798D01*
Y6035451D01*
Y6028302D01*
X4208313Y6028372D01*
X4208452Y6028511D01*
X4208660Y6028788D01*
X4209007Y6029135D01*
X4209424Y6029552D01*
X4209909Y6030037D01*
X4211089Y6031148D01*
X4212408Y6032328D01*
X4213935Y6033577D01*
X4215600Y6034757D01*
X4217266Y6035728D01*
X4217335D01*
X4217474Y6035867D01*
X4217752Y6035936D01*
X4218029Y6036145D01*
X4218446Y6036283D01*
X4218931Y6036492D01*
X4220111Y6036977D01*
X4221499Y6037394D01*
X4223095Y6037810D01*
X4224692Y6038088D01*
X4226427Y6038157D01*
X4227329D01*
X4227815Y6038088D01*
D02*
G37*
G36*
X4018296D02*
X4018851D01*
X4020100Y6037949D01*
X4021488Y6037671D01*
X4023015Y6037394D01*
X4024542Y6036908D01*
X4025999Y6036283D01*
X4026069D01*
X4026138Y6036214D01*
X4026346Y6036075D01*
X4026624Y6035936D01*
X4027318Y6035520D01*
X4028151Y6035034D01*
X4029053Y6034340D01*
X4030094Y6033507D01*
X4031066Y6032536D01*
X4031968Y6031425D01*
X4032037Y6031287D01*
X4032315Y6030870D01*
X4032731Y6030246D01*
X4033217Y6029413D01*
X4033772Y6028302D01*
X4034327Y6027123D01*
X4034813Y6025735D01*
X4035230Y6024208D01*
Y6024138D01*
X4035299Y6024000D01*
Y6023791D01*
X4035368Y6023514D01*
X4035507Y6023097D01*
X4035577Y6022612D01*
X4035646Y6022056D01*
X4035785Y6021432D01*
X4035924Y6019974D01*
X4036132Y6018309D01*
X4036201Y6016435D01*
X4036271Y6014353D01*
Y5981457D01*
Y5981388D01*
Y5981180D01*
X4036132Y5980902D01*
X4035993Y5980625D01*
X4035924Y5980555D01*
X4035854Y5980486D01*
X4035577Y5980278D01*
X4035230Y5980139D01*
X4035160D01*
X4034813Y5980000D01*
X4034327Y5979931D01*
X4033703Y5979792D01*
X4033564D01*
X4033286Y5979722D01*
X4033009D01*
X4032245Y5979653D01*
X4030441D01*
X4029608Y5979722D01*
X4028845Y5979792D01*
X4028706D01*
X4028290Y5979861D01*
X4027804Y5980000D01*
X4027318Y5980139D01*
X4027249Y5980208D01*
X4027040Y5980278D01*
X4026763Y5980416D01*
X4026555Y5980625D01*
Y5980694D01*
X4026485Y5980833D01*
X4026416Y5981110D01*
X4026346Y5981457D01*
Y6013034D01*
Y6013104D01*
Y6013243D01*
Y6013451D01*
Y6013798D01*
Y6014214D01*
X4026277Y6014631D01*
Y6015741D01*
X4026138Y6016921D01*
X4025999Y6018101D01*
X4025861Y6019350D01*
X4025583Y6020460D01*
Y6020599D01*
X4025444Y6020946D01*
X4025305Y6021501D01*
X4025097Y6022126D01*
X4024750Y6022889D01*
X4024403Y6023722D01*
X4023987Y6024555D01*
X4023501Y6025318D01*
X4023432Y6025388D01*
X4023223Y6025665D01*
X4022946Y6026012D01*
X4022529Y6026498D01*
X4022044Y6026984D01*
X4021419Y6027470D01*
X4020656Y6028025D01*
X4019892Y6028441D01*
X4019823Y6028511D01*
X4019545Y6028649D01*
X4019059Y6028788D01*
X4018435Y6028996D01*
X4017741Y6029205D01*
X4016908Y6029413D01*
X4015936Y6029482D01*
X4014895Y6029552D01*
X4014548D01*
X4014271Y6029482D01*
X4013507Y6029413D01*
X4012536Y6029205D01*
X4011425Y6028927D01*
X4010176Y6028441D01*
X4008788Y6027817D01*
X4007400Y6026914D01*
X4007331D01*
X4007261Y6026776D01*
X4007053Y6026637D01*
X4006776Y6026429D01*
X4006012Y6025804D01*
X4005041Y6024971D01*
X4003930Y6023861D01*
X4002612Y6022542D01*
X4001154Y6020946D01*
X3999697Y6019142D01*
Y5981457D01*
Y5981388D01*
Y5981180D01*
X3999558Y5980902D01*
X3999419Y5980625D01*
X3999350Y5980555D01*
X3999280Y5980486D01*
X3999003Y5980278D01*
X3998656Y5980139D01*
X3998586D01*
X3998239Y5980000D01*
X3997754Y5979931D01*
X3997129Y5979792D01*
X3996990D01*
X3996713Y5979722D01*
X3996435D01*
X3995672Y5979653D01*
X3993867D01*
X3993034Y5979722D01*
X3992271Y5979792D01*
X3992132D01*
X3991716Y5979861D01*
X3991230Y5980000D01*
X3990744Y5980139D01*
X3990675Y5980208D01*
X3990467Y5980278D01*
X3990189Y5980416D01*
X3989981Y5980625D01*
Y5980694D01*
X3989911Y5980833D01*
X3989842Y5981110D01*
X3989773Y5981457D01*
Y6035451D01*
Y6035520D01*
Y6035728D01*
X3989842Y6036006D01*
X3989911Y6036214D01*
X3989981Y6036283D01*
X3990050Y6036422D01*
X3990328Y6036630D01*
X3990605Y6036839D01*
X3990675Y6036908D01*
X3991022Y6036977D01*
X3991438Y6037116D01*
X3991993Y6037186D01*
X3992132D01*
X3992340Y6037255D01*
X3992618D01*
X3993312Y6037324D01*
X3995047D01*
X3995741Y6037255D01*
X3996435Y6037186D01*
X3996574D01*
X3996921Y6037116D01*
X3997407Y6037047D01*
X3997823Y6036839D01*
X3997892Y6036769D01*
X3998101Y6036630D01*
X3998309Y6036492D01*
X3998517Y6036214D01*
X3998586Y6036145D01*
X3998656Y6036006D01*
X3998725Y6035798D01*
Y6035451D01*
Y6028302D01*
X3998795Y6028372D01*
X3998933Y6028511D01*
X3999142Y6028788D01*
X3999489Y6029135D01*
X3999905Y6029552D01*
X4000391Y6030037D01*
X4001571Y6031148D01*
X4002889Y6032328D01*
X4004416Y6033577D01*
X4006082Y6034757D01*
X4007747Y6035728D01*
X4007817D01*
X4007955Y6035867D01*
X4008233Y6035936D01*
X4008511Y6036145D01*
X4008927Y6036283D01*
X4009413Y6036492D01*
X4010593Y6036977D01*
X4011981Y6037394D01*
X4013577Y6037810D01*
X4015173Y6038088D01*
X4016908Y6038157D01*
X4017810D01*
X4018296Y6038088D01*
D02*
G37*
G36*
X4181178D02*
X4181872Y6038018D01*
X4182219D01*
X4182496Y6037949D01*
X4183121Y6037880D01*
X4183884Y6037671D01*
X4183954D01*
X4184093Y6037602D01*
X4184301D01*
X4184578Y6037533D01*
X4185203Y6037324D01*
X4185828Y6037116D01*
X4185897D01*
X4185966Y6037047D01*
X4186313Y6036977D01*
X4186730Y6036769D01*
X4187077Y6036561D01*
X4187146Y6036492D01*
X4187285Y6036422D01*
X4187493Y6036214D01*
X4187563Y6036006D01*
Y6035936D01*
X4187632Y6035798D01*
X4187701Y6035589D01*
X4187771Y6035312D01*
Y6035242D01*
X4187840Y6035034D01*
X4187910Y6034618D01*
Y6034063D01*
Y6033993D01*
Y6033924D01*
Y6033716D01*
X4187979Y6033507D01*
Y6032813D01*
Y6031911D01*
Y6031842D01*
Y6031703D01*
Y6031425D01*
Y6031078D01*
Y6030384D01*
X4187910Y6029621D01*
Y6029482D01*
X4187840Y6029135D01*
X4187771Y6028719D01*
X4187632Y6028233D01*
Y6028164D01*
X4187563Y6027955D01*
X4187424Y6027678D01*
X4187216Y6027470D01*
X4187146Y6027400D01*
X4187007Y6027331D01*
X4186799Y6027261D01*
X4186452Y6027192D01*
X4186383D01*
X4186105Y6027261D01*
X4185758Y6027331D01*
X4185272Y6027470D01*
X4185134Y6027539D01*
X4184787Y6027678D01*
X4184301Y6027817D01*
X4183676Y6028025D01*
X4183607D01*
X4183537Y6028094D01*
X4183121Y6028164D01*
X4182496Y6028372D01*
X4181733Y6028511D01*
X4181664D01*
X4181525Y6028580D01*
X4181317D01*
X4181039Y6028649D01*
X4180345Y6028719D01*
X4179443Y6028788D01*
X4178888D01*
X4178541Y6028719D01*
X4177569Y6028511D01*
X4176528Y6028164D01*
X4176459D01*
X4176250Y6028025D01*
X4175973Y6027886D01*
X4175626Y6027678D01*
X4175140Y6027400D01*
X4174654Y6027053D01*
X4174099Y6026637D01*
X4173474Y6026151D01*
X4173405Y6026082D01*
X4173197Y6025943D01*
X4172919Y6025596D01*
X4172503Y6025179D01*
X4172017Y6024694D01*
X4171462Y6024069D01*
X4170837Y6023375D01*
X4170213Y6022542D01*
X4170143Y6022473D01*
X4169935Y6022126D01*
X4169588Y6021640D01*
X4169102Y6021015D01*
X4168547Y6020183D01*
X4167853Y6019211D01*
X4167159Y6018170D01*
X4166396Y6016990D01*
Y5981457D01*
Y5981388D01*
Y5981180D01*
X4166257Y5980902D01*
X4166118Y5980625D01*
X4166049Y5980555D01*
X4165979Y5980486D01*
X4165702Y5980278D01*
X4165355Y5980139D01*
X4165285D01*
X4164938Y5980000D01*
X4164452Y5979931D01*
X4163828Y5979792D01*
X4163689D01*
X4163411Y5979722D01*
X4163134D01*
X4162370Y5979653D01*
X4160566D01*
X4159733Y5979722D01*
X4158970Y5979792D01*
X4158831D01*
X4158415Y5979861D01*
X4157929Y5980000D01*
X4157443Y5980139D01*
X4157374Y5980208D01*
X4157165Y5980278D01*
X4156888Y5980416D01*
X4156680Y5980625D01*
Y5980694D01*
X4156610Y5980833D01*
X4156541Y5981110D01*
X4156471Y5981457D01*
Y6035451D01*
Y6035520D01*
Y6035728D01*
X4156541Y6036006D01*
X4156610Y6036214D01*
X4156680Y6036283D01*
X4156749Y6036422D01*
X4157027Y6036630D01*
X4157304Y6036839D01*
X4157374Y6036908D01*
X4157721Y6036977D01*
X4158137Y6037116D01*
X4158692Y6037186D01*
X4158831D01*
X4159039Y6037255D01*
X4159317D01*
X4160011Y6037324D01*
X4161746D01*
X4162440Y6037255D01*
X4163134Y6037186D01*
X4163273D01*
X4163620Y6037116D01*
X4164105Y6037047D01*
X4164522Y6036839D01*
X4164591Y6036769D01*
X4164799Y6036630D01*
X4165008Y6036492D01*
X4165216Y6036214D01*
X4165285Y6036145D01*
X4165355Y6036006D01*
X4165424Y6035798D01*
Y6035451D01*
Y6027678D01*
X4165493Y6027747D01*
X4165771Y6028164D01*
X4166257Y6028719D01*
X4166812Y6029482D01*
X4167437Y6030315D01*
X4168131Y6031148D01*
X4168825Y6031981D01*
X4169588Y6032813D01*
X4169657Y6032883D01*
X4169935Y6033160D01*
X4170282Y6033507D01*
X4170768Y6033993D01*
X4171323Y6034548D01*
X4171948Y6035104D01*
X4172642Y6035589D01*
X4173266Y6036075D01*
X4173336Y6036145D01*
X4173544Y6036283D01*
X4173891Y6036492D01*
X4174377Y6036700D01*
X4174862Y6036977D01*
X4175418Y6037255D01*
X4176042Y6037463D01*
X4176667Y6037671D01*
X4176736D01*
X4176944Y6037741D01*
X4177291Y6037810D01*
X4177777Y6037949D01*
X4178263Y6038018D01*
X4178888Y6038088D01*
X4180137Y6038157D01*
X4180623D01*
X4181178Y6038088D01*
D02*
G37*
G36*
X4943120Y6057659D02*
X4943953Y6057589D01*
X4944161D01*
X4944578Y6057520D01*
X4945064Y6057381D01*
X4945549Y6057173D01*
X4945619Y6057104D01*
X4945896Y6056965D01*
X4946105Y6056826D01*
X4946382Y6056548D01*
X4946452Y6056479D01*
X4946521Y6056340D01*
X4946590Y6056063D01*
X4946660Y6055785D01*
Y5984164D01*
Y5984095D01*
Y5983956D01*
Y5983748D01*
X4946590Y5983470D01*
X4946521Y5982846D01*
X4946243Y5982152D01*
X4946174Y5982013D01*
X4945966Y5981666D01*
X4945619Y5981249D01*
X4945133Y5980764D01*
X4944994Y5980694D01*
X4944717Y5980486D01*
X4944231Y5980208D01*
X4943676Y5980000D01*
X4943537D01*
X4943190Y5979931D01*
X4942704Y5979861D01*
X4942079Y5979792D01*
X4938124D01*
X4937707Y5979861D01*
X4936805Y5979931D01*
X4935833Y5980070D01*
X4935764D01*
X4935625Y5980139D01*
X4935417Y5980208D01*
X4935139Y5980347D01*
X4934376Y5980694D01*
X4933543Y5981249D01*
X4933474Y5981319D01*
X4933335Y5981388D01*
X4933127Y5981596D01*
X4932849Y5981874D01*
X4932502Y5982221D01*
X4932155Y5982637D01*
X4931322Y5983678D01*
X4931253Y5983748D01*
X4931114Y5983956D01*
X4930906Y5984303D01*
X4930628Y5984719D01*
X4930351Y5985275D01*
X4929934Y5985969D01*
X4929518Y5986732D01*
X4929102Y5987565D01*
X4905436Y6031634D01*
Y6031703D01*
X4905367Y6031773D01*
X4905228Y6031981D01*
X4905089Y6032258D01*
X4904742Y6032952D01*
X4904256Y6033855D01*
X4903701Y6034896D01*
X4903077Y6036145D01*
X4902383Y6037463D01*
X4901689Y6038851D01*
Y6038921D01*
X4901619Y6038990D01*
X4901480Y6039198D01*
X4901342Y6039476D01*
X4900995Y6040239D01*
X4900578Y6041142D01*
X4900023Y6042252D01*
X4899468Y6043501D01*
X4898843Y6044820D01*
X4898219Y6046138D01*
X4898080D01*
Y6046069D01*
Y6045930D01*
Y6045722D01*
Y6045375D01*
X4898149Y6044959D01*
Y6044542D01*
Y6043362D01*
X4898219Y6042044D01*
Y6040517D01*
X4898288Y6038921D01*
Y6037255D01*
Y6037186D01*
Y6037047D01*
Y6036839D01*
Y6036492D01*
Y6036075D01*
Y6035590D01*
X4898357Y6034479D01*
Y6033161D01*
Y6031634D01*
Y6030038D01*
Y6028372D01*
Y5981527D01*
Y5981458D01*
Y5981249D01*
X4898219Y5980972D01*
X4898080Y5980694D01*
X4898010Y5980625D01*
X4897872Y5980486D01*
X4897594Y5980347D01*
X4897178Y5980139D01*
X4897108D01*
X4896761Y5980070D01*
X4896275Y5980000D01*
X4895581Y5979861D01*
X4895443D01*
X4895165Y5979792D01*
X4894887D01*
X4894124Y5979723D01*
X4893152Y5979653D01*
X4892250D01*
X4891417Y5979723D01*
X4890585Y5979861D01*
X4890446D01*
X4890029Y5979931D01*
X4889544Y5980070D01*
X4889058Y5980139D01*
X4888988Y5980208D01*
X4888780Y5980278D01*
X4888503Y5980486D01*
X4888225Y5980694D01*
Y5980764D01*
X4888156Y5980972D01*
X4888086Y5981249D01*
X4888017Y5981527D01*
Y6053148D01*
Y6053287D01*
Y6053564D01*
X4888086Y6053981D01*
X4888156Y6054466D01*
X4888364Y6055022D01*
X4888572Y6055577D01*
X4888919Y6056132D01*
X4889335Y6056548D01*
X4889405Y6056618D01*
X4889613Y6056687D01*
X4889891Y6056895D01*
X4890238Y6057104D01*
X4890654Y6057242D01*
X4891209Y6057451D01*
X4891764Y6057520D01*
X4892320Y6057589D01*
X4898010D01*
X4898427Y6057520D01*
X4899398Y6057451D01*
X4900370Y6057242D01*
X4900439D01*
X4900578Y6057173D01*
X4900786Y6057104D01*
X4901133Y6057034D01*
X4901827Y6056687D01*
X4902521Y6056271D01*
X4902591D01*
X4902660Y6056132D01*
X4903146Y6055785D01*
X4903701Y6055160D01*
X4904395Y6054328D01*
X4904465Y6054258D01*
X4904534Y6054119D01*
X4904742Y6053842D01*
X4904950Y6053495D01*
X4905228Y6053078D01*
X4905575Y6052523D01*
X4905922Y6051968D01*
X4906269Y6051274D01*
X4924452Y6017199D01*
X4924521Y6017060D01*
X4924729Y6016643D01*
X4925076Y6016088D01*
X4925493Y6015255D01*
X4925979Y6014353D01*
X4926534Y6013312D01*
X4927714Y6011091D01*
X4927783Y6010953D01*
X4927991Y6010606D01*
X4928269Y6010050D01*
X4928685Y6009287D01*
X4929171Y6008385D01*
X4929657Y6007413D01*
X4930698Y6005262D01*
X4930767Y6005123D01*
X4930975Y6004776D01*
X4931253Y6004221D01*
X4931600Y6003457D01*
X4932016Y6002625D01*
X4932502Y6001653D01*
X4933543Y5999571D01*
X4933613Y5999432D01*
X4933821Y5999085D01*
X4934098Y5998530D01*
X4934445Y5997836D01*
X4934862Y5997003D01*
X4935348Y5996032D01*
X4936389Y5994019D01*
X4936458D01*
Y5994088D01*
Y5994227D01*
Y5994505D01*
Y5994852D01*
Y5995268D01*
X4936389Y5995754D01*
Y5996379D01*
Y5997003D01*
Y5998530D01*
X4936319Y6000196D01*
Y6002000D01*
Y6003874D01*
Y6003943D01*
Y6004082D01*
Y6004360D01*
Y6004776D01*
Y6005192D01*
Y6005748D01*
Y6006372D01*
Y6007066D01*
Y6008524D01*
Y6010189D01*
Y6011924D01*
Y6013729D01*
Y6055785D01*
Y6055854D01*
Y6056063D01*
X4936389Y6056271D01*
X4936527Y6056548D01*
X4936597Y6056618D01*
X4936736Y6056757D01*
X4937013Y6056965D01*
X4937360Y6057173D01*
X4937499Y6057242D01*
X4937777Y6057312D01*
X4938332Y6057451D01*
X4938956Y6057589D01*
X4939165D01*
X4939373Y6057659D01*
X4940067D01*
X4940483Y6057728D01*
X4942357D01*
X4943120Y6057659D01*
D02*
G37*
G36*
X4990312Y6057520D02*
X4991215D01*
X4992186Y6057451D01*
X4993297Y6057381D01*
X4994546Y6057242D01*
X4995864Y6057104D01*
X4997252Y6056965D01*
X5000098Y6056479D01*
X5002943Y6055854D01*
X5004331Y6055438D01*
X5005650Y6054952D01*
X5005719D01*
X5005927Y6054813D01*
X5006344Y6054675D01*
X5006830Y6054466D01*
X5007385Y6054189D01*
X5008079Y6053842D01*
X5008842Y6053495D01*
X5009744Y6053009D01*
X5011549Y6051968D01*
X5013492Y6050649D01*
X5015435Y6049192D01*
X5017309Y6047457D01*
X5017378Y6047388D01*
X5017517Y6047249D01*
X5017795Y6046971D01*
X5018072Y6046624D01*
X5018489Y6046138D01*
X5018905Y6045583D01*
X5019460Y6044889D01*
X5019946Y6044126D01*
X5020571Y6043362D01*
X5021126Y6042460D01*
X5021751Y6041419D01*
X5022306Y6040378D01*
X5023486Y6038088D01*
X5024457Y6035590D01*
Y6035520D01*
X5024596Y6035243D01*
X5024665Y6034896D01*
X5024874Y6034340D01*
X5025012Y6033716D01*
X5025221Y6032952D01*
X5025429Y6032050D01*
X5025706Y6031009D01*
X5025915Y6029899D01*
X5026123Y6028719D01*
X5026331Y6027400D01*
X5026539Y6026082D01*
X5026678Y6024624D01*
X5026817Y6023098D01*
X5026886Y6019905D01*
Y6019766D01*
Y6019489D01*
Y6018934D01*
X5026817Y6018240D01*
Y6017337D01*
X5026747Y6016296D01*
X5026678Y6015186D01*
X5026539Y6013937D01*
X5026400Y6012618D01*
X5026262Y6011161D01*
X5025776Y6008246D01*
X5025151Y6005192D01*
X5024249Y6002278D01*
Y6002208D01*
X5024110Y6001931D01*
X5023971Y6001584D01*
X5023763Y6001028D01*
X5023486Y6000404D01*
X5023208Y5999640D01*
X5022792Y5998808D01*
X5022375Y5997905D01*
X5021265Y5995962D01*
X5020016Y5993880D01*
X5018489Y5991729D01*
X5016754Y5989786D01*
X5016684Y5989716D01*
X5016546Y5989577D01*
X5016268Y5989300D01*
X5015852Y5988953D01*
X5015366Y5988536D01*
X5014811Y5988120D01*
X5014117Y5987565D01*
X5013423Y5987010D01*
X5012520Y5986454D01*
X5011618Y5985830D01*
X5010647Y5985205D01*
X5009536Y5984581D01*
X5007177Y5983470D01*
X5004609Y5982429D01*
X5004539D01*
X5004262Y5982360D01*
X5003915Y5982221D01*
X5003360Y5982082D01*
X5002666Y5981874D01*
X5001833Y5981666D01*
X5000861Y5981458D01*
X4999820Y5981249D01*
X4998571Y5980972D01*
X4997252Y5980764D01*
X4995864Y5980555D01*
X4994338Y5980417D01*
X4992741Y5980208D01*
X4991076Y5980139D01*
X4989341Y5980000D01*
X4970880D01*
X4970603Y5980070D01*
X4970256Y5980139D01*
X4969423Y5980417D01*
X4968937Y5980625D01*
X4968451Y5980902D01*
X4968382Y5980972D01*
X4968243Y5981111D01*
X4968104Y5981319D01*
X4967896Y5981666D01*
X4967619Y5982082D01*
X4967480Y5982637D01*
X4967341Y5983331D01*
X4967272Y5984164D01*
Y6053356D01*
Y6053495D01*
Y6053772D01*
X4967341Y6054119D01*
X4967410Y6054675D01*
X4967549Y6055160D01*
X4967757Y6055716D01*
X4968035Y6056201D01*
X4968451Y6056618D01*
X4968521Y6056687D01*
X4968660Y6056757D01*
X4968937Y6056895D01*
X4969284Y6057104D01*
X4970117Y6057451D01*
X4970603Y6057520D01*
X4971089Y6057589D01*
X4989618D01*
X4990312Y6057520D01*
D02*
G37*
G36*
X4709242Y6058006D02*
X4710006Y6057936D01*
X4710145D01*
X4710561Y6057867D01*
X4711047Y6057728D01*
X4711463Y6057589D01*
X4711533Y6057520D01*
X4711741Y6057450D01*
X4712018Y6057242D01*
X4712227Y6057034D01*
X4712296Y6056965D01*
X4712365Y6056826D01*
X4712435Y6056618D01*
Y6056340D01*
Y5988259D01*
X4726662D01*
X4726939Y5988120D01*
X4727286Y5987981D01*
X4727356Y5987912D01*
X4727564Y5987773D01*
X4727772Y5987495D01*
X4727980Y5987148D01*
X4728050Y5987079D01*
X4728119Y5986801D01*
X4728258Y5986385D01*
X4728397Y5985899D01*
X4728466Y5985760D01*
X4728536Y5985413D01*
X4728605Y5984789D01*
Y5984025D01*
Y5983956D01*
Y5983817D01*
Y5983609D01*
Y5983401D01*
X4728536Y5982707D01*
X4728397Y5982082D01*
Y5981943D01*
X4728258Y5981666D01*
X4728119Y5981249D01*
X4727911Y5980833D01*
X4727842Y5980764D01*
X4727703Y5980625D01*
X4727495Y5980417D01*
X4727217Y5980208D01*
X4727148D01*
X4726939Y5980139D01*
X4726662Y5980069D01*
X4726384Y5980000D01*
X4685646D01*
X4685369Y5980069D01*
X4685091Y5980208D01*
X4685022Y5980278D01*
X4684883Y5980347D01*
X4684675Y5980555D01*
X4684397Y5980833D01*
X4684328Y5980902D01*
X4684258Y5981180D01*
X4684050Y5981596D01*
X4683911Y5982082D01*
Y5982151D01*
Y5982221D01*
X4683842Y5982637D01*
X4683773Y5983262D01*
Y5984025D01*
Y5984095D01*
Y5984234D01*
Y5984442D01*
Y5984650D01*
X4683842Y5985275D01*
X4683911Y5985899D01*
Y5985968D01*
X4683981Y5986038D01*
X4684050Y5986315D01*
X4684189Y5986732D01*
X4684328Y5987148D01*
X4684397Y5987218D01*
X4684536Y5987495D01*
X4684744Y5987703D01*
X4685022Y5987981D01*
X4685091Y5988051D01*
X4685299Y5988120D01*
X4685577Y5988189D01*
X4685924Y5988259D01*
X4702094D01*
Y6047249D01*
X4687034Y6038296D01*
X4686965D01*
X4686826Y6038227D01*
X4686410Y6037949D01*
X4685785Y6037741D01*
X4685230Y6037533D01*
X4684814D01*
X4684467Y6037602D01*
X4684120Y6037810D01*
X4684050Y6037880D01*
X4683911Y6038157D01*
X4683703Y6038574D01*
X4683564Y6039129D01*
Y6039198D01*
Y6039268D01*
X4683495Y6039476D01*
Y6039753D01*
X4683426Y6040448D01*
Y6041350D01*
Y6041419D01*
Y6041558D01*
Y6041974D01*
Y6042529D01*
X4683495Y6043085D01*
Y6043154D01*
Y6043224D01*
X4683564Y6043501D01*
X4683634Y6043917D01*
X4683703Y6044334D01*
X4683773Y6044403D01*
X4683842Y6044611D01*
X4684258Y6045167D01*
X4684328Y6045236D01*
X4684536Y6045375D01*
X4684814Y6045583D01*
X4685161Y6045861D01*
X4702996Y6057312D01*
X4703066Y6057381D01*
X4703205Y6057450D01*
X4703621Y6057589D01*
X4703690D01*
X4703899Y6057659D01*
X4704176Y6057797D01*
X4704523Y6057867D01*
X4704593D01*
X4704870Y6057936D01*
X4705287Y6058006D01*
X4705911D01*
X4706258Y6058075D01*
X4708410D01*
X4709242Y6058006D01*
D02*
G37*
G36*
X4490841Y6038088D02*
X4491465D01*
X4492090Y6038019D01*
X4492784D01*
X4494380Y6037810D01*
X4495976Y6037602D01*
X4497642Y6037255D01*
X4499238Y6036839D01*
X4499307D01*
X4499446Y6036769D01*
X4499654Y6036700D01*
X4499932Y6036561D01*
X4500695Y6036283D01*
X4501598Y6035867D01*
X4502639Y6035312D01*
X4503749Y6034618D01*
X4504859Y6033855D01*
X4505831Y6032952D01*
X4505970Y6032814D01*
X4506247Y6032467D01*
X4506733Y6031911D01*
X4507288Y6031217D01*
X4507844Y6030246D01*
X4508468Y6029205D01*
X4509023Y6027956D01*
X4509509Y6026568D01*
Y6026498D01*
X4509579Y6026429D01*
X4509648Y6026221D01*
X4509717Y6025873D01*
X4509787Y6025526D01*
X4509856Y6025110D01*
X4510134Y6024069D01*
X4510342Y6022820D01*
X4510481Y6021293D01*
X4510620Y6019627D01*
X4510689Y6017823D01*
Y5981388D01*
Y5981249D01*
X4510620Y5980972D01*
X4510481Y5980625D01*
X4510203Y5980347D01*
X4510134Y5980278D01*
X4509856Y5980139D01*
X4509440Y5980000D01*
X4508815Y5979861D01*
X4508676D01*
X4508468Y5979792D01*
X4508191D01*
X4507844Y5979722D01*
X4507427D01*
X4506941Y5979653D01*
X4505484D01*
X4504721Y5979722D01*
X4503888Y5979861D01*
X4503749D01*
X4503402Y5980000D01*
X4502986Y5980139D01*
X4502569Y5980347D01*
X4502500Y5980417D01*
X4502361Y5980625D01*
X4502222Y5980902D01*
X4502153Y5981388D01*
Y5986801D01*
X4502083Y5986732D01*
X4502014Y5986663D01*
X4501806Y5986454D01*
X4501528Y5986177D01*
X4500834Y5985483D01*
X4499863Y5984650D01*
X4498683Y5983748D01*
X4497295Y5982776D01*
X4495837Y5981805D01*
X4494241Y5980972D01*
X4494172D01*
X4494033Y5980902D01*
X4493825Y5980764D01*
X4493478Y5980625D01*
X4493131Y5980486D01*
X4492645Y5980347D01*
X4491465Y5979931D01*
X4490147Y5979584D01*
X4488550Y5979237D01*
X4486885Y5978959D01*
X4485080Y5978890D01*
X4484386D01*
X4483970Y5978959D01*
X4483554D01*
X4482513Y5979029D01*
X4481263Y5979167D01*
X4480014Y5979376D01*
X4478626Y5979653D01*
X4477308Y5980000D01*
X4477238D01*
X4477169Y5980069D01*
X4476752Y5980208D01*
X4476128Y5980417D01*
X4475295Y5980764D01*
X4474393Y5981249D01*
X4473421Y5981735D01*
X4472450Y5982360D01*
X4471478Y5983123D01*
X4471339Y5983193D01*
X4471062Y5983539D01*
X4470645Y5983956D01*
X4470090Y5984581D01*
X4469465Y5985344D01*
X4468841Y5986246D01*
X4468286Y5987218D01*
X4467730Y5988328D01*
Y5988398D01*
X4467661Y5988467D01*
X4467522Y5988883D01*
X4467314Y5989508D01*
X4467106Y5990341D01*
X4466828Y5991382D01*
X4466620Y5992561D01*
X4466481Y5993880D01*
X4466412Y5995268D01*
Y5995337D01*
Y5995476D01*
Y5995685D01*
Y5996032D01*
X4466481Y5996448D01*
Y5996864D01*
X4466620Y5997975D01*
X4466828Y5999224D01*
X4467175Y6000542D01*
X4467592Y6001861D01*
X4468216Y6003180D01*
Y6003249D01*
X4468286Y6003319D01*
X4468563Y6003735D01*
X4468980Y6004359D01*
X4469604Y6005192D01*
X4470368Y6006025D01*
X4471270Y6006997D01*
X4472311Y6007899D01*
X4473560Y6008801D01*
X4473629D01*
X4473699Y6008870D01*
X4473907Y6009009D01*
X4474185Y6009148D01*
X4474532Y6009356D01*
X4474948Y6009565D01*
X4475920Y6010050D01*
X4477169Y6010605D01*
X4478626Y6011161D01*
X4480222Y6011646D01*
X4482027Y6012132D01*
X4482096D01*
X4482235Y6012202D01*
X4482513Y6012271D01*
X4482929Y6012341D01*
X4483415Y6012410D01*
X4483970Y6012479D01*
X4484595Y6012618D01*
X4485358Y6012688D01*
X4486191Y6012826D01*
X4487024Y6012896D01*
X4488967Y6013104D01*
X4491118Y6013173D01*
X4493408Y6013243D01*
X4500834D01*
Y6017407D01*
Y6017476D01*
Y6017546D01*
Y6017962D01*
Y6018517D01*
X4500765Y6019280D01*
X4500695Y6020113D01*
X4500557Y6021016D01*
X4500348Y6021987D01*
X4500140Y6022889D01*
Y6023028D01*
X4500001Y6023306D01*
X4499863Y6023722D01*
X4499654Y6024277D01*
X4499377Y6024902D01*
X4498960Y6025596D01*
X4498544Y6026221D01*
X4497989Y6026845D01*
X4497919Y6026914D01*
X4497711Y6027123D01*
X4497434Y6027400D01*
X4496948Y6027747D01*
X4496393Y6028164D01*
X4495768Y6028580D01*
X4495005Y6028927D01*
X4494172Y6029274D01*
X4494102Y6029343D01*
X4493755Y6029413D01*
X4493270Y6029552D01*
X4492576Y6029690D01*
X4491812Y6029829D01*
X4490841Y6029968D01*
X4489730Y6030107D01*
X4487856D01*
X4487162Y6030038D01*
X4486260Y6029968D01*
X4485289Y6029899D01*
X4484178Y6029760D01*
X4482998Y6029482D01*
X4481888Y6029205D01*
X4481749Y6029135D01*
X4481402Y6029066D01*
X4480847Y6028858D01*
X4480222Y6028650D01*
X4479390Y6028372D01*
X4478557Y6028025D01*
X4476822Y6027261D01*
X4476752Y6027192D01*
X4476475Y6027123D01*
X4476058Y6026914D01*
X4475573Y6026637D01*
X4474948Y6026359D01*
X4474393Y6026012D01*
X4473144Y6025388D01*
X4473074D01*
X4472935Y6025249D01*
X4472658Y6025110D01*
X4472311Y6024971D01*
X4471617Y6024694D01*
X4471270Y6024624D01*
X4470992Y6024555D01*
X4470715D01*
X4470437Y6024624D01*
X4470159Y6024763D01*
X4470090Y6024833D01*
X4469951Y6024902D01*
X4469743Y6025180D01*
X4469535Y6025457D01*
X4469465Y6025526D01*
X4469396Y6025804D01*
X4469257Y6026221D01*
X4469118Y6026706D01*
Y6026776D01*
Y6026845D01*
Y6027192D01*
X4469049Y6027747D01*
Y6028372D01*
Y6028441D01*
Y6028650D01*
Y6028858D01*
Y6029205D01*
X4469118Y6029968D01*
X4469257Y6030662D01*
Y6030731D01*
X4469327Y6030801D01*
X4469465Y6031217D01*
X4469743Y6031773D01*
X4470229Y6032328D01*
X4470298Y6032397D01*
X4470368Y6032467D01*
X4470576Y6032675D01*
X4470923Y6032883D01*
X4471270Y6033160D01*
X4471756Y6033438D01*
X4472311Y6033855D01*
X4473005Y6034202D01*
X4473074Y6034271D01*
X4473352Y6034410D01*
X4473768Y6034548D01*
X4474323Y6034826D01*
X4475017Y6035104D01*
X4475781Y6035451D01*
X4476683Y6035728D01*
X4477585Y6036075D01*
X4477724Y6036145D01*
X4478071Y6036214D01*
X4478557Y6036422D01*
X4479251Y6036631D01*
X4480084Y6036839D01*
X4481055Y6037047D01*
X4482096Y6037324D01*
X4483207Y6037533D01*
X4483345D01*
X4483762Y6037602D01*
X4484317Y6037741D01*
X4485150Y6037880D01*
X4486052Y6037949D01*
X4487093Y6038088D01*
X4488203Y6038157D01*
X4490355D01*
X4490841Y6038088D01*
D02*
G37*
G36*
X4448507Y6063419D02*
X4449270Y6063350D01*
X4449409D01*
X4449825Y6063280D01*
X4450311Y6063141D01*
X4450797Y6062933D01*
X4450866Y6062864D01*
X4451074Y6062794D01*
X4451352Y6062586D01*
X4451560Y6062378D01*
X4451630Y6062309D01*
X4451699Y6062170D01*
X4451768Y6061892D01*
X4451838Y6061545D01*
Y5981458D01*
Y5981388D01*
Y5981180D01*
X4451699Y5980902D01*
X4451560Y5980625D01*
X4451491Y5980555D01*
X4451421Y5980486D01*
X4451144Y5980278D01*
X4450797Y5980139D01*
X4450727D01*
X4450380Y5980000D01*
X4449895Y5979931D01*
X4449270Y5979792D01*
X4449131D01*
X4448854Y5979722D01*
X4448576D01*
X4447813Y5979653D01*
X4446008D01*
X4445175Y5979722D01*
X4444412Y5979792D01*
X4444273D01*
X4443857Y5979861D01*
X4443371Y5980000D01*
X4442885Y5980139D01*
X4442816Y5980208D01*
X4442608Y5980278D01*
X4442330Y5980417D01*
X4442122Y5980625D01*
Y5980694D01*
X4442052Y5980833D01*
X4441983Y5981110D01*
X4441914Y5981458D01*
Y6061545D01*
Y6061614D01*
Y6061823D01*
X4441983Y6062100D01*
X4442122Y6062378D01*
X4442191Y6062447D01*
X4442330Y6062586D01*
X4442538Y6062794D01*
X4442885Y6062933D01*
X4443024Y6063002D01*
X4443302Y6063072D01*
X4443787Y6063211D01*
X4444412Y6063350D01*
X4444620D01*
X4444828Y6063419D01*
X4445106D01*
X4445869Y6063488D01*
X4447674D01*
X4448507Y6063419D01*
D02*
G37*
G36*
X4402633Y6057520D02*
X4403397Y6057450D01*
X4405132Y6057312D01*
X4405270D01*
X4405548Y6057242D01*
X4406034D01*
X4406658Y6057104D01*
X4407491Y6057034D01*
X4408393Y6056826D01*
X4409434Y6056618D01*
X4410545Y6056409D01*
X4410684D01*
X4411100Y6056271D01*
X4411725Y6056132D01*
X4412557Y6055854D01*
X4413529Y6055507D01*
X4414639Y6055091D01*
X4415819Y6054536D01*
X4416999Y6053842D01*
X4417068D01*
X4417138Y6053772D01*
X4417554Y6053495D01*
X4418179Y6053078D01*
X4418942Y6052592D01*
X4419775Y6051899D01*
X4420747Y6051066D01*
X4421649Y6050163D01*
X4422551Y6049192D01*
X4422620Y6049053D01*
X4422898Y6048706D01*
X4423314Y6048151D01*
X4423870Y6047387D01*
X4424425Y6046416D01*
X4424980Y6045375D01*
X4425605Y6044126D01*
X4426090Y6042807D01*
Y6042738D01*
X4426160Y6042668D01*
X4426229Y6042460D01*
X4426299Y6042182D01*
X4426507Y6041419D01*
X4426715Y6040448D01*
X4426923Y6039268D01*
X4427131Y6037949D01*
X4427270Y6036422D01*
X4427340Y6034826D01*
Y6034757D01*
Y6034548D01*
Y6034271D01*
Y6033855D01*
X4427270Y6033299D01*
Y6032744D01*
X4427201Y6032050D01*
X4427131Y6031356D01*
X4426854Y6029690D01*
X4426507Y6027886D01*
X4426021Y6026082D01*
X4425396Y6024277D01*
Y6024208D01*
X4425327Y6024069D01*
X4425188Y6023861D01*
X4425049Y6023514D01*
X4424841Y6023097D01*
X4424564Y6022612D01*
X4424008Y6021571D01*
X4423176Y6020322D01*
X4422204Y6018934D01*
X4421094Y6017615D01*
X4419844Y6016296D01*
X4419775Y6016227D01*
X4419706Y6016158D01*
X4419497Y6016019D01*
X4419220Y6015741D01*
X4418873Y6015463D01*
X4418456Y6015186D01*
X4417415Y6014422D01*
X4416166Y6013659D01*
X4414639Y6012757D01*
X4412974Y6011993D01*
X4411100Y6011230D01*
X4411031D01*
X4410892Y6011161D01*
X4410614Y6011091D01*
X4410198Y6010953D01*
X4409712Y6010814D01*
X4409087Y6010675D01*
X4408393Y6010536D01*
X4407630Y6010397D01*
X4406797Y6010189D01*
X4405826Y6010050D01*
X4404785Y6009912D01*
X4403744Y6009773D01*
X4401384Y6009565D01*
X4398747Y6009495D01*
X4390002D01*
Y5981527D01*
Y5981458D01*
Y5981249D01*
X4389864Y5980972D01*
X4389725Y5980694D01*
X4389655Y5980625D01*
X4389517Y5980486D01*
X4389239Y5980347D01*
X4388823Y5980139D01*
X4388753D01*
X4388406Y5980069D01*
X4387920Y5980000D01*
X4387296Y5979861D01*
X4387157D01*
X4386879Y5979792D01*
X4386602D01*
X4386255Y5979722D01*
X4385838D01*
X4384797Y5979653D01*
X4383895D01*
X4383132Y5979722D01*
X4382299Y5979861D01*
X4382160D01*
X4381744Y5979931D01*
X4381189Y5980069D01*
X4380703Y5980139D01*
X4380633Y5980208D01*
X4380356Y5980278D01*
X4380078Y5980486D01*
X4379870Y5980694D01*
Y5980764D01*
X4379801Y5980902D01*
X4379731Y5981180D01*
X4379662Y5981527D01*
Y6053148D01*
Y6053287D01*
Y6053564D01*
X4379731Y6053980D01*
X4379801Y6054466D01*
X4379939Y6055021D01*
X4380217Y6055577D01*
X4380495Y6056132D01*
X4380911Y6056548D01*
X4380980Y6056618D01*
X4381119Y6056687D01*
X4381397Y6056895D01*
X4381744Y6057104D01*
X4382160Y6057242D01*
X4382646Y6057450D01*
X4383132Y6057520D01*
X4383687Y6057589D01*
X4401870D01*
X4402633Y6057520D01*
D02*
G37*
G36*
X4329139Y6063419D02*
X4329902Y6063350D01*
X4330041D01*
X4330457Y6063280D01*
X4330943Y6063141D01*
X4331429Y6062933D01*
X4331498Y6062864D01*
X4331706Y6062794D01*
X4331984Y6062586D01*
X4332192Y6062378D01*
X4332262Y6062309D01*
X4332331Y6062170D01*
X4332400Y6061892D01*
X4332470Y6061545D01*
Y5981458D01*
Y5981388D01*
Y5981180D01*
X4332331Y5980902D01*
X4332192Y5980625D01*
X4332123Y5980555D01*
X4332053Y5980486D01*
X4331776Y5980278D01*
X4331429Y5980139D01*
X4331359D01*
X4331012Y5980000D01*
X4330527Y5979931D01*
X4329902Y5979792D01*
X4329763D01*
X4329486Y5979722D01*
X4329208D01*
X4328445Y5979653D01*
X4326640D01*
X4325807Y5979722D01*
X4325044Y5979792D01*
X4324905D01*
X4324489Y5979861D01*
X4324003Y5980000D01*
X4323517Y5980139D01*
X4323448Y5980208D01*
X4323240Y5980278D01*
X4322962Y5980417D01*
X4322754Y5980625D01*
Y5980694D01*
X4322684Y5980833D01*
X4322615Y5981110D01*
X4322546Y5981458D01*
Y6061545D01*
Y6061614D01*
Y6061823D01*
X4322615Y6062100D01*
X4322754Y6062378D01*
X4322823Y6062447D01*
X4322962Y6062586D01*
X4323170Y6062794D01*
X4323517Y6062933D01*
X4323656Y6063002D01*
X4323934Y6063072D01*
X4324419Y6063211D01*
X4325044Y6063350D01*
X4325252D01*
X4325460Y6063419D01*
X4325738D01*
X4326501Y6063488D01*
X4328306D01*
X4329139Y6063419D01*
D02*
G37*
G36*
X4284514Y6038088D02*
X4285139D01*
X4285764Y6038019D01*
X4286458D01*
X4288054Y6037810D01*
X4289650Y6037602D01*
X4291316Y6037255D01*
X4292912Y6036839D01*
X4292981D01*
X4293120Y6036769D01*
X4293328Y6036700D01*
X4293606Y6036561D01*
X4294369Y6036283D01*
X4295271Y6035867D01*
X4296312Y6035312D01*
X4297423Y6034618D01*
X4298533Y6033855D01*
X4299505Y6032952D01*
X4299644Y6032814D01*
X4299921Y6032467D01*
X4300407Y6031911D01*
X4300962Y6031217D01*
X4301517Y6030246D01*
X4302142Y6029205D01*
X4302697Y6027956D01*
X4303183Y6026568D01*
Y6026498D01*
X4303252Y6026429D01*
X4303322Y6026221D01*
X4303391Y6025873D01*
X4303461Y6025526D01*
X4303530Y6025110D01*
X4303808Y6024069D01*
X4304016Y6022820D01*
X4304155Y6021293D01*
X4304293Y6019627D01*
X4304363Y6017823D01*
Y5981388D01*
Y5981249D01*
X4304293Y5980972D01*
X4304155Y5980625D01*
X4303877Y5980347D01*
X4303808Y5980278D01*
X4303530Y5980139D01*
X4303114Y5980000D01*
X4302489Y5979861D01*
X4302350D01*
X4302142Y5979792D01*
X4301864D01*
X4301517Y5979722D01*
X4301101D01*
X4300615Y5979653D01*
X4299158D01*
X4298394Y5979722D01*
X4297562Y5979861D01*
X4297423D01*
X4297076Y5980000D01*
X4296659Y5980139D01*
X4296243Y5980347D01*
X4296174Y5980417D01*
X4296035Y5980625D01*
X4295896Y5980902D01*
X4295827Y5981388D01*
Y5986801D01*
X4295757Y5986732D01*
X4295688Y5986663D01*
X4295480Y5986454D01*
X4295202Y5986177D01*
X4294508Y5985483D01*
X4293536Y5984650D01*
X4292357Y5983748D01*
X4290969Y5982776D01*
X4289511Y5981805D01*
X4287915Y5980972D01*
X4287846D01*
X4287707Y5980902D01*
X4287499Y5980764D01*
X4287152Y5980625D01*
X4286805Y5980486D01*
X4286319Y5980347D01*
X4285139Y5979931D01*
X4283820Y5979584D01*
X4282224Y5979237D01*
X4280559Y5978959D01*
X4278754Y5978890D01*
X4278060D01*
X4277644Y5978959D01*
X4277227D01*
X4276186Y5979029D01*
X4274937Y5979167D01*
X4273688Y5979376D01*
X4272300Y5979653D01*
X4270981Y5980000D01*
X4270912D01*
X4270843Y5980069D01*
X4270426Y5980208D01*
X4269802Y5980417D01*
X4268969Y5980764D01*
X4268067Y5981249D01*
X4267095Y5981735D01*
X4266123Y5982360D01*
X4265152Y5983123D01*
X4265013Y5983193D01*
X4264735Y5983539D01*
X4264319Y5983956D01*
X4263764Y5984581D01*
X4263139Y5985344D01*
X4262515Y5986246D01*
X4261959Y5987218D01*
X4261404Y5988328D01*
Y5988398D01*
X4261335Y5988467D01*
X4261196Y5988883D01*
X4260988Y5989508D01*
X4260780Y5990341D01*
X4260502Y5991382D01*
X4260294Y5992561D01*
X4260155Y5993880D01*
X4260086Y5995268D01*
Y5995337D01*
Y5995476D01*
Y5995685D01*
Y5996032D01*
X4260155Y5996448D01*
Y5996864D01*
X4260294Y5997975D01*
X4260502Y5999224D01*
X4260849Y6000542D01*
X4261265Y6001861D01*
X4261890Y6003180D01*
Y6003249D01*
X4261959Y6003319D01*
X4262237Y6003735D01*
X4262653Y6004359D01*
X4263278Y6005192D01*
X4264041Y6006025D01*
X4264944Y6006997D01*
X4265985Y6007899D01*
X4267234Y6008801D01*
X4267303D01*
X4267373Y6008870D01*
X4267581Y6009009D01*
X4267858Y6009148D01*
X4268205Y6009356D01*
X4268622Y6009565D01*
X4269593Y6010050D01*
X4270843Y6010605D01*
X4272300Y6011161D01*
X4273896Y6011646D01*
X4275701Y6012132D01*
X4275770D01*
X4275909Y6012202D01*
X4276186Y6012271D01*
X4276603Y6012341D01*
X4277089Y6012410D01*
X4277644Y6012479D01*
X4278268Y6012618D01*
X4279032Y6012688D01*
X4279865Y6012826D01*
X4280697Y6012896D01*
X4282641Y6013104D01*
X4284792Y6013173D01*
X4287082Y6013243D01*
X4294508D01*
Y6017407D01*
Y6017476D01*
Y6017546D01*
Y6017962D01*
Y6018517D01*
X4294439Y6019280D01*
X4294369Y6020113D01*
X4294230Y6021016D01*
X4294022Y6021987D01*
X4293814Y6022889D01*
Y6023028D01*
X4293675Y6023306D01*
X4293536Y6023722D01*
X4293328Y6024277D01*
X4293051Y6024902D01*
X4292634Y6025596D01*
X4292218Y6026221D01*
X4291663Y6026845D01*
X4291593Y6026914D01*
X4291385Y6027123D01*
X4291107Y6027400D01*
X4290622Y6027747D01*
X4290066Y6028164D01*
X4289442Y6028580D01*
X4288678Y6028927D01*
X4287846Y6029274D01*
X4287776Y6029343D01*
X4287429Y6029413D01*
X4286943Y6029552D01*
X4286249Y6029690D01*
X4285486Y6029829D01*
X4284514Y6029968D01*
X4283404Y6030107D01*
X4281530D01*
X4280836Y6030038D01*
X4279934Y6029968D01*
X4278962Y6029899D01*
X4277852Y6029760D01*
X4276672Y6029482D01*
X4275562Y6029205D01*
X4275423Y6029135D01*
X4275076Y6029066D01*
X4274521Y6028858D01*
X4273896Y6028650D01*
X4273063Y6028372D01*
X4272231Y6028025D01*
X4270496Y6027261D01*
X4270426Y6027192D01*
X4270149Y6027123D01*
X4269732Y6026914D01*
X4269246Y6026637D01*
X4268622Y6026359D01*
X4268067Y6026012D01*
X4266817Y6025388D01*
X4266748D01*
X4266609Y6025249D01*
X4266332Y6025110D01*
X4265985Y6024971D01*
X4265291Y6024694D01*
X4264944Y6024624D01*
X4264666Y6024555D01*
X4264388D01*
X4264111Y6024624D01*
X4263833Y6024763D01*
X4263764Y6024833D01*
X4263625Y6024902D01*
X4263417Y6025180D01*
X4263209Y6025457D01*
X4263139Y6025526D01*
X4263070Y6025804D01*
X4262931Y6026221D01*
X4262792Y6026706D01*
Y6026776D01*
Y6026845D01*
Y6027192D01*
X4262723Y6027747D01*
Y6028372D01*
Y6028441D01*
Y6028650D01*
Y6028858D01*
Y6029205D01*
X4262792Y6029968D01*
X4262931Y6030662D01*
Y6030731D01*
X4263000Y6030801D01*
X4263139Y6031217D01*
X4263417Y6031773D01*
X4263903Y6032328D01*
X4263972Y6032397D01*
X4264041Y6032467D01*
X4264250Y6032675D01*
X4264597Y6032883D01*
X4264944Y6033160D01*
X4265429Y6033438D01*
X4265985Y6033855D01*
X4266679Y6034202D01*
X4266748Y6034271D01*
X4267026Y6034410D01*
X4267442Y6034548D01*
X4267997Y6034826D01*
X4268691Y6035104D01*
X4269455Y6035451D01*
X4270357Y6035728D01*
X4271259Y6036075D01*
X4271398Y6036145D01*
X4271745Y6036214D01*
X4272231Y6036422D01*
X4272925Y6036631D01*
X4273757Y6036839D01*
X4274729Y6037047D01*
X4275770Y6037324D01*
X4276880Y6037533D01*
X4277019D01*
X4277436Y6037602D01*
X4277991Y6037741D01*
X4278824Y6037880D01*
X4279726Y6037949D01*
X4280767Y6038088D01*
X4281877Y6038157D01*
X4284029D01*
X4284514Y6038088D01*
D02*
G37*
G36*
X3966871Y6057867D02*
X3967634Y6057728D01*
X3967773D01*
X3968189Y6057659D01*
X3968744Y6057520D01*
X3969230Y6057381D01*
X3969300Y6057312D01*
X3969577Y6057242D01*
X3969855Y6057034D01*
X3970063Y6056826D01*
X3970132Y6056756D01*
X3970202Y6056618D01*
X3970271Y6056340D01*
X3970341Y6055993D01*
Y5981527D01*
Y5981457D01*
Y5981249D01*
X3970202Y5980972D01*
X3970063Y5980694D01*
X3969994Y5980625D01*
X3969855Y5980486D01*
X3969647Y5980347D01*
X3969230Y5980139D01*
X3969091D01*
X3968814Y5980069D01*
X3968328Y5980000D01*
X3967634Y5979861D01*
X3967495D01*
X3967218Y5979792D01*
X3966940D01*
X3966593Y5979722D01*
X3966177D01*
X3965136Y5979653D01*
X3964303D01*
X3963470Y5979722D01*
X3962637Y5979861D01*
X3962498D01*
X3962082Y5979931D01*
X3961527Y5980069D01*
X3961041Y5980139D01*
X3960972Y5980208D01*
X3960694Y5980278D01*
X3960416Y5980486D01*
X3960208Y5980694D01*
Y5980763D01*
X3960139Y5980902D01*
X3960069Y5981180D01*
X3960000Y5981527D01*
Y6055993D01*
Y6056062D01*
Y6056271D01*
X3960069Y6056548D01*
X3960208Y6056826D01*
X3960278Y6056895D01*
X3960416Y6057034D01*
X3960694Y6057242D01*
X3961110Y6057381D01*
X3961249Y6057450D01*
X3961527Y6057520D01*
X3962082Y6057589D01*
X3962707Y6057728D01*
X3962776D01*
X3962915Y6057797D01*
X3963123D01*
X3963401Y6057867D01*
X3964164Y6057936D01*
X3966038D01*
X3966871Y6057867D01*
D02*
G37*
G36*
X4063198Y6051621D02*
X4063961Y6051551D01*
X4064100D01*
X4064516Y6051482D01*
X4065002Y6051343D01*
X4065488Y6051135D01*
X4065557Y6051066D01*
X4065766Y6050927D01*
X4066043Y6050788D01*
X4066251Y6050510D01*
X4066321Y6050441D01*
X4066390Y6050302D01*
X4066460Y6050025D01*
X4066529Y6049747D01*
Y6036977D01*
X4080617D01*
X4080895Y6036839D01*
X4081172Y6036700D01*
X4081242Y6036630D01*
X4081381Y6036561D01*
X4081589Y6036353D01*
X4081797Y6036006D01*
X4081866Y6035936D01*
X4081936Y6035659D01*
X4082075Y6035242D01*
X4082213Y6034687D01*
Y6034548D01*
X4082283Y6034201D01*
X4082352Y6033577D01*
Y6032813D01*
Y6032744D01*
Y6032466D01*
Y6032050D01*
X4082283Y6031634D01*
X4082144Y6030593D01*
X4082005Y6030107D01*
X4081797Y6029690D01*
Y6029621D01*
X4081728Y6029552D01*
X4081381Y6029274D01*
X4080964Y6028927D01*
X4080687Y6028858D01*
X4080340Y6028788D01*
X4066529D01*
Y5998669D01*
Y5998599D01*
Y5998460D01*
Y5998113D01*
Y5997766D01*
X4066598Y5997281D01*
Y5996795D01*
X4066737Y5995546D01*
X4066945Y5994158D01*
X4067223Y5992770D01*
X4067570Y5991451D01*
X4068125Y5990271D01*
X4068195Y5990132D01*
X4068472Y5989855D01*
X4068889Y5989369D01*
X4069513Y5988883D01*
X4070277Y5988328D01*
X4071318Y5987842D01*
X4072567Y5987565D01*
X4074024Y5987426D01*
X4074857D01*
X4075620Y5987495D01*
X4076453Y5987634D01*
X4076523D01*
X4076661Y5987703D01*
X4076870Y5987773D01*
X4077147Y5987842D01*
X4077772Y5987981D01*
X4078396Y5988189D01*
X4078466D01*
X4078535Y5988259D01*
X4078882Y5988397D01*
X4079368Y5988606D01*
X4079854Y5988814D01*
X4079993Y5988883D01*
X4080201Y5988953D01*
X4080617Y5989022D01*
X4080964Y5989091D01*
X4081172D01*
X4081311Y5989022D01*
X4081519Y5988883D01*
X4081589D01*
X4081658Y5988744D01*
X4081797Y5988606D01*
X4081936Y5988328D01*
Y5988259D01*
X4082005Y5988050D01*
X4082144Y5987703D01*
X4082213Y5987218D01*
Y5987079D01*
X4082283Y5986732D01*
X4082352Y5986177D01*
Y5985413D01*
Y5985344D01*
Y5985136D01*
Y5984789D01*
Y5984442D01*
X4082213Y5983539D01*
X4082075Y5982637D01*
Y5982568D01*
X4082005Y5982498D01*
X4081936Y5982082D01*
X4081728Y5981527D01*
X4081381Y5981110D01*
X4081311Y5981041D01*
X4081034Y5980833D01*
X4080548Y5980555D01*
X4079923Y5980278D01*
X4079854D01*
X4079784Y5980208D01*
X4079576Y5980139D01*
X4079299Y5980069D01*
X4078605Y5979861D01*
X4077702Y5979653D01*
X4077633D01*
X4077494Y5979584D01*
X4077286D01*
X4076939Y5979514D01*
X4076106Y5979306D01*
X4075135Y5979167D01*
X4074926D01*
X4074649Y5979098D01*
X4074302D01*
X4073400Y5979028D01*
X4072359Y5978959D01*
X4071665D01*
X4070832Y5979028D01*
X4069860Y5979098D01*
X4068750Y5979237D01*
X4067501Y5979375D01*
X4066321Y5979653D01*
X4065141Y5980000D01*
X4065002Y5980069D01*
X4064655Y5980208D01*
X4064100Y5980486D01*
X4063406Y5980833D01*
X4062643Y5981319D01*
X4061810Y5981874D01*
X4060977Y5982568D01*
X4060214Y5983331D01*
X4060144Y5983470D01*
X4059936Y5983748D01*
X4059589Y5984233D01*
X4059173Y5984927D01*
X4058687Y5985760D01*
X4058270Y5986732D01*
X4057785Y5987842D01*
X4057438Y5989091D01*
Y5989161D01*
Y5989230D01*
X4057368Y5989438D01*
X4057299Y5989716D01*
X4057160Y5990410D01*
X4057021Y5991382D01*
X4056882Y5992631D01*
X4056744Y5993949D01*
X4056674Y5995546D01*
X4056605Y5997211D01*
Y6028788D01*
X4048901D01*
X4048554Y6028927D01*
X4048069Y6029205D01*
X4047791Y6029413D01*
X4047583Y6029690D01*
Y6029760D01*
X4047513Y6029899D01*
X4047444Y6030107D01*
X4047375Y6030454D01*
X4047236Y6030870D01*
X4047166Y6031425D01*
X4047097Y6032050D01*
Y6032813D01*
Y6032883D01*
Y6033022D01*
Y6033230D01*
Y6033438D01*
X4047166Y6034063D01*
X4047236Y6034687D01*
Y6034757D01*
Y6034826D01*
X4047305Y6035173D01*
X4047444Y6035589D01*
X4047583Y6036006D01*
X4047652Y6036075D01*
X4047791Y6036283D01*
X4047999Y6036492D01*
X4048207Y6036700D01*
X4048277Y6036769D01*
X4048485Y6036839D01*
X4048763Y6036908D01*
X4049110Y6036977D01*
X4056605D01*
Y6049747D01*
Y6049816D01*
Y6050025D01*
X4056674Y6050233D01*
X4056813Y6050510D01*
X4056882Y6050580D01*
X4057021Y6050719D01*
X4057229Y6050927D01*
X4057576Y6051135D01*
X4057715Y6051204D01*
X4057993Y6051274D01*
X4058479Y6051413D01*
X4059103Y6051551D01*
X4059311D01*
X4059520Y6051621D01*
X4059797D01*
X4060561Y6051690D01*
X4062365D01*
X4063198Y6051621D01*
D02*
G37*
G36*
X4617218Y6038088D02*
X4617843Y6038019D01*
X4618537D01*
X4619369Y6037880D01*
X4621035Y6037672D01*
X4622839Y6037255D01*
X4624644Y6036769D01*
X4626379Y6036075D01*
X4626448D01*
X4626587Y6036006D01*
X4626795Y6035867D01*
X4627142Y6035728D01*
X4627489Y6035520D01*
X4627975Y6035243D01*
X4629016Y6034618D01*
X4630126Y6033855D01*
X4631376Y6032883D01*
X4632625Y6031842D01*
X4633735Y6030593D01*
X4633805Y6030523D01*
X4633874Y6030454D01*
X4634013Y6030246D01*
X4634221Y6029968D01*
X4634707Y6029274D01*
X4635331Y6028302D01*
X4636025Y6027053D01*
X4636719Y6025735D01*
X4637413Y6024139D01*
X4637969Y6022473D01*
Y6022404D01*
X4638038Y6022265D01*
X4638107Y6021987D01*
X4638177Y6021709D01*
X4638316Y6021224D01*
X4638385Y6020738D01*
X4638524Y6020183D01*
X4638663Y6019558D01*
X4638940Y6018031D01*
X4639148Y6016366D01*
X4639287Y6014561D01*
X4639357Y6012618D01*
Y6010814D01*
Y6010744D01*
Y6010467D01*
X4639287Y6010050D01*
X4639218Y6009495D01*
X4639079Y6008940D01*
X4638871Y6008385D01*
X4638593Y6007899D01*
X4638177Y6007483D01*
X4638107Y6007413D01*
X4637969Y6007344D01*
X4637691Y6007205D01*
X4637413Y6006997D01*
X4636997Y6006788D01*
X4636511Y6006650D01*
X4636025Y6006580D01*
X4635470Y6006511D01*
X4600007D01*
Y6006441D01*
Y6006303D01*
Y6006095D01*
Y6005748D01*
Y6005331D01*
X4600076Y6004915D01*
X4600146Y6003804D01*
X4600215Y6002555D01*
X4600423Y6001167D01*
X4600631Y5999779D01*
X4600909Y5998391D01*
Y5998322D01*
X4600978Y5998252D01*
Y5998044D01*
X4601117Y5997766D01*
X4601325Y5997142D01*
X4601603Y5996240D01*
X4602019Y5995268D01*
X4602575Y5994297D01*
X4603199Y5993186D01*
X4603893Y5992215D01*
X4603963Y5992076D01*
X4604240Y5991798D01*
X4604726Y5991312D01*
X4605351Y5990757D01*
X4606114Y5990132D01*
X4607086Y5989439D01*
X4608127Y5988814D01*
X4609306Y5988259D01*
X4609376D01*
X4609445Y5988189D01*
X4609653Y5988120D01*
X4609931Y5988051D01*
X4610625Y5987842D01*
X4611597Y5987634D01*
X4612846Y5987356D01*
X4614234Y5987148D01*
X4615830Y5987010D01*
X4617634Y5986940D01*
X4618259D01*
X4619022Y5987010D01*
X4619925D01*
X4620966Y5987079D01*
X4622145Y5987218D01*
X4623256Y5987356D01*
X4624436Y5987565D01*
X4624574D01*
X4624921Y5987703D01*
X4625546Y5987773D01*
X4626240Y5987981D01*
X4627073Y5988189D01*
X4627906Y5988398D01*
X4628808Y5988675D01*
X4629641Y5988953D01*
X4629710Y5989022D01*
X4629988Y5989092D01*
X4630404Y5989230D01*
X4630959Y5989439D01*
X4632070Y5989855D01*
X4632694Y5990132D01*
X4633249Y5990341D01*
X4633319D01*
X4633458Y5990480D01*
X4633735Y5990549D01*
X4634082Y5990688D01*
X4634776Y5990896D01*
X4635123Y5991035D01*
X4635678D01*
X4635887Y5990896D01*
X4636164Y5990757D01*
X4636234Y5990688D01*
X4636372Y5990618D01*
X4636511Y5990410D01*
X4636650Y5990132D01*
X4636719Y5990063D01*
X4636789Y5989855D01*
X4636858Y5989439D01*
X4636928Y5988953D01*
Y5988814D01*
X4636997Y5988467D01*
X4637066Y5987912D01*
Y5987148D01*
Y5987010D01*
Y5986663D01*
Y5986246D01*
X4636997Y5985760D01*
Y5985691D01*
X4636928Y5985413D01*
X4636858Y5985066D01*
X4636789Y5984719D01*
Y5984650D01*
X4636719Y5984442D01*
X4636511Y5983956D01*
X4636442Y5983886D01*
X4636372Y5983748D01*
X4635956Y5983262D01*
X4635887Y5983193D01*
X4635817Y5983123D01*
X4635609Y5983054D01*
X4635331Y5982915D01*
X4635054Y5982707D01*
X4634568Y5982498D01*
X4634013Y5982221D01*
X4633943D01*
X4633735Y5982082D01*
X4633388Y5981943D01*
X4632902Y5981735D01*
X4632278Y5981527D01*
X4631584Y5981249D01*
X4630751Y5980972D01*
X4629849Y5980694D01*
X4629710D01*
X4629363Y5980555D01*
X4628877Y5980417D01*
X4628114Y5980278D01*
X4627281Y5980069D01*
X4626240Y5979861D01*
X4625130Y5979653D01*
X4623880Y5979445D01*
X4623742D01*
X4623533Y5979376D01*
X4623325D01*
X4622631Y5979306D01*
X4621729Y5979167D01*
X4620619Y5979098D01*
X4619369Y5978959D01*
X4618051Y5978890D01*
X4615552D01*
X4614997Y5978959D01*
X4614303D01*
X4613540Y5979029D01*
X4612707Y5979098D01*
X4610903Y5979306D01*
X4608959Y5979653D01*
X4606947Y5980069D01*
X4605004Y5980694D01*
X4604934D01*
X4604795Y5980764D01*
X4604518Y5980902D01*
X4604171Y5981041D01*
X4603754Y5981249D01*
X4603269Y5981458D01*
X4602089Y5982082D01*
X4600770Y5982846D01*
X4599382Y5983817D01*
X4597925Y5984927D01*
X4596606Y5986177D01*
X4596537Y5986246D01*
X4596467Y5986315D01*
X4596259Y5986524D01*
X4596051Y5986871D01*
X4595773Y5987218D01*
X4595426Y5987634D01*
X4595079Y5988120D01*
X4594663Y5988675D01*
X4593830Y5990063D01*
X4592997Y5991590D01*
X4592165Y5993394D01*
X4591471Y5995337D01*
Y5995407D01*
X4591401Y5995615D01*
X4591332Y5995893D01*
X4591193Y5996309D01*
X4591054Y5996864D01*
X4590915Y5997489D01*
X4590777Y5998183D01*
X4590638Y5999016D01*
X4590430Y5999918D01*
X4590291Y6000959D01*
X4590152Y6002000D01*
X4590013Y6003110D01*
X4589805Y6005609D01*
X4589736Y6008246D01*
Y6008315D01*
Y6008524D01*
Y6008940D01*
Y6009426D01*
X4589805Y6010050D01*
Y6010744D01*
X4589874Y6011508D01*
X4589944Y6012410D01*
X4590152Y6014353D01*
X4590499Y6016435D01*
X4590915Y6018587D01*
X4591471Y6020738D01*
Y6020807D01*
X4591540Y6021016D01*
X4591679Y6021293D01*
X4591818Y6021640D01*
X4592026Y6022126D01*
X4592234Y6022681D01*
X4592789Y6024000D01*
X4593553Y6025457D01*
X4594455Y6027053D01*
X4595496Y6028580D01*
X4596676Y6030107D01*
X4596745Y6030176D01*
X4596814Y6030246D01*
X4597023Y6030454D01*
X4597300Y6030731D01*
X4597994Y6031426D01*
X4598966Y6032328D01*
X4600146Y6033299D01*
X4601534Y6034271D01*
X4603130Y6035243D01*
X4604865Y6036075D01*
X4604934D01*
X4605073Y6036145D01*
X4605351Y6036283D01*
X4605698Y6036422D01*
X4606183Y6036561D01*
X4606669Y6036769D01*
X4607294Y6036908D01*
X4607988Y6037116D01*
X4608751Y6037324D01*
X4609584Y6037533D01*
X4611458Y6037810D01*
X4613470Y6038088D01*
X4615622Y6038157D01*
X4616663D01*
X4617218Y6038088D01*
D02*
G37*
G36*
X4119273Y6038088D02*
X4119898Y6038018D01*
X4120592D01*
X4121424Y6037880D01*
X4123090Y6037671D01*
X4124894Y6037255D01*
X4126699Y6036769D01*
X4128434Y6036075D01*
X4128503D01*
X4128642Y6036006D01*
X4128850Y6035867D01*
X4129197Y6035728D01*
X4129544Y6035520D01*
X4130030Y6035242D01*
X4131071Y6034618D01*
X4132181Y6033854D01*
X4133431Y6032883D01*
X4134680Y6031842D01*
X4135790Y6030593D01*
X4135860Y6030523D01*
X4135929Y6030454D01*
X4136068Y6030246D01*
X4136276Y6029968D01*
X4136762Y6029274D01*
X4137386Y6028302D01*
X4138080Y6027053D01*
X4138774Y6025735D01*
X4139468Y6024138D01*
X4140024Y6022473D01*
Y6022403D01*
X4140093Y6022265D01*
X4140162Y6021987D01*
X4140232Y6021709D01*
X4140371Y6021224D01*
X4140440Y6020738D01*
X4140579Y6020183D01*
X4140718Y6019558D01*
X4140995Y6018031D01*
X4141203Y6016366D01*
X4141342Y6014561D01*
X4141412Y6012618D01*
Y6010814D01*
Y6010744D01*
Y6010467D01*
X4141342Y6010050D01*
X4141273Y6009495D01*
X4141134Y6008940D01*
X4140926Y6008385D01*
X4140648Y6007899D01*
X4140232Y6007482D01*
X4140162Y6007413D01*
X4140024Y6007344D01*
X4139746Y6007205D01*
X4139468Y6006997D01*
X4139052Y6006788D01*
X4138566Y6006650D01*
X4138080Y6006580D01*
X4137525Y6006511D01*
X4102062D01*
Y6006441D01*
Y6006303D01*
Y6006094D01*
Y6005747D01*
Y6005331D01*
X4102131Y6004915D01*
X4102201Y6003804D01*
X4102270Y6002555D01*
X4102478Y6001167D01*
X4102686Y5999779D01*
X4102964Y5998391D01*
Y5998322D01*
X4103033Y5998252D01*
Y5998044D01*
X4103172Y5997766D01*
X4103380Y5997142D01*
X4103658Y5996240D01*
X4104074Y5995268D01*
X4104630Y5994296D01*
X4105254Y5993186D01*
X4105948Y5992214D01*
X4106018Y5992076D01*
X4106295Y5991798D01*
X4106781Y5991312D01*
X4107406Y5990757D01*
X4108169Y5990132D01*
X4109141Y5989438D01*
X4110182Y5988814D01*
X4111361Y5988259D01*
X4111431D01*
X4111500Y5988189D01*
X4111708Y5988120D01*
X4111986Y5988050D01*
X4112680Y5987842D01*
X4113652Y5987634D01*
X4114901Y5987356D01*
X4116289Y5987148D01*
X4117885Y5987009D01*
X4119689Y5986940D01*
X4120314D01*
X4121077Y5987009D01*
X4121980D01*
X4123021Y5987079D01*
X4124200Y5987218D01*
X4125311Y5987356D01*
X4126491Y5987565D01*
X4126629D01*
X4126976Y5987703D01*
X4127601Y5987773D01*
X4128295Y5987981D01*
X4129128Y5988189D01*
X4129961Y5988397D01*
X4130863Y5988675D01*
X4131696Y5988953D01*
X4131765Y5989022D01*
X4132043Y5989091D01*
X4132459Y5989230D01*
X4133014Y5989438D01*
X4134125Y5989855D01*
X4134749Y5990132D01*
X4135304Y5990341D01*
X4135374D01*
X4135513Y5990479D01*
X4135790Y5990549D01*
X4136137Y5990688D01*
X4136831Y5990896D01*
X4137178Y5991035D01*
X4137733D01*
X4137942Y5990896D01*
X4138219Y5990757D01*
X4138289Y5990688D01*
X4138427Y5990618D01*
X4138566Y5990410D01*
X4138705Y5990132D01*
X4138774Y5990063D01*
X4138844Y5989855D01*
X4138913Y5989438D01*
X4138983Y5988953D01*
Y5988814D01*
X4139052Y5988467D01*
X4139121Y5987912D01*
Y5987148D01*
Y5987009D01*
Y5986662D01*
Y5986246D01*
X4139052Y5985760D01*
Y5985691D01*
X4138983Y5985413D01*
X4138913Y5985066D01*
X4138844Y5984719D01*
Y5984650D01*
X4138774Y5984442D01*
X4138566Y5983956D01*
X4138497Y5983886D01*
X4138427Y5983748D01*
X4138011Y5983262D01*
X4137942Y5983192D01*
X4137872Y5983123D01*
X4137664Y5983054D01*
X4137386Y5982915D01*
X4137109Y5982707D01*
X4136623Y5982498D01*
X4136068Y5982221D01*
X4135998D01*
X4135790Y5982082D01*
X4135443Y5981943D01*
X4134957Y5981735D01*
X4134333Y5981527D01*
X4133639Y5981249D01*
X4132806Y5980972D01*
X4131904Y5980694D01*
X4131765D01*
X4131418Y5980555D01*
X4130932Y5980416D01*
X4130169Y5980278D01*
X4129336Y5980069D01*
X4128295Y5979861D01*
X4127185Y5979653D01*
X4125935Y5979445D01*
X4125797D01*
X4125588Y5979375D01*
X4125380D01*
X4124686Y5979306D01*
X4123784Y5979167D01*
X4122674Y5979098D01*
X4121424Y5978959D01*
X4120106Y5978890D01*
X4117607D01*
X4117052Y5978959D01*
X4116358D01*
X4115595Y5979028D01*
X4114762Y5979098D01*
X4112958Y5979306D01*
X4111014Y5979653D01*
X4109002Y5980069D01*
X4107059Y5980694D01*
X4106989D01*
X4106850Y5980763D01*
X4106573Y5980902D01*
X4106226Y5981041D01*
X4105809Y5981249D01*
X4105324Y5981457D01*
X4104144Y5982082D01*
X4102825Y5982845D01*
X4101437Y5983817D01*
X4099980Y5984927D01*
X4098661Y5986177D01*
X4098592Y5986246D01*
X4098522Y5986315D01*
X4098314Y5986524D01*
X4098106Y5986871D01*
X4097828Y5987218D01*
X4097481Y5987634D01*
X4097134Y5988120D01*
X4096718Y5988675D01*
X4095885Y5990063D01*
X4095052Y5991590D01*
X4094220Y5993394D01*
X4093526Y5995337D01*
Y5995407D01*
X4093456Y5995615D01*
X4093387Y5995893D01*
X4093248Y5996309D01*
X4093109Y5996864D01*
X4092970Y5997489D01*
X4092832Y5998183D01*
X4092693Y5999016D01*
X4092485Y5999918D01*
X4092346Y6000959D01*
X4092207Y6002000D01*
X4092068Y6003110D01*
X4091860Y6005609D01*
X4091791Y6008246D01*
Y6008315D01*
Y6008523D01*
Y6008940D01*
Y6009426D01*
X4091860Y6010050D01*
Y6010744D01*
X4091929Y6011508D01*
X4091999Y6012410D01*
X4092207Y6014353D01*
X4092554Y6016435D01*
X4092970Y6018586D01*
X4093526Y6020738D01*
Y6020807D01*
X4093595Y6021015D01*
X4093734Y6021293D01*
X4093873Y6021640D01*
X4094081Y6022126D01*
X4094289Y6022681D01*
X4094844Y6024000D01*
X4095608Y6025457D01*
X4096510Y6027053D01*
X4097551Y6028580D01*
X4098731Y6030107D01*
X4098800Y6030176D01*
X4098869Y6030246D01*
X4099078Y6030454D01*
X4099355Y6030731D01*
X4100049Y6031425D01*
X4101021Y6032328D01*
X4102201Y6033299D01*
X4103589Y6034271D01*
X4105185Y6035242D01*
X4106920Y6036075D01*
X4106989D01*
X4107128Y6036145D01*
X4107406Y6036283D01*
X4107753Y6036422D01*
X4108238Y6036561D01*
X4108724Y6036769D01*
X4109349Y6036908D01*
X4110043Y6037116D01*
X4110806Y6037324D01*
X4111639Y6037533D01*
X4113513Y6037810D01*
X4115525Y6038088D01*
X4117677Y6038157D01*
X4118718D01*
X4119273Y6038088D01*
D02*
G37*
G36*
X5045277Y6065015D02*
X5045971Y6064946D01*
X5046110D01*
X5046457Y6064876D01*
X5046873Y6064807D01*
X5047290Y6064668D01*
X5047359D01*
X5047567Y6064599D01*
X5047845Y6064460D01*
X5048053Y6064321D01*
X5048123D01*
X5048192Y6064252D01*
X5048331Y6064113D01*
X5048400Y6063905D01*
X5048470Y6063766D01*
X5048678Y6063350D01*
X5049025Y6062656D01*
X5049441Y6061753D01*
X5049927Y6060643D01*
X5050552Y6059324D01*
X5051246Y6057798D01*
X5051940Y6056132D01*
X5052703Y6054328D01*
X5053466Y6052315D01*
X5054299Y6050233D01*
X5055132Y6048082D01*
X5055895Y6045791D01*
X5056659Y6043432D01*
X5058116Y6038643D01*
Y6038574D01*
X5058186Y6038504D01*
Y6038296D01*
X5058255Y6038088D01*
X5058463Y6037325D01*
X5058671Y6036422D01*
X5058949Y6035243D01*
X5059227Y6033855D01*
X5059574Y6032258D01*
X5059921Y6030454D01*
X5060198Y6028580D01*
X5060545Y6026498D01*
X5060823Y6024277D01*
X5061100Y6021987D01*
X5061309Y6019628D01*
X5061517Y6017199D01*
X5061586Y6014700D01*
X5061656Y6012202D01*
Y6012132D01*
Y6011924D01*
Y6011508D01*
Y6011022D01*
Y6010397D01*
X5061586Y6009703D01*
Y6008871D01*
X5061517Y6007968D01*
Y6006997D01*
X5061447Y6005956D01*
X5061309Y6003666D01*
X5061031Y6001237D01*
X5060753Y5998738D01*
Y5998669D01*
X5060684Y5998461D01*
Y5998114D01*
X5060615Y5997628D01*
X5060545Y5997003D01*
X5060406Y5996309D01*
X5060268Y5995546D01*
X5060129Y5994644D01*
X5059990Y5993672D01*
X5059782Y5992631D01*
X5059365Y5990480D01*
X5058810Y5988120D01*
X5058255Y5985691D01*
Y5985622D01*
X5058186Y5985413D01*
X5058116Y5985066D01*
X5057977Y5984581D01*
X5057769Y5984025D01*
X5057630Y5983331D01*
X5057353Y5982568D01*
X5057145Y5981666D01*
X5056867Y5980764D01*
X5056520Y5979723D01*
X5055826Y5977641D01*
X5055063Y5975350D01*
X5054160Y5972991D01*
Y5972921D01*
X5054022Y5972713D01*
X5053883Y5972366D01*
X5053744Y5971950D01*
X5053466Y5971325D01*
X5053189Y5970701D01*
X5052911Y5969937D01*
X5052564Y5969104D01*
X5052148Y5968202D01*
X5051731Y5967231D01*
X5050760Y5965149D01*
X5049649Y5962928D01*
X5048470Y5960638D01*
Y5960568D01*
X5048331Y5960429D01*
X5048192Y5960291D01*
X5047914Y5960082D01*
X5047845Y5960013D01*
X5047706Y5959944D01*
X5047359Y5959805D01*
X5047012Y5959666D01*
X5046943D01*
X5046665Y5959527D01*
X5046249Y5959458D01*
X5045694Y5959388D01*
X5045208D01*
X5044583Y5959319D01*
X5042918D01*
X5042154Y5959388D01*
X5041391Y5959527D01*
X5041252D01*
X5040905Y5959666D01*
X5040489Y5959805D01*
X5040072Y5960013D01*
X5040003Y5960082D01*
X5039933Y5960221D01*
X5039795Y5960499D01*
X5039725Y5960846D01*
Y5960915D01*
X5039795Y5961193D01*
X5039933Y5961540D01*
X5040072Y5962026D01*
Y5962095D01*
X5040142Y5962164D01*
X5040350Y5962581D01*
X5040627Y5963205D01*
X5040974Y5964108D01*
X5041460Y5965218D01*
X5041946Y5966537D01*
X5042571Y5967994D01*
X5043195Y5969660D01*
X5043889Y5971464D01*
X5044514Y5973407D01*
X5045208Y5975489D01*
X5045902Y5977571D01*
X5046596Y5979861D01*
X5047220Y5982082D01*
X5048400Y5986801D01*
Y5986871D01*
Y5986940D01*
X5048470Y5987148D01*
X5048539Y5987357D01*
X5048678Y5988051D01*
X5048817Y5988953D01*
X5049094Y5990133D01*
X5049302Y5991451D01*
X5049580Y5993047D01*
X5049858Y5994713D01*
X5050066Y5996587D01*
X5050343Y5998599D01*
X5050621Y6000681D01*
X5050829Y6002902D01*
X5050968Y6005192D01*
X5051107Y6007552D01*
X5051246Y6012341D01*
Y6012410D01*
Y6012479D01*
Y6012688D01*
Y6012896D01*
Y6013590D01*
X5051176Y6014561D01*
Y6015672D01*
X5051107Y6017060D01*
X5051037Y6018656D01*
X5050899Y6020322D01*
X5050760Y6022195D01*
X5050552Y6024208D01*
X5050343Y6026290D01*
X5050066Y6028511D01*
X5049719Y6030801D01*
X5049372Y6033091D01*
X5048400Y6037810D01*
Y6037880D01*
Y6037949D01*
X5048331Y6038157D01*
X5048261Y6038366D01*
X5048123Y6039060D01*
X5047914Y6039962D01*
X5047567Y6041142D01*
X5047220Y6042460D01*
X5046804Y6043987D01*
X5046318Y6045653D01*
X5045763Y6047526D01*
X5045138Y6049470D01*
X5044444Y6051482D01*
X5043681Y6053634D01*
X5041946Y6058075D01*
X5040003Y6062586D01*
X5039933Y6062656D01*
X5039864Y6062933D01*
X5039795Y6063280D01*
Y6063627D01*
Y6063697D01*
X5039864Y6063905D01*
X5040072Y6064182D01*
X5040350Y6064391D01*
X5040419Y6064460D01*
X5040697Y6064529D01*
X5041113Y6064738D01*
X5041668Y6064876D01*
X5041738D01*
X5041807Y6064946D01*
X5042015D01*
X5042293Y6065015D01*
X5042987Y6065085D01*
X5044653D01*
X5045277Y6065015D01*
D02*
G37*
G36*
X4790302Y6065015D02*
X4790996Y6064876D01*
X4791134D01*
X4791481Y6064738D01*
X4791898Y6064599D01*
X4792314Y6064391D01*
X4792384Y6064321D01*
X4792592Y6064182D01*
X4792731Y6063974D01*
X4792869Y6063627D01*
Y6063558D01*
Y6063350D01*
X4792800Y6063002D01*
X4792661Y6062586D01*
X4792592Y6062447D01*
X4792384Y6062031D01*
X4792106Y6061406D01*
X4791759Y6060504D01*
X4791273Y6059394D01*
X4790718Y6058075D01*
X4790093Y6056618D01*
X4789469Y6054952D01*
X4788775Y6053148D01*
X4788081Y6051204D01*
X4787387Y6049192D01*
X4786693Y6047041D01*
X4785999Y6044820D01*
X4785374Y6042529D01*
X4784194Y6037810D01*
Y6037672D01*
X4784125Y6037463D01*
X4784056Y6037255D01*
X4783917Y6036561D01*
X4783778Y6035659D01*
X4783570Y6034479D01*
X4783292Y6033160D01*
X4783084Y6031634D01*
X4782806Y6029899D01*
X4782529Y6028025D01*
X4782321Y6026012D01*
X4782043Y6023930D01*
X4781835Y6021709D01*
X4781696Y6019489D01*
X4781557Y6017129D01*
X4781418Y6012341D01*
Y6012271D01*
Y6012202D01*
Y6011993D01*
Y6011785D01*
Y6011091D01*
X4781488Y6010120D01*
Y6008940D01*
X4781557Y6007621D01*
X4781627Y6006025D01*
X4781765Y6004290D01*
X4781904Y6002416D01*
X4782112Y6000404D01*
X4782321Y5998322D01*
X4782598Y5996101D01*
X4782945Y5993880D01*
X4783292Y5991520D01*
X4784264Y5986801D01*
X4784333Y5986663D01*
X4784403Y5986246D01*
X4784541Y5985552D01*
X4784819Y5984650D01*
X4785097Y5983539D01*
X4785444Y5982151D01*
X4785860Y5980694D01*
X4786346Y5979029D01*
X4786901Y5977155D01*
X4787526Y5975212D01*
X4788220Y5973199D01*
X4788983Y5971047D01*
X4790649Y5966606D01*
X4792522Y5962025D01*
X4792592Y5961887D01*
X4792731Y5961609D01*
X4792800Y5961262D01*
X4792869Y5960846D01*
Y5960776D01*
Y5960568D01*
X4792731Y5960291D01*
X4792522Y5960013D01*
X4792453Y5959944D01*
X4792175Y5959805D01*
X4791759Y5959666D01*
X4791204Y5959527D01*
X4791065D01*
X4790857Y5959458D01*
X4790579D01*
X4790232Y5959388D01*
X4789885D01*
X4788844Y5959319D01*
X4787595D01*
X4786970Y5959388D01*
X4786832D01*
X4786554Y5959458D01*
X4786068Y5959527D01*
X4785652Y5959666D01*
X4785582D01*
X4785305Y5959805D01*
X4785027Y5959874D01*
X4784680Y5960082D01*
X4784611Y5960152D01*
X4784472Y5960221D01*
X4784333Y5960429D01*
X4784194Y5960637D01*
X4784125Y5960707D01*
X4784056Y5960915D01*
X4783847Y5961262D01*
X4783639Y5961678D01*
X4783362Y5962234D01*
X4783015Y5962928D01*
X4782668Y5963622D01*
X4782251Y5964454D01*
X4781835Y5965357D01*
X4781349Y5966328D01*
X4780377Y5968410D01*
X4779406Y5970700D01*
X4778434Y5972991D01*
Y5973060D01*
X4778295Y5973268D01*
X4778226Y5973615D01*
X4778018Y5974101D01*
X4777810Y5974656D01*
X4777601Y5975281D01*
X4777324Y5976044D01*
X4777046Y5976947D01*
X4776699Y5977849D01*
X4776352Y5978820D01*
X4775658Y5980972D01*
X4774964Y5983262D01*
X4774340Y5985691D01*
Y5985760D01*
X4774270Y5985968D01*
X4774201Y5986315D01*
X4774062Y5986801D01*
X4773923Y5987426D01*
X4773784Y5988051D01*
X4773576Y5988883D01*
X4773437Y5989716D01*
X4773229Y5990688D01*
X4773021Y5991729D01*
X4772605Y5993949D01*
X4772188Y5996309D01*
X4771841Y5998738D01*
Y5998807D01*
Y5999016D01*
X4771772Y5999432D01*
X4771702Y5999918D01*
X4771633Y6000473D01*
X4771564Y6001236D01*
X4771494Y6002000D01*
X4771425Y6002902D01*
X4771355Y6003874D01*
X4771286Y6004984D01*
X4771147Y6007205D01*
X4771078Y6009703D01*
X4771008Y6012202D01*
Y6012271D01*
Y6012479D01*
Y6012896D01*
Y6013382D01*
Y6013937D01*
X4771078Y6014700D01*
Y6015463D01*
X4771147Y6016366D01*
Y6017337D01*
X4771217Y6018448D01*
X4771425Y6020668D01*
X4771633Y6023097D01*
X4771911Y6025526D01*
Y6025596D01*
X4771980Y6025804D01*
Y6026151D01*
X4772049Y6026637D01*
X4772188Y6027261D01*
X4772258Y6027956D01*
X4772396Y6028788D01*
X4772605Y6029621D01*
X4772743Y6030593D01*
X4772952Y6031634D01*
X4773437Y6033855D01*
X4773923Y6036214D01*
X4774548Y6038643D01*
Y6038712D01*
X4774617Y6038921D01*
X4774756Y6039268D01*
X4774825Y6039753D01*
X4775034Y6040378D01*
X4775242Y6041072D01*
X4775450Y6041836D01*
X4775728Y6042668D01*
X4776005Y6043640D01*
X4776352Y6044611D01*
X4777046Y6046763D01*
X4777810Y6049053D01*
X4778712Y6051413D01*
Y6051482D01*
X4778851Y6051690D01*
X4778989Y6052037D01*
X4779128Y6052523D01*
X4779336Y6053078D01*
X4779614Y6053772D01*
X4779961Y6054466D01*
X4780308Y6055368D01*
X4780724Y6056271D01*
X4781141Y6057242D01*
X4782043Y6059324D01*
X4783084Y6061614D01*
X4784194Y6063905D01*
Y6063974D01*
X4784264Y6064043D01*
X4784403Y6064182D01*
X4784541Y6064321D01*
X4784611Y6064391D01*
X4784750Y6064460D01*
X4784958Y6064529D01*
X4785305Y6064668D01*
X4785374Y6064738D01*
X4785652Y6064807D01*
X4786068Y6064876D01*
X4786623Y6064946D01*
X4786762D01*
X4786970Y6065015D01*
X4787179D01*
X4787873Y6065084D01*
X4789608D01*
X4790302Y6065015D01*
D02*
G37*
%LPC*%
G36*
X4989549Y6048984D02*
X4977612D01*
Y5988606D01*
X4989410D01*
X4990035Y5988675D01*
X4990798D01*
X4991631Y5988745D01*
X4992533Y5988814D01*
X4994476Y5989022D01*
X4996558Y5989369D01*
X4998640Y5989786D01*
X5000653Y5990410D01*
X5000722D01*
X5000861Y5990480D01*
X5001139Y5990618D01*
X5001486Y5990757D01*
X5001972Y5990965D01*
X5002457Y5991174D01*
X5003637Y5991798D01*
X5005025Y5992631D01*
X5006413Y5993603D01*
X5007871Y5994782D01*
X5009189Y5996101D01*
X5009259Y5996170D01*
X5009328Y5996309D01*
X5009536Y5996517D01*
X5009744Y5996795D01*
X5010022Y5997211D01*
X5010369Y5997628D01*
X5010716Y5998183D01*
X5011132Y5998738D01*
X5011965Y6000196D01*
X5012798Y6001792D01*
X5013631Y6003666D01*
X5014325Y6005748D01*
Y6005817D01*
X5014394Y6006025D01*
X5014464Y6006303D01*
X5014602Y6006789D01*
X5014741Y6007344D01*
X5014880Y6007968D01*
X5015019Y6008732D01*
X5015227Y6009634D01*
X5015366Y6010606D01*
X5015505Y6011647D01*
X5015643Y6012757D01*
X5015782Y6013937D01*
X5015921Y6015255D01*
X5015990Y6016574D01*
X5016060Y6019419D01*
Y6019489D01*
Y6019697D01*
Y6020044D01*
Y6020460D01*
X5015990Y6021085D01*
Y6021710D01*
X5015921Y6022473D01*
X5015852Y6023236D01*
X5015643Y6025041D01*
X5015366Y6027053D01*
X5015019Y6029066D01*
X5014464Y6031148D01*
Y6031217D01*
X5014394Y6031426D01*
X5014325Y6031703D01*
X5014186Y6032050D01*
X5013978Y6032536D01*
X5013839Y6033091D01*
X5013284Y6034410D01*
X5012590Y6035867D01*
X5011757Y6037463D01*
X5010785Y6039060D01*
X5009606Y6040586D01*
X5009536Y6040656D01*
X5009467Y6040795D01*
X5009259Y6041003D01*
X5008981Y6041211D01*
X5008287Y6041974D01*
X5007315Y6042877D01*
X5006066Y6043848D01*
X5004609Y6044889D01*
X5003013Y6045861D01*
X5001139Y6046763D01*
X5001069D01*
X5000931Y6046832D01*
X5000653Y6046971D01*
X5000237Y6047110D01*
X4999751Y6047249D01*
X4999126Y6047457D01*
X4998432Y6047665D01*
X4997599Y6047873D01*
X4996697Y6048082D01*
X4995726Y6048290D01*
X4994685Y6048498D01*
X4993505Y6048637D01*
X4992256Y6048776D01*
X4990937Y6048914D01*
X4989549Y6048984D01*
D02*
G37*
G36*
X4500834Y6006095D02*
X4490910D01*
X4489938Y6006025D01*
X4488828Y6005956D01*
X4487648Y6005817D01*
X4486468Y6005609D01*
X4485289Y6005400D01*
X4485150D01*
X4484803Y6005262D01*
X4484248Y6005123D01*
X4483554Y6004915D01*
X4482790Y6004568D01*
X4481957Y6004221D01*
X4481055Y6003804D01*
X4480292Y6003319D01*
X4480222Y6003249D01*
X4479945Y6003110D01*
X4479598Y6002833D01*
X4479181Y6002416D01*
X4478765Y6001931D01*
X4478279Y6001375D01*
X4477863Y6000751D01*
X4477446Y6000057D01*
X4477377Y5999987D01*
X4477308Y5999710D01*
X4477169Y5999363D01*
X4477030Y5998807D01*
X4476822Y5998183D01*
X4476683Y5997419D01*
X4476614Y5996656D01*
X4476544Y5995754D01*
Y5995685D01*
Y5995546D01*
Y5995337D01*
X4476614Y5995060D01*
X4476683Y5994297D01*
X4476891Y5993325D01*
X4477169Y5992284D01*
X4477655Y5991104D01*
X4478279Y5990063D01*
X4479181Y5989022D01*
X4479320Y5988953D01*
X4479667Y5988675D01*
X4480292Y5988259D01*
X4481125Y5987842D01*
X4482166Y5987356D01*
X4483415Y5987010D01*
X4484942Y5986732D01*
X4486607Y5986593D01*
X4487301D01*
X4487995Y5986732D01*
X4488967Y5986871D01*
X4490077Y5987079D01*
X4491326Y5987426D01*
X4492576Y5987912D01*
X4493825Y5988536D01*
X4493894D01*
X4493964Y5988606D01*
X4494380Y5988883D01*
X4495074Y5989369D01*
X4495976Y5990063D01*
X4497017Y5990896D01*
X4498197Y5991937D01*
X4499446Y5993186D01*
X4500834Y5994574D01*
Y6006095D01*
D02*
G37*
G36*
X4399510Y6049053D02*
X4390002D01*
Y6017962D01*
X4399996D01*
X4400412Y6018031D01*
X4400898D01*
X4402009Y6018101D01*
X4403188Y6018239D01*
X4404507Y6018448D01*
X4405826Y6018725D01*
X4407005Y6019142D01*
X4407075D01*
X4407144Y6019211D01*
X4407561Y6019350D01*
X4408116Y6019627D01*
X4408810Y6019975D01*
X4409643Y6020460D01*
X4410545Y6021016D01*
X4411378Y6021640D01*
X4412210Y6022404D01*
X4412280Y6022473D01*
X4412557Y6022820D01*
X4412904Y6023236D01*
X4413390Y6023861D01*
X4413876Y6024624D01*
X4414431Y6025457D01*
X4414917Y6026498D01*
X4415403Y6027539D01*
Y6027609D01*
X4415472Y6027678D01*
X4415611Y6028094D01*
X4415750Y6028650D01*
X4415958Y6029482D01*
X4416166Y6030454D01*
X4416374Y6031495D01*
X4416444Y6032744D01*
X4416513Y6033993D01*
Y6034063D01*
Y6034202D01*
Y6034479D01*
Y6034757D01*
X4416444Y6035173D01*
Y6035659D01*
X4416305Y6036769D01*
X4416097Y6038019D01*
X4415750Y6039337D01*
X4415333Y6040656D01*
X4414709Y6041905D01*
Y6041974D01*
X4414639Y6042044D01*
X4414431Y6042460D01*
X4414015Y6043015D01*
X4413529Y6043709D01*
X4412904Y6044473D01*
X4412141Y6045236D01*
X4411308Y6045999D01*
X4410337Y6046624D01*
X4410198Y6046694D01*
X4409851Y6046902D01*
X4409365Y6047110D01*
X4408671Y6047457D01*
X4407838Y6047804D01*
X4406936Y6048082D01*
X4405964Y6048359D01*
X4404923Y6048567D01*
X4404785D01*
X4404438Y6048637D01*
X4403882Y6048706D01*
X4403188Y6048845D01*
X4402356Y6048914D01*
X4401453Y6048984D01*
X4399510Y6049053D01*
D02*
G37*
G36*
X4294508Y6006095D02*
X4284584D01*
X4283612Y6006025D01*
X4282502Y6005956D01*
X4281322Y6005817D01*
X4280142Y6005609D01*
X4278962Y6005400D01*
X4278824D01*
X4278477Y6005262D01*
X4277921Y6005123D01*
X4277227Y6004915D01*
X4276464Y6004568D01*
X4275631Y6004221D01*
X4274729Y6003804D01*
X4273966Y6003319D01*
X4273896Y6003249D01*
X4273619Y6003110D01*
X4273272Y6002833D01*
X4272855Y6002416D01*
X4272439Y6001931D01*
X4271953Y6001375D01*
X4271537Y6000751D01*
X4271120Y6000057D01*
X4271051Y5999987D01*
X4270981Y5999710D01*
X4270843Y5999363D01*
X4270704Y5998807D01*
X4270496Y5998183D01*
X4270357Y5997419D01*
X4270287Y5996656D01*
X4270218Y5995754D01*
Y5995685D01*
Y5995546D01*
Y5995337D01*
X4270287Y5995060D01*
X4270357Y5994297D01*
X4270565Y5993325D01*
X4270843Y5992284D01*
X4271328Y5991104D01*
X4271953Y5990063D01*
X4272855Y5989022D01*
X4272994Y5988953D01*
X4273341Y5988675D01*
X4273966Y5988259D01*
X4274798Y5987842D01*
X4275839Y5987356D01*
X4277089Y5987010D01*
X4278615Y5986732D01*
X4280281Y5986593D01*
X4280975D01*
X4281669Y5986732D01*
X4282641Y5986871D01*
X4283751Y5987079D01*
X4285000Y5987426D01*
X4286249Y5987912D01*
X4287499Y5988536D01*
X4287568D01*
X4287637Y5988606D01*
X4288054Y5988883D01*
X4288748Y5989369D01*
X4289650Y5990063D01*
X4290691Y5990896D01*
X4291871Y5991937D01*
X4293120Y5993186D01*
X4294508Y5994574D01*
Y6006095D01*
D02*
G37*
G36*
X4615136Y6030454D02*
X4614511D01*
X4613817Y6030385D01*
X4612985Y6030315D01*
X4611944Y6030107D01*
X4610833Y6029899D01*
X4609792Y6029552D01*
X4608682Y6029066D01*
X4608543Y6028997D01*
X4608196Y6028788D01*
X4607710Y6028511D01*
X4607086Y6028094D01*
X4606322Y6027539D01*
X4605559Y6026914D01*
X4604795Y6026221D01*
X4604032Y6025388D01*
X4603963Y6025318D01*
X4603754Y6024971D01*
X4603407Y6024485D01*
X4602991Y6023861D01*
X4602505Y6023097D01*
X4602019Y6022195D01*
X4601534Y6021154D01*
X4601117Y6020044D01*
X4601048Y6019905D01*
X4600978Y6019558D01*
X4600770Y6018934D01*
X4600562Y6018170D01*
X4600423Y6017199D01*
X4600215Y6016158D01*
X4600076Y6014978D01*
X4600007Y6013798D01*
X4629432D01*
Y6013867D01*
Y6014145D01*
Y6014561D01*
Y6015117D01*
X4629363Y6015741D01*
X4629294Y6016505D01*
X4629155Y6017337D01*
X4629016Y6018239D01*
X4628600Y6020183D01*
X4627975Y6022265D01*
X4627559Y6023236D01*
X4627073Y6024208D01*
X4626518Y6025180D01*
X4625893Y6026012D01*
X4625824Y6026082D01*
X4625754Y6026221D01*
X4625546Y6026429D01*
X4625199Y6026706D01*
X4624852Y6027053D01*
X4624366Y6027400D01*
X4623811Y6027817D01*
X4623186Y6028233D01*
X4622492Y6028650D01*
X4621660Y6029066D01*
X4620827Y6029413D01*
X4619855Y6029760D01*
X4618814Y6030038D01*
X4617634Y6030246D01*
X4616455Y6030385D01*
X4615136Y6030454D01*
D02*
G37*
G36*
X4117191Y6030454D02*
X4116566D01*
X4115872Y6030384D01*
X4115040Y6030315D01*
X4113999Y6030107D01*
X4112888Y6029899D01*
X4111847Y6029552D01*
X4110737Y6029066D01*
X4110598Y6028996D01*
X4110251Y6028788D01*
X4109765Y6028511D01*
X4109141Y6028094D01*
X4108377Y6027539D01*
X4107614Y6026914D01*
X4106850Y6026220D01*
X4106087Y6025388D01*
X4106018Y6025318D01*
X4105809Y6024971D01*
X4105462Y6024485D01*
X4105046Y6023861D01*
X4104560Y6023097D01*
X4104074Y6022195D01*
X4103589Y6021154D01*
X4103172Y6020044D01*
X4103103Y6019905D01*
X4103033Y6019558D01*
X4102825Y6018933D01*
X4102617Y6018170D01*
X4102478Y6017198D01*
X4102270Y6016157D01*
X4102131Y6014978D01*
X4102062Y6013798D01*
X4131487D01*
Y6013867D01*
Y6014145D01*
Y6014561D01*
Y6015116D01*
X4131418Y6015741D01*
X4131349Y6016504D01*
X4131210Y6017337D01*
X4131071Y6018239D01*
X4130655Y6020183D01*
X4130030Y6022265D01*
X4129614Y6023236D01*
X4129128Y6024208D01*
X4128573Y6025179D01*
X4127948Y6026012D01*
X4127879Y6026082D01*
X4127809Y6026220D01*
X4127601Y6026429D01*
X4127254Y6026706D01*
X4126907Y6027053D01*
X4126421Y6027400D01*
X4125866Y6027817D01*
X4125241Y6028233D01*
X4124547Y6028649D01*
X4123715Y6029066D01*
X4122882Y6029413D01*
X4121910Y6029760D01*
X4120869Y6030037D01*
X4119689Y6030246D01*
X4118510Y6030384D01*
X4117191Y6030454D01*
D02*
G37*
%LPD*%
D79*
X3798Y20145D02*
G03*
X4061Y19689I1862J771D01*
G01*
X10775Y10939D02*
G03*
X11147Y10568I1599J1227D01*
G01*
X19896Y3854D02*
G03*
X20352Y3591I1227J1599D01*
G01*
X20344Y3594D02*
G03*
X20360Y3587I779J1858D01*
G01*
X30541Y-630D02*
G03*
X31077Y-769I771J1862D01*
G01*
X41463Y-1992D02*
G03*
X41699Y-2006I236J2001D01*
G01*
X257442Y-2015D02*
G03*
X257443Y-2015I30J41385D01*
G01*
D02*
G03*
X298857Y39370I28J41385D01*
G01*
X1269962Y209405D02*
G03*
X1269966Y209272I2015J-1D01*
G01*
X1269793Y-53509D02*
G03*
X1270342Y-55341I1974J-407D01*
G01*
X1334354Y-119353D02*
G03*
X1334369Y-119368I1432J1417D01*
G01*
X1334362Y-119361D02*
G03*
X1335786Y-119951I1425J1425D01*
G01*
X1889403Y-120120D02*
G03*
X1890829Y-119530I1J2015D01*
G01*
X1890821Y-119538D02*
G03*
X1890836Y-119523I-1417J1432D01*
G01*
X1954785Y-55574D02*
G03*
X1954811Y-55548I-1411J1439D01*
G01*
Y-55548D02*
G03*
X1955399Y-54125I-1427J1423D01*
G01*
D02*
G03*
X1955389Y-53925I-2015J0D01*
G01*
X3349801Y1966644D02*
G03*
X3350064Y1966661I0J2015D01*
G01*
X3358252Y1967739D02*
G03*
X3358760Y1967875I-263J1998D01*
G01*
X3358752Y1967872D02*
G03*
X3358768Y1967879I-763J1865D01*
G01*
X3368941Y1972092D02*
G03*
X3368957Y1972099I-763J1865D01*
G01*
X3368950Y1972096D02*
G03*
X3369405Y1972359I-771J1862D01*
G01*
X3378155Y1979072D02*
G03*
X3378526Y1979444I-1227J1599D01*
G01*
X3385240Y1988194D02*
G03*
X3385503Y1988649I-1599J1227D01*
G01*
X3385500Y1988641D02*
G03*
X3385506Y1988658I-1858J779D01*
G01*
X3389720Y1998831D02*
G03*
X3389727Y1998847I-1858J779D01*
G01*
X3389724Y1998839D02*
G03*
X3389860Y1999347I-1862J771D01*
G01*
X3390938Y2007535D02*
G03*
X3390955Y2007798I-1998J263D01*
G01*
D02*
G03*
X3390944Y2008008I-2015J0D01*
G01*
X3390955Y4169478D02*
G03*
X3391310Y4170620I-1660J1143D01*
G01*
D02*
G03*
X3391293Y4170883I-2015J0D01*
G01*
X3389796Y4182253D02*
G03*
X3389013Y4183597I-1998J-263D01*
G01*
D02*
G03*
X3388427Y4185014I-2015J-4D01*
G01*
X3016165Y4559434D02*
G03*
X3014149Y4559941I-1429J-1421D01*
G01*
Y4559941D02*
G03*
X3012568Y4561127I-1844J-812D01*
G01*
X3001249Y4562618D02*
G03*
X2999834Y4562273I-263J-1998D01*
G01*
X2965999D02*
G03*
X2924614Y4520888I0J-41385D01*
G01*
X2810534Y4459272D02*
G03*
X2924614Y4459272I57040J0D01*
G01*
X2810534Y4520888D02*
G03*
X2769155Y4562273I-41385J0D01*
G01*
X900150Y4562418D02*
G03*
X899914Y4562404I-0J-2015D01*
G01*
X889527Y4561181D02*
G03*
X888992Y4561042I236J-2001D01*
G01*
X889000Y4561045D02*
G03*
X888984Y4561038I763J-1865D01*
G01*
X878803Y4556821D02*
G03*
X878330Y4556545I771J-1862D01*
G01*
D02*
G03*
X878319Y4556536I1244J-1585D01*
G01*
X870064Y4550012D02*
G03*
X869892Y4549859I1250J-1581D01*
G01*
D02*
G03*
X869879Y4549846I1421J-1428D01*
G01*
X621209Y4299995D02*
G03*
X621203Y4299989I1421J-1428D01*
G01*
Y4299989D02*
G03*
X609139Y4270782I29321J-29206D01*
G01*
X495058Y3990258D02*
G03*
X609139Y3990258I57040J0D01*
G01*
X495058Y4073160D02*
G03*
X441711Y4112779I-41385J0D01*
G01*
X2015Y3671527D02*
G03*
X1585Y3670885I1428J-1422D01*
G01*
D02*
G03*
X1578Y3670869I1858J-779D01*
G01*
X-329Y3666265D02*
G03*
X-465Y3665757I1862J-771D01*
G01*
X-1742Y3656062D02*
G03*
X-1654Y3655157I1998J-263D01*
G01*
X-2015Y42039D02*
G03*
X-1998Y41776I2015J-0D01*
G01*
X-558Y30842D02*
G03*
X-422Y30334I1998J263D01*
G01*
X-425Y30342D02*
G03*
X-419Y30326I1865J763D01*
G01*
X20352Y3591D02*
X20360Y3587D01*
X3389720Y1998831D02*
X3389724Y1998839D01*
X3368941Y1972092D02*
X3368950Y1972096D01*
X3385503Y1988649D02*
X3385506Y1988658D01*
X4061Y19689D02*
X10775Y10939D01*
X11147Y10568D02*
X19896Y3854D01*
X20344Y3594D02*
X20352Y3591D01*
X20360Y3587D02*
X30533Y-626D01*
X30541Y-630D01*
X31077Y-769D02*
X41463Y-1992D01*
X41699Y-2006D02*
X257443Y-2015D01*
X257442D02*
X257443D01*
X298857Y39370D02*
Y241446D01*
X1269984Y243308D01*
X1269962Y209405D02*
X1269984Y243308D01*
X1269966Y209272D02*
X1270083Y207489D01*
X1269793Y-53509D02*
X1270083Y207489D01*
X1270342Y-55341D02*
X1334354Y-119353D01*
X1334362Y-119361D02*
X1334369Y-119368D01*
X1335786Y-119951D02*
X1889403Y-120120D01*
X1890829Y-119530D02*
X1890836Y-119523D01*
X1890821Y-119538D02*
X1954813Y-55546D01*
X1954785Y-55574D02*
X1954813Y-55546D01*
X1954811Y-55548D02*
Y-55548D01*
X1955075Y1966644D02*
X1955389Y-53925D01*
X1955075Y1966644D02*
X3349801D01*
X3350064Y1966661D02*
X3358252Y1967739D01*
X3358752Y1967872D02*
X3358760Y1967875D01*
X3358768Y1967879D02*
X3368941Y1972092D01*
X3368950Y1972096D02*
X3368957Y1972099D01*
X3369405Y1972359D02*
X3378155Y1979072D01*
X3378526Y1979444D02*
X3385240Y1988194D01*
X3385500Y1988641D02*
X3385503Y1988649D01*
X3385506Y1988658D02*
X3389720Y1998831D01*
X3389724Y1998839D02*
X3389727Y1998847D01*
X3389860Y1999347D02*
X3390938Y2007535D01*
X3390944Y2008008D02*
X3390955Y4169478D01*
X3389796Y4182253D02*
X3391293Y4170883D01*
X3016165Y4559434D02*
X3388427Y4185014D01*
X3014149Y4559941D02*
Y4559941D01*
X3001249Y4562618D02*
X3012568Y4561127D01*
X2965999Y4562273D02*
X2999834D01*
X2924614Y4459272D02*
Y4520888D01*
X2810534Y4459272D02*
Y4520888D01*
X2769149Y4562273D02*
X2769155D01*
X900150Y4562418D02*
X2769149Y4562273D01*
X889527Y4561181D02*
X899914Y4562404D01*
X888992Y4561042D02*
X889000Y4561045D01*
X878811Y4556825D02*
X888984Y4561038D01*
X878803Y4556821D02*
X878811Y4556825D01*
X870070Y4550016D02*
X878319Y4556536D01*
X870064Y4550012D02*
X870070Y4550016D01*
X621209Y4299995D02*
X869879Y4549846D01*
X621203Y4299989D02*
Y4299989D01*
X609139Y3990258D02*
Y4270782D01*
X495058Y3990258D02*
Y4073160D01*
X440860Y4112270D02*
X441711Y4112779D01*
X2022Y3671534D02*
X440860Y4112270D01*
X2015Y3671527D02*
X2022Y3671534D01*
X-326Y3666273D02*
X1578Y3670869D01*
X-329Y3666265D02*
X-326Y3666273D01*
X-1742Y3656062D02*
X-465Y3665757D01*
X-2015Y42039D02*
X-1654Y3655157D01*
X-1998Y41776D02*
X-558Y30842D01*
X-425Y30342D02*
X-422Y30334D01*
X-419Y30326D02*
X3795Y20152D01*
X2938835Y4535000D02*
X3021839D01*
X875000Y4540519D02*
X2793308D01*
X3358760Y1967875D02*
X3358768Y1967879D01*
X3389720Y1998831D02*
X3389724Y1998839D01*
X3385503Y1988649D02*
X3385506Y1988658D01*
X3368941Y1972092D02*
X3368950Y1972096D01*
X3358760Y1967875D02*
X3358768Y1967879D01*
X20352Y3591D02*
X20360Y3587D01*
D80*
X1451500Y4520542D02*
X2451500D01*
X2985691Y4504399D02*
X3340000Y4150090D01*
Y2380000D02*
Y2653000D01*
Y3890000D02*
Y4150090D01*
X40000Y460000D02*
Y730000D01*
X50000Y2200000D02*
Y2475000D01*
X1920000Y320000D02*
Y500000D01*
D81*
X19219Y3649219D02*
X440000Y4070000D01*
X1947384Y2005306D02*
X3356404Y2007132D01*
X1308194Y-68338D02*
X1920000D01*
X294936Y274747D02*
X1275771D01*
D82*
X440000Y4070000D02*
X470946D01*
X3021839Y4535000D02*
X3025000Y4538161D01*
X2793308Y4540519D02*
X2795000Y4542211D01*
D83*
X1930016Y1852308D02*
Y2001662D01*
D84*
X1145000Y4005000D02*
D03*
Y4105000D02*
D03*
Y4206031D02*
D03*
X1146000Y4315000D02*
D03*
X2750000Y3600000D02*
D03*
X1200000Y3300000D02*
D03*
X2750000Y3094902D02*
D03*
X3300000Y3775461D02*
D03*
X1919160Y2275000D02*
D03*
X2750000Y4150000D02*
D03*
X2275000Y2925000D02*
D03*
X1650000Y2950000D02*
D03*
X1850000Y3700000D02*
D03*
X1600000Y4200000D02*
D03*
X1575000Y4000000D02*
D03*
X1600000Y3650000D02*
D03*
X1500000D02*
D03*
X1345000Y4394685D02*
D03*
Y4315945D02*
D03*
Y4237205D02*
D03*
Y4158465D02*
D03*
Y4079724D02*
D03*
Y4000984D02*
D03*
Y3922244D02*
D03*
Y3843504D02*
D03*
Y3764764D02*
D03*
Y3686024D02*
D03*
Y3607284D02*
D03*
X2835000Y4203920D02*
D03*
X550000Y3450000D02*
D03*
X1550000Y2100000D02*
D03*
X2200000Y3000000D02*
D03*
X2573000Y4394685D02*
D03*
Y4315945D02*
D03*
Y4237205D02*
D03*
Y4158465D02*
D03*
Y4079724D02*
D03*
Y4000984D02*
D03*
Y3922244D02*
D03*
Y3843504D02*
D03*
Y3764764D02*
D03*
Y3686024D02*
D03*
Y3607284D02*
D03*
X1850000Y4350000D02*
D03*
X1600000Y4400000D02*
D03*
D85*
X300000Y2750000D02*
D03*
X1345000Y4473425D02*
D03*
X2573000D02*
D03*
D86*
X137010Y203804D02*
D03*
D87*
X137010Y2754985D02*
D03*
Y3510890D02*
D03*
D88*
X1382104Y1411739D02*
D03*
X1582104D02*
D03*
D89*
X1782104D02*
D03*
D90*
X2940000Y4220000D02*
D03*
X808355D02*
D03*
D91*
X759728Y529000D02*
D03*
D92*
X1600000Y3468215D02*
D03*
X1457585Y3192913D02*
D03*
X1085133Y850000D02*
D03*
D93*
X1500000Y3468215D02*
D03*
X1400000D02*
D03*
X1300000D02*
D03*
X1557585Y3192913D02*
D03*
X1185133Y850000D02*
D03*
D94*
X3191155Y3259811D02*
D03*
D95*
X3191194Y3141662D02*
D03*
D96*
X3268353Y3377876D02*
D03*
Y3023545D02*
D03*
D97*
X2613691Y2630000D02*
D03*
Y2430000D02*
D03*
D98*
X2433407Y2834882D02*
D03*
X1700257Y2835000D02*
D03*
X2429470Y2226732D02*
D03*
X1696321Y2226850D02*
D03*
X964824Y2834882D02*
D03*
X960888Y2226732D02*
D03*
D99*
X2913691Y2530000D02*
D03*
D100*
X2985691D02*
D03*
D101*
X786691Y2630000D02*
D03*
Y2430000D02*
D03*
D102*
X486691Y2530000D02*
D03*
D103*
X414824Y2530000D02*
D03*
D104*
X3048704Y3330945D02*
D03*
X1600000Y4120000D02*
D03*
X1595000Y4317000D02*
D03*
X2565015Y3210015D02*
D03*
D105*
X3165194Y2116662D02*
D03*
X610194D02*
D03*
D106*
X1270000Y2470000D02*
D03*
X1608977Y251662D02*
D03*
X1109477Y2570000D02*
D03*
D107*
X2591477Y3363115D02*
D03*
X1088677Y3099515D02*
D03*
X2052165Y4067913D02*
D03*
X1920000Y3710000D02*
D03*
X1215000Y1971172D02*
D03*
X1198000Y3164000D02*
D03*
X1149000D02*
D03*
X998977Y3160015D02*
D03*
X391194Y3116662D02*
D03*
X1760000Y810000D02*
D03*
X2370640Y2695866D02*
D03*
X1837503Y2700012D02*
D03*
X1670000Y2624137D02*
D03*
X1887503Y2390000D02*
D03*
D108*
X3292776Y3675000D02*
D03*
X1457585Y3575000D02*
D03*
X1817520Y3555000D02*
D03*
X1820000Y3620000D02*
D03*
X1550000Y3570000D02*
D03*
X2670000Y4425000D02*
D03*
X1480000Y3390000D02*
D03*
X2313000Y3605000D02*
D03*
X1550000Y3764000D02*
D03*
X1553998Y3843000D02*
D03*
X2475000Y3861639D02*
D03*
X2475634Y3813597D02*
D03*
X1325000Y3400000D02*
D03*
X2262598Y3850000D02*
D03*
X2100000Y4068000D02*
D03*
X1680000Y3959343D02*
D03*
X1700257Y4000000D02*
D03*
X1720000Y4090000D02*
D03*
X1730000Y3570000D02*
D03*
X1980000Y3659887D02*
D03*
X1494003Y2380000D02*
D03*
X1660000Y529000D02*
D03*
X1825000Y1700000D02*
D03*
X1850000Y3342450D02*
D03*
X1645000Y3335000D02*
D03*
X1382104Y2080000D02*
D03*
X2116699Y3182192D02*
D03*
X2025869Y3330015D02*
D03*
X2685383Y3325000D02*
D03*
X1955865Y3332007D02*
D03*
X1743412Y3348315D02*
D03*
X1382104Y1700000D02*
D03*
X2110000Y3010000D02*
D03*
X1399409Y3145000D02*
D03*
X1430000Y2126059D02*
D03*
X1899545Y2120000D02*
D03*
X1500000Y2741903D02*
D03*
X2275000Y2830000D02*
D03*
X2138000Y2809000D02*
D03*
D109*
X1905000Y3554496D02*
D03*
X1915000Y2910000D02*
D03*
X1620000Y2670000D02*
D03*
X1176477Y3210015D02*
D03*
X889000Y3586639D02*
D03*
D110*
X1696321Y3610719D02*
D03*
Y3764984D02*
D03*
X2362898Y4155000D02*
D03*
X1743039Y4236417D02*
D03*
X2170000D02*
D03*
X1842598Y4090000D02*
D03*
X2212992Y3185715D02*
D03*
X1750000Y3116662D02*
D03*
X1270015Y3308344D02*
D03*
X1735673Y3259811D02*
D03*
X2060000Y2640000D02*
D03*
X1937503Y2530000D02*
D03*
X1670000Y2450000D02*
D03*
X1787503Y2390000D02*
D03*
X2151417Y2866777D02*
D03*
X2025869Y2350000D02*
D03*
D111*
X2630014Y3482639D02*
D03*
X2380014D02*
D03*
X1570000Y3920000D02*
D03*
X2671395Y3520000D02*
D03*
X2460000Y3519902D02*
D03*
X2530098D02*
D03*
X2600000D02*
D03*
X2311000Y3690000D02*
D03*
X2212992Y4275000D02*
D03*
X2135239Y4025000D02*
D03*
X2677179Y3825000D02*
D03*
X1185133Y3553639D02*
D03*
X2083507Y4383621D02*
D03*
X1760000Y3900000D02*
D03*
X3130014Y2732639D02*
D03*
Y2482639D02*
D03*
Y2232639D02*
D03*
X2880014Y3232639D02*
D03*
Y2232639D02*
D03*
X2630014Y3232639D02*
D03*
Y2232639D02*
D03*
X1630014Y1732639D02*
D03*
Y1482639D02*
D03*
Y1232639D02*
D03*
Y732639D02*
D03*
X1130014Y2232639D02*
D03*
Y1482639D02*
D03*
Y1232639D02*
D03*
Y982639D02*
D03*
Y732639D02*
D03*
Y482639D02*
D03*
X880014Y4232639D02*
D03*
Y1982639D02*
D03*
Y1732639D02*
D03*
Y1482639D02*
D03*
Y1232639D02*
D03*
Y982639D02*
D03*
Y732639D02*
D03*
Y482639D02*
D03*
X630014Y2482639D02*
D03*
Y2232639D02*
D03*
Y1982639D02*
D03*
Y1732639D02*
D03*
Y1482639D02*
D03*
Y1232639D02*
D03*
Y982639D02*
D03*
Y732639D02*
D03*
Y482639D02*
D03*
X380014Y3732639D02*
D03*
Y2982639D02*
D03*
Y2232639D02*
D03*
Y1982639D02*
D03*
Y1732639D02*
D03*
Y1482639D02*
D03*
Y1232639D02*
D03*
Y982639D02*
D03*
Y732639D02*
D03*
Y482639D02*
D03*
X130014Y3232639D02*
D03*
Y2482639D02*
D03*
Y2232639D02*
D03*
Y1982639D02*
D03*
Y1732639D02*
D03*
Y1482639D02*
D03*
Y1232639D02*
D03*
Y982639D02*
D03*
Y732639D02*
D03*
Y482639D02*
D03*
X1425000Y2030000D02*
D03*
X962496Y3328000D02*
D03*
Y3404000D02*
D03*
X998000Y3003000D02*
D03*
X1582104Y3080531D02*
D03*
X2670000Y3230000D02*
D03*
Y3131327D02*
D03*
X2525000Y3130000D02*
D03*
X2599693Y3131327D02*
D03*
X950000Y2970000D02*
D03*
X1047000Y3793000D02*
D03*
X1395000Y2995000D02*
D03*
X2825000Y3764984D02*
D03*
X224194Y3176662D02*
D03*
X1457585Y1525000D02*
D03*
X1425000Y1750000D02*
D03*
X2100000Y3089673D02*
D03*
X2380000Y2353583D02*
D03*
D112*
X1224672Y3756693D02*
D03*
X1720000Y1560000D02*
D03*
X1696321Y1650000D02*
D03*
X706514Y2920639D02*
D03*
X710000Y3000000D02*
D03*
D113*
X1200000Y3400000D02*
D03*
D114*
X551477Y3330015D02*
D03*
X2725000Y4459681D02*
D03*
X1406194Y250000D02*
D03*
X1825000Y251662D02*
D03*
D115*
X2970000Y3510000D02*
D03*
X2875134D02*
D03*
X2340000Y3210000D02*
D03*
X2634055Y2950000D02*
D03*
X426194Y3750000D02*
D03*
X2771477Y3510890D02*
D03*
X950000Y2700000D02*
D03*
%TF.MD5,81c5cdb900a71d36231b9232aa1c9940*%
M02*
