%TF.GenerationSoftware,Altium Limited,Altium Designer,21.6.4 (81)*%
G04 Layer_Physical_Order=3*
G04 Layer_Color=128*
%FSLAX26Y26*%
%MOIN*%
%TF.SameCoordinates,BD845C9F-3E28-4BEA-89B7-7B09B8E8D9D1*%
%TF.FilePolarity,Negative*%
%TF.FileFunction,Copper,L3,Inr,Plane*%
%TF.Part,Single*%
G01*
G75*
%TA.AperFunction,NonConductor*%
%ADD79C,0.040000*%
%ADD80C,0.100000*%
%ADD81C,0.060000*%
%ADD82C,0.010000*%
%ADD83C,0.080000*%
%TA.AperFunction,ComponentPad*%
%ADD84C,0.070000*%
G04:AMPARAMS|DCode=85|XSize=90mil|YSize=90mil|CornerRadius=0mil|HoleSize=0mil|Usage=FLASHONLY|Rotation=0.000|XOffset=0mil|YOffset=0mil|HoleType=Round|Shape=Relief|Width=20mil|Gap=10mil|Entries=4|*
%AMTHD85*
7,0,0,0.090000,0.070000,0.020000,45*
%
%ADD85THD85*%
%ADD87O,0.068000X0.335276*%
%ADD88C,0.097000*%
%ADD90O,0.115000X0.190000*%
%ADD93C,0.075433*%
G04:AMPARAMS|DCode=94|XSize=102.126mil|YSize=102.126mil|CornerRadius=0mil|HoleSize=0mil|Usage=FLASHONLY|Rotation=0.000|XOffset=0mil|YOffset=0mil|HoleType=Round|Shape=Relief|Width=20mil|Gap=10mil|Entries=4|*
%AMTHD94*
7,0,0,0.102126,0.082126,0.020000,45*
%
%ADD94THD94*%
%ADD95C,0.082126*%
%ADD96C,0.091969*%
%ADD97C,0.112000*%
%ADD98O,0.215000X0.110000*%
%ADD99O,0.068000X0.112000*%
%ADD100O,0.068000X0.364803*%
G04:AMPARAMS|DCode=101|XSize=132mil|YSize=132mil|CornerRadius=0mil|HoleSize=0mil|Usage=FLASHONLY|Rotation=0.000|XOffset=0mil|YOffset=0mil|HoleType=Round|Shape=Relief|Width=20mil|Gap=10mil|Entries=4|*
%AMTHD101*
7,0,0,0.132000,0.112000,0.020000,45*
%
%ADD101THD101*%
%AMTHOVALD103*
21,1,0.296803,0.088000,0,0,270.0*
1,1,0.088000,0.000000,0.148401*
1,1,0.088000,0.000000,-0.148401*
21,0,0.296803,0.068000,0,0,270.0*
1,0,0.068000,0.000000,0.148401*
1,0,0.068000,0.000000,-0.148401*
4,0,4,-0.007071,0.141330,-0.038184,0.172443,-0.024042,0.186585,0.007071,0.155473,-0.007071,0.141330,0.0*
4,0,4,-0.007071,-0.155473,0.024042,-0.186585,0.038184,-0.172443,0.007071,-0.141330,-0.007071,-0.155473,0.0*
4,0,4,-0.007071,0.155473,0.024042,0.186585,0.038184,0.172443,0.007071,0.141330,-0.007071,0.155473,0.0*
4,0,4,-0.007071,-0.141330,-0.038184,-0.172443,-0.024042,-0.186585,0.007071,-0.155473,-0.007071,-0.141330,0.0*
%
%ADD103THOVALD103*%

%TA.AperFunction,ViaPad*%
G04:AMPARAMS|DCode=104|XSize=88mil|YSize=88mil|CornerRadius=0mil|HoleSize=0mil|Usage=FLASHONLY|Rotation=0.000|XOffset=0mil|YOffset=0mil|HoleType=Round|Shape=Relief|Width=20mil|Gap=10mil|Entries=4|*
%AMTHD104*
7,0,0,0.088000,0.068000,0.020000,45*
%
%ADD104THD104*%
%TA.AperFunction,WasherPad*%
%ADD105O,0.315591X0.118740*%
%TA.AperFunction,ViaPad*%
%ADD106C,0.070000*%
G04:AMPARAMS|DCode=107|XSize=71mil|YSize=71mil|CornerRadius=0mil|HoleSize=0mil|Usage=FLASHONLY|Rotation=0.000|XOffset=0mil|YOffset=0mil|HoleType=Round|Shape=Relief|Width=20mil|Gap=10mil|Entries=4|*
%AMTHD107*
7,0,0,0.071000,0.051000,0.020000,45*
%
%ADD107THD107*%
%ADD108C,0.052000*%
%ADD109C,0.060000*%
%ADD110C,0.051000*%
G04:AMPARAMS|DCode=111|XSize=72mil|YSize=72mil|CornerRadius=0mil|HoleSize=0mil|Usage=FLASHONLY|Rotation=0.000|XOffset=0mil|YOffset=0mil|HoleType=Round|Shape=Relief|Width=20mil|Gap=10mil|Entries=4|*
%AMTHD111*
7,0,0,0.072000,0.052000,0.020000,45*
%
%ADD111THD111*%
G04:AMPARAMS|DCode=112|XSize=80mil|YSize=80mil|CornerRadius=0mil|HoleSize=0mil|Usage=FLASHONLY|Rotation=0.000|XOffset=0mil|YOffset=0mil|HoleType=Round|Shape=Relief|Width=20mil|Gap=10mil|Entries=4|*
%AMTHD112*
7,0,0,0.080000,0.060000,0.020000,45*
%
%ADD112THD112*%
G04:AMPARAMS|DCode=114|XSize=90mil|YSize=90mil|CornerRadius=0mil|HoleSize=0mil|Usage=FLASHONLY|Rotation=0.000|XOffset=0mil|YOffset=0mil|HoleType=Round|Shape=Relief|Width=20mil|Gap=10mil|Entries=4|*
%AMTHD114*
7,0,0,0.090000,0.070000,0.020000,45*
%
%ADD114THD114*%
%ADD115C,0.068000*%
%TA.AperFunction,NonConductor*%
%ADD116C,0.020000*%
%TA.AperFunction,ComponentPad*%
%ADD117C,0.190000*%
%AMTHOVALD118*
21,1,0.044000,0.088000,0,0,450.0*
1,1,0.088000,0.000000,-0.022000*
1,1,0.088000,0.000000,0.022000*
21,0,0.044000,0.068000,0,0,450.0*
1,0,0.068000,0.000000,-0.022000*
1,0,0.068000,0.000000,0.022000*
4,0,4,0.007071,-0.014929,0.038184,-0.046042,0.024042,-0.060184,-0.007071,-0.029071,0.007071,-0.014929,0.0*
4,0,4,0.007071,0.029071,-0.024042,0.060184,-0.038184,0.046042,-0.007071,0.014929,0.007071,0.029071,0.0*
4,0,4,0.007071,-0.029071,-0.024042,-0.060184,-0.038184,-0.046042,-0.007071,-0.014929,0.007071,-0.029071,0.0*
4,0,4,0.007071,0.014929,0.038184,0.046042,0.024042,0.060184,-0.007071,0.029071,0.007071,0.014929,0.0*
%
%ADD118THOVALD118*%

%TA.AperFunction,ViaPad*%
%ADD119C,0.064000*%
G36*
X1271653Y192913D02*
X1952756D01*
X1956693Y188976D01*
X1952756Y185039D01*
Y-66929D01*
X1275591D01*
X1271653Y-70866D01*
Y192913D01*
D02*
G37*
G36*
X4557395Y5913088D02*
X4557950D01*
X4559200Y5912949D01*
X4560588Y5912672D01*
X4562114Y5912394D01*
X4563641Y5911908D01*
X4565099Y5911283D01*
X4565168D01*
X4565237Y5911214D01*
X4565446Y5911075D01*
X4565723Y5910936D01*
X4566417Y5910520D01*
X4567250Y5910034D01*
X4568152Y5909340D01*
X4569193Y5908507D01*
X4570165Y5907536D01*
X4571067Y5906426D01*
X4571136Y5906287D01*
X4571414Y5905870D01*
X4571830Y5905246D01*
X4572316Y5904413D01*
X4572871Y5903302D01*
X4573427Y5902123D01*
X4573912Y5900735D01*
X4574329Y5899208D01*
Y5899139D01*
X4574398Y5899000D01*
Y5898792D01*
X4574468Y5898514D01*
X4574606Y5898097D01*
X4574676Y5897612D01*
X4574745Y5897056D01*
X4574884Y5896432D01*
X4575023Y5894975D01*
X4575231Y5893309D01*
X4575300Y5891435D01*
X4575370Y5889353D01*
Y5856458D01*
Y5856388D01*
Y5856180D01*
X4575231Y5855902D01*
X4575092Y5855625D01*
X4575023Y5855555D01*
X4574953Y5855486D01*
X4574676Y5855278D01*
X4574329Y5855139D01*
X4574259D01*
X4573912Y5855000D01*
X4573427Y5854931D01*
X4572802Y5854792D01*
X4572663D01*
X4572386Y5854722D01*
X4572108D01*
X4571345Y5854653D01*
X4569540D01*
X4568707Y5854722D01*
X4567944Y5854792D01*
X4567805D01*
X4567389Y5854861D01*
X4566903Y5855000D01*
X4566417Y5855139D01*
X4566348Y5855208D01*
X4566140Y5855278D01*
X4565862Y5855417D01*
X4565654Y5855625D01*
Y5855694D01*
X4565584Y5855833D01*
X4565515Y5856110D01*
X4565446Y5856458D01*
Y5888034D01*
Y5888104D01*
Y5888243D01*
Y5888451D01*
Y5888798D01*
Y5889214D01*
X4565376Y5889631D01*
Y5890741D01*
X4565237Y5891921D01*
X4565099Y5893101D01*
X4564960Y5894350D01*
X4564682Y5895460D01*
Y5895599D01*
X4564543Y5895946D01*
X4564405Y5896501D01*
X4564196Y5897126D01*
X4563849Y5897889D01*
X4563502Y5898722D01*
X4563086Y5899555D01*
X4562600Y5900318D01*
X4562531Y5900388D01*
X4562323Y5900665D01*
X4562045Y5901012D01*
X4561629Y5901498D01*
X4561143Y5901984D01*
X4560518Y5902470D01*
X4559755Y5903025D01*
X4558991Y5903441D01*
X4558922Y5903511D01*
X4558644Y5903650D01*
X4558159Y5903788D01*
X4557534Y5903997D01*
X4556840Y5904205D01*
X4556007Y5904413D01*
X4555036Y5904482D01*
X4553995Y5904552D01*
X4553648D01*
X4553370Y5904482D01*
X4552607Y5904413D01*
X4551635Y5904205D01*
X4550525Y5903927D01*
X4549275Y5903441D01*
X4547887Y5902817D01*
X4546499Y5901914D01*
X4546430D01*
X4546361Y5901776D01*
X4546152Y5901637D01*
X4545875Y5901429D01*
X4545111Y5900804D01*
X4544140Y5899971D01*
X4543029Y5898861D01*
X4541711Y5897542D01*
X4540253Y5895946D01*
X4538796Y5894142D01*
Y5856458D01*
Y5856388D01*
Y5856180D01*
X4538657Y5855902D01*
X4538518Y5855625D01*
X4538449Y5855555D01*
X4538380Y5855486D01*
X4538102Y5855278D01*
X4537755Y5855139D01*
X4537686D01*
X4537339Y5855000D01*
X4536853Y5854931D01*
X4536228Y5854792D01*
X4536089D01*
X4535812Y5854722D01*
X4535534D01*
X4534771Y5854653D01*
X4532966D01*
X4532134Y5854722D01*
X4531370Y5854792D01*
X4531231D01*
X4530815Y5854861D01*
X4530329Y5855000D01*
X4529843Y5855139D01*
X4529774Y5855208D01*
X4529566Y5855278D01*
X4529288Y5855417D01*
X4529080Y5855625D01*
Y5855694D01*
X4529011Y5855833D01*
X4528941Y5856110D01*
X4528872Y5856458D01*
Y5910451D01*
Y5910520D01*
Y5910728D01*
X4528941Y5911006D01*
X4529011Y5911214D01*
X4529080Y5911283D01*
X4529149Y5911422D01*
X4529427Y5911631D01*
X4529705Y5911839D01*
X4529774Y5911908D01*
X4530121Y5911977D01*
X4530537Y5912116D01*
X4531093Y5912186D01*
X4531231D01*
X4531440Y5912255D01*
X4531717D01*
X4532411Y5912324D01*
X4534146D01*
X4534840Y5912255D01*
X4535534Y5912186D01*
X4535673D01*
X4536020Y5912116D01*
X4536506Y5912047D01*
X4536922Y5911839D01*
X4536992Y5911769D01*
X4537200Y5911631D01*
X4537408Y5911492D01*
X4537616Y5911214D01*
X4537686Y5911145D01*
X4537755Y5911006D01*
X4537824Y5910798D01*
Y5910451D01*
Y5903302D01*
X4537894Y5903372D01*
X4538033Y5903511D01*
X4538241Y5903788D01*
X4538588Y5904135D01*
X4539004Y5904552D01*
X4539490Y5905038D01*
X4540670Y5906148D01*
X4541988Y5907328D01*
X4543515Y5908577D01*
X4545181Y5909757D01*
X4546846Y5910728D01*
X4546916D01*
X4547055Y5910867D01*
X4547332Y5910936D01*
X4547610Y5911145D01*
X4548026Y5911283D01*
X4548512Y5911492D01*
X4549692Y5911977D01*
X4551080Y5912394D01*
X4552676Y5912810D01*
X4554272Y5913088D01*
X4556007Y5913157D01*
X4556909D01*
X4557395Y5913088D01*
D02*
G37*
G36*
X4227815Y5913088D02*
X4228370D01*
X4229619Y5912949D01*
X4231007Y5912671D01*
X4232534Y5912394D01*
X4234061Y5911908D01*
X4235518Y5911283D01*
X4235587D01*
X4235657Y5911214D01*
X4235865Y5911075D01*
X4236143Y5910936D01*
X4236837Y5910520D01*
X4237669Y5910034D01*
X4238572Y5909340D01*
X4239613Y5908507D01*
X4240584Y5907536D01*
X4241486Y5906425D01*
X4241556Y5906287D01*
X4241833Y5905870D01*
X4242250Y5905246D01*
X4242736Y5904413D01*
X4243291Y5903302D01*
X4243846Y5902123D01*
X4244332Y5900735D01*
X4244748Y5899208D01*
Y5899138D01*
X4244818Y5899000D01*
Y5898791D01*
X4244887Y5898514D01*
X4245026Y5898097D01*
X4245095Y5897612D01*
X4245165Y5897056D01*
X4245303Y5896432D01*
X4245442Y5894974D01*
X4245650Y5893309D01*
X4245720Y5891435D01*
X4245789Y5889353D01*
Y5856457D01*
Y5856388D01*
Y5856180D01*
X4245650Y5855902D01*
X4245512Y5855625D01*
X4245442Y5855555D01*
X4245373Y5855486D01*
X4245095Y5855278D01*
X4244748Y5855139D01*
X4244679D01*
X4244332Y5855000D01*
X4243846Y5854931D01*
X4243221Y5854792D01*
X4243083D01*
X4242805Y5854722D01*
X4242527D01*
X4241764Y5854653D01*
X4239960D01*
X4239127Y5854722D01*
X4238363Y5854792D01*
X4238225D01*
X4237808Y5854861D01*
X4237322Y5855000D01*
X4236837Y5855139D01*
X4236767Y5855208D01*
X4236559Y5855278D01*
X4236281Y5855416D01*
X4236073Y5855625D01*
Y5855694D01*
X4236004Y5855833D01*
X4235934Y5856110D01*
X4235865Y5856457D01*
Y5888034D01*
Y5888104D01*
Y5888243D01*
Y5888451D01*
Y5888798D01*
Y5889214D01*
X4235796Y5889631D01*
Y5890741D01*
X4235657Y5891921D01*
X4235518Y5893101D01*
X4235379Y5894350D01*
X4235102Y5895460D01*
Y5895599D01*
X4234963Y5895946D01*
X4234824Y5896501D01*
X4234616Y5897126D01*
X4234269Y5897889D01*
X4233922Y5898722D01*
X4233505Y5899555D01*
X4233020Y5900318D01*
X4232950Y5900388D01*
X4232742Y5900665D01*
X4232464Y5901012D01*
X4232048Y5901498D01*
X4231562Y5901984D01*
X4230938Y5902470D01*
X4230174Y5903025D01*
X4229411Y5903441D01*
X4229341Y5903511D01*
X4229064Y5903649D01*
X4228578Y5903788D01*
X4227953Y5903996D01*
X4227259Y5904205D01*
X4226427Y5904413D01*
X4225455Y5904482D01*
X4224414Y5904552D01*
X4224067D01*
X4223789Y5904482D01*
X4223026Y5904413D01*
X4222054Y5904205D01*
X4220944Y5903927D01*
X4219695Y5903441D01*
X4218307Y5902817D01*
X4216919Y5901914D01*
X4216849D01*
X4216780Y5901776D01*
X4216572Y5901637D01*
X4216294Y5901429D01*
X4215531Y5900804D01*
X4214559Y5899971D01*
X4213449Y5898861D01*
X4212130Y5897542D01*
X4210673Y5895946D01*
X4209215Y5894142D01*
Y5856457D01*
Y5856388D01*
Y5856180D01*
X4209077Y5855902D01*
X4208938Y5855625D01*
X4208868Y5855555D01*
X4208799Y5855486D01*
X4208521Y5855278D01*
X4208174Y5855139D01*
X4208105D01*
X4207758Y5855000D01*
X4207272Y5854931D01*
X4206648Y5854792D01*
X4206509D01*
X4206231Y5854722D01*
X4205954D01*
X4205190Y5854653D01*
X4203386D01*
X4202553Y5854722D01*
X4201790Y5854792D01*
X4201651D01*
X4201234Y5854861D01*
X4200749Y5855000D01*
X4200263Y5855139D01*
X4200193Y5855208D01*
X4199985Y5855278D01*
X4199708Y5855416D01*
X4199499Y5855625D01*
Y5855694D01*
X4199430Y5855833D01*
X4199361Y5856110D01*
X4199291Y5856457D01*
Y5910451D01*
Y5910520D01*
Y5910728D01*
X4199361Y5911006D01*
X4199430Y5911214D01*
X4199499Y5911283D01*
X4199569Y5911422D01*
X4199846Y5911630D01*
X4200124Y5911839D01*
X4200193Y5911908D01*
X4200540Y5911977D01*
X4200957Y5912116D01*
X4201512Y5912186D01*
X4201651D01*
X4201859Y5912255D01*
X4202137D01*
X4202831Y5912324D01*
X4204566D01*
X4205260Y5912255D01*
X4205954Y5912186D01*
X4206092D01*
X4206439Y5912116D01*
X4206925Y5912047D01*
X4207342Y5911839D01*
X4207411Y5911769D01*
X4207619Y5911630D01*
X4207827Y5911492D01*
X4208036Y5911214D01*
X4208105Y5911145D01*
X4208174Y5911006D01*
X4208244Y5910798D01*
Y5910451D01*
Y5903302D01*
X4208313Y5903372D01*
X4208452Y5903511D01*
X4208660Y5903788D01*
X4209007Y5904135D01*
X4209424Y5904552D01*
X4209909Y5905037D01*
X4211089Y5906148D01*
X4212408Y5907328D01*
X4213935Y5908577D01*
X4215600Y5909757D01*
X4217266Y5910728D01*
X4217335D01*
X4217474Y5910867D01*
X4217752Y5910936D01*
X4218029Y5911145D01*
X4218446Y5911283D01*
X4218931Y5911492D01*
X4220111Y5911977D01*
X4221499Y5912394D01*
X4223095Y5912810D01*
X4224692Y5913088D01*
X4226427Y5913157D01*
X4227329D01*
X4227815Y5913088D01*
D02*
G37*
G36*
X4018296D02*
X4018851D01*
X4020100Y5912949D01*
X4021488Y5912671D01*
X4023015Y5912394D01*
X4024542Y5911908D01*
X4025999Y5911283D01*
X4026069D01*
X4026138Y5911214D01*
X4026346Y5911075D01*
X4026624Y5910936D01*
X4027318Y5910520D01*
X4028151Y5910034D01*
X4029053Y5909340D01*
X4030094Y5908507D01*
X4031066Y5907536D01*
X4031968Y5906425D01*
X4032037Y5906287D01*
X4032315Y5905870D01*
X4032731Y5905246D01*
X4033217Y5904413D01*
X4033772Y5903302D01*
X4034327Y5902123D01*
X4034813Y5900735D01*
X4035230Y5899208D01*
Y5899138D01*
X4035299Y5899000D01*
Y5898791D01*
X4035368Y5898514D01*
X4035507Y5898097D01*
X4035577Y5897612D01*
X4035646Y5897056D01*
X4035785Y5896432D01*
X4035924Y5894974D01*
X4036132Y5893309D01*
X4036201Y5891435D01*
X4036271Y5889353D01*
Y5856457D01*
Y5856388D01*
Y5856180D01*
X4036132Y5855902D01*
X4035993Y5855625D01*
X4035924Y5855555D01*
X4035854Y5855486D01*
X4035577Y5855278D01*
X4035230Y5855139D01*
X4035160D01*
X4034813Y5855000D01*
X4034327Y5854931D01*
X4033703Y5854792D01*
X4033564D01*
X4033286Y5854722D01*
X4033009D01*
X4032245Y5854653D01*
X4030441D01*
X4029608Y5854722D01*
X4028845Y5854792D01*
X4028706D01*
X4028290Y5854861D01*
X4027804Y5855000D01*
X4027318Y5855139D01*
X4027249Y5855208D01*
X4027040Y5855278D01*
X4026763Y5855416D01*
X4026555Y5855625D01*
Y5855694D01*
X4026485Y5855833D01*
X4026416Y5856110D01*
X4026346Y5856457D01*
Y5888034D01*
Y5888104D01*
Y5888243D01*
Y5888451D01*
Y5888798D01*
Y5889214D01*
X4026277Y5889631D01*
Y5890741D01*
X4026138Y5891921D01*
X4025999Y5893101D01*
X4025861Y5894350D01*
X4025583Y5895460D01*
Y5895599D01*
X4025444Y5895946D01*
X4025305Y5896501D01*
X4025097Y5897126D01*
X4024750Y5897889D01*
X4024403Y5898722D01*
X4023987Y5899555D01*
X4023501Y5900318D01*
X4023432Y5900388D01*
X4023223Y5900665D01*
X4022946Y5901012D01*
X4022529Y5901498D01*
X4022044Y5901984D01*
X4021419Y5902470D01*
X4020656Y5903025D01*
X4019892Y5903441D01*
X4019823Y5903511D01*
X4019545Y5903649D01*
X4019059Y5903788D01*
X4018435Y5903996D01*
X4017741Y5904205D01*
X4016908Y5904413D01*
X4015936Y5904482D01*
X4014895Y5904552D01*
X4014548D01*
X4014271Y5904482D01*
X4013507Y5904413D01*
X4012536Y5904205D01*
X4011425Y5903927D01*
X4010176Y5903441D01*
X4008788Y5902817D01*
X4007400Y5901914D01*
X4007331D01*
X4007261Y5901776D01*
X4007053Y5901637D01*
X4006776Y5901429D01*
X4006012Y5900804D01*
X4005041Y5899971D01*
X4003930Y5898861D01*
X4002612Y5897542D01*
X4001154Y5895946D01*
X3999697Y5894142D01*
Y5856457D01*
Y5856388D01*
Y5856180D01*
X3999558Y5855902D01*
X3999419Y5855625D01*
X3999350Y5855555D01*
X3999280Y5855486D01*
X3999003Y5855278D01*
X3998656Y5855139D01*
X3998586D01*
X3998239Y5855000D01*
X3997754Y5854931D01*
X3997129Y5854792D01*
X3996990D01*
X3996713Y5854722D01*
X3996435D01*
X3995672Y5854653D01*
X3993867D01*
X3993034Y5854722D01*
X3992271Y5854792D01*
X3992132D01*
X3991716Y5854861D01*
X3991230Y5855000D01*
X3990744Y5855139D01*
X3990675Y5855208D01*
X3990467Y5855278D01*
X3990189Y5855416D01*
X3989981Y5855625D01*
Y5855694D01*
X3989911Y5855833D01*
X3989842Y5856110D01*
X3989773Y5856457D01*
Y5910451D01*
Y5910520D01*
Y5910728D01*
X3989842Y5911006D01*
X3989911Y5911214D01*
X3989981Y5911283D01*
X3990050Y5911422D01*
X3990328Y5911630D01*
X3990605Y5911839D01*
X3990675Y5911908D01*
X3991022Y5911977D01*
X3991438Y5912116D01*
X3991993Y5912186D01*
X3992132D01*
X3992340Y5912255D01*
X3992618D01*
X3993312Y5912324D01*
X3995047D01*
X3995741Y5912255D01*
X3996435Y5912186D01*
X3996574D01*
X3996921Y5912116D01*
X3997407Y5912047D01*
X3997823Y5911839D01*
X3997892Y5911769D01*
X3998101Y5911630D01*
X3998309Y5911492D01*
X3998517Y5911214D01*
X3998586Y5911145D01*
X3998656Y5911006D01*
X3998725Y5910798D01*
Y5910451D01*
Y5903302D01*
X3998795Y5903372D01*
X3998933Y5903511D01*
X3999142Y5903788D01*
X3999489Y5904135D01*
X3999905Y5904552D01*
X4000391Y5905037D01*
X4001571Y5906148D01*
X4002889Y5907328D01*
X4004416Y5908577D01*
X4006082Y5909757D01*
X4007747Y5910728D01*
X4007817D01*
X4007955Y5910867D01*
X4008233Y5910936D01*
X4008511Y5911145D01*
X4008927Y5911283D01*
X4009413Y5911492D01*
X4010593Y5911977D01*
X4011981Y5912394D01*
X4013577Y5912810D01*
X4015173Y5913088D01*
X4016908Y5913157D01*
X4017810D01*
X4018296Y5913088D01*
D02*
G37*
G36*
X4181178D02*
X4181872Y5913018D01*
X4182219D01*
X4182496Y5912949D01*
X4183121Y5912880D01*
X4183884Y5912671D01*
X4183954D01*
X4184093Y5912602D01*
X4184301D01*
X4184578Y5912533D01*
X4185203Y5912324D01*
X4185828Y5912116D01*
X4185897D01*
X4185966Y5912047D01*
X4186313Y5911977D01*
X4186730Y5911769D01*
X4187077Y5911561D01*
X4187146Y5911492D01*
X4187285Y5911422D01*
X4187493Y5911214D01*
X4187563Y5911006D01*
Y5910936D01*
X4187632Y5910798D01*
X4187701Y5910589D01*
X4187771Y5910312D01*
Y5910242D01*
X4187840Y5910034D01*
X4187910Y5909618D01*
Y5909063D01*
Y5908993D01*
Y5908924D01*
Y5908716D01*
X4187979Y5908507D01*
Y5907813D01*
Y5906911D01*
Y5906842D01*
Y5906703D01*
Y5906425D01*
Y5906078D01*
Y5905384D01*
X4187910Y5904621D01*
Y5904482D01*
X4187840Y5904135D01*
X4187771Y5903719D01*
X4187632Y5903233D01*
Y5903164D01*
X4187563Y5902955D01*
X4187424Y5902678D01*
X4187216Y5902470D01*
X4187146Y5902400D01*
X4187007Y5902331D01*
X4186799Y5902261D01*
X4186452Y5902192D01*
X4186383D01*
X4186105Y5902261D01*
X4185758Y5902331D01*
X4185272Y5902470D01*
X4185134Y5902539D01*
X4184787Y5902678D01*
X4184301Y5902817D01*
X4183676Y5903025D01*
X4183607D01*
X4183537Y5903094D01*
X4183121Y5903164D01*
X4182496Y5903372D01*
X4181733Y5903511D01*
X4181664D01*
X4181525Y5903580D01*
X4181317D01*
X4181039Y5903649D01*
X4180345Y5903719D01*
X4179443Y5903788D01*
X4178888D01*
X4178541Y5903719D01*
X4177569Y5903511D01*
X4176528Y5903164D01*
X4176459D01*
X4176250Y5903025D01*
X4175973Y5902886D01*
X4175626Y5902678D01*
X4175140Y5902400D01*
X4174654Y5902053D01*
X4174099Y5901637D01*
X4173474Y5901151D01*
X4173405Y5901082D01*
X4173197Y5900943D01*
X4172919Y5900596D01*
X4172503Y5900179D01*
X4172017Y5899694D01*
X4171462Y5899069D01*
X4170837Y5898375D01*
X4170213Y5897542D01*
X4170143Y5897473D01*
X4169935Y5897126D01*
X4169588Y5896640D01*
X4169102Y5896015D01*
X4168547Y5895183D01*
X4167853Y5894211D01*
X4167159Y5893170D01*
X4166396Y5891990D01*
Y5856457D01*
Y5856388D01*
Y5856180D01*
X4166257Y5855902D01*
X4166118Y5855625D01*
X4166049Y5855555D01*
X4165979Y5855486D01*
X4165702Y5855278D01*
X4165355Y5855139D01*
X4165285D01*
X4164938Y5855000D01*
X4164452Y5854931D01*
X4163828Y5854792D01*
X4163689D01*
X4163411Y5854722D01*
X4163134D01*
X4162370Y5854653D01*
X4160566D01*
X4159733Y5854722D01*
X4158970Y5854792D01*
X4158831D01*
X4158415Y5854861D01*
X4157929Y5855000D01*
X4157443Y5855139D01*
X4157374Y5855208D01*
X4157165Y5855278D01*
X4156888Y5855416D01*
X4156680Y5855625D01*
Y5855694D01*
X4156610Y5855833D01*
X4156541Y5856110D01*
X4156471Y5856457D01*
Y5910451D01*
Y5910520D01*
Y5910728D01*
X4156541Y5911006D01*
X4156610Y5911214D01*
X4156680Y5911283D01*
X4156749Y5911422D01*
X4157027Y5911630D01*
X4157304Y5911839D01*
X4157374Y5911908D01*
X4157721Y5911977D01*
X4158137Y5912116D01*
X4158692Y5912186D01*
X4158831D01*
X4159039Y5912255D01*
X4159317D01*
X4160011Y5912324D01*
X4161746D01*
X4162440Y5912255D01*
X4163134Y5912186D01*
X4163273D01*
X4163620Y5912116D01*
X4164105Y5912047D01*
X4164522Y5911839D01*
X4164591Y5911769D01*
X4164799Y5911630D01*
X4165008Y5911492D01*
X4165216Y5911214D01*
X4165285Y5911145D01*
X4165355Y5911006D01*
X4165424Y5910798D01*
Y5910451D01*
Y5902678D01*
X4165493Y5902747D01*
X4165771Y5903164D01*
X4166257Y5903719D01*
X4166812Y5904482D01*
X4167437Y5905315D01*
X4168131Y5906148D01*
X4168825Y5906981D01*
X4169588Y5907813D01*
X4169657Y5907883D01*
X4169935Y5908160D01*
X4170282Y5908507D01*
X4170768Y5908993D01*
X4171323Y5909548D01*
X4171948Y5910104D01*
X4172642Y5910589D01*
X4173266Y5911075D01*
X4173336Y5911145D01*
X4173544Y5911283D01*
X4173891Y5911492D01*
X4174377Y5911700D01*
X4174862Y5911977D01*
X4175418Y5912255D01*
X4176042Y5912463D01*
X4176667Y5912671D01*
X4176736D01*
X4176944Y5912741D01*
X4177291Y5912810D01*
X4177777Y5912949D01*
X4178263Y5913018D01*
X4178888Y5913088D01*
X4180137Y5913157D01*
X4180623D01*
X4181178Y5913088D01*
D02*
G37*
G36*
X4966231Y5932867D02*
X4966716Y5932798D01*
X4967133Y5932728D01*
X4967272D01*
X4967688Y5932589D01*
X4968243Y5932451D01*
X4968660Y5932173D01*
X4968729Y5932104D01*
X4968868Y5931895D01*
X4969076Y5931479D01*
Y5930993D01*
Y5930854D01*
Y5930438D01*
X4968937Y5929744D01*
X4968798Y5928842D01*
X4948187Y5857290D01*
Y5857221D01*
X4948117Y5857152D01*
X4948048Y5856805D01*
X4947840Y5856319D01*
X4947493Y5855902D01*
X4947423Y5855833D01*
X4947146Y5855625D01*
X4946729Y5855347D01*
X4946174Y5855139D01*
X4946035D01*
X4945619Y5855000D01*
X4944925Y5854931D01*
X4944092Y5854792D01*
X4943884D01*
X4943606Y5854723D01*
X4942773D01*
X4942288Y5854653D01*
X4939997D01*
X4938956Y5854723D01*
X4937915Y5854792D01*
X4937707D01*
X4937499Y5854861D01*
X4937152D01*
X4936458Y5855000D01*
X4935764Y5855139D01*
X4935625Y5855208D01*
X4935278Y5855347D01*
X4934862Y5855555D01*
X4934515Y5855902D01*
X4934445Y5855972D01*
X4934307Y5856249D01*
X4934098Y5856666D01*
X4933890Y5857290D01*
X4917651Y5915795D01*
X4917512D01*
X4902521Y5857290D01*
Y5857221D01*
Y5857152D01*
X4902383Y5856805D01*
X4902174Y5856319D01*
X4901897Y5855902D01*
X4901827Y5855833D01*
X4901619Y5855625D01*
X4901203Y5855347D01*
X4900717Y5855139D01*
X4900578D01*
X4900162Y5855000D01*
X4899537Y5854931D01*
X4898704Y5854792D01*
X4898496D01*
X4898219Y5854723D01*
X4897455D01*
X4896900Y5854653D01*
X4894402D01*
X4893361Y5854723D01*
X4892250Y5854792D01*
X4892042D01*
X4891764Y5854861D01*
X4891487D01*
X4890793Y5855000D01*
X4890099Y5855139D01*
X4889960Y5855208D01*
X4889613Y5855347D01*
X4889197Y5855555D01*
X4888780Y5855902D01*
X4888711Y5855972D01*
X4888572Y5856249D01*
X4888364Y5856666D01*
X4888225Y5857290D01*
X4867683Y5928911D01*
Y5928981D01*
X4867613Y5929119D01*
X4867544Y5929397D01*
X4867474Y5929675D01*
X4867336Y5930438D01*
X4867266Y5931063D01*
Y5931132D01*
Y5931201D01*
X4867336Y5931479D01*
X4867474Y5931895D01*
X4867752Y5932242D01*
X4867891Y5932312D01*
X4868168Y5932451D01*
X4868724Y5932659D01*
X4869418Y5932798D01*
X4869626D01*
X4869903Y5932867D01*
X4870667D01*
X4871222Y5932936D01*
X4873512D01*
X4874484Y5932867D01*
X4874970D01*
X4875386Y5932798D01*
X4875594D01*
X4876011Y5932728D01*
X4876566Y5932659D01*
X4877052Y5932451D01*
X4877121Y5932381D01*
X4877399Y5932312D01*
X4877676Y5932104D01*
X4877884Y5931826D01*
X4877954Y5931757D01*
X4878023Y5931548D01*
X4878093Y5931201D01*
X4878162Y5930716D01*
X4895651Y5865757D01*
X4895720D01*
X4912237Y5930646D01*
X4912307Y5930785D01*
X4912376Y5930993D01*
X4912515Y5931340D01*
X4912654Y5931687D01*
X4912723Y5931757D01*
X4912862Y5931965D01*
X4913140Y5932173D01*
X4913556Y5932381D01*
X4913695Y5932451D01*
X4914042Y5932520D01*
X4914528Y5932659D01*
X4915291Y5932798D01*
X4915499D01*
X4915707Y5932867D01*
X4916471D01*
X4917026Y5932936D01*
X4919177D01*
X4920010Y5932867D01*
X4920843Y5932798D01*
X4920982D01*
X4921398Y5932728D01*
X4921953Y5932589D01*
X4922439Y5932381D01*
X4922509Y5932312D01*
X4922786Y5932242D01*
X4923064Y5932034D01*
X4923272Y5931687D01*
X4923341Y5931618D01*
X4923411Y5931410D01*
X4923619Y5931063D01*
X4923758Y5930646D01*
X4941524Y5865757D01*
X4941663D01*
X4958735Y5930716D01*
X4958805Y5930785D01*
X4958874Y5931063D01*
X4958944Y5931340D01*
X4959082Y5931687D01*
X4959152Y5931757D01*
X4959291Y5931965D01*
X4959499Y5932173D01*
X4959846Y5932381D01*
X4959985Y5932451D01*
X4960262Y5932520D01*
X4960748Y5932659D01*
X4961442Y5932798D01*
X4961650D01*
X4961858Y5932867D01*
X4962622D01*
X4963108Y5932936D01*
X4965328D01*
X4966231Y5932867D01*
D02*
G37*
G36*
X4703829Y5933630D02*
X4704384D01*
X4705009Y5933561D01*
X4705772Y5933492D01*
X4707299Y5933283D01*
X4708965Y5933006D01*
X4710630Y5932659D01*
X4712227Y5932104D01*
X4712296D01*
X4712435Y5932034D01*
X4712643Y5931965D01*
X4712921Y5931826D01*
X4713684Y5931479D01*
X4714725Y5930993D01*
X4715766Y5930368D01*
X4716946Y5929605D01*
X4718126Y5928703D01*
X4719236Y5927731D01*
X4719375Y5927592D01*
X4719722Y5927245D01*
X4720208Y5926690D01*
X4720832Y5925858D01*
X4721526Y5924955D01*
X4722220Y5923845D01*
X4722914Y5922596D01*
X4723469Y5921277D01*
Y5921208D01*
X4723539Y5921138D01*
X4723608Y5920930D01*
X4723678Y5920653D01*
X4723886Y5919889D01*
X4724163Y5918987D01*
X4724441Y5917807D01*
X4724649Y5916489D01*
X4724788Y5915031D01*
X4724857Y5913504D01*
Y5913435D01*
Y5913365D01*
Y5913157D01*
Y5912880D01*
Y5912116D01*
X4724788Y5911214D01*
X4724719Y5910104D01*
X4724580Y5908855D01*
X4724372Y5907536D01*
X4724163Y5906148D01*
Y5906078D01*
Y5906009D01*
X4724094Y5905801D01*
X4724025Y5905523D01*
X4723886Y5904760D01*
X4723608Y5903788D01*
X4723192Y5902609D01*
X4722706Y5901221D01*
X4722151Y5899763D01*
X4721387Y5898167D01*
Y5898097D01*
X4721318Y5897959D01*
X4721179Y5897751D01*
X4720971Y5897404D01*
X4720763Y5896987D01*
X4720485Y5896501D01*
X4720208Y5895946D01*
X4719791Y5895391D01*
X4718958Y5893934D01*
X4717848Y5892337D01*
X4716668Y5890533D01*
X4715211Y5888590D01*
X4715141Y5888520D01*
X4715003Y5888382D01*
X4714794Y5888034D01*
X4714447Y5887688D01*
X4714100Y5887202D01*
X4713615Y5886577D01*
X4712990Y5885883D01*
X4712365Y5885120D01*
X4711671Y5884287D01*
X4710839Y5883385D01*
X4710006Y5882344D01*
X4709034Y5881303D01*
X4706952Y5879012D01*
X4704593Y5876514D01*
X4692309Y5863744D01*
X4726315D01*
X4726592Y5863606D01*
X4726939Y5863467D01*
X4727009Y5863398D01*
X4727217Y5863259D01*
X4727495Y5862981D01*
X4727703Y5862634D01*
X4727772Y5862565D01*
X4727911Y5862287D01*
X4728050Y5861801D01*
X4728189Y5861246D01*
X4728258Y5861107D01*
X4728327Y5860760D01*
X4728397Y5860136D01*
Y5859372D01*
Y5859303D01*
Y5859234D01*
Y5858748D01*
X4728327Y5858123D01*
X4728189Y5857498D01*
Y5857429D01*
Y5857360D01*
X4728119Y5857013D01*
X4727980Y5856527D01*
X4727772Y5856041D01*
X4727703Y5855972D01*
X4727564Y5855764D01*
X4727356Y5855486D01*
X4727009Y5855208D01*
X4726939D01*
X4726731Y5855139D01*
X4726454Y5855069D01*
X4726107Y5855000D01*
X4682732D01*
X4682246Y5855069D01*
X4681760Y5855208D01*
X4681691Y5855278D01*
X4681413Y5855347D01*
X4680997Y5855555D01*
X4680650Y5855833D01*
X4680580Y5855902D01*
X4680441Y5856180D01*
X4680233Y5856596D01*
X4680025Y5857221D01*
Y5857290D01*
Y5857360D01*
X4679956Y5857568D01*
Y5857846D01*
X4679886Y5858539D01*
X4679817Y5859442D01*
Y5859511D01*
Y5859650D01*
Y5859858D01*
Y5860205D01*
Y5860830D01*
X4679886Y5861524D01*
Y5861593D01*
Y5861663D01*
X4679956Y5862079D01*
X4680094Y5862565D01*
X4680233Y5863120D01*
X4680303Y5863259D01*
X4680441Y5863536D01*
X4680719Y5864022D01*
X4680997Y5864508D01*
X4681066Y5864647D01*
X4681344Y5864924D01*
X4681760Y5865410D01*
X4682246Y5865965D01*
X4697791Y5881927D01*
X4697861Y5881997D01*
X4698000Y5882205D01*
X4698277Y5882483D01*
X4698694Y5882899D01*
X4699110Y5883385D01*
X4699665Y5883940D01*
X4700220Y5884565D01*
X4700845Y5885258D01*
X4702233Y5886785D01*
X4703690Y5888451D01*
X4705078Y5890186D01*
X4706397Y5891851D01*
X4706466Y5891921D01*
X4706536Y5892060D01*
X4706744Y5892268D01*
X4706952Y5892615D01*
X4707230Y5892962D01*
X4707507Y5893448D01*
X4708271Y5894489D01*
X4709034Y5895738D01*
X4709867Y5897056D01*
X4710700Y5898375D01*
X4711394Y5899763D01*
Y5899833D01*
X4711463Y5899902D01*
X4711533Y5900110D01*
X4711671Y5900388D01*
X4711949Y5901082D01*
X4712365Y5901914D01*
X4712712Y5902956D01*
X4713129Y5904066D01*
X4713406Y5905176D01*
X4713684Y5906287D01*
Y5906356D01*
Y5906426D01*
X4713753Y5906773D01*
X4713892Y5907397D01*
X4714031Y5908091D01*
X4714100Y5908924D01*
X4714239Y5909895D01*
X4714309Y5911839D01*
Y5911977D01*
Y5912255D01*
X4714239Y5912741D01*
X4714170Y5913435D01*
X4714100Y5914129D01*
X4713962Y5914962D01*
X4713684Y5915864D01*
X4713406Y5916697D01*
X4713337Y5916836D01*
X4713268Y5917113D01*
X4713059Y5917529D01*
X4712782Y5918085D01*
X4712435Y5918709D01*
X4712018Y5919403D01*
X4711463Y5920097D01*
X4710908Y5920791D01*
X4710839Y5920861D01*
X4710630Y5921069D01*
X4710283Y5921416D01*
X4709798Y5921763D01*
X4709173Y5922249D01*
X4708479Y5922665D01*
X4707646Y5923151D01*
X4706744Y5923567D01*
X4706605Y5923637D01*
X4706328Y5923706D01*
X4705842Y5923914D01*
X4705148Y5924123D01*
X4704315Y5924261D01*
X4703343Y5924470D01*
X4702302Y5924539D01*
X4701123Y5924608D01*
X4700498D01*
X4699735Y5924539D01*
X4698832Y5924470D01*
X4697791Y5924331D01*
X4696612Y5924192D01*
X4695501Y5923914D01*
X4694321Y5923567D01*
X4694183Y5923498D01*
X4693836Y5923359D01*
X4693280Y5923151D01*
X4692517Y5922873D01*
X4691754Y5922596D01*
X4690851Y5922179D01*
X4689047Y5921346D01*
X4688978Y5921277D01*
X4688700Y5921138D01*
X4688284Y5920930D01*
X4687728Y5920653D01*
X4687173Y5920306D01*
X4686549Y5919889D01*
X4685299Y5919126D01*
X4685230Y5919056D01*
X4685022Y5918987D01*
X4684744Y5918848D01*
X4684467Y5918640D01*
X4683703Y5918293D01*
X4683356Y5918224D01*
X4683009Y5918154D01*
X4682732D01*
X4682523Y5918224D01*
X4682246Y5918362D01*
X4682176Y5918432D01*
X4682038Y5918570D01*
X4681899Y5918779D01*
X4681691Y5919126D01*
Y5919195D01*
X4681552Y5919542D01*
X4681482Y5919958D01*
X4681344Y5920583D01*
Y5920653D01*
Y5920722D01*
Y5920930D01*
Y5921208D01*
X4681274Y5921902D01*
Y5922734D01*
Y5922804D01*
Y5922873D01*
Y5923290D01*
Y5923775D01*
Y5924261D01*
Y5924400D01*
X4681344Y5924678D01*
X4681413Y5925025D01*
X4681482Y5925441D01*
X4681552Y5925511D01*
X4681621Y5925719D01*
X4681760Y5925996D01*
X4681899Y5926343D01*
X4681968Y5926413D01*
X4682107Y5926621D01*
X4682385Y5926968D01*
X4682801Y5927384D01*
X4682870D01*
X4682940Y5927523D01*
X4683148Y5927662D01*
X4683426Y5927801D01*
X4683773Y5928078D01*
X4684189Y5928356D01*
X4684675Y5928703D01*
X4685299Y5929050D01*
X4685369Y5929119D01*
X4685646Y5929258D01*
X4685993Y5929466D01*
X4686549Y5929744D01*
X4687173Y5930091D01*
X4687937Y5930438D01*
X4688769Y5930785D01*
X4689741Y5931201D01*
X4689880Y5931271D01*
X4690227Y5931409D01*
X4690782Y5931548D01*
X4691476Y5931826D01*
X4692378Y5932104D01*
X4693350Y5932381D01*
X4694460Y5932659D01*
X4695640Y5932936D01*
X4695709D01*
X4695779Y5933006D01*
X4696195Y5933075D01*
X4696820Y5933214D01*
X4697653Y5933353D01*
X4698694Y5933492D01*
X4699804Y5933561D01*
X4701053Y5933700D01*
X4703343D01*
X4703829Y5933630D01*
D02*
G37*
G36*
X5005997Y5932520D02*
X5006830D01*
X5007662Y5932451D01*
X5008426Y5932381D01*
X5008773D01*
X5009120Y5932312D01*
X5009606D01*
X5010161Y5932242D01*
X5010716D01*
X5011896Y5932104D01*
X5011965D01*
X5012104Y5932034D01*
X5012312D01*
X5012659Y5931965D01*
X5013076Y5931895D01*
X5013492Y5931757D01*
X5014602Y5931479D01*
X5015782Y5931132D01*
X5017170Y5930716D01*
X5018489Y5930160D01*
X5019807Y5929605D01*
X5019877D01*
X5019946Y5929536D01*
X5020363Y5929328D01*
X5021057Y5928911D01*
X5021820Y5928425D01*
X5022792Y5927870D01*
X5023763Y5927107D01*
X5024735Y5926274D01*
X5025637Y5925372D01*
X5025776Y5925233D01*
X5026053Y5924955D01*
X5026470Y5924400D01*
X5026956Y5923706D01*
X5027511Y5922804D01*
X5028135Y5921832D01*
X5028691Y5920653D01*
X5029176Y5919473D01*
Y5919403D01*
X5029246Y5919334D01*
X5029315Y5919126D01*
X5029385Y5918918D01*
X5029523Y5918224D01*
X5029801Y5917321D01*
X5030009Y5916211D01*
X5030148Y5914962D01*
X5030287Y5913574D01*
X5030356Y5912116D01*
Y5912047D01*
Y5911978D01*
Y5911769D01*
Y5911492D01*
X5030287Y5910728D01*
X5030217Y5909757D01*
X5030079Y5908716D01*
X5029870Y5907536D01*
X5029593Y5906287D01*
X5029246Y5905107D01*
X5029176Y5904968D01*
X5029038Y5904621D01*
X5028829Y5903997D01*
X5028482Y5903303D01*
X5028066Y5902470D01*
X5027511Y5901568D01*
X5026886Y5900596D01*
X5026192Y5899694D01*
X5026123Y5899624D01*
X5025845Y5899277D01*
X5025429Y5898861D01*
X5024874Y5898306D01*
X5024180Y5897681D01*
X5023416Y5896987D01*
X5022445Y5896293D01*
X5021473Y5895599D01*
X5021334Y5895530D01*
X5020987Y5895322D01*
X5020432Y5894975D01*
X5019669Y5894558D01*
X5018766Y5894142D01*
X5017725Y5893656D01*
X5016615Y5893170D01*
X5015366Y5892684D01*
X5015435Y5892615D01*
X5015713Y5892546D01*
X5016060Y5892337D01*
X5016476Y5892060D01*
X5017031Y5891782D01*
X5017587Y5891366D01*
X5018766Y5890464D01*
X5018836Y5890394D01*
X5019044Y5890255D01*
X5019322Y5889978D01*
X5019738Y5889631D01*
X5020154Y5889145D01*
X5020640Y5888659D01*
X5021681Y5887410D01*
X5021751Y5887341D01*
X5021889Y5887063D01*
X5022167Y5886716D01*
X5022514Y5886230D01*
X5022930Y5885606D01*
X5023347Y5884912D01*
X5023833Y5884079D01*
X5024249Y5883246D01*
X5024318Y5883177D01*
X5024457Y5882830D01*
X5024735Y5882344D01*
X5025012Y5881719D01*
X5025359Y5880956D01*
X5025776Y5880054D01*
X5026262Y5879082D01*
X5026678Y5878041D01*
X5033618Y5860899D01*
X5033687Y5860830D01*
X5033757Y5860552D01*
X5033896Y5860205D01*
X5034034Y5859719D01*
X5034381Y5858678D01*
X5034590Y5858262D01*
X5034659Y5857846D01*
X5034728Y5857707D01*
X5034798Y5857360D01*
X5034867Y5856943D01*
X5034937Y5856527D01*
Y5856458D01*
Y5856249D01*
X5034867Y5855972D01*
X5034728Y5855694D01*
Y5855625D01*
X5034590Y5855486D01*
X5034381Y5855347D01*
X5033965Y5855139D01*
X5033896D01*
X5033549Y5855000D01*
X5033063Y5854931D01*
X5032299Y5854792D01*
X5032091D01*
X5031883Y5854723D01*
X5031120D01*
X5030634Y5854653D01*
X5028552D01*
X5027719Y5854723D01*
X5026886Y5854792D01*
X5026747D01*
X5026331Y5854861D01*
X5025776Y5855000D01*
X5025290Y5855139D01*
X5025221Y5855208D01*
X5024943Y5855347D01*
X5024596Y5855555D01*
X5024318Y5855902D01*
X5024249Y5855972D01*
X5024180Y5856249D01*
X5023971Y5856596D01*
X5023833Y5857082D01*
X5016684Y5875404D01*
Y5875473D01*
X5016615Y5875543D01*
X5016476Y5875959D01*
X5016199Y5876514D01*
X5015921Y5877278D01*
X5015505Y5878180D01*
X5015019Y5879151D01*
X5014047Y5881095D01*
X5013978Y5881233D01*
X5013839Y5881511D01*
X5013561Y5881997D01*
X5013145Y5882621D01*
X5012659Y5883385D01*
X5012173Y5884079D01*
X5011549Y5884842D01*
X5010855Y5885606D01*
X5010785Y5885675D01*
X5010508Y5885883D01*
X5010161Y5886230D01*
X5009606Y5886647D01*
X5008981Y5887132D01*
X5008218Y5887618D01*
X5007385Y5888104D01*
X5006483Y5888520D01*
X5006344Y5888590D01*
X5006066Y5888729D01*
X5005511Y5888867D01*
X5004817Y5889076D01*
X5003915Y5889284D01*
X5002874Y5889492D01*
X5001694Y5889561D01*
X5000445Y5889631D01*
X4993574D01*
Y5856527D01*
Y5856458D01*
Y5856249D01*
X4993435Y5855972D01*
X4993297Y5855694D01*
X4993227Y5855625D01*
X4993088Y5855486D01*
X4992811Y5855347D01*
X4992394Y5855139D01*
X4992325D01*
X4991978Y5855070D01*
X4991492Y5855000D01*
X4990868Y5854861D01*
X4990729D01*
X4990451Y5854792D01*
X4990174D01*
X4989827Y5854723D01*
X4989410D01*
X4988369Y5854653D01*
X4987467D01*
X4986704Y5854723D01*
X4985871Y5854861D01*
X4985732D01*
X4985316Y5854931D01*
X4984760Y5855070D01*
X4984275Y5855139D01*
X4984205Y5855208D01*
X4983928Y5855278D01*
X4983650Y5855486D01*
X4983442Y5855694D01*
Y5855764D01*
X4983372Y5855902D01*
X4983303Y5856180D01*
X4983234Y5856527D01*
Y5928356D01*
Y5928495D01*
Y5928772D01*
X4983303Y5929119D01*
X4983372Y5929675D01*
X4983511Y5930160D01*
X4983719Y5930716D01*
X4983997Y5931201D01*
X4984413Y5931618D01*
X4984483Y5931687D01*
X4984622Y5931757D01*
X4984899Y5931895D01*
X4985246Y5932104D01*
X4986079Y5932451D01*
X4986565Y5932520D01*
X4987051Y5932589D01*
X5005233D01*
X5005997Y5932520D01*
D02*
G37*
G36*
X4833538D02*
X4834301Y5932451D01*
X4836036Y5932312D01*
X4836175D01*
X4836453Y5932242D01*
X4836938D01*
X4837563Y5932104D01*
X4838396Y5932034D01*
X4839298Y5931826D01*
X4840339Y5931618D01*
X4841449Y5931410D01*
X4841588D01*
X4842005Y5931271D01*
X4842629Y5931132D01*
X4843462Y5930854D01*
X4844434Y5930507D01*
X4845544Y5930091D01*
X4846724Y5929536D01*
X4847904Y5928842D01*
X4847973D01*
X4848042Y5928772D01*
X4848459Y5928495D01*
X4849083Y5928078D01*
X4849847Y5927593D01*
X4850680Y5926899D01*
X4851651Y5926066D01*
X4852553Y5925164D01*
X4853456Y5924192D01*
X4853525Y5924053D01*
X4853803Y5923706D01*
X4854219Y5923151D01*
X4854774Y5922388D01*
X4855329Y5921416D01*
X4855885Y5920375D01*
X4856509Y5919126D01*
X4856995Y5917807D01*
Y5917738D01*
X4857064Y5917668D01*
X4857134Y5917460D01*
X4857203Y5917183D01*
X4857411Y5916419D01*
X4857620Y5915448D01*
X4857828Y5914268D01*
X4858036Y5912949D01*
X4858175Y5911422D01*
X4858244Y5909826D01*
Y5909757D01*
Y5909549D01*
Y5909271D01*
Y5908855D01*
X4858175Y5908299D01*
Y5907744D01*
X4858105Y5907050D01*
X4858036Y5906356D01*
X4857758Y5904691D01*
X4857411Y5902886D01*
X4856926Y5901082D01*
X4856301Y5899277D01*
Y5899208D01*
X4856232Y5899069D01*
X4856093Y5898861D01*
X4855954Y5898514D01*
X4855746Y5898098D01*
X4855468Y5897612D01*
X4854913Y5896571D01*
X4854080Y5895322D01*
X4853109Y5893934D01*
X4851998Y5892615D01*
X4850749Y5891296D01*
X4850680Y5891227D01*
X4850610Y5891158D01*
X4850402Y5891019D01*
X4850124Y5890741D01*
X4849777Y5890464D01*
X4849361Y5890186D01*
X4848320Y5889423D01*
X4847071Y5888659D01*
X4845544Y5887757D01*
X4843878Y5886994D01*
X4842005Y5886230D01*
X4841935D01*
X4841796Y5886161D01*
X4841519Y5886091D01*
X4841102Y5885953D01*
X4840617Y5885814D01*
X4839992Y5885675D01*
X4839298Y5885536D01*
X4838535Y5885397D01*
X4837702Y5885189D01*
X4836730Y5885050D01*
X4835689Y5884912D01*
X4834648Y5884773D01*
X4832289Y5884565D01*
X4829651Y5884495D01*
X4820907D01*
Y5856527D01*
Y5856458D01*
Y5856249D01*
X4820768Y5855972D01*
X4820629Y5855694D01*
X4820560Y5855625D01*
X4820421Y5855486D01*
X4820144Y5855347D01*
X4819727Y5855139D01*
X4819658D01*
X4819311Y5855070D01*
X4818825Y5855000D01*
X4818200Y5854861D01*
X4818062D01*
X4817784Y5854792D01*
X4817506D01*
X4817159Y5854722D01*
X4816743D01*
X4815702Y5854653D01*
X4814800D01*
X4814036Y5854722D01*
X4813204Y5854861D01*
X4813065D01*
X4812648Y5854931D01*
X4812093Y5855069D01*
X4811607Y5855139D01*
X4811538Y5855208D01*
X4811260Y5855278D01*
X4810983Y5855486D01*
X4810775Y5855694D01*
Y5855764D01*
X4810705Y5855902D01*
X4810636Y5856180D01*
X4810566Y5856527D01*
Y5928148D01*
Y5928287D01*
Y5928564D01*
X4810636Y5928980D01*
X4810705Y5929466D01*
X4810844Y5930021D01*
X4811122Y5930577D01*
X4811399Y5931132D01*
X4811816Y5931548D01*
X4811885Y5931618D01*
X4812024Y5931687D01*
X4812301Y5931895D01*
X4812648Y5932104D01*
X4813065Y5932242D01*
X4813551Y5932450D01*
X4814036Y5932520D01*
X4814592Y5932589D01*
X4832774Y5932589D01*
X4833538Y5932520D01*
D02*
G37*
G36*
X4490841Y5913088D02*
X4491465D01*
X4492090Y5913019D01*
X4492784D01*
X4494380Y5912810D01*
X4495976Y5912602D01*
X4497642Y5912255D01*
X4499238Y5911839D01*
X4499307D01*
X4499446Y5911769D01*
X4499654Y5911700D01*
X4499932Y5911561D01*
X4500695Y5911283D01*
X4501598Y5910867D01*
X4502639Y5910312D01*
X4503749Y5909618D01*
X4504859Y5908855D01*
X4505831Y5907952D01*
X4505970Y5907814D01*
X4506247Y5907467D01*
X4506733Y5906911D01*
X4507288Y5906217D01*
X4507844Y5905246D01*
X4508468Y5904205D01*
X4509023Y5902956D01*
X4509509Y5901568D01*
Y5901498D01*
X4509579Y5901429D01*
X4509648Y5901221D01*
X4509717Y5900873D01*
X4509787Y5900526D01*
X4509856Y5900110D01*
X4510134Y5899069D01*
X4510342Y5897820D01*
X4510481Y5896293D01*
X4510620Y5894627D01*
X4510689Y5892823D01*
Y5856388D01*
Y5856249D01*
X4510620Y5855972D01*
X4510481Y5855625D01*
X4510203Y5855347D01*
X4510134Y5855278D01*
X4509856Y5855139D01*
X4509440Y5855000D01*
X4508815Y5854861D01*
X4508676D01*
X4508468Y5854792D01*
X4508191D01*
X4507844Y5854722D01*
X4507427D01*
X4506941Y5854653D01*
X4505484D01*
X4504721Y5854722D01*
X4503888Y5854861D01*
X4503749D01*
X4503402Y5855000D01*
X4502986Y5855139D01*
X4502569Y5855347D01*
X4502500Y5855417D01*
X4502361Y5855625D01*
X4502222Y5855902D01*
X4502153Y5856388D01*
Y5861801D01*
X4502083Y5861732D01*
X4502014Y5861663D01*
X4501806Y5861454D01*
X4501528Y5861177D01*
X4500834Y5860483D01*
X4499863Y5859650D01*
X4498683Y5858748D01*
X4497295Y5857776D01*
X4495837Y5856805D01*
X4494241Y5855972D01*
X4494172D01*
X4494033Y5855902D01*
X4493825Y5855764D01*
X4493478Y5855625D01*
X4493131Y5855486D01*
X4492645Y5855347D01*
X4491465Y5854931D01*
X4490147Y5854584D01*
X4488550Y5854237D01*
X4486885Y5853959D01*
X4485080Y5853890D01*
X4484386D01*
X4483970Y5853959D01*
X4483554D01*
X4482513Y5854029D01*
X4481263Y5854167D01*
X4480014Y5854376D01*
X4478626Y5854653D01*
X4477308Y5855000D01*
X4477238D01*
X4477169Y5855069D01*
X4476752Y5855208D01*
X4476128Y5855417D01*
X4475295Y5855764D01*
X4474393Y5856249D01*
X4473421Y5856735D01*
X4472450Y5857360D01*
X4471478Y5858123D01*
X4471339Y5858193D01*
X4471062Y5858539D01*
X4470645Y5858956D01*
X4470090Y5859581D01*
X4469465Y5860344D01*
X4468841Y5861246D01*
X4468286Y5862218D01*
X4467730Y5863328D01*
Y5863398D01*
X4467661Y5863467D01*
X4467522Y5863883D01*
X4467314Y5864508D01*
X4467106Y5865341D01*
X4466828Y5866382D01*
X4466620Y5867561D01*
X4466481Y5868880D01*
X4466412Y5870268D01*
Y5870337D01*
Y5870476D01*
Y5870685D01*
Y5871032D01*
X4466481Y5871448D01*
Y5871864D01*
X4466620Y5872975D01*
X4466828Y5874224D01*
X4467175Y5875542D01*
X4467592Y5876861D01*
X4468216Y5878180D01*
Y5878249D01*
X4468286Y5878319D01*
X4468563Y5878735D01*
X4468980Y5879359D01*
X4469604Y5880192D01*
X4470368Y5881025D01*
X4471270Y5881997D01*
X4472311Y5882899D01*
X4473560Y5883801D01*
X4473629D01*
X4473699Y5883870D01*
X4473907Y5884009D01*
X4474185Y5884148D01*
X4474532Y5884356D01*
X4474948Y5884565D01*
X4475920Y5885050D01*
X4477169Y5885605D01*
X4478626Y5886161D01*
X4480222Y5886646D01*
X4482027Y5887132D01*
X4482096D01*
X4482235Y5887202D01*
X4482513Y5887271D01*
X4482929Y5887341D01*
X4483415Y5887410D01*
X4483970Y5887479D01*
X4484595Y5887618D01*
X4485358Y5887688D01*
X4486191Y5887826D01*
X4487024Y5887896D01*
X4488967Y5888104D01*
X4491118Y5888173D01*
X4493408Y5888243D01*
X4500834D01*
Y5892407D01*
Y5892476D01*
Y5892546D01*
Y5892962D01*
Y5893517D01*
X4500765Y5894280D01*
X4500695Y5895113D01*
X4500557Y5896016D01*
X4500348Y5896987D01*
X4500140Y5897889D01*
Y5898028D01*
X4500001Y5898306D01*
X4499863Y5898722D01*
X4499654Y5899277D01*
X4499377Y5899902D01*
X4498960Y5900596D01*
X4498544Y5901221D01*
X4497989Y5901845D01*
X4497919Y5901914D01*
X4497711Y5902123D01*
X4497434Y5902400D01*
X4496948Y5902747D01*
X4496393Y5903164D01*
X4495768Y5903580D01*
X4495005Y5903927D01*
X4494172Y5904274D01*
X4494102Y5904343D01*
X4493755Y5904413D01*
X4493270Y5904552D01*
X4492576Y5904690D01*
X4491812Y5904829D01*
X4490841Y5904968D01*
X4489730Y5905107D01*
X4487856D01*
X4487162Y5905038D01*
X4486260Y5904968D01*
X4485289Y5904899D01*
X4484178Y5904760D01*
X4482998Y5904482D01*
X4481888Y5904205D01*
X4481749Y5904135D01*
X4481402Y5904066D01*
X4480847Y5903858D01*
X4480222Y5903650D01*
X4479390Y5903372D01*
X4478557Y5903025D01*
X4476822Y5902261D01*
X4476752Y5902192D01*
X4476475Y5902123D01*
X4476058Y5901914D01*
X4475573Y5901637D01*
X4474948Y5901359D01*
X4474393Y5901012D01*
X4473144Y5900388D01*
X4473074D01*
X4472935Y5900249D01*
X4472658Y5900110D01*
X4472311Y5899971D01*
X4471617Y5899694D01*
X4471270Y5899624D01*
X4470992Y5899555D01*
X4470715D01*
X4470437Y5899624D01*
X4470159Y5899763D01*
X4470090Y5899833D01*
X4469951Y5899902D01*
X4469743Y5900180D01*
X4469535Y5900457D01*
X4469465Y5900526D01*
X4469396Y5900804D01*
X4469257Y5901221D01*
X4469118Y5901706D01*
Y5901776D01*
Y5901845D01*
Y5902192D01*
X4469049Y5902747D01*
Y5903372D01*
Y5903441D01*
Y5903650D01*
Y5903858D01*
Y5904205D01*
X4469118Y5904968D01*
X4469257Y5905662D01*
Y5905731D01*
X4469327Y5905801D01*
X4469465Y5906217D01*
X4469743Y5906773D01*
X4470229Y5907328D01*
X4470298Y5907397D01*
X4470368Y5907467D01*
X4470576Y5907675D01*
X4470923Y5907883D01*
X4471270Y5908160D01*
X4471756Y5908438D01*
X4472311Y5908855D01*
X4473005Y5909202D01*
X4473074Y5909271D01*
X4473352Y5909410D01*
X4473768Y5909548D01*
X4474323Y5909826D01*
X4475017Y5910104D01*
X4475781Y5910451D01*
X4476683Y5910728D01*
X4477585Y5911075D01*
X4477724Y5911145D01*
X4478071Y5911214D01*
X4478557Y5911422D01*
X4479251Y5911631D01*
X4480084Y5911839D01*
X4481055Y5912047D01*
X4482096Y5912324D01*
X4483207Y5912533D01*
X4483345D01*
X4483762Y5912602D01*
X4484317Y5912741D01*
X4485150Y5912880D01*
X4486052Y5912949D01*
X4487093Y5913088D01*
X4488203Y5913157D01*
X4490355D01*
X4490841Y5913088D01*
D02*
G37*
G36*
X4448507Y5938419D02*
X4449270Y5938350D01*
X4449409D01*
X4449825Y5938280D01*
X4450311Y5938141D01*
X4450797Y5937933D01*
X4450866Y5937864D01*
X4451074Y5937794D01*
X4451352Y5937586D01*
X4451560Y5937378D01*
X4451630Y5937309D01*
X4451699Y5937170D01*
X4451768Y5936892D01*
X4451838Y5936545D01*
Y5856458D01*
Y5856388D01*
Y5856180D01*
X4451699Y5855902D01*
X4451560Y5855625D01*
X4451491Y5855555D01*
X4451421Y5855486D01*
X4451144Y5855278D01*
X4450797Y5855139D01*
X4450727D01*
X4450380Y5855000D01*
X4449895Y5854931D01*
X4449270Y5854792D01*
X4449131D01*
X4448854Y5854722D01*
X4448576D01*
X4447813Y5854653D01*
X4446008D01*
X4445175Y5854722D01*
X4444412Y5854792D01*
X4444273D01*
X4443857Y5854861D01*
X4443371Y5855000D01*
X4442885Y5855139D01*
X4442816Y5855208D01*
X4442608Y5855278D01*
X4442330Y5855417D01*
X4442122Y5855625D01*
Y5855694D01*
X4442052Y5855833D01*
X4441983Y5856110D01*
X4441914Y5856458D01*
Y5936545D01*
Y5936614D01*
Y5936823D01*
X4441983Y5937100D01*
X4442122Y5937378D01*
X4442191Y5937447D01*
X4442330Y5937586D01*
X4442538Y5937794D01*
X4442885Y5937933D01*
X4443024Y5938002D01*
X4443302Y5938072D01*
X4443787Y5938211D01*
X4444412Y5938350D01*
X4444620D01*
X4444828Y5938419D01*
X4445106D01*
X4445869Y5938488D01*
X4447674D01*
X4448507Y5938419D01*
D02*
G37*
G36*
X4402633Y5932520D02*
X4403397Y5932450D01*
X4405132Y5932312D01*
X4405270D01*
X4405548Y5932242D01*
X4406034D01*
X4406658Y5932104D01*
X4407491Y5932034D01*
X4408393Y5931826D01*
X4409434Y5931618D01*
X4410545Y5931409D01*
X4410684D01*
X4411100Y5931271D01*
X4411725Y5931132D01*
X4412557Y5930854D01*
X4413529Y5930507D01*
X4414639Y5930091D01*
X4415819Y5929536D01*
X4416999Y5928842D01*
X4417068D01*
X4417138Y5928772D01*
X4417554Y5928495D01*
X4418179Y5928078D01*
X4418942Y5927592D01*
X4419775Y5926899D01*
X4420747Y5926066D01*
X4421649Y5925163D01*
X4422551Y5924192D01*
X4422620Y5924053D01*
X4422898Y5923706D01*
X4423314Y5923151D01*
X4423870Y5922387D01*
X4424425Y5921416D01*
X4424980Y5920375D01*
X4425605Y5919126D01*
X4426090Y5917807D01*
Y5917738D01*
X4426160Y5917668D01*
X4426229Y5917460D01*
X4426299Y5917182D01*
X4426507Y5916419D01*
X4426715Y5915448D01*
X4426923Y5914268D01*
X4427131Y5912949D01*
X4427270Y5911422D01*
X4427340Y5909826D01*
Y5909757D01*
Y5909548D01*
Y5909271D01*
Y5908855D01*
X4427270Y5908299D01*
Y5907744D01*
X4427201Y5907050D01*
X4427131Y5906356D01*
X4426854Y5904690D01*
X4426507Y5902886D01*
X4426021Y5901082D01*
X4425396Y5899277D01*
Y5899208D01*
X4425327Y5899069D01*
X4425188Y5898861D01*
X4425049Y5898514D01*
X4424841Y5898097D01*
X4424564Y5897612D01*
X4424008Y5896571D01*
X4423176Y5895322D01*
X4422204Y5893934D01*
X4421094Y5892615D01*
X4419844Y5891296D01*
X4419775Y5891227D01*
X4419706Y5891158D01*
X4419497Y5891019D01*
X4419220Y5890741D01*
X4418873Y5890463D01*
X4418456Y5890186D01*
X4417415Y5889422D01*
X4416166Y5888659D01*
X4414639Y5887757D01*
X4412974Y5886993D01*
X4411100Y5886230D01*
X4411031D01*
X4410892Y5886161D01*
X4410614Y5886091D01*
X4410198Y5885953D01*
X4409712Y5885814D01*
X4409087Y5885675D01*
X4408393Y5885536D01*
X4407630Y5885397D01*
X4406797Y5885189D01*
X4405826Y5885050D01*
X4404785Y5884912D01*
X4403744Y5884773D01*
X4401384Y5884565D01*
X4398747Y5884495D01*
X4390002D01*
Y5856527D01*
Y5856458D01*
Y5856249D01*
X4389864Y5855972D01*
X4389725Y5855694D01*
X4389655Y5855625D01*
X4389517Y5855486D01*
X4389239Y5855347D01*
X4388823Y5855139D01*
X4388753D01*
X4388406Y5855069D01*
X4387920Y5855000D01*
X4387296Y5854861D01*
X4387157D01*
X4386879Y5854792D01*
X4386602D01*
X4386255Y5854722D01*
X4385838D01*
X4384797Y5854653D01*
X4383895D01*
X4383132Y5854722D01*
X4382299Y5854861D01*
X4382160D01*
X4381744Y5854931D01*
X4381189Y5855069D01*
X4380703Y5855139D01*
X4380633Y5855208D01*
X4380356Y5855278D01*
X4380078Y5855486D01*
X4379870Y5855694D01*
Y5855764D01*
X4379801Y5855902D01*
X4379731Y5856180D01*
X4379662Y5856527D01*
Y5928148D01*
Y5928287D01*
Y5928564D01*
X4379731Y5928980D01*
X4379801Y5929466D01*
X4379939Y5930021D01*
X4380217Y5930577D01*
X4380495Y5931132D01*
X4380911Y5931548D01*
X4380980Y5931618D01*
X4381119Y5931687D01*
X4381397Y5931895D01*
X4381744Y5932104D01*
X4382160Y5932242D01*
X4382646Y5932450D01*
X4383132Y5932520D01*
X4383687Y5932589D01*
X4401870D01*
X4402633Y5932520D01*
D02*
G37*
G36*
X4329139Y5938419D02*
X4329902Y5938350D01*
X4330041D01*
X4330457Y5938280D01*
X4330943Y5938141D01*
X4331429Y5937933D01*
X4331498Y5937864D01*
X4331706Y5937794D01*
X4331984Y5937586D01*
X4332192Y5937378D01*
X4332262Y5937309D01*
X4332331Y5937170D01*
X4332400Y5936892D01*
X4332470Y5936545D01*
Y5856458D01*
Y5856388D01*
Y5856180D01*
X4332331Y5855902D01*
X4332192Y5855625D01*
X4332123Y5855555D01*
X4332053Y5855486D01*
X4331776Y5855278D01*
X4331429Y5855139D01*
X4331359D01*
X4331012Y5855000D01*
X4330527Y5854931D01*
X4329902Y5854792D01*
X4329763D01*
X4329486Y5854722D01*
X4329208D01*
X4328445Y5854653D01*
X4326640D01*
X4325807Y5854722D01*
X4325044Y5854792D01*
X4324905D01*
X4324489Y5854861D01*
X4324003Y5855000D01*
X4323517Y5855139D01*
X4323448Y5855208D01*
X4323240Y5855278D01*
X4322962Y5855417D01*
X4322754Y5855625D01*
Y5855694D01*
X4322684Y5855833D01*
X4322615Y5856110D01*
X4322546Y5856458D01*
Y5936545D01*
Y5936614D01*
Y5936823D01*
X4322615Y5937100D01*
X4322754Y5937378D01*
X4322823Y5937447D01*
X4322962Y5937586D01*
X4323170Y5937794D01*
X4323517Y5937933D01*
X4323656Y5938002D01*
X4323934Y5938072D01*
X4324419Y5938211D01*
X4325044Y5938350D01*
X4325252D01*
X4325460Y5938419D01*
X4325738D01*
X4326501Y5938488D01*
X4328306D01*
X4329139Y5938419D01*
D02*
G37*
G36*
X4284514Y5913088D02*
X4285139D01*
X4285764Y5913019D01*
X4286458D01*
X4288054Y5912810D01*
X4289650Y5912602D01*
X4291316Y5912255D01*
X4292912Y5911839D01*
X4292981D01*
X4293120Y5911769D01*
X4293328Y5911700D01*
X4293606Y5911561D01*
X4294369Y5911283D01*
X4295271Y5910867D01*
X4296312Y5910312D01*
X4297423Y5909618D01*
X4298533Y5908855D01*
X4299505Y5907952D01*
X4299644Y5907814D01*
X4299921Y5907467D01*
X4300407Y5906911D01*
X4300962Y5906217D01*
X4301517Y5905246D01*
X4302142Y5904205D01*
X4302697Y5902956D01*
X4303183Y5901568D01*
Y5901498D01*
X4303252Y5901429D01*
X4303322Y5901221D01*
X4303391Y5900873D01*
X4303461Y5900526D01*
X4303530Y5900110D01*
X4303808Y5899069D01*
X4304016Y5897820D01*
X4304155Y5896293D01*
X4304293Y5894627D01*
X4304363Y5892823D01*
Y5856388D01*
Y5856249D01*
X4304293Y5855972D01*
X4304155Y5855625D01*
X4303877Y5855347D01*
X4303808Y5855278D01*
X4303530Y5855139D01*
X4303114Y5855000D01*
X4302489Y5854861D01*
X4302350D01*
X4302142Y5854792D01*
X4301864D01*
X4301517Y5854722D01*
X4301101D01*
X4300615Y5854653D01*
X4299158D01*
X4298394Y5854722D01*
X4297562Y5854861D01*
X4297423D01*
X4297076Y5855000D01*
X4296659Y5855139D01*
X4296243Y5855347D01*
X4296174Y5855417D01*
X4296035Y5855625D01*
X4295896Y5855902D01*
X4295827Y5856388D01*
Y5861801D01*
X4295757Y5861732D01*
X4295688Y5861663D01*
X4295480Y5861454D01*
X4295202Y5861177D01*
X4294508Y5860483D01*
X4293536Y5859650D01*
X4292357Y5858748D01*
X4290969Y5857776D01*
X4289511Y5856805D01*
X4287915Y5855972D01*
X4287846D01*
X4287707Y5855902D01*
X4287499Y5855764D01*
X4287152Y5855625D01*
X4286805Y5855486D01*
X4286319Y5855347D01*
X4285139Y5854931D01*
X4283820Y5854584D01*
X4282224Y5854237D01*
X4280559Y5853959D01*
X4278754Y5853890D01*
X4278060D01*
X4277644Y5853959D01*
X4277227D01*
X4276186Y5854029D01*
X4274937Y5854167D01*
X4273688Y5854376D01*
X4272300Y5854653D01*
X4270981Y5855000D01*
X4270912D01*
X4270843Y5855069D01*
X4270426Y5855208D01*
X4269802Y5855417D01*
X4268969Y5855764D01*
X4268067Y5856249D01*
X4267095Y5856735D01*
X4266123Y5857360D01*
X4265152Y5858123D01*
X4265013Y5858193D01*
X4264735Y5858539D01*
X4264319Y5858956D01*
X4263764Y5859581D01*
X4263139Y5860344D01*
X4262515Y5861246D01*
X4261959Y5862218D01*
X4261404Y5863328D01*
Y5863398D01*
X4261335Y5863467D01*
X4261196Y5863883D01*
X4260988Y5864508D01*
X4260780Y5865341D01*
X4260502Y5866382D01*
X4260294Y5867561D01*
X4260155Y5868880D01*
X4260086Y5870268D01*
Y5870337D01*
Y5870476D01*
Y5870685D01*
Y5871032D01*
X4260155Y5871448D01*
Y5871864D01*
X4260294Y5872975D01*
X4260502Y5874224D01*
X4260849Y5875542D01*
X4261265Y5876861D01*
X4261890Y5878180D01*
Y5878249D01*
X4261959Y5878319D01*
X4262237Y5878735D01*
X4262653Y5879359D01*
X4263278Y5880192D01*
X4264041Y5881025D01*
X4264944Y5881997D01*
X4265985Y5882899D01*
X4267234Y5883801D01*
X4267303D01*
X4267373Y5883870D01*
X4267581Y5884009D01*
X4267858Y5884148D01*
X4268205Y5884356D01*
X4268622Y5884565D01*
X4269593Y5885050D01*
X4270843Y5885605D01*
X4272300Y5886161D01*
X4273896Y5886646D01*
X4275701Y5887132D01*
X4275770D01*
X4275909Y5887202D01*
X4276186Y5887271D01*
X4276603Y5887341D01*
X4277089Y5887410D01*
X4277644Y5887479D01*
X4278268Y5887618D01*
X4279032Y5887688D01*
X4279865Y5887826D01*
X4280697Y5887896D01*
X4282641Y5888104D01*
X4284792Y5888173D01*
X4287082Y5888243D01*
X4294508D01*
Y5892407D01*
Y5892476D01*
Y5892546D01*
Y5892962D01*
Y5893517D01*
X4294439Y5894280D01*
X4294369Y5895113D01*
X4294230Y5896016D01*
X4294022Y5896987D01*
X4293814Y5897889D01*
Y5898028D01*
X4293675Y5898306D01*
X4293536Y5898722D01*
X4293328Y5899277D01*
X4293051Y5899902D01*
X4292634Y5900596D01*
X4292218Y5901221D01*
X4291663Y5901845D01*
X4291593Y5901914D01*
X4291385Y5902123D01*
X4291107Y5902400D01*
X4290622Y5902747D01*
X4290066Y5903164D01*
X4289442Y5903580D01*
X4288678Y5903927D01*
X4287846Y5904274D01*
X4287776Y5904343D01*
X4287429Y5904413D01*
X4286943Y5904552D01*
X4286249Y5904690D01*
X4285486Y5904829D01*
X4284514Y5904968D01*
X4283404Y5905107D01*
X4281530D01*
X4280836Y5905038D01*
X4279934Y5904968D01*
X4278962Y5904899D01*
X4277852Y5904760D01*
X4276672Y5904482D01*
X4275562Y5904205D01*
X4275423Y5904135D01*
X4275076Y5904066D01*
X4274521Y5903858D01*
X4273896Y5903650D01*
X4273063Y5903372D01*
X4272231Y5903025D01*
X4270496Y5902261D01*
X4270426Y5902192D01*
X4270149Y5902123D01*
X4269732Y5901914D01*
X4269246Y5901637D01*
X4268622Y5901359D01*
X4268067Y5901012D01*
X4266817Y5900388D01*
X4266748D01*
X4266609Y5900249D01*
X4266332Y5900110D01*
X4265985Y5899971D01*
X4265291Y5899694D01*
X4264944Y5899624D01*
X4264666Y5899555D01*
X4264388D01*
X4264111Y5899624D01*
X4263833Y5899763D01*
X4263764Y5899833D01*
X4263625Y5899902D01*
X4263417Y5900180D01*
X4263209Y5900457D01*
X4263139Y5900526D01*
X4263070Y5900804D01*
X4262931Y5901221D01*
X4262792Y5901706D01*
Y5901776D01*
Y5901845D01*
Y5902192D01*
X4262723Y5902747D01*
Y5903372D01*
Y5903441D01*
Y5903650D01*
Y5903858D01*
Y5904205D01*
X4262792Y5904968D01*
X4262931Y5905662D01*
Y5905731D01*
X4263000Y5905801D01*
X4263139Y5906217D01*
X4263417Y5906773D01*
X4263903Y5907328D01*
X4263972Y5907397D01*
X4264041Y5907467D01*
X4264250Y5907675D01*
X4264597Y5907883D01*
X4264944Y5908160D01*
X4265429Y5908438D01*
X4265985Y5908855D01*
X4266679Y5909202D01*
X4266748Y5909271D01*
X4267026Y5909410D01*
X4267442Y5909548D01*
X4267997Y5909826D01*
X4268691Y5910104D01*
X4269455Y5910451D01*
X4270357Y5910728D01*
X4271259Y5911075D01*
X4271398Y5911145D01*
X4271745Y5911214D01*
X4272231Y5911422D01*
X4272925Y5911631D01*
X4273757Y5911839D01*
X4274729Y5912047D01*
X4275770Y5912324D01*
X4276880Y5912533D01*
X4277019D01*
X4277436Y5912602D01*
X4277991Y5912741D01*
X4278824Y5912880D01*
X4279726Y5912949D01*
X4280767Y5913088D01*
X4281877Y5913157D01*
X4284029D01*
X4284514Y5913088D01*
D02*
G37*
G36*
X3966871Y5932867D02*
X3967634Y5932728D01*
X3967773D01*
X3968189Y5932659D01*
X3968744Y5932520D01*
X3969230Y5932381D01*
X3969300Y5932312D01*
X3969577Y5932242D01*
X3969855Y5932034D01*
X3970063Y5931826D01*
X3970132Y5931756D01*
X3970202Y5931618D01*
X3970271Y5931340D01*
X3970341Y5930993D01*
Y5856527D01*
Y5856457D01*
Y5856249D01*
X3970202Y5855972D01*
X3970063Y5855694D01*
X3969994Y5855625D01*
X3969855Y5855486D01*
X3969647Y5855347D01*
X3969230Y5855139D01*
X3969091D01*
X3968814Y5855069D01*
X3968328Y5855000D01*
X3967634Y5854861D01*
X3967495D01*
X3967218Y5854792D01*
X3966940D01*
X3966593Y5854722D01*
X3966177D01*
X3965136Y5854653D01*
X3964303D01*
X3963470Y5854722D01*
X3962637Y5854861D01*
X3962498D01*
X3962082Y5854931D01*
X3961527Y5855069D01*
X3961041Y5855139D01*
X3960972Y5855208D01*
X3960694Y5855278D01*
X3960416Y5855486D01*
X3960208Y5855694D01*
Y5855763D01*
X3960139Y5855902D01*
X3960069Y5856180D01*
X3960000Y5856527D01*
Y5930993D01*
Y5931062D01*
Y5931271D01*
X3960069Y5931548D01*
X3960208Y5931826D01*
X3960278Y5931895D01*
X3960416Y5932034D01*
X3960694Y5932242D01*
X3961110Y5932381D01*
X3961249Y5932450D01*
X3961527Y5932520D01*
X3962082Y5932589D01*
X3962707Y5932728D01*
X3962776D01*
X3962915Y5932797D01*
X3963123D01*
X3963401Y5932867D01*
X3964164Y5932936D01*
X3966038D01*
X3966871Y5932867D01*
D02*
G37*
G36*
X4063198Y5926621D02*
X4063961Y5926551D01*
X4064100D01*
X4064516Y5926482D01*
X4065002Y5926343D01*
X4065488Y5926135D01*
X4065557Y5926066D01*
X4065766Y5925927D01*
X4066043Y5925788D01*
X4066251Y5925510D01*
X4066321Y5925441D01*
X4066390Y5925302D01*
X4066460Y5925025D01*
X4066529Y5924747D01*
Y5911977D01*
X4080617D01*
X4080895Y5911839D01*
X4081172Y5911700D01*
X4081242Y5911630D01*
X4081381Y5911561D01*
X4081589Y5911353D01*
X4081797Y5911006D01*
X4081866Y5910936D01*
X4081936Y5910659D01*
X4082075Y5910242D01*
X4082213Y5909687D01*
Y5909548D01*
X4082283Y5909201D01*
X4082352Y5908577D01*
Y5907813D01*
Y5907744D01*
Y5907466D01*
Y5907050D01*
X4082283Y5906634D01*
X4082144Y5905593D01*
X4082005Y5905107D01*
X4081797Y5904690D01*
Y5904621D01*
X4081728Y5904552D01*
X4081381Y5904274D01*
X4080964Y5903927D01*
X4080687Y5903858D01*
X4080340Y5903788D01*
X4066529D01*
Y5873669D01*
Y5873599D01*
Y5873460D01*
Y5873113D01*
Y5872766D01*
X4066598Y5872281D01*
Y5871795D01*
X4066737Y5870546D01*
X4066945Y5869158D01*
X4067223Y5867770D01*
X4067570Y5866451D01*
X4068125Y5865271D01*
X4068195Y5865132D01*
X4068472Y5864855D01*
X4068889Y5864369D01*
X4069513Y5863883D01*
X4070277Y5863328D01*
X4071318Y5862842D01*
X4072567Y5862565D01*
X4074024Y5862426D01*
X4074857D01*
X4075620Y5862495D01*
X4076453Y5862634D01*
X4076523D01*
X4076661Y5862703D01*
X4076870Y5862773D01*
X4077147Y5862842D01*
X4077772Y5862981D01*
X4078396Y5863189D01*
X4078466D01*
X4078535Y5863259D01*
X4078882Y5863397D01*
X4079368Y5863606D01*
X4079854Y5863814D01*
X4079993Y5863883D01*
X4080201Y5863953D01*
X4080617Y5864022D01*
X4080964Y5864091D01*
X4081172D01*
X4081311Y5864022D01*
X4081519Y5863883D01*
X4081589D01*
X4081658Y5863744D01*
X4081797Y5863606D01*
X4081936Y5863328D01*
Y5863259D01*
X4082005Y5863050D01*
X4082144Y5862703D01*
X4082213Y5862218D01*
Y5862079D01*
X4082283Y5861732D01*
X4082352Y5861177D01*
Y5860413D01*
Y5860344D01*
Y5860136D01*
Y5859789D01*
Y5859442D01*
X4082213Y5858539D01*
X4082075Y5857637D01*
Y5857568D01*
X4082005Y5857498D01*
X4081936Y5857082D01*
X4081728Y5856527D01*
X4081381Y5856110D01*
X4081311Y5856041D01*
X4081034Y5855833D01*
X4080548Y5855555D01*
X4079923Y5855278D01*
X4079854D01*
X4079784Y5855208D01*
X4079576Y5855139D01*
X4079299Y5855069D01*
X4078605Y5854861D01*
X4077702Y5854653D01*
X4077633D01*
X4077494Y5854584D01*
X4077286D01*
X4076939Y5854514D01*
X4076106Y5854306D01*
X4075135Y5854167D01*
X4074926D01*
X4074649Y5854098D01*
X4074302D01*
X4073400Y5854028D01*
X4072359Y5853959D01*
X4071665D01*
X4070832Y5854028D01*
X4069860Y5854098D01*
X4068750Y5854237D01*
X4067501Y5854375D01*
X4066321Y5854653D01*
X4065141Y5855000D01*
X4065002Y5855069D01*
X4064655Y5855208D01*
X4064100Y5855486D01*
X4063406Y5855833D01*
X4062643Y5856319D01*
X4061810Y5856874D01*
X4060977Y5857568D01*
X4060214Y5858331D01*
X4060144Y5858470D01*
X4059936Y5858748D01*
X4059589Y5859233D01*
X4059173Y5859927D01*
X4058687Y5860760D01*
X4058270Y5861732D01*
X4057785Y5862842D01*
X4057438Y5864091D01*
Y5864161D01*
Y5864230D01*
X4057368Y5864438D01*
X4057299Y5864716D01*
X4057160Y5865410D01*
X4057021Y5866382D01*
X4056882Y5867631D01*
X4056744Y5868949D01*
X4056674Y5870546D01*
X4056605Y5872211D01*
Y5903788D01*
X4048901D01*
X4048554Y5903927D01*
X4048069Y5904205D01*
X4047791Y5904413D01*
X4047583Y5904690D01*
Y5904760D01*
X4047513Y5904899D01*
X4047444Y5905107D01*
X4047375Y5905454D01*
X4047236Y5905870D01*
X4047166Y5906425D01*
X4047097Y5907050D01*
Y5907813D01*
Y5907883D01*
Y5908022D01*
Y5908230D01*
Y5908438D01*
X4047166Y5909063D01*
X4047236Y5909687D01*
Y5909757D01*
Y5909826D01*
X4047305Y5910173D01*
X4047444Y5910589D01*
X4047583Y5911006D01*
X4047652Y5911075D01*
X4047791Y5911283D01*
X4047999Y5911492D01*
X4048207Y5911700D01*
X4048277Y5911769D01*
X4048485Y5911839D01*
X4048763Y5911908D01*
X4049110Y5911977D01*
X4056605D01*
Y5924747D01*
Y5924816D01*
Y5925025D01*
X4056674Y5925233D01*
X4056813Y5925510D01*
X4056882Y5925580D01*
X4057021Y5925719D01*
X4057229Y5925927D01*
X4057576Y5926135D01*
X4057715Y5926204D01*
X4057993Y5926274D01*
X4058479Y5926413D01*
X4059103Y5926551D01*
X4059311D01*
X4059520Y5926621D01*
X4059797D01*
X4060561Y5926690D01*
X4062365D01*
X4063198Y5926621D01*
D02*
G37*
G36*
X4617218Y5913088D02*
X4617843Y5913019D01*
X4618537D01*
X4619369Y5912880D01*
X4621035Y5912672D01*
X4622839Y5912255D01*
X4624644Y5911769D01*
X4626379Y5911075D01*
X4626448D01*
X4626587Y5911006D01*
X4626795Y5910867D01*
X4627142Y5910728D01*
X4627489Y5910520D01*
X4627975Y5910243D01*
X4629016Y5909618D01*
X4630126Y5908855D01*
X4631376Y5907883D01*
X4632625Y5906842D01*
X4633735Y5905593D01*
X4633805Y5905523D01*
X4633874Y5905454D01*
X4634013Y5905246D01*
X4634221Y5904968D01*
X4634707Y5904274D01*
X4635331Y5903302D01*
X4636025Y5902053D01*
X4636719Y5900735D01*
X4637413Y5899139D01*
X4637969Y5897473D01*
Y5897404D01*
X4638038Y5897265D01*
X4638107Y5896987D01*
X4638177Y5896709D01*
X4638316Y5896224D01*
X4638385Y5895738D01*
X4638524Y5895183D01*
X4638663Y5894558D01*
X4638940Y5893031D01*
X4639148Y5891366D01*
X4639287Y5889561D01*
X4639357Y5887618D01*
Y5885814D01*
Y5885744D01*
Y5885467D01*
X4639287Y5885050D01*
X4639218Y5884495D01*
X4639079Y5883940D01*
X4638871Y5883385D01*
X4638593Y5882899D01*
X4638177Y5882483D01*
X4638107Y5882413D01*
X4637969Y5882344D01*
X4637691Y5882205D01*
X4637413Y5881997D01*
X4636997Y5881788D01*
X4636511Y5881650D01*
X4636025Y5881580D01*
X4635470Y5881511D01*
X4600007D01*
Y5881441D01*
Y5881303D01*
Y5881095D01*
Y5880748D01*
Y5880331D01*
X4600076Y5879915D01*
X4600146Y5878804D01*
X4600215Y5877555D01*
X4600423Y5876167D01*
X4600631Y5874779D01*
X4600909Y5873391D01*
Y5873322D01*
X4600978Y5873252D01*
Y5873044D01*
X4601117Y5872766D01*
X4601325Y5872142D01*
X4601603Y5871240D01*
X4602019Y5870268D01*
X4602575Y5869297D01*
X4603199Y5868186D01*
X4603893Y5867215D01*
X4603963Y5867076D01*
X4604240Y5866798D01*
X4604726Y5866312D01*
X4605351Y5865757D01*
X4606114Y5865132D01*
X4607086Y5864439D01*
X4608127Y5863814D01*
X4609306Y5863259D01*
X4609376D01*
X4609445Y5863189D01*
X4609653Y5863120D01*
X4609931Y5863051D01*
X4610625Y5862842D01*
X4611597Y5862634D01*
X4612846Y5862356D01*
X4614234Y5862148D01*
X4615830Y5862010D01*
X4617634Y5861940D01*
X4618259D01*
X4619022Y5862010D01*
X4619925D01*
X4620966Y5862079D01*
X4622145Y5862218D01*
X4623256Y5862356D01*
X4624436Y5862565D01*
X4624574D01*
X4624921Y5862703D01*
X4625546Y5862773D01*
X4626240Y5862981D01*
X4627073Y5863189D01*
X4627906Y5863398D01*
X4628808Y5863675D01*
X4629641Y5863953D01*
X4629710Y5864022D01*
X4629988Y5864092D01*
X4630404Y5864230D01*
X4630959Y5864439D01*
X4632070Y5864855D01*
X4632694Y5865132D01*
X4633249Y5865341D01*
X4633319D01*
X4633458Y5865480D01*
X4633735Y5865549D01*
X4634082Y5865688D01*
X4634776Y5865896D01*
X4635123Y5866035D01*
X4635678D01*
X4635887Y5865896D01*
X4636164Y5865757D01*
X4636234Y5865688D01*
X4636372Y5865618D01*
X4636511Y5865410D01*
X4636650Y5865132D01*
X4636719Y5865063D01*
X4636789Y5864855D01*
X4636858Y5864439D01*
X4636928Y5863953D01*
Y5863814D01*
X4636997Y5863467D01*
X4637066Y5862912D01*
Y5862148D01*
Y5862010D01*
Y5861663D01*
Y5861246D01*
X4636997Y5860760D01*
Y5860691D01*
X4636928Y5860413D01*
X4636858Y5860066D01*
X4636789Y5859719D01*
Y5859650D01*
X4636719Y5859442D01*
X4636511Y5858956D01*
X4636442Y5858886D01*
X4636372Y5858748D01*
X4635956Y5858262D01*
X4635887Y5858193D01*
X4635817Y5858123D01*
X4635609Y5858054D01*
X4635331Y5857915D01*
X4635054Y5857707D01*
X4634568Y5857498D01*
X4634013Y5857221D01*
X4633943D01*
X4633735Y5857082D01*
X4633388Y5856943D01*
X4632902Y5856735D01*
X4632278Y5856527D01*
X4631584Y5856249D01*
X4630751Y5855972D01*
X4629849Y5855694D01*
X4629710D01*
X4629363Y5855555D01*
X4628877Y5855417D01*
X4628114Y5855278D01*
X4627281Y5855069D01*
X4626240Y5854861D01*
X4625130Y5854653D01*
X4623880Y5854445D01*
X4623742D01*
X4623533Y5854376D01*
X4623325D01*
X4622631Y5854306D01*
X4621729Y5854167D01*
X4620619Y5854098D01*
X4619369Y5853959D01*
X4618051Y5853890D01*
X4615552D01*
X4614997Y5853959D01*
X4614303D01*
X4613540Y5854029D01*
X4612707Y5854098D01*
X4610903Y5854306D01*
X4608959Y5854653D01*
X4606947Y5855069D01*
X4605004Y5855694D01*
X4604934D01*
X4604795Y5855764D01*
X4604518Y5855902D01*
X4604171Y5856041D01*
X4603754Y5856249D01*
X4603269Y5856458D01*
X4602089Y5857082D01*
X4600770Y5857846D01*
X4599382Y5858817D01*
X4597925Y5859927D01*
X4596606Y5861177D01*
X4596537Y5861246D01*
X4596467Y5861315D01*
X4596259Y5861524D01*
X4596051Y5861871D01*
X4595773Y5862218D01*
X4595426Y5862634D01*
X4595079Y5863120D01*
X4594663Y5863675D01*
X4593830Y5865063D01*
X4592997Y5866590D01*
X4592165Y5868394D01*
X4591471Y5870337D01*
Y5870407D01*
X4591401Y5870615D01*
X4591332Y5870893D01*
X4591193Y5871309D01*
X4591054Y5871864D01*
X4590915Y5872489D01*
X4590777Y5873183D01*
X4590638Y5874016D01*
X4590430Y5874918D01*
X4590291Y5875959D01*
X4590152Y5877000D01*
X4590013Y5878110D01*
X4589805Y5880609D01*
X4589736Y5883246D01*
Y5883315D01*
Y5883524D01*
Y5883940D01*
Y5884426D01*
X4589805Y5885050D01*
Y5885744D01*
X4589874Y5886508D01*
X4589944Y5887410D01*
X4590152Y5889353D01*
X4590499Y5891435D01*
X4590915Y5893587D01*
X4591471Y5895738D01*
Y5895807D01*
X4591540Y5896016D01*
X4591679Y5896293D01*
X4591818Y5896640D01*
X4592026Y5897126D01*
X4592234Y5897681D01*
X4592789Y5899000D01*
X4593553Y5900457D01*
X4594455Y5902053D01*
X4595496Y5903580D01*
X4596676Y5905107D01*
X4596745Y5905176D01*
X4596814Y5905246D01*
X4597023Y5905454D01*
X4597300Y5905731D01*
X4597994Y5906426D01*
X4598966Y5907328D01*
X4600146Y5908299D01*
X4601534Y5909271D01*
X4603130Y5910243D01*
X4604865Y5911075D01*
X4604934D01*
X4605073Y5911145D01*
X4605351Y5911283D01*
X4605698Y5911422D01*
X4606183Y5911561D01*
X4606669Y5911769D01*
X4607294Y5911908D01*
X4607988Y5912116D01*
X4608751Y5912324D01*
X4609584Y5912533D01*
X4611458Y5912810D01*
X4613470Y5913088D01*
X4615622Y5913157D01*
X4616663D01*
X4617218Y5913088D01*
D02*
G37*
G36*
X4119273Y5913088D02*
X4119898Y5913018D01*
X4120592D01*
X4121424Y5912880D01*
X4123090Y5912671D01*
X4124894Y5912255D01*
X4126699Y5911769D01*
X4128434Y5911075D01*
X4128503D01*
X4128642Y5911006D01*
X4128850Y5910867D01*
X4129197Y5910728D01*
X4129544Y5910520D01*
X4130030Y5910242D01*
X4131071Y5909618D01*
X4132181Y5908854D01*
X4133431Y5907883D01*
X4134680Y5906842D01*
X4135790Y5905593D01*
X4135860Y5905523D01*
X4135929Y5905454D01*
X4136068Y5905246D01*
X4136276Y5904968D01*
X4136762Y5904274D01*
X4137386Y5903302D01*
X4138080Y5902053D01*
X4138774Y5900735D01*
X4139468Y5899138D01*
X4140024Y5897473D01*
Y5897403D01*
X4140093Y5897265D01*
X4140162Y5896987D01*
X4140232Y5896709D01*
X4140371Y5896224D01*
X4140440Y5895738D01*
X4140579Y5895183D01*
X4140718Y5894558D01*
X4140995Y5893031D01*
X4141203Y5891366D01*
X4141342Y5889561D01*
X4141412Y5887618D01*
Y5885814D01*
Y5885744D01*
Y5885467D01*
X4141342Y5885050D01*
X4141273Y5884495D01*
X4141134Y5883940D01*
X4140926Y5883385D01*
X4140648Y5882899D01*
X4140232Y5882482D01*
X4140162Y5882413D01*
X4140024Y5882344D01*
X4139746Y5882205D01*
X4139468Y5881997D01*
X4139052Y5881788D01*
X4138566Y5881650D01*
X4138080Y5881580D01*
X4137525Y5881511D01*
X4102062D01*
Y5881441D01*
Y5881303D01*
Y5881094D01*
Y5880747D01*
Y5880331D01*
X4102131Y5879915D01*
X4102201Y5878804D01*
X4102270Y5877555D01*
X4102478Y5876167D01*
X4102686Y5874779D01*
X4102964Y5873391D01*
Y5873322D01*
X4103033Y5873252D01*
Y5873044D01*
X4103172Y5872766D01*
X4103380Y5872142D01*
X4103658Y5871240D01*
X4104074Y5870268D01*
X4104630Y5869296D01*
X4105254Y5868186D01*
X4105948Y5867214D01*
X4106018Y5867076D01*
X4106295Y5866798D01*
X4106781Y5866312D01*
X4107406Y5865757D01*
X4108169Y5865132D01*
X4109141Y5864438D01*
X4110182Y5863814D01*
X4111361Y5863259D01*
X4111431D01*
X4111500Y5863189D01*
X4111708Y5863120D01*
X4111986Y5863050D01*
X4112680Y5862842D01*
X4113652Y5862634D01*
X4114901Y5862356D01*
X4116289Y5862148D01*
X4117885Y5862009D01*
X4119689Y5861940D01*
X4120314D01*
X4121077Y5862009D01*
X4121980D01*
X4123021Y5862079D01*
X4124200Y5862218D01*
X4125311Y5862356D01*
X4126491Y5862565D01*
X4126629D01*
X4126976Y5862703D01*
X4127601Y5862773D01*
X4128295Y5862981D01*
X4129128Y5863189D01*
X4129961Y5863397D01*
X4130863Y5863675D01*
X4131696Y5863953D01*
X4131765Y5864022D01*
X4132043Y5864091D01*
X4132459Y5864230D01*
X4133014Y5864438D01*
X4134125Y5864855D01*
X4134749Y5865132D01*
X4135304Y5865341D01*
X4135374D01*
X4135513Y5865479D01*
X4135790Y5865549D01*
X4136137Y5865688D01*
X4136831Y5865896D01*
X4137178Y5866035D01*
X4137733D01*
X4137942Y5865896D01*
X4138219Y5865757D01*
X4138289Y5865688D01*
X4138427Y5865618D01*
X4138566Y5865410D01*
X4138705Y5865132D01*
X4138774Y5865063D01*
X4138844Y5864855D01*
X4138913Y5864438D01*
X4138983Y5863953D01*
Y5863814D01*
X4139052Y5863467D01*
X4139121Y5862912D01*
Y5862148D01*
Y5862009D01*
Y5861662D01*
Y5861246D01*
X4139052Y5860760D01*
Y5860691D01*
X4138983Y5860413D01*
X4138913Y5860066D01*
X4138844Y5859719D01*
Y5859650D01*
X4138774Y5859442D01*
X4138566Y5858956D01*
X4138497Y5858886D01*
X4138427Y5858748D01*
X4138011Y5858262D01*
X4137942Y5858192D01*
X4137872Y5858123D01*
X4137664Y5858054D01*
X4137386Y5857915D01*
X4137109Y5857707D01*
X4136623Y5857498D01*
X4136068Y5857221D01*
X4135998D01*
X4135790Y5857082D01*
X4135443Y5856943D01*
X4134957Y5856735D01*
X4134333Y5856527D01*
X4133639Y5856249D01*
X4132806Y5855972D01*
X4131904Y5855694D01*
X4131765D01*
X4131418Y5855555D01*
X4130932Y5855416D01*
X4130169Y5855278D01*
X4129336Y5855069D01*
X4128295Y5854861D01*
X4127185Y5854653D01*
X4125935Y5854445D01*
X4125797D01*
X4125588Y5854375D01*
X4125380D01*
X4124686Y5854306D01*
X4123784Y5854167D01*
X4122674Y5854098D01*
X4121424Y5853959D01*
X4120106Y5853890D01*
X4117607D01*
X4117052Y5853959D01*
X4116358D01*
X4115595Y5854028D01*
X4114762Y5854098D01*
X4112958Y5854306D01*
X4111014Y5854653D01*
X4109002Y5855069D01*
X4107059Y5855694D01*
X4106989D01*
X4106850Y5855763D01*
X4106573Y5855902D01*
X4106226Y5856041D01*
X4105809Y5856249D01*
X4105324Y5856457D01*
X4104144Y5857082D01*
X4102825Y5857845D01*
X4101437Y5858817D01*
X4099980Y5859927D01*
X4098661Y5861177D01*
X4098592Y5861246D01*
X4098522Y5861315D01*
X4098314Y5861524D01*
X4098106Y5861871D01*
X4097828Y5862218D01*
X4097481Y5862634D01*
X4097134Y5863120D01*
X4096718Y5863675D01*
X4095885Y5865063D01*
X4095052Y5866590D01*
X4094220Y5868394D01*
X4093526Y5870337D01*
Y5870407D01*
X4093456Y5870615D01*
X4093387Y5870893D01*
X4093248Y5871309D01*
X4093109Y5871864D01*
X4092970Y5872489D01*
X4092832Y5873183D01*
X4092693Y5874016D01*
X4092485Y5874918D01*
X4092346Y5875959D01*
X4092207Y5877000D01*
X4092068Y5878110D01*
X4091860Y5880609D01*
X4091791Y5883246D01*
Y5883315D01*
Y5883523D01*
Y5883940D01*
Y5884426D01*
X4091860Y5885050D01*
Y5885744D01*
X4091929Y5886508D01*
X4091999Y5887410D01*
X4092207Y5889353D01*
X4092554Y5891435D01*
X4092970Y5893586D01*
X4093526Y5895738D01*
Y5895807D01*
X4093595Y5896015D01*
X4093734Y5896293D01*
X4093873Y5896640D01*
X4094081Y5897126D01*
X4094289Y5897681D01*
X4094844Y5899000D01*
X4095608Y5900457D01*
X4096510Y5902053D01*
X4097551Y5903580D01*
X4098731Y5905107D01*
X4098800Y5905176D01*
X4098869Y5905246D01*
X4099078Y5905454D01*
X4099355Y5905731D01*
X4100049Y5906425D01*
X4101021Y5907328D01*
X4102201Y5908299D01*
X4103589Y5909271D01*
X4105185Y5910242D01*
X4106920Y5911075D01*
X4106989D01*
X4107128Y5911145D01*
X4107406Y5911283D01*
X4107753Y5911422D01*
X4108238Y5911561D01*
X4108724Y5911769D01*
X4109349Y5911908D01*
X4110043Y5912116D01*
X4110806Y5912324D01*
X4111639Y5912533D01*
X4113513Y5912810D01*
X4115525Y5913088D01*
X4117677Y5913157D01*
X4118718D01*
X4119273Y5913088D01*
D02*
G37*
G36*
X5052425Y5940015D02*
X5053119Y5939946D01*
X5053258D01*
X5053605Y5939876D01*
X5054022Y5939807D01*
X5054438Y5939668D01*
X5054507D01*
X5054716Y5939599D01*
X5054993Y5939460D01*
X5055201Y5939321D01*
X5055271D01*
X5055340Y5939252D01*
X5055479Y5939113D01*
X5055548Y5938905D01*
X5055618Y5938766D01*
X5055826Y5938350D01*
X5056173Y5937656D01*
X5056589Y5936753D01*
X5057075Y5935643D01*
X5057700Y5934324D01*
X5058394Y5932798D01*
X5059088Y5931132D01*
X5059851Y5929328D01*
X5060615Y5927315D01*
X5061447Y5925233D01*
X5062280Y5923082D01*
X5063044Y5920791D01*
X5063807Y5918432D01*
X5065264Y5913643D01*
Y5913574D01*
X5065334Y5913504D01*
Y5913296D01*
X5065403Y5913088D01*
X5065611Y5912325D01*
X5065820Y5911422D01*
X5066097Y5910243D01*
X5066375Y5908855D01*
X5066722Y5907258D01*
X5067069Y5905454D01*
X5067346Y5903580D01*
X5067693Y5901498D01*
X5067971Y5899277D01*
X5068249Y5896987D01*
X5068457Y5894628D01*
X5068665Y5892199D01*
X5068734Y5889700D01*
X5068804Y5887202D01*
Y5887132D01*
Y5886924D01*
Y5886508D01*
Y5886022D01*
Y5885397D01*
X5068734Y5884703D01*
Y5883871D01*
X5068665Y5882968D01*
Y5881997D01*
X5068596Y5880956D01*
X5068457Y5878666D01*
X5068179Y5876237D01*
X5067902Y5873738D01*
Y5873669D01*
X5067832Y5873461D01*
Y5873114D01*
X5067763Y5872628D01*
X5067693Y5872003D01*
X5067555Y5871309D01*
X5067416Y5870546D01*
X5067277Y5869644D01*
X5067138Y5868672D01*
X5066930Y5867631D01*
X5066514Y5865480D01*
X5065958Y5863120D01*
X5065403Y5860691D01*
Y5860622D01*
X5065334Y5860413D01*
X5065264Y5860066D01*
X5065126Y5859581D01*
X5064917Y5859025D01*
X5064779Y5858331D01*
X5064501Y5857568D01*
X5064293Y5856666D01*
X5064015Y5855764D01*
X5063668Y5854723D01*
X5062974Y5852641D01*
X5062211Y5850350D01*
X5061309Y5847991D01*
Y5847921D01*
X5061170Y5847713D01*
X5061031Y5847366D01*
X5060892Y5846950D01*
X5060615Y5846325D01*
X5060337Y5845701D01*
X5060059Y5844937D01*
X5059712Y5844104D01*
X5059296Y5843202D01*
X5058880Y5842231D01*
X5057908Y5840149D01*
X5056798Y5837928D01*
X5055618Y5835638D01*
Y5835568D01*
X5055479Y5835429D01*
X5055340Y5835291D01*
X5055063Y5835082D01*
X5054993Y5835013D01*
X5054854Y5834944D01*
X5054507Y5834805D01*
X5054160Y5834666D01*
X5054091D01*
X5053813Y5834527D01*
X5053397Y5834458D01*
X5052842Y5834388D01*
X5052356D01*
X5051731Y5834319D01*
X5050066D01*
X5049302Y5834388D01*
X5048539Y5834527D01*
X5048400D01*
X5048053Y5834666D01*
X5047637Y5834805D01*
X5047220Y5835013D01*
X5047151Y5835082D01*
X5047082Y5835221D01*
X5046943Y5835499D01*
X5046873Y5835846D01*
Y5835915D01*
X5046943Y5836193D01*
X5047082Y5836540D01*
X5047220Y5837026D01*
Y5837095D01*
X5047290Y5837164D01*
X5047498Y5837581D01*
X5047776Y5838205D01*
X5048123Y5839108D01*
X5048608Y5840218D01*
X5049094Y5841537D01*
X5049719Y5842994D01*
X5050343Y5844660D01*
X5051037Y5846464D01*
X5051662Y5848407D01*
X5052356Y5850489D01*
X5053050Y5852571D01*
X5053744Y5854861D01*
X5054369Y5857082D01*
X5055548Y5861801D01*
Y5861871D01*
Y5861940D01*
X5055618Y5862148D01*
X5055687Y5862357D01*
X5055826Y5863051D01*
X5055965Y5863953D01*
X5056242Y5865133D01*
X5056451Y5866451D01*
X5056728Y5868047D01*
X5057006Y5869713D01*
X5057214Y5871587D01*
X5057492Y5873599D01*
X5057769Y5875681D01*
X5057977Y5877902D01*
X5058116Y5880192D01*
X5058255Y5882552D01*
X5058394Y5887341D01*
Y5887410D01*
Y5887479D01*
Y5887688D01*
Y5887896D01*
Y5888590D01*
X5058324Y5889561D01*
Y5890672D01*
X5058255Y5892060D01*
X5058186Y5893656D01*
X5058047Y5895322D01*
X5057908Y5897195D01*
X5057700Y5899208D01*
X5057492Y5901290D01*
X5057214Y5903511D01*
X5056867Y5905801D01*
X5056520Y5908091D01*
X5055548Y5912810D01*
Y5912880D01*
Y5912949D01*
X5055479Y5913157D01*
X5055410Y5913366D01*
X5055271Y5914060D01*
X5055063Y5914962D01*
X5054716Y5916142D01*
X5054369Y5917460D01*
X5053952Y5918987D01*
X5053466Y5920653D01*
X5052911Y5922526D01*
X5052287Y5924470D01*
X5051593Y5926482D01*
X5050829Y5928634D01*
X5049094Y5933075D01*
X5047151Y5937586D01*
X5047082Y5937656D01*
X5047012Y5937933D01*
X5046943Y5938280D01*
Y5938627D01*
Y5938697D01*
X5047012Y5938905D01*
X5047220Y5939182D01*
X5047498Y5939391D01*
X5047567Y5939460D01*
X5047845Y5939529D01*
X5048261Y5939738D01*
X5048817Y5939876D01*
X5048886D01*
X5048955Y5939946D01*
X5049164D01*
X5049441Y5940015D01*
X5050135Y5940085D01*
X5051801D01*
X5052425Y5940015D01*
D02*
G37*
G36*
X4790302Y5940015D02*
X4790996Y5939876D01*
X4791134D01*
X4791481Y5939738D01*
X4791898Y5939599D01*
X4792314Y5939391D01*
X4792384Y5939321D01*
X4792592Y5939182D01*
X4792731Y5938974D01*
X4792869Y5938627D01*
Y5938558D01*
Y5938350D01*
X4792800Y5938002D01*
X4792661Y5937586D01*
X4792592Y5937447D01*
X4792384Y5937031D01*
X4792106Y5936406D01*
X4791759Y5935504D01*
X4791273Y5934394D01*
X4790718Y5933075D01*
X4790093Y5931618D01*
X4789469Y5929952D01*
X4788775Y5928148D01*
X4788081Y5926204D01*
X4787387Y5924192D01*
X4786693Y5922041D01*
X4785999Y5919820D01*
X4785374Y5917529D01*
X4784194Y5912810D01*
Y5912672D01*
X4784125Y5912463D01*
X4784056Y5912255D01*
X4783917Y5911561D01*
X4783778Y5910659D01*
X4783570Y5909479D01*
X4783292Y5908160D01*
X4783084Y5906634D01*
X4782806Y5904899D01*
X4782529Y5903025D01*
X4782321Y5901012D01*
X4782043Y5898930D01*
X4781835Y5896709D01*
X4781696Y5894489D01*
X4781557Y5892129D01*
X4781418Y5887341D01*
Y5887271D01*
Y5887202D01*
Y5886993D01*
Y5886785D01*
Y5886091D01*
X4781488Y5885120D01*
Y5883940D01*
X4781557Y5882621D01*
X4781627Y5881025D01*
X4781765Y5879290D01*
X4781904Y5877416D01*
X4782112Y5875404D01*
X4782321Y5873322D01*
X4782598Y5871101D01*
X4782945Y5868880D01*
X4783292Y5866520D01*
X4784264Y5861801D01*
X4784333Y5861663D01*
X4784403Y5861246D01*
X4784541Y5860552D01*
X4784819Y5859650D01*
X4785097Y5858539D01*
X4785444Y5857151D01*
X4785860Y5855694D01*
X4786346Y5854029D01*
X4786901Y5852155D01*
X4787526Y5850212D01*
X4788220Y5848199D01*
X4788983Y5846047D01*
X4790649Y5841606D01*
X4792522Y5837025D01*
X4792592Y5836887D01*
X4792731Y5836609D01*
X4792800Y5836262D01*
X4792869Y5835846D01*
Y5835776D01*
Y5835568D01*
X4792731Y5835291D01*
X4792522Y5835013D01*
X4792453Y5834944D01*
X4792175Y5834805D01*
X4791759Y5834666D01*
X4791204Y5834527D01*
X4791065D01*
X4790857Y5834458D01*
X4790579D01*
X4790232Y5834388D01*
X4789885D01*
X4788844Y5834319D01*
X4787595D01*
X4786970Y5834388D01*
X4786832D01*
X4786554Y5834458D01*
X4786068Y5834527D01*
X4785652Y5834666D01*
X4785582D01*
X4785305Y5834805D01*
X4785027Y5834874D01*
X4784680Y5835082D01*
X4784611Y5835152D01*
X4784472Y5835221D01*
X4784333Y5835429D01*
X4784194Y5835637D01*
X4784125Y5835707D01*
X4784056Y5835915D01*
X4783847Y5836262D01*
X4783639Y5836678D01*
X4783362Y5837234D01*
X4783015Y5837928D01*
X4782668Y5838622D01*
X4782251Y5839454D01*
X4781835Y5840357D01*
X4781349Y5841328D01*
X4780377Y5843410D01*
X4779406Y5845700D01*
X4778434Y5847991D01*
Y5848060D01*
X4778295Y5848268D01*
X4778226Y5848615D01*
X4778018Y5849101D01*
X4777810Y5849656D01*
X4777601Y5850281D01*
X4777324Y5851044D01*
X4777046Y5851947D01*
X4776699Y5852849D01*
X4776352Y5853820D01*
X4775658Y5855972D01*
X4774964Y5858262D01*
X4774340Y5860691D01*
Y5860760D01*
X4774270Y5860968D01*
X4774201Y5861315D01*
X4774062Y5861801D01*
X4773923Y5862426D01*
X4773784Y5863051D01*
X4773576Y5863883D01*
X4773437Y5864716D01*
X4773229Y5865688D01*
X4773021Y5866729D01*
X4772605Y5868949D01*
X4772188Y5871309D01*
X4771841Y5873738D01*
Y5873807D01*
Y5874016D01*
X4771772Y5874432D01*
X4771702Y5874918D01*
X4771633Y5875473D01*
X4771564Y5876236D01*
X4771494Y5877000D01*
X4771425Y5877902D01*
X4771355Y5878874D01*
X4771286Y5879984D01*
X4771147Y5882205D01*
X4771078Y5884703D01*
X4771008Y5887202D01*
Y5887271D01*
Y5887479D01*
Y5887896D01*
Y5888382D01*
Y5888937D01*
X4771078Y5889700D01*
Y5890463D01*
X4771147Y5891366D01*
Y5892337D01*
X4771217Y5893448D01*
X4771425Y5895668D01*
X4771633Y5898097D01*
X4771911Y5900526D01*
Y5900596D01*
X4771980Y5900804D01*
Y5901151D01*
X4772049Y5901637D01*
X4772188Y5902261D01*
X4772258Y5902956D01*
X4772396Y5903788D01*
X4772605Y5904621D01*
X4772743Y5905593D01*
X4772952Y5906634D01*
X4773437Y5908855D01*
X4773923Y5911214D01*
X4774548Y5913643D01*
Y5913712D01*
X4774617Y5913921D01*
X4774756Y5914268D01*
X4774825Y5914753D01*
X4775034Y5915378D01*
X4775242Y5916072D01*
X4775450Y5916836D01*
X4775728Y5917668D01*
X4776005Y5918640D01*
X4776352Y5919611D01*
X4777046Y5921763D01*
X4777810Y5924053D01*
X4778712Y5926413D01*
Y5926482D01*
X4778851Y5926690D01*
X4778989Y5927037D01*
X4779128Y5927523D01*
X4779336Y5928078D01*
X4779614Y5928772D01*
X4779961Y5929466D01*
X4780308Y5930368D01*
X4780724Y5931271D01*
X4781141Y5932242D01*
X4782043Y5934324D01*
X4783084Y5936614D01*
X4784194Y5938905D01*
Y5938974D01*
X4784264Y5939043D01*
X4784403Y5939182D01*
X4784541Y5939321D01*
X4784611Y5939391D01*
X4784750Y5939460D01*
X4784958Y5939529D01*
X4785305Y5939668D01*
X4785374Y5939738D01*
X4785652Y5939807D01*
X4786068Y5939876D01*
X4786623Y5939946D01*
X4786762D01*
X4786970Y5940015D01*
X4787179D01*
X4787873Y5940084D01*
X4789608D01*
X4790302Y5940015D01*
D02*
G37*
%LPC*%
G36*
X5004331Y5924053D02*
X4993574D01*
Y5897959D01*
X5004331D01*
X5005095Y5898028D01*
X5005997Y5898098D01*
X5007107Y5898167D01*
X5008287Y5898375D01*
X5009467Y5898583D01*
X5010647Y5898930D01*
X5010716D01*
X5010785Y5899000D01*
X5011132Y5899139D01*
X5011688Y5899347D01*
X5012382Y5899624D01*
X5013145Y5900041D01*
X5013978Y5900457D01*
X5014811Y5901012D01*
X5015574Y5901637D01*
X5015643Y5901706D01*
X5015921Y5901984D01*
X5016268Y5902331D01*
X5016684Y5902817D01*
X5017170Y5903441D01*
X5017656Y5904135D01*
X5018072Y5904968D01*
X5018489Y5905801D01*
X5018558Y5905940D01*
X5018628Y5906217D01*
X5018766Y5906703D01*
X5018975Y5907397D01*
X5019183Y5908161D01*
X5019322Y5908993D01*
X5019391Y5909965D01*
X5019460Y5911006D01*
Y5911075D01*
Y5911214D01*
Y5911422D01*
Y5911769D01*
X5019391Y5912186D01*
X5019322Y5912602D01*
X5019183Y5913713D01*
X5018975Y5914892D01*
X5018558Y5916211D01*
X5018072Y5917460D01*
X5017378Y5918709D01*
Y5918779D01*
X5017309Y5918848D01*
X5016962Y5919195D01*
X5016476Y5919750D01*
X5015782Y5920444D01*
X5014811Y5921208D01*
X5013631Y5921902D01*
X5012243Y5922596D01*
X5010577Y5923220D01*
X5010508D01*
X5010300Y5923290D01*
X5010022Y5923359D01*
X5009606Y5923429D01*
X5009050Y5923567D01*
X5008495Y5923637D01*
X5007177Y5923845D01*
X5007107D01*
X5006830Y5923914D01*
X5006413D01*
X5005858Y5923984D01*
X5005164D01*
X5004331Y5924053D01*
D02*
G37*
G36*
X4830415D02*
X4820907D01*
Y5892962D01*
X4830901D01*
X4831317Y5893031D01*
X4831803D01*
X4832913Y5893101D01*
X4834093Y5893240D01*
X4835412Y5893448D01*
X4836730Y5893725D01*
X4837910Y5894142D01*
X4837979D01*
X4838049Y5894211D01*
X4838465Y5894350D01*
X4839020Y5894628D01*
X4839714Y5894975D01*
X4840547Y5895460D01*
X4841449Y5896016D01*
X4842282Y5896640D01*
X4843115Y5897404D01*
X4843184Y5897473D01*
X4843462Y5897820D01*
X4843809Y5898236D01*
X4844295Y5898861D01*
X4844781Y5899624D01*
X4845336Y5900457D01*
X4845822Y5901498D01*
X4846307Y5902539D01*
Y5902609D01*
X4846377Y5902678D01*
X4846516Y5903094D01*
X4846654Y5903650D01*
X4846863Y5904482D01*
X4847071Y5905454D01*
X4847279Y5906495D01*
X4847348Y5907744D01*
X4847418Y5908993D01*
Y5909063D01*
Y5909202D01*
Y5909479D01*
Y5909757D01*
X4847348Y5910173D01*
Y5910659D01*
X4847210Y5911769D01*
X4847001Y5913019D01*
X4846654Y5914337D01*
X4846238Y5915656D01*
X4845613Y5916905D01*
Y5916974D01*
X4845544Y5917044D01*
X4845336Y5917460D01*
X4844919Y5918015D01*
X4844434Y5918709D01*
X4843809Y5919473D01*
X4843046Y5920236D01*
X4842213Y5921000D01*
X4841241Y5921624D01*
X4841102Y5921694D01*
X4840755Y5921902D01*
X4840270Y5922110D01*
X4839576Y5922457D01*
X4838743Y5922804D01*
X4837841Y5923082D01*
X4836869Y5923359D01*
X4835828Y5923567D01*
X4835689D01*
X4835342Y5923637D01*
X4834787Y5923706D01*
X4834093Y5923845D01*
X4833260Y5923914D01*
X4832358Y5923984D01*
X4830415Y5924053D01*
D02*
G37*
G36*
X4500834Y5881095D02*
X4490910D01*
X4489938Y5881025D01*
X4488828Y5880956D01*
X4487648Y5880817D01*
X4486468Y5880609D01*
X4485289Y5880400D01*
X4485150D01*
X4484803Y5880262D01*
X4484248Y5880123D01*
X4483554Y5879915D01*
X4482790Y5879568D01*
X4481957Y5879221D01*
X4481055Y5878804D01*
X4480292Y5878319D01*
X4480222Y5878249D01*
X4479945Y5878110D01*
X4479598Y5877833D01*
X4479181Y5877416D01*
X4478765Y5876931D01*
X4478279Y5876375D01*
X4477863Y5875751D01*
X4477446Y5875057D01*
X4477377Y5874987D01*
X4477308Y5874710D01*
X4477169Y5874363D01*
X4477030Y5873807D01*
X4476822Y5873183D01*
X4476683Y5872419D01*
X4476614Y5871656D01*
X4476544Y5870754D01*
Y5870685D01*
Y5870546D01*
Y5870337D01*
X4476614Y5870060D01*
X4476683Y5869297D01*
X4476891Y5868325D01*
X4477169Y5867284D01*
X4477655Y5866104D01*
X4478279Y5865063D01*
X4479181Y5864022D01*
X4479320Y5863953D01*
X4479667Y5863675D01*
X4480292Y5863259D01*
X4481125Y5862842D01*
X4482166Y5862356D01*
X4483415Y5862010D01*
X4484942Y5861732D01*
X4486607Y5861593D01*
X4487301D01*
X4487995Y5861732D01*
X4488967Y5861871D01*
X4490077Y5862079D01*
X4491326Y5862426D01*
X4492576Y5862912D01*
X4493825Y5863536D01*
X4493894D01*
X4493964Y5863606D01*
X4494380Y5863883D01*
X4495074Y5864369D01*
X4495976Y5865063D01*
X4497017Y5865896D01*
X4498197Y5866937D01*
X4499446Y5868186D01*
X4500834Y5869574D01*
Y5881095D01*
D02*
G37*
G36*
X4399510Y5924053D02*
X4390002D01*
Y5892962D01*
X4399996D01*
X4400412Y5893031D01*
X4400898D01*
X4402009Y5893101D01*
X4403188Y5893239D01*
X4404507Y5893448D01*
X4405826Y5893725D01*
X4407005Y5894142D01*
X4407075D01*
X4407144Y5894211D01*
X4407561Y5894350D01*
X4408116Y5894627D01*
X4408810Y5894975D01*
X4409643Y5895460D01*
X4410545Y5896016D01*
X4411378Y5896640D01*
X4412210Y5897404D01*
X4412280Y5897473D01*
X4412557Y5897820D01*
X4412904Y5898236D01*
X4413390Y5898861D01*
X4413876Y5899624D01*
X4414431Y5900457D01*
X4414917Y5901498D01*
X4415403Y5902539D01*
Y5902609D01*
X4415472Y5902678D01*
X4415611Y5903094D01*
X4415750Y5903650D01*
X4415958Y5904482D01*
X4416166Y5905454D01*
X4416374Y5906495D01*
X4416444Y5907744D01*
X4416513Y5908993D01*
Y5909063D01*
Y5909202D01*
Y5909479D01*
Y5909757D01*
X4416444Y5910173D01*
Y5910659D01*
X4416305Y5911769D01*
X4416097Y5913019D01*
X4415750Y5914337D01*
X4415333Y5915656D01*
X4414709Y5916905D01*
Y5916974D01*
X4414639Y5917044D01*
X4414431Y5917460D01*
X4414015Y5918015D01*
X4413529Y5918709D01*
X4412904Y5919473D01*
X4412141Y5920236D01*
X4411308Y5920999D01*
X4410337Y5921624D01*
X4410198Y5921694D01*
X4409851Y5921902D01*
X4409365Y5922110D01*
X4408671Y5922457D01*
X4407838Y5922804D01*
X4406936Y5923082D01*
X4405964Y5923359D01*
X4404923Y5923567D01*
X4404785D01*
X4404438Y5923637D01*
X4403882Y5923706D01*
X4403188Y5923845D01*
X4402356Y5923914D01*
X4401453Y5923984D01*
X4399510Y5924053D01*
D02*
G37*
G36*
X4294508Y5881095D02*
X4284584D01*
X4283612Y5881025D01*
X4282502Y5880956D01*
X4281322Y5880817D01*
X4280142Y5880609D01*
X4278962Y5880400D01*
X4278824D01*
X4278477Y5880262D01*
X4277921Y5880123D01*
X4277227Y5879915D01*
X4276464Y5879568D01*
X4275631Y5879221D01*
X4274729Y5878804D01*
X4273966Y5878319D01*
X4273896Y5878249D01*
X4273619Y5878110D01*
X4273272Y5877833D01*
X4272855Y5877416D01*
X4272439Y5876931D01*
X4271953Y5876375D01*
X4271537Y5875751D01*
X4271120Y5875057D01*
X4271051Y5874987D01*
X4270981Y5874710D01*
X4270843Y5874363D01*
X4270704Y5873807D01*
X4270496Y5873183D01*
X4270357Y5872419D01*
X4270287Y5871656D01*
X4270218Y5870754D01*
Y5870685D01*
Y5870546D01*
Y5870337D01*
X4270287Y5870060D01*
X4270357Y5869297D01*
X4270565Y5868325D01*
X4270843Y5867284D01*
X4271328Y5866104D01*
X4271953Y5865063D01*
X4272855Y5864022D01*
X4272994Y5863953D01*
X4273341Y5863675D01*
X4273966Y5863259D01*
X4274798Y5862842D01*
X4275839Y5862356D01*
X4277089Y5862010D01*
X4278615Y5861732D01*
X4280281Y5861593D01*
X4280975D01*
X4281669Y5861732D01*
X4282641Y5861871D01*
X4283751Y5862079D01*
X4285000Y5862426D01*
X4286249Y5862912D01*
X4287499Y5863536D01*
X4287568D01*
X4287637Y5863606D01*
X4288054Y5863883D01*
X4288748Y5864369D01*
X4289650Y5865063D01*
X4290691Y5865896D01*
X4291871Y5866937D01*
X4293120Y5868186D01*
X4294508Y5869574D01*
Y5881095D01*
D02*
G37*
G36*
X4615136Y5905454D02*
X4614511D01*
X4613817Y5905385D01*
X4612985Y5905315D01*
X4611944Y5905107D01*
X4610833Y5904899D01*
X4609792Y5904552D01*
X4608682Y5904066D01*
X4608543Y5903997D01*
X4608196Y5903788D01*
X4607710Y5903511D01*
X4607086Y5903094D01*
X4606322Y5902539D01*
X4605559Y5901914D01*
X4604795Y5901221D01*
X4604032Y5900388D01*
X4603963Y5900318D01*
X4603754Y5899971D01*
X4603407Y5899485D01*
X4602991Y5898861D01*
X4602505Y5898097D01*
X4602019Y5897195D01*
X4601534Y5896154D01*
X4601117Y5895044D01*
X4601048Y5894905D01*
X4600978Y5894558D01*
X4600770Y5893934D01*
X4600562Y5893170D01*
X4600423Y5892199D01*
X4600215Y5891158D01*
X4600076Y5889978D01*
X4600007Y5888798D01*
X4629432D01*
Y5888867D01*
Y5889145D01*
Y5889561D01*
Y5890117D01*
X4629363Y5890741D01*
X4629294Y5891505D01*
X4629155Y5892337D01*
X4629016Y5893239D01*
X4628600Y5895183D01*
X4627975Y5897265D01*
X4627559Y5898236D01*
X4627073Y5899208D01*
X4626518Y5900180D01*
X4625893Y5901012D01*
X4625824Y5901082D01*
X4625754Y5901221D01*
X4625546Y5901429D01*
X4625199Y5901706D01*
X4624852Y5902053D01*
X4624366Y5902400D01*
X4623811Y5902817D01*
X4623186Y5903233D01*
X4622492Y5903650D01*
X4621660Y5904066D01*
X4620827Y5904413D01*
X4619855Y5904760D01*
X4618814Y5905038D01*
X4617634Y5905246D01*
X4616455Y5905385D01*
X4615136Y5905454D01*
D02*
G37*
G36*
X4117191Y5905454D02*
X4116566D01*
X4115872Y5905384D01*
X4115040Y5905315D01*
X4113999Y5905107D01*
X4112888Y5904899D01*
X4111847Y5904552D01*
X4110737Y5904066D01*
X4110598Y5903996D01*
X4110251Y5903788D01*
X4109765Y5903511D01*
X4109141Y5903094D01*
X4108377Y5902539D01*
X4107614Y5901914D01*
X4106850Y5901220D01*
X4106087Y5900388D01*
X4106018Y5900318D01*
X4105809Y5899971D01*
X4105462Y5899485D01*
X4105046Y5898861D01*
X4104560Y5898097D01*
X4104074Y5897195D01*
X4103589Y5896154D01*
X4103172Y5895044D01*
X4103103Y5894905D01*
X4103033Y5894558D01*
X4102825Y5893933D01*
X4102617Y5893170D01*
X4102478Y5892198D01*
X4102270Y5891157D01*
X4102131Y5889978D01*
X4102062Y5888798D01*
X4131487D01*
Y5888867D01*
Y5889145D01*
Y5889561D01*
Y5890116D01*
X4131418Y5890741D01*
X4131349Y5891504D01*
X4131210Y5892337D01*
X4131071Y5893239D01*
X4130655Y5895183D01*
X4130030Y5897265D01*
X4129614Y5898236D01*
X4129128Y5899208D01*
X4128573Y5900179D01*
X4127948Y5901012D01*
X4127879Y5901082D01*
X4127809Y5901220D01*
X4127601Y5901429D01*
X4127254Y5901706D01*
X4126907Y5902053D01*
X4126421Y5902400D01*
X4125866Y5902817D01*
X4125241Y5903233D01*
X4124547Y5903649D01*
X4123715Y5904066D01*
X4122882Y5904413D01*
X4121910Y5904760D01*
X4120869Y5905037D01*
X4119689Y5905246D01*
X4118510Y5905384D01*
X4117191Y5905454D01*
D02*
G37*
%LPD*%
D79*
X3798Y20145D02*
G03*
X4061Y19689I1862J771D01*
G01*
X10775Y10939D02*
G03*
X11147Y10568I1599J1227D01*
G01*
X19896Y3854D02*
G03*
X20352Y3591I1227J1599D01*
G01*
X20344Y3594D02*
G03*
X20360Y3587I779J1858D01*
G01*
X30541Y-630D02*
G03*
X31077Y-769I771J1862D01*
G01*
X41463Y-1992D02*
G03*
X41699Y-2006I236J2001D01*
G01*
X257442Y-2015D02*
G03*
X257443Y-2015I30J41385D01*
G01*
D02*
G03*
X298857Y39370I28J41385D01*
G01*
X1269962Y209405D02*
G03*
X1269966Y209272I2015J-1D01*
G01*
X1269793Y-53509D02*
G03*
X1270342Y-55341I1974J-407D01*
G01*
X1334354Y-119353D02*
G03*
X1334369Y-119368I1432J1417D01*
G01*
X1334362Y-119361D02*
G03*
X1335786Y-119951I1425J1425D01*
G01*
X1889403Y-120120D02*
G03*
X1890829Y-119530I1J2015D01*
G01*
X1890821Y-119538D02*
G03*
X1890836Y-119523I-1417J1432D01*
G01*
X1954785Y-55574D02*
G03*
X1954811Y-55548I-1411J1439D01*
G01*
Y-55548D02*
G03*
X1955399Y-54125I-1427J1423D01*
G01*
D02*
G03*
X1955389Y-53925I-2015J0D01*
G01*
X3349801Y1966644D02*
G03*
X3350064Y1966661I0J2015D01*
G01*
X3358252Y1967739D02*
G03*
X3358760Y1967875I-263J1998D01*
G01*
X3358752Y1967872D02*
G03*
X3358768Y1967879I-763J1865D01*
G01*
X3368941Y1972092D02*
G03*
X3368957Y1972099I-763J1865D01*
G01*
X3368950Y1972096D02*
G03*
X3369405Y1972359I-771J1862D01*
G01*
X3378155Y1979072D02*
G03*
X3378526Y1979444I-1227J1599D01*
G01*
X3385240Y1988194D02*
G03*
X3385503Y1988649I-1599J1227D01*
G01*
X3385500Y1988641D02*
G03*
X3385506Y1988658I-1858J779D01*
G01*
X3389720Y1998831D02*
G03*
X3389727Y1998847I-1858J779D01*
G01*
X3389724Y1998839D02*
G03*
X3389860Y1999347I-1862J771D01*
G01*
X3390938Y2007535D02*
G03*
X3390955Y2007798I-1998J263D01*
G01*
D02*
G03*
X3390944Y2008008I-2015J0D01*
G01*
X3390955Y4169478D02*
G03*
X3391310Y4170620I-1660J1143D01*
G01*
D02*
G03*
X3391293Y4170883I-2015J0D01*
G01*
X3389796Y4182253D02*
G03*
X3389013Y4183597I-1998J-263D01*
G01*
D02*
G03*
X3388427Y4185014I-2015J-4D01*
G01*
X3016165Y4559434D02*
G03*
X3014149Y4559941I-1429J-1421D01*
G01*
Y4559941D02*
G03*
X3012568Y4561127I-1844J-812D01*
G01*
X3001249Y4562618D02*
G03*
X2999834Y4562273I-263J-1998D01*
G01*
X2965999D02*
G03*
X2924614Y4520888I0J-41385D01*
G01*
X2810534Y4459272D02*
G03*
X2924614Y4459272I57040J0D01*
G01*
X2810534Y4520888D02*
G03*
X2769155Y4562273I-41385J0D01*
G01*
X900150Y4562418D02*
G03*
X899914Y4562404I-0J-2015D01*
G01*
X889527Y4561181D02*
G03*
X888992Y4561042I236J-2001D01*
G01*
X889000Y4561045D02*
G03*
X888984Y4561038I763J-1865D01*
G01*
X878803Y4556821D02*
G03*
X878330Y4556545I771J-1862D01*
G01*
D02*
G03*
X878319Y4556536I1244J-1585D01*
G01*
X870064Y4550012D02*
G03*
X869892Y4549859I1250J-1581D01*
G01*
D02*
G03*
X869879Y4549846I1421J-1428D01*
G01*
X621209Y4299995D02*
G03*
X621203Y4299989I1421J-1428D01*
G01*
Y4299989D02*
G03*
X609139Y4270782I29321J-29206D01*
G01*
X495058Y3990258D02*
G03*
X609139Y3990258I57040J0D01*
G01*
X495058Y4073160D02*
G03*
X441711Y4112779I-41385J0D01*
G01*
X2015Y3671527D02*
G03*
X1585Y3670885I1428J-1422D01*
G01*
D02*
G03*
X1578Y3670869I1858J-779D01*
G01*
X-329Y3666265D02*
G03*
X-465Y3665757I1862J-771D01*
G01*
X-1742Y3656062D02*
G03*
X-1654Y3655157I1998J-263D01*
G01*
X-2015Y42039D02*
G03*
X-1998Y41776I2015J-0D01*
G01*
X-558Y30842D02*
G03*
X-422Y30334I1998J263D01*
G01*
X-425Y30342D02*
G03*
X-419Y30326I1865J763D01*
G01*
X3358760Y1967875D02*
X3358768Y1967879D01*
X3385503Y1988649D02*
X3385506Y1988658D01*
X3389720Y1998831D02*
X3389724Y1998839D01*
X4061Y19689D02*
X10775Y10939D01*
X11147Y10568D02*
X19896Y3854D01*
X20344Y3594D02*
X20352Y3591D01*
X20360Y3587D01*
X30533Y-626D01*
X30541Y-630D01*
X31077Y-769D02*
X41463Y-1992D01*
X41699Y-2006D02*
X257443Y-2015D01*
X257442D02*
X257443D01*
X298857Y39370D02*
Y241446D01*
X1269984Y243308D01*
X1269962Y209405D02*
X1269984Y243308D01*
X1269966Y209272D02*
X1270083Y207489D01*
X1269793Y-53509D02*
X1270083Y207489D01*
X1270342Y-55341D02*
X1334354Y-119353D01*
X1334362Y-119361D02*
X1334369Y-119368D01*
X1335786Y-119951D02*
X1889403Y-120120D01*
X1890829Y-119530D02*
X1890836Y-119523D01*
X1890821Y-119538D02*
X1954813Y-55546D01*
X1954785Y-55574D02*
X1954813Y-55546D01*
X1954811Y-55548D02*
Y-55548D01*
X1955075Y1966644D02*
X1955389Y-53925D01*
X1955075Y1966644D02*
X3349801D01*
X3350064Y1966661D02*
X3358252Y1967739D01*
X3358752Y1967872D02*
X3358760Y1967875D01*
X3358768Y1967879D02*
X3368941Y1972092D01*
X3368950Y1972096D02*
X3368957Y1972099D01*
X3369405Y1972359D02*
X3378155Y1979072D01*
X3378526Y1979444D02*
X3385240Y1988194D01*
X3385500Y1988641D02*
X3385503Y1988649D01*
X3385506Y1988658D02*
X3389720Y1998831D01*
X3389724Y1998839D02*
X3389727Y1998847D01*
X3389860Y1999347D02*
X3390938Y2007535D01*
X3390944Y2008008D02*
X3390955Y4169478D01*
X3389796Y4182253D02*
X3391293Y4170883D01*
X3016165Y4559434D02*
X3388427Y4185014D01*
X3014149Y4559941D02*
Y4559941D01*
X3001249Y4562618D02*
X3012568Y4561127D01*
X2965999Y4562273D02*
X2999834D01*
X2924614Y4459272D02*
Y4520888D01*
X2810534Y4459272D02*
Y4520888D01*
X2769149Y4562273D02*
X2769155D01*
X900150Y4562418D02*
X2769149Y4562273D01*
X889527Y4561181D02*
X899914Y4562404D01*
X888992Y4561042D02*
X889000Y4561045D01*
X878811Y4556825D02*
X888984Y4561038D01*
X878803Y4556821D02*
X878811Y4556825D01*
X870070Y4550016D02*
X878319Y4556536D01*
X870064Y4550012D02*
X870070Y4550016D01*
X621209Y4299995D02*
X869879Y4549846D01*
X621203Y4299989D02*
Y4299989D01*
X609139Y3990258D02*
Y4270782D01*
X495058Y3990258D02*
Y4073160D01*
X440860Y4112270D02*
X441711Y4112779D01*
X2022Y3671534D02*
X440860Y4112270D01*
X2015Y3671527D02*
X2022Y3671534D01*
X-326Y3666273D02*
X1578Y3670869D01*
X-329Y3666265D02*
X-326Y3666273D01*
X-1742Y3656062D02*
X-465Y3665757D01*
X-2015Y42039D02*
X-1654Y3655157D01*
X-1998Y41776D02*
X-558Y30842D01*
X-425Y30342D02*
X-422Y30334D01*
X-419Y30326D02*
X3795Y20152D01*
X2946975Y4530581D02*
X3022143D01*
X860000Y4535639D02*
X2793910D01*
X3368941Y1972092D02*
X3368950Y1972096D01*
X3389720Y1998831D02*
X3389724Y1998839D01*
X3385503Y1988649D02*
X3385506Y1988658D01*
X3368941Y1972092D02*
X3368950Y1972096D01*
X3358760Y1967875D02*
X3358768Y1967879D01*
X20352Y3591D02*
X20360Y3587D01*
D80*
X1450000Y4524138D02*
X2450000D01*
X2970000Y4506609D02*
X3294881Y4181728D01*
X3340000Y2380000D02*
Y2653000D01*
Y3890000D02*
Y4160000D01*
X40000Y460000D02*
Y730000D01*
X50000Y2200000D02*
Y2480000D01*
X1920000Y320000D02*
Y500000D01*
D81*
X18342Y3645035D02*
X459017Y4085710D01*
X1310000Y-80000D02*
X1912194D01*
X287659Y280000D02*
X1281117D01*
X1930016Y2010000D02*
X3345607D01*
D82*
X459017Y4085710D02*
X470946D01*
X2970000Y4506609D02*
Y4513807D01*
X3022143Y4530581D02*
X3025000Y4533438D01*
X2793910Y4535639D02*
X2799549Y4530000D01*
D83*
X1930016Y1860000D02*
Y2010000D01*
D84*
X1145000Y4005000D02*
D03*
Y4105000D02*
D03*
Y4206031D02*
D03*
X1146000Y4315000D02*
D03*
X2750000Y3600000D02*
D03*
X1200000Y3300000D02*
D03*
X1919160Y2275000D02*
D03*
X2750000Y4150000D02*
D03*
X2275000Y2925000D02*
D03*
X1650000Y2950000D02*
D03*
X300000Y2750000D02*
D03*
X1850000Y3700000D02*
D03*
X1600000Y4200000D02*
D03*
X1575000Y4000000D02*
D03*
X1600000Y3650000D02*
D03*
X1500000D02*
D03*
X1345000Y4473425D02*
D03*
Y4394685D02*
D03*
Y4315945D02*
D03*
Y4237205D02*
D03*
Y4158465D02*
D03*
Y4079724D02*
D03*
Y4000984D02*
D03*
Y3922244D02*
D03*
Y3843504D02*
D03*
Y3764764D02*
D03*
Y3686024D02*
D03*
Y3607284D02*
D03*
X2835000Y4203920D02*
D03*
X550000Y3450000D02*
D03*
X1550000Y2100000D02*
D03*
X2200000Y3000000D02*
D03*
X2573000Y4473425D02*
D03*
Y4394685D02*
D03*
Y4315945D02*
D03*
Y4158465D02*
D03*
Y4079724D02*
D03*
Y4000984D02*
D03*
Y3922244D02*
D03*
Y3843504D02*
D03*
Y3764764D02*
D03*
Y3686024D02*
D03*
Y3607284D02*
D03*
X1850000Y4350000D02*
D03*
X1600000Y4400000D02*
D03*
D85*
X2750000Y3094902D02*
D03*
X3300000Y3775461D02*
D03*
X2573000Y4237205D02*
D03*
D87*
X137010Y203804D02*
D03*
X137010Y2754985D02*
D03*
Y3510890D02*
D03*
D88*
X1382104Y1411739D02*
D03*
X1582104D02*
D03*
X1782104D02*
D03*
D90*
X2940000Y4220000D02*
D03*
X808355D02*
D03*
D93*
X1600000Y3468215D02*
D03*
X1500000D02*
D03*
X1400000D02*
D03*
X1300000D02*
D03*
X1457585Y3192913D02*
D03*
X1557585D02*
D03*
X1185133Y850000D02*
D03*
X1085133D02*
D03*
D94*
X3191194Y3141662D02*
D03*
D95*
X3191155Y3259811D02*
D03*
D96*
X3268353Y3377876D02*
D03*
Y3023545D02*
D03*
D97*
X786691Y2630000D02*
D03*
Y2430000D02*
D03*
D98*
X2433407Y2834882D02*
D03*
X1700257Y2835000D02*
D03*
X2429470Y2226732D02*
D03*
X1696321Y2226850D02*
D03*
X964824Y2834882D02*
D03*
X960888Y2226732D02*
D03*
D99*
X486691Y2530000D02*
D03*
D100*
X414824Y2530000D02*
D03*
D101*
X2613691Y2630000D02*
D03*
Y2430000D02*
D03*
D103*
X2985691Y2530000D02*
D03*
D104*
X2970000Y3510000D02*
D03*
X2875134D02*
D03*
X2340000Y3210000D02*
D03*
X2634055Y2950000D02*
D03*
X2771477Y3510890D02*
D03*
D105*
X3165194Y2116662D02*
D03*
X610194D02*
D03*
D106*
X551477Y3330015D02*
D03*
X2725000Y4459681D02*
D03*
X1406194Y250000D02*
D03*
X1825000Y251662D02*
D03*
X1109477Y2570000D02*
D03*
D107*
X2362898Y4155000D02*
D03*
X1743039Y4236417D02*
D03*
X2170000D02*
D03*
X1842598Y4090000D02*
D03*
X2212992Y3185715D02*
D03*
X1735673Y3259811D02*
D03*
X1670000Y2450000D02*
D03*
X1787503Y2390000D02*
D03*
X2025869Y2350000D02*
D03*
D108*
X1457585Y3575000D02*
D03*
X1817520Y3555000D02*
D03*
X1820000Y3620000D02*
D03*
X2630014Y3482639D02*
D03*
X2380014D02*
D03*
X1550000Y3570000D02*
D03*
X1570000Y3920000D02*
D03*
X2670000Y4425000D02*
D03*
X2671395Y3520000D02*
D03*
X2460000Y3519902D02*
D03*
X2530098D02*
D03*
X2600000D02*
D03*
X2311000Y3690000D02*
D03*
X2212992Y4275000D02*
D03*
X1550000Y3764000D02*
D03*
X1553998Y3843000D02*
D03*
X2475000Y3861639D02*
D03*
X2475634Y3813597D02*
D03*
X2135239Y4025000D02*
D03*
X2262598Y3850000D02*
D03*
X2677179Y3825000D02*
D03*
X1185133Y3553639D02*
D03*
X2083507Y4383621D02*
D03*
X1680000Y3959343D02*
D03*
X1700257Y4000000D02*
D03*
X1760000Y3900000D02*
D03*
X1730000Y3570000D02*
D03*
X1980000Y3659887D02*
D03*
X1494003Y2380000D02*
D03*
X3130014Y2732639D02*
D03*
Y2482639D02*
D03*
Y2232639D02*
D03*
X2880014Y3232639D02*
D03*
Y2232639D02*
D03*
X2630014Y3232639D02*
D03*
Y2232639D02*
D03*
X1630014Y1732639D02*
D03*
Y1482639D02*
D03*
Y1232639D02*
D03*
Y732639D02*
D03*
X1130014Y2232639D02*
D03*
Y1482639D02*
D03*
Y1232639D02*
D03*
Y982639D02*
D03*
Y732639D02*
D03*
Y482639D02*
D03*
X880014Y4232639D02*
D03*
Y1982639D02*
D03*
Y1732639D02*
D03*
Y1482639D02*
D03*
Y1232639D02*
D03*
Y982639D02*
D03*
Y732639D02*
D03*
Y482639D02*
D03*
X630014Y2482639D02*
D03*
Y2232639D02*
D03*
Y1982639D02*
D03*
Y1732639D02*
D03*
Y1482639D02*
D03*
Y1232639D02*
D03*
Y982639D02*
D03*
Y732639D02*
D03*
Y482639D02*
D03*
X380014Y3732639D02*
D03*
Y2982639D02*
D03*
Y2232639D02*
D03*
Y1982639D02*
D03*
Y1732639D02*
D03*
Y1482639D02*
D03*
Y1232639D02*
D03*
Y982639D02*
D03*
Y732639D02*
D03*
Y482639D02*
D03*
X130014Y3232639D02*
D03*
Y2482639D02*
D03*
Y2232639D02*
D03*
Y1982639D02*
D03*
Y1732639D02*
D03*
Y1482639D02*
D03*
Y1232639D02*
D03*
Y982639D02*
D03*
Y732639D02*
D03*
Y482639D02*
D03*
X1425000Y2030000D02*
D03*
X962496Y3328000D02*
D03*
Y3404000D02*
D03*
X998000Y3003000D02*
D03*
X1660000Y529000D02*
D03*
X1825000Y1700000D02*
D03*
X1582104Y3080531D02*
D03*
X1850000Y3342450D02*
D03*
X2670000Y3230000D02*
D03*
Y3131327D02*
D03*
X2525000Y3130000D02*
D03*
X2599693Y3131327D02*
D03*
X950000Y2970000D02*
D03*
X1047000Y3793000D02*
D03*
X1645000Y3335000D02*
D03*
X1382104Y2080000D02*
D03*
X2116699Y3182192D02*
D03*
X2025869Y3330015D02*
D03*
X2685383Y3325000D02*
D03*
X1395000Y2995000D02*
D03*
X2825000Y3764984D02*
D03*
X224194Y3176662D02*
D03*
X1457585Y1525000D02*
D03*
X1425000Y1750000D02*
D03*
X2100000Y3089673D02*
D03*
X1743412Y3348315D02*
D03*
X1382104Y1700000D02*
D03*
X1399409Y3145000D02*
D03*
X1430000Y2126059D02*
D03*
X1899545Y2120000D02*
D03*
X1500000Y2741903D02*
D03*
X2275000Y2830000D02*
D03*
X2380000Y2353583D02*
D03*
X2138000Y2809000D02*
D03*
D109*
X1224672Y3756693D02*
D03*
X1176477Y3210015D02*
D03*
X1720000Y1560000D02*
D03*
X1696321Y1650000D02*
D03*
X706514Y2920639D02*
D03*
X710000Y3000000D02*
D03*
D110*
X2591477Y3363115D02*
D03*
X1088677Y3099515D02*
D03*
X2052165Y4067913D02*
D03*
X1696321Y3610719D02*
D03*
Y3764984D02*
D03*
X1920000Y3710000D02*
D03*
X1215000Y1971172D02*
D03*
X1198000Y3164000D02*
D03*
X1149000D02*
D03*
X998977Y3160015D02*
D03*
X391194Y3116662D02*
D03*
X1750000D02*
D03*
X1270015Y3308344D02*
D03*
X1760000Y810000D02*
D03*
X2370640Y2695866D02*
D03*
X1837503Y2700012D02*
D03*
X2060000Y2640000D02*
D03*
X1937503Y2530000D02*
D03*
X1670000Y2624137D02*
D03*
X1887503Y2390000D02*
D03*
X2151417Y2866777D02*
D03*
D111*
X3292776Y3675000D02*
D03*
X1480000Y3390000D02*
D03*
X2313000Y3605000D02*
D03*
X1325000Y3400000D02*
D03*
X2100000Y4068000D02*
D03*
X1720000Y4090000D02*
D03*
X1955865Y3332007D02*
D03*
X2110000Y3010000D02*
D03*
D112*
X1905000Y3554496D02*
D03*
X1915000Y2910000D02*
D03*
X1620000Y2670000D02*
D03*
X889000Y3586639D02*
D03*
D114*
X1270000Y2470000D02*
D03*
X1608977Y251662D02*
D03*
D115*
X3048704Y3330945D02*
D03*
X1600000Y4120000D02*
D03*
X1595000Y4317000D02*
D03*
X2565015Y3210015D02*
D03*
X426194Y3750000D02*
D03*
X950000Y2700000D02*
D03*
D116*
X2421260Y4066929D02*
X2474331Y4120000D01*
X2617993D01*
X2653543Y4155550D01*
Y4258516D01*
X2634679Y4277380D02*
X2653543Y4258516D01*
X2282623Y4277380D02*
X2634679D01*
X2248979Y4311024D02*
X2282623Y4277380D01*
X2165354Y4311024D02*
X2248979D01*
X2137795Y4283465D02*
X2165354Y4311024D01*
X1669291Y4283465D02*
X2137795D01*
X1641732Y4255905D02*
X1669291Y4283465D01*
X1433071Y4255905D02*
X1641732D01*
X1404881Y4227715D02*
X1433071Y4255905D01*
X1404881Y3553639D02*
Y4227715D01*
X1382738Y3531496D02*
X1404881Y3553639D01*
X1267716Y3531496D02*
X1382738D01*
X1248032Y3511811D02*
X1267716Y3531496D01*
X1248032Y3397638D02*
Y3511811D01*
X2421260Y3483963D02*
Y4066929D01*
Y3483963D02*
X2456693Y3448530D01*
X1955865Y3523428D02*
Y3626812D01*
X1915000Y3482564D02*
X1955865Y3523428D01*
X1932677Y3650000D02*
X1955865Y3626812D01*
X1801326Y3650000D02*
X1932677D01*
X1775591Y3624264D02*
X1801326Y3650000D01*
X1248032Y3397638D02*
X1370079Y3275591D01*
X1603579D01*
X1678382Y3200787D01*
X1775591D01*
X2456693Y3169291D02*
Y3448530D01*
X1915000Y3258228D02*
Y3482564D01*
Y3258228D02*
X1955865Y3217364D01*
X2795276Y3169291D02*
X2870079Y3094488D01*
X2456693Y3169291D02*
X2795276D01*
X2425197Y3137795D02*
X2456693Y3169291D01*
X2035433Y3137795D02*
X2425197D01*
X1955865Y3217364D02*
X2035433Y3137795D01*
X1775591Y3131602D02*
Y3624264D01*
Y3131602D02*
X1856011Y3051181D01*
X2409449D01*
X2618110Y2842520D01*
X2976378Y3200787D02*
X3381890D01*
X2074803Y2299213D02*
X2976378Y3200787D01*
X1992126Y2299213D02*
X2074803D01*
X1948819Y2342520D02*
X1992126Y2299213D01*
X1649606Y2342520D02*
X1948819D01*
X1425197Y2566929D02*
X1649606Y2342520D01*
X1244094Y2566929D02*
X1425197D01*
X1204724Y2527559D02*
X1244094Y2566929D01*
X1204724Y2236220D02*
Y2527559D01*
Y2236220D02*
X1244094Y2196850D01*
X1562992D01*
X1749842Y2010000D01*
X1930016D01*
D117*
X759728Y529000D02*
D03*
D118*
X2913691Y2530000D02*
D03*
D119*
X1200000Y3400000D02*
D03*
%TF.MD5,debfad733b06416282f086bfaafc8ac8*%
M02*
