%TF.GenerationSoftware,Altium Limited,Altium Designer,21.6.4 (81)*%
G04 Layer_Color=8421504*
%FSLAX26Y26*%
%MOIN*%
%TF.SameCoordinates,BD845C9F-3E28-4BEA-89B7-7B09B8E8D9D1*%
%TF.FilePolarity,Positive*%
%TF.FileFunction,Paste,Top*%
%TF.Part,Single*%
G01*
G75*
%TA.AperFunction,SMDPad,CuDef*%
%ADD11R,0.057087X0.015748*%
%ADD12R,0.055118X0.086614*%
%ADD13R,0.055118X0.035433*%
%ADD14R,0.043307X0.045276*%
%ADD15R,0.015748X0.023622*%
%ADD16R,0.036221X0.082677*%
%ADD17R,0.083465X0.082677*%
%ADD18R,0.013780X0.066929*%
%ADD19R,0.023622X0.045276*%
%ADD20R,0.019685X0.049213*%
%ADD21R,0.040000X0.040000*%
%ADD22R,0.050000X0.040000*%
%ADD23O,0.023622X0.072835*%
%ADD24R,0.037402X0.039370*%
%ADD25R,0.051181X0.108268*%
%ADD26R,0.059055X0.057087*%
%ADD27R,0.066142X0.124016*%
%ADD28R,0.124000X0.060000*%
%ADD29R,0.027559X0.035433*%
%ADD30O,0.027559X0.009842*%
%ADD31R,0.023622X0.023622*%
%ADD32R,0.059055X0.169291*%
%ADD35R,0.070866X0.070866*%
%ADD36O,0.009842X0.031496*%
%ADD37O,0.031496X0.009842*%
%ADD38R,0.045276X0.043307*%
%ADD39R,0.055118X0.137795*%
%ADD40R,0.013780X0.035433*%
%ADD41R,0.060000X0.124000*%
%ADD42R,0.033465X0.051181*%
%ADD43R,0.043307X0.068898*%
%ADD44R,0.057087X0.059055*%
%ADD45R,0.068898X0.043307*%
%ADD46R,0.051181X0.033465*%
D11*
X327234Y3417662D02*
D03*
X246525D02*
D03*
D12*
X326194Y3028079D02*
D03*
D13*
Y2927686D02*
D03*
D14*
X391194Y3253079D02*
D03*
Y3180245D02*
D03*
X1950000Y4236417D02*
D03*
Y4163583D02*
D03*
X1670000Y2503583D02*
D03*
Y2576417D02*
D03*
X1760000Y746417D02*
D03*
Y673583D02*
D03*
X1560000Y2507165D02*
D03*
Y2580000D02*
D03*
X2315000Y2353583D02*
D03*
Y2426417D02*
D03*
X2314000Y2696972D02*
D03*
Y2624137D02*
D03*
X2162205Y2426417D02*
D03*
Y2353583D02*
D03*
X2083507Y2426417D02*
D03*
Y2353583D02*
D03*
X2240000Y2353583D02*
D03*
Y2426417D02*
D03*
X1290000Y1906417D02*
D03*
Y1833583D02*
D03*
X1215000Y1833583D02*
D03*
Y1906417D02*
D03*
X1920000Y3763583D02*
D03*
Y3836417D02*
D03*
X2100000Y4163583D02*
D03*
Y4236417D02*
D03*
X1760000Y3963583D02*
D03*
Y4036417D02*
D03*
X1875591Y4163583D02*
D03*
Y4236417D02*
D03*
X2025869Y4236417D02*
D03*
Y4163583D02*
D03*
X1800000Y4236417D02*
D03*
Y4163583D02*
D03*
D15*
X481194Y3202055D02*
D03*
Y3251268D02*
D03*
D16*
X886772Y3854763D02*
D03*
X3013706Y3878221D02*
D03*
D17*
X807244Y3854763D02*
D03*
X3093233Y3878221D02*
D03*
D18*
X2136614Y2527795D02*
D03*
X2162205D02*
D03*
X2187795D02*
D03*
X2213386D02*
D03*
X2136614Y2752205D02*
D03*
X2162205D02*
D03*
X2187795D02*
D03*
X2213386D02*
D03*
D19*
X1853857Y3943740D02*
D03*
X1891258D02*
D03*
X1928660D02*
D03*
Y4036260D02*
D03*
X1891258D02*
D03*
X1853857D02*
D03*
D20*
X1440384Y2563447D02*
D03*
X1414793Y2632345D02*
D03*
X1465975D02*
D03*
D21*
X2050000Y2720000D02*
D03*
Y2800000D02*
D03*
D22*
X1970000Y2760000D02*
D03*
D23*
X1787503Y2441575D02*
D03*
X1837503D02*
D03*
X1887503D02*
D03*
X1937503D02*
D03*
X1787503Y2638425D02*
D03*
X1837503D02*
D03*
X1887503D02*
D03*
X1937503D02*
D03*
D24*
X1882480Y3416374D02*
D03*
X1817520D02*
D03*
D25*
X2090055Y2906000D02*
D03*
X1971945D02*
D03*
D26*
X2875000Y3439887D02*
D03*
Y3363115D02*
D03*
X1457585Y1598228D02*
D03*
Y1675000D02*
D03*
X2775000Y3259811D02*
D03*
Y3183039D02*
D03*
Y3439887D02*
D03*
Y3363115D02*
D03*
X1119677Y3281243D02*
D03*
Y3358015D02*
D03*
D27*
X2944095Y2982245D02*
D03*
X2755905D02*
D03*
D28*
X551477Y3600000D02*
D03*
Y3760000D02*
D03*
D29*
X2591477Y3363115D02*
D03*
D30*
X2630847Y3382800D02*
D03*
Y3363115D02*
D03*
Y3343430D02*
D03*
X2552107D02*
D03*
Y3363115D02*
D03*
Y3382800D02*
D03*
D31*
X2411229Y3288540D02*
D03*
X2411477Y3434706D02*
D03*
D32*
X798367Y3320015D02*
D03*
X1034587D02*
D03*
D35*
X1088677Y3099515D02*
D03*
D36*
X1059149Y3158570D02*
D03*
X1078834D02*
D03*
X1098519D02*
D03*
X1118204D02*
D03*
Y3040460D02*
D03*
X1098519D02*
D03*
X1078834D02*
D03*
X1059149D02*
D03*
D37*
X1147732Y3129043D02*
D03*
Y3109358D02*
D03*
Y3089673D02*
D03*
Y3069987D02*
D03*
X1029622D02*
D03*
Y3089673D02*
D03*
Y3109358D02*
D03*
Y3129043D02*
D03*
D38*
X1977165Y3009311D02*
D03*
X2050000D02*
D03*
X1336417Y2914738D02*
D03*
X1263583D02*
D03*
X2688583Y3683509D02*
D03*
X2761417D02*
D03*
X2688583Y3764000D02*
D03*
X2761417D02*
D03*
X1263583Y3162093D02*
D03*
X1336417D02*
D03*
X1977166Y3158570D02*
D03*
X2050000D02*
D03*
Y3089673D02*
D03*
X1977166D02*
D03*
X1263583Y2996606D02*
D03*
X1336417D02*
D03*
X778583Y2921662D02*
D03*
X851417D02*
D03*
X563583Y2920639D02*
D03*
X636417D02*
D03*
X1336417Y2832394D02*
D03*
X1263583D02*
D03*
X1453583Y3080000D02*
D03*
X1526417D02*
D03*
X1336417D02*
D03*
X1263583D02*
D03*
X1453583Y2995000D02*
D03*
X1526417D02*
D03*
X636417Y3025000D02*
D03*
X563583D02*
D03*
X620847Y3146639D02*
D03*
X693681D02*
D03*
X1112299Y3685000D02*
D03*
X1185133D02*
D03*
X1112299Y3606000D02*
D03*
X1185133D02*
D03*
X1494003Y1975000D02*
D03*
X1421168D02*
D03*
X1736675Y3198468D02*
D03*
X1663840D02*
D03*
X2446417Y3931890D02*
D03*
X2373583D02*
D03*
X2375060Y4317000D02*
D03*
X2447894D02*
D03*
X2374786Y4238000D02*
D03*
X2447621D02*
D03*
X2446417Y4080000D02*
D03*
X2373583D02*
D03*
X2375060Y4396000D02*
D03*
X2447894D02*
D03*
D39*
X1244173Y2700000D02*
D03*
X1015827D02*
D03*
D40*
X1399409Y1887401D02*
D03*
X1425000D02*
D03*
X1450591D02*
D03*
Y1812598D02*
D03*
X1425000D02*
D03*
X1399409D02*
D03*
X1824409Y3197598D02*
D03*
X1850000D02*
D03*
X1875591D02*
D03*
Y3272401D02*
D03*
X1850000D02*
D03*
X1824409D02*
D03*
D41*
X1110000Y2340000D02*
D03*
X1270000D02*
D03*
D42*
X288194Y3616969D02*
D03*
X325596Y3530355D02*
D03*
X250793Y3530355D02*
D03*
X2697598Y3881693D02*
D03*
X2772402Y3881693D02*
D03*
X2735000Y3968307D02*
D03*
X1087598Y3756693D02*
D03*
X1162402Y3756693D02*
D03*
X1125000Y3843307D02*
D03*
X2344338Y3766693D02*
D03*
X2419141Y3766693D02*
D03*
X2381740Y3853307D02*
D03*
D43*
X3292776Y3600000D02*
D03*
X3174666D02*
D03*
X690945Y3586639D02*
D03*
X809055D02*
D03*
X2634055Y3015245D02*
D03*
X2515945D02*
D03*
X2097638Y3250000D02*
D03*
X1979528D02*
D03*
D44*
X858249Y3025015D02*
D03*
X781477D02*
D03*
X2492933Y3210015D02*
D03*
X2416161D02*
D03*
X622727Y3330015D02*
D03*
X699499D02*
D03*
D45*
X2970000Y3449055D02*
D03*
Y3330945D02*
D03*
X2725000Y4359055D02*
D03*
Y4240945D02*
D03*
D46*
X2176693Y4162402D02*
D03*
X2176693Y4087598D02*
D03*
X2263307Y4125000D02*
D03*
%TF.MD5,b9c98dd26ae3936f4a453a5bd14abc8d*%
M02*
