%TF.GenerationSoftware,Altium Limited,Altium Designer,21.6.4 (81)*%
G04 Layer_Color=8388736*
%FSLAX26Y26*%
%MOIN*%
%TF.SameCoordinates,BD845C9F-3E28-4BEA-89B7-7B09B8E8D9D1*%
%TF.FilePolarity,Negative*%
%TF.FileFunction,Soldermask,Top*%
%TF.Part,Single*%
G01*
G75*
%TA.AperFunction,SMDPad,CuDef*%
%ADD132R,0.091465X0.090677*%
%ADD133R,0.044221X0.090677*%
%ADD135R,0.059181X0.041465*%
%ADD136R,0.063118X0.145795*%
%ADD137R,0.051307X0.076898*%
%ADD138R,0.063118X0.094614*%
%ADD139R,0.063118X0.043433*%
G04:AMPARAMS|DCode=141|XSize=73mil|YSize=208mil|CornerRadius=20.25mil|HoleSize=0mil|Usage=FLASHONLY|Rotation=180.000|XOffset=0mil|YOffset=0mil|HoleType=Round|Shape=RoundedRectangle|*
%AMROUNDEDRECTD141*
21,1,0.073000,0.167500,0,0,180.0*
21,1,0.032500,0.208000,0,0,180.0*
1,1,0.040500,-0.016250,0.083750*
1,1,0.040500,0.016250,0.083750*
1,1,0.040500,0.016250,-0.083750*
1,1,0.040500,-0.016250,-0.083750*
%
%ADD141ROUNDEDRECTD141*%
%ADD142R,0.041465X0.059181*%
%ADD143R,0.053276X0.051307*%
%ADD145R,0.051307X0.053276*%
%ADD146R,0.021779X0.043433*%
%TA.AperFunction,ComponentPad*%
%ADD147C,0.058000*%
G04:AMPARAMS|DCode=148|XSize=362.331mil|YSize=86.74mil|CornerRadius=23.685mil|HoleSize=0mil|Usage=FLASHONLY|Rotation=270.000|XOffset=0mil|YOffset=0mil|HoleType=Round|Shape=RoundedRectangle|*
%AMROUNDEDRECTD148*
21,1,0.362331,0.039370,0,0,270.0*
21,1,0.314961,0.086740,0,0,270.0*
1,1,0.047370,-0.019685,-0.157480*
1,1,0.047370,-0.019685,0.157480*
1,1,0.047370,0.019685,0.157480*
1,1,0.047370,0.019685,-0.157480*
%
%ADD148ROUNDEDRECTD148*%
G04:AMPARAMS|DCode=149|XSize=401.701mil|YSize=86.74mil|CornerRadius=23.685mil|HoleSize=0mil|Usage=FLASHONLY|Rotation=270.000|XOffset=0mil|YOffset=0mil|HoleType=Round|Shape=RoundedRectangle|*
%AMROUNDEDRECTD149*
21,1,0.401701,0.039370,0,0,270.0*
21,1,0.354331,0.086740,0,0,270.0*
1,1,0.047370,-0.019685,-0.177165*
1,1,0.047370,-0.019685,0.177165*
1,1,0.047370,0.019685,0.177165*
1,1,0.047370,0.019685,-0.177165*
%
%ADD149ROUNDEDRECTD149*%
%ADD150C,0.098000*%
%ADD151O,0.083000X0.158000*%
%ADD152C,0.165480*%
%ADD153R,0.058000X0.058000*%
%ADD154C,0.067055*%
%ADD155R,0.067055X0.067055*%
%TA.AperFunction,SMDPad,CuDef*%
%ADD156C,0.103055*%
%TA.AperFunction,ComponentPad*%
%ADD157C,0.068000*%
%ADD158R,0.068000X0.068000*%
%ADD159C,0.059968*%
%ADD160C,0.133000*%
%ADD161O,0.181228X0.067055*%
%ADD162O,0.078000X0.133000*%
%ADD163R,0.086740X0.342646*%
%TA.AperFunction,ViaPad*%
%ADD164C,0.058000*%
%TA.AperFunction,WasherPad*%
%ADD165O,0.283591X0.086740*%
%TA.AperFunction,ViaPad*%
%ADD166C,0.036000*%
%TA.AperFunction,SMDPad,CuDef*%
%ADD168R,0.065087X0.023748*%
%ADD169R,0.023748X0.031622*%
%ADD170R,0.021779X0.074929*%
%ADD171R,0.031622X0.053276*%
%ADD172R,0.027685X0.057213*%
%ADD173R,0.048000X0.048000*%
%ADD174R,0.058000X0.048000*%
%ADD175O,0.031622X0.080835*%
%ADD176R,0.045402X0.047370*%
%ADD177R,0.059181X0.116268*%
%ADD178R,0.067055X0.065087*%
%ADD179R,0.074142X0.132016*%
%ADD180R,0.132000X0.068000*%
%ADD181R,0.035559X0.043433*%
%ADD182O,0.035559X0.017843*%
%ADD183R,0.031622X0.031622*%
%ADD184R,0.067055X0.177291*%
G04:AMPARAMS|DCode=185|XSize=73mil|YSize=228mil|CornerRadius=20.25mil|HoleSize=0mil|Usage=FLASHONLY|Rotation=180.000|XOffset=0mil|YOffset=0mil|HoleType=Round|Shape=RoundedRectangle|*
%AMROUNDEDRECTD185*
21,1,0.073000,0.187500,0,0,180.0*
21,1,0.032500,0.228000,0,0,180.0*
1,1,0.040500,-0.016250,0.093750*
1,1,0.040500,0.016250,0.093750*
1,1,0.040500,0.016250,-0.093750*
1,1,0.040500,-0.016250,-0.093750*
%
%ADD185ROUNDEDRECTD185*%
%ADD186R,0.078866X0.078866*%
%ADD187O,0.017843X0.039496*%
%ADD188O,0.039496X0.017843*%
%ADD189R,0.068000X0.132000*%
%ADD190R,0.065087X0.067055*%
%ADD191R,0.076898X0.051307*%
G36*
X2496421Y3454020D02*
X2496492Y3454022D01*
X2496684Y3454003D01*
X2496874Y3453990D01*
X2496943Y3453977D01*
X2497013Y3453970D01*
X2497202Y3453925D01*
X2497389Y3453888D01*
X2497455Y3453865D01*
X2497524Y3453849D01*
X2497704Y3453781D01*
X2497885Y3453719D01*
X2497948Y3453689D01*
X2498014Y3453664D01*
X2498810Y3453300D01*
X2498872Y3453267D01*
X2498937Y3453240D01*
X2499103Y3453143D01*
X2499272Y3453052D01*
X2499329Y3453011D01*
X2499390Y3452976D01*
X2499542Y3452858D01*
X2499698Y3452746D01*
X2499749Y3452698D01*
X2499805Y3452655D01*
X2499940Y3452518D01*
X2500079Y3452387D01*
X2500124Y3452332D01*
X2500174Y3452282D01*
X2500748Y3451622D01*
X2500790Y3451566D01*
X2500838Y3451514D01*
X2500949Y3451356D01*
X2501065Y3451204D01*
X2501099Y3451144D01*
X2501140Y3451086D01*
X2501230Y3450916D01*
X2501325Y3450749D01*
X2501352Y3450684D01*
X2501384Y3450622D01*
X2501451Y3450441D01*
X2501523Y3450264D01*
X2501541Y3450196D01*
X2501566Y3450130D01*
X2501814Y3449291D01*
X2501829Y3449222D01*
X2501851Y3449156D01*
X2501887Y3448968D01*
X2501930Y3448779D01*
X2501936Y3448709D01*
X2501949Y3448641D01*
X2501960Y3448449D01*
X2501977Y3448257D01*
X2501974Y3448187D01*
X2501979Y3448117D01*
X2501964Y3447926D01*
X2501957Y3447733D01*
X2501945Y3447664D01*
X2501940Y3447594D01*
X2501918Y3447439D01*
Y3385028D01*
Y3384628D01*
Y3384627D01*
Y3384627D01*
X2501883Y3384104D01*
X2501781Y3383590D01*
X2501667Y3383253D01*
X2501613Y3383093D01*
X2501613Y3383093D01*
X2501306Y3382354D01*
X2501306Y3382353D01*
X2501150Y3382038D01*
X2501074Y3381883D01*
X2500879Y3381591D01*
X2500782Y3381447D01*
X2500740Y3381398D01*
X2500437Y3381052D01*
X2500436Y3381052D01*
X2499870Y3380486D01*
X2499870Y3380485D01*
X2499608Y3380256D01*
X2499476Y3380140D01*
X2499040Y3379849D01*
X2498570Y3379617D01*
X2498569Y3379616D01*
X2497829Y3379310D01*
X2497829Y3379310D01*
X2497332Y3379141D01*
D01*
X2497332Y3379141D01*
X2497125Y3379100D01*
X2496818Y3379039D01*
X2496295Y3379005D01*
X2459635D01*
X2459515Y3379013D01*
X2459397Y3379012D01*
X2459255Y3379030D01*
X2459112Y3379039D01*
X2458995Y3379062D01*
X2458877Y3379077D01*
X2458499Y3379150D01*
X2458382Y3379180D01*
X2458265Y3379202D01*
X2458129Y3379247D01*
X2457992Y3379283D01*
X2457881Y3379328D01*
X2457766Y3379365D01*
X2457409Y3379508D01*
X2457302Y3379559D01*
X2457190Y3379603D01*
X2457065Y3379673D01*
X2456936Y3379734D01*
X2456836Y3379800D01*
X2456731Y3379858D01*
X2456408Y3380066D01*
X2456311Y3380137D01*
X2456211Y3380201D01*
X2456102Y3380292D01*
X2455986Y3380378D01*
X2455900Y3380461D01*
X2455809Y3380537D01*
X2455669Y3380670D01*
X2455669Y3380670D01*
X2455608Y3380728D01*
X2455473Y3380873D01*
X2455334Y3381014D01*
X2455205Y3381163D01*
X2455088Y3381319D01*
X2454963Y3381472D01*
X2454849Y3381633D01*
X2454748Y3381799D01*
X2454640Y3381962D01*
X2454542Y3382133D01*
X2454455Y3382311D01*
X2454391Y3382434D01*
X2454385Y3382444D01*
X2454379Y3382456D01*
X2454363Y3382487D01*
X2454352Y3382511D01*
X2452859Y3385553D01*
X2449197Y3391341D01*
X2444789Y3396490D01*
X2439689Y3400954D01*
X2434003Y3404641D01*
X2427846Y3407475D01*
X2421347Y3409397D01*
X2414568Y3410379D01*
X2411251Y3410498D01*
X2407933Y3410379D01*
X2401153Y3409397D01*
X2394653Y3407474D01*
X2388495Y3404638D01*
X2382808Y3400950D01*
X2377707Y3396484D01*
X2373300Y3391334D01*
X2369638Y3385543D01*
X2368144Y3382497D01*
X2368055Y3382298D01*
X2368030Y3382252D01*
X2368011Y3382203D01*
X2367908Y3382020D01*
X2367810Y3381834D01*
X2367780Y3381792D01*
X2367754Y3381745D01*
X2367629Y3381578D01*
X2367507Y3381407D01*
X2367471Y3381367D01*
X2367440Y3381326D01*
X2367061Y3380882D01*
X2367024Y3380845D01*
X2366992Y3380805D01*
X2366842Y3380658D01*
X2366694Y3380507D01*
X2366653Y3380475D01*
X2366617Y3380439D01*
X2366448Y3380314D01*
X2366282Y3380183D01*
X2366238Y3380157D01*
X2366196Y3380126D01*
X2365706Y3379808D01*
X2365661Y3379782D01*
X2365619Y3379753D01*
X2365432Y3379655D01*
X2365249Y3379552D01*
X2365201Y3379533D01*
X2365155Y3379509D01*
X2364954Y3379435D01*
X2364762Y3379358D01*
X2364712Y3379345D01*
X2364663Y3379327D01*
X2364103Y3379162D01*
X2364052Y3379150D01*
X2364003Y3379134D01*
X2363797Y3379093D01*
X2363591Y3379046D01*
X2363540Y3379041D01*
X2363489Y3379031D01*
X2363279Y3379018D01*
X2363069Y3378998D01*
X2363017Y3379000D01*
X2362966Y3378997D01*
X2326194D01*
X2325671Y3379031D01*
X2325364Y3379092D01*
X2325157Y3379133D01*
X2325157Y3379134D01*
D01*
X2324660Y3379302D01*
X2324660Y3379302D01*
X2323920Y3379608D01*
X2323919Y3379609D01*
X2323613Y3379760D01*
X2323449Y3379841D01*
X2323449Y3379841D01*
D01*
X2323013Y3380132D01*
X2322881Y3380248D01*
X2322619Y3380477D01*
X2322618Y3380478D01*
X2322053Y3381044D01*
X2322052Y3381045D01*
X2321822Y3381307D01*
X2321706Y3381439D01*
X2321415Y3381875D01*
X2321183Y3382345D01*
X2321183Y3382346D01*
X2320877Y3383085D01*
X2320876Y3383086D01*
X2320708Y3383582D01*
D01*
X2320708Y3383582D01*
X2320667Y3383790D01*
X2320606Y3384097D01*
X2320571Y3384620D01*
Y3385021D01*
Y3447969D01*
Y3448168D01*
X2320580Y3448299D01*
Y3448430D01*
X2320597Y3448559D01*
X2320606Y3448691D01*
X2320631Y3448820D01*
X2320648Y3448950D01*
X2320726Y3449339D01*
X2320760Y3449466D01*
X2320785Y3449595D01*
X2320827Y3449719D01*
X2320861Y3449845D01*
X2320912Y3449967D01*
X2320954Y3450091D01*
X2321106Y3450458D01*
X2321164Y3450575D01*
X2321214Y3450697D01*
X2321280Y3450811D01*
X2321338Y3450928D01*
X2321410Y3451037D01*
X2321476Y3451151D01*
X2321697Y3451481D01*
X2321776Y3451584D01*
X2321849Y3451693D01*
X2321936Y3451793D01*
X2322016Y3451897D01*
X2322108Y3451988D01*
X2322194Y3452087D01*
X2322334Y3452228D01*
X2322336Y3452229D01*
X2322336Y3452229D01*
X2322366Y3452259D01*
X2322367Y3452260D01*
X2322367Y3452261D01*
X2322368Y3452261D01*
X2322508Y3452401D01*
X2322607Y3452488D01*
X2322699Y3452580D01*
X2322803Y3452660D01*
X2322903Y3452747D01*
X2323012Y3452820D01*
X2323115Y3452899D01*
X2323445Y3453119D01*
X2323559Y3453185D01*
X2323668Y3453258D01*
X2323785Y3453316D01*
X2323899Y3453382D01*
X2324021Y3453432D01*
X2324138Y3453490D01*
X2324505Y3453642D01*
X2324628Y3453684D01*
X2324749Y3453734D01*
X2324877Y3453768D01*
X2325001Y3453810D01*
X2325129Y3453836D01*
X2325256Y3453870D01*
X2325645Y3453947D01*
X2325775Y3453965D01*
X2325905Y3453990D01*
X2326035Y3453999D01*
X2326165Y3454016D01*
X2326297D01*
X2326428Y3454024D01*
X2496351D01*
X2496421Y3454020D01*
D02*
G37*
G36*
X2363242Y3347490D02*
X2363294Y3347492D01*
X2363502Y3347472D01*
X2363713Y3347459D01*
X2363765Y3347448D01*
X2363816Y3347444D01*
X2364021Y3347397D01*
X2364227Y3347356D01*
X2364277Y3347340D01*
X2364328Y3347328D01*
X2364888Y3347162D01*
X2364936Y3347144D01*
X2364986Y3347132D01*
X2365180Y3347055D01*
X2365380Y3346981D01*
X2365426Y3346957D01*
X2365473Y3346938D01*
X2365656Y3346835D01*
X2365844Y3346737D01*
X2365886Y3346707D01*
X2365931Y3346682D01*
X2366421Y3346364D01*
X2366462Y3346333D01*
X2366506Y3346307D01*
X2366671Y3346177D01*
X2366841Y3346051D01*
X2366878Y3346014D01*
X2366919Y3345983D01*
X2367065Y3345832D01*
X2367217Y3345685D01*
X2367249Y3345644D01*
X2367285Y3345608D01*
X2367664Y3345164D01*
X2367696Y3345122D01*
X2367731Y3345084D01*
X2367852Y3344913D01*
X2367979Y3344744D01*
X2368004Y3344698D01*
X2368035Y3344656D01*
X2368133Y3344470D01*
X2368235Y3344287D01*
X2368255Y3344239D01*
X2368279Y3344192D01*
X2368358Y3344015D01*
X2370398Y3339979D01*
X2375641Y3332508D01*
X2382141Y3326240D01*
X2389717Y3321327D01*
X2398091Y3317947D01*
X2406955Y3316225D01*
X2415985Y3316224D01*
X2424849Y3317943D01*
X2433224Y3321322D01*
X2440800Y3326233D01*
X2447303Y3332499D01*
X2452547Y3339969D01*
X2454587Y3344003D01*
X2454588Y3344003D01*
X2454589Y3344006D01*
X2454631Y3344089D01*
X2454648Y3344117D01*
X2454680Y3344178D01*
X2454767Y3344356D01*
X2454864Y3344528D01*
X2454972Y3344690D01*
X2455074Y3344857D01*
X2455188Y3345018D01*
X2455312Y3345171D01*
X2455430Y3345327D01*
X2455559Y3345476D01*
X2455696Y3345614D01*
X2455831Y3345760D01*
X2455903Y3345828D01*
X2455903Y3345829D01*
X2456033Y3345953D01*
X2456125Y3346029D01*
X2456211Y3346112D01*
X2456326Y3346197D01*
X2456435Y3346289D01*
X2456536Y3346353D01*
X2456632Y3346424D01*
X2456956Y3346632D01*
X2457061Y3346691D01*
X2457161Y3346755D01*
X2457289Y3346817D01*
X2457415Y3346886D01*
X2457526Y3346930D01*
X2457633Y3346982D01*
X2457991Y3347125D01*
X2458104Y3347162D01*
X2458215Y3347207D01*
X2458354Y3347243D01*
X2458489Y3347287D01*
X2458606Y3347309D01*
X2458722Y3347340D01*
X2459100Y3347413D01*
X2459219Y3347428D01*
X2459336Y3347451D01*
X2459478Y3347460D01*
X2459620Y3347478D01*
X2459740Y3347477D01*
X2459859Y3347485D01*
X2496519D01*
X2496519D01*
X2496519D01*
X2497043Y3347451D01*
X2497557Y3347349D01*
X2497894Y3347234D01*
X2498053Y3347180D01*
X2498053Y3347180D01*
X2498793Y3346874D01*
X2498794Y3346873D01*
X2499109Y3346718D01*
X2499264Y3346641D01*
X2499556Y3346447D01*
X2499700Y3346350D01*
X2499749Y3346307D01*
X2500095Y3346004D01*
X2500095Y3346003D01*
X2500661Y3345437D01*
X2501007Y3345043D01*
X2501298Y3344607D01*
X2501530Y3344137D01*
X2501530Y3344136D01*
X2501837Y3343396D01*
X2501837Y3343396D01*
X2502006Y3342900D01*
X2502067Y3342590D01*
X2502108Y3342386D01*
X2502142Y3341863D01*
Y3341862D01*
Y3341862D01*
Y3341461D01*
Y3279051D01*
X2502164Y3278896D01*
X2502169Y3278826D01*
X2502181Y3278756D01*
X2502189Y3278564D01*
X2502203Y3278373D01*
X2502199Y3278303D01*
X2502202Y3278233D01*
X2502184Y3278041D01*
X2502173Y3277849D01*
X2502160Y3277781D01*
X2502154Y3277710D01*
X2502111Y3277523D01*
X2502076Y3277334D01*
X2502054Y3277267D01*
X2502038Y3277199D01*
X2501790Y3276360D01*
X2501766Y3276294D01*
X2501748Y3276226D01*
X2501675Y3276048D01*
X2501608Y3275868D01*
X2501576Y3275806D01*
X2501549Y3275741D01*
X2501454Y3275573D01*
X2501364Y3275404D01*
X2501324Y3275347D01*
X2501289Y3275286D01*
X2501173Y3275133D01*
X2501062Y3274975D01*
X2501014Y3274924D01*
X2500972Y3274868D01*
X2500398Y3274208D01*
X2500349Y3274158D01*
X2500304Y3274103D01*
X2500164Y3273972D01*
X2500029Y3273835D01*
X2499973Y3273792D01*
X2499922Y3273744D01*
X2499767Y3273632D01*
X2499614Y3273514D01*
X2499553Y3273479D01*
X2499496Y3273437D01*
X2499327Y3273347D01*
X2499162Y3273250D01*
X2499096Y3273222D01*
X2499034Y3273189D01*
X2498238Y3272826D01*
X2498173Y3272802D01*
X2498110Y3272771D01*
X2497927Y3272708D01*
X2497747Y3272640D01*
X2497680Y3272624D01*
X2497613Y3272602D01*
X2497424Y3272564D01*
X2497237Y3272520D01*
X2497168Y3272513D01*
X2497099Y3272500D01*
X2496907Y3272487D01*
X2496715Y3272468D01*
X2496645Y3272470D01*
X2496576Y3272465D01*
X2326652D01*
X2326521Y3272474D01*
X2326390D01*
X2326261Y3272491D01*
X2326129Y3272500D01*
X2326000Y3272525D01*
X2325871Y3272542D01*
X2325481Y3272620D01*
X2325354Y3272654D01*
X2325225Y3272679D01*
X2325102Y3272722D01*
X2324975Y3272755D01*
X2324853Y3272806D01*
X2324729Y3272848D01*
X2324362Y3273000D01*
X2324245Y3273058D01*
X2324123Y3273108D01*
X2324009Y3273174D01*
X2323892Y3273232D01*
X2323783Y3273304D01*
X2323669Y3273370D01*
X2323339Y3273591D01*
X2323236Y3273670D01*
X2323127Y3273743D01*
X2323027Y3273830D01*
X2322923Y3273910D01*
X2322832Y3274002D01*
X2322733Y3274088D01*
X2322592Y3274229D01*
X2322592Y3274229D01*
X2322591Y3274230D01*
X2322590Y3274231D01*
X2322569Y3274252D01*
X2322564Y3274258D01*
X2322559Y3274262D01*
X2322419Y3274403D01*
X2322332Y3274501D01*
X2322240Y3274593D01*
X2322160Y3274697D01*
X2322073Y3274797D01*
X2322000Y3274906D01*
X2321921Y3275009D01*
X2321701Y3275339D01*
X2321635Y3275453D01*
X2321562Y3275562D01*
X2321504Y3275679D01*
X2321438Y3275793D01*
X2321388Y3275915D01*
X2321330Y3276032D01*
X2321178Y3276399D01*
X2321136Y3276523D01*
X2321086Y3276644D01*
X2321052Y3276771D01*
X2321010Y3276895D01*
X2320984Y3277025D01*
X2320950Y3277151D01*
X2320873Y3277540D01*
X2320856Y3277670D01*
X2320830Y3277799D01*
X2320821Y3277930D01*
X2320804Y3278060D01*
Y3278191D01*
X2320796Y3278322D01*
Y3278521D01*
Y3341469D01*
Y3341870D01*
X2320830Y3342393D01*
X2320891Y3342700D01*
X2320932Y3342907D01*
X2320932Y3342908D01*
D01*
X2321101Y3343404D01*
X2321101Y3343404D01*
X2321407Y3344144D01*
X2321407Y3344145D01*
X2321559Y3344451D01*
X2321639Y3344615D01*
X2321640Y3344615D01*
D01*
X2321931Y3345051D01*
X2322047Y3345183D01*
X2322276Y3345445D01*
X2322277Y3345446D01*
X2322843Y3346012D01*
X2323238Y3346358D01*
X2323673Y3346649D01*
X2324144Y3346881D01*
X2324144Y3346881D01*
X2324884Y3347188D01*
X2324884Y3347188D01*
X2325381Y3347356D01*
X2325690Y3347418D01*
X2325895Y3347459D01*
X2326418Y3347493D01*
X2326418D01*
X2326418D01*
X2363190D01*
X2363242Y3347490D01*
D02*
G37*
G36*
X860000Y330000D02*
X650000D01*
Y640000D01*
X860000D01*
Y330000D01*
D02*
G37*
D132*
X807244Y3854763D02*
D03*
X3093233Y3878221D02*
D03*
D133*
X886772Y3854763D02*
D03*
X3013706Y3878221D02*
D03*
D135*
X2176693Y4162402D02*
D03*
X2176693Y4087598D02*
D03*
X2263307Y4125000D02*
D03*
D136*
X1244173Y2700000D02*
D03*
X1015827D02*
D03*
D137*
X3292776Y3600000D02*
D03*
X3174666D02*
D03*
X690945Y3586639D02*
D03*
X809055D02*
D03*
X2634055Y3015245D02*
D03*
X2515945D02*
D03*
X2097638Y3250000D02*
D03*
X1979528D02*
D03*
D138*
X326194Y3028079D02*
D03*
D139*
Y2927686D02*
D03*
D141*
X1757585Y60000D02*
D03*
X1657585D02*
D03*
X1557585D02*
D03*
X1457585D02*
D03*
D142*
X288194Y3616969D02*
D03*
X325596Y3530355D02*
D03*
X250793Y3530355D02*
D03*
X2697598Y3881693D02*
D03*
X2772402Y3881693D02*
D03*
X2735000Y3968307D02*
D03*
X1087598Y3756693D02*
D03*
X1162402Y3756693D02*
D03*
X1125000Y3843307D02*
D03*
X2344338Y3766693D02*
D03*
X2419141Y3766693D02*
D03*
X2381740Y3853307D02*
D03*
D143*
X1977165Y3009311D02*
D03*
X2050000D02*
D03*
X1336417Y2914738D02*
D03*
X1263583D02*
D03*
X2688583Y3683509D02*
D03*
X2761417D02*
D03*
X2688583Y3764000D02*
D03*
X2761417D02*
D03*
X1263583Y3162093D02*
D03*
X1336417D02*
D03*
X1977166Y3158570D02*
D03*
X2050000D02*
D03*
Y3089673D02*
D03*
X1977166D02*
D03*
X1263583Y2996606D02*
D03*
X1336417D02*
D03*
X778583Y2921662D02*
D03*
X851417D02*
D03*
X563583Y2920639D02*
D03*
X636417D02*
D03*
X1336417Y2832394D02*
D03*
X1263583D02*
D03*
X1453583Y3080000D02*
D03*
X1526417D02*
D03*
X1336417D02*
D03*
X1263583D02*
D03*
X1453583Y2995000D02*
D03*
X1526417D02*
D03*
X636417Y3025000D02*
D03*
X563583D02*
D03*
X620847Y3146639D02*
D03*
X693681D02*
D03*
X1112299Y3685000D02*
D03*
X1185133D02*
D03*
X1112299Y3606000D02*
D03*
X1185133D02*
D03*
X1494003Y1975000D02*
D03*
X1421168D02*
D03*
X1736675Y3198468D02*
D03*
X1663840D02*
D03*
X2446417Y3931890D02*
D03*
X2373583D02*
D03*
X2375060Y4317000D02*
D03*
X2447894D02*
D03*
X2374786Y4238000D02*
D03*
X2447621D02*
D03*
X2446417Y4080000D02*
D03*
X2373583D02*
D03*
X2375060Y4396000D02*
D03*
X2447894D02*
D03*
D145*
X391194Y3253079D02*
D03*
Y3180245D02*
D03*
X1950000Y4236417D02*
D03*
Y4163583D02*
D03*
X1670000Y2503583D02*
D03*
Y2576417D02*
D03*
X1760000Y746417D02*
D03*
Y673583D02*
D03*
X1560000Y2507165D02*
D03*
Y2580000D02*
D03*
X2315000Y2353583D02*
D03*
Y2426417D02*
D03*
X2314000Y2696972D02*
D03*
Y2624137D02*
D03*
X2162205Y2426417D02*
D03*
Y2353583D02*
D03*
X2083507Y2426417D02*
D03*
Y2353583D02*
D03*
X2240000Y2353583D02*
D03*
Y2426417D02*
D03*
X1290000Y1906417D02*
D03*
Y1833583D02*
D03*
X1215000Y1833583D02*
D03*
Y1906417D02*
D03*
X1920000Y3763583D02*
D03*
Y3836417D02*
D03*
X2100000Y4163583D02*
D03*
Y4236417D02*
D03*
X1760000Y3963583D02*
D03*
Y4036417D02*
D03*
X1875591Y4163583D02*
D03*
Y4236417D02*
D03*
X2025869Y4236417D02*
D03*
Y4163583D02*
D03*
X1800000Y4236417D02*
D03*
Y4163583D02*
D03*
D146*
X1399409Y1887401D02*
D03*
X1425000D02*
D03*
X1450591D02*
D03*
Y1812598D02*
D03*
X1425000D02*
D03*
X1399409D02*
D03*
X1824409Y3197598D02*
D03*
X1850000D02*
D03*
X1875591D02*
D03*
Y3272401D02*
D03*
X1850000D02*
D03*
X1824409D02*
D03*
D147*
X1145000Y4005000D02*
D03*
Y4105000D02*
D03*
Y4206031D02*
D03*
X1146000Y4315000D02*
D03*
X2750000Y3600000D02*
D03*
X1200000Y3300000D02*
D03*
X2750000Y3094902D02*
D03*
X3300000Y3775461D02*
D03*
X1919160Y2275000D02*
D03*
X2750000Y4150000D02*
D03*
X2275000Y2925000D02*
D03*
X1650000Y2950000D02*
D03*
X300000Y2750000D02*
D03*
X1850000Y3700000D02*
D03*
X1600000Y4200000D02*
D03*
X1575000Y4000000D02*
D03*
X1600000Y3650000D02*
D03*
X1500000D02*
D03*
X1345000Y4394685D02*
D03*
Y4315945D02*
D03*
Y4237205D02*
D03*
Y4158465D02*
D03*
Y4079724D02*
D03*
Y4000984D02*
D03*
Y3922244D02*
D03*
Y3843504D02*
D03*
Y3764764D02*
D03*
Y3686024D02*
D03*
Y3607284D02*
D03*
X2835000Y4203920D02*
D03*
X550000Y3450000D02*
D03*
X1550000Y2100000D02*
D03*
X2200000Y3000000D02*
D03*
X2573000Y4394685D02*
D03*
Y4315945D02*
D03*
Y4237205D02*
D03*
Y4158465D02*
D03*
Y4079724D02*
D03*
Y4000984D02*
D03*
Y3922244D02*
D03*
Y3843504D02*
D03*
Y3764764D02*
D03*
Y3686024D02*
D03*
Y3607284D02*
D03*
X1850000Y4350000D02*
D03*
X1600000Y4400000D02*
D03*
D148*
X137010Y203804D02*
D03*
X137010Y3510890D02*
D03*
D149*
Y2754985D02*
D03*
D150*
X1382104Y1411739D02*
D03*
X1582104D02*
D03*
X1782104D02*
D03*
D151*
X2940000Y4220000D02*
D03*
X808355D02*
D03*
D152*
X759728Y529000D02*
D03*
D153*
X1345000Y4473425D02*
D03*
X2573000D02*
D03*
D154*
X1600000Y3468215D02*
D03*
X1500000D02*
D03*
X1400000D02*
D03*
X1557585Y3192913D02*
D03*
X1085133Y850000D02*
D03*
D155*
X1300000Y3468215D02*
D03*
X1457585Y3192913D02*
D03*
X1185133Y850000D02*
D03*
D156*
X426194Y375000D02*
D03*
X3241194Y3471662D02*
D03*
X426194D02*
D03*
D157*
X3191155Y3259811D02*
D03*
D158*
X3191194Y3141662D02*
D03*
D159*
X3268353Y3377876D02*
D03*
Y3023545D02*
D03*
D160*
X2613691Y2630000D02*
D03*
Y2430000D02*
D03*
X786691Y2630000D02*
D03*
Y2430000D02*
D03*
D161*
X2433407Y2834882D02*
D03*
X1700257Y2835000D02*
D03*
X2429470Y2226732D02*
D03*
X1696321Y2226850D02*
D03*
X964824Y2834882D02*
D03*
X960888Y2226732D02*
D03*
D162*
X2913691Y2530000D02*
D03*
X486691D02*
D03*
D163*
X2985691D02*
D03*
X414824Y2530000D02*
D03*
D164*
X3048704Y3330945D02*
D03*
X1270000Y2470000D02*
D03*
X1600000Y4120000D02*
D03*
X1595000Y4317000D02*
D03*
X1200000Y3400000D02*
D03*
X2725000Y4459681D02*
D03*
X2970000Y3510000D02*
D03*
X2875134D02*
D03*
X1406194Y250000D02*
D03*
X2340000Y3210000D02*
D03*
X2565015Y3210015D02*
D03*
X2634055Y2950000D02*
D03*
X426194Y3750000D02*
D03*
X1825000Y251662D02*
D03*
X1608977D02*
D03*
X2771477Y3510890D02*
D03*
X1109477Y2570000D02*
D03*
X950000Y2700000D02*
D03*
D165*
X3165194Y2116662D02*
D03*
X610194D02*
D03*
D166*
X2052165Y4067913D02*
D03*
D168*
X327234Y3417662D02*
D03*
X246525D02*
D03*
D169*
X481194Y3202055D02*
D03*
Y3251268D02*
D03*
D170*
X2136614Y2527795D02*
D03*
X2162205D02*
D03*
X2187795D02*
D03*
X2213386D02*
D03*
X2136614Y2752205D02*
D03*
X2162205D02*
D03*
X2187795D02*
D03*
X2213386D02*
D03*
D171*
X1853857Y3943740D02*
D03*
X1891258D02*
D03*
X1928660D02*
D03*
Y4036260D02*
D03*
X1891258D02*
D03*
X1853857D02*
D03*
D172*
X1440384Y2563447D02*
D03*
X1414793Y2632345D02*
D03*
X1465975D02*
D03*
D173*
X2050000Y2720000D02*
D03*
Y2800000D02*
D03*
D174*
X1970000Y2760000D02*
D03*
D175*
X1787503Y2441575D02*
D03*
X1837503D02*
D03*
X1887503D02*
D03*
X1937503D02*
D03*
X1787503Y2638425D02*
D03*
X1837503D02*
D03*
X1887503D02*
D03*
X1937503D02*
D03*
D176*
X1882480Y3416374D02*
D03*
X1817520D02*
D03*
D177*
X2090055Y2906000D02*
D03*
X1971945D02*
D03*
D178*
X2875000Y3439887D02*
D03*
Y3363115D02*
D03*
X1457585Y1598228D02*
D03*
Y1675000D02*
D03*
X2775000Y3259811D02*
D03*
Y3183039D02*
D03*
Y3439887D02*
D03*
Y3363115D02*
D03*
X1119677Y3281243D02*
D03*
Y3358015D02*
D03*
D179*
X2944095Y2982245D02*
D03*
X2755905D02*
D03*
D180*
X551477Y3600000D02*
D03*
Y3760000D02*
D03*
D181*
X2591477Y3363115D02*
D03*
D182*
X2630847Y3382800D02*
D03*
Y3363115D02*
D03*
Y3343430D02*
D03*
X2552107D02*
D03*
Y3363115D02*
D03*
Y3382800D02*
D03*
D183*
X2411229Y3288540D02*
D03*
X2411477Y3434706D02*
D03*
D184*
X798367Y3320015D02*
D03*
X1034587D02*
D03*
D185*
X1857585Y60000D02*
D03*
X1357585D02*
D03*
D186*
X1088677Y3099515D02*
D03*
D187*
X1059149Y3158570D02*
D03*
X1078834D02*
D03*
X1098519D02*
D03*
X1118204D02*
D03*
Y3040460D02*
D03*
X1098519D02*
D03*
X1078834D02*
D03*
X1059149D02*
D03*
D188*
X1147732Y3129043D02*
D03*
Y3109358D02*
D03*
Y3089673D02*
D03*
Y3069987D02*
D03*
X1029622D02*
D03*
Y3089673D02*
D03*
Y3109358D02*
D03*
Y3129043D02*
D03*
D189*
X1110000Y2340000D02*
D03*
X1270000D02*
D03*
D190*
X858249Y3025015D02*
D03*
X781477D02*
D03*
X2492933Y3210015D02*
D03*
X2416161D02*
D03*
X622727Y3330015D02*
D03*
X699499D02*
D03*
D191*
X2970000Y3449055D02*
D03*
Y3330945D02*
D03*
X2725000Y4359055D02*
D03*
Y4240945D02*
D03*
%TF.MD5,33dcb13ed2b0dc9a07503abc2dece48f*%
M02*
