%TF.GenerationSoftware,Altium Limited,Altium Designer,21.6.4 (81)*%
G04 Layer_Color=128*
%FSLAX26Y26*%
%MOIN*%
%TF.SameCoordinates,BD845C9F-3E28-4BEA-89B7-7B09B8E8D9D1*%
%TF.FilePolarity,Positive*%
%TF.FileFunction,Drillmap*%
%TF.Part,Single*%
G01*
G75*
%TA.AperFunction,NonConductor*%
%ADD125C,0.005000*%
D125*
X1130000Y4005000D02*
X1160000D01*
X1145000Y3990000D02*
Y4020000D01*
X1130000Y4105000D02*
X1160000D01*
X1145000Y4090000D02*
Y4120000D01*
X1130000Y4206031D02*
X1160000D01*
X1145000Y4191031D02*
Y4221031D01*
X1131000Y4315000D02*
X1161000D01*
X1146000Y4300000D02*
Y4330000D01*
X2735000Y3600000D02*
X2765000D01*
X2750000Y3585000D02*
Y3615000D01*
X1185000Y3300000D02*
X1215000D01*
X1200000Y3285000D02*
Y3315000D01*
X2735000Y3094902D02*
X2765000D01*
X2750000Y3079902D02*
Y3109902D01*
X3285000Y3775461D02*
X3315000D01*
X3300000Y3760461D02*
Y3790461D01*
X1904160Y2275000D02*
X1934160D01*
X1919160Y2260000D02*
Y2290000D01*
X2735000Y4150000D02*
X2765000D01*
X2750000Y4135000D02*
Y4165000D01*
X2260000Y2925000D02*
X2290000D01*
X2275000Y2910000D02*
Y2940000D01*
X1635000Y2950000D02*
X1665000D01*
X1650000Y2935000D02*
Y2965000D01*
X285000Y2750000D02*
X315000D01*
X300000Y2735000D02*
Y2765000D01*
X1835000Y3700000D02*
X1865000D01*
X1850000Y3685000D02*
Y3715000D01*
X1585000Y4200000D02*
X1615000D01*
X1600000Y4185000D02*
Y4215000D01*
X1560000Y4000000D02*
X1590000D01*
X1575000Y3985000D02*
Y4015000D01*
X1585000Y3650000D02*
X1615000D01*
X1600000Y3635000D02*
Y3665000D01*
X1485000Y3650000D02*
X1515000D01*
X1500000Y3635000D02*
Y3665000D01*
X123010Y203804D02*
X151010D01*
X137010Y189804D02*
Y217804D01*
X123010Y2754985D02*
X151010D01*
X137010Y2740985D02*
Y2768985D01*
X123010Y3510890D02*
X151010D01*
X137010Y3496890D02*
Y3524890D01*
X1353604Y1411739D02*
X1410604D01*
X1382104Y1383239D02*
Y1440239D01*
X1553604Y1411739D02*
X1610604D01*
X1582104Y1383239D02*
Y1440239D01*
X1753604Y1411739D02*
X1810604D01*
X1782104Y1383239D02*
Y1440239D01*
X2902500Y4220000D02*
X2977500D01*
X2940000Y4182500D02*
Y4257500D01*
X770855Y4220000D02*
X845855D01*
X808355Y4182500D02*
Y4257500D01*
X684728Y529000D02*
X834728D01*
X759728Y454000D02*
Y604000D01*
X1330000Y4473425D02*
X1360000D01*
X1345000Y4458425D02*
Y4488425D01*
X1330000Y4394685D02*
X1360000D01*
X1345000Y4379685D02*
Y4409685D01*
X1330000Y4315945D02*
X1360000D01*
X1345000Y4300945D02*
Y4330945D01*
X1330000Y4237205D02*
X1360000D01*
X1345000Y4222205D02*
Y4252205D01*
X1330000Y4158465D02*
X1360000D01*
X1345000Y4143465D02*
Y4173465D01*
X1330000Y4079724D02*
X1360000D01*
X1345000Y4064724D02*
Y4094724D01*
X1330000Y4000984D02*
X1360000D01*
X1345000Y3985984D02*
Y4015984D01*
X1330000Y3922244D02*
X1360000D01*
X1345000Y3907244D02*
Y3937244D01*
X1330000Y3843504D02*
X1360000D01*
X1345000Y3828504D02*
Y3858504D01*
X1330000Y3764764D02*
X1360000D01*
X1345000Y3749764D02*
Y3779764D01*
X1330000Y3686024D02*
X1360000D01*
X1345000Y3671024D02*
Y3701024D01*
X1330000Y3607284D02*
X1360000D01*
X1345000Y3592284D02*
Y3622284D01*
X1582284Y3468215D02*
X1617716D01*
X1600000Y3450499D02*
Y3485932D01*
X1482284Y3468215D02*
X1517716D01*
X1500000Y3450499D02*
Y3485932D01*
X1382284Y3468215D02*
X1417716D01*
X1400000Y3450499D02*
Y3485932D01*
X1282284Y3468215D02*
X1317716D01*
X1300000Y3450499D02*
Y3485932D01*
X1439869Y3192913D02*
X1475302D01*
X1457585Y3175197D02*
Y3210630D01*
X1539869Y3192913D02*
X1575302D01*
X1557585Y3175197D02*
Y3210630D01*
X3170092Y3259811D02*
X3212218D01*
X3191155Y3238749D02*
Y3280874D01*
X3170131Y3141662D02*
X3212257D01*
X3191194Y3120599D02*
Y3162725D01*
X3242369Y3377876D02*
X3294337D01*
X3268353Y3351892D02*
Y3403860D01*
X3242369Y3023545D02*
X3294337D01*
X3268353Y2997561D02*
Y3049529D01*
X2577691Y2630000D02*
X2649691D01*
X2613691Y2594000D02*
Y2666000D01*
X2398407Y2834882D02*
X2468407D01*
X2433407Y2799882D02*
Y2869882D01*
X1665257Y2835000D02*
X1735257D01*
X1700257Y2800000D02*
Y2870000D01*
X2899691Y2530000D02*
X2927691D01*
X2913691Y2516000D02*
Y2544000D01*
X2971691Y2530000D02*
X2999691D01*
X2985691Y2516000D02*
Y2544000D01*
X2577691Y2430000D02*
X2649691D01*
X2613691Y2394000D02*
Y2466000D01*
X2394470Y2226732D02*
X2464470D01*
X2429470Y2191732D02*
Y2261732D01*
X1661321Y2226850D02*
X1731321D01*
X1696321Y2191850D02*
Y2261850D01*
X929824Y2834882D02*
X999824D01*
X964824Y2799882D02*
Y2869882D01*
X750691Y2630000D02*
X822691D01*
X786691Y2594000D02*
Y2666000D01*
X925888Y2226732D02*
X995888D01*
X960888Y2191732D02*
Y2261732D01*
X750691Y2430000D02*
X822691D01*
X786691Y2394000D02*
Y2466000D01*
X472691Y2530000D02*
X500691D01*
X486691Y2516000D02*
Y2544000D01*
X400824Y2530000D02*
X428824D01*
X414824Y2516000D02*
Y2544000D01*
X2820000Y4203920D02*
X2850000D01*
X2835000Y4188920D02*
Y4218920D01*
X535000Y3450000D02*
X565000D01*
X550000Y3435000D02*
Y3465000D01*
X1535000Y2100000D02*
X1565000D01*
X1550000Y2085000D02*
Y2115000D01*
X1167417Y850000D02*
X1202850D01*
X1185133Y832284D02*
Y867716D01*
X1067417Y850000D02*
X1102850D01*
X1085133Y832284D02*
Y867716D01*
X2185000Y3000000D02*
X2215000D01*
X2200000Y2985000D02*
Y3015000D01*
X2558000Y4473425D02*
X2588000D01*
X2573000Y4458425D02*
Y4488425D01*
X2558000Y4394685D02*
X2588000D01*
X2573000Y4379685D02*
Y4409685D01*
X2558000Y4315945D02*
X2588000D01*
X2573000Y4300945D02*
Y4330945D01*
X2558000Y4237205D02*
X2588000D01*
X2573000Y4222205D02*
Y4252205D01*
X2558000Y4158465D02*
X2588000D01*
X2573000Y4143465D02*
Y4173465D01*
X2558000Y4079724D02*
X2588000D01*
X2573000Y4064724D02*
Y4094724D01*
X2558000Y4000984D02*
X2588000D01*
X2573000Y3985984D02*
Y4015984D01*
X2558000Y3922244D02*
X2588000D01*
X2573000Y3907244D02*
Y3937244D01*
X2558000Y3843504D02*
X2588000D01*
X2573000Y3828504D02*
Y3858504D01*
X2558000Y3764764D02*
X2588000D01*
X2573000Y3749764D02*
Y3779764D01*
X2558000Y3686024D02*
X2588000D01*
X2573000Y3671024D02*
Y3701024D01*
X2558000Y3607284D02*
X2588000D01*
X2573000Y3592284D02*
Y3622284D01*
X1835000Y4350000D02*
X1865000D01*
X1850000Y4335000D02*
Y4365000D01*
X1585000Y4400000D02*
X1615000D01*
X1600000Y4385000D02*
Y4415000D01*
X3034704Y3330945D02*
X3062704D01*
X3048704Y3316945D02*
Y3344945D01*
X3125824Y2116662D02*
X3204564D01*
X3165194Y2077292D02*
Y2156032D01*
X570824Y2116662D02*
X649564D01*
X610194Y2077292D02*
Y2156032D01*
X1255000Y2470000D02*
X1285000D01*
X1270000Y2455000D02*
Y2485000D01*
X2585977Y3363115D02*
X2596977D01*
X2591477Y3357615D02*
Y3368615D01*
X1083177Y3099515D02*
X1094177D01*
X1088677Y3094015D02*
Y3105015D01*
X3286776Y3675000D02*
X3298776D01*
X3292776Y3669000D02*
Y3681000D01*
X2046665Y4067913D02*
X2057665D01*
X2052165Y4062413D02*
Y4073413D01*
X1451585Y3575000D02*
X1463585D01*
X1457585Y3569000D02*
Y3581000D01*
X1811520Y3555000D02*
X1823520D01*
X1817520Y3549000D02*
Y3561000D01*
X1895000Y3554496D02*
X1915000D01*
X1905000Y3544496D02*
Y3564496D01*
X1814000Y3620000D02*
X1826000D01*
X1820000Y3614000D02*
Y3626000D01*
X1690821Y3610719D02*
X1701821D01*
X1696321Y3605219D02*
Y3616219D01*
X1690821Y3764984D02*
X1701821D01*
X1696321Y3759484D02*
Y3770484D01*
X2624014Y3482639D02*
X2636014D01*
X2630014Y3476639D02*
Y3488639D01*
X2374014Y3482639D02*
X2386014D01*
X2380014Y3476639D02*
Y3488639D01*
X1544000Y3570000D02*
X1556000D01*
X1550000Y3564000D02*
Y3576000D01*
X1564000Y3920000D02*
X1576000D01*
X1570000Y3914000D02*
Y3926000D01*
X1586000Y4120000D02*
X1614000D01*
X1600000Y4106000D02*
Y4134000D01*
X1581000Y4317000D02*
X1609000D01*
X1595000Y4303000D02*
Y4331000D01*
X1214672Y3756693D02*
X1234672D01*
X1224672Y3746693D02*
Y3766693D01*
X2664000Y4425000D02*
X2676000D01*
X2670000Y4419000D02*
Y4431000D01*
X2665395Y3520000D02*
X2677395D01*
X2671395Y3514000D02*
Y3526000D01*
X1474000Y3390000D02*
X1486000D01*
X1480000Y3384000D02*
Y3396000D01*
X2454000Y3519902D02*
X2466000D01*
X2460000Y3513902D02*
Y3525902D01*
X2524098Y3519902D02*
X2536098D01*
X2530098Y3513902D02*
Y3525902D01*
X2594000Y3519902D02*
X2606000D01*
X2600000Y3513902D02*
Y3525902D01*
X2307000Y3605000D02*
X2319000D01*
X2313000Y3599000D02*
Y3611000D01*
X2305000Y3690000D02*
X2317000D01*
X2311000Y3684000D02*
Y3696000D01*
X2206992Y4275000D02*
X2218992D01*
X2212992Y4269000D02*
Y4281000D01*
X1544000Y3764000D02*
X1556000D01*
X1550000Y3758000D02*
Y3770000D01*
X1547998Y3843000D02*
X1559998D01*
X1553998Y3837000D02*
Y3849000D01*
X2469000Y3861639D02*
X2481000D01*
X2475000Y3855639D02*
Y3867639D01*
X2469634Y3813597D02*
X2481634D01*
X2475634Y3807597D02*
Y3819597D01*
X1188000Y3400000D02*
X1212000D01*
X1200000Y3388000D02*
Y3412000D01*
X1319000Y3400000D02*
X1331000D01*
X1325000Y3394000D02*
Y3406000D01*
X2129239Y4025000D02*
X2141239D01*
X2135239Y4019000D02*
Y4031000D01*
X2256598Y3850000D02*
X2268598D01*
X2262598Y3844000D02*
Y3856000D01*
X2671179Y3825000D02*
X2683179D01*
X2677179Y3819000D02*
Y3831000D01*
X1179133Y3553639D02*
X1191133D01*
X1185133Y3547639D02*
Y3559639D01*
X2077507Y4383621D02*
X2089507D01*
X2083507Y4377621D02*
Y4389621D01*
X2357398Y4155000D02*
X2368398D01*
X2362898Y4149500D02*
Y4160500D01*
X1737539Y4236417D02*
X1748539D01*
X1743039Y4230917D02*
Y4241917D01*
X2164500Y4236417D02*
X2175500D01*
X2170000Y4230917D02*
Y4241917D01*
X1837098Y4090000D02*
X1848098D01*
X1842598Y4084500D02*
Y4095500D01*
X2094000Y4068000D02*
X2106000D01*
X2100000Y4062000D02*
Y4074000D01*
X1914500Y3710000D02*
X1925500D01*
X1920000Y3704500D02*
Y3715500D01*
X1674000Y3959343D02*
X1686000D01*
X1680000Y3953343D02*
Y3965343D01*
X1694257Y4000000D02*
X1706257D01*
X1700257Y3994000D02*
Y4006000D01*
X1714000Y4090000D02*
X1726000D01*
X1720000Y4084000D02*
Y4096000D01*
X1754000Y3900000D02*
X1766000D01*
X1760000Y3894000D02*
Y3906000D01*
X1724000Y3570000D02*
X1736000D01*
X1730000Y3564000D02*
Y3576000D01*
X1974000Y3659887D02*
X1986000D01*
X1980000Y3653887D02*
Y3665887D01*
X536477Y3330015D02*
X566477D01*
X551477Y3315015D02*
Y3345015D01*
X1905000Y2910000D02*
X1925000D01*
X1915000Y2900000D02*
Y2920000D01*
X1209500Y1971172D02*
X1220500D01*
X1215000Y1965672D02*
Y1976672D01*
X1488003Y2380000D02*
X1500003D01*
X1494003Y2374000D02*
Y2386000D01*
X1610000Y2670000D02*
X1630000D01*
X1620000Y2660000D02*
Y2680000D01*
X2207492Y3185715D02*
X2218492D01*
X2212992Y3180215D02*
Y3191215D01*
X3124014Y2732639D02*
X3136014D01*
X3130014Y2726639D02*
Y2738639D01*
X3124014Y2482639D02*
X3136014D01*
X3130014Y2476639D02*
Y2488639D01*
X3124014Y2232639D02*
X3136014D01*
X3130014Y2226639D02*
Y2238639D01*
X2874014Y3232639D02*
X2886014D01*
X2880014Y3226639D02*
Y3238639D01*
X2874014Y2232639D02*
X2886014D01*
X2880014Y2226639D02*
Y2238639D01*
X2624014Y3232639D02*
X2636014D01*
X2630014Y3226639D02*
Y3238639D01*
X2624014Y2232639D02*
X2636014D01*
X2630014Y2226639D02*
Y2238639D01*
X1624014Y1732639D02*
X1636014D01*
X1630014Y1726639D02*
Y1738639D01*
X1624014Y1482639D02*
X1636014D01*
X1630014Y1476639D02*
Y1488639D01*
X1624014Y1232639D02*
X1636014D01*
X1630014Y1226639D02*
Y1238639D01*
X1624014Y732639D02*
X1636014D01*
X1630014Y726639D02*
Y738639D01*
X1124014Y2232639D02*
X1136014D01*
X1130014Y2226639D02*
Y2238639D01*
X1124014Y1482639D02*
X1136014D01*
X1130014Y1476639D02*
Y1488639D01*
X1124014Y1232639D02*
X1136014D01*
X1130014Y1226639D02*
Y1238639D01*
X1124014Y982639D02*
X1136014D01*
X1130014Y976639D02*
Y988639D01*
X1124014Y732639D02*
X1136014D01*
X1130014Y726639D02*
Y738639D01*
X1124014Y482639D02*
X1136014D01*
X1130014Y476639D02*
Y488639D01*
X874014Y4232639D02*
X886014D01*
X880014Y4226639D02*
Y4238639D01*
X874014Y1982639D02*
X886014D01*
X880014Y1976639D02*
Y1988639D01*
X874014Y1732639D02*
X886014D01*
X880014Y1726639D02*
Y1738639D01*
X874014Y1482639D02*
X886014D01*
X880014Y1476639D02*
Y1488639D01*
X874014Y1232639D02*
X886014D01*
X880014Y1226639D02*
Y1238639D01*
X874014Y982639D02*
X886014D01*
X880014Y976639D02*
Y988639D01*
X874014Y732639D02*
X886014D01*
X880014Y726639D02*
Y738639D01*
X874014Y482639D02*
X886014D01*
X880014Y476639D02*
Y488639D01*
X624014Y2482639D02*
X636014D01*
X630014Y2476639D02*
Y2488639D01*
X624014Y2232639D02*
X636014D01*
X630014Y2226639D02*
Y2238639D01*
X624014Y1982639D02*
X636014D01*
X630014Y1976639D02*
Y1988639D01*
X624014Y1732639D02*
X636014D01*
X630014Y1726639D02*
Y1738639D01*
X624014Y1482639D02*
X636014D01*
X630014Y1476639D02*
Y1488639D01*
X624014Y1232639D02*
X636014D01*
X630014Y1226639D02*
Y1238639D01*
X624014Y982639D02*
X636014D01*
X630014Y976639D02*
Y988639D01*
X624014Y732639D02*
X636014D01*
X630014Y726639D02*
Y738639D01*
X624014Y482639D02*
X636014D01*
X630014Y476639D02*
Y488639D01*
X374014Y3732639D02*
X386014D01*
X380014Y3726639D02*
Y3738639D01*
X374014Y2982639D02*
X386014D01*
X380014Y2976639D02*
Y2988639D01*
X374014Y2232639D02*
X386014D01*
X380014Y2226639D02*
Y2238639D01*
X374014Y1982639D02*
X386014D01*
X380014Y1976639D02*
Y1988639D01*
X374014Y1732639D02*
X386014D01*
X380014Y1726639D02*
Y1738639D01*
X374014Y1482639D02*
X386014D01*
X380014Y1476639D02*
Y1488639D01*
X374014Y1232639D02*
X386014D01*
X380014Y1226639D02*
Y1238639D01*
X374014Y982639D02*
X386014D01*
X380014Y976639D02*
Y988639D01*
X374014Y732639D02*
X386014D01*
X380014Y726639D02*
Y738639D01*
X374014Y482639D02*
X386014D01*
X380014Y476639D02*
Y488639D01*
X124014Y3232639D02*
X136014D01*
X130014Y3226639D02*
Y3238639D01*
X124014Y2482639D02*
X136014D01*
X130014Y2476639D02*
Y2488639D01*
X124014Y2232639D02*
X136014D01*
X130014Y2226639D02*
Y2238639D01*
X124014Y1982639D02*
X136014D01*
X130014Y1976639D02*
Y1988639D01*
X124014Y1732639D02*
X136014D01*
X130014Y1726639D02*
Y1738639D01*
X124014Y1482639D02*
X136014D01*
X130014Y1476639D02*
Y1488639D01*
X124014Y1232639D02*
X136014D01*
X130014Y1226639D02*
Y1238639D01*
X124014Y982639D02*
X136014D01*
X130014Y976639D02*
Y988639D01*
X124014Y732639D02*
X136014D01*
X130014Y726639D02*
Y738639D01*
X124014Y482639D02*
X136014D01*
X130014Y476639D02*
Y488639D01*
X1419000Y2030000D02*
X1431000D01*
X1425000Y2024000D02*
Y2036000D01*
X2710000Y4459681D02*
X2740000D01*
X2725000Y4444681D02*
Y4474681D01*
X956496Y3328000D02*
X968496D01*
X962496Y3322000D02*
Y3334000D01*
X956496Y3404000D02*
X968496D01*
X962496Y3398000D02*
Y3410000D01*
X992000Y3003000D02*
X1004000D01*
X998000Y2997000D02*
Y3009000D01*
X1192500Y3164000D02*
X1203500D01*
X1198000Y3158500D02*
Y3169500D01*
X1143500Y3164000D02*
X1154500D01*
X1149000Y3158500D02*
Y3169500D01*
X2956000Y3510000D02*
X2984000D01*
X2970000Y3496000D02*
Y3524000D01*
X2861134Y3510000D02*
X2889134D01*
X2875134Y3496000D02*
Y3524000D01*
X1166477Y3210015D02*
X1186477D01*
X1176477Y3200015D02*
Y3220015D01*
X1654000Y529000D02*
X1666000D01*
X1660000Y523000D02*
Y535000D01*
X1710000Y1560000D02*
X1730000D01*
X1720000Y1550000D02*
Y1570000D01*
X1686321Y1650000D02*
X1706321D01*
X1696321Y1640000D02*
Y1660000D01*
X1819000Y1700000D02*
X1831000D01*
X1825000Y1694000D02*
Y1706000D01*
X1391194Y250000D02*
X1421194D01*
X1406194Y235000D02*
Y265000D01*
X1576104Y3080531D02*
X1588104D01*
X1582104Y3074531D02*
Y3086531D01*
X1844000Y3342450D02*
X1856000D01*
X1850000Y3336450D02*
Y3348450D01*
X2664000Y3230000D02*
X2676000D01*
X2670000Y3224000D02*
Y3236000D01*
X2664000Y3131327D02*
X2676000D01*
X2670000Y3125327D02*
Y3137327D01*
X2519000Y3130000D02*
X2531000D01*
X2525000Y3124000D02*
Y3136000D01*
X2593693Y3131327D02*
X2605693D01*
X2599693Y3125327D02*
Y3137327D01*
X944000Y2970000D02*
X956000D01*
X950000Y2964000D02*
Y2976000D01*
X1041000Y3793000D02*
X1053000D01*
X1047000Y3787000D02*
Y3799000D01*
X1639000Y3335000D02*
X1651000D01*
X1645000Y3329000D02*
Y3341000D01*
X1376104Y2080000D02*
X1388104D01*
X1382104Y2074000D02*
Y2086000D01*
X879000Y3586639D02*
X899000D01*
X889000Y3576639D02*
Y3596639D01*
X2326000Y3210000D02*
X2354000D01*
X2340000Y3196000D02*
Y3224000D01*
X2551015Y3210015D02*
X2579015D01*
X2565015Y3196015D02*
Y3224015D01*
X2110699Y3182192D02*
X2122699D01*
X2116699Y3176192D02*
Y3188192D01*
X2019869Y3330015D02*
X2031869D01*
X2025869Y3324015D02*
Y3336015D01*
X2679383Y3325000D02*
X2691383D01*
X2685383Y3319000D02*
Y3331000D01*
X1389000Y2995000D02*
X1401000D01*
X1395000Y2989000D02*
Y3001000D01*
X2620055Y2950000D02*
X2648055D01*
X2634055Y2936000D02*
Y2964000D01*
X1949865Y3332007D02*
X1961865D01*
X1955865Y3326007D02*
Y3338007D01*
X412194Y3750000D02*
X440194D01*
X426194Y3736000D02*
Y3764000D01*
X1810000Y251662D02*
X1840000D01*
X1825000Y236662D02*
Y266662D01*
X2819000Y3764984D02*
X2831000D01*
X2825000Y3758984D02*
Y3770984D01*
X1593977Y251662D02*
X1623977D01*
X1608977Y236662D02*
Y266662D01*
X993477Y3160015D02*
X1004477D01*
X998977Y3154515D02*
Y3165515D01*
X696514Y2920639D02*
X716514D01*
X706514Y2910639D02*
Y2930639D01*
X218194Y3176662D02*
X230194D01*
X224194Y3170662D02*
Y3182662D01*
X385694Y3116662D02*
X396694D01*
X391194Y3111162D02*
Y3122162D01*
X1451585Y1525000D02*
X1463585D01*
X1457585Y1519000D02*
Y1531000D01*
X1419000Y1750000D02*
X1431000D01*
X1425000Y1744000D02*
Y1756000D01*
X2094000Y3089673D02*
X2106000D01*
X2100000Y3083673D02*
Y3095673D01*
X2757477Y3510890D02*
X2785477D01*
X2771477Y3496890D02*
Y3524890D01*
X1737412Y3348315D02*
X1749412D01*
X1743412Y3342315D02*
Y3354315D01*
X1376104Y1700000D02*
X1388104D01*
X1382104Y1694000D02*
Y1706000D01*
X1094477Y2570000D02*
X1124477D01*
X1109477Y2555000D02*
Y2585000D01*
X700000Y3000000D02*
X720000D01*
X710000Y2990000D02*
Y3010000D01*
X936000Y2700000D02*
X964000D01*
X950000Y2686000D02*
Y2714000D01*
X2104000Y3010000D02*
X2116000D01*
X2110000Y3004000D02*
Y3016000D01*
X1393409Y3145000D02*
X1405409D01*
X1399409Y3139000D02*
Y3151000D01*
X1744500Y3116662D02*
X1755500D01*
X1750000Y3111162D02*
Y3122162D01*
X1264515Y3308344D02*
X1275515D01*
X1270015Y3302844D02*
Y3313844D01*
X1730173Y3259811D02*
X1741173D01*
X1735673Y3254311D02*
Y3265311D01*
X1754500Y810000D02*
X1765500D01*
X1760000Y804500D02*
Y815500D01*
X1424000Y2126059D02*
X1436000D01*
X1430000Y2120059D02*
Y2132059D01*
X1893545Y2120000D02*
X1905545D01*
X1899545Y2114000D02*
Y2126000D01*
X1494000Y2741903D02*
X1506000D01*
X1500000Y2735903D02*
Y2747903D01*
X2365140Y2695866D02*
X2376140D01*
X2370640Y2690366D02*
Y2701366D01*
X1832003Y2700012D02*
X1843003D01*
X1837503Y2694512D02*
Y2705512D01*
X2054500Y2640000D02*
X2065500D01*
X2060000Y2634500D02*
Y2645500D01*
X1932003Y2530000D02*
X1943003D01*
X1937503Y2524500D02*
Y2535500D01*
X1664500Y2624137D02*
X1675500D01*
X1670000Y2618637D02*
Y2629637D01*
X1664500Y2450000D02*
X1675500D01*
X1670000Y2444500D02*
Y2455500D01*
X1782003Y2390000D02*
X1793003D01*
X1787503Y2384500D02*
Y2395500D01*
X1882003Y2390000D02*
X1893003D01*
X1887503Y2384500D02*
Y2395500D01*
X2145917Y2866777D02*
X2156917D01*
X2151417Y2861277D02*
Y2872277D01*
X2269000Y2830000D02*
X2281000D01*
X2275000Y2824000D02*
Y2836000D01*
X2020369Y2350000D02*
X2031369D01*
X2025869Y2344500D02*
Y2355500D01*
X2374000Y2353583D02*
X2386000D01*
X2380000Y2347583D02*
Y2359583D01*
X2132000Y2809000D02*
X2144000D01*
X2138000Y2803000D02*
Y2815000D01*
%TF.MD5,871bcb98a41b679252c52f4dfe8bc614*%
M02*
