%TF.GenerationSoftware,Altium Limited,Altium Designer,21.6.4 (81)*%
G04 Layer_Color=128*
%FSLAX26Y26*%
%MOIN*%
%TF.SameCoordinates,BD845C9F-3E28-4BEA-89B7-7B09B8E8D9D1*%
%TF.FilePolarity,Positive*%
%TF.FileFunction,Paste,Bot*%
%TF.Part,Single*%
G01*
G75*
%TA.AperFunction,SMDPad,CuDef*%
%ADD12R,0.055118X0.086614*%
%ADD13R,0.055118X0.035433*%
%ADD14R,0.043307X0.045276*%
%ADD16R,0.036221X0.082677*%
%ADD17R,0.083465X0.082677*%
%ADD38R,0.045276X0.043307*%
%ADD39R,0.055118X0.137795*%
%ADD40R,0.013780X0.035433*%
%ADD42R,0.033465X0.051181*%
%ADD43R,0.043307X0.068898*%
%ADD46R,0.051181X0.033465*%
%ADD120R,0.035433X0.013780*%
%ADD121R,0.092126X0.051181*%
%ADD122R,0.023622X0.015748*%
D12*
X544538Y3648583D02*
D03*
D13*
Y3748976D02*
D03*
D14*
X2259843Y3316929D02*
D03*
Y3244095D02*
D03*
X2050000Y3961417D02*
D03*
Y3888583D02*
D03*
X2135239Y3961417D02*
D03*
Y3888583D02*
D03*
X2417933Y3931890D02*
D03*
Y4004725D02*
D03*
X2418157Y4161417D02*
D03*
Y4088583D02*
D03*
D16*
X3013765Y3866582D02*
D03*
X887883Y3866622D02*
D03*
D17*
X3093292Y3866582D02*
D03*
X808355Y3866622D02*
D03*
D38*
X1260583Y3102000D02*
D03*
X1333417D02*
D03*
X2761418Y3685000D02*
D03*
X2688583D02*
D03*
X2688582Y3764000D02*
D03*
X2761417D02*
D03*
X1582104Y1561662D02*
D03*
X1654939D02*
D03*
X1148716Y3606000D02*
D03*
X1221551D02*
D03*
X1148716Y3685000D02*
D03*
X1221551D02*
D03*
X1506417Y3920000D02*
D03*
X1433583D02*
D03*
X1506417Y4080000D02*
D03*
X1433583D02*
D03*
X1506417Y4160000D02*
D03*
X1433583D02*
D03*
X1506417Y4317000D02*
D03*
X1433583D02*
D03*
X1506417Y3764000D02*
D03*
X1433583D02*
D03*
Y3843000D02*
D03*
X1506417D02*
D03*
X2111417Y3582378D02*
D03*
X2038583D02*
D03*
X2456417Y3606000D02*
D03*
X2383583D02*
D03*
X2456417Y3690000D02*
D03*
X2383583D02*
D03*
X2151417Y4317000D02*
D03*
X2078583D02*
D03*
D39*
X1971759Y3450000D02*
D03*
X1743412D02*
D03*
D40*
X2150591Y3470858D02*
D03*
X2125000D02*
D03*
X2099410D02*
D03*
Y3396055D02*
D03*
X2125000D02*
D03*
X2150591D02*
D03*
D42*
X1438596Y3286708D02*
D03*
X1363793Y3286708D02*
D03*
X1401194Y3373322D02*
D03*
X1591399Y3286693D02*
D03*
X1516596Y3286693D02*
D03*
X1553998Y3373307D02*
D03*
X2751982Y3881693D02*
D03*
X2677179Y3881693D02*
D03*
X2714581Y3968307D02*
D03*
X1162402Y3781693D02*
D03*
X1087598Y3781693D02*
D03*
X1125000Y3868307D02*
D03*
D43*
X829055Y3586639D02*
D03*
X710945D02*
D03*
X3174666Y3600000D02*
D03*
X3292776D02*
D03*
D46*
X2318307Y3931890D02*
D03*
X2231693Y3969292D02*
D03*
X2231693Y3894488D02*
D03*
D120*
X2337401Y4249409D02*
D03*
Y4275000D02*
D03*
Y4300591D02*
D03*
X2262598D02*
D03*
Y4275000D02*
D03*
Y4249409D02*
D03*
D121*
X946538Y3245639D02*
D03*
X224490D02*
D03*
D122*
X1256394Y3178000D02*
D03*
X1305606D02*
D03*
X1631317Y1651662D02*
D03*
X1582104D02*
D03*
%TF.MD5,32f76cf36f575c6b0c2a1017d6542059*%
M02*
