%TF.GenerationSoftware,Altium Limited,Altium Designer,21.6.4 (81)*%
G04 Layer_Color=0*
%FSLAX26Y26*%
%MOIN*%
%TF.SameCoordinates,BD845C9F-3E28-4BEA-89B7-7B09B8E8D9D1*%
%TF.FilePolarity,Positive*%
%TF.FileFunction,Profile,NP*%
%TF.Part,Single*%
G01*
G75*
%TA.AperFunction,Profile*%
%ADD192C,0.001000*%
D192*
X3795Y20152D02*
X-419Y30326D01*
D02*
G02*
X-425Y30342I1858J779D01*
G01*
X-422Y30334D01*
D02*
G02*
X-558Y30842I1862J771D01*
G01*
X-1998Y41776D01*
D02*
G02*
X-2015Y42039I1998J263D01*
G01*
X-1654Y3655157D01*
D02*
G02*
X-1742Y3656062I1910J642D01*
G01*
X-465Y3665757D01*
D02*
G02*
X-329Y3666265I1998J-263D01*
G01*
X-326Y3666273D01*
X1578Y3670869D01*
D02*
G02*
X1585Y3670885I1865J-763D01*
G01*
D02*
G02*
X2015Y3671527I1858J-779D01*
G01*
X2022Y3671534D01*
X440860Y4112270D01*
X441711Y4112779D01*
D02*
G02*
X495058Y4073160I11962J-39619D01*
G01*
Y3990258D01*
D02*
G03*
X609139Y3990258I57040J0D01*
G01*
Y4270782D01*
D02*
G02*
X621203Y4299989I41385J0D01*
G01*
Y4299989D01*
D02*
G02*
X621209Y4299995I1428J-1422D01*
G01*
X869879Y4549846D01*
D02*
G02*
X869892Y4549859I1435J-1415D01*
G01*
D02*
G02*
X870064Y4550012I1421J-1428D01*
G01*
X870070Y4550016D01*
X878319Y4556536D01*
D02*
G02*
X878330Y4556545I1255J-1577D01*
G01*
D02*
G02*
X878803Y4556821I1244J-1585D01*
G01*
X878811Y4556825D01*
X888984Y4561038D01*
D02*
G02*
X889000Y4561045I779J-1858D01*
G01*
X888992Y4561042D01*
D02*
G02*
X889527Y4561181I771J-1862D01*
G01*
X899914Y4562404D01*
D02*
G02*
X900150Y4562418I236J-2001D01*
G01*
X2769149Y4562273D01*
X2769155D01*
D02*
G02*
X2810534Y4520888I-6J-41385D01*
G01*
Y4459272D01*
D02*
G03*
X2924614Y4459272I57040J0D01*
G01*
Y4520888D01*
D02*
G02*
X2965999Y4562273I41385J0D01*
G01*
X2999834D01*
D02*
G02*
X3001249Y4562618I1152J-1653D01*
G01*
X3012568Y4561127D01*
D02*
G02*
X3014149Y4559941I-263J-1998D01*
G01*
Y4559941D01*
D02*
G02*
X3016165Y4559434I587J-1928D01*
G01*
X3388427Y4185014D01*
D02*
G02*
X3389013Y4183597I-1429J-1421D01*
G01*
D02*
G02*
X3389796Y4182253I-1215J-1608D01*
G01*
X3391293Y4170883D01*
D02*
G02*
X3391310Y4170620I-1998J-263D01*
G01*
D02*
G02*
X3390955Y4169478I-2015J0D01*
G01*
X3390944Y2008008D01*
D02*
G02*
X3390955Y2007798I-2004J-210D01*
G01*
D02*
G02*
X3390938Y2007535I-2015J0D01*
G01*
X3389860Y1999347D01*
D02*
G02*
X3389724Y1998839I-1998J263D01*
G01*
X3389727Y1998847D01*
D02*
G02*
X3389720Y1998831I-1865J763D01*
G01*
X3389724Y1998839D01*
X3389720Y1998831D01*
X3385506Y1988658D01*
D02*
G02*
X3385500Y1988641I-1865J763D01*
G01*
X3385503Y1988649D01*
X3385506Y1988658D01*
X3385503Y1988649D01*
D02*
G02*
X3385240Y1988194I-1862J771D01*
G01*
X3378526Y1979444D01*
D02*
G02*
X3378155Y1979072I-1599J1227D01*
G01*
X3369405Y1972359D01*
D02*
G02*
X3368950Y1972096I-1227J1599D01*
G01*
X3368957Y1972099D01*
D02*
G02*
X3368941Y1972092I-779J1858D01*
G01*
X3368950Y1972096D01*
X3368941Y1972092D01*
X3358768Y1967879D01*
D02*
G02*
X3358752Y1967872I-779J1858D01*
G01*
X3358760Y1967875D01*
X3358768Y1967879D01*
X3358760Y1967875D01*
D02*
G02*
X3358252Y1967739I-771J1862D01*
G01*
X3350064Y1966661D01*
D02*
G02*
X3349801Y1966644I-263J1998D01*
G01*
X1955075D01*
X1955389Y-53925D01*
D02*
G02*
X1955399Y-54125I-2005J-200D01*
G01*
D02*
G02*
X1954811Y-55548I-2015J0D01*
G01*
Y-55548D01*
D02*
G02*
X1954785Y-55574I-1437J1413D01*
G01*
X1954813Y-55546D01*
X1890821Y-119538D01*
D02*
G03*
X1890836Y-119523I-1417J1432D01*
G01*
X1890829Y-119530D01*
D02*
G02*
X1889403Y-120120I-1425J1425D01*
G01*
X1335786Y-119951D01*
D02*
G02*
X1334362Y-119361I1J2015D01*
G01*
X1334369Y-119368D01*
D02*
G02*
X1334354Y-119353I1417J1432D01*
G01*
X1270342Y-55341D01*
D02*
G02*
X1269793Y-53509I1425J1425D01*
G01*
X1270083Y207489D01*
X1269966Y209272D01*
D02*
G02*
X1269962Y209405I2011J132D01*
G01*
X1269984Y243308D01*
X298857Y241446D01*
Y39370D01*
D02*
G02*
X257443Y-2015I-41385J0D01*
G01*
D02*
G02*
X257442Y-2015I28J41385D01*
G01*
X257443D01*
X41699Y-2006D01*
D02*
G02*
X41463Y-1992I0J2015D01*
G01*
X31077Y-769D01*
D02*
G02*
X30541Y-630I236J2001D01*
G01*
X30533Y-626D01*
X20360Y3587D01*
X20352Y3591D01*
X20344Y3594D01*
D02*
G03*
X20360Y3587I779J1858D01*
G01*
X20352Y3591D01*
D02*
G02*
X19896Y3854I771J1862D01*
G01*
X11147Y10568D01*
D02*
G02*
X10775Y10939I1227J1599D01*
G01*
X4061Y19689D01*
D02*
G02*
X3795Y20152I1599J1227D01*
G01*
%TF.MD5,411def0a40554860ea6dbc6b4feb2d1b*%
M02*
