%TF.GenerationSoftware,Altium Limited,Altium Designer,21.6.4 (81)*%
G04 Layer_Color=0*
%FSLAX26Y26*%
%MOIN*%
%TF.SameCoordinates,BD845C9F-3E28-4BEA-89B7-7B09B8E8D9D1*%
%TF.FilePolarity,Positive*%
%TF.FileFunction,Plated,1,4,PTH,Drill*%
%TF.Part,Single*%
G01*
G75*
%TA.AperFunction,ComponentDrill*%
%ADD197C,0.030000*%
%ADD198C,0.030000*%
%ADD199O,0.028000X0.295276*%
%ADD200C,0.057000*%
%ADD201O,0.075000X0.150000*%
%ADD202C,0.150000*%
%ADD203C,0.035433*%
%ADD204C,0.042126*%
%ADD205C,0.072000*%
%ADD206O,0.028000X0.072000*%
%ADD207O,0.028000X0.324803*%
%TA.AperFunction,OtherDrill,Pad Free-0 (3048.704mil,3330.945mil)*%
%ADD208C,0.028000*%
%TA.AperFunction,OtherDrill,Pad Free-1 (1270mil,2470mil)*%
%ADD209C,0.030000*%
%TA.AperFunction,ViaDrill,NotFilled*%
%ADD210C,0.011000*%
%ADD211C,0.012000*%
%ADD212C,0.020000*%
%ADD213C,0.028000*%
%ADD214C,0.024000*%
%ADD215C,0.030000*%
D197*
X1145000Y4005000D02*
D03*
Y4105000D02*
D03*
Y4206031D02*
D03*
X1146000Y4315000D02*
D03*
X1345000Y4473425D02*
D03*
Y4394685D02*
D03*
Y4315945D02*
D03*
Y4237205D02*
D03*
Y4158465D02*
D03*
Y4079724D02*
D03*
Y4000984D02*
D03*
Y3922244D02*
D03*
Y3843504D02*
D03*
Y3764764D02*
D03*
Y3686024D02*
D03*
Y3607284D02*
D03*
X2835000Y4203920D02*
D03*
X2573000Y4473425D02*
D03*
Y4394685D02*
D03*
Y4315945D02*
D03*
Y4237205D02*
D03*
Y4158465D02*
D03*
Y4079724D02*
D03*
Y4000984D02*
D03*
Y3922244D02*
D03*
Y3843504D02*
D03*
Y3764764D02*
D03*
Y3686024D02*
D03*
Y3607284D02*
D03*
X1850000Y4350000D02*
D03*
D198*
X2750000Y3600000D02*
D03*
X1200000Y3300000D02*
D03*
X2750000Y3094902D02*
D03*
X3300000Y3775461D02*
D03*
X1919160Y2275000D02*
D03*
X2750000Y4150000D02*
D03*
X2275000Y2925000D02*
D03*
X1650000Y2950000D02*
D03*
X300000Y2750000D02*
D03*
X1850000Y3700000D02*
D03*
X1600000Y4200000D02*
D03*
X1575000Y4000000D02*
D03*
X1600000Y3650000D02*
D03*
X1500000D02*
D03*
X550000Y3450000D02*
D03*
X1550000Y2100000D02*
D03*
X2200000Y3000000D02*
D03*
X1600000Y4400000D02*
D03*
D199*
X137010Y203804D02*
D03*
X137010Y2754985D02*
D03*
Y3510890D02*
D03*
D200*
X1382104Y1411739D02*
D03*
X1582104D02*
D03*
X1782104D02*
D03*
D201*
X2940000Y4220000D02*
D03*
X808355D02*
D03*
D202*
X759728Y529000D02*
D03*
D203*
X1600000Y3468215D02*
D03*
X1500000D02*
D03*
X1400000D02*
D03*
X1300000D02*
D03*
X1457585Y3192913D02*
D03*
X1557585D02*
D03*
X1185133Y850000D02*
D03*
X1085133D02*
D03*
D204*
X3191155Y3259811D02*
D03*
X3191194Y3141662D02*
D03*
D205*
X2613691Y2630000D02*
D03*
Y2430000D02*
D03*
X786691Y2630000D02*
D03*
Y2430000D02*
D03*
D206*
X2913691Y2530000D02*
D03*
X486691D02*
D03*
D207*
X2985691D02*
D03*
X414824Y2530000D02*
D03*
D208*
X3048704Y3330945D02*
D03*
D209*
X1270000Y2470000D02*
D03*
D210*
X2591477Y3363115D02*
D03*
X1088677Y3099515D02*
D03*
X2052165Y4067913D02*
D03*
X1696321Y3610719D02*
D03*
Y3764984D02*
D03*
X2362898Y4155000D02*
D03*
X1743039Y4236417D02*
D03*
X2170000D02*
D03*
X1842598Y4090000D02*
D03*
X1920000Y3710000D02*
D03*
X1215000Y1971172D02*
D03*
X2212992Y3185715D02*
D03*
X1198000Y3164000D02*
D03*
X1149000D02*
D03*
X998977Y3160015D02*
D03*
X391194Y3116662D02*
D03*
X1750000D02*
D03*
X1270015Y3308344D02*
D03*
X1735673Y3259811D02*
D03*
X1760000Y810000D02*
D03*
X2370640Y2695866D02*
D03*
X1837503Y2700012D02*
D03*
X2060000Y2640000D02*
D03*
X1937503Y2530000D02*
D03*
X1670000Y2624137D02*
D03*
Y2450000D02*
D03*
X1787503Y2390000D02*
D03*
X1887503D02*
D03*
X2151417Y2866777D02*
D03*
X2025869Y2350000D02*
D03*
D211*
X3292776Y3675000D02*
D03*
X1457585Y3575000D02*
D03*
X1817520Y3555000D02*
D03*
X1820000Y3620000D02*
D03*
X2630014Y3482639D02*
D03*
X2380014D02*
D03*
X1550000Y3570000D02*
D03*
X1570000Y3920000D02*
D03*
X2670000Y4425000D02*
D03*
X2671395Y3520000D02*
D03*
X1480000Y3390000D02*
D03*
X2460000Y3519902D02*
D03*
X2530098D02*
D03*
X2600000D02*
D03*
X2313000Y3605000D02*
D03*
X2311000Y3690000D02*
D03*
X2212992Y4275000D02*
D03*
X1550000Y3764000D02*
D03*
X1553998Y3843000D02*
D03*
X2475000Y3861639D02*
D03*
X2475634Y3813597D02*
D03*
X1325000Y3400000D02*
D03*
X2135239Y4025000D02*
D03*
X2262598Y3850000D02*
D03*
X2677179Y3825000D02*
D03*
X1185133Y3553639D02*
D03*
X2083507Y4383621D02*
D03*
X2100000Y4068000D02*
D03*
X1680000Y3959343D02*
D03*
X1700257Y4000000D02*
D03*
X1720000Y4090000D02*
D03*
X1760000Y3900000D02*
D03*
X1730000Y3570000D02*
D03*
X1980000Y3659887D02*
D03*
X1494003Y2380000D02*
D03*
X3130014Y2732639D02*
D03*
Y2482639D02*
D03*
Y2232639D02*
D03*
X2880014Y3232639D02*
D03*
Y2232639D02*
D03*
X2630014Y3232639D02*
D03*
Y2232639D02*
D03*
X1630014Y1732639D02*
D03*
Y1482639D02*
D03*
Y1232639D02*
D03*
Y732639D02*
D03*
X1130014Y2232639D02*
D03*
Y1482639D02*
D03*
Y1232639D02*
D03*
Y982639D02*
D03*
Y732639D02*
D03*
Y482639D02*
D03*
X880014Y4232639D02*
D03*
Y1982639D02*
D03*
Y1732639D02*
D03*
Y1482639D02*
D03*
Y1232639D02*
D03*
Y982639D02*
D03*
Y732639D02*
D03*
Y482639D02*
D03*
X630014Y2482639D02*
D03*
Y2232639D02*
D03*
Y1982639D02*
D03*
Y1732639D02*
D03*
Y1482639D02*
D03*
Y1232639D02*
D03*
Y982639D02*
D03*
Y732639D02*
D03*
Y482639D02*
D03*
X380014Y3732639D02*
D03*
Y2982639D02*
D03*
Y2232639D02*
D03*
Y1982639D02*
D03*
Y1732639D02*
D03*
Y1482639D02*
D03*
Y1232639D02*
D03*
Y982639D02*
D03*
Y732639D02*
D03*
Y482639D02*
D03*
X130014Y3232639D02*
D03*
Y2482639D02*
D03*
Y2232639D02*
D03*
Y1982639D02*
D03*
Y1732639D02*
D03*
Y1482639D02*
D03*
Y1232639D02*
D03*
Y982639D02*
D03*
Y732639D02*
D03*
Y482639D02*
D03*
X1425000Y2030000D02*
D03*
X962496Y3328000D02*
D03*
Y3404000D02*
D03*
X998000Y3003000D02*
D03*
X1660000Y529000D02*
D03*
X1825000Y1700000D02*
D03*
X1582104Y3080531D02*
D03*
X1850000Y3342450D02*
D03*
X2670000Y3230000D02*
D03*
Y3131327D02*
D03*
X2525000Y3130000D02*
D03*
X2599693Y3131327D02*
D03*
X950000Y2970000D02*
D03*
X1047000Y3793000D02*
D03*
X1645000Y3335000D02*
D03*
X1382104Y2080000D02*
D03*
X2116699Y3182192D02*
D03*
X2025869Y3330015D02*
D03*
X2685383Y3325000D02*
D03*
X1395000Y2995000D02*
D03*
X1955865Y3332007D02*
D03*
X2825000Y3764984D02*
D03*
X224194Y3176662D02*
D03*
X1457585Y1525000D02*
D03*
X1425000Y1750000D02*
D03*
X2100000Y3089673D02*
D03*
X1743412Y3348315D02*
D03*
X1382104Y1700000D02*
D03*
X2110000Y3010000D02*
D03*
X1399409Y3145000D02*
D03*
X1430000Y2126059D02*
D03*
X1899545Y2120000D02*
D03*
X1500000Y2741903D02*
D03*
X2275000Y2830000D02*
D03*
X2380000Y2353583D02*
D03*
X2138000Y2809000D02*
D03*
D212*
X1905000Y3554496D02*
D03*
X1224672Y3756693D02*
D03*
X1915000Y2910000D02*
D03*
X1620000Y2670000D02*
D03*
X1176477Y3210015D02*
D03*
X1720000Y1560000D02*
D03*
X1696321Y1650000D02*
D03*
X889000Y3586639D02*
D03*
X706514Y2920639D02*
D03*
X710000Y3000000D02*
D03*
D213*
X1600000Y4120000D02*
D03*
X1595000Y4317000D02*
D03*
X2970000Y3510000D02*
D03*
X2875134D02*
D03*
X2340000Y3210000D02*
D03*
X2565015Y3210015D02*
D03*
X2634055Y2950000D02*
D03*
X426194Y3750000D02*
D03*
X2771477Y3510890D02*
D03*
X950000Y2700000D02*
D03*
D214*
X1200000Y3400000D02*
D03*
D215*
X551477Y3330015D02*
D03*
X2725000Y4459681D02*
D03*
X1406194Y250000D02*
D03*
X1825000Y251662D02*
D03*
X1608977D02*
D03*
X1109477Y2570000D02*
D03*
%TF.MD5,8eb207b38f48909c6ac7197590ba8dad*%
M02*
