M48
;Layer_Color=9474304
;FILE_FORMAT=2:5
INCH,LZ
;TYPE=PLATED
T6F00S00C0.02800
T12F00S00C0.07500
;TYPE=NON_PLATED
T15F00S00C0.07000
T16F00S00C0.07874
%
G90
G05
T06
G00X0013701Y0033744
M15
G01Y0007017
M16
G00X0013701Y0288862
M15
G01Y0262135
M16
G00X0041482Y026784
M15
G01Y023816
M16
G00X0048669Y02552
M15
G01Y02508
M16
G00X0291369Y02508
M15
G01Y02552
M16
G00X0298569Y026784
M15
G01Y023816
M16
G00X0013701Y0364453
M15
G01Y0337725
M16
T12
G00X0294Y041825
M15
G01Y042575
M16
G00X0080835Y041825
M15
G01Y042575
M16
T15
G00X0090839Y0222673
M15
G01X0101339
M16
G00X0101732Y0283488
M15
G01X0091232
M16
G00X0175276Y02835
M15
G01X0164776
M16
G00X0164382Y0222685
M15
G01X0174882
M16
G00X0237697Y0222673
M15
G01X0248197
M16
G00X0248591Y0283488
M15
G01X0238091
M16
T16
G00X0070862Y0211666
M15
G01X0051177
M16
G00X0326362Y0211666
M15
G01X0306677
M16
M17
M30
