M48
;Layer_Color=9474304
;FILE_FORMAT=2:5
INCH,LZ
;TYPE=PLATED
T1F00S00C0.01100
T2F00S00C0.01200
T3F00S00C0.02000
T4F00S00C0.02400
T5F00S00C0.02800
T7F00S00C0.03000
T8F00S00C0.03543
T9F00S00C0.04213
T10F00S00C0.05700
T11F00S00C0.07200
T13F00S00C0.15000
;TYPE=NON_PLATED
T14F00S00C0.05197
%
T01
X0176Y0081
X01215Y0197117
X01198Y03164
X01149
X0108868Y0309951
X0099898Y0316002
X0127002Y0330834
X0039119Y0311666
X0175
X0173567Y0325981
X0221299Y0318571
X0215142Y0286678
X0206Y0264
X019375Y0253
X018875Y0239
X017875
X0167Y0245
Y0262414
X018375Y0270001
X0237064Y0269587
X0202587Y0235
X0259148Y0336312
X0192Y0371
X0169632Y0376498
Y0361072
X018426Y0409
X0205217Y0406791
X0217Y0423642
X023629Y04155
X0174304Y0423642
T02
X0166Y00529
X0163001Y0073264
Y0123264
Y0148264
Y0173264
X01825Y017
X013821
X01425Y0175
X0145758Y01525
X0113001Y0148264
Y0123264
Y0098264
Y0073264
Y0048264
X0088001
Y0073264
Y0098264
Y0123264
Y0148264
Y0173264
X0063001
Y0148264
Y0123264
Y0098264
Y0073264
Y0048264
X0038001
Y0073264
Y0098264
Y0123264
Y0148264
Y0173264
X0013001
Y0148264
Y0123264
Y0098264
Y0073264
Y0048264
Y0198264
X0038001
X0063001
X0088001
X0113001Y0223264
X013821Y0208
X01425Y0203
X0143Y0212606
X01494Y0238
X015Y027419
X01395Y02995
X0139941Y03145
X0148Y0339
X01325Y034
X009625Y03404
Y03328
X00998Y03003
X0095Y0297
X0038001Y0298264
X0022419Y0317666
X0013001Y0323264
Y0248264
Y0223264
X0038001
X0063001
Y0248264
X015821Y0308053
X01645Y03335
X0174341Y0334832
X0185Y0334245
X0195587Y0333201
X0202587Y0333001
X021167Y0318219
X021Y0308967
X0211Y0301
X02138Y02809
X02275Y0283
X02525Y0313
X0259969Y0313133
X0267
Y0323
X0263001Y0323264
X0268538Y03325
X0288001Y0323264
Y0223264
X0263001
X0238Y0235358
X0189954Y0212
X0313001Y0223264
Y0248264
Y0273264
X0329278Y03675
X02825Y0376498
X0267718Y03825
X0247563Y038136
X02475Y0386164
X022626Y0385
X02311Y0369
X02313Y03605
X0238001Y0348264
X0246Y035199
X025301
X026
X0263001Y0348264
X026714Y0352
X0198Y0365989
X0182Y0362
X0181752Y03555
X0173Y0357
X0155
Y03764
X01554Y03843
X0157Y0392
X0168Y0395934
X0170026Y04
X0172Y0409
X0176Y039
X0213524Y04025
X021Y04068
X0221299Y04275
X0208351Y0438362
X0267Y04425
X0088001Y0423264
X01047Y03793
X0118513Y0355364
X0145758Y03575
X0038001Y0373264
T03
X0172Y0156
X0169632Y0165
X0117648Y0321002
X0071Y03
X0070651Y0292064
X0162Y0267
X01915Y0291
X01905Y035545
X0122467Y0375669
X00889Y0358664
T04
X012Y034
T05
X0095Y027
X0234Y0321
X0256502Y0321002
X0263405Y0295
X030487Y0333095
X0297Y0351
X0287513
X0277148Y0351089
X016Y0412
X01595Y04317
X0042619Y0375
T07
X0140619Y0025
X0160898Y0025166
X01825
X0127Y0247
X0110948Y0257
X012Y033
X0055148Y0333001
X003Y0275
X0165Y0295
X022Y03
X02275Y02925
X0275Y030949
X0191916Y02275
X0155Y021
X033Y0377546
X0275Y036
X02573Y0360728
Y0368602
Y0376476
Y038435
Y0392224
Y0400098
Y0407972
Y0415846
Y0423721
Y0431595
Y0439468
Y0447342
X02725Y0445968
X0275Y0415
X02835Y0420392
X0185Y0435
X016Y044
Y042
X01575Y04
X016Y0365
X0185Y037
X015Y0365
X01345Y0368602
Y0360728
Y0376476
Y038435
Y0392224
Y0400098
Y0407972
Y0415846
Y0423721
Y0431595
Y0439468
Y0447342
X01146Y04315
X01145Y0420603
Y04105
Y04005
X0055Y0345
T08
X0108513Y0085
X0118513
X0145758Y0319291
X0155759
X016Y0346821
X015
X014
X013
T09
X0319119Y0314166
X0319115Y0325981
T10
X015821Y0141174
X017821
X013821
T11
X0078669Y0243
Y0263
X0261369
Y0243
T13
X0075973Y00529
T14
X0326835Y0302355
Y0337788
M30
