%FSLAX23Y23*%
%MOIN*%
G70*
G01*
G75*
G04 Layer_Physical_Order=2*
G04 Layer_Color=32768*
%ADD10C,0.008*%
%ADD11C,0.010*%
%ADD12C,0.009*%
%ADD13C,0.020*%
%ADD14C,0.015*%
%ADD15C,0.030*%
%ADD16C,0.025*%
%ADD17C,0.080*%
%ADD18R,0.080X0.080*%
%ADD19C,0.260*%
%ADD20C,0.270*%
%ADD21R,0.060X0.060*%
%ADD22C,0.060*%
%ADD23C,0.059*%
%ADD24R,0.059X0.059*%
%ADD25C,0.260*%
%ADD26C,0.197*%
%ADD27C,0.315*%
%ADD28C,0.028*%
%ADD29C,0.050*%
%ADD30C,0.030*%
%ADD31C,0.040*%
%ADD32C,0.040*%
%ADD33C,0.100*%
G04:AMPARAMS|DCode=34|XSize=98mil|YSize=98mil|CornerRadius=0mil|HoleSize=0mil|Usage=FLASHONLY|Rotation=0.000|XOffset=0mil|YOffset=0mil|HoleType=Round|Shape=Relief|Width=20mil|Gap=10mil|Entries=4|*
%AMTHD34*
7,0,0,0.098,0.078,0.020,45*
%
%ADD34THD34*%
%ADD35C,0.078*%
G04:AMPARAMS|DCode=36|XSize=210mil|YSize=210mil|CornerRadius=0mil|HoleSize=0mil|Usage=FLASHONLY|Rotation=0.000|XOffset=0mil|YOffset=0mil|HoleType=Round|Shape=Relief|Width=20mil|Gap=10mil|Entries=4|*
%AMTHD36*
7,0,0,0.210,0.190,0.020,45*
%
%ADD36THD36*%
%ADD37C,0.075*%
G04:AMPARAMS|DCode=38|XSize=95mil|YSize=95mil|CornerRadius=0mil|HoleSize=0mil|Usage=FLASHONLY|Rotation=0.000|XOffset=0mil|YOffset=0mil|HoleType=Round|Shape=Relief|Width=20mil|Gap=10mil|Entries=4|*
%AMTHD38*
7,0,0,0.095,0.075,0.020,45*
%
%ADD38THD38*%
%ADD39C,0.075*%
G04:AMPARAMS|DCode=40|XSize=95.433mil|YSize=95.433mil|CornerRadius=0mil|HoleSize=0mil|Usage=FLASHONLY|Rotation=0.000|XOffset=0mil|YOffset=0mil|HoleType=Round|Shape=Relief|Width=20mil|Gap=10mil|Entries=4|*
%AMTHD40*
7,0,0,0.095,0.075,0.020,45*
%
%ADD40THD40*%
%ADD41C,0.070*%
G04:AMPARAMS|DCode=42|XSize=90mil|YSize=90mil|CornerRadius=0mil|HoleSize=0mil|Usage=FLASHONLY|Rotation=0.000|XOffset=0mil|YOffset=0mil|HoleType=Round|Shape=Relief|Width=20mil|Gap=10mil|Entries=4|*
%AMTHD42*
7,0,0,0.090,0.070,0.020,45*
%
%ADD42THD42*%
%ADD43C,0.300*%
%ADD44C,0.237*%
%ADD45C,0.355*%
%ADD46C,0.051*%
%ADD47C,0.068*%
%ADD48C,0.052*%
G36*
X3559Y-608D02*
X3560Y-608D01*
X3561D01*
X3561Y-608D01*
X3562Y-608D01*
X3563Y-608D01*
X3564Y-608D01*
X3566Y-609D01*
X3566D01*
X3566Y-609D01*
X3567Y-609D01*
X3568Y-609D01*
X3569Y-609D01*
X3570Y-610D01*
X3572Y-611D01*
X3572Y-611D01*
X3573Y-611D01*
X3573Y-612D01*
X3574Y-612D01*
X3576Y-614D01*
X3578Y-616D01*
X3578Y-616D01*
X3578Y-616D01*
X3579Y-617D01*
X3579Y-618D01*
X3580Y-619D01*
X3580Y-620D01*
X3581Y-622D01*
Y-622D01*
X3582Y-623D01*
X3582Y-624D01*
X3582Y-625D01*
X3582Y-626D01*
X3582Y-627D01*
X3583Y-630D01*
Y-630D01*
Y-631D01*
X3582Y-632D01*
X3582Y-634D01*
X3582Y-635D01*
X3582Y-637D01*
X3581Y-639D01*
X3581Y-641D01*
X3581Y-641D01*
X3580Y-642D01*
X3580Y-642D01*
X3579Y-643D01*
X3578Y-645D01*
X3577Y-646D01*
X3576Y-648D01*
X3575Y-649D01*
X3575Y-649D01*
X3574Y-649D01*
X3574Y-650D01*
X3573Y-651D01*
X3571Y-652D01*
X3570Y-652D01*
X3568Y-653D01*
X3566Y-654D01*
X3566D01*
X3565Y-654D01*
X3564Y-654D01*
X3563Y-655D01*
X3561Y-655D01*
X3559Y-655D01*
X3557Y-655D01*
X3554Y-656D01*
X3545D01*
Y-684D01*
Y-684D01*
X3545Y-684D01*
X3545Y-685D01*
X3544Y-685D01*
X3544Y-685D01*
X3544D01*
X3543Y-685D01*
X3543D01*
X3542Y-685D01*
X3542D01*
X3542Y-685D01*
X3541Y-685D01*
X3539D01*
X3538Y-685D01*
X3538Y-685D01*
X3537D01*
X3537Y-685D01*
X3536Y-685D01*
X3536D01*
X3536Y-685D01*
X3535Y-684D01*
Y-684D01*
Y-684D01*
X3535Y-684D01*
Y-612D01*
Y-612D01*
Y-611D01*
X3535Y-611D01*
X3535Y-609D01*
X3536Y-609D01*
X3536Y-608D01*
X3537Y-608D01*
X3538Y-608D01*
X3539Y-607D01*
X3557D01*
X3559Y-608D01*
D02*
G37*
G36*
X3485Y-602D02*
X3485D01*
X3486Y-602D01*
X3486Y-602D01*
X3487Y-602D01*
X3487D01*
X3487Y-602D01*
X3487Y-603D01*
X3488Y-603D01*
X3488Y-603D01*
Y-684D01*
Y-684D01*
Y-684D01*
X3487Y-684D01*
X3487Y-685D01*
X3487Y-685D01*
X3486D01*
X3486Y-685D01*
X3486D01*
X3485Y-685D01*
X3484D01*
X3484Y-685D01*
X3481D01*
X3480Y-685D01*
X3480D01*
X3480Y-685D01*
X3479Y-685D01*
X3479D01*
X3479Y-685D01*
X3478Y-684D01*
Y-684D01*
X3478Y-684D01*
Y-603D01*
Y-603D01*
Y-603D01*
X3478Y-603D01*
Y-603D01*
X3478Y-602D01*
X3479Y-602D01*
X3479D01*
X3479Y-602D01*
X3480Y-602D01*
X3480Y-602D01*
X3480D01*
X3481Y-601D01*
X3484D01*
X3485Y-602D01*
D02*
G37*
G36*
X3442Y-627D02*
X3443Y-627D01*
X3445Y-627D01*
X3447Y-628D01*
X3448Y-628D01*
X3448D01*
X3449Y-629D01*
X3450Y-629D01*
X3450Y-629D01*
X3453Y-630D01*
X3454Y-631D01*
X3455Y-632D01*
X3455Y-632D01*
X3455Y-633D01*
X3456Y-633D01*
X3456Y-634D01*
X3457Y-635D01*
X3457Y-636D01*
X3458Y-637D01*
X3458Y-639D01*
Y-639D01*
X3459Y-639D01*
X3459Y-640D01*
X3459Y-641D01*
X3459Y-642D01*
X3460Y-644D01*
X3460Y-645D01*
Y-647D01*
Y-684D01*
Y-684D01*
Y-684D01*
X3459Y-684D01*
X3459Y-685D01*
X3459D01*
X3459Y-685D01*
X3458Y-685D01*
X3458Y-685D01*
X3458D01*
X3457Y-685D01*
X3456Y-685D01*
X3455D01*
X3454Y-685D01*
X3453Y-685D01*
X3453D01*
X3452Y-685D01*
X3452Y-685D01*
X3451Y-685D01*
X3451Y-684D01*
X3451Y-684D01*
X3451Y-684D01*
Y-678D01*
X3451Y-678D01*
X3450Y-679D01*
X3450Y-680D01*
X3449Y-680D01*
X3448Y-681D01*
X3446Y-682D01*
X3445Y-683D01*
X3443Y-684D01*
X3443Y-684D01*
X3442Y-684D01*
X3441Y-685D01*
X3440Y-685D01*
X3439Y-686D01*
X3437Y-686D01*
X3436Y-686D01*
X3434Y-686D01*
X3432D01*
X3431Y-686D01*
X3430Y-686D01*
X3429Y-686D01*
X3426Y-685D01*
X3426D01*
X3426Y-685D01*
X3425Y-685D01*
X3424Y-684D01*
X3422Y-683D01*
X3420Y-682D01*
X3420Y-682D01*
X3420Y-682D01*
X3420Y-681D01*
X3419Y-680D01*
X3418Y-680D01*
X3418Y-679D01*
X3417Y-677D01*
Y-677D01*
X3416Y-676D01*
X3416Y-676D01*
X3416Y-675D01*
X3416Y-674D01*
X3416Y-673D01*
X3415Y-670D01*
Y-670D01*
Y-669D01*
X3416Y-668D01*
X3416Y-667D01*
X3416Y-666D01*
X3416Y-665D01*
X3417Y-663D01*
X3417Y-662D01*
X3417Y-662D01*
X3417Y-661D01*
X3418Y-661D01*
X3419Y-660D01*
X3419Y-659D01*
X3420Y-658D01*
X3421Y-657D01*
X3422Y-656D01*
X3423Y-656D01*
X3423Y-656D01*
X3424Y-655D01*
X3425Y-655D01*
X3426Y-654D01*
X3427Y-654D01*
X3429Y-653D01*
X3431Y-653D01*
X3431D01*
X3432Y-653D01*
X3433Y-653D01*
X3434Y-652D01*
X3436Y-652D01*
X3438Y-652D01*
X3440Y-652D01*
X3450D01*
Y-648D01*
Y-648D01*
Y-647D01*
Y-647D01*
X3450Y-646D01*
X3450Y-644D01*
X3449Y-642D01*
Y-642D01*
X3449Y-642D01*
X3449Y-641D01*
X3449Y-641D01*
X3448Y-639D01*
X3447Y-638D01*
Y-638D01*
X3447Y-638D01*
X3446Y-637D01*
X3445Y-636D01*
X3443Y-636D01*
X3443D01*
X3443Y-636D01*
X3442Y-635D01*
X3442Y-635D01*
X3441Y-635D01*
X3440Y-635D01*
X3437Y-635D01*
X3436D01*
X3435Y-635D01*
X3433Y-635D01*
X3431Y-636D01*
X3431D01*
X3430Y-636D01*
X3430Y-636D01*
X3429Y-636D01*
X3427Y-637D01*
X3426Y-638D01*
X3426D01*
X3425Y-638D01*
X3425Y-638D01*
X3425Y-638D01*
X3423Y-639D01*
X3422Y-640D01*
X3422Y-640D01*
X3421Y-640D01*
X3420Y-640D01*
X3420Y-640D01*
X3420D01*
X3419Y-640D01*
X3419Y-640D01*
X3418Y-640D01*
Y-639D01*
X3418Y-639D01*
X3418Y-638D01*
Y-638D01*
Y-638D01*
Y-637D01*
Y-637D01*
Y-637D01*
Y-636D01*
Y-636D01*
Y-635D01*
X3418Y-634D01*
Y-634D01*
X3418Y-634D01*
X3419Y-633D01*
X3419Y-633D01*
X3419Y-633D01*
X3420Y-632D01*
X3421Y-632D01*
X3422Y-631D01*
X3422D01*
X3422Y-631D01*
X3423Y-630D01*
X3423Y-630D01*
X3425Y-630D01*
X3426Y-629D01*
X3427D01*
X3427Y-629D01*
X3427Y-629D01*
X3428Y-628D01*
X3429Y-628D01*
X3430Y-628D01*
X3432Y-628D01*
X3432D01*
X3433Y-627D01*
X3433Y-627D01*
X3434Y-627D01*
X3435D01*
X3436Y-627D01*
X3438Y-627D01*
X3440D01*
X3442Y-627D01*
D02*
G37*
G36*
X3865Y-607D02*
X3865D01*
X3866Y-607D01*
X3866Y-607D01*
X3867Y-607D01*
X3867D01*
X3867Y-608D01*
X3867Y-608D01*
X3868Y-608D01*
X3868Y-608D01*
X3868Y-609D01*
Y-677D01*
X3882D01*
X3883Y-677D01*
X3883D01*
X3883Y-677D01*
X3883Y-678D01*
Y-678D01*
X3884Y-678D01*
X3884Y-679D01*
X3884Y-679D01*
Y-679D01*
X3884Y-680D01*
X3884Y-680D01*
Y-681D01*
Y-681D01*
Y-682D01*
X3884Y-682D01*
X3884Y-683D01*
Y-683D01*
X3884Y-683D01*
X3883Y-684D01*
X3883Y-684D01*
X3883Y-685D01*
X3882D01*
X3882Y-685D01*
X3841D01*
X3841Y-685D01*
X3840Y-685D01*
X3840Y-684D01*
Y-684D01*
X3840Y-684D01*
X3839Y-683D01*
Y-683D01*
Y-682D01*
X3839Y-682D01*
Y-681D01*
Y-681D01*
Y-680D01*
Y-680D01*
X3839Y-679D01*
Y-679D01*
X3840Y-679D01*
X3840Y-678D01*
Y-678D01*
X3840Y-678D01*
X3841Y-677D01*
X3841D01*
X3841Y-677D01*
X3841Y-677D01*
X3858D01*
Y-618D01*
X3843Y-627D01*
X3842Y-627D01*
X3842Y-627D01*
X3841Y-627D01*
X3841Y-627D01*
X3840D01*
X3840Y-627D01*
Y-627D01*
X3839Y-627D01*
X3839Y-626D01*
X3839Y-626D01*
Y-626D01*
Y-625D01*
X3839Y-624D01*
Y-624D01*
Y-623D01*
Y-623D01*
Y-622D01*
Y-622D01*
X3839Y-621D01*
Y-621D01*
X3839Y-621D01*
Y-620D01*
X3839Y-620D01*
X3840Y-620D01*
X3840Y-620D01*
X3840Y-619D01*
X3841Y-619D01*
X3858Y-608D01*
X3859Y-608D01*
X3859Y-607D01*
X3859D01*
X3859Y-607D01*
X3860Y-607D01*
X3860D01*
X3860Y-607D01*
X3861D01*
X3862Y-607D01*
X3865D01*
X3865Y-607D01*
D02*
G37*
G36*
X3648Y-627D02*
X3650Y-627D01*
X3651Y-627D01*
X3653Y-628D01*
X3655Y-628D01*
X3655D01*
X3655Y-629D01*
X3656Y-629D01*
X3657Y-629D01*
X3659Y-630D01*
X3660Y-631D01*
X3661Y-632D01*
X3661Y-632D01*
X3662Y-633D01*
X3662Y-633D01*
X3663Y-634D01*
X3663Y-635D01*
X3664Y-636D01*
X3664Y-637D01*
X3665Y-639D01*
Y-639D01*
X3665Y-639D01*
X3665Y-640D01*
X3665Y-641D01*
X3666Y-642D01*
X3666Y-644D01*
X3666Y-645D01*
Y-647D01*
Y-684D01*
Y-684D01*
Y-684D01*
X3666Y-684D01*
X3665Y-685D01*
X3665D01*
X3665Y-685D01*
X3665Y-685D01*
X3664Y-685D01*
X3664D01*
X3664Y-685D01*
X3663Y-685D01*
X3661D01*
X3660Y-685D01*
X3659Y-685D01*
X3659D01*
X3659Y-685D01*
X3658Y-685D01*
X3658Y-685D01*
X3658Y-684D01*
X3658Y-684D01*
X3657Y-684D01*
Y-678D01*
X3657Y-678D01*
X3657Y-679D01*
X3656Y-680D01*
X3655Y-680D01*
X3654Y-681D01*
X3653Y-682D01*
X3651Y-683D01*
X3650Y-684D01*
X3649Y-684D01*
X3649Y-684D01*
X3648Y-685D01*
X3647Y-685D01*
X3645Y-686D01*
X3644Y-686D01*
X3642Y-686D01*
X3640Y-686D01*
X3639D01*
X3638Y-686D01*
X3637Y-686D01*
X3635Y-686D01*
X3633Y-685D01*
X3632D01*
X3632Y-685D01*
X3631Y-685D01*
X3631Y-684D01*
X3629Y-683D01*
X3627Y-682D01*
X3627Y-682D01*
X3626Y-682D01*
X3626Y-681D01*
X3625Y-680D01*
X3625Y-680D01*
X3624Y-679D01*
X3623Y-677D01*
Y-677D01*
X3623Y-676D01*
X3623Y-676D01*
X3622Y-675D01*
X3622Y-674D01*
X3622Y-673D01*
X3622Y-670D01*
Y-670D01*
Y-669D01*
X3622Y-668D01*
X3622Y-667D01*
X3622Y-666D01*
X3623Y-665D01*
X3623Y-663D01*
X3624Y-662D01*
X3624Y-662D01*
X3624Y-661D01*
X3624Y-661D01*
X3625Y-660D01*
X3626Y-659D01*
X3627Y-658D01*
X3628Y-657D01*
X3629Y-656D01*
X3629Y-656D01*
X3630Y-656D01*
X3630Y-655D01*
X3631Y-655D01*
X3632Y-654D01*
X3634Y-654D01*
X3635Y-653D01*
X3637Y-653D01*
X3638D01*
X3638Y-653D01*
X3639Y-653D01*
X3641Y-652D01*
X3642Y-652D01*
X3644Y-652D01*
X3646Y-652D01*
X3656D01*
Y-648D01*
Y-648D01*
Y-647D01*
Y-647D01*
X3656Y-646D01*
X3656Y-644D01*
X3655Y-642D01*
Y-642D01*
X3655Y-642D01*
X3655Y-641D01*
X3655Y-641D01*
X3654Y-639D01*
X3653Y-638D01*
Y-638D01*
X3653Y-638D01*
X3652Y-637D01*
X3651Y-636D01*
X3650Y-636D01*
X3649D01*
X3649Y-636D01*
X3649Y-635D01*
X3648Y-635D01*
X3647Y-635D01*
X3646Y-635D01*
X3644Y-635D01*
X3642D01*
X3642Y-635D01*
X3639Y-635D01*
X3637Y-636D01*
X3637D01*
X3637Y-636D01*
X3636Y-636D01*
X3635Y-636D01*
X3634Y-637D01*
X3632Y-638D01*
X3632D01*
X3632Y-638D01*
X3631Y-638D01*
X3631Y-638D01*
X3630Y-639D01*
X3628Y-640D01*
X3628Y-640D01*
X3628Y-640D01*
X3627Y-640D01*
X3626Y-640D01*
X3626D01*
X3625Y-640D01*
X3625Y-640D01*
X3625Y-640D01*
Y-639D01*
X3625Y-639D01*
X3624Y-638D01*
Y-638D01*
Y-638D01*
Y-637D01*
Y-637D01*
Y-637D01*
Y-636D01*
Y-636D01*
Y-635D01*
X3625Y-634D01*
Y-634D01*
X3625Y-634D01*
X3625Y-633D01*
X3626Y-633D01*
X3626Y-633D01*
X3626Y-632D01*
X3627Y-632D01*
X3628Y-631D01*
X3628D01*
X3629Y-631D01*
X3629Y-630D01*
X3630Y-630D01*
X3631Y-630D01*
X3633Y-629D01*
X3633D01*
X3633Y-629D01*
X3634Y-629D01*
X3635Y-628D01*
X3635Y-628D01*
X3636Y-628D01*
X3639Y-628D01*
X3639D01*
X3639Y-627D01*
X3640Y-627D01*
X3640Y-627D01*
X3641D01*
X3642Y-627D01*
X3645Y-627D01*
X3647D01*
X3648Y-627D01*
D02*
G37*
G36*
X3604Y-602D02*
X3605D01*
X3605Y-602D01*
X3606Y-602D01*
X3606Y-602D01*
X3606D01*
X3606Y-602D01*
X3607Y-603D01*
X3607Y-603D01*
X3607Y-603D01*
Y-684D01*
Y-684D01*
Y-684D01*
X3607Y-684D01*
X3607Y-685D01*
X3606Y-685D01*
X3606D01*
X3606Y-685D01*
X3605D01*
X3604Y-685D01*
X3604D01*
X3603Y-685D01*
X3600D01*
X3600Y-685D01*
X3599D01*
X3599Y-685D01*
X3598Y-685D01*
X3598D01*
X3598Y-685D01*
X3597Y-684D01*
Y-684D01*
X3597Y-684D01*
Y-603D01*
Y-603D01*
Y-603D01*
X3597Y-603D01*
Y-603D01*
X3598Y-602D01*
X3598Y-602D01*
X3598D01*
X3599Y-602D01*
X3599Y-602D01*
X3600Y-602D01*
X3600D01*
X3600Y-601D01*
X3604D01*
X3604Y-602D01*
D02*
G37*
G36*
X3275Y-627D02*
X3276Y-627D01*
X3278Y-627D01*
X3280Y-628D01*
X3282Y-628D01*
X3284Y-629D01*
X3284Y-629D01*
X3284Y-629D01*
X3285Y-630D01*
X3286Y-630D01*
X3287Y-631D01*
X3289Y-632D01*
X3290Y-633D01*
X3291Y-634D01*
X3291Y-635D01*
X3291Y-635D01*
X3292Y-636D01*
X3293Y-637D01*
X3293Y-638D01*
X3294Y-639D01*
X3295Y-641D01*
X3295Y-643D01*
Y-643D01*
X3295Y-643D01*
X3296Y-644D01*
X3296Y-645D01*
X3296Y-647D01*
X3296Y-649D01*
X3297Y-650D01*
Y-652D01*
Y-654D01*
Y-654D01*
Y-655D01*
X3296Y-655D01*
X3296Y-657D01*
X3295Y-658D01*
X3295Y-658D01*
X3295Y-658D01*
X3294Y-658D01*
X3293Y-658D01*
X3257D01*
Y-659D01*
Y-659D01*
Y-660D01*
X3257Y-661D01*
Y-663D01*
X3258Y-664D01*
X3258Y-667D01*
Y-667D01*
X3258Y-667D01*
X3258Y-668D01*
X3259Y-669D01*
X3260Y-671D01*
X3261Y-673D01*
X3261Y-673D01*
X3261Y-673D01*
X3262Y-674D01*
X3263Y-674D01*
X3263Y-675D01*
X3264Y-676D01*
X3266Y-677D01*
X3267D01*
X3267Y-677D01*
X3268Y-677D01*
X3269Y-677D01*
X3270Y-678D01*
X3271Y-678D01*
X3273Y-678D01*
X3276D01*
X3277Y-678D01*
X3279Y-678D01*
X3282Y-678D01*
X3282D01*
X3282Y-677D01*
X3283Y-677D01*
X3283Y-677D01*
X3285Y-677D01*
X3287Y-676D01*
X3287D01*
X3287Y-676D01*
X3288Y-676D01*
X3289Y-675D01*
X3290Y-675D01*
X3291D01*
X3291Y-675D01*
X3291Y-674D01*
X3292Y-674D01*
X3293Y-674D01*
X3293D01*
X3293Y-674D01*
X3293D01*
X3294Y-674D01*
X3294Y-675D01*
Y-675D01*
X3294Y-675D01*
X3294Y-676D01*
Y-676D01*
X3294Y-677D01*
Y-677D01*
Y-678D01*
Y-678D01*
Y-678D01*
X3294Y-679D01*
Y-679D01*
Y-680D01*
X3294Y-680D01*
X3294Y-681D01*
X3294Y-681D01*
X3293Y-681D01*
X3293Y-682D01*
X3293Y-682D01*
X3292Y-682D01*
X3291Y-683D01*
X3291D01*
X3291Y-683D01*
X3291Y-683D01*
X3290Y-683D01*
X3289Y-684D01*
X3287Y-684D01*
X3287D01*
X3287Y-684D01*
X3286Y-685D01*
X3285Y-685D01*
X3284Y-685D01*
X3283Y-685D01*
X3281Y-686D01*
X3281D01*
X3280Y-686D01*
X3280D01*
X3279Y-686D01*
X3278Y-686D01*
X3277D01*
X3274Y-686D01*
X3273D01*
X3271Y-686D01*
X3270Y-686D01*
X3268Y-686D01*
X3266Y-685D01*
X3264Y-685D01*
X3262Y-684D01*
X3262Y-684D01*
X3261Y-684D01*
X3260Y-683D01*
X3259Y-683D01*
X3258Y-682D01*
X3256Y-681D01*
X3255Y-680D01*
X3254Y-679D01*
X3254Y-679D01*
X3253Y-678D01*
X3253Y-677D01*
X3252Y-676D01*
X3251Y-675D01*
X3250Y-673D01*
X3249Y-672D01*
X3249Y-670D01*
Y-669D01*
X3248Y-669D01*
X3248Y-668D01*
X3248Y-666D01*
X3247Y-664D01*
X3247Y-662D01*
X3247Y-659D01*
X3247Y-657D01*
Y-657D01*
Y-657D01*
Y-656D01*
X3247Y-654D01*
X3247Y-653D01*
X3247Y-651D01*
X3248Y-649D01*
X3248Y-646D01*
X3249Y-644D01*
X3249Y-644D01*
X3249Y-643D01*
X3249Y-642D01*
X3250Y-641D01*
X3251Y-640D01*
X3251Y-638D01*
X3253Y-636D01*
X3254Y-635D01*
X3254Y-635D01*
X3254Y-634D01*
X3255Y-634D01*
X3256Y-633D01*
X3257Y-632D01*
X3259Y-631D01*
X3260Y-630D01*
X3262Y-629D01*
X3262Y-629D01*
X3263Y-629D01*
X3264Y-628D01*
X3265Y-628D01*
X3267Y-628D01*
X3269Y-627D01*
X3270Y-627D01*
X3273Y-627D01*
X3274D01*
X3275Y-627D01*
D02*
G37*
G36*
X4201Y-600D02*
X4202D01*
X4202Y-600D01*
X4202D01*
X4203Y-600D01*
X4203D01*
X4203Y-600D01*
X4203Y-601D01*
X4204Y-601D01*
X4204Y-601D01*
X4204Y-601D01*
X4204Y-602D01*
X4204Y-602D01*
X4205Y-603D01*
X4205Y-604D01*
X4206Y-606D01*
X4207Y-607D01*
X4207Y-609D01*
X4208Y-611D01*
X4209Y-613D01*
X4211Y-617D01*
X4212Y-622D01*
X4213Y-626D01*
Y-627D01*
X4214Y-627D01*
X4214Y-628D01*
X4214Y-629D01*
X4214Y-630D01*
X4215Y-631D01*
X4215Y-633D01*
X4215Y-635D01*
X4216Y-636D01*
X4216Y-639D01*
X4217Y-643D01*
X4217Y-648D01*
X4217Y-653D01*
Y-653D01*
Y-653D01*
Y-653D01*
Y-654D01*
Y-655D01*
X4217Y-657D01*
X4217Y-659D01*
X4217Y-661D01*
X4216Y-664D01*
X4216Y-666D01*
Y-666D01*
Y-667D01*
X4216Y-667D01*
X4216Y-669D01*
X4216Y-670D01*
X4215Y-672D01*
X4215Y-675D01*
X4214Y-679D01*
X4213Y-680D01*
X4213Y-680D01*
X4213Y-682D01*
X4212Y-683D01*
X4212Y-685D01*
X4211Y-687D01*
X4210Y-690D01*
X4209Y-692D01*
X4209Y-692D01*
X4209Y-693D01*
X4208Y-694D01*
X4208Y-696D01*
X4207Y-698D01*
X4206Y-700D01*
X4204Y-704D01*
X4204Y-705D01*
X4203Y-705D01*
X4203Y-705D01*
X4202Y-705D01*
X4202D01*
X4202Y-705D01*
X4202Y-706D01*
X4201D01*
X4200Y-706D01*
X4198D01*
X4198Y-706D01*
X4197Y-705D01*
X4197D01*
X4196Y-705D01*
X4196Y-705D01*
X4195Y-705D01*
X4195Y-705D01*
X4195Y-704D01*
Y-704D01*
Y-704D01*
X4195Y-703D01*
Y-703D01*
X4196Y-702D01*
X4196Y-702D01*
X4196Y-701D01*
X4197Y-700D01*
X4197Y-698D01*
X4198Y-697D01*
X4199Y-695D01*
X4199Y-693D01*
X4200Y-692D01*
X4201Y-687D01*
X4203Y-683D01*
X4204Y-678D01*
Y-678D01*
X4204Y-678D01*
X4204Y-677D01*
X4204Y-676D01*
X4204Y-675D01*
X4205Y-673D01*
X4205Y-672D01*
X4205Y-670D01*
X4205Y-668D01*
X4206Y-666D01*
X4206Y-662D01*
X4207Y-658D01*
X4207Y-653D01*
Y-653D01*
Y-652D01*
Y-651D01*
Y-650D01*
X4207Y-649D01*
Y-648D01*
X4206Y-646D01*
X4206Y-645D01*
X4206Y-643D01*
X4206Y-641D01*
X4205Y-637D01*
X4205Y-632D01*
X4204Y-627D01*
Y-627D01*
X4204Y-627D01*
X4203Y-626D01*
X4203Y-625D01*
X4203Y-624D01*
X4203Y-623D01*
X4202Y-621D01*
X4202Y-619D01*
X4201Y-618D01*
X4201Y-616D01*
X4199Y-611D01*
X4197Y-607D01*
X4195Y-602D01*
Y-602D01*
X4195Y-602D01*
X4195Y-601D01*
Y-601D01*
X4195Y-601D01*
X4196Y-601D01*
X4196D01*
X4196Y-600D01*
X4197Y-600D01*
X4197Y-600D01*
X4197D01*
X4198Y-600D01*
X4198Y-600D01*
X4201D01*
X4201Y-600D01*
D02*
G37*
G36*
X3946D02*
X3946Y-600D01*
X3947D01*
X3947Y-600D01*
X3947Y-600D01*
X3948Y-601D01*
X3948D01*
X3948Y-601D01*
X3948Y-601D01*
X3948Y-601D01*
Y-602D01*
Y-602D01*
X3948Y-602D01*
Y-603D01*
X3948Y-603D01*
X3948Y-604D01*
X3947Y-604D01*
X3947Y-606D01*
X3946Y-607D01*
X3946Y-608D01*
X3945Y-610D01*
X3944Y-612D01*
X3943Y-614D01*
X3942Y-618D01*
X3941Y-623D01*
X3940Y-627D01*
Y-627D01*
X3939Y-628D01*
X3939Y-629D01*
X3939Y-629D01*
X3939Y-631D01*
X3939Y-632D01*
X3938Y-634D01*
X3938Y-635D01*
X3938Y-637D01*
X3938Y-639D01*
X3937Y-643D01*
X3937Y-648D01*
X3937Y-653D01*
Y-653D01*
Y-653D01*
Y-654D01*
Y-655D01*
X3937Y-656D01*
Y-657D01*
X3937Y-659D01*
X3937Y-661D01*
X3937Y-663D01*
X3938Y-665D01*
X3938Y-669D01*
X3939Y-673D01*
X3940Y-678D01*
Y-678D01*
X3940Y-679D01*
X3940Y-679D01*
X3940Y-680D01*
X3940Y-682D01*
X3941Y-683D01*
X3941Y-684D01*
X3942Y-686D01*
X3942Y-688D01*
X3943Y-690D01*
X3944Y-694D01*
X3946Y-698D01*
X3948Y-703D01*
Y-703D01*
X3948Y-703D01*
X3948Y-704D01*
Y-704D01*
Y-704D01*
Y-705D01*
X3948Y-705D01*
X3948D01*
X3948Y-705D01*
X3947Y-705D01*
X3947Y-705D01*
X3946D01*
X3946Y-706D01*
X3945Y-706D01*
X3943D01*
X3942Y-706D01*
X3942D01*
X3941Y-705D01*
X3941D01*
X3941Y-705D01*
X3940Y-705D01*
X3940Y-705D01*
X3940Y-704D01*
Y-704D01*
X3939Y-704D01*
X3939Y-703D01*
X3938Y-702D01*
X3938Y-700D01*
X3937Y-699D01*
X3936Y-697D01*
X3935Y-694D01*
X3934Y-692D01*
Y-692D01*
X3934Y-692D01*
X3933Y-691D01*
X3933Y-690D01*
X3932Y-688D01*
X3932Y-686D01*
X3931Y-684D01*
X3930Y-682D01*
X3930Y-679D01*
Y-679D01*
Y-679D01*
X3929Y-678D01*
X3929Y-677D01*
X3929Y-675D01*
X3928Y-673D01*
X3928Y-671D01*
X3928Y-669D01*
X3927Y-666D01*
Y-666D01*
Y-666D01*
X3927Y-665D01*
X3927Y-664D01*
X3927Y-662D01*
X3927Y-660D01*
X3927Y-658D01*
X3926Y-655D01*
Y-653D01*
Y-653D01*
Y-653D01*
Y-652D01*
Y-650D01*
X3927Y-649D01*
Y-647D01*
X3927Y-644D01*
X3927Y-642D01*
X3927Y-640D01*
Y-639D01*
Y-639D01*
X3927Y-639D01*
X3928Y-637D01*
X3928Y-635D01*
X3928Y-634D01*
X3929Y-631D01*
X3929Y-629D01*
X3930Y-626D01*
Y-626D01*
X3930Y-626D01*
X3930Y-625D01*
X3931Y-624D01*
X3931Y-622D01*
X3932Y-620D01*
X3932Y-618D01*
X3934Y-614D01*
Y-614D01*
X3934Y-613D01*
X3934Y-613D01*
X3935Y-611D01*
X3936Y-610D01*
X3937Y-608D01*
X3938Y-606D01*
X3940Y-601D01*
Y-601D01*
X3940Y-601D01*
X3940Y-601D01*
X3941Y-600D01*
X3941D01*
X3941Y-600D01*
X3941D01*
X3942Y-600D01*
X3942D01*
X3943Y-600D01*
X3945D01*
X3946Y-600D01*
D02*
G37*
G36*
X3122Y-607D02*
X3122Y-607D01*
X3123D01*
X3123Y-607D01*
X3124Y-608D01*
X3124Y-608D01*
X3124D01*
X3124Y-608D01*
X3125Y-608D01*
X3125Y-608D01*
X3125Y-608D01*
X3125Y-609D01*
Y-684D01*
Y-684D01*
X3125Y-684D01*
X3125Y-685D01*
X3124Y-685D01*
X3124Y-685D01*
X3124D01*
X3124Y-685D01*
X3123D01*
X3122Y-685D01*
X3122D01*
X3122Y-685D01*
X3121Y-685D01*
X3119D01*
X3118Y-685D01*
X3118Y-685D01*
X3117D01*
X3117Y-685D01*
X3116Y-685D01*
X3116D01*
X3116Y-685D01*
X3115Y-684D01*
Y-684D01*
Y-684D01*
X3115Y-684D01*
Y-609D01*
Y-609D01*
Y-609D01*
X3115Y-608D01*
Y-608D01*
X3115Y-608D01*
X3116Y-608D01*
X3116D01*
X3116Y-608D01*
X3117Y-607D01*
X3118Y-607D01*
X3118D01*
X3118Y-607D01*
X3119Y-607D01*
X3121D01*
X3122Y-607D01*
D02*
G37*
G36*
X3219Y-613D02*
X3219D01*
X3220Y-614D01*
X3220Y-614D01*
X3220Y-614D01*
X3221D01*
X3221Y-614D01*
X3221Y-614D01*
X3221Y-615D01*
X3222Y-615D01*
Y-628D01*
X3236D01*
X3236Y-628D01*
X3236D01*
X3236Y-628D01*
X3237Y-629D01*
Y-629D01*
X3237Y-629D01*
X3237Y-630D01*
X3237Y-630D01*
Y-630D01*
X3237Y-631D01*
Y-631D01*
Y-632D01*
Y-632D01*
Y-633D01*
Y-633D01*
X3237Y-634D01*
X3237Y-635D01*
X3237Y-635D01*
X3236Y-636D01*
X3236Y-636D01*
X3235Y-636D01*
X3222D01*
Y-666D01*
Y-667D01*
Y-667D01*
X3222Y-668D01*
Y-669D01*
X3222Y-672D01*
X3223Y-673D01*
X3223Y-675D01*
X3223Y-675D01*
X3223Y-675D01*
X3224Y-676D01*
X3225Y-676D01*
X3225Y-677D01*
X3226Y-677D01*
X3228Y-677D01*
X3229Y-678D01*
X3231D01*
X3231Y-677D01*
X3232D01*
X3232Y-677D01*
X3233Y-677D01*
X3233Y-677D01*
X3234Y-677D01*
X3234Y-677D01*
X3235Y-676D01*
X3235D01*
X3235Y-676D01*
X3236Y-676D01*
X3236D01*
X3237Y-676D01*
X3237Y-676D01*
X3237Y-677D01*
Y-677D01*
X3237Y-677D01*
X3237Y-678D01*
Y-678D01*
X3237Y-678D01*
Y-679D01*
Y-680D01*
Y-680D01*
Y-681D01*
X3237Y-681D01*
X3237Y-682D01*
Y-683D01*
X3237Y-683D01*
X3237Y-683D01*
X3236Y-684D01*
X3236D01*
X3236Y-684D01*
X3236Y-684D01*
X3235Y-685D01*
X3235D01*
X3234Y-685D01*
X3234Y-685D01*
X3233Y-685D01*
X3233D01*
X3232Y-685D01*
X3231Y-686D01*
X3230Y-686D01*
X3230D01*
X3229Y-686D01*
X3228Y-686D01*
X3226D01*
X3225Y-686D01*
X3224Y-686D01*
X3223Y-686D01*
X3220Y-685D01*
X3220D01*
X3220Y-685D01*
X3219Y-685D01*
X3219Y-684D01*
X3217Y-683D01*
X3215Y-682D01*
X3215Y-682D01*
X3215Y-681D01*
X3215Y-681D01*
X3214Y-680D01*
X3214Y-679D01*
X3213Y-678D01*
X3213Y-676D01*
Y-676D01*
X3212Y-675D01*
X3212Y-674D01*
X3212Y-673D01*
X3212Y-672D01*
X3212Y-671D01*
X3212Y-669D01*
Y-668D01*
Y-636D01*
X3204D01*
X3204Y-636D01*
X3203Y-636D01*
X3203Y-635D01*
Y-635D01*
X3202Y-634D01*
X3202Y-634D01*
X3202Y-632D01*
Y-632D01*
Y-631D01*
Y-631D01*
X3202Y-630D01*
Y-630D01*
X3202Y-630D01*
Y-629D01*
X3203Y-629D01*
Y-629D01*
X3203Y-629D01*
X3203Y-628D01*
X3203D01*
X3204Y-628D01*
X3204Y-628D01*
X3212D01*
Y-615D01*
Y-615D01*
Y-615D01*
X3212Y-614D01*
Y-614D01*
X3212Y-614D01*
X3213Y-614D01*
X3213D01*
X3213Y-614D01*
X3214Y-614D01*
X3214Y-613D01*
X3214D01*
X3215Y-613D01*
X3218D01*
X3219Y-613D01*
D02*
G37*
G36*
X3773Y-627D02*
X3775Y-627D01*
X3776Y-627D01*
X3778Y-628D01*
X3780Y-628D01*
X3782Y-629D01*
X3782Y-629D01*
X3783Y-629D01*
X3783Y-630D01*
X3784Y-630D01*
X3786Y-631D01*
X3787Y-632D01*
X3788Y-633D01*
X3789Y-634D01*
X3789Y-635D01*
X3790Y-635D01*
X3790Y-636D01*
X3791Y-637D01*
X3792Y-638D01*
X3792Y-639D01*
X3793Y-641D01*
X3793Y-643D01*
Y-643D01*
X3794Y-643D01*
X3794Y-644D01*
X3794Y-645D01*
X3794Y-647D01*
X3795Y-649D01*
X3795Y-650D01*
Y-652D01*
Y-654D01*
Y-654D01*
Y-655D01*
X3795Y-655D01*
X3794Y-657D01*
X3794Y-658D01*
X3793Y-658D01*
X3793Y-658D01*
X3792Y-658D01*
X3791Y-658D01*
X3755D01*
Y-659D01*
Y-659D01*
Y-660D01*
X3756Y-661D01*
Y-663D01*
X3756Y-664D01*
X3756Y-667D01*
Y-667D01*
X3756Y-667D01*
X3757Y-668D01*
X3757Y-669D01*
X3758Y-671D01*
X3759Y-673D01*
X3759Y-673D01*
X3760Y-673D01*
X3760Y-674D01*
X3761Y-674D01*
X3762Y-675D01*
X3763Y-676D01*
X3765Y-677D01*
X3765D01*
X3765Y-677D01*
X3766Y-677D01*
X3767Y-677D01*
X3768Y-678D01*
X3770Y-678D01*
X3771Y-678D01*
X3774D01*
X3775Y-678D01*
X3778Y-678D01*
X3780Y-678D01*
X3780D01*
X3780Y-677D01*
X3781Y-677D01*
X3782Y-677D01*
X3783Y-677D01*
X3785Y-676D01*
X3785D01*
X3786Y-676D01*
X3786Y-676D01*
X3788Y-675D01*
X3789Y-675D01*
X3789D01*
X3789Y-675D01*
X3790Y-674D01*
X3790Y-674D01*
X3791Y-674D01*
X3791D01*
X3792Y-674D01*
X3792D01*
X3792Y-674D01*
X3792Y-675D01*
Y-675D01*
X3792Y-675D01*
X3792Y-676D01*
Y-676D01*
X3793Y-677D01*
Y-677D01*
Y-678D01*
Y-678D01*
Y-678D01*
X3792Y-679D01*
Y-679D01*
Y-680D01*
X3792Y-680D01*
X3792Y-681D01*
X3792Y-681D01*
X3792Y-681D01*
X3792Y-682D01*
X3791Y-682D01*
X3791Y-682D01*
X3790Y-683D01*
X3789D01*
X3789Y-683D01*
X3789Y-683D01*
X3788Y-683D01*
X3787Y-684D01*
X3785Y-684D01*
X3785D01*
X3785Y-684D01*
X3784Y-685D01*
X3784Y-685D01*
X3783Y-685D01*
X3782Y-685D01*
X3779Y-686D01*
X3779D01*
X3779Y-686D01*
X3778D01*
X3777Y-686D01*
X3776Y-686D01*
X3775D01*
X3772Y-686D01*
X3771D01*
X3770Y-686D01*
X3768Y-686D01*
X3766Y-686D01*
X3764Y-685D01*
X3762Y-685D01*
X3760Y-684D01*
X3760Y-684D01*
X3760Y-684D01*
X3759Y-683D01*
X3758Y-683D01*
X3756Y-682D01*
X3755Y-681D01*
X3753Y-680D01*
X3752Y-679D01*
X3752Y-679D01*
X3751Y-678D01*
X3751Y-677D01*
X3750Y-676D01*
X3749Y-675D01*
X3748Y-673D01*
X3748Y-672D01*
X3747Y-670D01*
Y-669D01*
X3747Y-669D01*
X3746Y-668D01*
X3746Y-666D01*
X3746Y-664D01*
X3745Y-662D01*
X3745Y-659D01*
X3745Y-657D01*
Y-657D01*
Y-657D01*
Y-656D01*
X3745Y-654D01*
X3745Y-653D01*
X3746Y-651D01*
X3746Y-649D01*
X3746Y-646D01*
X3747Y-644D01*
X3747Y-644D01*
X3747Y-643D01*
X3748Y-642D01*
X3748Y-641D01*
X3749Y-640D01*
X3750Y-638D01*
X3751Y-636D01*
X3752Y-635D01*
X3752Y-635D01*
X3753Y-634D01*
X3753Y-634D01*
X3754Y-633D01*
X3755Y-632D01*
X3757Y-631D01*
X3758Y-630D01*
X3760Y-629D01*
X3760Y-629D01*
X3761Y-629D01*
X3762Y-628D01*
X3763Y-628D01*
X3765Y-628D01*
X3767Y-627D01*
X3769Y-627D01*
X3771Y-627D01*
X3772D01*
X3773Y-627D01*
D02*
G37*
G36*
X4147Y-608D02*
X4148D01*
X4150Y-608D01*
X4153Y-608D01*
X4155Y-609D01*
X4158Y-609D01*
X4161Y-610D01*
X4161D01*
X4161Y-610D01*
X4162Y-610D01*
X4163Y-611D01*
X4165Y-612D01*
X4167Y-613D01*
X4169Y-614D01*
X4171Y-616D01*
X4173Y-618D01*
X4173Y-618D01*
X4174Y-618D01*
X4174Y-619D01*
X4175Y-621D01*
X4177Y-623D01*
X4178Y-625D01*
X4179Y-627D01*
X4180Y-629D01*
Y-630D01*
X4180Y-630D01*
X4180Y-630D01*
X4180Y-631D01*
X4181Y-632D01*
X4181Y-634D01*
X4182Y-636D01*
X4182Y-639D01*
X4182Y-642D01*
X4182Y-645D01*
Y-645D01*
Y-646D01*
Y-646D01*
Y-647D01*
X4182Y-648D01*
Y-649D01*
X4182Y-651D01*
X4182Y-654D01*
X4181Y-657D01*
X4181Y-660D01*
X4180Y-663D01*
Y-663D01*
X4180Y-663D01*
X4179Y-663D01*
X4179Y-664D01*
X4179Y-665D01*
X4178Y-667D01*
X4177Y-669D01*
X4175Y-671D01*
X4174Y-673D01*
X4172Y-675D01*
X4172Y-676D01*
X4171Y-676D01*
X4170Y-677D01*
X4169Y-678D01*
X4167Y-679D01*
X4165Y-680D01*
X4163Y-682D01*
X4160Y-683D01*
X4160D01*
X4160Y-683D01*
X4159Y-683D01*
X4159Y-683D01*
X4158Y-683D01*
X4157Y-683D01*
X4155Y-684D01*
X4153Y-684D01*
X4150Y-685D01*
X4147Y-685D01*
X4143Y-685D01*
X4126D01*
X4126Y-685D01*
X4125Y-685D01*
X4124Y-684D01*
X4124Y-684D01*
X4123Y-683D01*
X4123Y-682D01*
X4123Y-681D01*
Y-612D01*
Y-612D01*
Y-611D01*
X4123Y-610D01*
X4123Y-609D01*
X4124Y-608D01*
X4124Y-608D01*
X4125Y-608D01*
X4125Y-608D01*
X4126Y-607D01*
X4146D01*
X4147Y-608D01*
D02*
G37*
G36*
X4099Y-607D02*
X4100D01*
X4100Y-608D01*
X4100Y-608D01*
X4101Y-608D01*
X4101D01*
X4101Y-608D01*
X4102Y-609D01*
X4102Y-609D01*
X4102Y-609D01*
Y-681D01*
Y-681D01*
Y-682D01*
X4102Y-682D01*
X4102Y-683D01*
X4102Y-683D01*
X4101Y-683D01*
X4101Y-684D01*
X4100Y-684D01*
X4100Y-684D01*
X4100Y-685D01*
X4099Y-685D01*
X4099D01*
X4098Y-685D01*
X4093D01*
X4092Y-685D01*
X4091Y-685D01*
X4091D01*
X4091Y-685D01*
X4090Y-684D01*
X4089Y-684D01*
X4089Y-684D01*
X4088Y-683D01*
X4088Y-682D01*
X4087Y-681D01*
Y-681D01*
X4087Y-681D01*
X4086Y-680D01*
X4085Y-679D01*
X4085Y-678D01*
X4061Y-633D01*
X4061Y-633D01*
X4061Y-633D01*
X4060Y-632D01*
X4060Y-631D01*
X4059Y-630D01*
X4058Y-629D01*
X4057Y-626D01*
X4057Y-626D01*
X4057Y-626D01*
X4056Y-625D01*
X4056Y-624D01*
X4055Y-623D01*
X4055Y-622D01*
X4054Y-619D01*
X4053D01*
Y-619D01*
Y-620D01*
Y-621D01*
X4054Y-622D01*
Y-623D01*
Y-624D01*
Y-628D01*
Y-628D01*
Y-629D01*
Y-629D01*
X4054Y-631D01*
Y-632D01*
Y-633D01*
Y-637D01*
Y-684D01*
Y-684D01*
X4053Y-684D01*
X4053Y-685D01*
X4053Y-685D01*
X4052Y-685D01*
X4052D01*
X4052Y-685D01*
X4052D01*
X4051Y-685D01*
X4051D01*
X4050Y-685D01*
X4049Y-685D01*
X4048D01*
X4047Y-685D01*
X4046Y-685D01*
X4046D01*
X4045Y-685D01*
X4045D01*
X4044Y-685D01*
X4044D01*
X4044Y-685D01*
X4044Y-684D01*
Y-684D01*
Y-684D01*
X4043Y-684D01*
Y-612D01*
Y-612D01*
Y-611D01*
X4044Y-611D01*
X4044Y-609D01*
X4045Y-609D01*
X4045Y-608D01*
X4046Y-608D01*
X4047Y-608D01*
X4048Y-607D01*
X4054D01*
X4055Y-608D01*
X4056Y-608D01*
X4056D01*
X4056Y-608D01*
X4057Y-608D01*
X4058Y-609D01*
X4058Y-609D01*
X4058Y-609D01*
X4059Y-610D01*
X4060Y-611D01*
X4060Y-611D01*
X4060Y-612D01*
X4061Y-613D01*
X4062Y-614D01*
X4080Y-648D01*
X4080Y-648D01*
X4080Y-648D01*
X4080Y-649D01*
X4081Y-650D01*
X4081Y-651D01*
X4082Y-652D01*
X4083Y-654D01*
X4083Y-654D01*
X4083Y-655D01*
X4084Y-655D01*
X4084Y-656D01*
X4085Y-658D01*
X4086Y-660D01*
X4086Y-660D01*
X4086Y-660D01*
X4087Y-661D01*
X4087Y-662D01*
X4088Y-663D01*
X4089Y-665D01*
Y-666D01*
X4089Y-666D01*
X4090Y-666D01*
X4090Y-667D01*
X4091Y-669D01*
X4092Y-671D01*
X4092D01*
Y-671D01*
Y-670D01*
Y-669D01*
Y-668D01*
X4092Y-667D01*
Y-665D01*
Y-663D01*
Y-661D01*
Y-661D01*
Y-660D01*
Y-659D01*
Y-658D01*
Y-657D01*
Y-655D01*
Y-651D01*
Y-609D01*
Y-609D01*
Y-609D01*
X4092Y-609D01*
Y-608D01*
X4092Y-608D01*
X4093Y-608D01*
X4093D01*
X4093Y-608D01*
X4094Y-608D01*
X4095Y-607D01*
X4095D01*
X4095Y-607D01*
X4099D01*
X4099Y-607D01*
D02*
G37*
G36*
X3174Y-627D02*
X3175Y-627D01*
X3176Y-627D01*
X3178Y-628D01*
X3180Y-628D01*
X3181Y-629D01*
X3181Y-629D01*
X3182Y-629D01*
X3182Y-629D01*
X3183Y-630D01*
X3184Y-631D01*
X3185Y-632D01*
X3186Y-633D01*
X3187Y-634D01*
X3187Y-634D01*
X3187Y-634D01*
X3188Y-635D01*
X3188Y-636D01*
X3189Y-637D01*
X3189Y-638D01*
X3190Y-639D01*
X3190Y-641D01*
Y-641D01*
X3190Y-642D01*
X3191Y-642D01*
X3191Y-644D01*
X3191Y-645D01*
X3191Y-647D01*
X3191Y-649D01*
Y-651D01*
Y-684D01*
Y-684D01*
Y-684D01*
X3191Y-684D01*
X3191Y-685D01*
X3190Y-685D01*
X3190D01*
X3190Y-685D01*
X3189D01*
X3189Y-685D01*
X3188D01*
X3187Y-685D01*
X3185D01*
X3184Y-685D01*
X3184D01*
X3183Y-685D01*
X3182Y-685D01*
X3182D01*
X3182Y-685D01*
X3182Y-684D01*
Y-684D01*
X3181Y-684D01*
Y-652D01*
Y-652D01*
Y-651D01*
Y-650D01*
X3181Y-649D01*
X3181Y-647D01*
X3181Y-646D01*
X3181Y-645D01*
Y-644D01*
X3181Y-644D01*
X3180Y-644D01*
X3180Y-643D01*
X3180Y-641D01*
X3179Y-640D01*
Y-640D01*
X3178Y-639D01*
X3178Y-639D01*
X3176Y-638D01*
X3175Y-637D01*
X3175D01*
X3175Y-636D01*
X3174Y-636D01*
X3174Y-636D01*
X3172Y-636D01*
X3170Y-635D01*
X3169D01*
X3169Y-636D01*
X3168Y-636D01*
X3166Y-636D01*
X3165Y-637D01*
X3164Y-637D01*
X3162Y-638D01*
X3162Y-638D01*
X3162Y-639D01*
X3161Y-639D01*
X3160Y-640D01*
X3159Y-641D01*
X3158Y-643D01*
X3156Y-644D01*
X3155Y-646D01*
Y-684D01*
Y-684D01*
Y-684D01*
X3154Y-684D01*
X3154Y-685D01*
X3154Y-685D01*
X3153D01*
X3153Y-685D01*
X3153D01*
X3152Y-685D01*
X3152D01*
X3151Y-685D01*
X3148D01*
X3147Y-685D01*
X3147D01*
X3147Y-685D01*
X3146Y-685D01*
X3146D01*
X3146Y-685D01*
X3145Y-684D01*
Y-684D01*
X3145Y-684D01*
Y-630D01*
Y-629D01*
Y-629D01*
X3145Y-629D01*
X3145Y-629D01*
X3145Y-628D01*
X3146Y-628D01*
X3146D01*
X3146Y-628D01*
X3147Y-628D01*
X3147Y-628D01*
X3147D01*
X3148Y-628D01*
X3151D01*
X3151Y-628D01*
X3152D01*
X3152Y-628D01*
X3152Y-628D01*
X3153Y-628D01*
X3153D01*
X3153Y-628D01*
X3153Y-629D01*
X3153Y-629D01*
X3154Y-629D01*
X3154Y-630D01*
Y-637D01*
X3154Y-636D01*
X3155Y-636D01*
X3155Y-635D01*
X3157Y-634D01*
X3158Y-633D01*
X3159Y-631D01*
X3161Y-630D01*
X3163Y-629D01*
X3163Y-629D01*
X3164Y-629D01*
X3164Y-629D01*
X3166Y-628D01*
X3167Y-628D01*
X3169Y-627D01*
X3170Y-627D01*
X3172Y-627D01*
X3173D01*
X3174Y-627D01*
D02*
G37*
G36*
X3337D02*
X3337D01*
X3337Y-627D01*
X3338Y-627D01*
X3339Y-627D01*
X3339D01*
X3340Y-628D01*
X3340Y-628D01*
X3341Y-628D01*
X3341D01*
X3341Y-628D01*
X3342Y-628D01*
X3342Y-629D01*
X3342D01*
X3342Y-629D01*
X3343Y-629D01*
X3343Y-629D01*
Y-630D01*
Y-630D01*
X3343Y-630D01*
Y-630D01*
Y-631D01*
Y-631D01*
X3343Y-632D01*
Y-632D01*
Y-633D01*
Y-633D01*
Y-634D01*
Y-635D01*
X3343Y-635D01*
Y-635D01*
Y-636D01*
X3343Y-637D01*
Y-637D01*
X3342Y-637D01*
X3342Y-638D01*
X3342Y-638D01*
X3342Y-638D01*
X3341D01*
X3340Y-638D01*
X3340D01*
X3340Y-637D01*
X3339Y-637D01*
X3339Y-637D01*
X3339D01*
X3338Y-637D01*
X3338Y-637D01*
X3337Y-636D01*
X3337D01*
X3336Y-636D01*
X3335Y-636D01*
X3334D01*
X3333Y-636D01*
X3333Y-636D01*
X3332Y-637D01*
X3331Y-637D01*
X3331Y-637D01*
X3330Y-638D01*
X3328Y-639D01*
X3328Y-639D01*
X3328Y-640D01*
X3326Y-641D01*
X3325Y-643D01*
X3325Y-643D01*
X3325Y-643D01*
X3324Y-643D01*
X3324Y-644D01*
X3323Y-645D01*
X3323Y-646D01*
X3321Y-648D01*
Y-684D01*
Y-684D01*
Y-684D01*
X3321Y-684D01*
X3321Y-685D01*
X3320Y-685D01*
X3320D01*
X3320Y-685D01*
X3319D01*
X3319Y-685D01*
X3318D01*
X3317Y-685D01*
X3315D01*
X3314Y-685D01*
X3314D01*
X3313Y-685D01*
X3313Y-685D01*
X3312D01*
X3312Y-685D01*
X3312Y-684D01*
Y-684D01*
X3312Y-684D01*
Y-630D01*
Y-629D01*
Y-629D01*
X3312Y-629D01*
X3312Y-629D01*
X3312Y-628D01*
X3312Y-628D01*
X3313D01*
X3313Y-628D01*
X3313Y-628D01*
X3314Y-628D01*
X3314D01*
X3314Y-628D01*
X3317D01*
X3318Y-628D01*
X3318D01*
X3319Y-628D01*
X3319Y-628D01*
X3319Y-628D01*
X3320D01*
X3320Y-628D01*
X3320Y-629D01*
X3320Y-629D01*
X3320Y-629D01*
X3320Y-630D01*
Y-638D01*
X3321Y-637D01*
X3321Y-637D01*
X3321Y-636D01*
X3322Y-636D01*
X3323Y-634D01*
X3325Y-632D01*
X3325Y-632D01*
X3325Y-632D01*
X3326Y-631D01*
X3327Y-630D01*
X3328Y-629D01*
X3328D01*
X3328Y-629D01*
X3329Y-628D01*
X3330Y-628D01*
X3332Y-627D01*
X3332D01*
X3332Y-627D01*
X3333Y-627D01*
X3334Y-627D01*
X3335Y-627D01*
X3336D01*
X3337Y-627D01*
D02*
G37*
G36*
X4002Y-606D02*
X4004D01*
X4005Y-607D01*
X4008Y-607D01*
X4008D01*
X4009Y-607D01*
X4009Y-607D01*
X4010Y-608D01*
X4011Y-608D01*
X4012Y-608D01*
X4015Y-609D01*
X4015D01*
X4015Y-609D01*
X4016Y-609D01*
X4017Y-610D01*
X4018Y-610D01*
X4020Y-611D01*
X4020D01*
X4020Y-611D01*
X4021Y-612D01*
X4022Y-613D01*
X4023Y-613D01*
X4023Y-614D01*
X4023Y-614D01*
X4024Y-614D01*
X4024Y-615D01*
X4024Y-615D01*
X4024Y-616D01*
X4024Y-617D01*
Y-618D01*
Y-618D01*
Y-619D01*
Y-619D01*
X4024Y-620D01*
Y-620D01*
X4024Y-621D01*
X4024Y-622D01*
Y-622D01*
X4024Y-622D01*
X4023Y-622D01*
X4023D01*
X4022Y-623D01*
X4022D01*
X4022Y-622D01*
X4021Y-622D01*
X4020Y-621D01*
X4020D01*
X4020Y-621D01*
X4019Y-621D01*
X4019Y-621D01*
X4017Y-620D01*
X4015Y-619D01*
X4015D01*
X4015Y-619D01*
X4014Y-618D01*
X4013Y-618D01*
X4012Y-618D01*
X4011Y-617D01*
X4010Y-617D01*
X4009Y-616D01*
X4008D01*
X4008Y-616D01*
X4007Y-616D01*
X4006Y-616D01*
X4005Y-616D01*
X4003Y-615D01*
X4001Y-615D01*
X3998D01*
X3997Y-615D01*
X3996Y-615D01*
X3994Y-616D01*
X3992Y-616D01*
X3990Y-617D01*
X3988Y-618D01*
X3987Y-618D01*
X3987Y-618D01*
X3986Y-619D01*
X3985Y-619D01*
X3983Y-620D01*
X3982Y-621D01*
X3981Y-623D01*
X3979Y-624D01*
X3979Y-624D01*
X3979Y-625D01*
X3978Y-626D01*
X3977Y-627D01*
X3976Y-628D01*
X3975Y-630D01*
X3975Y-632D01*
X3974Y-634D01*
X3974Y-634D01*
X3973Y-635D01*
X3973Y-636D01*
X3973Y-638D01*
X3973Y-639D01*
X3972Y-642D01*
X3972Y-644D01*
X3972Y-646D01*
Y-646D01*
Y-647D01*
Y-647D01*
Y-648D01*
X3972Y-649D01*
X3972Y-651D01*
X3972Y-653D01*
X3973Y-655D01*
X3973Y-657D01*
X3974Y-659D01*
X3974Y-660D01*
X3974Y-660D01*
X3975Y-661D01*
X3975Y-663D01*
X3976Y-664D01*
X3977Y-666D01*
X3978Y-668D01*
X3980Y-669D01*
X3980Y-669D01*
X3980Y-670D01*
X3981Y-671D01*
X3982Y-671D01*
X3983Y-672D01*
X3985Y-673D01*
X3987Y-674D01*
X3988Y-675D01*
X3989Y-675D01*
X3989Y-675D01*
X3990Y-676D01*
X3992Y-676D01*
X3993Y-677D01*
X3995Y-677D01*
X3997Y-677D01*
X4000Y-677D01*
X4001D01*
X4002Y-677D01*
X4003D01*
X4004Y-677D01*
X4007Y-676D01*
X4007D01*
X4008Y-676D01*
X4008Y-676D01*
X4009Y-676D01*
X4010Y-675D01*
X4012Y-675D01*
X4014Y-674D01*
Y-651D01*
X3996D01*
X3995Y-651D01*
X3995Y-651D01*
X3994Y-650D01*
Y-650D01*
X3994Y-649D01*
X3994Y-648D01*
X3994Y-647D01*
Y-647D01*
Y-646D01*
Y-646D01*
Y-645D01*
Y-645D01*
X3994Y-644D01*
X3994Y-644D01*
X3994Y-644D01*
Y-643D01*
X3994Y-643D01*
X3995Y-643D01*
X3995D01*
X3995Y-643D01*
X3996Y-643D01*
X4021D01*
X4022Y-643D01*
X4022D01*
X4022Y-643D01*
X4023Y-644D01*
X4023Y-644D01*
X4023Y-644D01*
X4023Y-644D01*
X4024Y-645D01*
X4024Y-645D01*
X4024Y-645D01*
X4024Y-646D01*
Y-647D01*
Y-676D01*
Y-677D01*
Y-677D01*
X4024Y-678D01*
X4024Y-679D01*
X4023Y-679D01*
X4023Y-680D01*
X4022Y-680D01*
X4021Y-681D01*
X4021D01*
X4021Y-681D01*
X4021Y-681D01*
X4020Y-682D01*
X4019Y-682D01*
X4017Y-683D01*
X4017D01*
X4016Y-683D01*
X4016Y-683D01*
X4015Y-684D01*
X4014Y-684D01*
X4013Y-684D01*
X4011Y-685D01*
X4011D01*
X4010Y-685D01*
X4010D01*
X4009Y-685D01*
X4008Y-685D01*
X4007Y-685D01*
X4005Y-686D01*
X4004D01*
X4004Y-686D01*
X4003D01*
X4001Y-686D01*
X3999Y-686D01*
X3998D01*
X3997Y-686D01*
X3996D01*
X3994Y-686D01*
X3991Y-685D01*
X3989Y-685D01*
X3986Y-684D01*
X3983Y-683D01*
X3983D01*
X3983Y-683D01*
X3982Y-683D01*
X3981Y-682D01*
X3979Y-681D01*
X3977Y-680D01*
X3975Y-679D01*
X3973Y-677D01*
X3971Y-675D01*
X3971Y-675D01*
X3970Y-674D01*
X3969Y-673D01*
X3968Y-672D01*
X3967Y-670D01*
X3966Y-668D01*
X3965Y-666D01*
X3964Y-663D01*
Y-663D01*
X3963Y-663D01*
X3963Y-662D01*
X3963Y-662D01*
X3963Y-660D01*
X3962Y-658D01*
X3962Y-656D01*
X3962Y-653D01*
X3961Y-650D01*
X3961Y-647D01*
Y-647D01*
Y-647D01*
Y-646D01*
Y-645D01*
X3961Y-645D01*
Y-644D01*
X3962Y-641D01*
X3962Y-639D01*
X3962Y-636D01*
X3963Y-633D01*
X3964Y-630D01*
Y-630D01*
X3964Y-630D01*
X3964Y-630D01*
X3964Y-629D01*
X3965Y-628D01*
X3966Y-626D01*
X3967Y-624D01*
X3968Y-622D01*
X3970Y-620D01*
X3972Y-618D01*
X3972Y-617D01*
X3973Y-617D01*
X3974Y-616D01*
X3975Y-614D01*
X3977Y-613D01*
X3979Y-612D01*
X3981Y-610D01*
X3984Y-609D01*
X3984D01*
X3984Y-609D01*
X3985Y-609D01*
X3985Y-609D01*
X3987Y-608D01*
X3988Y-608D01*
X3991Y-607D01*
X3993Y-607D01*
X3996Y-606D01*
X4000Y-606D01*
X4001D01*
X4002Y-606D01*
D02*
G37*
G36*
X3713Y-627D02*
X3714Y-627D01*
X3716Y-627D01*
X3717Y-628D01*
X3719Y-628D01*
X3720Y-629D01*
X3720Y-629D01*
X3721Y-629D01*
X3722Y-629D01*
X3723Y-630D01*
X3723Y-631D01*
X3724Y-632D01*
X3725Y-633D01*
X3726Y-634D01*
X3726Y-634D01*
X3727Y-634D01*
X3727Y-635D01*
X3728Y-636D01*
X3728Y-637D01*
X3729Y-638D01*
X3729Y-639D01*
X3730Y-641D01*
Y-641D01*
X3730Y-642D01*
X3730Y-642D01*
X3730Y-644D01*
X3730Y-645D01*
X3731Y-647D01*
X3731Y-649D01*
Y-651D01*
Y-684D01*
Y-684D01*
Y-684D01*
X3730Y-684D01*
X3730Y-685D01*
X3730Y-685D01*
X3729D01*
X3729Y-685D01*
X3729D01*
X3728Y-685D01*
X3728D01*
X3727Y-685D01*
X3724D01*
X3723Y-685D01*
X3723D01*
X3723Y-685D01*
X3722Y-685D01*
X3722D01*
X3722Y-685D01*
X3721Y-684D01*
Y-684D01*
X3721Y-684D01*
Y-652D01*
Y-652D01*
Y-651D01*
Y-650D01*
X3721Y-649D01*
X3721Y-647D01*
X3720Y-646D01*
X3720Y-645D01*
Y-644D01*
X3720Y-644D01*
X3720Y-644D01*
X3719Y-643D01*
X3719Y-641D01*
X3718Y-640D01*
Y-640D01*
X3718Y-639D01*
X3717Y-639D01*
X3716Y-638D01*
X3714Y-637D01*
X3714D01*
X3714Y-636D01*
X3714Y-636D01*
X3713Y-636D01*
X3711Y-636D01*
X3709Y-635D01*
X3709D01*
X3708Y-636D01*
X3707Y-636D01*
X3706Y-636D01*
X3705Y-637D01*
X3703Y-637D01*
X3702Y-638D01*
X3702Y-638D01*
X3701Y-639D01*
X3700Y-639D01*
X3699Y-640D01*
X3698Y-641D01*
X3697Y-643D01*
X3696Y-644D01*
X3694Y-646D01*
Y-684D01*
Y-684D01*
Y-684D01*
X3694Y-684D01*
X3694Y-685D01*
X3693Y-685D01*
X3693D01*
X3693Y-685D01*
X3692D01*
X3691Y-685D01*
X3691D01*
X3690Y-685D01*
X3687D01*
X3687Y-685D01*
X3686D01*
X3686Y-685D01*
X3685Y-685D01*
X3685D01*
X3685Y-685D01*
X3684Y-684D01*
Y-684D01*
X3684Y-684D01*
Y-630D01*
Y-629D01*
Y-629D01*
X3684Y-629D01*
X3684Y-629D01*
X3685Y-628D01*
X3685Y-628D01*
X3685D01*
X3685Y-628D01*
X3686Y-628D01*
X3686Y-628D01*
X3687D01*
X3687Y-628D01*
X3690D01*
X3691Y-628D01*
X3691D01*
X3691Y-628D01*
X3692Y-628D01*
X3692Y-628D01*
X3692D01*
X3692Y-628D01*
X3693Y-629D01*
X3693Y-629D01*
X3693Y-629D01*
X3693Y-630D01*
Y-637D01*
X3693Y-636D01*
X3694Y-636D01*
X3695Y-635D01*
X3696Y-634D01*
X3697Y-633D01*
X3699Y-631D01*
X3700Y-630D01*
X3702Y-629D01*
X3702Y-629D01*
X3703Y-629D01*
X3704Y-629D01*
X3705Y-628D01*
X3706Y-628D01*
X3708Y-627D01*
X3710Y-627D01*
X3711Y-627D01*
X3712D01*
X3713Y-627D01*
D02*
G37*
G36*
X3383D02*
X3385Y-627D01*
X3386Y-627D01*
X3388Y-628D01*
X3389Y-628D01*
X3391Y-629D01*
X3391Y-629D01*
X3391Y-629D01*
X3392Y-629D01*
X3393Y-630D01*
X3394Y-631D01*
X3395Y-632D01*
X3396Y-633D01*
X3396Y-634D01*
X3397Y-634D01*
X3397Y-634D01*
X3397Y-635D01*
X3398Y-636D01*
X3398Y-637D01*
X3399Y-638D01*
X3399Y-639D01*
X3400Y-641D01*
Y-641D01*
X3400Y-642D01*
X3400Y-642D01*
X3400Y-644D01*
X3401Y-645D01*
X3401Y-647D01*
X3401Y-649D01*
Y-651D01*
Y-684D01*
Y-684D01*
Y-684D01*
X3401Y-684D01*
X3401Y-685D01*
X3400Y-685D01*
X3400D01*
X3399Y-685D01*
X3399D01*
X3398Y-685D01*
X3398D01*
X3397Y-685D01*
X3394D01*
X3393Y-685D01*
X3393D01*
X3393Y-685D01*
X3392Y-685D01*
X3392D01*
X3392Y-685D01*
X3391Y-684D01*
Y-684D01*
X3391Y-684D01*
Y-652D01*
Y-652D01*
Y-651D01*
Y-650D01*
X3391Y-649D01*
X3391Y-647D01*
X3391Y-646D01*
X3390Y-645D01*
Y-644D01*
X3390Y-644D01*
X3390Y-644D01*
X3390Y-643D01*
X3389Y-641D01*
X3388Y-640D01*
Y-640D01*
X3388Y-639D01*
X3387Y-639D01*
X3386Y-638D01*
X3385Y-637D01*
X3384D01*
X3384Y-636D01*
X3384Y-636D01*
X3383Y-636D01*
X3381Y-636D01*
X3380Y-635D01*
X3379D01*
X3378Y-636D01*
X3377Y-636D01*
X3376Y-636D01*
X3375Y-637D01*
X3373Y-637D01*
X3372Y-638D01*
X3372Y-638D01*
X3371Y-639D01*
X3371Y-639D01*
X3370Y-640D01*
X3368Y-641D01*
X3367Y-643D01*
X3366Y-644D01*
X3364Y-646D01*
Y-684D01*
Y-684D01*
Y-684D01*
X3364Y-684D01*
X3364Y-685D01*
X3363Y-685D01*
X3363D01*
X3363Y-685D01*
X3362D01*
X3362Y-685D01*
X3361D01*
X3360Y-685D01*
X3358D01*
X3357Y-685D01*
X3357D01*
X3356Y-685D01*
X3355Y-685D01*
X3355D01*
X3355Y-685D01*
X3355Y-684D01*
Y-684D01*
X3354Y-684D01*
Y-630D01*
Y-629D01*
Y-629D01*
X3355Y-629D01*
X3355Y-629D01*
X3355Y-628D01*
X3355Y-628D01*
X3355D01*
X3356Y-628D01*
X3356Y-628D01*
X3357Y-628D01*
X3357D01*
X3357Y-628D01*
X3360D01*
X3361Y-628D01*
X3361D01*
X3362Y-628D01*
X3362Y-628D01*
X3362Y-628D01*
X3362D01*
X3363Y-628D01*
X3363Y-629D01*
X3363Y-629D01*
X3363Y-629D01*
X3363Y-630D01*
Y-637D01*
X3364Y-636D01*
X3364Y-636D01*
X3365Y-635D01*
X3366Y-634D01*
X3367Y-633D01*
X3369Y-631D01*
X3371Y-630D01*
X3372Y-629D01*
X3373Y-629D01*
X3373Y-629D01*
X3374Y-629D01*
X3375Y-628D01*
X3377Y-628D01*
X3378Y-627D01*
X3380Y-627D01*
X3381Y-627D01*
X3382D01*
X3383Y-627D01*
D02*
G37*
%LPC*%
G36*
X3555Y-616D02*
X3545D01*
Y-647D01*
X3556D01*
X3557Y-647D01*
X3558Y-647D01*
X3560Y-647D01*
X3561Y-646D01*
X3562Y-646D01*
X3562D01*
X3563Y-646D01*
X3563Y-645D01*
X3564Y-645D01*
X3566Y-644D01*
X3567Y-643D01*
X3567Y-643D01*
X3568Y-642D01*
X3568Y-642D01*
X3569Y-641D01*
X3570Y-640D01*
X3571Y-638D01*
Y-637D01*
X3571Y-637D01*
X3571Y-636D01*
X3571Y-636D01*
X3572Y-635D01*
X3572Y-634D01*
X3572Y-631D01*
Y-631D01*
Y-630D01*
X3572Y-629D01*
X3572Y-628D01*
X3571Y-627D01*
X3571Y-626D01*
X3571Y-624D01*
X3570Y-623D01*
X3570Y-623D01*
X3570Y-623D01*
X3569Y-622D01*
X3569Y-621D01*
X3567Y-620D01*
X3567Y-619D01*
X3566Y-618D01*
X3565Y-618D01*
X3565Y-618D01*
X3565Y-618D01*
X3564Y-618D01*
X3562Y-617D01*
X3560Y-616D01*
X3560D01*
X3560Y-616D01*
X3559D01*
X3558Y-616D01*
X3557Y-616D01*
X3555Y-616D01*
D02*
G37*
G36*
X3656Y-659D02*
X3646D01*
X3645Y-659D01*
X3644D01*
X3643Y-659D01*
X3640Y-660D01*
X3640D01*
X3640Y-660D01*
X3640Y-660D01*
X3639Y-660D01*
X3637Y-661D01*
X3636Y-662D01*
X3635D01*
X3635Y-662D01*
X3635Y-663D01*
X3634Y-664D01*
X3633Y-665D01*
Y-665D01*
X3633Y-665D01*
X3632Y-666D01*
X3632Y-666D01*
X3632Y-668D01*
X3632Y-669D01*
Y-669D01*
Y-670D01*
X3632Y-671D01*
X3632Y-672D01*
X3633Y-673D01*
X3633Y-674D01*
X3634Y-675D01*
X3635Y-676D01*
X3635Y-676D01*
X3635Y-676D01*
X3636Y-677D01*
X3636Y-677D01*
X3637Y-678D01*
X3639Y-678D01*
X3640Y-678D01*
X3642Y-678D01*
X3643D01*
X3643Y-678D01*
X3644Y-678D01*
X3645Y-678D01*
X3647Y-678D01*
X3648Y-677D01*
X3649Y-676D01*
X3649Y-676D01*
X3650Y-676D01*
X3650Y-676D01*
X3651Y-675D01*
X3652Y-674D01*
X3654Y-673D01*
X3655Y-672D01*
X3656Y-670D01*
Y-659D01*
D02*
G37*
G36*
X3450D02*
X3440D01*
X3439Y-659D01*
X3438D01*
X3436Y-659D01*
X3434Y-660D01*
X3434D01*
X3434Y-660D01*
X3433Y-660D01*
X3432Y-660D01*
X3431Y-661D01*
X3429Y-662D01*
X3429D01*
X3429Y-662D01*
X3428Y-663D01*
X3427Y-664D01*
X3426Y-665D01*
Y-665D01*
X3426Y-665D01*
X3426Y-666D01*
X3426Y-666D01*
X3426Y-668D01*
X3425Y-669D01*
Y-669D01*
Y-670D01*
X3426Y-671D01*
X3426Y-672D01*
X3426Y-673D01*
X3427Y-674D01*
X3427Y-675D01*
X3428Y-676D01*
X3428Y-676D01*
X3429Y-676D01*
X3429Y-677D01*
X3430Y-677D01*
X3431Y-678D01*
X3432Y-678D01*
X3434Y-678D01*
X3435Y-678D01*
X3436D01*
X3437Y-678D01*
X3438Y-678D01*
X3439Y-678D01*
X3440Y-678D01*
X3441Y-677D01*
X3443Y-676D01*
X3443Y-676D01*
X3443Y-676D01*
X3444Y-676D01*
X3445Y-675D01*
X3446Y-674D01*
X3447Y-673D01*
X3448Y-672D01*
X3450Y-670D01*
Y-659D01*
D02*
G37*
G36*
X4143Y-616D02*
X4133D01*
Y-676D01*
X4145D01*
X4146Y-676D01*
X4148Y-676D01*
X4150Y-676D01*
X4152Y-676D01*
X4154Y-675D01*
X4156Y-675D01*
X4156Y-674D01*
X4157Y-674D01*
X4158Y-674D01*
X4159Y-673D01*
X4160Y-672D01*
X4162Y-671D01*
X4163Y-670D01*
X4165Y-669D01*
X4165Y-669D01*
X4165Y-668D01*
X4166Y-667D01*
X4167Y-666D01*
X4167Y-665D01*
X4168Y-663D01*
X4169Y-661D01*
X4170Y-659D01*
X4170Y-659D01*
X4170Y-658D01*
X4170Y-657D01*
X4171Y-655D01*
X4171Y-653D01*
X4171Y-651D01*
X4171Y-648D01*
X4172Y-646D01*
Y-645D01*
Y-645D01*
Y-644D01*
X4171Y-643D01*
Y-642D01*
X4171Y-640D01*
X4171Y-638D01*
X4170Y-636D01*
X4170Y-634D01*
Y-634D01*
X4170Y-633D01*
X4169Y-632D01*
X4169Y-631D01*
X4168Y-629D01*
X4167Y-628D01*
X4166Y-626D01*
X4165Y-624D01*
X4165Y-624D01*
X4164Y-624D01*
X4164Y-623D01*
X4163Y-622D01*
X4162Y-621D01*
X4160Y-620D01*
X4158Y-619D01*
X4157Y-618D01*
X4156Y-618D01*
X4156Y-618D01*
X4154Y-618D01*
X4153Y-617D01*
X4151Y-617D01*
X4149Y-616D01*
X4146Y-616D01*
X4143Y-616D01*
D02*
G37*
G36*
X3771Y-635D02*
X3769D01*
X3768Y-635D01*
X3766Y-635D01*
X3764Y-636D01*
X3764D01*
X3764Y-636D01*
X3763Y-637D01*
X3762Y-637D01*
X3761Y-638D01*
X3759Y-640D01*
X3759Y-640D01*
X3759Y-640D01*
X3759Y-641D01*
X3758Y-641D01*
X3758Y-642D01*
X3757Y-643D01*
X3756Y-645D01*
Y-645D01*
X3756Y-646D01*
X3756Y-646D01*
X3756Y-647D01*
X3756Y-648D01*
X3756Y-649D01*
X3755Y-651D01*
X3785D01*
Y-651D01*
Y-651D01*
Y-651D01*
Y-650D01*
X3785Y-649D01*
X3784Y-647D01*
X3784Y-645D01*
X3783Y-643D01*
X3782Y-641D01*
X3781Y-639D01*
X3781Y-639D01*
X3781Y-638D01*
X3780Y-638D01*
X3779Y-637D01*
X3777Y-636D01*
X3775Y-635D01*
X3773Y-635D01*
X3771Y-635D01*
D02*
G37*
G36*
X3272D02*
X3271D01*
X3270Y-635D01*
X3268Y-635D01*
X3266Y-636D01*
X3266D01*
X3265Y-636D01*
X3265Y-637D01*
X3264Y-637D01*
X3263Y-638D01*
X3261Y-640D01*
X3261Y-640D01*
X3261Y-640D01*
X3260Y-641D01*
X3260Y-641D01*
X3259Y-642D01*
X3259Y-643D01*
X3258Y-645D01*
Y-645D01*
X3258Y-646D01*
X3258Y-646D01*
X3258Y-647D01*
X3257Y-648D01*
X3257Y-649D01*
X3257Y-651D01*
X3287D01*
Y-651D01*
Y-651D01*
Y-651D01*
Y-650D01*
X3286Y-649D01*
X3286Y-647D01*
X3286Y-645D01*
X3285Y-643D01*
X3284Y-641D01*
X3283Y-639D01*
X3283Y-639D01*
X3282Y-638D01*
X3281Y-638D01*
X3280Y-637D01*
X3279Y-636D01*
X3277Y-635D01*
X3275Y-635D01*
X3272Y-635D01*
D02*
G37*
%LPD*%
D31*
X-1171Y-1524D02*
G03*
X-1170Y-1526I2J0D01*
G01*
X-1148Y-1295D02*
G03*
X-1171Y-1524I49J-120D01*
G01*
X-1148Y-1295D02*
G03*
X-837Y-833I-189J463D01*
G01*
D02*
G03*
X-1624Y-423I-500J0D01*
G01*
D02*
G03*
X-1680Y-469I287J-409D01*
G01*
X-1899Y-382D02*
G03*
X-1680Y-469I130J8D01*
G01*
X-1900Y-381D02*
G03*
X-1899Y-382I3J0D01*
G01*
X-1913Y-89D02*
G03*
X-1914Y-90I2J-1D01*
G01*
X-881Y1701D02*
G03*
X-1913Y-89I882J-1701D01*
G01*
X-881Y1702D02*
G03*
X-881Y1701I1J-2D01*
G01*
X-279Y2012D02*
G03*
X-280Y2012I-0J-2D01*
G01*
X-278Y2013D02*
G03*
X-279Y2012I1J-2D01*
G01*
X275Y2015D02*
G03*
X-278Y2013I-274J-541D01*
G01*
X276Y2014D02*
G03*
X275Y2015I-1J-2D01*
G01*
X878Y1703D02*
G03*
X876Y1704I-2J-1D01*
G01*
X879Y1703D02*
G03*
X878Y1703I-1J-2D01*
G01*
X1916Y0D02*
G03*
X879Y1703I-1916J0D01*
G01*
X1914Y-90D02*
G03*
X1916Y0I-1914J90D01*
G01*
X1914Y-91D02*
G03*
X1914Y-90I-2J1D01*
G01*
X1901Y-381D02*
G03*
X1900Y-380I-3J0D01*
G01*
X1681Y-469D02*
G03*
X1901Y-381I89J95D01*
G01*
X1681Y-469D02*
G03*
X1149Y-1295I-343J-363D01*
G01*
X1230Y-1416D02*
G03*
X1149Y-1295I-130J0D01*
G01*
X1171Y-1525D02*
G03*
X1230Y-1416I-70J109D01*
G01*
X1169Y-1526D02*
G03*
X1171Y-1525I-0J3D01*
G01*
X1036Y-1612D02*
G03*
X1036Y-1611I-1J2D01*
G01*
X612Y-1816D02*
G03*
X1036Y-1612I-611J1816D01*
G01*
X452Y-1637D02*
G03*
X612Y-1816I118J-56D01*
G01*
X452Y-1637D02*
G03*
X500Y-1423I-452J213D01*
G01*
D02*
G03*
X-451Y-1637I-500J0D01*
G01*
X-439Y-1692D02*
G03*
X-451Y-1637I-130J0D01*
G01*
X-611Y-1816D02*
G03*
X-439Y-1692I41J123D01*
G01*
X-1035Y-1612D02*
G03*
X-611Y-1816I1035J1612D01*
G01*
X-1037Y-1611D02*
G03*
X-1035Y-1612I1J2D01*
G01*
X-1170Y-1526D02*
X-1037Y-1611D01*
X-1171Y-1524D02*
Y-1524D01*
X-1148Y-1295D02*
X-1148Y-1295D01*
X-1148Y-1295D02*
Y-1295D01*
X-1680Y-469D02*
X-1680Y-469D01*
X-1899Y-382D02*
X-1899D01*
X-1914Y-90D02*
X-1900Y-381D01*
X-1913Y-89D02*
X-1913D01*
X-881Y1702D02*
X-280Y2012D01*
X275Y2015D02*
X275Y2015D01*
X276Y2014D02*
X876Y1704D01*
X878Y1703D02*
X878D01*
X879Y1703D02*
Y1703D01*
X1900Y-380D02*
X1914Y-91D01*
X1901Y-381D02*
Y-381D01*
X1681Y-469D02*
X1681Y-469D01*
X1149Y-1295D02*
X1149Y-1295D01*
X1036Y-1611D02*
X1169Y-1526D01*
X612Y-1816D02*
X612Y-1816D01*
X452Y-1637D02*
X452Y-1637D01*
X-611Y-1816D02*
Y-1816D01*
D32*
X-1148Y-1295D02*
D03*
X-1148Y-1295D02*
D03*
X-1680Y-469D02*
D03*
X1901Y-381D02*
D03*
X1681Y-469D02*
D03*
X1681Y-469D02*
D03*
X1149Y-1295D02*
D03*
X612Y-1816D02*
D03*
X452Y-1637D02*
D03*
X452Y-1637D02*
D03*
X-451Y-1637D02*
D03*
X-611Y-1816D02*
D03*
X-1035Y-1612D02*
D03*
D33*
X721Y-1683D02*
G03*
X959Y-1578I67J172D01*
G01*
X1410Y1210D02*
G03*
X1240Y1362I-161J-9D01*
G01*
X-1180Y1408D02*
G03*
X-1358Y1231I-0J-178D01*
G01*
X-1022Y-1519D02*
G03*
X-770Y-1665I199J53D01*
G01*
D34*
X503Y346D02*
D03*
X779D02*
D03*
X1055D02*
D03*
X1330D02*
D03*
X-572Y356D02*
D03*
X-848D02*
D03*
X-1124D02*
D03*
X-1399D02*
D03*
D35*
X641Y149D02*
D03*
X917D02*
D03*
X1192D02*
D03*
X1468D02*
D03*
X-435Y159D02*
D03*
X-710D02*
D03*
X-986D02*
D03*
X-1261D02*
D03*
D36*
X-652Y-1097D02*
D03*
X-709Y619D02*
D03*
X712Y620D02*
D03*
D37*
X40Y1166D02*
D03*
X-39D02*
D03*
X40Y1245D02*
D03*
X-39D02*
D03*
X40Y1323D02*
D03*
X-39D02*
D03*
Y1402D02*
D03*
D38*
X40D02*
D03*
D39*
X-1720Y385D02*
D03*
Y285D02*
D03*
Y85D02*
D03*
Y-15D02*
D03*
X1715Y85D02*
D03*
Y185D02*
D03*
Y285D02*
D03*
X275Y50D02*
D03*
D40*
X-1720Y185D02*
D03*
X1715Y385D02*
D03*
X275Y150D02*
D03*
D41*
X95Y140D02*
D03*
Y240D02*
D03*
X-96D02*
D03*
X95Y340D02*
D03*
X-96D02*
D03*
X95Y440D02*
D03*
X-96D02*
D03*
X95Y540D02*
D03*
X-96D02*
D03*
X95Y640D02*
D03*
D42*
X-96Y140D02*
D03*
Y640D02*
D03*
D43*
X764Y-1359D02*
D03*
D44*
X-792Y-1425D02*
D03*
D45*
X0Y1770D02*
D03*
D46*
X268Y-352D02*
D03*
X60Y-530D02*
D03*
X1640Y815D02*
D03*
X130Y-8D02*
D03*
X-600Y-40D02*
D03*
X-590Y45D02*
D03*
X-1091Y90D02*
D03*
X-546Y-215D02*
D03*
X-822Y51D02*
D03*
X-775Y20D02*
D03*
X-600Y-280D02*
D03*
X343Y640D02*
D03*
X1225Y400D02*
D03*
X910Y815D02*
D03*
X625Y1660D02*
D03*
X825Y1600D02*
D03*
X835Y1538D02*
D03*
X-30Y-260D02*
D03*
X-10Y-220D02*
D03*
X205Y713D02*
D03*
X359Y1315D02*
D03*
X1255Y1020D02*
D03*
X275Y1250D02*
D03*
X-495Y1481D02*
D03*
X-316Y355D02*
D03*
X-125Y835D02*
D03*
X1231Y960D02*
D03*
X-650Y440D02*
D03*
X-199Y1589D02*
D03*
X540Y1315D02*
D03*
X1200Y1194D02*
D03*
X1143Y960D02*
D03*
X1563Y545D02*
D03*
X-686Y948D02*
D03*
X-750Y965D02*
D03*
X-229Y835D02*
D03*
X-177Y847D02*
D03*
X-1165Y541D02*
D03*
X-1121Y542D02*
D03*
X-190Y1474D02*
D03*
X-435Y1265D02*
D03*
X-960Y1390D02*
D03*
X-765D02*
D03*
X945D02*
D03*
X1320Y940D02*
D03*
X1135Y1390D02*
D03*
X-1188Y935D02*
D03*
X470Y1250D02*
D03*
X1515Y940D02*
D03*
X555Y1695D02*
D03*
X360D02*
D03*
X1228Y744D02*
D03*
X620Y1551D02*
D03*
X540Y1106D02*
D03*
X-1546Y742D02*
D03*
X-690Y1245D02*
D03*
X-1118Y795D02*
D03*
X210Y1055D02*
D03*
X-375Y1065D02*
D03*
X480Y835D02*
D03*
X-1363Y935D02*
D03*
X523Y847D02*
D03*
X-136Y1473D02*
D03*
X-616Y1671D02*
D03*
X-495Y1715D02*
D03*
X1519Y532D02*
D03*
X-57Y819D02*
D03*
X-693Y1457D02*
D03*
X-1074Y1102D02*
D03*
X1175Y467D02*
D03*
X-706Y-74D02*
D03*
X1715Y-275D02*
D03*
X1350Y-30D02*
D03*
Y-125D02*
D03*
X150Y-165D02*
D03*
X179Y-205D02*
D03*
X872Y1490D02*
D03*
X-130Y-794D02*
D03*
X-561Y-560D02*
D03*
X-530Y-725D02*
D03*
X-561Y-445D02*
D03*
X-716Y-670D02*
D03*
X-244Y-235D02*
D03*
X65Y20D02*
D03*
X110Y30D02*
D03*
X30Y50D02*
D03*
X24Y-192D02*
D03*
X220Y-250D02*
D03*
X-20Y750D02*
D03*
X-640Y-200D02*
D03*
X-35Y-390D02*
D03*
X-100Y-420D02*
D03*
X-35Y-570D02*
D03*
X70Y-390D02*
D03*
X-60Y-452D02*
D03*
X24Y-391D02*
D03*
X-60Y713D02*
D03*
X590Y-386D02*
D03*
X720Y-32D02*
D03*
X590Y-470D02*
D03*
X430Y-89D02*
D03*
X641Y-32D02*
D03*
X-261Y-659D02*
D03*
X752Y1190D02*
D03*
X-706Y-391D02*
D03*
X-315Y1215D02*
D03*
X-385Y-875D02*
D03*
X-930Y600D02*
D03*
X1330Y20D02*
D03*
X260Y429D02*
D03*
X393Y226D02*
D03*
X412Y594D02*
D03*
X380Y630D02*
D03*
D47*
X-1425Y1145D02*
D03*
X-330Y430D02*
D03*
X-220Y340D02*
D03*
D48*
X-294Y1850D02*
D03*
X241D02*
D03*
X1205Y655D02*
D03*
X-546Y-810D02*
D03*
X-260Y-610D02*
D03*
M02*
