%FSLAX23Y23*%
%MOIN*%
G70*
G01*
G75*
G04 Layer_Physical_Order=4*
G04 Layer_Color=255*
%ADD10C,0.008*%
%ADD11R,0.014X0.067*%
%ADD12R,0.014X0.035*%
%ADD13R,0.024X0.045*%
%ADD14R,0.020X0.049*%
%ADD15R,0.040X0.040*%
%ADD16R,0.050X0.040*%
%ADD17O,0.024X0.073*%
%ADD18R,0.057X0.016*%
%ADD19R,0.037X0.039*%
%ADD20R,0.055X0.138*%
%ADD21R,0.051X0.108*%
%ADD22R,0.059X0.057*%
%ADD23R,0.045X0.043*%
%ADD24R,0.055X0.035*%
%ADD25R,0.055X0.087*%
%ADD26R,0.066X0.124*%
%ADD27R,0.060X0.124*%
%ADD28R,0.028X0.035*%
%ADD29O,0.028X0.010*%
%ADD30R,0.020X0.020*%
%ADD31R,0.024X0.024*%
%ADD32R,0.059X0.169*%
G04:AMPARAMS|DCode=33|XSize=65mil|YSize=220mil|CornerRadius=16mil|HoleSize=0mil|Usage=FLASHONLY|Rotation=180.000|XOffset=0mil|YOffset=0mil|HoleType=Round|Shape=RoundedRectangle|*
%AMROUNDEDRECTD33*
21,1,0.065,0.188,0,0,180.0*
21,1,0.033,0.220,0,0,180.0*
1,1,0.033,-0.016,0.094*
1,1,0.033,0.016,0.094*
1,1,0.033,0.016,-0.094*
1,1,0.033,-0.016,-0.094*
%
%ADD33ROUNDEDRECTD33*%
G04:AMPARAMS|DCode=34|XSize=65mil|YSize=200mil|CornerRadius=16mil|HoleSize=0mil|Usage=FLASHONLY|Rotation=180.000|XOffset=0mil|YOffset=0mil|HoleType=Round|Shape=RoundedRectangle|*
%AMROUNDEDRECTD34*
21,1,0.065,0.168,0,0,180.0*
21,1,0.033,0.200,0,0,180.0*
1,1,0.033,-0.016,0.084*
1,1,0.033,0.016,0.084*
1,1,0.033,0.016,-0.084*
1,1,0.033,-0.016,-0.084*
%
%ADD34ROUNDEDRECTD34*%
%ADD35R,0.071X0.071*%
%ADD36O,0.010X0.031*%
%ADD37O,0.031X0.010*%
%ADD38R,0.043X0.045*%
%ADD39R,0.051X0.033*%
%ADD40R,0.033X0.051*%
%ADD41R,0.043X0.069*%
%ADD42R,0.069X0.043*%
%ADD43R,0.057X0.059*%
%ADD44R,0.124X0.060*%
%ADD45R,0.016X0.024*%
%ADD46C,0.012*%
%ADD47C,0.010*%
%ADD48C,0.025*%
%ADD49C,0.015*%
%ADD50C,0.020*%
%ADD51C,0.050*%
%ADD52C,0.030*%
%ADD53C,0.040*%
%ADD54C,0.050*%
G04:AMPARAMS|DCode=55|XSize=354mil|YSize=79mil|CornerRadius=20mil|HoleSize=0mil|Usage=FLASHONLY|Rotation=270.000|XOffset=0mil|YOffset=0mil|HoleType=Round|Shape=RoundedRectangle|*
%AMROUNDEDRECTD55*
21,1,0.354,0.039,0,0,270.0*
21,1,0.315,0.079,0,0,270.0*
1,1,0.039,-0.020,-0.157*
1,1,0.039,-0.020,0.157*
1,1,0.039,0.020,0.157*
1,1,0.039,0.020,-0.157*
%
%ADD55ROUNDEDRECTD55*%
G04:AMPARAMS|DCode=56|XSize=394mil|YSize=79mil|CornerRadius=20mil|HoleSize=0mil|Usage=FLASHONLY|Rotation=270.000|XOffset=0mil|YOffset=0mil|HoleType=Round|Shape=RoundedRectangle|*
%AMROUNDEDRECTD56*
21,1,0.394,0.039,0,0,270.0*
21,1,0.354,0.079,0,0,270.0*
1,1,0.039,-0.020,-0.177*
1,1,0.039,-0.020,0.177*
1,1,0.039,0.020,0.177*
1,1,0.039,0.020,-0.177*
%
%ADD56ROUNDEDRECTD56*%
%ADD57C,0.090*%
%ADD58C,0.157*%
%ADD59O,0.075X0.150*%
%ADD60R,0.050X0.050*%
%ADD61C,0.059*%
%ADD62R,0.059X0.059*%
%ADD63C,0.060*%
%ADD64R,0.060X0.060*%
%ADD65C,0.052*%
%ADD66C,0.125*%
%ADD67O,0.173X0.059*%
%ADD68O,0.070X0.125*%
%ADD69R,0.079X0.335*%
%ADD70O,0.276X0.079*%
%ADD71C,0.028*%
%ADD72C,0.030*%
%ADD73C,0.040*%
%ADD74C,0.024*%
%ADD75C,0.080*%
%ADD76C,0.100*%
%ADD77C,0.060*%
%ADD78C,0.070*%
G04:AMPARAMS|DCode=79|XSize=90mil|YSize=90mil|CornerRadius=0mil|HoleSize=0mil|Usage=FLASHONLY|Rotation=0.000|XOffset=0mil|YOffset=0mil|HoleType=Round|Shape=Relief|Width=20mil|Gap=10mil|Entries=4|*
%AMTHD79*
7,0,0,0.090,0.070,0.020,45*
%
%ADD79THD79*%
%AMTHOVALD80*
21,1,0.267,0.088,0,0,270.0*
1,1,0.088,0.000,0.134*
1,1,0.088,0.000,-0.134*
21,0,0.267,0.068,0,0,270.0*
1,0,0.068,0.000,0.134*
1,0,0.068,0.000,-0.134*
4,0,4,-0.007,0.127,-0.038,0.158,-0.024,0.172,0.007,0.141,-0.007,0.127,0.0*
4,0,4,-0.007,-0.141,0.024,-0.172,0.038,-0.158,0.007,-0.127,-0.007,-0.141,0.0*
4,0,4,-0.007,0.141,0.024,0.172,0.038,0.158,0.007,0.127,-0.007,0.141,0.0*
4,0,4,-0.007,-0.127,-0.038,-0.158,-0.024,-0.172,0.007,-0.141,-0.007,-0.127,0.0*
%
%ADD80THOVALD80*%

%ADD81O,0.068X0.335*%
G04:AMPARAMS|DCode=82|XSize=117mil|YSize=117mil|CornerRadius=0mil|HoleSize=0mil|Usage=FLASHONLY|Rotation=0.000|XOffset=0mil|YOffset=0mil|HoleType=Round|Shape=Relief|Width=20mil|Gap=10mil|Entries=4|*
%AMTHD82*
7,0,0,0.117,0.097,0.020,45*
%
%ADD82THD82*%
%ADD83C,0.097*%
G04:AMPARAMS|DCode=84|XSize=210mil|YSize=210mil|CornerRadius=0mil|HoleSize=0mil|Usage=FLASHONLY|Rotation=0.000|XOffset=0mil|YOffset=0mil|HoleType=Round|Shape=Relief|Width=20mil|Gap=10mil|Entries=4|*
%AMTHD84*
7,0,0,0.210,0.190,0.020,45*
%
%ADD84THD84*%
%ADD85O,0.115X0.190*%
G04:AMPARAMS|DCode=86|XSize=95.433mil|YSize=95.433mil|CornerRadius=0mil|HoleSize=0mil|Usage=FLASHONLY|Rotation=0.000|XOffset=0mil|YOffset=0mil|HoleType=Round|Shape=Relief|Width=20mil|Gap=10mil|Entries=4|*
%AMTHD86*
7,0,0,0.095,0.075,0.020,45*
%
%ADD86THD86*%
%ADD87C,0.075*%
G04:AMPARAMS|DCode=88|XSize=102.126mil|YSize=102.126mil|CornerRadius=0mil|HoleSize=0mil|Usage=FLASHONLY|Rotation=0.000|XOffset=0mil|YOffset=0mil|HoleType=Round|Shape=Relief|Width=20mil|Gap=10mil|Entries=4|*
%AMTHD88*
7,0,0,0.102,0.082,0.020,45*
%
%ADD88THD88*%
%ADD89C,0.082*%
%ADD90C,0.092*%
%ADD91C,0.112*%
%ADD92O,0.215X0.110*%
%ADD93O,0.068X0.112*%
%ADD94O,0.068X0.365*%
G04:AMPARAMS|DCode=95|XSize=132mil|YSize=132mil|CornerRadius=0mil|HoleSize=0mil|Usage=FLASHONLY|Rotation=0.000|XOffset=0mil|YOffset=0mil|HoleType=Round|Shape=Relief|Width=20mil|Gap=10mil|Entries=4|*
%AMTHD95*
7,0,0,0.132,0.112,0.020,45*
%
%ADD95THD95*%
%AMTHOVALD96*
21,1,0.044,0.088,0,0,270.0*
1,1,0.088,0.000,0.022*
1,1,0.088,0.000,-0.022*
21,0,0.044,0.068,0,0,270.0*
1,0,0.068,0.000,0.022*
1,0,0.068,0.000,-0.022*
4,0,4,-0.007,0.015,-0.038,0.046,-0.024,0.060,0.007,0.029,-0.007,0.015,0.0*
4,0,4,-0.007,-0.029,0.024,-0.060,0.038,-0.046,0.007,-0.015,-0.007,-0.029,0.0*
4,0,4,-0.007,0.029,0.024,0.060,0.038,0.046,0.007,0.015,-0.007,0.029,0.0*
4,0,4,-0.007,-0.015,-0.038,-0.046,-0.024,-0.060,0.007,-0.029,-0.007,-0.015,0.0*
%
%ADD96THOVALD96*%

%AMTHOVALD97*
21,1,0.297,0.088,0,0,270.0*
1,1,0.088,0.000,0.148*
1,1,0.088,0.000,-0.148*
21,0,0.297,0.068,0,0,270.0*
1,0,0.068,0.000,0.148*
1,0,0.068,0.000,-0.148*
4,0,4,-0.007,0.141,-0.038,0.172,-0.024,0.187,0.007,0.155,-0.007,0.141,0.0*
4,0,4,-0.007,-0.155,0.024,-0.187,0.038,-0.172,0.007,-0.141,-0.007,-0.155,0.0*
4,0,4,-0.007,0.155,0.024,0.187,0.038,0.172,0.007,0.141,-0.007,0.155,0.0*
4,0,4,-0.007,-0.141,-0.038,-0.172,-0.024,-0.187,0.007,-0.155,-0.007,-0.141,0.0*
%
%ADD97THOVALD97*%

%ADD98O,0.316X0.119*%
G04:AMPARAMS|DCode=99|XSize=88mil|YSize=88mil|CornerRadius=0mil|HoleSize=0mil|Usage=FLASHONLY|Rotation=0.000|XOffset=0mil|YOffset=0mil|HoleType=Round|Shape=Relief|Width=20mil|Gap=10mil|Entries=4|*
%AMTHD99*
7,0,0,0.088,0.068,0.020,45*
%
%ADD99THD99*%
G04:AMPARAMS|DCode=100|XSize=71mil|YSize=71mil|CornerRadius=0mil|HoleSize=0mil|Usage=FLASHONLY|Rotation=0.000|XOffset=0mil|YOffset=0mil|HoleType=Round|Shape=Relief|Width=20mil|Gap=10mil|Entries=4|*
%AMTHD100*
7,0,0,0.071,0.051,0.020,45*
%
%ADD100THD100*%
%ADD101C,0.052*%
G04:AMPARAMS|DCode=102|XSize=72mil|YSize=72mil|CornerRadius=0mil|HoleSize=0mil|Usage=FLASHONLY|Rotation=0.000|XOffset=0mil|YOffset=0mil|HoleType=Round|Shape=Relief|Width=20mil|Gap=10mil|Entries=4|*
%AMTHD102*
7,0,0,0.072,0.052,0.020,45*
%
%ADD102THD102*%
%ADD103C,0.051*%
%ADD104C,0.068*%
G04:AMPARAMS|DCode=105|XSize=80mil|YSize=80mil|CornerRadius=0mil|HoleSize=0mil|Usage=FLASHONLY|Rotation=0.000|XOffset=0mil|YOffset=0mil|HoleType=Round|Shape=Relief|Width=20mil|Gap=10mil|Entries=4|*
%AMTHD105*
7,0,0,0.080,0.060,0.020,45*
%
%ADD105THD105*%
G04:AMPARAMS|DCode=106|XSize=84mil|YSize=84mil|CornerRadius=0mil|HoleSize=0mil|Usage=FLASHONLY|Rotation=0.000|XOffset=0mil|YOffset=0mil|HoleType=Round|Shape=Relief|Width=20mil|Gap=10mil|Entries=4|*
%AMTHD106*
7,0,0,0.084,0.064,0.020,45*
%
%ADD106THD106*%
%ADD107C,0.190*%
%AMTHOVALD108*
21,1,0.044,0.088,0,0,450.0*
1,1,0.088,0.000,-0.022*
1,1,0.088,0.000,0.022*
21,0,0.044,0.068,0,0,450.0*
1,0,0.068,0.000,-0.022*
1,0,0.068,0.000,0.022*
4,0,4,0.007,-0.015,0.038,-0.046,0.024,-0.060,-0.007,-0.029,0.007,-0.015,0.0*
4,0,4,0.007,0.029,-0.024,0.060,-0.038,0.046,-0.007,0.015,0.007,0.029,0.0*
4,0,4,0.007,-0.029,-0.024,-0.060,-0.038,-0.046,-0.007,-0.015,0.007,-0.029,0.0*
4,0,4,0.007,0.015,0.038,0.046,0.024,0.060,-0.007,0.029,0.007,0.015,0.0*
%
%ADD108THOVALD108*%

%ADD109C,0.064*%
%ADD110R,0.024X0.016*%
%ADD111R,0.092X0.051*%
%ADD112R,0.035X0.014*%
G36*
X7392Y5798D02*
X7390Y5798D01*
X7388Y5798D01*
X7385Y5797D01*
X7384Y5797D01*
X7382Y5796D01*
X7382Y5796D01*
X7381Y5796D01*
X7381D01*
X7379Y5795D01*
X7377Y5793D01*
X7375Y5792D01*
X7373Y5791D01*
X7372Y5790D01*
X7371Y5789D01*
X7371Y5788D01*
X7370Y5788D01*
X7369Y5786D01*
X7368Y5783D01*
X7366Y5781D01*
X7365Y5779D01*
X7364Y5777D01*
X7364Y5776D01*
X7364Y5776D01*
X7364Y5775D01*
X7363Y5775D01*
Y5775D01*
X7363Y5772D01*
X7362Y5769D01*
X7362Y5766D01*
X7361Y5763D01*
X7361Y5761D01*
Y5760D01*
X7361Y5759D01*
Y5759D01*
Y5758D01*
Y5758D01*
Y5758D01*
X7361Y5754D01*
X7362Y5751D01*
X7362Y5748D01*
X7362Y5746D01*
X7363Y5744D01*
X7363Y5743D01*
X7363Y5742D01*
X7363Y5742D01*
Y5741D01*
X7363Y5741D01*
Y5741D01*
X7364Y5738D01*
X7365Y5736D01*
X7367Y5734D01*
X7368Y5732D01*
X7368Y5731D01*
X7369Y5730D01*
X7370Y5729D01*
X7370Y5729D01*
X7372Y5727D01*
X7373Y5726D01*
X7375Y5724D01*
X7377Y5723D01*
X7378Y5723D01*
X7379Y5722D01*
X7380Y5722D01*
X7380Y5722D01*
X7383Y5721D01*
X7385Y5720D01*
X7387Y5720D01*
X7389Y5719D01*
X7391Y5719D01*
X7393Y5719D01*
X7394D01*
X7397Y5719D01*
X7398Y5719D01*
X7400Y5719D01*
X7401Y5720D01*
X7401Y5720D01*
X7402Y5720D01*
X7402D01*
X7405Y5720D01*
X7406Y5721D01*
X7407Y5721D01*
X7407Y5721D01*
X7408Y5722D01*
X7408Y5722D01*
X7409D01*
X7411Y5723D01*
X7412Y5723D01*
X7413Y5724D01*
X7413Y5724D01*
X7413Y5724D01*
X7413D01*
X7415Y5725D01*
X7415Y5726D01*
X7416Y5726D01*
X7416Y5726D01*
X7416Y5726D01*
X7417Y5727D01*
X7417Y5727D01*
Y5727D01*
X7417Y5728D01*
X7417Y5728D01*
X7417Y5729D01*
Y5729D01*
Y5729D01*
X7417Y5730D01*
Y5730D01*
Y5731D01*
Y5731D01*
Y5732D01*
Y5733D01*
X7417Y5733D01*
Y5733D01*
X7417Y5734D01*
Y5734D01*
X7417Y5734D01*
Y5735D01*
X7417Y5735D01*
X7417Y5735D01*
X7417Y5735D01*
X7417D01*
X7416Y5736D01*
X7416D01*
X7415Y5735D01*
X7414Y5735D01*
X7414Y5734D01*
X7413Y5734D01*
X7413D01*
X7412Y5733D01*
X7411Y5733D01*
X7410Y5732D01*
X7410Y5732D01*
X7409Y5732D01*
X7409D01*
X7407Y5731D01*
X7406Y5730D01*
X7405Y5730D01*
X7404Y5729D01*
X7404Y5729D01*
X7403D01*
X7401Y5729D01*
X7399Y5728D01*
X7398Y5728D01*
X7397Y5728D01*
X7395D01*
X7393Y5728D01*
X7392Y5728D01*
X7390Y5729D01*
X7388Y5729D01*
X7387Y5730D01*
X7386Y5730D01*
X7386Y5730D01*
X7386Y5730D01*
X7384Y5731D01*
X7383Y5732D01*
X7381Y5733D01*
X7380Y5734D01*
X7379Y5735D01*
X7379Y5735D01*
X7378Y5736D01*
X7378Y5736D01*
X7377Y5737D01*
X7376Y5739D01*
X7375Y5740D01*
X7375Y5742D01*
X7374Y5743D01*
X7374Y5744D01*
X7374Y5745D01*
X7374Y5745D01*
X7373Y5747D01*
X7373Y5750D01*
X7373Y5752D01*
X7372Y5754D01*
Y5756D01*
X7372Y5757D01*
Y5758D01*
Y5758D01*
Y5758D01*
Y5758D01*
X7372Y5761D01*
X7372Y5764D01*
X7373Y5766D01*
X7373Y5768D01*
X7373Y5769D01*
X7373Y5771D01*
X7374Y5771D01*
Y5771D01*
X7374Y5774D01*
X7375Y5776D01*
X7376Y5777D01*
X7377Y5779D01*
X7377Y5780D01*
X7378Y5781D01*
X7378Y5781D01*
X7378Y5781D01*
X7380Y5783D01*
X7381Y5784D01*
X7382Y5785D01*
X7383Y5786D01*
X7384Y5787D01*
X7385Y5787D01*
X7385Y5787D01*
X7386Y5787D01*
X7387Y5788D01*
X7389Y5789D01*
X7390Y5789D01*
X7392Y5789D01*
X7393Y5789D01*
X7394Y5790D01*
X7397D01*
X7398Y5789D01*
X7400Y5789D01*
X7401Y5789D01*
X7402Y5789D01*
X7403Y5788D01*
X7403Y5788D01*
X7403D01*
X7406Y5787D01*
X7407Y5787D01*
X7407Y5787D01*
X7408Y5786D01*
X7409Y5786D01*
X7409Y5786D01*
X7409Y5786D01*
X7411Y5785D01*
X7412Y5784D01*
X7413Y5783D01*
X7413Y5783D01*
X7414Y5782D01*
X7415Y5782D01*
X7415Y5782D01*
X7415D01*
X7416Y5782D01*
X7416D01*
X7417Y5783D01*
X7417Y5783D01*
Y5783D01*
X7417Y5784D01*
X7417Y5784D01*
Y5785D01*
X7417Y5785D01*
Y5786D01*
Y5786D01*
Y5786D01*
Y5787D01*
Y5788D01*
X7417Y5788D01*
Y5788D01*
X7417Y5789D01*
Y5789D01*
X7417Y5790D01*
Y5790D01*
X7417Y5790D01*
X7416Y5791D01*
X7416Y5791D01*
X7416Y5791D01*
X7416Y5792D01*
X7415Y5792D01*
X7415Y5793D01*
X7414Y5793D01*
X7413Y5794D01*
X7413Y5794D01*
X7412D01*
X7411Y5795D01*
X7409Y5796D01*
X7409Y5796D01*
X7408Y5796D01*
X7408Y5796D01*
X7408D01*
X7406Y5797D01*
X7404Y5797D01*
X7403Y5798D01*
X7402Y5798D01*
X7402Y5798D01*
X7402D01*
X7399Y5798D01*
X7398Y5798D01*
X7397D01*
X7397Y5799D01*
X7395D01*
X7392Y5798D01*
D02*
G37*
G36*
X7862Y5777D02*
X7861Y5777D01*
X7861D01*
X7860Y5777D01*
X7860Y5777D01*
X7859Y5777D01*
X7859Y5776D01*
X7859Y5776D01*
X7859Y5776D01*
Y5776D01*
Y5775D01*
X7859Y5775D01*
X7859Y5774D01*
X7859Y5774D01*
X7859Y5773D01*
X7879Y5722D01*
X7879Y5721D01*
X7879Y5721D01*
Y5721D01*
X7880Y5720D01*
X7880Y5720D01*
X7880Y5720D01*
X7873Y5701D01*
X7873Y5701D01*
X7872Y5700D01*
Y5700D01*
Y5700D01*
X7873Y5699D01*
X7873Y5699D01*
X7873Y5699D01*
X7873D01*
X7874Y5699D01*
X7874Y5698D01*
X7875D01*
X7875Y5698D01*
X7876Y5698D01*
X7878D01*
X7879Y5698D01*
X7880D01*
X7880Y5698D01*
X7881Y5699D01*
X7881Y5699D01*
X7882Y5699D01*
X7883Y5700D01*
X7883Y5700D01*
X7883Y5700D01*
X7891Y5720D01*
X7910Y5774D01*
X7910Y5774D01*
X7910Y5775D01*
Y5775D01*
Y5775D01*
X7910Y5776D01*
X7910Y5776D01*
X7910Y5776D01*
X7910Y5776D01*
X7909Y5777D01*
X7909Y5777D01*
X7908Y5777D01*
X7908D01*
X7907Y5777D01*
X7906Y5777D01*
X7904D01*
X7903Y5777D01*
X7903Y5777D01*
X7902D01*
X7902Y5777D01*
X7901Y5777D01*
X7901Y5777D01*
X7901D01*
X7901Y5776D01*
X7900Y5776D01*
X7900Y5775D01*
Y5775D01*
X7885Y5732D01*
X7885D01*
X7870Y5775D01*
X7869Y5776D01*
X7869Y5776D01*
Y5776D01*
X7869Y5776D01*
X7869Y5777D01*
X7868Y5777D01*
X7868D01*
X7868Y5777D01*
X7867Y5777D01*
X7867Y5777D01*
X7867D01*
X7866Y5777D01*
X7863D01*
X7862Y5777D01*
D02*
G37*
G36*
X7096Y5792D02*
X7096D01*
X7096Y5791D01*
X7095Y5791D01*
X7095Y5791D01*
X7095D01*
X7094Y5791D01*
X7094Y5791D01*
Y5791D01*
X7094Y5790D01*
Y5790D01*
Y5790D01*
Y5777D01*
X7086D01*
X7086Y5777D01*
X7086Y5777D01*
X7085D01*
X7085Y5776D01*
X7085Y5776D01*
Y5776D01*
X7085Y5776D01*
Y5775D01*
X7085Y5775D01*
Y5775D01*
X7084Y5774D01*
Y5774D01*
Y5773D01*
Y5773D01*
X7085Y5771D01*
X7085Y5771D01*
X7085Y5770D01*
Y5770D01*
X7085Y5769D01*
X7086Y5769D01*
X7086Y5769D01*
X7094D01*
Y5737D01*
Y5736D01*
X7094Y5734D01*
X7094Y5733D01*
X7094Y5732D01*
X7094Y5731D01*
X7095Y5730D01*
X7095Y5729D01*
Y5729D01*
X7096Y5727D01*
X7096Y5726D01*
X7096Y5725D01*
X7097Y5724D01*
X7097Y5724D01*
X7097Y5723D01*
X7098Y5723D01*
X7099Y5722D01*
X7101Y5721D01*
X7101Y5720D01*
X7102Y5720D01*
X7102Y5720D01*
X7102D01*
X7105Y5719D01*
X7106Y5719D01*
X7107Y5719D01*
X7108Y5719D01*
X7111D01*
X7112Y5719D01*
X7112Y5719D01*
X7112D01*
X7113Y5719D01*
X7114Y5720D01*
X7115Y5720D01*
X7115D01*
X7116Y5720D01*
X7116Y5720D01*
X7117Y5720D01*
X7117D01*
X7118Y5721D01*
X7118Y5721D01*
X7118Y5721D01*
X7119D01*
X7119Y5722D01*
X7119Y5722D01*
X7119Y5722D01*
Y5723D01*
X7119Y5724D01*
X7120Y5724D01*
Y5725D01*
Y5725D01*
Y5726D01*
Y5727D01*
X7119Y5727D01*
Y5727D01*
X7119Y5728D01*
X7119Y5728D01*
Y5728D01*
X7119Y5729D01*
X7119Y5729D01*
X7118Y5729D01*
X7118D01*
X7117Y5729D01*
X7117Y5729D01*
X7117D01*
X7116Y5728D01*
X7116Y5728D01*
X7116Y5728D01*
X7115Y5728D01*
X7114Y5728D01*
X7114Y5728D01*
X7114D01*
X7113Y5727D01*
X7111D01*
X7110Y5728D01*
X7109Y5728D01*
X7108Y5728D01*
X7107Y5729D01*
X7106Y5729D01*
X7106Y5730D01*
X7105Y5730D01*
X7105Y5730D01*
X7105Y5732D01*
X7104Y5733D01*
X7104Y5736D01*
Y5737D01*
X7104Y5738D01*
Y5738D01*
Y5739D01*
Y5769D01*
X7118D01*
X7118Y5769D01*
X7119Y5769D01*
X7119Y5770D01*
X7119Y5770D01*
X7119Y5771D01*
X7120Y5772D01*
Y5772D01*
Y5773D01*
Y5773D01*
Y5774D01*
Y5774D01*
X7119Y5775D01*
Y5775D01*
X7119Y5775D01*
X7119Y5776D01*
X7119Y5776D01*
Y5776D01*
X7119Y5777D01*
X7119Y5777D01*
X7118D01*
X7118Y5777D01*
X7104D01*
Y5790D01*
X7104Y5790D01*
X7104Y5791D01*
X7103Y5791D01*
X7103Y5791D01*
X7103D01*
X7102Y5791D01*
X7102Y5791D01*
X7101Y5792D01*
X7101D01*
X7100Y5792D01*
X7097D01*
X7096Y5792D01*
D02*
G37*
G36*
X7644Y5778D02*
X7642Y5778D01*
X7640Y5777D01*
X7638Y5777D01*
X7637Y5777D01*
X7636Y5776D01*
X7636Y5776D01*
X7635Y5776D01*
X7634Y5775D01*
X7632Y5774D01*
X7631Y5773D01*
X7629Y5772D01*
X7628Y5771D01*
X7628Y5771D01*
X7627Y5770D01*
X7627Y5770D01*
X7626Y5769D01*
X7625Y5767D01*
X7624Y5765D01*
X7623Y5764D01*
X7623Y5763D01*
X7622Y5762D01*
X7622Y5761D01*
X7622Y5761D01*
X7621Y5759D01*
X7621Y5756D01*
X7621Y5754D01*
X7621Y5752D01*
X7620Y5751D01*
X7620Y5749D01*
Y5748D01*
Y5748D01*
Y5748D01*
X7620Y5746D01*
X7621Y5743D01*
X7621Y5741D01*
X7621Y5739D01*
X7621Y5737D01*
X7622Y5736D01*
X7622Y5736D01*
Y5735D01*
X7623Y5733D01*
X7623Y5732D01*
X7624Y5730D01*
X7625Y5729D01*
X7626Y5728D01*
X7627Y5727D01*
X7627Y5726D01*
X7627Y5726D01*
X7628Y5725D01*
X7630Y5724D01*
X7631Y5723D01*
X7633Y5722D01*
X7634Y5722D01*
X7635Y5721D01*
X7635Y5721D01*
X7636Y5721D01*
X7637Y5720D01*
X7639Y5720D01*
X7641Y5719D01*
X7643Y5719D01*
X7645Y5719D01*
X7646Y5719D01*
X7647D01*
X7650Y5719D01*
X7651D01*
X7652Y5719D01*
X7653Y5719D01*
X7654D01*
X7654Y5719D01*
X7654D01*
X7657Y5720D01*
X7658Y5720D01*
X7659Y5720D01*
X7659Y5720D01*
X7660Y5721D01*
X7660Y5721D01*
X7660D01*
X7662Y5721D01*
X7664Y5722D01*
X7664Y5722D01*
X7664Y5722D01*
X7665Y5722D01*
X7665D01*
X7666Y5723D01*
X7666Y5723D01*
X7667Y5723D01*
X7667Y5724D01*
X7667Y5724D01*
X7667Y5724D01*
X7667Y5725D01*
X7668Y5725D01*
Y5726D01*
Y5726D01*
X7668Y5727D01*
Y5727D01*
Y5727D01*
Y5728D01*
Y5728D01*
X7668Y5729D01*
Y5729D01*
X7667Y5730D01*
X7667Y5730D01*
Y5730D01*
X7667Y5731D01*
X7667Y5731D01*
X7667D01*
X7666Y5731D01*
X7666D01*
X7665Y5731D01*
X7665Y5731D01*
X7664Y5730D01*
X7664Y5730D01*
X7664D01*
X7663Y5730D01*
X7661Y5729D01*
X7661Y5729D01*
X7660Y5729D01*
X7660D01*
X7658Y5728D01*
X7657Y5728D01*
X7656Y5728D01*
X7656Y5728D01*
X7655Y5727D01*
X7655D01*
X7653Y5727D01*
X7651Y5727D01*
X7650Y5727D01*
X7646D01*
X7645Y5727D01*
X7643Y5727D01*
X7642Y5728D01*
X7641Y5728D01*
X7640Y5728D01*
X7640Y5728D01*
X7640D01*
X7638Y5729D01*
X7637Y5730D01*
X7636Y5731D01*
X7635Y5731D01*
X7635Y5732D01*
X7635Y5732D01*
X7634Y5732D01*
X7633Y5734D01*
X7632Y5736D01*
X7632Y5737D01*
X7632Y5738D01*
X7631Y5738D01*
Y5738D01*
X7631Y5741D01*
X7631Y5742D01*
Y5744D01*
X7631Y5745D01*
Y5746D01*
Y5746D01*
Y5747D01*
X7666D01*
X7667Y5747D01*
X7668Y5747D01*
X7669Y5747D01*
X7669Y5747D01*
X7669Y5748D01*
X7670Y5750D01*
X7670Y5750D01*
Y5751D01*
Y5751D01*
Y5753D01*
Y5755D01*
X7670Y5756D01*
X7670Y5758D01*
X7669Y5760D01*
X7669Y5761D01*
X7669Y5762D01*
X7669Y5762D01*
Y5762D01*
X7668Y5764D01*
X7667Y5766D01*
X7667Y5767D01*
X7666Y5768D01*
X7665Y5769D01*
X7665Y5770D01*
X7664Y5770D01*
X7664Y5771D01*
X7663Y5772D01*
X7662Y5773D01*
X7661Y5774D01*
X7660Y5775D01*
X7659Y5775D01*
X7658Y5776D01*
X7657Y5776D01*
X7657Y5776D01*
X7655Y5777D01*
X7653Y5777D01*
X7652Y5778D01*
X7650Y5778D01*
X7648Y5778D01*
X7647Y5778D01*
X7646D01*
X7644Y5778D01*
D02*
G37*
G36*
X7138Y5792D02*
X7137D01*
X7137Y5791D01*
X7136Y5791D01*
X7136Y5791D01*
X7136D01*
X7135Y5791D01*
X7135Y5791D01*
Y5791D01*
X7135Y5790D01*
Y5790D01*
Y5790D01*
Y5777D01*
X7127D01*
X7127Y5777D01*
X7127Y5777D01*
X7127D01*
X7126Y5776D01*
X7126Y5776D01*
Y5776D01*
X7126Y5776D01*
Y5775D01*
X7126Y5775D01*
Y5775D01*
X7125Y5774D01*
Y5774D01*
Y5773D01*
Y5773D01*
X7126Y5771D01*
X7126Y5771D01*
X7126Y5770D01*
Y5770D01*
X7126Y5769D01*
X7127Y5769D01*
X7127Y5769D01*
X7135D01*
Y5737D01*
Y5736D01*
X7135Y5734D01*
X7135Y5733D01*
X7135Y5732D01*
X7136Y5731D01*
X7136Y5730D01*
X7136Y5729D01*
Y5729D01*
X7137Y5727D01*
X7137Y5726D01*
X7138Y5725D01*
X7138Y5724D01*
X7138Y5724D01*
X7138Y5723D01*
X7139Y5723D01*
X7140Y5722D01*
X7142Y5721D01*
X7143Y5720D01*
X7143Y5720D01*
X7143Y5720D01*
X7143D01*
X7146Y5719D01*
X7147Y5719D01*
X7148Y5719D01*
X7149Y5719D01*
X7152D01*
X7153Y5719D01*
X7153Y5719D01*
X7153D01*
X7154Y5719D01*
X7155Y5720D01*
X7156Y5720D01*
X7156D01*
X7157Y5720D01*
X7158Y5720D01*
X7158Y5720D01*
X7158D01*
X7159Y5721D01*
X7159Y5721D01*
X7159Y5721D01*
X7160D01*
X7160Y5722D01*
X7160Y5722D01*
X7160Y5722D01*
Y5723D01*
X7161Y5724D01*
X7161Y5724D01*
Y5725D01*
Y5725D01*
Y5726D01*
Y5727D01*
X7161Y5727D01*
Y5727D01*
X7160Y5728D01*
X7160Y5728D01*
Y5728D01*
X7160Y5729D01*
X7160Y5729D01*
X7159Y5729D01*
X7159D01*
X7158Y5729D01*
X7158Y5729D01*
X7158D01*
X7157Y5728D01*
X7157Y5728D01*
X7157Y5728D01*
X7156Y5728D01*
X7155Y5728D01*
X7155Y5728D01*
X7155D01*
X7154Y5727D01*
X7152D01*
X7151Y5728D01*
X7150Y5728D01*
X7149Y5728D01*
X7148Y5729D01*
X7147Y5729D01*
X7147Y5730D01*
X7147Y5730D01*
X7146Y5730D01*
X7146Y5732D01*
X7146Y5733D01*
X7145Y5736D01*
Y5737D01*
X7145Y5738D01*
Y5738D01*
Y5739D01*
Y5769D01*
X7159D01*
X7159Y5769D01*
X7160Y5769D01*
X7160Y5770D01*
X7160Y5770D01*
X7160Y5771D01*
X7161Y5772D01*
Y5772D01*
Y5773D01*
Y5773D01*
Y5774D01*
Y5774D01*
X7161Y5775D01*
Y5775D01*
X7160Y5775D01*
X7160Y5776D01*
X7160Y5776D01*
Y5776D01*
X7160Y5777D01*
X7160Y5777D01*
X7159D01*
X7159Y5777D01*
X7145D01*
Y5790D01*
X7145Y5790D01*
X7145Y5791D01*
X7144Y5791D01*
X7144Y5791D01*
X7144D01*
X7143Y5791D01*
X7143Y5791D01*
X7142Y5792D01*
X7142D01*
X7142Y5792D01*
X7138D01*
X7138Y5792D01*
D02*
G37*
G36*
X7824Y5778D02*
X7823Y5778D01*
X7822D01*
X7822Y5778D01*
X7821Y5778D01*
X7821Y5777D01*
X7820D01*
X7818Y5777D01*
X7817Y5777D01*
X7816Y5777D01*
X7816Y5776D01*
X7815Y5776D01*
X7815Y5776D01*
X7815D01*
X7813Y5775D01*
X7812Y5775D01*
X7811Y5775D01*
X7811Y5774D01*
X7810Y5774D01*
X7810D01*
X7809Y5773D01*
X7808Y5773D01*
X7808Y5772D01*
X7807Y5772D01*
X7807Y5772D01*
X7807Y5771D01*
X7806Y5771D01*
Y5771D01*
X7806Y5770D01*
Y5769D01*
Y5769D01*
Y5768D01*
Y5768D01*
Y5768D01*
Y5767D01*
Y5767D01*
Y5767D01*
X7807Y5766D01*
X7807Y5766D01*
Y5765D01*
X7807Y5765D01*
X7807Y5765D01*
X7808Y5765D01*
X7808D01*
X7809Y5765D01*
X7809Y5765D01*
X7810Y5765D01*
X7810Y5765D01*
X7812Y5766D01*
X7813Y5767D01*
X7813Y5767D01*
X7814Y5767D01*
X7814Y5767D01*
X7814D01*
X7816Y5768D01*
X7817Y5769D01*
X7818Y5769D01*
X7819Y5769D01*
X7819Y5769D01*
X7819D01*
X7821Y5770D01*
X7823Y5770D01*
X7824Y5770D01*
X7826D01*
X7828Y5770D01*
X7829Y5770D01*
X7830Y5770D01*
X7830Y5770D01*
X7831Y5769D01*
X7831Y5769D01*
X7831D01*
X7833Y5769D01*
X7834Y5768D01*
X7835Y5767D01*
X7835Y5767D01*
Y5767D01*
X7836Y5766D01*
X7837Y5764D01*
X7837Y5764D01*
X7837Y5763D01*
X7837Y5763D01*
Y5763D01*
X7838Y5761D01*
X7838Y5759D01*
X7838Y5758D01*
Y5758D01*
Y5757D01*
Y5757D01*
Y5753D01*
X7828D01*
X7826Y5753D01*
X7824Y5753D01*
X7823Y5753D01*
X7821Y5752D01*
X7820Y5752D01*
X7819Y5752D01*
X7819D01*
X7817Y5752D01*
X7816Y5751D01*
X7814Y5751D01*
X7813Y5750D01*
X7812Y5750D01*
X7811Y5749D01*
X7811Y5749D01*
X7811Y5749D01*
X7809Y5748D01*
X7808Y5747D01*
X7808Y5746D01*
X7807Y5745D01*
X7806Y5744D01*
X7806Y5744D01*
X7806Y5743D01*
X7805Y5743D01*
X7805Y5742D01*
X7804Y5740D01*
X7804Y5739D01*
X7804Y5738D01*
X7804Y5737D01*
X7804Y5736D01*
Y5735D01*
Y5735D01*
X7804Y5732D01*
X7804Y5731D01*
X7804Y5730D01*
X7804Y5729D01*
X7805Y5729D01*
X7805Y5728D01*
Y5728D01*
X7806Y5726D01*
X7807Y5725D01*
X7807Y5725D01*
X7808Y5724D01*
X7808Y5723D01*
X7808Y5723D01*
X7809Y5723D01*
X7811Y5722D01*
X7813Y5721D01*
X7813Y5720D01*
X7814Y5720D01*
X7814Y5720D01*
X7814D01*
X7817Y5719D01*
X7818Y5719D01*
X7820Y5719D01*
X7821Y5719D01*
X7822D01*
X7824Y5719D01*
X7826Y5719D01*
X7827Y5719D01*
X7829Y5720D01*
X7830Y5720D01*
X7831Y5721D01*
X7831Y5721D01*
X7831Y5721D01*
X7833Y5722D01*
X7834Y5723D01*
X7836Y5724D01*
X7837Y5725D01*
X7838Y5725D01*
X7839Y5726D01*
X7839Y5727D01*
X7839Y5727D01*
Y5721D01*
X7839Y5721D01*
X7840Y5721D01*
X7840Y5720D01*
X7840Y5720D01*
X7841Y5720D01*
X7841Y5720D01*
X7841D01*
X7842Y5720D01*
X7843Y5720D01*
X7845D01*
X7845Y5720D01*
X7846Y5720D01*
X7846D01*
X7847Y5720D01*
X7847Y5720D01*
X7847Y5720D01*
X7847D01*
X7848Y5721D01*
X7848Y5721D01*
Y5721D01*
Y5721D01*
Y5758D01*
Y5760D01*
X7848Y5761D01*
X7847Y5763D01*
X7847Y5764D01*
X7847Y5765D01*
X7847Y5766D01*
X7847Y5766D01*
Y5766D01*
X7846Y5768D01*
X7846Y5769D01*
X7845Y5770D01*
X7844Y5771D01*
X7844Y5772D01*
X7843Y5772D01*
X7843Y5773D01*
X7843Y5773D01*
X7842Y5774D01*
X7841Y5775D01*
X7839Y5776D01*
X7838Y5776D01*
X7837Y5776D01*
X7837Y5777D01*
X7836D01*
X7835Y5777D01*
X7833Y5778D01*
X7832Y5778D01*
X7830Y5778D01*
X7829Y5778D01*
X7827D01*
X7824Y5778D01*
D02*
G37*
G36*
X10950Y3665D02*
X11108D01*
Y4058D01*
X10950D01*
Y3665D01*
D02*
G37*
G36*
X11163D02*
X11295D01*
X11320Y3690D01*
Y4058D01*
X11163D01*
Y3665D01*
D02*
G37*
G36*
X9511Y4235D02*
Y3959D01*
X9510Y3953D01*
X9507Y3948D01*
X9477Y3918D01*
Y3882D01*
X9481Y3879D01*
X9487Y3883D01*
X9496Y3885D01*
X9505Y3883D01*
X9513Y3878D01*
X9515Y3875D01*
X9603D01*
X9608Y3874D01*
X9613Y3871D01*
X9652Y3832D01*
X9687D01*
X9690Y3837D01*
X9687Y3841D01*
X9685Y3850D01*
X9687Y3859D01*
X9692Y3867D01*
X9695Y3869D01*
X9695Y3869D01*
X9697Y3871D01*
X9698Y3874D01*
X9698Y3874D01*
X9706Y3881D01*
Y3919D01*
X9773D01*
Y3909D01*
X9790D01*
X9790Y3909D01*
X9796Y3908D01*
X9800Y3905D01*
X9802Y3903D01*
X9806Y3905D01*
Y3916D01*
X9805Y3917D01*
X9802Y3921D01*
X9802Y3924D01*
X9799D01*
Y3951D01*
X9873D01*
Y3924D01*
X9870D01*
X9869Y3921D01*
X9867Y3917D01*
X9866Y3916D01*
Y3903D01*
X9891D01*
Y3916D01*
X9890Y3917D01*
X9888Y3921D01*
X9887Y3925D01*
X9888Y3929D01*
X9890Y3933D01*
X9891Y3934D01*
Y3992D01*
X9951D01*
Y3981D01*
X10251D01*
X10252Y3982D01*
X10249Y3987D01*
X10046D01*
X10041Y3988D01*
X10037Y3991D01*
X9941Y4087D01*
X9892D01*
X9889Y4082D01*
X9893Y4077D01*
X9895Y4068D01*
X9893Y4059D01*
X9888Y4051D01*
X9880Y4046D01*
X9871Y4045D01*
X9862Y4046D01*
X9855Y4051D01*
X9849Y4059D01*
X9848Y4068D01*
X9849Y4077D01*
X9853Y4082D01*
X9851Y4087D01*
X9807D01*
X9800Y4079D01*
X9795Y4076D01*
X9790Y4075D01*
X9583D01*
Y4058D01*
X9566D01*
Y4035D01*
X9583D01*
Y3977D01*
X9584Y3976D01*
X9587Y3972D01*
X9588Y3968D01*
X9587Y3964D01*
X9584Y3961D01*
X9583Y3960D01*
Y3945D01*
X9619D01*
Y3957D01*
X9686D01*
Y3907D01*
X9619D01*
Y3919D01*
X9583D01*
Y3901D01*
X9524D01*
Y3960D01*
X9522Y3961D01*
X9520Y3964D01*
X9519Y3968D01*
X9520Y3972D01*
X9522Y3976D01*
X9524Y3977D01*
Y4035D01*
X9540D01*
Y4058D01*
X9523D01*
Y4116D01*
X9522Y4117D01*
X9519Y4121D01*
X9519Y4125D01*
X9519Y4129D01*
X9522Y4133D01*
X9523Y4134D01*
Y4192D01*
X9540D01*
Y4236D01*
X9541Y4241D01*
X9544Y4245D01*
X9553Y4255D01*
X9551Y4259D01*
X9536D01*
X9511Y4235D01*
D02*
G37*
G36*
X7263Y5778D02*
X7262Y5778D01*
X7260Y5777D01*
X7259Y5777D01*
X7258Y5776D01*
X7257Y5776D01*
X7256Y5776D01*
X7256Y5776D01*
X7255Y5775D01*
X7253Y5774D01*
X7251Y5772D01*
X7250Y5771D01*
X7249Y5770D01*
X7248Y5769D01*
X7248Y5769D01*
X7247Y5768D01*
Y5775D01*
X7247Y5776D01*
X7247Y5776D01*
X7247Y5776D01*
X7247Y5777D01*
X7247Y5777D01*
X7246D01*
X7246Y5777D01*
X7246Y5777D01*
X7245Y5777D01*
X7245D01*
X7244Y5777D01*
X7241D01*
X7241Y5777D01*
X7241D01*
X7240Y5777D01*
X7240Y5777D01*
X7240Y5777D01*
X7239D01*
X7239Y5777D01*
X7239Y5776D01*
X7239Y5776D01*
X7239Y5776D01*
Y5776D01*
Y5775D01*
Y5721D01*
X7239Y5721D01*
Y5721D01*
X7239Y5720D01*
X7239Y5720D01*
X7240D01*
X7241Y5720D01*
X7241Y5720D01*
X7241D01*
X7242Y5720D01*
X7244D01*
X7245Y5720D01*
X7246D01*
X7246Y5720D01*
X7247D01*
X7247Y5720D01*
X7247D01*
X7248Y5720D01*
X7248Y5721D01*
X7248Y5721D01*
Y5721D01*
Y5721D01*
Y5759D01*
X7250Y5761D01*
X7251Y5762D01*
X7253Y5764D01*
X7254Y5765D01*
X7255Y5766D01*
X7255Y5766D01*
X7256Y5767D01*
X7256Y5767D01*
X7257Y5768D01*
X7258Y5768D01*
X7260Y5769D01*
X7261Y5769D01*
X7262Y5769D01*
X7262Y5770D01*
X7263D01*
X7265Y5769D01*
X7266Y5769D01*
X7267Y5769D01*
X7267Y5769D01*
X7267Y5768D01*
X7268D01*
X7269Y5767D01*
X7270Y5766D01*
X7271Y5766D01*
X7271Y5765D01*
Y5765D01*
X7272Y5764D01*
X7272Y5762D01*
X7273Y5761D01*
X7273Y5761D01*
X7273Y5761D01*
Y5760D01*
X7273Y5758D01*
X7274Y5756D01*
X7274Y5755D01*
Y5755D01*
Y5754D01*
Y5754D01*
Y5721D01*
X7274Y5721D01*
Y5721D01*
X7274Y5720D01*
X7275Y5720D01*
X7275D01*
X7275Y5720D01*
X7276D01*
X7276Y5720D01*
X7276D01*
X7277Y5720D01*
X7280D01*
X7280Y5720D01*
X7281D01*
X7282Y5720D01*
X7282D01*
X7282Y5720D01*
X7282D01*
X7283Y5720D01*
X7283Y5721D01*
X7284Y5721D01*
Y5721D01*
Y5721D01*
Y5759D01*
X7285Y5761D01*
X7286Y5762D01*
X7288Y5764D01*
X7289Y5765D01*
X7290Y5766D01*
X7290Y5766D01*
X7291Y5767D01*
X7291Y5767D01*
X7292Y5768D01*
X7294Y5768D01*
X7295Y5769D01*
X7296Y5769D01*
X7297Y5769D01*
X7297Y5770D01*
X7298D01*
X7300Y5769D01*
X7301Y5769D01*
X7302Y5769D01*
X7302Y5769D01*
X7303Y5768D01*
X7303D01*
X7304Y5767D01*
X7305Y5766D01*
X7306Y5766D01*
X7306Y5765D01*
Y5765D01*
X7307Y5764D01*
X7308Y5762D01*
X7308Y5761D01*
X7308Y5761D01*
X7308Y5761D01*
Y5760D01*
X7308Y5758D01*
X7309Y5756D01*
X7309Y5755D01*
Y5755D01*
Y5754D01*
Y5754D01*
Y5721D01*
X7309Y5721D01*
Y5721D01*
X7309Y5720D01*
X7309Y5720D01*
X7310D01*
X7310Y5720D01*
X7311D01*
X7311Y5720D01*
X7311D01*
X7312Y5720D01*
X7315D01*
X7315Y5720D01*
X7316D01*
X7317Y5720D01*
X7317D01*
X7317Y5720D01*
X7318D01*
X7318Y5720D01*
X7318Y5721D01*
X7319Y5721D01*
Y5721D01*
Y5721D01*
Y5756D01*
X7319Y5759D01*
X7318Y5760D01*
X7318Y5762D01*
X7318Y5763D01*
X7318Y5763D01*
X7318Y5764D01*
Y5764D01*
X7317Y5766D01*
X7317Y5767D01*
X7316Y5768D01*
X7316Y5769D01*
X7315Y5770D01*
X7315Y5771D01*
X7315Y5771D01*
X7314Y5771D01*
X7314Y5772D01*
X7313Y5773D01*
X7312Y5774D01*
X7311Y5775D01*
X7310Y5776D01*
X7309Y5776D01*
X7309Y5776D01*
X7309Y5776D01*
X7307Y5777D01*
X7306Y5777D01*
X7305Y5778D01*
X7303Y5778D01*
X7302Y5778D01*
X7301Y5778D01*
X7300D01*
X7298Y5778D01*
X7297Y5778D01*
X7297Y5778D01*
X7296Y5778D01*
X7296Y5777D01*
X7296D01*
X7294Y5777D01*
X7293Y5776D01*
X7292Y5776D01*
X7292Y5776D01*
X7291Y5776D01*
X7291D01*
X7290Y5775D01*
X7288Y5774D01*
X7288Y5773D01*
X7287Y5773D01*
X7287Y5772D01*
X7287Y5772D01*
X7285Y5771D01*
X7283Y5769D01*
X7283Y5768D01*
X7282Y5768D01*
X7282Y5768D01*
X7282Y5767D01*
X7281Y5769D01*
X7280Y5771D01*
X7280Y5771D01*
X7279Y5771D01*
X7279Y5772D01*
X7279Y5772D01*
X7278Y5773D01*
X7277Y5774D01*
X7276Y5775D01*
X7276Y5775D01*
X7276D01*
X7274Y5776D01*
X7273Y5777D01*
X7272Y5777D01*
X7271Y5777D01*
X7271Y5777D01*
X7271D01*
X7269Y5778D01*
X7267Y5778D01*
X7266Y5778D01*
X7265D01*
X7263Y5778D01*
D02*
G37*
G36*
X10527Y290D02*
Y275D01*
X10598D01*
Y354D01*
X10593Y356D01*
X10527Y290D01*
D02*
G37*
G36*
X7942Y5778D02*
X7940Y5778D01*
X7938Y5777D01*
X7936Y5777D01*
X7935Y5777D01*
X7934Y5776D01*
X7933Y5776D01*
X7933Y5776D01*
X7931Y5775D01*
X7930Y5774D01*
X7928Y5773D01*
X7927Y5772D01*
X7926Y5771D01*
X7925Y5771D01*
X7925Y5770D01*
X7925Y5770D01*
X7924Y5769D01*
X7923Y5767D01*
X7922Y5765D01*
X7921Y5764D01*
X7920Y5763D01*
X7920Y5762D01*
X7920Y5761D01*
X7920Y5761D01*
X7919Y5759D01*
X7919Y5756D01*
X7919Y5754D01*
X7918Y5752D01*
X7918Y5751D01*
X7918Y5749D01*
Y5748D01*
Y5748D01*
Y5748D01*
X7918Y5746D01*
X7918Y5743D01*
X7919Y5741D01*
X7919Y5739D01*
X7919Y5737D01*
X7920Y5736D01*
X7920Y5736D01*
Y5735D01*
X7920Y5733D01*
X7921Y5732D01*
X7922Y5730D01*
X7923Y5729D01*
X7924Y5728D01*
X7924Y5727D01*
X7925Y5726D01*
X7925Y5726D01*
X7926Y5725D01*
X7928Y5724D01*
X7929Y5723D01*
X7930Y5722D01*
X7932Y5722D01*
X7933Y5721D01*
X7933Y5721D01*
X7933Y5721D01*
X7935Y5720D01*
X7937Y5720D01*
X7939Y5719D01*
X7941Y5719D01*
X7943Y5719D01*
X7944Y5719D01*
X7945D01*
X7948Y5719D01*
X7949D01*
X7950Y5719D01*
X7951Y5719D01*
X7952D01*
X7952Y5719D01*
X7952D01*
X7955Y5720D01*
X7956Y5720D01*
X7957Y5720D01*
X7957Y5720D01*
X7958Y5721D01*
X7958Y5721D01*
X7958D01*
X7960Y5721D01*
X7961Y5722D01*
X7962Y5722D01*
X7962Y5722D01*
X7962Y5722D01*
X7963D01*
X7964Y5723D01*
X7964Y5723D01*
X7964Y5723D01*
X7965Y5724D01*
X7965Y5724D01*
X7965Y5724D01*
X7965Y5725D01*
X7965Y5725D01*
Y5726D01*
Y5726D01*
X7966Y5727D01*
Y5727D01*
Y5727D01*
Y5728D01*
Y5728D01*
X7965Y5729D01*
Y5729D01*
X7965Y5730D01*
X7965Y5730D01*
Y5730D01*
X7965Y5731D01*
X7965Y5731D01*
X7965D01*
X7964Y5731D01*
X7964D01*
X7963Y5731D01*
X7963Y5731D01*
X7962Y5730D01*
X7962Y5730D01*
X7962D01*
X7961Y5730D01*
X7959Y5729D01*
X7959Y5729D01*
X7958Y5729D01*
X7958D01*
X7956Y5728D01*
X7955Y5728D01*
X7954Y5728D01*
X7953Y5728D01*
X7953Y5727D01*
X7953D01*
X7951Y5727D01*
X7948Y5727D01*
X7947Y5727D01*
X7944D01*
X7943Y5727D01*
X7941Y5727D01*
X7940Y5728D01*
X7939Y5728D01*
X7938Y5728D01*
X7938Y5728D01*
X7938D01*
X7935Y5729D01*
X7935Y5730D01*
X7934Y5731D01*
X7933Y5731D01*
X7933Y5732D01*
X7932Y5732D01*
X7932Y5732D01*
X7931Y5734D01*
X7930Y5736D01*
X7930Y5737D01*
X7929Y5738D01*
X7929Y5738D01*
Y5738D01*
X7929Y5741D01*
X7929Y5742D01*
Y5744D01*
X7928Y5745D01*
Y5746D01*
Y5746D01*
Y5747D01*
X7964D01*
X7965Y5747D01*
X7966Y5747D01*
X7966Y5747D01*
X7967Y5747D01*
X7967Y5748D01*
X7968Y5750D01*
X7968Y5750D01*
Y5751D01*
Y5751D01*
Y5753D01*
Y5755D01*
X7968Y5756D01*
X7967Y5758D01*
X7967Y5760D01*
X7967Y5761D01*
X7967Y5762D01*
X7966Y5762D01*
Y5762D01*
X7966Y5764D01*
X7965Y5766D01*
X7964Y5767D01*
X7964Y5768D01*
X7963Y5769D01*
X7963Y5770D01*
X7962Y5770D01*
X7962Y5771D01*
X7961Y5772D01*
X7960Y5773D01*
X7959Y5774D01*
X7957Y5775D01*
X7956Y5775D01*
X7956Y5776D01*
X7955Y5776D01*
X7955Y5776D01*
X7953Y5777D01*
X7951Y5777D01*
X7949Y5778D01*
X7948Y5778D01*
X7946Y5778D01*
X7945Y5778D01*
X7944D01*
X7942Y5778D01*
D02*
G37*
G36*
X8005D02*
X8004Y5778D01*
X8003Y5778D01*
X8003Y5778D01*
X8003D01*
X8002Y5777D01*
X8001Y5777D01*
X8000Y5776D01*
X8000Y5776D01*
X7999D01*
X7998Y5775D01*
X7997Y5774D01*
X7996Y5773D01*
X7996Y5773D01*
X7996Y5773D01*
X7994Y5771D01*
X7993Y5769D01*
X7993Y5769D01*
X7992Y5768D01*
X7992Y5768D01*
X7992Y5767D01*
Y5775D01*
X7992Y5776D01*
X7991Y5776D01*
X7991Y5776D01*
X7991Y5777D01*
X7991Y5777D01*
X7991D01*
X7990Y5777D01*
X7990Y5777D01*
X7989Y5777D01*
X7989D01*
X7989Y5777D01*
X7986D01*
X7985Y5777D01*
X7985D01*
X7984Y5777D01*
X7984Y5777D01*
X7984Y5777D01*
X7984D01*
X7983Y5777D01*
X7983Y5776D01*
X7983Y5776D01*
X7983Y5776D01*
Y5776D01*
Y5775D01*
Y5721D01*
X7983Y5721D01*
Y5721D01*
X7984Y5720D01*
X7984Y5720D01*
X7984D01*
X7985Y5720D01*
X7985Y5720D01*
X7985D01*
X7986Y5720D01*
X7989D01*
X7989Y5720D01*
X7990D01*
X7991Y5720D01*
X7991D01*
X7991Y5720D01*
X7992D01*
X7992Y5720D01*
X7992Y5721D01*
X7993Y5721D01*
Y5721D01*
Y5721D01*
Y5757D01*
X7994Y5759D01*
X7995Y5760D01*
X7995Y5761D01*
X7996Y5762D01*
X7996Y5762D01*
X7996Y5762D01*
X7996Y5762D01*
X7998Y5764D01*
X7999Y5765D01*
X7999Y5766D01*
X8000Y5766D01*
X8001Y5767D01*
X8002Y5768D01*
X8003Y5768D01*
X8003Y5768D01*
X8004Y5769D01*
X8005Y5769D01*
X8005Y5769D01*
X8007D01*
X8007Y5769D01*
X8008Y5769D01*
X8008D01*
X8009Y5768D01*
X8009Y5768D01*
X8010Y5768D01*
X8010D01*
X8011Y5768D01*
X8011Y5768D01*
X8011Y5767D01*
X8012D01*
X8012Y5767D01*
X8013D01*
X8013Y5767D01*
X8013Y5767D01*
X8014Y5768D01*
X8014Y5768D01*
Y5768D01*
X8014Y5769D01*
Y5770D01*
Y5770D01*
X8014Y5770D01*
Y5771D01*
Y5772D01*
Y5772D01*
Y5773D01*
Y5773D01*
X8014Y5774D01*
Y5774D01*
Y5775D01*
Y5775D01*
X8014Y5775D01*
Y5775D01*
Y5776D01*
X8014Y5776D01*
X8014Y5776D01*
X8013Y5776D01*
X8013D01*
X8013Y5777D01*
X8013Y5777D01*
X8012Y5777D01*
X8012D01*
X8011Y5777D01*
X8011Y5777D01*
X8010Y5778D01*
X8010D01*
X8009Y5778D01*
X8009Y5778D01*
X8008Y5778D01*
X8008D01*
X8008Y5778D01*
X8006D01*
X8005Y5778D01*
D02*
G37*
G36*
X7707D02*
X7706Y5778D01*
X7705Y5778D01*
X7705Y5778D01*
X7705D01*
X7704Y5777D01*
X7703Y5777D01*
X7702Y5776D01*
X7702Y5776D01*
X7702D01*
X7700Y5775D01*
X7699Y5774D01*
X7698Y5773D01*
X7698Y5773D01*
X7698Y5773D01*
X7696Y5771D01*
X7695Y5769D01*
X7695Y5769D01*
X7694Y5768D01*
X7694Y5768D01*
X7694Y5767D01*
Y5775D01*
X7694Y5776D01*
X7694Y5776D01*
X7693Y5776D01*
X7693Y5777D01*
X7693Y5777D01*
X7693D01*
X7692Y5777D01*
X7692Y5777D01*
X7692Y5777D01*
X7691D01*
X7691Y5777D01*
X7688D01*
X7687Y5777D01*
X7687D01*
X7687Y5777D01*
X7686Y5777D01*
X7686Y5777D01*
X7686D01*
X7686Y5777D01*
X7685Y5776D01*
X7685Y5776D01*
X7685Y5776D01*
Y5776D01*
Y5775D01*
Y5721D01*
X7685Y5721D01*
Y5721D01*
X7686Y5720D01*
X7686Y5720D01*
X7686D01*
X7687Y5720D01*
X7687Y5720D01*
X7687D01*
X7688Y5720D01*
X7691D01*
X7692Y5720D01*
X7692D01*
X7693Y5720D01*
X7693D01*
X7694Y5720D01*
X7694D01*
X7694Y5720D01*
X7695Y5721D01*
X7695Y5721D01*
Y5721D01*
Y5721D01*
Y5757D01*
X7696Y5759D01*
X7697Y5760D01*
X7697Y5761D01*
X7698Y5762D01*
X7698Y5762D01*
X7698Y5762D01*
X7699Y5762D01*
X7700Y5764D01*
X7701Y5765D01*
X7702Y5766D01*
X7702Y5766D01*
X7703Y5767D01*
X7704Y5768D01*
X7705Y5768D01*
X7705Y5768D01*
X7706Y5769D01*
X7707Y5769D01*
X7708Y5769D01*
X7709D01*
X7710Y5769D01*
X7710Y5769D01*
X7710D01*
X7711Y5768D01*
X7712Y5768D01*
X7712Y5768D01*
X7712D01*
X7713Y5768D01*
X7713Y5768D01*
X7714Y5767D01*
X7714D01*
X7715Y5767D01*
X7715D01*
X7715Y5767D01*
X7716Y5767D01*
X7716Y5768D01*
X7716Y5768D01*
Y5768D01*
X7716Y5769D01*
Y5770D01*
Y5770D01*
X7716Y5770D01*
Y5771D01*
Y5772D01*
Y5772D01*
Y5773D01*
Y5773D01*
X7716Y5774D01*
Y5774D01*
Y5775D01*
Y5775D01*
X7716Y5775D01*
Y5775D01*
Y5776D01*
X7716Y5776D01*
X7716Y5776D01*
X7716Y5776D01*
X7715D01*
X7715Y5777D01*
X7715Y5777D01*
X7714Y5777D01*
X7714D01*
X7714Y5777D01*
X7713Y5777D01*
X7712Y5778D01*
X7712D01*
X7712Y5778D01*
X7711Y5778D01*
X7710Y5778D01*
X7710D01*
X7710Y5778D01*
X7709D01*
X7707Y5778D01*
D02*
G37*
G36*
X7760Y5798D02*
X7759Y5798D01*
X7759D01*
X7759Y5798D01*
X7758Y5797D01*
X7758Y5797D01*
X7758D01*
X7757Y5797D01*
X7757Y5797D01*
Y5797D01*
X7757Y5796D01*
Y5796D01*
Y5796D01*
Y5724D01*
X7757Y5723D01*
X7757Y5722D01*
X7758Y5721D01*
X7758Y5721D01*
X7759Y5720D01*
X7760Y5720D01*
X7760Y5720D01*
X7795D01*
X7795Y5720D01*
X7796D01*
X7796Y5721D01*
X7796Y5721D01*
Y5721D01*
X7797Y5722D01*
X7797Y5722D01*
Y5722D01*
X7797Y5723D01*
Y5724D01*
Y5724D01*
Y5724D01*
Y5725D01*
Y5726D01*
X7797Y5726D01*
Y5726D01*
X7797Y5727D01*
X7797Y5727D01*
X7796Y5728D01*
Y5728D01*
X7796Y5728D01*
X7796Y5729D01*
X7796D01*
X7795Y5729D01*
X7767D01*
Y5796D01*
X7767Y5797D01*
X7767Y5797D01*
X7766Y5797D01*
X7766Y5797D01*
X7766Y5797D01*
X7766D01*
X7765Y5797D01*
X7765Y5798D01*
X7764Y5798D01*
X7764D01*
X7763Y5798D01*
X7763Y5798D01*
X7761D01*
X7760Y5798D01*
D02*
G37*
G36*
X7521Y5778D02*
X7519Y5778D01*
X7518Y5778D01*
X7518Y5778D01*
X7518Y5777D01*
X7517D01*
X7516Y5777D01*
X7514Y5776D01*
X7514Y5776D01*
X7513Y5776D01*
X7513Y5776D01*
X7513D01*
X7511Y5775D01*
X7510Y5774D01*
X7509Y5773D01*
X7509Y5773D01*
X7508Y5773D01*
X7508Y5772D01*
X7506Y5771D01*
X7505Y5770D01*
X7504Y5769D01*
X7504Y5769D01*
X7504Y5768D01*
X7503Y5768D01*
Y5775D01*
X7503Y5776D01*
X7503Y5776D01*
X7503Y5776D01*
X7503Y5777D01*
X7503Y5777D01*
X7502D01*
X7502Y5777D01*
X7501Y5777D01*
X7501D01*
X7500Y5777D01*
X7498D01*
X7497Y5777D01*
X7497D01*
X7496Y5777D01*
X7496Y5777D01*
X7496Y5777D01*
X7496D01*
X7495Y5777D01*
X7495Y5776D01*
X7495Y5776D01*
Y5776D01*
X7495Y5776D01*
Y5776D01*
Y5775D01*
Y5700D01*
X7495Y5700D01*
Y5699D01*
X7495Y5699D01*
X7496Y5699D01*
X7496D01*
X7497Y5698D01*
X7497Y5698D01*
X7497D01*
X7498Y5698D01*
X7501D01*
X7501Y5698D01*
X7502D01*
X7503Y5698D01*
X7503Y5699D01*
X7503Y5699D01*
X7504D01*
X7504Y5699D01*
X7504Y5699D01*
X7505Y5700D01*
Y5700D01*
Y5727D01*
X7506Y5726D01*
X7507Y5724D01*
X7508Y5724D01*
X7508Y5724D01*
X7509Y5723D01*
X7509Y5723D01*
X7510Y5722D01*
X7511Y5722D01*
X7512Y5721D01*
X7512Y5721D01*
X7513D01*
X7514Y5720D01*
X7515Y5720D01*
X7516Y5720D01*
X7516Y5719D01*
X7516D01*
X7518Y5719D01*
X7520Y5719D01*
X7520Y5719D01*
X7521D01*
X7523Y5719D01*
X7525Y5719D01*
X7527Y5720D01*
X7528Y5720D01*
X7529Y5720D01*
X7530Y5721D01*
X7531Y5721D01*
X7531Y5721D01*
X7533Y5722D01*
X7534Y5723D01*
X7535Y5724D01*
X7536Y5725D01*
X7537Y5726D01*
X7538Y5726D01*
X7538Y5727D01*
X7538Y5727D01*
X7539Y5728D01*
X7540Y5730D01*
X7541Y5732D01*
X7542Y5733D01*
X7542Y5735D01*
X7543Y5736D01*
X7543Y5736D01*
Y5737D01*
X7543Y5739D01*
X7544Y5741D01*
X7544Y5743D01*
X7544Y5745D01*
Y5747D01*
X7544Y5748D01*
Y5749D01*
Y5749D01*
Y5749D01*
Y5749D01*
Y5752D01*
X7544Y5753D01*
X7544Y5755D01*
X7544Y5757D01*
X7544Y5758D01*
X7543Y5759D01*
X7543Y5760D01*
Y5760D01*
X7543Y5762D01*
X7542Y5764D01*
X7541Y5766D01*
X7541Y5767D01*
X7540Y5768D01*
X7540Y5769D01*
X7539Y5769D01*
X7539Y5770D01*
X7538Y5771D01*
X7537Y5772D01*
X7536Y5773D01*
X7535Y5774D01*
X7534Y5775D01*
X7533Y5775D01*
X7533Y5776D01*
X7533Y5776D01*
X7531Y5777D01*
X7529Y5777D01*
X7528Y5778D01*
X7526Y5778D01*
X7525Y5778D01*
X7524Y5778D01*
X7523D01*
X7521Y5778D01*
D02*
G37*
G36*
X7451D02*
X7449Y5778D01*
X7447Y5777D01*
X7445Y5777D01*
X7444Y5777D01*
X7443Y5776D01*
X7442Y5776D01*
X7442Y5776D01*
X7440Y5775D01*
X7438Y5774D01*
X7437Y5773D01*
X7435Y5772D01*
X7434Y5771D01*
X7434Y5770D01*
X7433Y5770D01*
X7433Y5770D01*
X7432Y5768D01*
X7431Y5766D01*
X7430Y5765D01*
X7429Y5763D01*
X7429Y5762D01*
X7428Y5761D01*
X7428Y5760D01*
X7428Y5760D01*
X7427Y5758D01*
X7427Y5756D01*
X7427Y5754D01*
X7427Y5752D01*
X7426Y5750D01*
X7426Y5749D01*
Y5748D01*
Y5748D01*
Y5748D01*
X7426Y5745D01*
X7427Y5743D01*
X7427Y5741D01*
X7427Y5739D01*
X7427Y5738D01*
X7427Y5737D01*
X7428Y5736D01*
Y5736D01*
X7428Y5734D01*
X7429Y5732D01*
X7430Y5730D01*
X7431Y5729D01*
X7432Y5728D01*
X7432Y5727D01*
X7432Y5727D01*
X7433Y5727D01*
X7434Y5725D01*
X7435Y5724D01*
X7437Y5723D01*
X7438Y5722D01*
X7439Y5722D01*
X7440Y5721D01*
X7441Y5721D01*
X7441Y5721D01*
X7443Y5720D01*
X7445Y5720D01*
X7447Y5719D01*
X7449Y5719D01*
X7450Y5719D01*
X7451Y5719D01*
X7453D01*
X7455Y5719D01*
X7457Y5719D01*
X7459Y5720D01*
X7461Y5720D01*
X7463Y5720D01*
X7464Y5721D01*
X7464Y5721D01*
X7465Y5721D01*
X7466Y5722D01*
X7468Y5723D01*
X7470Y5724D01*
X7471Y5725D01*
X7472Y5726D01*
X7473Y5727D01*
X7473Y5727D01*
X7473Y5727D01*
X7474Y5729D01*
X7476Y5731D01*
X7476Y5732D01*
X7477Y5734D01*
X7478Y5735D01*
X7478Y5736D01*
X7478Y5737D01*
X7478Y5737D01*
X7479Y5739D01*
X7480Y5741D01*
X7480Y5743D01*
X7480Y5745D01*
X7480Y5747D01*
X7480Y5748D01*
Y5749D01*
Y5749D01*
Y5749D01*
Y5752D01*
X7480Y5754D01*
X7480Y5756D01*
X7479Y5758D01*
X7479Y5759D01*
X7479Y5760D01*
X7479Y5761D01*
X7479Y5761D01*
X7478Y5763D01*
X7477Y5765D01*
X7476Y5766D01*
X7476Y5768D01*
X7475Y5769D01*
X7474Y5770D01*
X7474Y5770D01*
X7474Y5770D01*
X7472Y5772D01*
X7471Y5773D01*
X7470Y5774D01*
X7468Y5775D01*
X7467Y5775D01*
X7466Y5776D01*
X7466Y5776D01*
X7465Y5776D01*
X7463Y5777D01*
X7461Y5777D01*
X7459Y5778D01*
X7458Y5778D01*
X7456Y5778D01*
X7455Y5778D01*
X7454D01*
X7451Y5778D01*
D02*
G37*
G36*
X7195D02*
X7193Y5778D01*
X7191Y5777D01*
X7189Y5777D01*
X7187Y5777D01*
X7186Y5776D01*
X7186Y5776D01*
X7185Y5776D01*
X7184Y5775D01*
X7182Y5774D01*
X7180Y5773D01*
X7179Y5772D01*
X7178Y5771D01*
X7177Y5770D01*
X7177Y5770D01*
X7177Y5770D01*
X7176Y5768D01*
X7175Y5766D01*
X7174Y5765D01*
X7173Y5763D01*
X7172Y5762D01*
X7172Y5761D01*
X7172Y5760D01*
X7172Y5760D01*
X7171Y5758D01*
X7171Y5756D01*
X7170Y5754D01*
X7170Y5752D01*
X7170Y5750D01*
X7170Y5749D01*
Y5748D01*
Y5748D01*
Y5748D01*
X7170Y5745D01*
X7170Y5743D01*
X7171Y5741D01*
X7171Y5739D01*
X7171Y5738D01*
X7171Y5737D01*
X7172Y5736D01*
Y5736D01*
X7172Y5734D01*
X7173Y5732D01*
X7174Y5730D01*
X7175Y5729D01*
X7175Y5728D01*
X7176Y5727D01*
X7176Y5727D01*
X7176Y5727D01*
X7178Y5725D01*
X7179Y5724D01*
X7181Y5723D01*
X7182Y5722D01*
X7183Y5722D01*
X7184Y5721D01*
X7184Y5721D01*
X7185Y5721D01*
X7187Y5720D01*
X7189Y5720D01*
X7191Y5719D01*
X7192Y5719D01*
X7194Y5719D01*
X7195Y5719D01*
X7196D01*
X7199Y5719D01*
X7201Y5719D01*
X7203Y5720D01*
X7205Y5720D01*
X7206Y5720D01*
X7207Y5721D01*
X7208Y5721D01*
X7208Y5721D01*
X7210Y5722D01*
X7212Y5723D01*
X7213Y5724D01*
X7215Y5725D01*
X7216Y5726D01*
X7216Y5727D01*
X7217Y5727D01*
X7217Y5727D01*
X7218Y5729D01*
X7219Y5731D01*
X7220Y5732D01*
X7221Y5734D01*
X7221Y5735D01*
X7222Y5736D01*
X7222Y5737D01*
X7222Y5737D01*
X7223Y5739D01*
X7223Y5741D01*
X7224Y5743D01*
X7224Y5745D01*
X7224Y5747D01*
X7224Y5748D01*
Y5749D01*
Y5749D01*
Y5749D01*
Y5752D01*
X7224Y5754D01*
X7223Y5756D01*
X7223Y5758D01*
X7223Y5759D01*
X7223Y5760D01*
X7222Y5761D01*
X7222Y5761D01*
X7222Y5763D01*
X7221Y5765D01*
X7220Y5766D01*
X7219Y5768D01*
X7218Y5769D01*
X7218Y5770D01*
X7217Y5770D01*
X7217Y5770D01*
X7216Y5772D01*
X7215Y5773D01*
X7213Y5774D01*
X7212Y5775D01*
X7211Y5775D01*
X7210Y5776D01*
X7209Y5776D01*
X7209Y5776D01*
X7207Y5777D01*
X7205Y5777D01*
X7203Y5778D01*
X7201Y5778D01*
X7200Y5778D01*
X7199Y5778D01*
X7197D01*
X7195Y5778D01*
D02*
G37*
G36*
X7048D02*
X7046Y5778D01*
X7044Y5777D01*
X7042Y5777D01*
X7040Y5777D01*
X7039Y5776D01*
X7039Y5776D01*
X7038Y5776D01*
X7037Y5775D01*
X7035Y5774D01*
X7033Y5773D01*
X7032Y5772D01*
X7031Y5771D01*
X7031Y5770D01*
X7030Y5770D01*
X7030Y5770D01*
X7029Y5768D01*
X7028Y5766D01*
X7027Y5765D01*
X7026Y5763D01*
X7025Y5762D01*
X7025Y5761D01*
X7025Y5760D01*
X7025Y5760D01*
X7024Y5758D01*
X7024Y5756D01*
X7023Y5754D01*
X7023Y5752D01*
X7023Y5750D01*
X7023Y5749D01*
Y5748D01*
Y5748D01*
Y5748D01*
X7023Y5745D01*
X7023Y5743D01*
X7024Y5741D01*
X7024Y5739D01*
X7024Y5738D01*
X7024Y5737D01*
X7025Y5736D01*
Y5736D01*
X7025Y5734D01*
X7026Y5732D01*
X7027Y5730D01*
X7028Y5729D01*
X7028Y5728D01*
X7029Y5727D01*
X7029Y5727D01*
X7029Y5727D01*
X7031Y5725D01*
X7032Y5724D01*
X7034Y5723D01*
X7035Y5722D01*
X7036Y5722D01*
X7037Y5721D01*
X7037Y5721D01*
X7038Y5721D01*
X7040Y5720D01*
X7042Y5720D01*
X7044Y5719D01*
X7045Y5719D01*
X7047Y5719D01*
X7048Y5719D01*
X7049D01*
X7052Y5719D01*
X7054Y5719D01*
X7056Y5720D01*
X7058Y5720D01*
X7059Y5720D01*
X7060Y5721D01*
X7061Y5721D01*
X7061Y5721D01*
X7063Y5722D01*
X7065Y5723D01*
X7066Y5724D01*
X7068Y5725D01*
X7069Y5726D01*
X7069Y5727D01*
X7070Y5727D01*
X7070Y5727D01*
X7071Y5729D01*
X7072Y5731D01*
X7073Y5732D01*
X7074Y5734D01*
X7075Y5735D01*
X7075Y5736D01*
X7075Y5737D01*
X7075Y5737D01*
X7076Y5739D01*
X7076Y5741D01*
X7077Y5743D01*
X7077Y5745D01*
X7077Y5747D01*
X7077Y5748D01*
Y5749D01*
Y5749D01*
Y5749D01*
Y5752D01*
X7077Y5754D01*
X7076Y5756D01*
X7076Y5758D01*
X7076Y5759D01*
X7076Y5760D01*
X7075Y5761D01*
X7075Y5761D01*
X7075Y5763D01*
X7074Y5765D01*
X7073Y5766D01*
X7072Y5768D01*
X7071Y5769D01*
X7071Y5770D01*
X7070Y5770D01*
X7070Y5770D01*
X7069Y5772D01*
X7068Y5773D01*
X7066Y5774D01*
X7065Y5775D01*
X7064Y5775D01*
X7063Y5776D01*
X7062Y5776D01*
X7062Y5776D01*
X7060Y5777D01*
X7058Y5777D01*
X7056Y5778D01*
X7054Y5778D01*
X7053Y5778D01*
X7052Y5778D01*
X7050D01*
X7048Y5778D01*
D02*
G37*
G36*
X7585D02*
X7583Y5778D01*
X7583Y5778D01*
X7582Y5778D01*
X7582Y5777D01*
X7582D01*
X7580Y5777D01*
X7579Y5776D01*
X7578Y5776D01*
X7578Y5776D01*
X7577Y5776D01*
X7577D01*
X7576Y5775D01*
X7574Y5774D01*
X7573Y5773D01*
X7573Y5773D01*
X7573Y5773D01*
X7573Y5772D01*
X7571Y5771D01*
X7569Y5770D01*
X7569Y5769D01*
X7568Y5769D01*
X7568Y5768D01*
X7568Y5768D01*
Y5775D01*
X7568Y5776D01*
X7568Y5776D01*
X7568Y5776D01*
X7567Y5777D01*
X7567Y5777D01*
X7567D01*
X7566Y5777D01*
X7566Y5777D01*
X7566D01*
X7565Y5777D01*
X7562D01*
X7562Y5777D01*
X7562D01*
X7561Y5777D01*
X7561Y5777D01*
X7560Y5777D01*
X7560D01*
X7560Y5777D01*
X7560Y5776D01*
X7559Y5776D01*
Y5776D01*
X7559Y5776D01*
Y5776D01*
Y5775D01*
Y5700D01*
X7559Y5700D01*
Y5699D01*
X7560Y5699D01*
X7560Y5699D01*
X7560D01*
X7561Y5698D01*
X7562Y5698D01*
X7562D01*
X7563Y5698D01*
X7565D01*
X7566Y5698D01*
X7567D01*
X7567Y5698D01*
X7568Y5699D01*
X7568Y5699D01*
X7568D01*
X7569Y5699D01*
X7569Y5699D01*
X7569Y5700D01*
Y5700D01*
Y5727D01*
X7571Y5726D01*
X7572Y5724D01*
X7573Y5724D01*
X7573Y5724D01*
X7573Y5723D01*
X7573Y5723D01*
X7575Y5722D01*
X7576Y5722D01*
X7577Y5721D01*
X7577Y5721D01*
X7577D01*
X7578Y5720D01*
X7580Y5720D01*
X7581Y5720D01*
X7581Y5719D01*
X7581D01*
X7583Y5719D01*
X7584Y5719D01*
X7585Y5719D01*
X7586D01*
X7588Y5719D01*
X7589Y5719D01*
X7591Y5720D01*
X7593Y5720D01*
X7594Y5720D01*
X7595Y5721D01*
X7595Y5721D01*
X7596Y5721D01*
X7597Y5722D01*
X7599Y5723D01*
X7600Y5724D01*
X7601Y5725D01*
X7602Y5726D01*
X7602Y5726D01*
X7603Y5727D01*
X7603Y5727D01*
X7604Y5728D01*
X7605Y5730D01*
X7606Y5732D01*
X7606Y5733D01*
X7607Y5735D01*
X7607Y5736D01*
X7607Y5736D01*
Y5737D01*
X7608Y5739D01*
X7608Y5741D01*
X7609Y5743D01*
X7609Y5745D01*
Y5747D01*
X7609Y5748D01*
Y5749D01*
Y5749D01*
Y5749D01*
Y5749D01*
Y5752D01*
X7609Y5753D01*
X7609Y5755D01*
X7608Y5757D01*
X7608Y5758D01*
X7608Y5759D01*
X7608Y5760D01*
Y5760D01*
X7607Y5762D01*
X7607Y5764D01*
X7606Y5766D01*
X7605Y5767D01*
X7605Y5768D01*
X7604Y5769D01*
X7604Y5769D01*
X7604Y5770D01*
X7603Y5771D01*
X7602Y5772D01*
X7601Y5773D01*
X7600Y5774D01*
X7599Y5775D01*
X7598Y5775D01*
X7597Y5776D01*
X7597Y5776D01*
X7596Y5777D01*
X7594Y5777D01*
X7592Y5778D01*
X7591Y5778D01*
X7589Y5778D01*
X7588Y5778D01*
X7587D01*
X7585Y5778D01*
D02*
G37*
G36*
X9388Y4433D02*
X9358D01*
Y4450D01*
X9314D01*
X9312Y4445D01*
X9318Y4442D01*
X9320Y4438D01*
X9321D01*
X9326Y4437D01*
X9330Y4434D01*
X9346Y4418D01*
X9349Y4414D01*
X9350Y4409D01*
Y3700D01*
X9349Y3695D01*
X9346Y3691D01*
X9331Y3676D01*
X9327Y3673D01*
X9322Y3672D01*
X9313D01*
Y3655D01*
X9255D01*
X9254Y3654D01*
X9250Y3651D01*
X9246Y3651D01*
X9242Y3651D01*
X9239Y3654D01*
X9238Y3655D01*
X9179D01*
Y3715D01*
X9195D01*
Y3734D01*
X9179D01*
Y3794D01*
X9195D01*
Y3817D01*
X9197Y3822D01*
X9198Y3824D01*
X9200Y3827D01*
X9200Y3827D01*
X9205Y3832D01*
Y3848D01*
X9194D01*
Y3915D01*
X9244D01*
Y3848D01*
X9233D01*
Y3826D01*
X9233Y3826D01*
X9232Y3821D01*
X9229Y3816D01*
X9224Y3811D01*
Y3794D01*
X9238D01*
X9239Y3795D01*
X9242Y3798D01*
X9245Y3798D01*
Y3801D01*
X9273D01*
Y3764D01*
X9293D01*
Y3801D01*
X9320D01*
Y3801D01*
X9320D01*
X9324Y3804D01*
Y3841D01*
X9304D01*
Y3882D01*
Y3922D01*
X9324D01*
Y4404D01*
X9319Y4409D01*
X9318Y4408D01*
X9310Y4403D01*
X9301Y4402D01*
X9292Y4403D01*
X9285Y4408D01*
X9279Y4416D01*
X9278Y4425D01*
X9279Y4434D01*
X9285Y4442D01*
X9290Y4445D01*
X9289Y4450D01*
X9193D01*
X9193Y4442D01*
X9187Y4425D01*
X9184Y4418D01*
Y4350D01*
X8996D01*
Y4457D01*
X8993Y4460D01*
X8974D01*
X8974Y4459D01*
X8688Y4174D01*
X8689Y4163D01*
Y3890D01*
X8688Y3879D01*
X8685Y3868D01*
X8680Y3858D01*
X8672Y3849D01*
X8663Y3842D01*
X8653Y3836D01*
X8642Y3833D01*
X8631Y3832D01*
X8626Y3832D01*
X8622Y3829D01*
Y2714D01*
X8626Y2711D01*
X8631Y2711D01*
X8642Y2710D01*
X8653Y2707D01*
X8663Y2701D01*
X8672Y2694D01*
X8680Y2685D01*
X8685Y2675D01*
X8688Y2664D01*
X8689Y2653D01*
Y2380D01*
X8688Y2369D01*
X8685Y2358D01*
X8680Y2348D01*
X8672Y2339D01*
X8663Y2332D01*
X8653Y2326D01*
X8642Y2323D01*
X8631Y2322D01*
X8626Y2322D01*
X8622Y2319D01*
Y2038D01*
Y2037D01*
X8622D01*
X8623Y2035D01*
X8625Y2034D01*
Y2034D01*
X10028D01*
Y2034D01*
X10036Y2033D01*
X10043Y2030D01*
X10050D01*
Y2025D01*
X10051Y2024D01*
X10056Y2018D01*
X10059Y2010D01*
X10060Y2002D01*
X10060D01*
Y557D01*
X10061Y557D01*
X10072Y554D01*
X10082Y548D01*
X10091Y541D01*
X10098Y532D01*
X10104Y522D01*
X10107Y511D01*
X10108Y500D01*
Y320D01*
X10107Y309D01*
X10107Y308D01*
X10111Y305D01*
X10128Y322D01*
Y875D01*
X10069Y933D01*
X10066Y937D01*
X10065Y942D01*
Y2040D01*
X9987Y2118D01*
X9984Y2123D01*
X9983Y2128D01*
Y2401D01*
X9862Y2522D01*
X9859Y2526D01*
X9858Y2531D01*
Y2797D01*
X9854Y2798D01*
X9850Y2792D01*
X9842Y2787D01*
X9833Y2786D01*
X9824Y2787D01*
X9817Y2792D01*
X9811Y2800D01*
X9810Y2809D01*
X9810Y2813D01*
X9807Y2817D01*
X9715D01*
X9713Y2813D01*
X9705Y2808D01*
X9696Y2807D01*
X9687Y2808D01*
X9680Y2813D01*
X9674Y2821D01*
X9673Y2830D01*
X9674Y2839D01*
X9680Y2847D01*
X9687Y2852D01*
X9696Y2853D01*
X9705Y2852D01*
X9713Y2847D01*
X9715Y2843D01*
X9807D01*
X9808Y2848D01*
X9804Y2851D01*
X9799Y2858D01*
X9797Y2867D01*
X9799Y2875D01*
X9804Y2883D01*
X9811Y2888D01*
X9820Y2889D01*
X9828Y2888D01*
X9836Y2883D01*
X9840Y2875D01*
X9842Y2867D01*
X9842Y2864D01*
X9881Y2824D01*
X9884Y2820D01*
X9885Y2815D01*
Y2647D01*
X9890Y2646D01*
X9890Y2649D01*
X9895Y2656D01*
X9903Y2661D01*
X9911Y2662D01*
X9920Y2661D01*
X9927Y2656D01*
X9932Y2649D01*
X9934Y2640D01*
X9932Y2631D01*
X9927Y2624D01*
X9925Y2623D01*
Y2556D01*
X9937Y2544D01*
X10017D01*
X10018Y2546D01*
X10025Y2551D01*
X10034Y2552D01*
X10042Y2551D01*
X10049Y2546D01*
X10054Y2539D01*
X10056Y2530D01*
X10054Y2521D01*
X10049Y2514D01*
X10042Y2509D01*
X10034Y2508D01*
X10025Y2509D01*
X10018Y2514D01*
X10017Y2516D01*
X9931D01*
X9931Y2516D01*
X9926Y2517D01*
X9921Y2520D01*
X9901Y2540D01*
X9901Y2540D01*
X9898Y2545D01*
X9897Y2550D01*
X9897Y2550D01*
Y2623D01*
X9895Y2624D01*
X9890Y2631D01*
X9890Y2634D01*
X9885Y2633D01*
Y2536D01*
X10005Y2416D01*
X10008Y2412D01*
X10009Y2406D01*
Y2133D01*
X10088Y2054D01*
X10091Y2050D01*
X10092Y2045D01*
Y948D01*
X10150Y889D01*
X10153Y885D01*
X10154Y880D01*
Y317D01*
X10153Y312D01*
X10150Y307D01*
X10123Y280D01*
X10125Y275D01*
X10189D01*
Y301D01*
X10190Y308D01*
X10191Y310D01*
X10194Y314D01*
X10243Y363D01*
Y943D01*
X10245Y950D01*
X10246Y952D01*
X10249Y956D01*
X10373Y1080D01*
Y1361D01*
X10362Y1365D01*
X10351Y1374D01*
X10343Y1385D01*
X10337Y1398D01*
X10336Y1412D01*
X10337Y1426D01*
X10343Y1438D01*
X10351Y1450D01*
X10362Y1458D01*
X10371Y1462D01*
Y1532D01*
X10361D01*
X10360Y1530D01*
X10357Y1528D01*
X10354Y1528D01*
Y1525D01*
X10326D01*
Y1562D01*
Y1598D01*
X10354D01*
Y1596D01*
X10357Y1595D01*
X10360Y1593D01*
X10361Y1591D01*
X10371D01*
Y1629D01*
X10367D01*
Y1629D01*
X10350D01*
Y1652D01*
Y1675D01*
X10367D01*
Y1668D01*
X10367D01*
X10369D01*
X10370Y1668D01*
X10370Y1668D01*
Y1668D01*
X10380D01*
X10382Y1669D01*
X10389Y1670D01*
X10396Y1669D01*
X10398Y1668D01*
X10409D01*
Y1636D01*
X10407D01*
Y1591D01*
X10420D01*
Y1532D01*
X10407D01*
Y1462D01*
X10416Y1458D01*
X10427Y1450D01*
X10435Y1438D01*
X10441Y1426D01*
X10442Y1412D01*
X10441Y1398D01*
X10435Y1385D01*
X10427Y1374D01*
X10416Y1365D01*
X10409Y1363D01*
Y1072D01*
X10408Y1066D01*
X10408Y1065D01*
X10404Y1059D01*
X10280Y935D01*
Y356D01*
X10279Y350D01*
X10279Y349D01*
X10275Y343D01*
X10225Y294D01*
Y275D01*
X10298D01*
Y492D01*
X10297Y494D01*
X10295Y500D01*
Y512D01*
X10295Y512D01*
X10289Y520D01*
X10288Y529D01*
X10289Y538D01*
X10295Y546D01*
X10302Y551D01*
X10311Y552D01*
X10320Y551D01*
X10328Y546D01*
X10333Y538D01*
X10335Y529D01*
X10333Y520D01*
X10328Y512D01*
X10327Y512D01*
Y505D01*
X10328Y504D01*
X10329Y498D01*
Y275D01*
X10338D01*
X10339Y275D01*
X10345Y280D01*
X10354Y284D01*
X10362Y285D01*
X10371Y284D01*
X10379Y280D01*
X10386Y275D01*
X10386Y275D01*
X10393D01*
Y350D01*
X10394Y358D01*
X10399Y365D01*
X10568Y534D01*
Y1363D01*
X10562Y1365D01*
X10551Y1374D01*
X10543Y1385D01*
X10537Y1398D01*
X10536Y1412D01*
X10537Y1426D01*
X10543Y1438D01*
X10551Y1450D01*
X10562Y1458D01*
X10575Y1463D01*
X10589Y1465D01*
X10603Y1463D01*
X10616Y1458D01*
X10627Y1450D01*
X10635Y1438D01*
X10641Y1426D01*
X10642Y1412D01*
X10641Y1398D01*
X10635Y1385D01*
X10627Y1374D01*
X10616Y1365D01*
X10610Y1363D01*
Y525D01*
X10610Y525D01*
X10608Y517D01*
X10604Y511D01*
X10434Y341D01*
Y275D01*
X10500D01*
Y295D01*
X10501Y300D01*
X10504Y304D01*
X10678Y478D01*
Y1550D01*
X10678Y1550D01*
Y2051D01*
X10607Y2122D01*
X10602Y2120D01*
Y2099D01*
X10606Y2097D01*
X10611Y2089D01*
X10612Y2080D01*
X10611Y2071D01*
X10606Y2063D01*
X10598Y2058D01*
X10589Y2057D01*
X10580Y2058D01*
X10572Y2063D01*
X10567Y2071D01*
X10566Y2080D01*
X10567Y2089D01*
X10572Y2097D01*
X10576Y2099D01*
Y2125D01*
X10568Y2132D01*
X10564Y2130D01*
X10565Y2126D01*
X10563Y2117D01*
X10558Y2109D01*
X10550Y2104D01*
X10541Y2103D01*
X10532Y2104D01*
X10525Y2109D01*
X10523Y2112D01*
X10495D01*
X10495Y2112D01*
X10490Y2113D01*
X10485Y2116D01*
X10465Y2136D01*
X10434D01*
X10433Y2131D01*
X10438Y2129D01*
X10445Y2124D01*
X10450Y2117D01*
X10453Y2109D01*
X10454Y2100D01*
X10453Y2091D01*
X10450Y2083D01*
X10445Y2076D01*
X10438Y2071D01*
X10430Y2068D01*
X10421Y2067D01*
X10412Y2068D01*
X10404Y2071D01*
X10398Y2076D01*
X10392Y2083D01*
X10389Y2091D01*
X10388Y2100D01*
X10389Y2109D01*
X10392Y2117D01*
X10398Y2124D01*
X10404Y2129D01*
X10409Y2131D01*
X10408Y2136D01*
X10277D01*
X10251Y2110D01*
X10251Y2110D01*
X10248Y2108D01*
X10247Y2107D01*
X10241Y2106D01*
X10090D01*
X10088Y2103D01*
X10081Y2098D01*
X10072Y2097D01*
X10063Y2098D01*
X10055Y2103D01*
X10050Y2111D01*
X10048Y2120D01*
X10050Y2129D01*
X10055Y2137D01*
X10063Y2142D01*
X10072Y2143D01*
X10081Y2142D01*
X10088Y2137D01*
X10090Y2134D01*
X10235D01*
X10261Y2160D01*
X10266Y2163D01*
X10271Y2164D01*
X10271Y2164D01*
X10471D01*
X10477Y2163D01*
X10478Y2162D01*
X10481Y2160D01*
X10481Y2160D01*
X10501Y2140D01*
X10523D01*
X10525Y2143D01*
X10532Y2148D01*
X10541Y2150D01*
X10545Y2149D01*
X10547Y2153D01*
X10528Y2172D01*
X10525Y2177D01*
X10524Y2182D01*
Y2728D01*
X10493Y2759D01*
X10489Y2756D01*
X10493Y2751D01*
X10495Y2742D01*
X10493Y2733D01*
X10488Y2725D01*
X10480Y2720D01*
X10471Y2718D01*
X10462Y2720D01*
X10455Y2725D01*
X10453Y2727D01*
X10428D01*
X10426Y2723D01*
X10487Y2661D01*
X10491Y2656D01*
X10492Y2650D01*
Y2398D01*
X10494Y2397D01*
X10499Y2389D01*
X10501Y2380D01*
X10499Y2371D01*
X10494Y2363D01*
X10486Y2358D01*
X10477Y2357D01*
X10468Y2358D01*
X10461Y2363D01*
X10455Y2371D01*
X10454Y2380D01*
X10455Y2389D01*
X10460Y2396D01*
Y2643D01*
X10401Y2703D01*
X10370D01*
X10368Y2699D01*
X10375Y2694D01*
X10380Y2687D01*
X10383Y2679D01*
X10384Y2670D01*
X10383Y2661D01*
X10380Y2653D01*
X10375Y2646D01*
X10368Y2641D01*
X10360Y2638D01*
X10351Y2637D01*
X10342Y2638D01*
X10334Y2641D01*
X10328Y2646D01*
X10322Y2653D01*
X10319Y2661D01*
X10318Y2670D01*
X10319Y2679D01*
X10322Y2687D01*
X10328Y2694D01*
X10334Y2699D01*
X10332Y2703D01*
X10158D01*
X10152Y2704D01*
X10147Y2708D01*
X10097Y2758D01*
X10093Y2763D01*
X10092Y2769D01*
Y3159D01*
X9944Y3307D01*
X9936Y3308D01*
X9929Y3313D01*
X9924Y3321D01*
X9923Y3323D01*
X9918Y3325D01*
X9868Y3275D01*
Y3201D01*
X9871Y3199D01*
X9876Y3191D01*
X9878Y3182D01*
X9876Y3173D01*
X9871Y3166D01*
X9863Y3161D01*
X9854Y3159D01*
X9845Y3161D01*
X9838Y3166D01*
X9833Y3173D01*
X9831Y3182D01*
X9833Y3191D01*
X9838Y3199D01*
X9842Y3201D01*
Y3280D01*
X9843Y3285D01*
X9846Y3290D01*
X9884Y3328D01*
X9882Y3333D01*
X9859D01*
X9852Y3334D01*
X9847Y3338D01*
X9843Y3344D01*
X9842Y3349D01*
X9836Y3354D01*
X9833Y3359D01*
X9832Y3363D01*
X9831D01*
Y3396D01*
X9821D01*
Y3406D01*
X9799D01*
Y3411D01*
X9794Y3413D01*
X9785Y3403D01*
Y3260D01*
X9785Y3260D01*
X9784Y3254D01*
X9780Y3250D01*
X9765Y3234D01*
X9765Y3234D01*
X9762Y3232D01*
X9760Y3231D01*
X9755Y3230D01*
X9741D01*
Y3213D01*
X9732D01*
Y3194D01*
X9737Y3193D01*
X9737Y3194D01*
X9742Y3202D01*
X9750Y3206D01*
X9758Y3208D01*
X9767Y3206D01*
X9774Y3202D01*
X9779Y3194D01*
X9781Y3186D01*
X9779Y3177D01*
X9774Y3170D01*
X9767Y3165D01*
X9758Y3163D01*
X9750Y3165D01*
X9742Y3170D01*
X9737Y3177D01*
X9737Y3178D01*
X9732Y3178D01*
Y3168D01*
X9869Y3032D01*
X9870Y3032D01*
X9878Y3027D01*
X9883Y3019D01*
X9885Y3010D01*
X9883Y3001D01*
X9878Y2993D01*
X9870Y2988D01*
X9861Y2987D01*
X9852Y2988D01*
X9845Y2993D01*
X9839Y3001D01*
X9839Y3002D01*
X9696Y3145D01*
X9692Y3152D01*
X9690Y3160D01*
X9690Y3160D01*
Y3213D01*
X9682D01*
Y3272D01*
X9680Y3273D01*
X9678Y3276D01*
X9677Y3281D01*
X9678Y3285D01*
X9680Y3288D01*
X9682Y3289D01*
Y3348D01*
X9698D01*
Y3406D01*
X9698Y3406D01*
X9694Y3409D01*
X9601Y3316D01*
X9596Y3313D01*
X9591Y3312D01*
X9305D01*
X9302Y3308D01*
X9295Y3303D01*
X9286Y3302D01*
X9277Y3303D01*
X9269Y3308D01*
X9264Y3316D01*
X9262Y3325D01*
X9264Y3334D01*
X9269Y3342D01*
X9277Y3347D01*
X9286Y3348D01*
X9295Y3347D01*
X9302Y3342D01*
X9305Y3338D01*
X9586D01*
X9728Y3480D01*
Y3602D01*
X9729Y3607D01*
X9732Y3611D01*
X9790Y3669D01*
X9794Y3672D01*
X9799Y3673D01*
X9972D01*
X9975Y3676D01*
X9982Y3682D01*
X9991Y3683D01*
X10000Y3682D01*
X10008Y3676D01*
X10013Y3669D01*
X10015Y3660D01*
X10013Y3651D01*
X10014Y3650D01*
X10017Y3648D01*
X10019Y3648D01*
X10101D01*
X10115Y3663D01*
X10114Y3668D01*
X10112Y3668D01*
X10104Y3671D01*
X10098Y3676D01*
X10092Y3683D01*
X10089Y3691D01*
X10088Y3700D01*
X10089Y3705D01*
X10051Y3743D01*
X9454D01*
X9449Y3744D01*
X9445Y3747D01*
X9441Y3751D01*
X9428D01*
X9427Y3748D01*
X9422Y3741D01*
X9415Y3736D01*
X9407Y3733D01*
X9398Y3731D01*
X9389Y3733D01*
X9381Y3736D01*
X9375Y3741D01*
X9369Y3748D01*
X9366Y3756D01*
X9365Y3765D01*
X9366Y3773D01*
X9369Y3781D01*
X9375Y3788D01*
X9381Y3794D01*
X9389Y3797D01*
X9398Y3798D01*
X9407Y3797D01*
X9415Y3794D01*
X9422Y3788D01*
X9427Y3781D01*
X9429Y3777D01*
X9439D01*
X9440Y3782D01*
X9410Y3813D01*
X9407Y3811D01*
X9398Y3810D01*
X9389Y3811D01*
X9381Y3815D01*
X9375Y3820D01*
X9369Y3827D01*
X9366Y3835D01*
X9365Y3844D01*
X9366Y3852D01*
X9369Y3860D01*
X9375Y3867D01*
X9381Y3872D01*
X9389Y3876D01*
X9398Y3877D01*
X9407Y3876D01*
X9415Y3872D01*
X9422Y3867D01*
X9427Y3860D01*
X9430Y3852D01*
X9431Y3844D01*
X9430Y3835D01*
X9429Y3831D01*
X9467Y3793D01*
X9476D01*
X9478Y3798D01*
X9474Y3805D01*
X9472Y3814D01*
X9473Y3816D01*
X9450Y3839D01*
X9447Y3844D01*
X9445Y3850D01*
Y3925D01*
X9447Y3931D01*
X9450Y3936D01*
X9480Y3966D01*
Y4241D01*
X9481Y4247D01*
X9484Y4252D01*
X9518Y4286D01*
X9523Y4290D01*
X9527Y4290D01*
X9528Y4295D01*
X9515Y4308D01*
X9512Y4312D01*
X9511Y4318D01*
Y4375D01*
X9503Y4383D01*
X9429D01*
X9427Y4378D01*
X9422Y4371D01*
X9415Y4366D01*
X9407Y4363D01*
X9398Y4361D01*
X9389Y4363D01*
X9381Y4366D01*
X9375Y4371D01*
X9369Y4378D01*
X9366Y4386D01*
X9365Y4395D01*
X9366Y4403D01*
X9369Y4411D01*
X9375Y4418D01*
X9381Y4424D01*
X9389Y4427D01*
X9398Y4428D01*
X9407Y4427D01*
X9415Y4424D01*
X9422Y4418D01*
X9427Y4411D01*
X9428Y4409D01*
X9509D01*
X9514Y4408D01*
X9518Y4405D01*
X9534Y4389D01*
X9537Y4385D01*
X9538Y4380D01*
Y4323D01*
X9547Y4314D01*
X9608D01*
Y4315D01*
X9659D01*
Y4286D01*
Y4260D01*
Y4235D01*
X9608D01*
Y4236D01*
X9572D01*
X9566Y4230D01*
Y4192D01*
X9583D01*
Y4165D01*
X9587Y4164D01*
X9592Y4171D01*
X9600Y4176D01*
X9608Y4177D01*
X9617Y4176D01*
X9624Y4171D01*
X9624Y4171D01*
X9713D01*
X9779Y4236D01*
X9779Y4236D01*
X9780Y4245D01*
X9785Y4252D01*
X9793Y4257D01*
X9801Y4259D01*
X9810Y4257D01*
X9817Y4252D01*
X9817Y4252D01*
X10212D01*
X10212Y4252D01*
X10219Y4257D01*
X10228Y4259D01*
X10237Y4257D01*
X10244Y4252D01*
X10249Y4245D01*
X10250Y4236D01*
X10249Y4228D01*
X10244Y4221D01*
X10237Y4216D01*
X10228Y4214D01*
X10219Y4216D01*
X10212Y4221D01*
X10212Y4221D01*
X9817D01*
X9817Y4221D01*
X9810Y4216D01*
X9801Y4214D01*
X9801Y4214D01*
X9731Y4144D01*
X9726Y4140D01*
X9720Y4139D01*
X9624D01*
X9624Y4139D01*
X9617Y4134D01*
X9608Y4133D01*
X9600Y4134D01*
X9592Y4139D01*
X9587Y4146D01*
X9583Y4145D01*
Y4134D01*
X9584Y4133D01*
X9586Y4129D01*
X9587Y4125D01*
X9586Y4121D01*
X9584Y4117D01*
X9583Y4116D01*
Y4102D01*
X9785D01*
X9792Y4109D01*
X9797Y4112D01*
X9802Y4113D01*
X9946D01*
X9951Y4112D01*
X9955Y4109D01*
X10052Y4013D01*
X10252D01*
X10254Y4017D01*
X10262Y4022D01*
X10271Y4023D01*
X10280Y4022D01*
X10287Y4017D01*
X10293Y4009D01*
X10294Y4000D01*
X10293Y3991D01*
X10290Y3988D01*
X10290Y3986D01*
X10292Y3983D01*
X10300Y3981D01*
X10308Y3976D01*
X10313Y3968D01*
X10315Y3959D01*
X10313Y3950D01*
X10308Y3943D01*
X10300Y3938D01*
X10291Y3936D01*
X10282Y3938D01*
X10280Y3939D01*
X9951D01*
Y3934D01*
X9952Y3933D01*
X9955Y3929D01*
X9955Y3925D01*
X9955Y3921D01*
X9952Y3917D01*
X9951Y3916D01*
Y3858D01*
X9891D01*
Y3874D01*
X9866D01*
Y3858D01*
X9806D01*
Y3871D01*
X9799D01*
X9799Y3871D01*
X9794Y3872D01*
X9789Y3875D01*
X9784Y3880D01*
X9773D01*
Y3870D01*
X9735D01*
X9728Y3863D01*
X9730Y3859D01*
X9732Y3850D01*
X9730Y3841D01*
X9727Y3837D01*
X9730Y3832D01*
X10315D01*
X10359Y3876D01*
Y3976D01*
X10360Y3981D01*
X10363Y3985D01*
X10365Y3988D01*
X10364Y3991D01*
X10363Y4000D01*
X10364Y4009D01*
X10367Y4017D01*
X10373Y4024D01*
X10379Y4029D01*
X10387Y4032D01*
X10396Y4033D01*
X10405Y4032D01*
X10413Y4029D01*
X10420Y4024D01*
X10425Y4017D01*
X10428Y4009D01*
X10429Y4000D01*
X10428Y3991D01*
X10425Y3983D01*
X10420Y3976D01*
X10413Y3971D01*
X10405Y3968D01*
X10396Y3967D01*
X10389Y3968D01*
X10385Y3964D01*
Y3871D01*
X10384Y3866D01*
X10381Y3862D01*
X10329Y3810D01*
X10325Y3807D01*
X10320Y3806D01*
X9646D01*
X9641Y3807D01*
X9637Y3810D01*
X9598Y3848D01*
X9515D01*
X9513Y3845D01*
X9505Y3840D01*
X9499Y3839D01*
X9504Y3835D01*
X9504D01*
D01*
Y3835D01*
X9504D01*
D01*
X9512Y3830D01*
X9517Y3823D01*
X9519Y3814D01*
X9517Y3805D01*
X9512Y3798D01*
X9515Y3793D01*
X10261D01*
X10266Y3792D01*
X10270Y3789D01*
X10273Y3787D01*
X10275Y3787D01*
X10283Y3786D01*
X10291Y3781D01*
X10296Y3774D01*
X10297Y3765D01*
X10296Y3756D01*
X10291Y3749D01*
X10283Y3744D01*
X10275Y3743D01*
X10266Y3744D01*
X10259Y3749D01*
X10254Y3756D01*
X10252Y3765D01*
X10251Y3767D01*
X10071D01*
X10069Y3762D01*
X10103Y3728D01*
X10104Y3729D01*
X10112Y3732D01*
X10121Y3733D01*
X10130Y3732D01*
X10138Y3729D01*
X10145Y3724D01*
X10150Y3717D01*
X10151Y3713D01*
X10176D01*
X10192Y3729D01*
X10196Y3732D01*
X10201Y3733D01*
X10434D01*
Y3734D01*
X10434D01*
Y3740D01*
X10430Y3742D01*
X10421Y3741D01*
X10412Y3742D01*
X10405Y3747D01*
X10399Y3755D01*
X10398Y3764D01*
X10399Y3773D01*
X10405Y3781D01*
X10412Y3786D01*
X10421Y3787D01*
X10430Y3786D01*
X10434Y3788D01*
Y3794D01*
X10493D01*
X10494Y3795D01*
X10497Y3798D01*
X10501Y3798D01*
X10505Y3798D01*
X10509Y3795D01*
X10510Y3794D01*
X10568D01*
Y3778D01*
X10596D01*
X10597Y3781D01*
X10603Y3788D01*
X10609Y3794D01*
X10617Y3797D01*
X10626Y3798D01*
X10635Y3797D01*
X10643Y3794D01*
X10650Y3788D01*
X10655Y3781D01*
X10658Y3773D01*
X10659Y3765D01*
X10658Y3756D01*
X10655Y3748D01*
X10652Y3744D01*
X10654Y3740D01*
X10670D01*
X10675Y3739D01*
X10680Y3736D01*
X10705Y3710D01*
X10707Y3707D01*
X10712Y3709D01*
Y3722D01*
X10740D01*
Y3685D01*
X10760D01*
Y3722D01*
X10787D01*
Y3719D01*
X10790Y3719D01*
X10794Y3716D01*
X10795Y3715D01*
X10809D01*
Y3720D01*
X10799Y3730D01*
X10796Y3734D01*
X10795Y3739D01*
Y3748D01*
X10784D01*
Y3815D01*
X10833D01*
Y3748D01*
X10825D01*
X10823Y3743D01*
X10832Y3735D01*
X10835Y3731D01*
X10836Y3726D01*
Y3715D01*
X10853D01*
Y3655D01*
X10836D01*
Y3636D01*
X10853D01*
Y3576D01*
X10795D01*
X10794Y3575D01*
X10790Y3572D01*
X10786Y3572D01*
X10782Y3572D01*
X10778Y3575D01*
X10777Y3576D01*
X10719D01*
Y3618D01*
X10687Y3650D01*
X10684Y3654D01*
X10683Y3659D01*
Y3695D01*
X10665Y3713D01*
X10653D01*
X10650Y3709D01*
X10655Y3703D01*
X10658Y3695D01*
X10659Y3686D01*
X10658Y3677D01*
X10655Y3669D01*
X10650Y3662D01*
X10643Y3657D01*
X10635Y3654D01*
X10626Y3653D01*
X10617Y3654D01*
X10609Y3657D01*
X10603Y3662D01*
X10597Y3669D01*
X10596Y3673D01*
X10585D01*
X10555Y3643D01*
X10551Y3640D01*
X10546Y3639D01*
X10502D01*
X10500Y3633D01*
X10495Y3626D01*
X10491Y3624D01*
X10493Y3619D01*
X10595D01*
X10597Y3624D01*
X10603Y3631D01*
X10609Y3636D01*
X10617Y3639D01*
X10626Y3641D01*
X10635Y3639D01*
X10643Y3636D01*
X10650Y3631D01*
X10655Y3624D01*
X10658Y3616D01*
X10659Y3607D01*
X10658Y3599D01*
X10655Y3591D01*
X10650Y3584D01*
X10643Y3578D01*
X10635Y3575D01*
X10626Y3574D01*
X10617Y3575D01*
X10609Y3578D01*
X10603Y3584D01*
X10597Y3591D01*
X10596Y3593D01*
X10535D01*
X10532Y3588D01*
X10535Y3584D01*
X10537Y3575D01*
X10536Y3571D01*
X10580Y3527D01*
X10583Y3522D01*
X10584Y3517D01*
Y3503D01*
X10590Y3501D01*
X10598Y3495D01*
X10604Y3487D01*
X10608Y3478D01*
X10609Y3468D01*
X10608Y3458D01*
X10604Y3449D01*
X10598Y3441D01*
X10590Y3435D01*
X10583Y3433D01*
Y3407D01*
X10595D01*
Y3340D01*
X10545D01*
Y3407D01*
X10557D01*
Y3434D01*
X10552Y3435D01*
X10544Y3441D01*
X10538Y3449D01*
X10535Y3458D01*
X10533Y3468D01*
X10535Y3478D01*
X10538Y3487D01*
X10544Y3495D01*
X10552Y3501D01*
X10558Y3503D01*
Y3512D01*
X10517Y3552D01*
X10514Y3552D01*
X10505Y3553D01*
X10497Y3558D01*
X10492Y3566D01*
X10490Y3575D01*
X10492Y3584D01*
X10495Y3588D01*
X10492Y3593D01*
X10437D01*
X10436Y3588D01*
X10438Y3587D01*
X10443Y3579D01*
X10445Y3570D01*
X10444Y3566D01*
X10480Y3529D01*
X10483Y3525D01*
X10484Y3520D01*
Y3503D01*
X10490Y3501D01*
X10498Y3495D01*
X10504Y3487D01*
X10508Y3478D01*
X10509Y3468D01*
X10508Y3458D01*
X10504Y3449D01*
X10498Y3441D01*
X10490Y3435D01*
X10484Y3433D01*
Y3430D01*
X10483Y3425D01*
X10480Y3421D01*
X10467Y3407D01*
X10463Y3404D01*
X10457Y3403D01*
X10442D01*
Y3340D01*
X10392D01*
Y3407D01*
X10404D01*
X10405Y3411D01*
X10408Y3415D01*
X10418Y3426D01*
X10422Y3429D01*
X10427Y3430D01*
X10449D01*
X10453Y3433D01*
X10452Y3435D01*
X10444Y3441D01*
X10438Y3449D01*
X10435Y3458D01*
X10433Y3468D01*
X10435Y3478D01*
X10438Y3487D01*
X10444Y3495D01*
X10452Y3501D01*
X10458Y3503D01*
Y3515D01*
X10425Y3547D01*
X10421Y3547D01*
X10412Y3548D01*
X10405Y3553D01*
X10402Y3557D01*
X10352D01*
X10309Y3515D01*
Y3357D01*
X10314Y3354D01*
X10317Y3357D01*
X10326Y3358D01*
X10335Y3357D01*
X10343Y3352D01*
X10348Y3344D01*
X10350Y3335D01*
X10349Y3331D01*
X10352Y3327D01*
X10370D01*
Y3287D01*
Y3246D01*
X10351D01*
Y3218D01*
X10350Y3214D01*
Y3042D01*
X10393Y2999D01*
X10396Y2995D01*
X10397Y2990D01*
Y2958D01*
X10583Y2773D01*
X10588Y2775D01*
Y2934D01*
X10589Y2939D01*
X10592Y2943D01*
X10697Y3049D01*
Y3072D01*
X10683D01*
X10682Y3071D01*
X10678Y3068D01*
X10675Y3068D01*
Y3065D01*
X10648D01*
Y3102D01*
Y3139D01*
X10675D01*
Y3136D01*
X10678Y3136D01*
X10682Y3133D01*
X10683Y3132D01*
X10697D01*
Y3155D01*
X10692D01*
Y3155D01*
X10676D01*
Y3178D01*
X10666D01*
Y3188D01*
X10639D01*
Y3191D01*
X10602D01*
X10585Y3175D01*
Y3164D01*
X10588Y3162D01*
X10593Y3154D01*
X10595Y3145D01*
X10593Y3136D01*
X10588Y3128D01*
X10581Y3123D01*
X10572Y3122D01*
X10563Y3123D01*
X10555Y3128D01*
X10550Y3136D01*
X10548Y3145D01*
X10545Y3148D01*
X10524D01*
Y3193D01*
X10514D01*
Y3203D01*
X10469D01*
Y3237D01*
X10558D01*
Y3192D01*
X10560Y3191D01*
X10563Y3190D01*
X10587Y3214D01*
X10591Y3217D01*
X10596Y3218D01*
X10701D01*
X10706Y3217D01*
X10710Y3214D01*
X10724Y3200D01*
X10727Y3196D01*
X10727Y3194D01*
X10735D01*
Y3162D01*
X10724D01*
Y3132D01*
X10741D01*
Y3072D01*
X10724D01*
Y3043D01*
X10723Y3038D01*
X10720Y3034D01*
X10614Y2929D01*
Y2210D01*
X10738Y2087D01*
X10741Y2083D01*
X10742Y2078D01*
Y972D01*
X10779Y934D01*
X10782Y930D01*
X10783Y925D01*
Y888D01*
X10824D01*
Y812D01*
X10748D01*
Y888D01*
X10757D01*
Y920D01*
X10728Y948D01*
X10723Y946D01*
Y465D01*
X10722Y460D01*
X10719Y455D01*
X10624Y360D01*
Y275D01*
X10669D01*
Y302D01*
X10669D01*
X10671Y312D01*
X10677Y320D01*
X10685Y326D01*
X10695Y328D01*
Y327D01*
X11501D01*
X11503Y332D01*
X11502Y332D01*
X11495Y342D01*
X11489Y352D01*
X11486Y363D01*
X11485Y375D01*
X11486Y387D01*
X11489Y398D01*
X11495Y408D01*
X11502Y418D01*
X11511Y425D01*
X11522Y431D01*
X11533Y434D01*
X11545Y435D01*
X11557Y434D01*
X11568Y431D01*
X11578Y425D01*
X11588Y418D01*
X11595Y408D01*
X11601Y398D01*
X11604Y387D01*
X11605Y375D01*
X11604Y363D01*
X11601Y352D01*
X11595Y342D01*
X11588Y332D01*
X11587Y332D01*
X11589Y327D01*
X11680D01*
Y328D01*
X11688Y326D01*
X11695Y321D01*
X11699Y315D01*
X11701Y307D01*
X11701D01*
Y275D01*
X11779D01*
Y361D01*
X11781Y370D01*
X11784Y379D01*
X11790Y386D01*
X11797Y392D01*
X11805Y395D01*
X11814Y396D01*
X11824D01*
Y204D01*
X11844D01*
Y396D01*
X11854D01*
X11863Y395D01*
X11871Y392D01*
X11879Y386D01*
X11884Y379D01*
X11888Y370D01*
X11889Y361D01*
Y275D01*
X11931D01*
Y402D01*
X11920Y403D01*
X11909Y406D01*
X11899Y412D01*
X11890Y419D01*
X11883Y428D01*
X11877Y438D01*
X11874Y449D01*
X11873Y460D01*
Y730D01*
X11874Y741D01*
X11877Y752D01*
X11883Y762D01*
X11890Y771D01*
X11899Y778D01*
X11909Y784D01*
X11920Y787D01*
X11931Y788D01*
Y2139D01*
X11927Y2142D01*
X11921Y2142D01*
X11910Y2143D01*
X11899Y2146D01*
X11889Y2152D01*
X11880Y2159D01*
X11873Y2168D01*
X11867Y2178D01*
X11864Y2189D01*
X11863Y2200D01*
Y2480D01*
X11864Y2491D01*
X11867Y2502D01*
X11873Y2512D01*
X11880Y2521D01*
X11889Y2528D01*
X11892Y2530D01*
X11892Y2535D01*
X11890Y2536D01*
X11887Y2538D01*
X11885Y2541D01*
X11884Y2545D01*
X11885Y2549D01*
X11887Y2552D01*
X11890Y2554D01*
X11894Y2555D01*
X11931D01*
Y2953D01*
X11896D01*
X11892Y2954D01*
X11889Y2956D01*
X11887Y2959D01*
X11886Y2963D01*
X11887Y2967D01*
X11889Y2970D01*
X11892Y2972D01*
X11896Y2973D01*
X11931D01*
Y3291D01*
X11885D01*
X11881Y3292D01*
X11878Y3294D01*
X11876Y3298D01*
X11875Y3302D01*
X11876Y3306D01*
X11878Y3309D01*
X11881Y3311D01*
X11885Y3312D01*
X11931D01*
Y3587D01*
X11931Y3588D01*
Y3596D01*
X11927Y3597D01*
X11924Y3599D01*
X11902Y3621D01*
X11900Y3624D01*
X11899Y3628D01*
X11900Y3632D01*
X11902Y3636D01*
X11906Y3638D01*
X11909Y3639D01*
X11913Y3638D01*
X11917Y3636D01*
X11926Y3626D01*
X11931Y3628D01*
Y3651D01*
X11941Y3661D01*
X11598Y4004D01*
X11554D01*
X11552Y4000D01*
X11642Y3910D01*
X11820Y3732D01*
X11823Y3729D01*
X11823Y3725D01*
X11823Y3721D01*
X11820Y3717D01*
X11817Y3715D01*
X11813Y3714D01*
X11809Y3715D01*
X11806Y3717D01*
X11628Y3895D01*
X11526Y3997D01*
X11526Y3997D01*
X11526Y3997D01*
X11526Y3997D01*
X11523Y3999D01*
X11519Y4000D01*
X11516Y3999D01*
X11512Y3997D01*
X11510Y3994D01*
X11510Y3990D01*
X11510Y3990D01*
X11510D01*
X11508Y3973D01*
X11503Y3956D01*
X11499Y3949D01*
Y3902D01*
X11440D01*
X11437Y3902D01*
X11419Y3900D01*
X11402Y3902D01*
X11399Y3902D01*
X11332D01*
X11332Y3902D01*
Y3902D01*
X11331Y3902D01*
D01*
X11328Y3900D01*
Y3690D01*
X11328Y3690D01*
X11328Y3687D01*
X11326Y3685D01*
X11326Y3685D01*
X11300Y3659D01*
X11298Y3657D01*
X11295Y3657D01*
X11295Y3657D01*
X11283D01*
X11280Y3653D01*
X11281Y3649D01*
X11281Y3649D01*
Y3629D01*
X11290D01*
Y3544D01*
X11231D01*
Y3544D01*
X11226Y3544D01*
X11225Y3544D01*
X11221Y3543D01*
X11181D01*
X11177Y3544D01*
X11176Y3544D01*
X11172Y3544D01*
Y3544D01*
X11112D01*
Y3566D01*
X11101D01*
X11096Y3562D01*
X11089Y3559D01*
X11082Y3558D01*
X11075Y3559D01*
X11068Y3562D01*
X11062Y3567D01*
X11058Y3573D01*
X11055Y3579D01*
X11054Y3587D01*
X11055Y3594D01*
X11058Y3601D01*
X11062Y3607D01*
X11068Y3611D01*
X11075Y3614D01*
X11082Y3615D01*
X11089Y3614D01*
X11096Y3611D01*
X11101Y3608D01*
X11112D01*
Y3629D01*
X11172D01*
Y3629D01*
X11176Y3629D01*
X11177Y3630D01*
X11181Y3630D01*
X11221D01*
X11225Y3630D01*
X11226Y3629D01*
X11231Y3629D01*
Y3629D01*
X11239D01*
Y3640D01*
X11227Y3652D01*
X11227Y3652D01*
X11224Y3657D01*
X11163D01*
X11160Y3657D01*
X11158Y3658D01*
X11158Y3658D01*
X11154Y3656D01*
X11150Y3655D01*
X11120D01*
X11116Y3656D01*
X11113Y3658D01*
X11112Y3658D01*
X11111Y3657D01*
X11108Y3657D01*
X10950D01*
X10947Y3657D01*
X10944Y3659D01*
X10943Y3662D01*
X10942Y3665D01*
Y3845D01*
X10871D01*
Y3835D01*
X10821D01*
Y3902D01*
X10871D01*
Y3892D01*
X10942D01*
Y4058D01*
X10943Y4062D01*
X10944Y4064D01*
X10947Y4066D01*
X10950Y4067D01*
X11108D01*
X11111Y4066D01*
X11112Y4065D01*
X11113Y4066D01*
X11116Y4068D01*
X11120Y4069D01*
X11150D01*
X11154Y4068D01*
X11158Y4066D01*
X11158Y4065D01*
X11160Y4066D01*
X11163Y4067D01*
X11320D01*
X11323Y4066D01*
X11324Y4066D01*
X11328Y4068D01*
Y4262D01*
X11329Y4262D01*
X11327Y4268D01*
X11326Y4270D01*
X11146Y4450D01*
X10666D01*
Y4433D01*
X10636D01*
Y4473D01*
X10616D01*
Y4433D01*
X10586D01*
Y4450D01*
X9438D01*
Y4433D01*
X9408D01*
Y4473D01*
X9388D01*
Y4433D01*
D02*
G37*
G36*
X6964Y5797D02*
X6963Y5797D01*
X6962Y5797D01*
X6962Y5797D01*
X6962Y5796D01*
X6961Y5795D01*
X6961Y5794D01*
Y5793D01*
Y5793D01*
Y5724D01*
X6961Y5723D01*
X6962Y5722D01*
X6962Y5721D01*
X6962Y5721D01*
X6963Y5720D01*
X6964Y5720D01*
X6965Y5720D01*
X6987D01*
X6988Y5720D01*
X6990D01*
X6991Y5720D01*
X6992Y5720D01*
X6992D01*
X6993Y5721D01*
X6993D01*
X6995Y5721D01*
X6997Y5722D01*
X6997Y5722D01*
X6998Y5722D01*
X6999Y5722D01*
X6999Y5722D01*
X6999D01*
X7001Y5723D01*
X7002Y5724D01*
X7003Y5724D01*
X7004Y5725D01*
X7004Y5725D01*
X7005Y5725D01*
X7005Y5726D01*
X7006Y5727D01*
X7008Y5728D01*
X7008Y5729D01*
X7008Y5729D01*
X7009Y5730D01*
X7009Y5730D01*
X7010Y5732D01*
X7011Y5734D01*
X7011Y5734D01*
X7011Y5735D01*
X7011Y5735D01*
Y5735D01*
X7012Y5738D01*
X7012Y5739D01*
X7012Y5740D01*
X7012Y5741D01*
Y5742D01*
Y5742D01*
Y5742D01*
X7012Y5745D01*
X7012Y5746D01*
X7012Y5747D01*
X7011Y5748D01*
X7011Y5749D01*
X7011Y5749D01*
Y5749D01*
X7010Y5752D01*
X7009Y5753D01*
X7009Y5753D01*
X7008Y5754D01*
X7008Y5755D01*
X7008Y5755D01*
X7008Y5755D01*
X7006Y5757D01*
X7005Y5758D01*
X7004Y5759D01*
X7003Y5759D01*
X7003Y5759D01*
X7003D01*
X7001Y5760D01*
X6999Y5761D01*
X6998Y5761D01*
X6998Y5761D01*
X6997Y5761D01*
X6997D01*
X6999Y5762D01*
X7000Y5763D01*
X7001Y5764D01*
X7001Y5764D01*
X7001Y5764D01*
X7001D01*
X7003Y5765D01*
X7004Y5767D01*
X7004Y5768D01*
X7005Y5768D01*
Y5768D01*
X7006Y5770D01*
X7006Y5771D01*
X7006Y5772D01*
X7007Y5772D01*
X7007Y5772D01*
Y5773D01*
X7007Y5775D01*
X7007Y5776D01*
X7007Y5777D01*
Y5777D01*
Y5778D01*
Y5778D01*
Y5780D01*
X7007Y5781D01*
X7007Y5782D01*
X7007Y5784D01*
X7006Y5785D01*
X7006Y5785D01*
X7006Y5786D01*
X7006Y5786D01*
X7005Y5787D01*
X7005Y5789D01*
X7004Y5790D01*
X7003Y5791D01*
X7002Y5791D01*
X7002Y5792D01*
X7001Y5792D01*
X7001Y5792D01*
X7000Y5793D01*
X6999Y5794D01*
X6997Y5795D01*
X6996Y5796D01*
X6995Y5796D01*
X6994Y5796D01*
X6994D01*
X6992Y5797D01*
X6990Y5797D01*
X6988Y5797D01*
X6987Y5797D01*
X6985Y5798D01*
X6965D01*
X6964Y5797D01*
D02*
G37*
%LPC*%
G36*
X11502Y2712D02*
X11546D01*
Y2700D01*
X11502D01*
Y2712D01*
D02*
G37*
G36*
X11174Y2707D02*
Y2700D01*
X11151D01*
X11155Y2702D01*
X11169Y2706D01*
X11174Y2707D01*
D02*
G37*
G36*
X11194D02*
X11200Y2706D01*
X11214Y2702D01*
X11218Y2700D01*
X11194D01*
Y2707D01*
D02*
G37*
G36*
X11814Y2960D02*
X11854D01*
X11861Y2959D01*
X11868Y2956D01*
X11874Y2952D01*
X11878Y2946D01*
X11881Y2939D01*
X11882Y2932D01*
Y2578D01*
X11881Y2571D01*
X11878Y2564D01*
X11874Y2558D01*
X11868Y2554D01*
X11861Y2551D01*
X11854Y2550D01*
X11814D01*
X11807Y2551D01*
X11800Y2554D01*
X11795Y2558D01*
X11790Y2564D01*
X11787Y2571D01*
X11786Y2578D01*
Y2932D01*
X11787Y2939D01*
X11790Y2946D01*
X11795Y2952D01*
X11800Y2956D01*
X11807Y2959D01*
X11814Y2960D01*
D02*
G37*
G36*
X11117Y2669D02*
Y2640D01*
X11108D01*
X11108Y2645D01*
X11112Y2660D01*
X11117Y2669D01*
D02*
G37*
G36*
X11566Y2712D02*
X11611D01*
Y2700D01*
X11566D01*
Y2712D01*
D02*
G37*
G36*
X11108Y2620D02*
X11117D01*
Y2591D01*
X11112Y2600D01*
X11108Y2615D01*
X11108Y2620D01*
D02*
G37*
G36*
X10184Y2412D02*
X10192Y2411D01*
X10199Y2406D01*
X10204Y2399D01*
X10206Y2390D01*
X10204Y2381D01*
X10199Y2374D01*
X10192Y2369D01*
X10184Y2368D01*
X10175Y2369D01*
X10168Y2374D01*
X10163Y2381D01*
X10161Y2390D01*
X10163Y2399D01*
X10168Y2406D01*
X10175Y2411D01*
X10184Y2412D01*
D02*
G37*
G36*
X11108Y2420D02*
X11117D01*
Y2391D01*
X11112Y2400D01*
X11108Y2415D01*
X11108Y2420D01*
D02*
G37*
G36*
X11194Y2360D02*
X11218D01*
X11214Y2358D01*
X11200Y2354D01*
X11194Y2353D01*
Y2360D01*
D02*
G37*
G36*
X11151D02*
X11174D01*
Y2353D01*
X11169Y2354D01*
X11155Y2358D01*
X11151Y2360D01*
D02*
G37*
G36*
X11117Y2469D02*
Y2440D01*
X11108D01*
X11108Y2445D01*
X11112Y2460D01*
X11117Y2469D01*
D02*
G37*
G36*
X10795Y3238D02*
X10846D01*
X10853Y3237D01*
X10860Y3234D01*
X10866Y3230D01*
X10965Y3131D01*
X10970Y3125D01*
X10972Y3120D01*
X10972Y3118D01*
X10973Y3111D01*
Y3043D01*
X10972Y3036D01*
X10972Y3034D01*
X10970Y3029D01*
X10965Y3023D01*
X10889Y2948D01*
Y2588D01*
X10890Y2587D01*
X10894Y2579D01*
X10895Y2570D01*
X10894Y2561D01*
X10890Y2553D01*
X10885Y2546D01*
X10878Y2541D01*
X10870Y2538D01*
X10862Y2537D01*
X10853Y2538D01*
X10845Y2541D01*
X10838Y2546D01*
X10833Y2553D01*
X10829Y2561D01*
X10828Y2570D01*
X10829Y2579D01*
X10833Y2587D01*
X10833Y2587D01*
Y2959D01*
X10834Y2967D01*
X10835Y2970D01*
X10837Y2974D01*
X10841Y2979D01*
X10917Y3055D01*
Y3099D01*
X10834Y3182D01*
X10795D01*
X10787Y3183D01*
X10781Y3186D01*
X10775Y3190D01*
X10770Y3196D01*
X10767Y3203D01*
X10766Y3210D01*
X10767Y3217D01*
X10770Y3224D01*
X10775Y3230D01*
X10781Y3234D01*
X10787Y3237D01*
X10795Y3238D01*
D02*
G37*
G36*
X10301Y2472D02*
X10310Y2471D01*
X10317Y2466D01*
X10322Y2459D01*
X10324Y2450D01*
X10322Y2441D01*
X10317Y2434D01*
X10310Y2429D01*
X10301Y2428D01*
X10293Y2429D01*
X10285Y2434D01*
X10280Y2441D01*
X10279Y2450D01*
X10280Y2459D01*
X10285Y2466D01*
X10293Y2471D01*
X10301Y2472D01*
D02*
G37*
G36*
X10701Y2503D02*
X10710Y2502D01*
X10718Y2499D01*
X10725Y2494D01*
X10730Y2487D01*
X10733Y2479D01*
X10734Y2470D01*
X10733Y2461D01*
X10730Y2453D01*
X10725Y2446D01*
X10718Y2441D01*
X10710Y2438D01*
X10701Y2437D01*
X10692Y2438D01*
X10684Y2441D01*
X10678Y2446D01*
X10672Y2453D01*
X10669Y2461D01*
X10668Y2470D01*
X10669Y2479D01*
X10672Y2487D01*
X10678Y2494D01*
X10684Y2499D01*
X10692Y2502D01*
X10701Y2503D01*
D02*
G37*
G36*
X9221Y3128D02*
X9230Y3127D01*
X9238Y3124D01*
X9245Y3118D01*
X9250Y3112D01*
X9253Y3104D01*
X9254Y3095D01*
X9253Y3086D01*
X9250Y3078D01*
X9245Y3071D01*
X9238Y3066D01*
X9230Y3063D01*
X9221Y3062D01*
X9212Y3063D01*
X9204Y3066D01*
X9198Y3071D01*
X9192Y3078D01*
X9189Y3086D01*
X9188Y3095D01*
X9189Y3104D01*
X9192Y3112D01*
X9198Y3118D01*
X9204Y3124D01*
X9212Y3127D01*
X9221Y3128D01*
D02*
G37*
G36*
X10600Y3092D02*
X10628D01*
Y3065D01*
X10600D01*
Y3092D01*
D02*
G37*
G36*
X9771Y3033D02*
X9780Y3032D01*
X9788Y3029D01*
X9795Y3024D01*
X9800Y3017D01*
X9803Y3009D01*
X9804Y3000D01*
X9803Y2991D01*
X9800Y2983D01*
X9795Y2976D01*
X9788Y2971D01*
X9780Y2968D01*
X9771Y2967D01*
X9762Y2968D01*
X9754Y2971D01*
X9748Y2976D01*
X9742Y2983D01*
X9739Y2991D01*
X9738Y3000D01*
X9739Y3009D01*
X9742Y3017D01*
X9748Y3024D01*
X9754Y3029D01*
X9762Y3032D01*
X9771Y3033D01*
D02*
G37*
G36*
X8703Y3058D02*
X8712Y3057D01*
X8720Y3053D01*
X8727Y3048D01*
X8732Y3041D01*
X8736Y3032D01*
X8737Y3024D01*
X8736Y3015D01*
X8732Y3006D01*
X8727Y2999D01*
X8720Y2994D01*
X8712Y2990D01*
X8703Y2989D01*
X8694Y2990D01*
X8686Y2994D01*
X8679Y2999D01*
X8673Y3006D01*
X8670Y3015D01*
X8668Y3024D01*
X8670Y3032D01*
X8673Y3041D01*
X8679Y3048D01*
X8686Y3053D01*
X8694Y3057D01*
X8703Y3058D01*
D02*
G37*
G36*
X10469Y3183D02*
X10504D01*
Y3148D01*
X10469D01*
Y3183D01*
D02*
G37*
G36*
X10414Y3231D02*
X10423Y3229D01*
X10432Y3226D01*
X10440Y3220D01*
X10446Y3212D01*
X10450Y3203D01*
X10451Y3193D01*
X10450Y3183D01*
X10446Y3174D01*
X10440Y3166D01*
X10432Y3160D01*
X10423Y3156D01*
X10414Y3155D01*
X10404Y3156D01*
X10395Y3160D01*
X10387Y3166D01*
X10381Y3174D01*
X10377Y3183D01*
X10376Y3193D01*
X10377Y3203D01*
X10381Y3212D01*
X10387Y3220D01*
X10395Y3226D01*
X10404Y3229D01*
X10414Y3231D01*
D02*
G37*
G36*
X8742Y3180D02*
X8818D01*
Y3104D01*
X8742D01*
Y3180D01*
D02*
G37*
G36*
X10600Y3139D02*
X10628D01*
Y3112D01*
X10600D01*
Y3139D01*
D02*
G37*
G36*
X9337Y2983D02*
X9346Y2982D01*
X9354Y2979D01*
X9361Y2974D01*
X9366Y2967D01*
X9369Y2959D01*
X9370Y2950D01*
X9369Y2941D01*
X9366Y2933D01*
X9361Y2926D01*
X9354Y2921D01*
X9346Y2918D01*
X9337Y2917D01*
X9328Y2918D01*
X9320Y2921D01*
X9314Y2926D01*
X9308Y2933D01*
X9305Y2941D01*
X9304Y2950D01*
X9305Y2959D01*
X9308Y2967D01*
X9314Y2974D01*
X9320Y2979D01*
X9328Y2982D01*
X9337Y2983D01*
D02*
G37*
G36*
X11681Y2789D02*
X11682Y2789D01*
X11691Y2785D01*
X11700Y2779D01*
X11706Y2770D01*
X11710Y2760D01*
X11710Y2760D01*
X11681D01*
Y2789D01*
D02*
G37*
G36*
X11661D02*
Y2760D01*
X11632D01*
X11632Y2760D01*
X11636Y2770D01*
X11643Y2779D01*
X11651Y2785D01*
X11661Y2789D01*
X11661Y2789D01*
D02*
G37*
G36*
X11681Y2740D02*
X11710D01*
X11710Y2740D01*
X11706Y2730D01*
X11700Y2721D01*
X11691Y2715D01*
X11682Y2711D01*
X11681Y2711D01*
Y2740D01*
D02*
G37*
G36*
X11632D02*
X11661D01*
Y2711D01*
X11661Y2711D01*
X11651Y2715D01*
X11643Y2721D01*
X11636Y2730D01*
X11632Y2740D01*
X11632Y2740D01*
D02*
G37*
G36*
X10056Y2938D02*
X10063Y2937D01*
X10070Y2934D01*
X10076Y2930D01*
X10081Y2924D01*
X10083Y2917D01*
X10084Y2910D01*
X10083Y2903D01*
X10081Y2896D01*
X10076Y2890D01*
X10070Y2886D01*
X10063Y2883D01*
X10056Y2882D01*
X10049Y2883D01*
X10042Y2886D01*
X10036Y2890D01*
X10032Y2896D01*
X10029Y2903D01*
X10028Y2910D01*
X10029Y2917D01*
X10032Y2924D01*
X10036Y2930D01*
X10042Y2934D01*
X10049Y2937D01*
X10056Y2938D01*
D02*
G37*
G36*
X9696Y2958D02*
X9705Y2957D01*
X9713Y2954D01*
X9720Y2949D01*
X9725Y2942D01*
X9728Y2934D01*
X9729Y2925D01*
X9728Y2916D01*
X9725Y2908D01*
X9720Y2901D01*
X9713Y2896D01*
X9705Y2893D01*
X9696Y2892D01*
X9687Y2893D01*
X9679Y2896D01*
X9673Y2901D01*
X9667Y2908D01*
X9664Y2916D01*
X9663Y2925D01*
X9664Y2934D01*
X9667Y2942D01*
X9673Y2949D01*
X9679Y2954D01*
X9687Y2957D01*
X9696Y2958D01*
D02*
G37*
G36*
X10954Y2878D02*
X11059D01*
X11070Y2877D01*
X11080Y2872D01*
X11089Y2866D01*
X11096Y2857D01*
X11101Y2846D01*
X11102Y2835D01*
X11101Y2824D01*
X11096Y2813D01*
X11089Y2804D01*
X11080Y2797D01*
X11070Y2793D01*
X11059Y2792D01*
X10954D01*
X10943Y2793D01*
X10932Y2797D01*
X10923Y2804D01*
X10916Y2813D01*
X10912Y2824D01*
X10910Y2835D01*
X10912Y2846D01*
X10916Y2857D01*
X10923Y2866D01*
X10932Y2872D01*
X10943Y2877D01*
X10954Y2878D01*
D02*
G37*
G36*
X9485D02*
X9590D01*
X9601Y2877D01*
X9612Y2872D01*
X9621Y2866D01*
X9628Y2857D01*
X9632Y2846D01*
X9634Y2835D01*
X9632Y2824D01*
X9628Y2813D01*
X9621Y2804D01*
X9612Y2797D01*
X9601Y2793D01*
X9590Y2792D01*
X9485D01*
X9474Y2793D01*
X9464Y2797D01*
X9455Y2804D01*
X9448Y2813D01*
X9443Y2824D01*
X9442Y2835D01*
X9443Y2846D01*
X9448Y2857D01*
X9455Y2866D01*
X9464Y2872D01*
X9474Y2877D01*
X9485Y2878D01*
D02*
G37*
G36*
X8920Y2708D02*
X9425D01*
X9429Y2708D01*
X9431Y2706D01*
X9433Y2703D01*
X9434Y2700D01*
Y2360D01*
X9433Y2357D01*
X9431Y2354D01*
X9429Y2352D01*
X9425Y2352D01*
X8920D01*
X8917Y2352D01*
X8915Y2354D01*
X8913Y2357D01*
X8912Y2360D01*
Y2700D01*
X8913Y2703D01*
X8915Y2706D01*
X8917Y2708D01*
X8920Y2708D01*
D02*
G37*
G36*
X10896Y840D02*
X10930D01*
X10929Y838D01*
X10925Y828D01*
X10918Y818D01*
X10908Y811D01*
X10898Y807D01*
X10896Y806D01*
Y840D01*
D02*
G37*
G36*
X10842D02*
X10876D01*
Y806D01*
X10874Y807D01*
X10864Y811D01*
X10854Y818D01*
X10847Y828D01*
X10843Y838D01*
X10842Y840D01*
D02*
G37*
G36*
X7644Y5770D02*
X7646D01*
X7648Y5770D01*
X7650Y5770D01*
X7652Y5769D01*
X7654Y5768D01*
X7655Y5767D01*
X7656Y5767D01*
X7656Y5766D01*
X7656Y5766D01*
X7658Y5764D01*
X7658Y5762D01*
X7659Y5760D01*
X7660Y5758D01*
X7660Y5756D01*
X7660Y5755D01*
Y5754D01*
Y5754D01*
Y5754D01*
Y5754D01*
X7631D01*
X7631Y5756D01*
X7631Y5757D01*
X7631Y5758D01*
X7631Y5759D01*
X7631Y5759D01*
X7632Y5760D01*
Y5760D01*
X7632Y5762D01*
X7633Y5763D01*
X7633Y5764D01*
X7634Y5764D01*
X7634Y5765D01*
X7634Y5765D01*
X7634Y5765D01*
X7636Y5767D01*
X7637Y5768D01*
X7638Y5768D01*
X7639Y5769D01*
X7639Y5769D01*
X7639D01*
X7641Y5770D01*
X7643Y5770D01*
X7644Y5770D01*
D02*
G37*
G36*
X6971Y5789D02*
X6984D01*
X6985Y5789D01*
X6986Y5789D01*
X6987Y5789D01*
X6988Y5788D01*
X6989Y5788D01*
X6989Y5788D01*
X6989D01*
X6991Y5787D01*
X6992Y5787D01*
X6993Y5786D01*
X6993Y5786D01*
X6993Y5786D01*
X6994Y5786D01*
X6995Y5785D01*
X6996Y5783D01*
X6996Y5783D01*
X6996Y5782D01*
X6996Y5782D01*
Y5782D01*
X6997Y5780D01*
X6997Y5779D01*
X6997Y5778D01*
Y5777D01*
Y5777D01*
Y5777D01*
X6997Y5775D01*
X6997Y5773D01*
X6996Y5773D01*
X6996Y5772D01*
X6996Y5772D01*
Y5772D01*
X6995Y5770D01*
X6995Y5769D01*
X6994Y5768D01*
X6994Y5768D01*
X6994Y5768D01*
X6994Y5768D01*
X6992Y5767D01*
X6991Y5766D01*
X6990Y5765D01*
X6990Y5765D01*
X6990Y5765D01*
X6990D01*
X6989Y5765D01*
X6988Y5764D01*
X6986Y5764D01*
X6985Y5764D01*
X6971D01*
Y5789D01*
D02*
G37*
G36*
X10199Y1402D02*
X10248D01*
X10248Y1400D01*
X10245Y1389D01*
X10239Y1378D01*
X10232Y1369D01*
X10222Y1362D01*
X10212Y1356D01*
X10201Y1353D01*
X10199Y1352D01*
Y1402D01*
D02*
G37*
G36*
X10130D02*
X10179D01*
Y1352D01*
X10177Y1353D01*
X10166Y1356D01*
X10156Y1362D01*
X10146Y1369D01*
X10139Y1378D01*
X10133Y1389D01*
X10130Y1400D01*
X10130Y1402D01*
D02*
G37*
G36*
X10896Y894D02*
X10898Y893D01*
X10908Y889D01*
X10918Y882D01*
X10925Y872D01*
X10929Y862D01*
X10930Y860D01*
X10896D01*
Y894D01*
D02*
G37*
G36*
X10876D02*
Y860D01*
X10842D01*
X10843Y862D01*
X10847Y872D01*
X10854Y882D01*
X10864Y889D01*
X10874Y893D01*
X10876Y894D01*
D02*
G37*
G36*
X7196Y5770D02*
X7197D01*
X7199Y5770D01*
X7200Y5770D01*
X7202Y5769D01*
X7203Y5769D01*
X7204Y5769D01*
X7205Y5768D01*
X7205Y5768D01*
X7205Y5768D01*
X7206Y5767D01*
X7207Y5767D01*
X7208Y5766D01*
X7209Y5765D01*
X7209Y5764D01*
X7210Y5764D01*
X7210Y5764D01*
X7210Y5763D01*
X7211Y5761D01*
X7212Y5759D01*
X7212Y5758D01*
X7213Y5757D01*
X7213Y5757D01*
Y5757D01*
X7213Y5754D01*
X7214Y5752D01*
Y5751D01*
X7214Y5750D01*
Y5749D01*
Y5748D01*
Y5748D01*
X7214Y5745D01*
X7213Y5744D01*
X7213Y5742D01*
X7213Y5741D01*
X7213Y5740D01*
X7213Y5740D01*
Y5740D01*
X7212Y5738D01*
X7212Y5737D01*
X7211Y5736D01*
X7211Y5735D01*
X7210Y5734D01*
X7210Y5734D01*
X7210Y5733D01*
X7210Y5733D01*
X7208Y5731D01*
X7206Y5730D01*
X7206Y5729D01*
X7205Y5729D01*
X7205Y5729D01*
X7204Y5729D01*
X7203Y5728D01*
X7202Y5728D01*
X7201Y5728D01*
X7199Y5727D01*
X7198D01*
X7197Y5727D01*
X7197D01*
X7195Y5727D01*
X7194Y5727D01*
X7192Y5728D01*
X7191Y5728D01*
X7190Y5728D01*
X7189Y5729D01*
X7189Y5729D01*
X7189D01*
X7187Y5730D01*
X7186Y5731D01*
X7185Y5732D01*
X7185Y5732D01*
X7184Y5733D01*
X7184Y5733D01*
X7184Y5733D01*
X7182Y5736D01*
X7182Y5738D01*
X7181Y5739D01*
X7181Y5740D01*
X7181Y5740D01*
Y5740D01*
X7181Y5743D01*
X7180Y5745D01*
Y5746D01*
X7180Y5747D01*
Y5748D01*
Y5748D01*
Y5749D01*
Y5750D01*
X7180Y5752D01*
X7181Y5753D01*
X7181Y5755D01*
X7181Y5756D01*
X7181Y5756D01*
X7181Y5757D01*
Y5757D01*
X7182Y5758D01*
X7182Y5760D01*
X7183Y5761D01*
X7183Y5762D01*
X7184Y5763D01*
X7184Y5763D01*
X7184Y5764D01*
X7184Y5764D01*
X7186Y5766D01*
X7188Y5767D01*
X7188Y5767D01*
X7189Y5768D01*
X7189Y5768D01*
X7189D01*
X7191Y5769D01*
X7192Y5769D01*
X7193Y5769D01*
X7194Y5770D01*
X7196D01*
X7196Y5770D01*
D02*
G37*
G36*
X7049D02*
X7050D01*
X7052Y5770D01*
X7053Y5770D01*
X7055Y5769D01*
X7056Y5769D01*
X7057Y5769D01*
X7058Y5768D01*
X7058Y5768D01*
X7058Y5768D01*
X7059Y5767D01*
X7060Y5767D01*
X7061Y5766D01*
X7062Y5765D01*
X7062Y5764D01*
X7063Y5764D01*
X7063Y5764D01*
X7063Y5763D01*
X7064Y5761D01*
X7065Y5759D01*
X7065Y5758D01*
X7066Y5757D01*
X7066Y5757D01*
Y5757D01*
X7066Y5754D01*
X7067Y5752D01*
Y5751D01*
X7067Y5750D01*
Y5749D01*
Y5748D01*
Y5748D01*
X7067Y5745D01*
X7066Y5744D01*
X7066Y5742D01*
X7066Y5741D01*
X7066Y5740D01*
X7066Y5740D01*
Y5740D01*
X7065Y5738D01*
X7065Y5737D01*
X7064Y5736D01*
X7064Y5735D01*
X7063Y5734D01*
X7063Y5734D01*
X7063Y5733D01*
X7063Y5733D01*
X7061Y5731D01*
X7059Y5730D01*
X7059Y5729D01*
X7058Y5729D01*
X7058Y5729D01*
X7057Y5729D01*
X7056Y5728D01*
X7055Y5728D01*
X7054Y5728D01*
X7052Y5727D01*
X7051D01*
X7050Y5727D01*
X7050D01*
X7048Y5727D01*
X7047Y5727D01*
X7045Y5728D01*
X7044Y5728D01*
X7043Y5728D01*
X7042Y5729D01*
X7042Y5729D01*
X7042D01*
X7040Y5730D01*
X7039Y5731D01*
X7038Y5732D01*
X7038Y5732D01*
X7037Y5733D01*
X7037Y5733D01*
X7037Y5733D01*
X7036Y5736D01*
X7035Y5738D01*
X7034Y5739D01*
X7034Y5740D01*
X7034Y5740D01*
Y5740D01*
X7034Y5743D01*
X7033Y5745D01*
Y5746D01*
X7033Y5747D01*
Y5748D01*
Y5748D01*
Y5749D01*
Y5750D01*
X7033Y5752D01*
X7034Y5753D01*
X7034Y5755D01*
X7034Y5756D01*
X7034Y5756D01*
X7034Y5757D01*
Y5757D01*
X7035Y5758D01*
X7035Y5760D01*
X7036Y5761D01*
X7036Y5762D01*
X7037Y5763D01*
X7037Y5763D01*
X7037Y5764D01*
X7037Y5764D01*
X7039Y5766D01*
X7041Y5767D01*
X7041Y5767D01*
X7042Y5768D01*
X7042Y5768D01*
X7042D01*
X7044Y5769D01*
X7045Y5769D01*
X7046Y5769D01*
X7047Y5770D01*
X7049D01*
X7049Y5770D01*
D02*
G37*
G36*
X7828Y5746D02*
X7838D01*
Y5735D01*
X7837Y5733D01*
X7835Y5732D01*
X7834Y5731D01*
X7833Y5730D01*
X7832Y5729D01*
X7832Y5729D01*
X7831Y5729D01*
X7831Y5729D01*
X7830Y5728D01*
X7828Y5727D01*
X7827Y5727D01*
X7826Y5727D01*
X7825Y5727D01*
X7824Y5727D01*
X7824D01*
X7822Y5727D01*
X7821Y5727D01*
X7819Y5727D01*
X7818Y5728D01*
X7818Y5728D01*
X7817Y5729D01*
X7817Y5729D01*
X7816Y5729D01*
X7816Y5730D01*
X7815Y5731D01*
X7814Y5732D01*
X7814Y5733D01*
X7814Y5734D01*
X7814Y5735D01*
Y5736D01*
Y5736D01*
X7814Y5737D01*
X7814Y5739D01*
X7814Y5739D01*
X7814Y5740D01*
X7815Y5740D01*
Y5740D01*
X7815Y5741D01*
X7816Y5742D01*
X7817Y5743D01*
X7817Y5743D01*
X7818D01*
X7819Y5744D01*
X7821Y5745D01*
X7821Y5745D01*
X7822Y5745D01*
X7822Y5745D01*
X7822D01*
X7825Y5746D01*
X7826Y5746D01*
X7827D01*
X7828Y5746D01*
D02*
G37*
G36*
X7453Y5770D02*
X7453D01*
X7455Y5770D01*
X7457Y5770D01*
X7458Y5769D01*
X7459Y5769D01*
X7460Y5769D01*
X7461Y5768D01*
X7461Y5768D01*
X7461Y5768D01*
X7462Y5767D01*
X7463Y5767D01*
X7464Y5766D01*
X7465Y5765D01*
X7466Y5764D01*
X7466Y5764D01*
X7466Y5764D01*
X7466Y5763D01*
X7468Y5761D01*
X7468Y5759D01*
X7469Y5758D01*
X7469Y5757D01*
X7469Y5757D01*
Y5757D01*
X7470Y5754D01*
X7470Y5752D01*
Y5751D01*
X7470Y5750D01*
Y5749D01*
Y5748D01*
Y5748D01*
X7470Y5745D01*
X7470Y5744D01*
X7470Y5742D01*
X7469Y5741D01*
X7469Y5740D01*
X7469Y5740D01*
Y5740D01*
X7469Y5738D01*
X7468Y5737D01*
X7468Y5736D01*
X7467Y5735D01*
X7467Y5734D01*
X7466Y5734D01*
X7466Y5733D01*
X7466Y5733D01*
X7464Y5731D01*
X7462Y5730D01*
X7462Y5729D01*
X7461Y5729D01*
X7461Y5729D01*
X7461Y5729D01*
X7459Y5728D01*
X7458Y5728D01*
X7457Y5728D01*
X7456Y5727D01*
X7455D01*
X7454Y5727D01*
X7453D01*
X7451Y5727D01*
X7450Y5727D01*
X7448Y5728D01*
X7447Y5728D01*
X7446Y5728D01*
X7446Y5729D01*
X7445Y5729D01*
X7445D01*
X7443Y5730D01*
X7442Y5731D01*
X7441Y5732D01*
X7441Y5732D01*
X7440Y5733D01*
X7440Y5733D01*
X7440Y5733D01*
X7439Y5736D01*
X7438Y5738D01*
X7438Y5739D01*
X7437Y5740D01*
X7437Y5740D01*
Y5740D01*
X7437Y5743D01*
X7437Y5745D01*
Y5746D01*
X7436Y5747D01*
Y5748D01*
Y5748D01*
Y5749D01*
Y5750D01*
X7437Y5752D01*
X7437Y5753D01*
X7437Y5755D01*
X7437Y5756D01*
X7437Y5756D01*
X7437Y5757D01*
Y5757D01*
X7438Y5758D01*
X7438Y5760D01*
X7439Y5761D01*
X7439Y5762D01*
X7440Y5763D01*
X7440Y5763D01*
X7440Y5764D01*
X7441Y5764D01*
X7442Y5766D01*
X7444Y5767D01*
X7445Y5767D01*
X7445Y5768D01*
X7446Y5768D01*
X7446D01*
X7447Y5769D01*
X7448Y5769D01*
X7450Y5769D01*
X7451Y5770D01*
X7452D01*
X7453Y5770D01*
D02*
G37*
G36*
X6971Y5756D02*
X6986D01*
X6987Y5756D01*
X6988Y5756D01*
X6990Y5755D01*
X6991Y5755D01*
X6991Y5755D01*
X6992Y5755D01*
X6992D01*
X6994Y5754D01*
X6995Y5754D01*
X6996Y5753D01*
X6996Y5753D01*
X6997Y5752D01*
X6997Y5752D01*
X6997Y5752D01*
X6999Y5751D01*
X7000Y5749D01*
X7000Y5749D01*
X7000Y5748D01*
X7000Y5748D01*
Y5748D01*
X7001Y5746D01*
X7001Y5744D01*
X7001Y5743D01*
Y5742D01*
Y5742D01*
Y5742D01*
X7001Y5739D01*
X7001Y5738D01*
X7001Y5737D01*
X7001Y5737D01*
X7000Y5736D01*
X7000Y5736D01*
Y5736D01*
X6999Y5734D01*
X6998Y5733D01*
X6997Y5732D01*
X6997Y5732D01*
X6997Y5732D01*
X6996Y5731D01*
X6994Y5730D01*
X6993Y5730D01*
X6993Y5729D01*
X6993Y5729D01*
X6992D01*
X6990Y5729D01*
X6988Y5729D01*
X6988Y5728D01*
X6971D01*
Y5756D01*
D02*
G37*
G36*
X7942Y5770D02*
X7944D01*
X7946Y5770D01*
X7948Y5770D01*
X7950Y5769D01*
X7952Y5768D01*
X7953Y5767D01*
X7954Y5767D01*
X7954Y5766D01*
X7954Y5766D01*
X7955Y5764D01*
X7956Y5762D01*
X7957Y5760D01*
X7957Y5758D01*
X7958Y5756D01*
X7958Y5755D01*
Y5754D01*
Y5754D01*
Y5754D01*
Y5754D01*
X7928D01*
X7929Y5756D01*
X7929Y5757D01*
X7929Y5758D01*
X7929Y5759D01*
X7929Y5759D01*
X7929Y5760D01*
Y5760D01*
X7930Y5762D01*
X7931Y5763D01*
X7931Y5764D01*
X7932Y5764D01*
X7932Y5765D01*
X7932Y5765D01*
X7932Y5765D01*
X7934Y5767D01*
X7935Y5768D01*
X7936Y5768D01*
X7937Y5769D01*
X7937Y5769D01*
X7937D01*
X7939Y5770D01*
X7941Y5770D01*
X7942Y5770D01*
D02*
G37*
G36*
X7585Y5770D02*
X7585D01*
X7587Y5770D01*
X7588Y5769D01*
X7589Y5769D01*
X7590Y5769D01*
X7591Y5768D01*
X7591Y5768D01*
X7592Y5768D01*
X7592Y5768D01*
X7593Y5766D01*
X7595Y5765D01*
X7595Y5764D01*
X7596Y5764D01*
X7596Y5763D01*
Y5763D01*
X7597Y5761D01*
X7597Y5760D01*
X7598Y5758D01*
X7598Y5757D01*
X7598Y5757D01*
X7598Y5756D01*
Y5756D01*
X7598Y5753D01*
X7599Y5752D01*
Y5751D01*
X7599Y5750D01*
Y5749D01*
Y5748D01*
Y5748D01*
X7599Y5745D01*
X7598Y5744D01*
X7598Y5743D01*
X7598Y5742D01*
X7598Y5741D01*
X7598Y5741D01*
Y5741D01*
X7597Y5738D01*
X7597Y5737D01*
X7596Y5736D01*
X7596Y5735D01*
X7596Y5734D01*
X7596Y5734D01*
X7595Y5734D01*
X7594Y5732D01*
X7593Y5731D01*
X7593Y5730D01*
X7592Y5730D01*
X7591Y5729D01*
X7591Y5729D01*
X7591Y5729D01*
X7590Y5728D01*
X7589Y5728D01*
X7587Y5728D01*
X7586Y5727D01*
X7585Y5727D01*
X7585D01*
X7583Y5727D01*
X7582Y5728D01*
X7580Y5728D01*
X7579Y5729D01*
X7578Y5729D01*
X7578Y5730D01*
X7577Y5730D01*
X7577Y5730D01*
X7575Y5731D01*
X7574Y5732D01*
X7573Y5734D01*
X7572Y5735D01*
X7571Y5736D01*
X7570Y5737D01*
X7569Y5737D01*
X7569Y5738D01*
Y5759D01*
X7571Y5761D01*
X7572Y5762D01*
X7573Y5763D01*
X7573Y5764D01*
X7573Y5764D01*
X7573Y5764D01*
X7575Y5765D01*
X7576Y5766D01*
X7577Y5767D01*
X7577Y5767D01*
X7578Y5767D01*
X7578D01*
X7579Y5768D01*
X7580Y5769D01*
X7581Y5769D01*
X7581Y5769D01*
X7581D01*
X7583Y5769D01*
X7584Y5770D01*
X7585Y5770D01*
D02*
G37*
G36*
X7520D02*
X7521D01*
X7522Y5770D01*
X7523Y5769D01*
X7524Y5769D01*
X7525Y5769D01*
X7526Y5768D01*
X7527Y5768D01*
X7527Y5768D01*
X7527Y5768D01*
X7529Y5766D01*
X7530Y5765D01*
X7531Y5764D01*
X7531Y5764D01*
X7531Y5763D01*
Y5763D01*
X7532Y5761D01*
X7533Y5760D01*
X7533Y5758D01*
X7533Y5757D01*
X7533Y5757D01*
X7534Y5756D01*
Y5756D01*
X7534Y5753D01*
X7534Y5752D01*
Y5751D01*
X7534Y5750D01*
Y5749D01*
Y5748D01*
Y5748D01*
X7534Y5745D01*
X7534Y5744D01*
X7534Y5743D01*
X7534Y5742D01*
X7534Y5741D01*
X7533Y5741D01*
Y5741D01*
X7533Y5738D01*
X7532Y5737D01*
X7532Y5736D01*
X7531Y5735D01*
X7531Y5734D01*
X7531Y5734D01*
X7531Y5734D01*
X7529Y5732D01*
X7529Y5731D01*
X7528Y5730D01*
X7527Y5730D01*
X7527Y5729D01*
X7527Y5729D01*
X7526Y5729D01*
X7525Y5728D01*
X7524Y5728D01*
X7522Y5728D01*
X7521Y5727D01*
X7521Y5727D01*
X7520D01*
X7519Y5727D01*
X7517Y5728D01*
X7516Y5728D01*
X7515Y5729D01*
X7514Y5729D01*
X7513Y5730D01*
X7512Y5730D01*
X7512Y5730D01*
X7511Y5731D01*
X7510Y5732D01*
X7508Y5734D01*
X7507Y5735D01*
X7506Y5736D01*
X7505Y5737D01*
X7505Y5737D01*
X7505Y5738D01*
Y5759D01*
X7506Y5761D01*
X7508Y5762D01*
X7508Y5763D01*
X7509Y5764D01*
X7509Y5764D01*
X7509Y5764D01*
X7510Y5765D01*
X7512Y5766D01*
X7512Y5767D01*
X7513Y5767D01*
X7513Y5767D01*
X7513D01*
X7515Y5768D01*
X7516Y5769D01*
X7517Y5769D01*
X7517Y5769D01*
X7517D01*
X7518Y5769D01*
X7520Y5770D01*
X7520Y5770D01*
D02*
G37*
G36*
X9489Y2270D02*
X9594D01*
X9605Y2269D01*
X9616Y2264D01*
X9625Y2257D01*
X9632Y2248D01*
X9636Y2238D01*
X9638Y2227D01*
X9636Y2216D01*
X9632Y2205D01*
X9625Y2196D01*
X9616Y2189D01*
X9605Y2185D01*
X9594Y2183D01*
X9489D01*
X9478Y2185D01*
X9467Y2189D01*
X9458Y2196D01*
X9452Y2205D01*
X9447Y2216D01*
X9446Y2227D01*
X9447Y2238D01*
X9452Y2248D01*
X9458Y2257D01*
X9467Y2264D01*
X9478Y2269D01*
X9489Y2270D01*
D02*
G37*
G36*
X10222Y2270D02*
X10327D01*
X10339Y2269D01*
X10349Y2264D01*
X10358Y2258D01*
X10365Y2249D01*
X10369Y2238D01*
X10371Y2227D01*
X10369Y2216D01*
X10365Y2205D01*
X10358Y2196D01*
X10349Y2189D01*
X10339Y2185D01*
X10327Y2183D01*
X10222D01*
X10211Y2185D01*
X10201Y2189D01*
X10192Y2196D01*
X10185Y2205D01*
X10180Y2216D01*
X10179Y2227D01*
X10180Y2238D01*
X10185Y2249D01*
X10192Y2258D01*
X10201Y2264D01*
X10211Y2269D01*
X10222Y2270D01*
D02*
G37*
G36*
X8707Y2164D02*
X8904D01*
X8917Y2163D01*
X8928Y2158D01*
X8938Y2150D01*
X8946Y2141D01*
X8950Y2129D01*
X8952Y2117D01*
X8950Y2104D01*
X8946Y2093D01*
X8938Y2083D01*
X8928Y2075D01*
X8917Y2071D01*
X8904Y2069D01*
X8707D01*
X8695Y2071D01*
X8684Y2075D01*
X8674Y2083D01*
X8666Y2093D01*
X8661Y2104D01*
X8660Y2117D01*
X8661Y2129D01*
X8666Y2141D01*
X8674Y2150D01*
X8684Y2158D01*
X8695Y2163D01*
X8707Y2164D01*
D02*
G37*
G36*
X10958Y2270D02*
X11063D01*
X11074Y2269D01*
X11084Y2264D01*
X11093Y2257D01*
X11100Y2248D01*
X11105Y2238D01*
X11106Y2227D01*
X11105Y2216D01*
X11100Y2205D01*
X11093Y2196D01*
X11084Y2189D01*
X11074Y2185D01*
X11063Y2183D01*
X10958D01*
X10946Y2185D01*
X10936Y2189D01*
X10927Y2196D01*
X10920Y2205D01*
X10916Y2216D01*
X10914Y2227D01*
X10916Y2238D01*
X10920Y2248D01*
X10927Y2257D01*
X10936Y2264D01*
X10946Y2269D01*
X10958Y2270D01*
D02*
G37*
G36*
X11566Y2360D02*
X11611D01*
Y2348D01*
X11566D01*
Y2360D01*
D02*
G37*
G36*
X11502D02*
X11546D01*
Y2348D01*
X11502D01*
Y2360D01*
D02*
G37*
G36*
X10052Y2308D02*
X10061Y2307D01*
X10069Y2304D01*
X10075Y2299D01*
X10081Y2292D01*
X10084Y2284D01*
X10085Y2275D01*
X10084Y2266D01*
X10081Y2258D01*
X10075Y2251D01*
X10069Y2246D01*
X10061Y2243D01*
X10052Y2242D01*
X10043Y2243D01*
X10035Y2246D01*
X10028Y2251D01*
X10023Y2258D01*
X10020Y2266D01*
X10019Y2275D01*
X10020Y2284D01*
X10023Y2292D01*
X10028Y2299D01*
X10035Y2304D01*
X10043Y2307D01*
X10052Y2308D01*
D02*
G37*
G36*
X9945Y2372D02*
X9954Y2371D01*
X9961Y2366D01*
X9966Y2359D01*
X9968Y2350D01*
X9966Y2341D01*
X9961Y2334D01*
X9954Y2329D01*
X9945Y2328D01*
X9937Y2329D01*
X9929Y2334D01*
X9925Y2341D01*
X9923Y2350D01*
X9925Y2359D01*
X9929Y2366D01*
X9937Y2371D01*
X9945Y2372D01*
D02*
G37*
G36*
X10279Y1552D02*
X10306D01*
Y1525D01*
X10279D01*
Y1552D01*
D02*
G37*
G36*
Y1598D02*
X10306D01*
Y1572D01*
X10279D01*
Y1598D01*
D02*
G37*
G36*
X10199Y1471D02*
X10201Y1471D01*
X10212Y1467D01*
X10222Y1462D01*
X10232Y1454D01*
X10239Y1445D01*
X10245Y1435D01*
X10248Y1424D01*
X10248Y1422D01*
X10199D01*
Y1471D01*
D02*
G37*
G36*
X10179D02*
Y1422D01*
X10130D01*
X10130Y1424D01*
X10133Y1435D01*
X10139Y1445D01*
X10146Y1454D01*
X10156Y1462D01*
X10166Y1467D01*
X10177Y1471D01*
X10179Y1471D01*
D02*
G37*
G36*
X10146Y1723D02*
X10155Y1722D01*
X10163Y1717D01*
X10164Y1714D01*
X10571D01*
X10572Y1717D01*
X10580Y1722D01*
X10589Y1723D01*
X10598Y1722D01*
X10606Y1717D01*
X10611Y1709D01*
X10612Y1700D01*
X10611Y1691D01*
X10606Y1683D01*
X10598Y1678D01*
X10589Y1677D01*
X10580Y1678D01*
X10572Y1683D01*
X10571Y1686D01*
X10164D01*
X10163Y1683D01*
X10155Y1678D01*
X10146Y1677D01*
X10137Y1678D01*
X10130Y1683D01*
X10124Y1691D01*
X10123Y1700D01*
X10124Y1709D01*
X10130Y1717D01*
X10137Y1722D01*
X10146Y1723D01*
D02*
G37*
G36*
X11262Y2164D02*
X11459D01*
X11472Y2163D01*
X11483Y2158D01*
X11493Y2150D01*
X11501Y2141D01*
X11505Y2129D01*
X11507Y2117D01*
X11505Y2104D01*
X11501Y2093D01*
X11493Y2083D01*
X11483Y2075D01*
X11472Y2071D01*
X11459Y2069D01*
X11262D01*
X11250Y2071D01*
X11239Y2075D01*
X11229Y2083D01*
X11221Y2093D01*
X11216Y2104D01*
X11215Y2117D01*
X11216Y2129D01*
X11221Y2141D01*
X11229Y2150D01*
X11239Y2158D01*
X11250Y2163D01*
X11262Y2164D01*
D02*
G37*
G36*
X10313Y1642D02*
X10330D01*
Y1629D01*
X10313D01*
Y1642D01*
D02*
G37*
G36*
Y1675D02*
X10330D01*
Y1662D01*
X10313D01*
Y1675D01*
D02*
G37*
G36*
X9846Y3999D02*
X9873D01*
Y3971D01*
X9846D01*
Y3999D01*
D02*
G37*
G36*
X9799D02*
X9826D01*
Y3971D01*
X9799D01*
Y3999D01*
D02*
G37*
G36*
X9398Y4034D02*
X9407Y4033D01*
X9415Y4030D01*
X9422Y4025D01*
X9427Y4018D01*
X9430Y4010D01*
X9431Y4001D01*
X9430Y3992D01*
X9427Y3984D01*
X9422Y3977D01*
X9415Y3972D01*
X9407Y3969D01*
X9398Y3968D01*
X9389Y3969D01*
X9381Y3972D01*
X9375Y3977D01*
X9369Y3984D01*
X9366Y3992D01*
X9365Y4001D01*
X9366Y4010D01*
X9369Y4018D01*
X9375Y4025D01*
X9381Y4030D01*
X9389Y4033D01*
X9398Y4034D01*
D02*
G37*
G36*
X9699Y3959D02*
X9729D01*
Y3938D01*
X9699D01*
Y3959D01*
D02*
G37*
G36*
X10626Y4034D02*
X10635Y4033D01*
X10643Y4030D01*
X10650Y4025D01*
X10655Y4018D01*
X10658Y4010D01*
X10659Y4001D01*
X10658Y3992D01*
X10655Y3984D01*
X10650Y3977D01*
X10643Y3972D01*
X10635Y3969D01*
X10626Y3968D01*
X10617Y3969D01*
X10609Y3972D01*
X10603Y3977D01*
X10597Y3984D01*
X10594Y3992D01*
X10593Y4001D01*
X10594Y4010D01*
X10597Y4018D01*
X10603Y4025D01*
X10609Y4030D01*
X10617Y4033D01*
X10626Y4034D01*
D02*
G37*
G36*
X10427Y4070D02*
X10455D01*
Y4043D01*
X10427D01*
Y4070D01*
D02*
G37*
G36*
X9398Y4113D02*
X9407Y4112D01*
X9415Y4109D01*
X9422Y4103D01*
X9427Y4096D01*
X9430Y4088D01*
X9431Y4080D01*
X9430Y4071D01*
X9427Y4063D01*
X9422Y4056D01*
X9415Y4051D01*
X9407Y4048D01*
X9398Y4046D01*
X9389Y4048D01*
X9381Y4051D01*
X9375Y4056D01*
X9369Y4063D01*
X9366Y4071D01*
X9365Y4080D01*
X9366Y4088D01*
X9369Y4096D01*
X9375Y4103D01*
X9381Y4109D01*
X9389Y4112D01*
X9398Y4113D01*
D02*
G37*
G36*
X10826Y4138D02*
X10835Y4137D01*
X10843Y4134D01*
X10850Y4129D01*
X10855Y4122D01*
X10858Y4114D01*
X10859Y4105D01*
X10858Y4096D01*
X10855Y4088D01*
X10850Y4081D01*
X10843Y4076D01*
X10835Y4073D01*
X10826Y4072D01*
X10817Y4073D01*
X10809Y4076D01*
X10803Y4081D01*
X10797Y4088D01*
X10796Y4092D01*
X10692D01*
X10670Y4071D01*
X10666Y4068D01*
X10661Y4067D01*
X10656D01*
X10655Y4063D01*
X10650Y4056D01*
X10643Y4051D01*
X10635Y4048D01*
X10626Y4046D01*
X10617Y4048D01*
X10609Y4051D01*
X10603Y4056D01*
X10597Y4063D01*
X10596Y4067D01*
X10568D01*
Y4050D01*
X10510D01*
X10509Y4049D01*
X10505Y4046D01*
X10502Y4046D01*
Y4043D01*
X10475D01*
Y4080D01*
X10465D01*
Y4090D01*
X10427D01*
Y4117D01*
X10502D01*
Y4114D01*
X10505Y4114D01*
X10509Y4111D01*
X10510Y4110D01*
X10568D01*
Y4093D01*
X10596D01*
X10597Y4096D01*
X10603Y4103D01*
X10609Y4109D01*
X10617Y4112D01*
X10626Y4113D01*
X10635Y4112D01*
X10643Y4109D01*
X10650Y4103D01*
X10654Y4097D01*
X10659Y4097D01*
X10677Y4114D01*
X10681Y4117D01*
X10686Y4118D01*
X10796D01*
X10797Y4122D01*
X10803Y4129D01*
X10809Y4134D01*
X10817Y4137D01*
X10826Y4138D01*
D02*
G37*
G36*
X9749Y4001D02*
X9780D01*
Y3979D01*
X9749D01*
Y4001D01*
D02*
G37*
G36*
X9699D02*
X9729D01*
Y3979D01*
X9699D01*
Y4001D01*
D02*
G37*
G36*
X9749Y3959D02*
X9780D01*
Y3938D01*
X9749D01*
Y3959D01*
D02*
G37*
G36*
X9262Y3872D02*
X9284D01*
Y3841D01*
X9262D01*
Y3872D01*
D02*
G37*
G36*
X10501Y3877D02*
X10505Y3877D01*
X10509Y3874D01*
X10510Y3873D01*
X10568D01*
Y3857D01*
X10596D01*
X10597Y3860D01*
X10603Y3867D01*
X10609Y3872D01*
X10617Y3876D01*
X10626Y3877D01*
X10635Y3876D01*
X10643Y3872D01*
X10650Y3867D01*
X10655Y3860D01*
X10658Y3852D01*
X10659Y3844D01*
X10658Y3835D01*
X10655Y3827D01*
X10650Y3820D01*
X10643Y3815D01*
X10635Y3811D01*
X10626Y3810D01*
X10617Y3811D01*
X10609Y3815D01*
X10603Y3820D01*
X10597Y3827D01*
X10597Y3829D01*
X10568D01*
Y3813D01*
X10510D01*
X10509Y3812D01*
X10505Y3809D01*
X10501Y3809D01*
X10497Y3809D01*
X10494Y3812D01*
X10493Y3813D01*
X10434D01*
Y3821D01*
X10430Y3824D01*
X10426Y3821D01*
X10417Y3820D01*
X10408Y3821D01*
X10401Y3826D01*
X10395Y3834D01*
X10394Y3843D01*
X10395Y3852D01*
X10401Y3860D01*
X10408Y3865D01*
X10417Y3866D01*
X10426Y3865D01*
X10430Y3862D01*
X10434Y3865D01*
Y3873D01*
X10493D01*
X10494Y3874D01*
X10497Y3877D01*
X10501Y3877D01*
D02*
G37*
G36*
X10852Y3822D02*
X10874D01*
Y3792D01*
X10852D01*
Y3822D01*
D02*
G37*
G36*
X8671Y3809D02*
X8680Y3808D01*
X8688Y3804D01*
X8695Y3799D01*
X8700Y3792D01*
X8703Y3784D01*
X8704Y3775D01*
X8703Y3767D01*
X8700Y3759D01*
X8695Y3752D01*
X8688Y3747D01*
X8680Y3743D01*
X8671Y3742D01*
X8662Y3743D01*
X8654Y3747D01*
X8648Y3752D01*
X8642Y3759D01*
X8639Y3767D01*
X8638Y3775D01*
X8639Y3784D01*
X8642Y3792D01*
X8648Y3799D01*
X8654Y3804D01*
X8662Y3808D01*
X8671Y3809D01*
D02*
G37*
G36*
X10894Y3822D02*
X10915D01*
Y3792D01*
X10894D01*
Y3822D01*
D02*
G37*
G36*
X9262Y3922D02*
X9284D01*
Y3892D01*
X9262D01*
Y3922D01*
D02*
G37*
G36*
X10427Y3957D02*
X10455D01*
Y3930D01*
X10427D01*
Y3957D01*
D02*
G37*
G36*
X9398Y3956D02*
X9407Y3954D01*
X9415Y3951D01*
X9422Y3946D01*
X9427Y3939D01*
X9430Y3931D01*
X9431Y3922D01*
X9430Y3914D01*
X9427Y3906D01*
X9422Y3899D01*
X9415Y3893D01*
X9407Y3890D01*
X9398Y3889D01*
X9389Y3890D01*
X9381Y3893D01*
X9375Y3899D01*
X9369Y3906D01*
X9366Y3914D01*
X9365Y3922D01*
X9366Y3931D01*
X9369Y3939D01*
X9375Y3946D01*
X9381Y3951D01*
X9389Y3954D01*
X9398Y3956D01*
D02*
G37*
G36*
X10826Y4038D02*
X10835Y4037D01*
X10843Y4034D01*
X10850Y4029D01*
X10855Y4022D01*
X10858Y4014D01*
X10859Y4005D01*
X10858Y3996D01*
X10855Y3988D01*
X10850Y3981D01*
X10843Y3976D01*
X10835Y3973D01*
X10826Y3972D01*
X10817Y3973D01*
X10814Y3974D01*
X10753Y3913D01*
X10748Y3910D01*
X10743Y3909D01*
X10656D01*
X10655Y3906D01*
X10650Y3899D01*
X10643Y3893D01*
X10635Y3890D01*
X10626Y3889D01*
X10617Y3890D01*
X10609Y3893D01*
X10603Y3899D01*
X10597Y3906D01*
X10596Y3909D01*
X10568D01*
Y3890D01*
X10510D01*
X10509Y3889D01*
X10505Y3886D01*
X10502Y3886D01*
Y3883D01*
X10475D01*
Y3920D01*
Y3957D01*
X10502D01*
Y3954D01*
X10505Y3954D01*
X10509Y3951D01*
X10510Y3950D01*
X10568D01*
Y3935D01*
X10596D01*
X10597Y3939D01*
X10603Y3946D01*
X10609Y3951D01*
X10617Y3954D01*
X10626Y3956D01*
X10635Y3954D01*
X10643Y3951D01*
X10650Y3946D01*
X10655Y3939D01*
X10656Y3935D01*
X10738D01*
X10795Y3993D01*
X10794Y3996D01*
X10793Y4005D01*
X10794Y4014D01*
X10797Y4022D01*
X10803Y4029D01*
X10809Y4034D01*
X10817Y4037D01*
X10826Y4038D01*
D02*
G37*
G36*
X10427Y3910D02*
X10455D01*
Y3883D01*
X10427D01*
Y3910D01*
D02*
G37*
G36*
X9855Y4354D02*
X9883D01*
Y4317D01*
Y4280D01*
X9855D01*
Y4283D01*
X9852Y4283D01*
X9849Y4286D01*
X9848Y4287D01*
X9789D01*
Y4304D01*
X9755D01*
X9743Y4291D01*
X9741Y4290D01*
Y4285D01*
X9676D01*
Y4297D01*
X9683D01*
Y4315D01*
X9730D01*
X9741Y4326D01*
X9745Y4329D01*
X9750Y4330D01*
X9789D01*
Y4347D01*
X9848D01*
X9849Y4348D01*
X9852Y4351D01*
X9855Y4351D01*
Y4354D01*
D02*
G37*
G36*
X10121Y4383D02*
X10130Y4382D01*
X10138Y4379D01*
X10145Y4374D01*
X10150Y4367D01*
X10153Y4359D01*
X10154Y4350D01*
X10153Y4341D01*
X10150Y4333D01*
X10145Y4326D01*
X10138Y4321D01*
X10130Y4318D01*
X10121Y4317D01*
X10112Y4318D01*
X10104Y4321D01*
X10098Y4326D01*
X10092Y4333D01*
X10089Y4341D01*
X10088Y4350D01*
X10089Y4359D01*
X10092Y4367D01*
X10098Y4374D01*
X10104Y4379D01*
X10112Y4382D01*
X10121Y4383D01*
D02*
G37*
G36*
X9398Y4349D02*
X9407Y4348D01*
X9415Y4345D01*
X9422Y4339D01*
X9427Y4333D01*
X9430Y4325D01*
X9431Y4316D01*
X9430Y4307D01*
X9427Y4299D01*
X9422Y4292D01*
X9415Y4287D01*
X9407Y4284D01*
X9398Y4283D01*
X9389Y4284D01*
X9381Y4287D01*
X9375Y4292D01*
X9369Y4299D01*
X9366Y4307D01*
X9365Y4316D01*
X9366Y4325D01*
X9369Y4333D01*
X9375Y4339D01*
X9381Y4345D01*
X9389Y4348D01*
X9398Y4349D01*
D02*
G37*
G36*
X10427Y4307D02*
X10455D01*
Y4280D01*
X10427D01*
Y4307D01*
D02*
G37*
G36*
X9903D02*
X9930D01*
Y4280D01*
X9903D01*
Y4307D01*
D02*
G37*
G36*
X10626Y4428D02*
X10635Y4427D01*
X10643Y4424D01*
X10650Y4418D01*
X10655Y4411D01*
X10658Y4403D01*
X10659Y4395D01*
X10658Y4386D01*
X10655Y4378D01*
X10650Y4371D01*
X10643Y4366D01*
X10635Y4363D01*
X10626Y4361D01*
X10617Y4363D01*
X10609Y4366D01*
X10603Y4371D01*
X10597Y4378D01*
X10594Y4386D01*
X10593Y4395D01*
X10594Y4403D01*
X10597Y4411D01*
X10603Y4418D01*
X10609Y4424D01*
X10617Y4427D01*
X10626Y4428D01*
D02*
G37*
G36*
X10371Y4433D02*
X10380Y4432D01*
X10388Y4429D01*
X10395Y4424D01*
X10400Y4417D01*
X10403Y4409D01*
X10404Y4400D01*
X10403Y4391D01*
X10400Y4383D01*
X10395Y4376D01*
X10388Y4371D01*
X10380Y4368D01*
X10371Y4367D01*
X10362Y4368D01*
X10354Y4371D01*
X10348Y4376D01*
X10342Y4383D01*
X10339Y4391D01*
X10338Y4400D01*
X10339Y4409D01*
X10342Y4417D01*
X10348Y4424D01*
X10354Y4429D01*
X10362Y4432D01*
X10371Y4433D01*
D02*
G37*
G36*
X10475Y4354D02*
X10502D01*
Y4351D01*
X10505Y4351D01*
X10509Y4348D01*
X10510Y4347D01*
X10568D01*
Y4330D01*
X10596D01*
X10597Y4333D01*
X10603Y4339D01*
X10609Y4345D01*
X10617Y4348D01*
X10626Y4349D01*
X10635Y4348D01*
X10643Y4345D01*
X10650Y4339D01*
X10655Y4333D01*
X10656Y4330D01*
X10796D01*
X10796Y4332D01*
X10802Y4339D01*
X10808Y4344D01*
X10816Y4347D01*
X10825Y4348D01*
X10834Y4347D01*
X10842Y4344D01*
X10849Y4339D01*
X10854Y4332D01*
X10857Y4324D01*
X10858Y4315D01*
X10857Y4306D01*
X10854Y4298D01*
X10849Y4291D01*
X10842Y4286D01*
X10834Y4283D01*
X10825Y4282D01*
X10816Y4283D01*
X10808Y4286D01*
X10802Y4291D01*
X10796Y4298D01*
X10794Y4304D01*
X10657D01*
X10655Y4299D01*
X10650Y4292D01*
X10643Y4287D01*
X10635Y4284D01*
X10626Y4283D01*
X10617Y4284D01*
X10609Y4287D01*
X10603Y4292D01*
X10597Y4299D01*
X10595Y4304D01*
X10568D01*
Y4287D01*
X10510D01*
X10509Y4286D01*
X10505Y4283D01*
X10502Y4283D01*
Y4280D01*
X10475D01*
Y4317D01*
Y4354D01*
D02*
G37*
G36*
X10427D02*
X10455D01*
Y4327D01*
X10427D01*
Y4354D01*
D02*
G37*
G36*
X9903D02*
X9930D01*
Y4327D01*
X9903D01*
Y4354D01*
D02*
G37*
G36*
X9676Y4265D02*
X9741D01*
Y4253D01*
X9734D01*
Y4235D01*
X9683D01*
Y4253D01*
X9676D01*
Y4265D01*
D02*
G37*
G36*
X10826Y4239D02*
X10835Y4238D01*
X10843Y4235D01*
X10850Y4230D01*
X10855Y4223D01*
X10858Y4215D01*
X10859Y4206D01*
X10858Y4197D01*
X10855Y4189D01*
X10850Y4182D01*
X10843Y4177D01*
X10835Y4174D01*
X10826Y4173D01*
X10817Y4174D01*
X10809Y4177D01*
X10803Y4182D01*
X10797Y4189D01*
X10796Y4193D01*
X10743D01*
X10699Y4150D01*
X10695Y4147D01*
X10690Y4146D01*
X10657D01*
X10655Y4142D01*
X10650Y4135D01*
X10643Y4130D01*
X10635Y4126D01*
X10626Y4125D01*
X10617Y4126D01*
X10609Y4130D01*
X10603Y4135D01*
X10597Y4142D01*
X10596Y4146D01*
X10568D01*
Y4130D01*
X10510D01*
X10509Y4129D01*
X10505Y4126D01*
X10502Y4126D01*
Y4123D01*
X10427D01*
Y4150D01*
X10465D01*
Y4160D01*
X10475D01*
Y4197D01*
X10502D01*
Y4194D01*
X10505Y4194D01*
X10509Y4191D01*
X10510Y4190D01*
X10568D01*
Y4172D01*
X10596D01*
X10597Y4175D01*
X10603Y4182D01*
X10609Y4187D01*
X10617Y4191D01*
X10626Y4192D01*
X10635Y4191D01*
X10643Y4187D01*
X10650Y4182D01*
X10655Y4175D01*
X10656Y4172D01*
X10685D01*
X10728Y4215D01*
X10732Y4218D01*
X10737Y4219D01*
X10796D01*
X10797Y4223D01*
X10803Y4230D01*
X10809Y4235D01*
X10817Y4238D01*
X10826Y4239D01*
D02*
G37*
G36*
X9398Y4192D02*
X9407Y4191D01*
X9415Y4187D01*
X9422Y4182D01*
X9427Y4175D01*
X9430Y4167D01*
X9431Y4158D01*
X9430Y4150D01*
X9427Y4142D01*
X9422Y4135D01*
X9415Y4130D01*
X9407Y4126D01*
X9398Y4125D01*
X9389Y4126D01*
X9381Y4130D01*
X9375Y4135D01*
X9369Y4142D01*
X9366Y4150D01*
X9365Y4158D01*
X9366Y4167D01*
X9369Y4175D01*
X9375Y4182D01*
X9381Y4187D01*
X9389Y4191D01*
X9398Y4192D01*
D02*
G37*
G36*
X9221Y4183D02*
X9230Y4182D01*
X9238Y4179D01*
X9245Y4174D01*
X9250Y4167D01*
X9253Y4159D01*
X9254Y4150D01*
X9253Y4141D01*
X9250Y4133D01*
X9245Y4126D01*
X9238Y4121D01*
X9230Y4118D01*
X9221Y4117D01*
X9212Y4118D01*
X9204Y4121D01*
X9198Y4126D01*
X9192Y4133D01*
X9189Y4141D01*
X9188Y4150D01*
X9189Y4159D01*
X9192Y4167D01*
X9198Y4174D01*
X9204Y4179D01*
X9212Y4182D01*
X9221Y4183D01*
D02*
G37*
G36*
X10251Y4113D02*
X10260Y4112D01*
X10268Y4107D01*
X10273Y4099D01*
X10275Y4090D01*
X10273Y4081D01*
X10268Y4073D01*
X10260Y4068D01*
X10251Y4067D01*
X10242Y4068D01*
X10241Y4069D01*
X10136D01*
X10129Y4068D01*
X10120Y4069D01*
X10113Y4074D01*
X10108Y4081D01*
X10106Y4090D01*
X10108Y4099D01*
X10113Y4106D01*
X10120Y4111D01*
X10129Y4112D01*
X10136Y4111D01*
X10241D01*
X10242Y4112D01*
X10251Y4113D01*
D02*
G37*
G36*
X8895Y4072D02*
X8925D01*
X8929Y4071D01*
X8932Y4069D01*
X8932Y4068D01*
X8934Y4069D01*
X8937Y4070D01*
X9095D01*
X9098Y4069D01*
X9100Y4068D01*
X9102Y4065D01*
X9103Y4062D01*
Y3992D01*
X9232D01*
Y4002D01*
X9281D01*
Y3935D01*
X9232D01*
Y3945D01*
X9103D01*
Y3668D01*
X9102Y3665D01*
X9100Y3662D01*
X9098Y3661D01*
X9095Y3660D01*
X8937D01*
X8934Y3661D01*
X8933Y3661D01*
X8932Y3661D01*
X8929Y3658D01*
X8925Y3657D01*
X8895D01*
X8891Y3658D01*
X8887Y3661D01*
X8887Y3662D01*
X8885Y3661D01*
X8882Y3660D01*
X8827D01*
Y3609D01*
X8826Y3606D01*
Y3558D01*
X8767D01*
Y3558D01*
X8762Y3558D01*
X8761Y3557D01*
X8757Y3556D01*
X8717D01*
X8713Y3557D01*
X8713Y3558D01*
X8708Y3558D01*
Y3558D01*
X8649D01*
Y3642D01*
X8660D01*
Y3661D01*
X8657Y3666D01*
X8655Y3675D01*
X8657Y3684D01*
X8662Y3692D01*
X8669Y3697D01*
X8678Y3698D01*
X8687Y3697D01*
X8695Y3692D01*
X8700Y3684D01*
X8702Y3675D01*
X8700Y3666D01*
X8697Y3661D01*
Y3642D01*
X8708D01*
Y3642D01*
X8713Y3642D01*
X8713Y3643D01*
X8717Y3644D01*
X8757D01*
X8761Y3643D01*
X8762Y3642D01*
X8767Y3642D01*
Y3642D01*
X8785D01*
Y3660D01*
X8725D01*
X8721Y3661D01*
X8719Y3662D01*
X8717Y3665D01*
X8716Y3668D01*
Y4036D01*
X8716Y4036D01*
X8717Y4039D01*
X8719Y4042D01*
X8719Y4042D01*
X8744Y4068D01*
X8747Y4069D01*
X8750Y4070D01*
X8750Y4070D01*
X8882D01*
X8885Y4069D01*
X8887Y4068D01*
X8887Y4069D01*
X8891Y4071D01*
X8895Y4072D01*
D02*
G37*
G36*
X9121Y4233D02*
X9130Y4232D01*
X9138Y4229D01*
X9145Y4224D01*
X9150Y4217D01*
X9153Y4209D01*
X9154Y4200D01*
X9153Y4191D01*
X9150Y4183D01*
X9145Y4176D01*
X9138Y4171D01*
X9130Y4168D01*
X9121Y4167D01*
X9112Y4168D01*
X9104Y4171D01*
X9098Y4176D01*
X9092Y4183D01*
X9089Y4191D01*
X9088Y4200D01*
X9089Y4209D01*
X9092Y4217D01*
X9098Y4224D01*
X9104Y4229D01*
X9112Y4232D01*
X9121Y4233D01*
D02*
G37*
G36*
X9398Y4270D02*
X9407Y4269D01*
X9415Y4266D01*
X9422Y4261D01*
X9427Y4254D01*
X9430Y4246D01*
X9431Y4237D01*
X9430Y4229D01*
X9427Y4221D01*
X9422Y4214D01*
X9415Y4208D01*
X9407Y4205D01*
X9398Y4204D01*
X9389Y4205D01*
X9381Y4208D01*
X9375Y4214D01*
X9369Y4221D01*
X9366Y4229D01*
X9365Y4237D01*
X9366Y4246D01*
X9369Y4254D01*
X9375Y4261D01*
X9381Y4266D01*
X9389Y4269D01*
X9398Y4270D01*
D02*
G37*
G36*
X10626D02*
X10635Y4269D01*
X10643Y4266D01*
X10650Y4261D01*
X10655Y4254D01*
X10658Y4246D01*
X10659Y4237D01*
X10658Y4229D01*
X10655Y4221D01*
X10650Y4214D01*
X10643Y4208D01*
X10635Y4205D01*
X10626Y4204D01*
X10617Y4205D01*
X10609Y4208D01*
X10603Y4214D01*
X10597Y4221D01*
X10596Y4225D01*
X10454D01*
X10430Y4201D01*
X10432Y4197D01*
X10455D01*
Y4170D01*
X10427D01*
Y4192D01*
X10422Y4194D01*
X10419Y4191D01*
X10415Y4188D01*
X10410Y4187D01*
X10401D01*
X10400Y4183D01*
X10395Y4176D01*
X10388Y4171D01*
X10380Y4168D01*
X10371Y4167D01*
X10362Y4168D01*
X10354Y4171D01*
X10348Y4176D01*
X10342Y4183D01*
X10339Y4191D01*
X10338Y4200D01*
X10339Y4209D01*
X10342Y4217D01*
X10348Y4224D01*
X10354Y4229D01*
X10362Y4232D01*
X10371Y4233D01*
X10380Y4232D01*
X10388Y4229D01*
X10395Y4224D01*
X10400Y4217D01*
X10401Y4215D01*
X10405Y4214D01*
X10439Y4247D01*
X10443Y4250D01*
X10448Y4251D01*
X10596D01*
X10597Y4254D01*
X10603Y4261D01*
X10609Y4266D01*
X10617Y4269D01*
X10626Y4270D01*
D02*
G37*
G36*
X11163Y4303D02*
X11175Y4302D01*
X11186Y4297D01*
X11195Y4290D01*
X11202Y4280D01*
X11207Y4269D01*
X11209Y4258D01*
Y4182D01*
X11207Y4171D01*
X11202Y4160D01*
X11195Y4150D01*
X11186Y4143D01*
X11175Y4138D01*
X11163Y4137D01*
X11151Y4138D01*
X11140Y4143D01*
X11130Y4150D01*
X11123Y4160D01*
X11118Y4171D01*
X11117Y4182D01*
Y4258D01*
X11118Y4269D01*
X11123Y4280D01*
X11130Y4290D01*
X11140Y4297D01*
X11151Y4302D01*
X11163Y4303D01*
D02*
G37*
G36*
X9031D02*
X9043Y4302D01*
X9054Y4297D01*
X9064Y4290D01*
X9071Y4280D01*
X9075Y4269D01*
X9077Y4258D01*
Y4182D01*
X9075Y4171D01*
X9071Y4160D01*
X9064Y4150D01*
X9054Y4143D01*
X9043Y4138D01*
X9031Y4137D01*
X9019Y4138D01*
X9008Y4143D01*
X8999Y4150D01*
X8991Y4160D01*
X8987Y4171D01*
X8985Y4182D01*
Y4258D01*
X8987Y4269D01*
X8991Y4280D01*
X8999Y4290D01*
X9008Y4297D01*
X9019Y4302D01*
X9031Y4303D01*
D02*
G37*
G36*
X10735Y3356D02*
X10843D01*
X10848Y3355D01*
X10852Y3352D01*
X10945Y3259D01*
X10971D01*
Y3279D01*
X11079D01*
Y3212D01*
X10971D01*
Y3232D01*
X10939D01*
X10934Y3233D01*
X10930Y3236D01*
X10837Y3329D01*
X10795D01*
X10793Y3324D01*
X10795Y3324D01*
X10800Y3317D01*
X10803Y3309D01*
X10804Y3300D01*
X10803Y3291D01*
X10800Y3283D01*
X10795Y3276D01*
X10788Y3271D01*
X10780Y3268D01*
X10771Y3267D01*
X10762Y3268D01*
X10754Y3271D01*
X10748Y3276D01*
X10742Y3283D01*
X10739Y3291D01*
X10738Y3300D01*
X10739Y3309D01*
X10742Y3317D01*
X10748Y3324D01*
X10749Y3324D01*
X10747Y3329D01*
X10741D01*
X10723Y3311D01*
X10724Y3308D01*
X10722Y3300D01*
X10717Y3292D01*
X10710Y3288D01*
X10701Y3286D01*
X10693Y3288D01*
X10685Y3292D01*
X10680Y3300D01*
X10679Y3308D01*
X10680Y3317D01*
X10685Y3324D01*
X10693Y3329D01*
X10701Y3331D01*
X10704Y3330D01*
X10726Y3352D01*
X10730Y3355D01*
X10735Y3356D01*
D02*
G37*
G36*
X8932Y3321D02*
X8961D01*
X8961Y3321D01*
X8957Y3311D01*
X8951Y3302D01*
X8943Y3296D01*
X8933Y3292D01*
X8932Y3292D01*
Y3321D01*
D02*
G37*
G36*
X8770Y3304D02*
Y3270D01*
X8736D01*
X8736Y3272D01*
X8741Y3283D01*
X8748Y3292D01*
X8757Y3299D01*
X8768Y3304D01*
X8770Y3304D01*
D02*
G37*
G36*
X11686Y3286D02*
X11737D01*
Y3256D01*
X11686D01*
Y3286D01*
D02*
G37*
G36*
X8790Y3304D02*
X8792Y3304D01*
X8803Y3299D01*
X8812Y3292D01*
X8819Y3283D01*
X8824Y3272D01*
X8824Y3270D01*
X8790D01*
Y3304D01*
D02*
G37*
G36*
X11814Y3696D02*
X11854D01*
X11861Y3695D01*
X11868Y3693D01*
X11874Y3688D01*
X11878Y3682D01*
X11881Y3676D01*
X11882Y3668D01*
Y3353D01*
X11881Y3346D01*
X11878Y3339D01*
X11874Y3334D01*
X11868Y3329D01*
X11861Y3326D01*
X11854Y3325D01*
X11814D01*
X11807Y3326D01*
X11800Y3329D01*
X11795Y3334D01*
X11790Y3339D01*
X11787Y3346D01*
X11786Y3353D01*
Y3668D01*
X11787Y3676D01*
X11790Y3682D01*
X11795Y3688D01*
X11800Y3693D01*
X11807Y3695D01*
X11814Y3696D01*
D02*
G37*
G36*
X8932Y3370D02*
X8933Y3370D01*
X8943Y3366D01*
X8951Y3359D01*
X8957Y3351D01*
X8961Y3341D01*
X8961Y3341D01*
X8932D01*
Y3370D01*
D02*
G37*
G36*
X10543Y3327D02*
X10564D01*
Y3297D01*
X10543D01*
Y3327D01*
D02*
G37*
G36*
X8883Y3321D02*
X8912D01*
Y3292D01*
X8912Y3292D01*
X8902Y3296D01*
X8894Y3302D01*
X8887Y3311D01*
X8883Y3321D01*
X8883Y3321D01*
D02*
G37*
G36*
X10390Y3327D02*
X10411D01*
Y3297D01*
X10390D01*
Y3327D01*
D02*
G37*
G36*
X11757Y3286D02*
X11808D01*
Y3256D01*
X11757D01*
Y3286D01*
D02*
G37*
G36*
X11686Y3236D02*
X11737D01*
Y3205D01*
X11686D01*
Y3236D01*
D02*
G37*
G36*
X8790Y3250D02*
X8824D01*
X8824Y3248D01*
X8819Y3237D01*
X8812Y3228D01*
X8803Y3221D01*
X8792Y3216D01*
X8790Y3216D01*
Y3250D01*
D02*
G37*
G36*
X11757Y3236D02*
X11808D01*
Y3205D01*
X11757D01*
Y3236D01*
D02*
G37*
G36*
X10639Y3168D02*
X10656D01*
Y3155D01*
X10639D01*
Y3168D01*
D02*
G37*
G36*
X9631Y3243D02*
X9640Y3242D01*
X9648Y3239D01*
X9655Y3234D01*
X9660Y3227D01*
X9663Y3219D01*
X9664Y3210D01*
X9663Y3201D01*
X9660Y3193D01*
X9655Y3186D01*
X9648Y3181D01*
X9640Y3178D01*
X9631Y3177D01*
X9622Y3178D01*
X9614Y3181D01*
X9608Y3186D01*
X9602Y3193D01*
X9599Y3201D01*
X9598Y3210D01*
X9599Y3219D01*
X9602Y3227D01*
X9608Y3234D01*
X9614Y3239D01*
X9622Y3242D01*
X9631Y3243D01*
D02*
G37*
G36*
X10491Y3413D02*
X10500Y3412D01*
X10508Y3407D01*
X10513Y3399D01*
X10515Y3390D01*
X10514Y3388D01*
X10514Y3388D01*
Y3360D01*
X10514Y3360D01*
X10513Y3352D01*
X10508Y3345D01*
X10503Y3340D01*
Y3327D01*
X10523D01*
Y3297D01*
X10501D01*
Y3297D01*
X10496Y3299D01*
X10479Y3282D01*
Y3253D01*
X10430D01*
Y3320D01*
X10459D01*
X10461Y3323D01*
Y3348D01*
X10461Y3348D01*
X10463Y3356D01*
X10467Y3363D01*
X10473Y3369D01*
Y3376D01*
X10469Y3381D01*
X10468Y3390D01*
X10469Y3399D01*
X10475Y3407D01*
X10482Y3412D01*
X10491Y3413D01*
D02*
G37*
G36*
X10646Y3423D02*
X10655Y3422D01*
X10663Y3417D01*
X10668Y3409D01*
X10670Y3400D01*
X10668Y3391D01*
X10667Y3390D01*
Y3332D01*
X10667Y3332D01*
X10665Y3324D01*
X10661Y3317D01*
X10632Y3288D01*
Y3253D01*
X10583D01*
Y3320D01*
X10605D01*
X10625Y3341D01*
Y3390D01*
X10624Y3391D01*
X10623Y3400D01*
X10624Y3409D01*
X10630Y3417D01*
X10637Y3422D01*
X10646Y3423D01*
D02*
G37*
G36*
X10501Y3277D02*
X10564D01*
Y3246D01*
X10501D01*
Y3277D01*
D02*
G37*
G36*
X8736Y3250D02*
X8770D01*
Y3216D01*
X8768Y3216D01*
X8757Y3221D01*
X8748Y3228D01*
X8741Y3237D01*
X8736Y3248D01*
X8736Y3250D01*
D02*
G37*
G36*
X10390Y3277D02*
X10411D01*
Y3246D01*
X10390D01*
Y3277D01*
D02*
G37*
G36*
X9221Y3633D02*
X9230Y3632D01*
X9238Y3629D01*
X9245Y3624D01*
X9250Y3617D01*
X9253Y3609D01*
X9254Y3600D01*
X9253Y3591D01*
X9250Y3583D01*
X9245Y3576D01*
X9238Y3571D01*
X9230Y3568D01*
X9221Y3567D01*
X9212Y3568D01*
X9204Y3571D01*
X9198Y3576D01*
X9192Y3583D01*
X9189Y3591D01*
X9188Y3600D01*
X9189Y3609D01*
X9192Y3617D01*
X9198Y3624D01*
X9204Y3629D01*
X9212Y3632D01*
X9221Y3633D01*
D02*
G37*
G36*
X9550Y3727D02*
X9578D01*
Y3690D01*
Y3653D01*
X9550D01*
Y3656D01*
X9547Y3656D01*
X9544Y3659D01*
X9543Y3660D01*
X9531D01*
Y3636D01*
X9543D01*
X9544Y3637D01*
X9547Y3640D01*
X9551Y3640D01*
X9555Y3640D01*
X9559Y3637D01*
X9560Y3636D01*
X9618D01*
Y3627D01*
X9650D01*
X9658Y3628D01*
X9667Y3627D01*
X9675Y3622D01*
X9680Y3614D01*
X9682Y3605D01*
X9680Y3596D01*
X9675Y3588D01*
X9667Y3583D01*
X9658Y3582D01*
X9649Y3583D01*
X9646Y3585D01*
X9618D01*
Y3576D01*
X9560D01*
X9559Y3575D01*
X9555Y3572D01*
X9551Y3572D01*
X9547Y3572D01*
X9544Y3575D01*
X9543Y3576D01*
X9484D01*
Y3592D01*
X9427D01*
X9427Y3591D01*
X9422Y3584D01*
X9415Y3578D01*
X9407Y3575D01*
X9398Y3574D01*
X9389Y3575D01*
X9381Y3578D01*
X9375Y3584D01*
X9369Y3591D01*
X9366Y3599D01*
X9365Y3607D01*
X9366Y3616D01*
X9369Y3624D01*
X9375Y3631D01*
X9381Y3636D01*
X9389Y3639D01*
X9398Y3641D01*
X9407Y3639D01*
X9415Y3636D01*
X9422Y3631D01*
X9427Y3624D01*
X9428Y3620D01*
X9484D01*
Y3636D01*
X9502D01*
Y3660D01*
X9484D01*
Y3720D01*
X9543D01*
X9544Y3721D01*
X9547Y3724D01*
X9550Y3724D01*
Y3727D01*
D02*
G37*
G36*
X10381Y3512D02*
X10383Y3512D01*
X10394Y3507D01*
X10403Y3500D01*
X10410Y3491D01*
X10414Y3480D01*
X10415Y3478D01*
X10381D01*
Y3512D01*
D02*
G37*
G36*
X10361D02*
Y3478D01*
X10328D01*
X10328Y3480D01*
X10332Y3491D01*
X10339Y3500D01*
X10349Y3507D01*
X10359Y3512D01*
X10361Y3512D01*
D02*
G37*
G36*
X9398Y3719D02*
X9407Y3718D01*
X9415Y3715D01*
X9422Y3710D01*
X9427Y3703D01*
X9430Y3695D01*
X9431Y3686D01*
X9430Y3677D01*
X9427Y3669D01*
X9422Y3662D01*
X9415Y3657D01*
X9407Y3654D01*
X9398Y3653D01*
X9389Y3654D01*
X9381Y3657D01*
X9375Y3662D01*
X9369Y3669D01*
X9366Y3677D01*
X9365Y3686D01*
X9366Y3695D01*
X9369Y3703D01*
X9375Y3710D01*
X9381Y3715D01*
X9389Y3718D01*
X9398Y3719D01*
D02*
G37*
G36*
X10894Y3772D02*
X10915D01*
Y3741D01*
X10894D01*
Y3772D01*
D02*
G37*
G36*
X10852D02*
X10874D01*
Y3741D01*
X10852D01*
Y3772D01*
D02*
G37*
G36*
X9598Y3680D02*
X9625D01*
Y3653D01*
X9598D01*
Y3680D01*
D02*
G37*
G36*
Y3727D02*
X9625D01*
Y3700D01*
X9598D01*
Y3727D01*
D02*
G37*
G36*
X11545Y3532D02*
X11557Y3531D01*
X11568Y3527D01*
X11578Y3522D01*
X11588Y3514D01*
X11595Y3505D01*
X11601Y3495D01*
X11604Y3483D01*
X11605Y3472D01*
X11604Y3460D01*
X11601Y3449D01*
X11595Y3438D01*
X11588Y3429D01*
X11578Y3422D01*
X11568Y3416D01*
X11557Y3413D01*
X11545Y3411D01*
X11533Y3413D01*
X11522Y3416D01*
X11511Y3422D01*
X11502Y3429D01*
X11495Y3438D01*
X11489Y3449D01*
X11486Y3460D01*
X11485Y3472D01*
X11486Y3483D01*
X11489Y3495D01*
X11495Y3505D01*
X11502Y3514D01*
X11511Y3522D01*
X11522Y3527D01*
X11533Y3531D01*
X11545Y3532D01*
D02*
G37*
G36*
X11421Y3483D02*
X11430Y3482D01*
X11438Y3479D01*
X11445Y3474D01*
X11450Y3467D01*
X11453Y3459D01*
X11454Y3450D01*
X11453Y3441D01*
X11450Y3433D01*
X11445Y3426D01*
X11438Y3421D01*
X11430Y3418D01*
X11421Y3417D01*
X11412Y3418D01*
X11404Y3421D01*
X11398Y3426D01*
X11392Y3433D01*
X11389Y3441D01*
X11388Y3450D01*
X11389Y3459D01*
X11392Y3467D01*
X11398Y3474D01*
X11404Y3479D01*
X11412Y3482D01*
X11421Y3483D01*
D02*
G37*
G36*
X9799Y3386D02*
X9811D01*
Y3363D01*
X9799D01*
Y3386D01*
D02*
G37*
G36*
X8912Y3370D02*
Y3341D01*
X8883D01*
X8883Y3341D01*
X8887Y3351D01*
X8894Y3359D01*
X8902Y3366D01*
X8912Y3370D01*
X8912Y3370D01*
D02*
G37*
G36*
X8730Y3532D02*
X8742Y3531D01*
X8753Y3527D01*
X8763Y3522D01*
X8773Y3514D01*
X8780Y3505D01*
X8786Y3495D01*
X8789Y3483D01*
X8790Y3472D01*
X8789Y3460D01*
X8786Y3449D01*
X8780Y3438D01*
X8773Y3429D01*
X8763Y3422D01*
X8753Y3416D01*
X8742Y3413D01*
X8730Y3411D01*
X8722Y3412D01*
X8720Y3408D01*
X8720Y3408D01*
D01*
D01*
X8727Y3402D01*
X8732Y3395D01*
X8736Y3387D01*
X8737Y3378D01*
X8736Y3369D01*
X8732Y3361D01*
X8727Y3354D01*
X8720Y3348D01*
X8712Y3345D01*
X8703Y3344D01*
X8694Y3345D01*
X8686Y3348D01*
X8679Y3354D01*
X8673Y3361D01*
X8670Y3369D01*
X8668Y3378D01*
X8670Y3387D01*
X8673Y3395D01*
X8679Y3402D01*
X8686Y3408D01*
X8694Y3411D01*
X8703Y3412D01*
X8704Y3412D01*
X8705Y3417D01*
X8696Y3422D01*
X8687Y3429D01*
X8680Y3438D01*
X8674Y3449D01*
X8671Y3460D01*
X8670Y3472D01*
X8671Y3483D01*
X8674Y3495D01*
X8680Y3505D01*
X8687Y3514D01*
X8696Y3522D01*
X8707Y3527D01*
X8718Y3531D01*
X8730Y3532D01*
D02*
G37*
G36*
X11545Y3783D02*
X11554Y3782D01*
X11562Y3779D01*
X11568Y3774D01*
X11574Y3767D01*
X11577Y3759D01*
X11578Y3750D01*
X11577Y3741D01*
X11574Y3733D01*
X11568Y3726D01*
X11568Y3726D01*
Y3714D01*
X11567Y3705D01*
X11561Y3697D01*
X11496Y3632D01*
X11489Y3627D01*
X11480Y3625D01*
X11462D01*
Y3597D01*
X11395D01*
Y3510D01*
X11393Y3501D01*
X11388Y3493D01*
X11355Y3460D01*
Y2850D01*
X11353Y2841D01*
X11348Y2833D01*
X11284Y2770D01*
X11277Y2765D01*
X11268Y2763D01*
X11148D01*
X11068Y2683D01*
X11060Y2678D01*
X11051Y2677D01*
X11045D01*
X11045Y2676D01*
X11038Y2671D01*
X11030Y2668D01*
X11021Y2667D01*
X11012Y2668D01*
X11004Y2671D01*
X10998Y2676D01*
X10992Y2683D01*
X10989Y2691D01*
X10988Y2700D01*
X10989Y2709D01*
X10992Y2717D01*
X10998Y2724D01*
X11004Y2729D01*
X11012Y2732D01*
X11021Y2733D01*
X11030Y2732D01*
X11038Y2729D01*
X11043Y2725D01*
X11121Y2803D01*
X11129Y2808D01*
X11138Y2810D01*
X11258D01*
X11308Y2860D01*
Y3448D01*
X10709D01*
Y3431D01*
X10634D01*
Y3506D01*
X10709D01*
Y3495D01*
X11323D01*
X11348Y3520D01*
Y3725D01*
X11348Y3725D01*
X11349Y3734D01*
X11351Y3736D01*
X11355Y3742D01*
X11355Y3742D01*
X11379Y3766D01*
X11386Y3771D01*
X11391Y3772D01*
Y3775D01*
X11462D01*
Y3723D01*
X11403D01*
X11395Y3715D01*
Y3700D01*
X11462D01*
Y3672D01*
X11470D01*
X11521Y3724D01*
Y3726D01*
X11521Y3726D01*
X11516Y3733D01*
X11513Y3741D01*
X11512Y3750D01*
X11513Y3759D01*
X11516Y3767D01*
X11521Y3774D01*
X11528Y3779D01*
X11536Y3782D01*
X11545Y3783D01*
D02*
G37*
G36*
X9200Y3544D02*
X9208Y3543D01*
X9216Y3540D01*
X9223Y3534D01*
X9228Y3528D01*
X9232Y3520D01*
X9233Y3511D01*
X9232Y3502D01*
X9228Y3494D01*
X9223Y3487D01*
X9223Y3487D01*
X9222Y3486D01*
X9215Y3481D01*
X9207Y3478D01*
X9199Y3477D01*
X9001D01*
X8992Y3478D01*
X8984Y3481D01*
X8978Y3486D01*
X8972Y3493D01*
X8969Y3501D01*
X8968Y3510D01*
X8969Y3519D01*
X8972Y3527D01*
X8978Y3534D01*
X8984Y3539D01*
X8992Y3542D01*
X9001Y3543D01*
X9193D01*
X9200Y3544D01*
D02*
G37*
G36*
X10381Y3458D02*
X10415D01*
X10414Y3457D01*
X10410Y3446D01*
X10403Y3436D01*
X10394Y3429D01*
X10383Y3425D01*
X10381Y3425D01*
Y3458D01*
D02*
G37*
G36*
X10328D02*
X10361D01*
Y3425D01*
X10359Y3425D01*
X10349Y3429D01*
X10339Y3436D01*
X10332Y3446D01*
X10328Y3457D01*
X10328Y3458D01*
D02*
G37*
%LPD*%
G36*
X8920Y2360D02*
X9425D01*
Y2700D01*
X8920D01*
Y2360D01*
D02*
G37*
G36*
X8937Y3668D02*
X9095D01*
Y4062D01*
X8937D01*
Y3668D01*
D02*
G37*
G36*
X8725Y4036D02*
Y3668D01*
X8882D01*
Y4062D01*
X8750D01*
X8725Y4036D01*
D02*
G37*
D10*
X8685Y3472D02*
G03*
X8685Y3472I45J0D01*
G01*
X11500Y375D02*
G03*
X11500Y375I45J0D01*
G01*
Y3472D02*
G03*
X11500Y3472I45J0D01*
G01*
D12*
X9821Y3471D02*
D03*
X9846D02*
D03*
X9872D02*
D03*
Y3396D02*
D03*
X9846D02*
D03*
X9821D02*
D03*
D20*
X9999Y3450D02*
D03*
X10228D02*
D03*
D23*
X9820Y4317D02*
D03*
X9893D02*
D03*
X9515Y3690D02*
D03*
X9588D02*
D03*
X9515Y3606D02*
D03*
X9588D02*
D03*
X9860Y3582D02*
D03*
X9933D02*
D03*
X10538Y3843D02*
D03*
X10465D02*
D03*
Y3764D02*
D03*
X10538D02*
D03*
X10465Y4317D02*
D03*
X10538D02*
D03*
X10465Y4160D02*
D03*
X10538D02*
D03*
X10465Y4080D02*
D03*
X10538D02*
D03*
X10465Y3920D02*
D03*
X10538D02*
D03*
X10822Y3685D02*
D03*
X10750D02*
D03*
X10822Y3606D02*
D03*
X10750D02*
D03*
X10389Y1562D02*
D03*
X10316D02*
D03*
X9283Y3764D02*
D03*
X9210D02*
D03*
X9210Y3685D02*
D03*
X9283D02*
D03*
X10711Y3102D02*
D03*
X10638D02*
D03*
D24*
X11427Y3749D02*
D03*
D25*
Y3649D02*
D03*
D30*
X11211Y3862D02*
D03*
X11059D02*
D03*
X8985Y3865D02*
D03*
X8834D02*
D03*
D34*
X10114Y60D02*
D03*
X10214D02*
D03*
X10314D02*
D03*
X10414D02*
D03*
X10514D02*
D03*
X10614D02*
D03*
D38*
X9553Y4161D02*
D03*
Y4089D02*
D03*
X9553Y3932D02*
D03*
Y4005D02*
D03*
X9836Y3961D02*
D03*
Y3889D02*
D03*
X9921Y3961D02*
D03*
Y3889D02*
D03*
X9711Y3317D02*
D03*
Y3244D02*
D03*
D39*
X9653Y3932D02*
D03*
X9739Y3969D02*
D03*
X9739Y3894D02*
D03*
D40*
X10533Y3287D02*
D03*
X10607Y3287D02*
D03*
X10570Y3373D02*
D03*
X10809Y3782D02*
D03*
X10884Y3782D02*
D03*
X10846Y3868D02*
D03*
X9219Y3882D02*
D03*
X9294Y3882D02*
D03*
X9257Y3968D02*
D03*
X10380Y3287D02*
D03*
X10455Y3287D02*
D03*
X10417Y3373D02*
D03*
D41*
X8796Y3600D02*
D03*
X8678D02*
D03*
X11142Y3587D02*
D03*
X11260D02*
D03*
D46*
X9911Y2550D02*
Y2640D01*
X9931Y2530D02*
X9911Y2550D01*
X10034Y2530D02*
X9931D01*
X10241Y2120D02*
X10072D01*
X10271Y2150D02*
X10241Y2120D01*
X10471Y2150D02*
X10271D01*
X10495Y2126D02*
X10471Y2150D01*
X10541Y2126D02*
X10495D01*
X9210Y3764D02*
Y3817D01*
X9219Y3826D02*
X9210Y3817D01*
X9219Y3826D02*
Y3882D01*
X10603Y2995D02*
X10576D01*
X10638Y3030D02*
X10603Y2995D01*
X10638Y3030D02*
Y3102D01*
Y3129D01*
X10666Y3156D02*
X10638Y3129D01*
X10666Y3156D02*
Y3178D01*
X9835Y3215D02*
X9821Y3200D01*
X9835Y3340D02*
X9821Y3355D01*
X9835Y3215D02*
Y3340D01*
X9821Y3150D02*
Y3200D01*
X9871Y3099D02*
X9821Y3150D01*
X9210Y3685D02*
Y3764D01*
X9021Y3968D02*
X9015Y3962D01*
Y3894D02*
Y3962D01*
Y3894D02*
X8985Y3865D01*
X9872Y3352D02*
X9871Y3351D01*
X9872Y3352D02*
Y3396D01*
X10611Y3291D02*
X10607Y3287D01*
X10611Y3291D02*
Y3297D01*
X9859Y3351D02*
X9846Y3364D01*
X9821Y3355D02*
Y3396D01*
X10571Y1700D02*
X10146D01*
X9770Y3260D02*
Y3409D01*
Y3260D02*
X9755Y3244D01*
X9711D01*
X9888Y4371D02*
Y4384D01*
X9888Y4370D02*
X9888Y4371D01*
X9888Y4370D02*
X9888Y4369D01*
X9918Y3889D02*
X9836D01*
X9833Y3886D01*
X9799D01*
X9790Y3894D01*
X9739D01*
X9836Y3961D02*
X9828Y3969D01*
X9739D01*
X9517Y3606D02*
Y3685D01*
Y3606D02*
X9398D01*
X10626Y3764D02*
X10538D01*
X10626Y3843D02*
X10538D01*
X9739Y3894D02*
X9709Y3864D01*
Y3850D02*
Y3864D01*
X9846Y3364D02*
Y3396D01*
X10494Y3388D02*
X10491Y3390D01*
X10446Y4080D02*
X10406Y4120D01*
X10371D01*
X10465Y3920D02*
X10401D01*
X10465Y4160D02*
X10446D01*
X10406Y4120D01*
X10465Y4080D02*
X10446D01*
X10465Y4317D02*
X10376D01*
X9872Y3444D02*
Y3471D01*
Y3444D02*
X9863Y3436D01*
X9797D01*
X9770Y3409D01*
X9921Y3886D02*
X9918Y3889D01*
D47*
X10626Y3922D02*
X10560D01*
X10826Y4005D02*
X10743Y3922D01*
X10626D01*
X10826Y4105D02*
X10686D01*
X9812Y2830D02*
X9696D01*
X9833Y2809D02*
X9812Y2830D01*
X9741Y3475D02*
X9591Y3325D01*
X9872Y2531D02*
Y2815D01*
X9820Y2867D01*
X10826Y4206D02*
X10737D01*
X9996Y2406D02*
X9872Y2531D01*
X10560Y2188D02*
Y2743D01*
X10691Y2057D02*
X10560Y2188D01*
X10579Y2196D02*
Y2758D01*
X10711Y2064D02*
X10579Y2196D01*
X10601Y2205D02*
Y2934D01*
X10572Y3145D02*
Y3180D01*
X10596Y3204D02*
X10572Y3180D01*
X10701Y3204D02*
X10596D01*
X10715Y3191D02*
X10701Y3204D01*
X10715Y3178D02*
Y3191D01*
X10735Y3342D02*
X10701Y3308D01*
X10843Y3342D02*
X10735D01*
X10939Y3246D02*
X10843Y3342D01*
X11025Y3246D02*
X10939D01*
X10337Y3274D02*
Y3324D01*
X10338Y3273D02*
X10337Y3274D01*
X10338Y3218D02*
Y3273D01*
Y3218D02*
X10337Y3217D01*
Y3037D02*
Y3217D01*
X10318Y3266D02*
Y3294D01*
X10319Y3265D02*
X10318Y3266D01*
X10319Y3226D02*
Y3265D01*
Y3226D02*
X10318Y3225D01*
Y3024D02*
Y3225D01*
X10346Y2997D02*
X10318Y3024D01*
X10337Y3324D02*
X10326Y3335D01*
X10384Y2990D02*
X10337Y3037D01*
X10098Y220D02*
Y274D01*
X10141Y317D02*
X10098Y274D01*
X10141Y317D02*
Y880D01*
X10079Y942D01*
X10114Y204D02*
X10098Y220D01*
X10715Y3178D02*
X10711Y3174D01*
Y3102D02*
Y3174D01*
Y3043D02*
Y3102D01*
X9855Y3183D02*
Y3280D01*
Y3183D02*
X9854Y3182D01*
X13591Y3500D02*
Y3525D01*
X9916Y3341D02*
Y3342D01*
Y3341D02*
X9855Y3280D01*
X9935Y3361D02*
X9916Y3342D01*
X10114Y204D02*
X10114Y203D01*
Y74D02*
Y203D01*
X10362Y2941D02*
Y2980D01*
X10560Y2743D02*
X10362Y2941D01*
X10384Y2953D02*
Y2990D01*
X10579Y2758D02*
X10384Y2953D01*
X10711Y3043D02*
X10601Y2934D01*
X10346Y2996D02*
Y2997D01*
X10318Y3294D02*
X10296Y3316D01*
X10362Y2980D02*
X10346Y2996D01*
X10614Y74D02*
X10611Y76D01*
X10514Y74D02*
Y295D01*
X10691Y473D02*
X10514Y295D01*
X10691Y473D02*
Y1550D01*
X10710Y465D02*
X10611Y366D01*
X10710Y465D02*
Y1557D01*
X10711Y1557D02*
X10710Y1557D01*
X10611Y76D02*
Y366D01*
X9591Y3325D02*
X9286D01*
X10296Y3316D02*
Y3520D01*
X10275Y3312D02*
Y3611D01*
X10300Y3287D02*
X10275Y3312D01*
X10300Y3011D02*
Y3287D01*
X10321Y2990D02*
X10300Y3011D01*
X10321Y2950D02*
Y2990D01*
X10538Y2734D02*
X10321Y2950D01*
X10538Y2182D02*
Y2734D01*
X10589Y2130D02*
X10538Y2182D01*
X10589Y2080D02*
Y2130D01*
X10729Y965D02*
X10729D01*
Y2078D01*
X10601Y2205D01*
X10770Y925D02*
X10729Y965D01*
X10711Y1557D02*
Y2064D01*
X10691Y1550D02*
Y2057D01*
Y1550D02*
X10691Y1550D01*
X9996Y2128D02*
Y2406D01*
X10079Y2045D02*
X9996Y2128D01*
X10079Y942D02*
Y2045D01*
X10221Y3175D02*
X10121Y3275D01*
X10221Y3117D02*
Y3175D01*
X10121Y3275D02*
Y3342D01*
X10183Y3404D02*
X10121Y3342D01*
X9711Y3317D02*
Y3406D01*
X10770Y850D02*
Y925D01*
X10825Y4315D02*
X10823Y4317D01*
X10686Y4105D02*
X10661Y4080D01*
X10626D02*
X10558D01*
X10661D02*
X10626D01*
X9991Y3660D02*
X9799D01*
X9741Y3475D02*
Y3602D01*
X9799Y3660D02*
X9741Y3602D01*
X10396Y4000D02*
X10372Y3976D01*
Y3871D02*
Y3976D01*
X10241Y3570D02*
X10211D01*
X10271Y4000D02*
X10046D01*
X10320Y3819D02*
X9646D01*
X10372Y3871D02*
X10320Y3819D01*
X9946Y4100D02*
X9802D01*
X10046Y4000D02*
X9946Y4100D01*
X9509Y4396D02*
X9418D01*
X9525Y4318D02*
Y4380D01*
X9509Y4396D01*
X9750Y4317D02*
X9734Y4301D01*
X9815Y4317D02*
X9750D01*
X10737Y4206D02*
X10690Y4159D01*
X10558D01*
X10410Y4200D02*
X10371D01*
X10448Y4238D02*
X10410Y4200D01*
X10057Y3756D02*
X9454D01*
X10182Y3700D02*
X10113D01*
X10057Y3756D01*
X9653Y3932D02*
X9553D01*
Y4005D02*
X9553Y4005D01*
Y4089D01*
Y4161D02*
Y4236D01*
X9567Y4249D02*
X9553Y4236D01*
X9634Y4249D02*
X9567D01*
X10822Y3606D02*
Y3685D01*
Y3726D01*
X10809Y3739D01*
Y3782D01*
X9802Y4100D02*
X9790Y4089D01*
X9553D01*
X10750Y3606D02*
X10696Y3659D01*
Y3701D01*
X9337Y4409D02*
X9321Y4425D01*
X9337Y3700D02*
Y4409D01*
Y3700D02*
X9322Y3685D01*
X9283D01*
X9446Y3764D02*
X9398D01*
X9603Y3862D02*
X9496D01*
X9454Y3756D02*
X9446Y3764D01*
X9646Y3819D02*
X9603Y3862D01*
X9846Y3471D02*
Y3537D01*
X9860Y3550D02*
X9846Y3537D01*
X9860Y3550D02*
Y3582D01*
X10417Y3373D02*
Y3406D01*
X10427Y3416D02*
X10417Y3406D01*
X10457Y3416D02*
X10427D01*
X10471Y3430D02*
X10457Y3416D01*
X10048Y3361D02*
X9935D01*
X9542Y4301D02*
X9525Y4318D01*
X9634Y4301D02*
X9542D01*
X9321Y4425D02*
X9301D01*
X10626Y4238D02*
X10448D01*
X10560Y3922D02*
X10558Y3920D01*
X10201Y3719D02*
X10182Y3700D01*
X10465Y3764D02*
X10421D01*
X10465Y3843D02*
X10417D01*
X9734Y4301D02*
X9709D01*
X10587Y3719D02*
X10201D01*
X10421Y3570D02*
X10346D01*
X10296Y3520D01*
X10471D02*
X10421Y3570D01*
X10371Y3637D02*
Y3650D01*
X10461Y3652D02*
X10413Y3700D01*
X10546Y3652D02*
X10461D01*
X10413Y3700D02*
X10216D01*
X9461Y3780D02*
X9398Y3843D01*
X10261Y3780D02*
X9461D01*
X10275Y3766D02*
X10261Y3780D01*
X10275Y3765D02*
Y3766D01*
X9938Y3587D02*
X9933Y3582D01*
X10183Y3404D02*
Y3541D01*
X10211Y3570D02*
X10183Y3541D01*
X10216Y3700D02*
X10178Y3662D01*
X10133D01*
X10221Y3650D02*
X10215Y3644D01*
X10175D02*
X10151Y3620D01*
X10215Y3644D02*
X10175D01*
X10371Y3650D02*
X10221D01*
X10133Y3662D02*
X10106Y3635D01*
X10019D02*
X9971Y3587D01*
X10106Y3635D02*
X10019D01*
X9971Y3587D02*
X9938D01*
X10154Y3563D02*
X10151Y3565D01*
X10154Y3467D02*
X10048Y3361D01*
X10571Y3502D02*
Y3517D01*
X10514Y3575D01*
X10570Y3373D02*
Y3467D01*
X10571Y3468D02*
X10570Y3467D01*
X9821Y3471D02*
X9777D01*
X9711Y3406D01*
X10471Y3430D02*
Y3468D01*
Y3520D01*
X10154Y3467D02*
Y3555D01*
Y3563D01*
X10823Y4317D02*
X10558D01*
X10579Y3685D02*
X10579D01*
X10546Y3652D01*
X10626Y3606D02*
X10402D01*
X10371Y3637D01*
X10580Y3686D02*
X10579Y3685D01*
X10626Y3686D02*
X10580D01*
X10696Y3701D02*
X10670Y3726D01*
X10594D01*
X10587Y3719D01*
D48*
X11142Y3587D02*
X11082D01*
X10589Y525D02*
Y1412D01*
Y525D02*
X10414Y350D01*
X11427Y3749D02*
X11395D01*
X11260Y3649D02*
X11241Y3667D01*
Y3862D01*
X11260Y3587D02*
Y3649D01*
X9283Y3764D02*
Y3814D01*
X9294Y3825D02*
X9283Y3814D01*
X8806Y3609D02*
Y3882D01*
X10646Y3332D02*
X10611Y3297D01*
X10646Y3332D02*
Y3400D01*
X10414Y74D02*
Y350D01*
X10482Y3314D02*
Y3348D01*
Y3314D02*
X10455Y3287D01*
X10494Y3360D02*
Y3388D01*
Y3360D02*
X10482Y3348D01*
X10316Y1562D02*
X10263D01*
X10276Y1652D02*
X10275Y1650D01*
X9861Y3010D02*
X9711Y3160D01*
Y3244D01*
X9660Y3690D02*
X9588D01*
X9294Y3825D02*
Y3882D01*
X9657Y3606D02*
X9589D01*
X10251Y4090D02*
X10129D01*
X10291Y3960D02*
X9921D01*
X9888Y4317D02*
Y4369D01*
D49*
X10407Y2719D02*
X10158D01*
X10476Y2650D02*
X10407Y2719D01*
X10158D02*
X10108Y2769D01*
Y3166D01*
X10470Y2743D02*
X10168D01*
X10471Y2742D02*
X10470Y2743D01*
X10168D02*
X10133Y2778D01*
X10314Y74D02*
Y498D01*
X10311Y500D01*
X10391Y1410D02*
X10389Y1412D01*
X10100Y3248D02*
X10015Y3332D01*
X10228Y3355D02*
Y3450D01*
X10311Y500D02*
Y529D01*
X10477Y2380D02*
X10476Y2381D01*
Y2650D01*
X9945Y3328D02*
Y3330D01*
X10108Y3166D02*
X9945Y3328D01*
X10103Y3248D02*
X10100D01*
X10133Y3218D02*
X10103Y3248D01*
X10133Y2778D02*
Y3218D01*
X9529Y4275D02*
X9495Y4241D01*
X9634Y4275D02*
X9529D01*
X9758D02*
X9709D01*
X9495Y3959D02*
X9461Y3925D01*
Y3850D02*
Y3925D01*
X9495Y3816D02*
X9461Y3850D01*
X9495Y3959D02*
Y4241D01*
X9720Y4155D02*
X9608D01*
X9801Y4236D02*
X9720Y4155D01*
X10228Y4236D02*
X9801D01*
D50*
X10391Y1072D02*
Y1410D01*
Y1072D02*
X10262Y943D01*
Y356D02*
Y943D01*
X10389Y1412D02*
Y1562D01*
Y1652D01*
X8678Y3600D02*
Y3668D01*
X9886Y3351D02*
X9871D01*
X9859D01*
X10340Y1652D02*
X10276D01*
X10214Y74D02*
X10207Y80D01*
Y301D01*
X10262Y356D02*
X10207Y301D01*
X9918Y3384D02*
X9886Y3351D01*
X9999Y3450D02*
X9933D01*
X9836Y3961D02*
Y4012D01*
X10371Y3425D02*
X10366Y3420D01*
X9918Y3384D02*
Y3436D01*
X9933Y3450D02*
X9918Y3436D01*
D51*
X9199Y3510D02*
X9096D01*
X9001D01*
D52*
X10533Y3211D02*
X10521Y3200D01*
X10533Y3211D02*
Y3287D01*
X11395Y3749D02*
X11371Y3725D01*
X11747Y3178D02*
Y3246D01*
X11053Y3868D02*
X10846D01*
X9257Y3968D02*
X9021D01*
X10366Y3335D02*
Y3420D01*
X10380Y3321D02*
X10366Y3335D01*
X10380Y3287D02*
Y3321D01*
X10914Y3782D02*
X10884D01*
X10924Y3791D02*
X10914Y3782D01*
X10924Y3791D02*
Y3793D01*
X11480Y3649D02*
X11427D01*
X11545Y3714D02*
X11480Y3649D01*
X11545Y3714D02*
Y3750D01*
X11331Y3470D02*
X11329Y3472D01*
X10671D01*
X11371Y3510D02*
X11331Y3470D01*
X11371Y3510D02*
Y3725D01*
X11331Y2850D02*
X11268Y2787D01*
X11331Y2850D02*
Y3470D01*
X11268Y2787D02*
X11138D01*
X11051Y2700D01*
X11034D01*
X10371Y3425D02*
Y3468D01*
Y3472D01*
X10750Y3685D02*
Y3760D01*
D53*
X10945Y3043D02*
Y3111D01*
X10846Y3210D02*
X10795D01*
X10945Y3111D02*
X10846Y3210D01*
X10945Y3043D02*
X10861Y2959D01*
Y2570D02*
Y2959D01*
D54*
X10471Y3650D02*
D03*
X10371Y4200D02*
D03*
X10121Y3700D02*
D03*
Y4350D02*
D03*
X11671Y2750D02*
D03*
X10321Y2950D02*
D03*
X9696Y2925D02*
D03*
X9221Y4150D02*
D03*
X10052Y2275D02*
D03*
X8671Y3775D02*
D03*
X9221Y3095D02*
D03*
X10771Y3300D02*
D03*
X9221Y3600D02*
D03*
X9121Y4200D02*
D03*
X10825Y4315D02*
D03*
X10826Y4206D02*
D03*
Y4105D02*
D03*
Y4005D02*
D03*
X9398Y4395D02*
D03*
Y4316D02*
D03*
Y4237D02*
D03*
Y4158D02*
D03*
Y4080D02*
D03*
Y4001D02*
D03*
Y3922D02*
D03*
Y3844D02*
D03*
Y3765D02*
D03*
Y3686D02*
D03*
Y3607D02*
D03*
X10371Y3650D02*
D03*
X10396Y4000D02*
D03*
X10371Y4400D02*
D03*
X10626Y4395D02*
D03*
Y4316D02*
D03*
Y4237D02*
D03*
Y4158D02*
D03*
Y4080D02*
D03*
Y4001D02*
D03*
Y3922D02*
D03*
Y3844D02*
D03*
Y3765D02*
D03*
Y3686D02*
D03*
Y3607D02*
D03*
X9771Y3000D02*
D03*
X10421Y2100D02*
D03*
X11421Y3450D02*
D03*
X10701Y2470D02*
D03*
X8922Y3331D02*
D03*
X11021Y2700D02*
D03*
X10862Y2570D02*
D03*
X9200Y3511D02*
D03*
X10362Y252D02*
D03*
X10146D02*
D03*
X11545Y3750D02*
D03*
X9337Y2950D02*
D03*
X9406Y3210D02*
D03*
X9631Y3210D02*
D03*
X10565Y250D02*
D03*
X9096Y3510D02*
D03*
X9001D02*
D03*
X9246Y4460D02*
D03*
X10351Y2670D02*
D03*
X11420Y3330D02*
D03*
X10771Y3400D02*
D03*
X10376Y4317D02*
D03*
X10371Y4120D02*
D03*
D55*
X11834Y204D02*
D03*
X11834Y3511D02*
D03*
D56*
Y2755D02*
D03*
D57*
X10189Y1412D02*
D03*
X10389D02*
D03*
X10589D02*
D03*
D58*
X11211Y529D02*
D03*
D59*
X11163Y4220D02*
D03*
X9031D02*
D03*
D60*
X9398Y4473D02*
D03*
X10626D02*
D03*
D61*
X10371Y3468D02*
D03*
X10471D02*
D03*
X10571D02*
D03*
X10886Y850D02*
D03*
X8730Y3472D02*
D03*
X10414Y3193D02*
D03*
X11545Y375D02*
D03*
Y3472D02*
D03*
D62*
X10671Y3468D02*
D03*
X10786Y850D02*
D03*
X10514Y3193D02*
D03*
D63*
X8780Y3260D02*
D03*
D64*
X8780Y3142D02*
D03*
D65*
X8703Y3378D02*
D03*
Y3024D02*
D03*
D66*
X9357Y2630D02*
D03*
Y2430D02*
D03*
X11184Y2630D02*
D03*
Y2430D02*
D03*
D67*
X9538Y2835D02*
D03*
X10271Y2835D02*
D03*
X9542Y2227D02*
D03*
X10275Y2227D02*
D03*
X11006Y2835D02*
D03*
X11010Y2227D02*
D03*
D68*
X9057Y2530D02*
D03*
X11484D02*
D03*
D69*
X8985D02*
D03*
X11556Y2530D02*
D03*
D70*
X11361Y2117D02*
D03*
X8806D02*
D03*
D71*
X9380Y3363D02*
D03*
X10882Y3100D02*
D03*
X9945Y2350D02*
D03*
X9820Y2867D02*
D03*
X10084Y2390D02*
D03*
X10184D02*
D03*
X10301Y2450D02*
D03*
Y2624D02*
D03*
X10034Y2530D02*
D03*
X9911Y2640D02*
D03*
X10134Y2700D02*
D03*
X9600Y2696D02*
D03*
X10211Y810D02*
D03*
X10235Y3260D02*
D03*
X10701Y3308D02*
D03*
X10221Y3117D02*
D03*
X11580D02*
D03*
X10972Y3160D02*
D03*
X10973Y3003D02*
D03*
X11841Y483D02*
D03*
Y733D02*
D03*
Y983D02*
D03*
Y1233D02*
D03*
Y1483D02*
D03*
Y1733D02*
D03*
Y1983D02*
D03*
Y2233D02*
D03*
Y2483D02*
D03*
Y3233D02*
D03*
X11591Y483D02*
D03*
Y733D02*
D03*
Y983D02*
D03*
Y1233D02*
D03*
Y1483D02*
D03*
Y1733D02*
D03*
Y1983D02*
D03*
Y2233D02*
D03*
Y2983D02*
D03*
Y3733D02*
D03*
X11341Y483D02*
D03*
Y733D02*
D03*
Y983D02*
D03*
Y1233D02*
D03*
Y1483D02*
D03*
Y1733D02*
D03*
Y1983D02*
D03*
Y2233D02*
D03*
Y2483D02*
D03*
X11091Y483D02*
D03*
Y733D02*
D03*
Y983D02*
D03*
Y1233D02*
D03*
Y1483D02*
D03*
Y1733D02*
D03*
Y1983D02*
D03*
Y4233D02*
D03*
X10841Y483D02*
D03*
Y733D02*
D03*
Y983D02*
D03*
Y1233D02*
D03*
Y1483D02*
D03*
Y2233D02*
D03*
X10341Y733D02*
D03*
Y1233D02*
D03*
Y1483D02*
D03*
Y1733D02*
D03*
X9341Y2233D02*
D03*
Y3233D02*
D03*
X9091Y2233D02*
D03*
Y3233D02*
D03*
X8841Y2233D02*
D03*
Y2483D02*
D03*
Y2733D02*
D03*
X9758Y3186D02*
D03*
X10756Y1971D02*
D03*
X10051Y3710D02*
D03*
X10129Y4090D02*
D03*
X9801Y4236D02*
D03*
X10228D02*
D03*
X9608Y4155D02*
D03*
X9888Y4384D02*
D03*
X9758Y4275D02*
D03*
X10401Y3920D02*
D03*
X9591Y3483D02*
D03*
X9341D02*
D03*
X10275Y3765D02*
D03*
Y3611D02*
D03*
X9919Y4068D02*
D03*
D72*
X9833Y2809D02*
D03*
X9591Y2354D02*
D03*
X9696Y2830D02*
D03*
X10471Y2742D02*
D03*
X10072Y2120D02*
D03*
X10541Y2126D02*
D03*
X10572Y3145D02*
D03*
X9861Y3010D02*
D03*
X10589Y1700D02*
D03*
X10228Y3348D02*
D03*
X8678Y3675D02*
D03*
X9871Y3090D02*
D03*
X10546Y1750D02*
D03*
X10514Y1525D02*
D03*
X11747Y3177D02*
D03*
X9146Y3765D02*
D03*
X10015Y3332D02*
D03*
X10576Y2995D02*
D03*
X9286Y3325D02*
D03*
X9945Y3330D02*
D03*
X9854Y3182D02*
D03*
X10589Y2080D02*
D03*
X10326Y3335D02*
D03*
X10924Y3793D02*
D03*
X11021Y2970D02*
D03*
X9371Y3131D02*
D03*
X9446Y3130D02*
D03*
X9301Y3131D02*
D03*
Y3230D02*
D03*
X10121Y3342D02*
D03*
X10389Y3081D02*
D03*
X10146Y1700D02*
D03*
X10311Y529D02*
D03*
X11009Y3404D02*
D03*
Y3328D02*
D03*
X10546Y2030D02*
D03*
X10477Y2380D02*
D03*
X9991Y3660D02*
D03*
X10241Y3570D02*
D03*
X10211Y3900D02*
D03*
X10251Y4090D02*
D03*
X10271Y4000D02*
D03*
X10291Y3959D02*
D03*
X9871Y4068D02*
D03*
X10786Y3554D02*
D03*
X9294Y3825D02*
D03*
X9709Y3850D02*
D03*
X9836Y4025D02*
D03*
X10646Y3400D02*
D03*
X9495Y3814D02*
D03*
X9496Y3862D02*
D03*
X10417Y3843D02*
D03*
X10421Y3764D02*
D03*
X9660Y3690D02*
D03*
X9658Y3605D02*
D03*
X9371Y3520D02*
D03*
X9441D02*
D03*
X9511D02*
D03*
X10491Y3390D02*
D03*
X9300Y3520D02*
D03*
X9301Y4425D02*
D03*
X10421Y3570D02*
D03*
X10151Y3620D02*
D03*
X10154Y3555D02*
D03*
X10514Y3575D02*
D03*
D73*
X11261Y3000D02*
D03*
X11265Y2921D02*
D03*
X11082Y3587D02*
D03*
X10275Y1650D02*
D03*
X10251Y1560D02*
D03*
X10795Y3210D02*
D03*
X10056Y2910D02*
D03*
X10746Y3757D02*
D03*
X10066Y3554D02*
D03*
D74*
X10822Y3164D02*
D03*
X10773D02*
D03*
D110*
X10715Y3178D02*
D03*
X10666D02*
D03*
X10340Y1652D02*
D03*
X10389D02*
D03*
D111*
X11747Y3246D02*
D03*
X11025D02*
D03*
D112*
X9634Y4249D02*
D03*
Y4275D02*
D03*
Y4301D02*
D03*
X9709D02*
D03*
Y4275D02*
D03*
Y4249D02*
D03*
M02*
